%TF.GenerationSoftware,KiCad,Pcbnew,8.0.4*%
%TF.CreationDate,2024-11-27T12:35:37+01:00*%
%TF.ProjectId,Filtre_V2_FPGA_SMD-SMH_LD,46696c74-7265-45f5-9632-5f465047415f,rev?*%
%TF.SameCoordinates,Original*%
%TF.FileFunction,Copper,L4,Bot*%
%TF.FilePolarity,Positive*%
%FSLAX46Y46*%
G04 Gerber Fmt 4.6, Leading zero omitted, Abs format (unit mm)*
G04 Created by KiCad (PCBNEW 8.0.4) date 2024-11-27 12:35:37*
%MOMM*%
%LPD*%
G01*
G04 APERTURE LIST*
G04 Aperture macros list*
%AMRoundRect*
0 Rectangle with rounded corners*
0 $1 Rounding radius*
0 $2 $3 $4 $5 $6 $7 $8 $9 X,Y pos of 4 corners*
0 Add a 4 corners polygon primitive as box body*
4,1,4,$2,$3,$4,$5,$6,$7,$8,$9,$2,$3,0*
0 Add four circle primitives for the rounded corners*
1,1,$1+$1,$2,$3*
1,1,$1+$1,$4,$5*
1,1,$1+$1,$6,$7*
1,1,$1+$1,$8,$9*
0 Add four rect primitives between the rounded corners*
20,1,$1+$1,$2,$3,$4,$5,0*
20,1,$1+$1,$4,$5,$6,$7,0*
20,1,$1+$1,$6,$7,$8,$9,0*
20,1,$1+$1,$8,$9,$2,$3,0*%
G04 Aperture macros list end*
%TA.AperFunction,ComponentPad*%
%ADD10RoundRect,0.250000X-0.725000X0.600000X-0.725000X-0.600000X0.725000X-0.600000X0.725000X0.600000X0*%
%TD*%
%TA.AperFunction,ComponentPad*%
%ADD11O,1.950000X1.700000*%
%TD*%
%TA.AperFunction,ComponentPad*%
%ADD12R,1.700000X1.700000*%
%TD*%
%TA.AperFunction,ComponentPad*%
%ADD13O,1.700000X1.700000*%
%TD*%
%TA.AperFunction,ComponentPad*%
%ADD14RoundRect,0.250000X-0.600000X-0.725000X0.600000X-0.725000X0.600000X0.725000X-0.600000X0.725000X0*%
%TD*%
%TA.AperFunction,ComponentPad*%
%ADD15O,1.700000X1.950000*%
%TD*%
%TA.AperFunction,ComponentPad*%
%ADD16R,1.600000X1.600000*%
%TD*%
%TA.AperFunction,ComponentPad*%
%ADD17O,1.600000X1.600000*%
%TD*%
%TA.AperFunction,ViaPad*%
%ADD18C,0.600000*%
%TD*%
%TA.AperFunction,ViaPad*%
%ADD19C,0.800000*%
%TD*%
%TA.AperFunction,Conductor*%
%ADD20C,0.500000*%
%TD*%
G04 APERTURE END LIST*
D10*
%TO.P,J1,1,Pin_1*%
%TO.N,+5V*%
X108000000Y-78000000D03*
D11*
%TO.P,J1,2,Pin_2*%
%TO.N,Net-(J1-Pin_2)*%
X108000000Y-80500000D03*
%TO.P,J1,3,Pin_3*%
%TO.N,GND*%
X108000000Y-83000000D03*
%TD*%
D12*
%TO.P,J11,1,Pin_1*%
%TO.N,Net-(A1-D0{slash}RX)*%
X172780000Y-65900000D03*
D13*
%TO.P,J11,2,Pin_2*%
%TO.N,Net-(A1-D1{slash}TX)*%
X170240000Y-65900000D03*
%TO.P,J11,3,Pin_3*%
%TO.N,Net-(A1-D2)*%
X167700000Y-65900000D03*
%TO.P,J11,4,Pin_4*%
%TO.N,Net-(A1-D3)*%
X165160000Y-65900000D03*
%TO.P,J11,5,Pin_5*%
%TO.N,Net-(A1-D4)*%
X162620000Y-65900000D03*
%TO.P,J11,6,Pin_6*%
%TO.N,Net-(A1-D5)*%
X160080000Y-65900000D03*
%TO.P,J11,7,Pin_7*%
%TO.N,Net-(A1-D6)*%
X157540000Y-65900000D03*
%TO.P,J11,8,Pin_8*%
%TO.N,Net-(A1-D7)*%
X155000000Y-65900000D03*
%TD*%
D12*
%TO.P,J8,1,Pin_1*%
%TO.N,/VacdcCh2*%
X173000000Y-114100000D03*
%TD*%
%TO.P,J13,1,Pin_1*%
%TO.N,/VA*%
X120175000Y-96975000D03*
D13*
%TO.P,J13,2,Pin_2*%
%TO.N,Net-(J13-Pin_2)*%
X122715000Y-96975000D03*
%TD*%
D12*
%TO.P,J14,1,Pin_1*%
%TO.N,Net-(J14-Pin_1)*%
X118925000Y-109660000D03*
D13*
%TO.P,J14,2,Pin_2*%
X118925000Y-112200000D03*
%TO.P,J14,3,Pin_3*%
X118925000Y-114740000D03*
%TO.P,J14,4,Pin_4*%
%TO.N,Net-(J14-Pin_4)*%
X121465000Y-109660000D03*
%TO.P,J14,5,Pin_5*%
%TO.N,Net-(J14-Pin_5)*%
X121465000Y-112200000D03*
%TO.P,J14,6,Pin_6*%
%TO.N,Net-(J14-Pin_6)*%
X121465000Y-114740000D03*
%TD*%
D12*
%TO.P,J10,1,Pin_1*%
%TO.N,/VA*%
X131500000Y-108620000D03*
D13*
%TO.P,J10,2,Pin_2*%
%TO.N,Net-(J10-Pin_2)*%
X131500000Y-111160000D03*
%TO.P,J10,3,Pin_3*%
%TO.N,/VD2*%
X131500000Y-113700000D03*
%TD*%
D14*
%TO.P,RV1,1,1*%
%TO.N,Net-(U3--)*%
X166800000Y-77100000D03*
D15*
%TO.P,RV1,2,2*%
%TO.N,/V4*%
X169300000Y-77100000D03*
%TO.P,RV1,3,3*%
X171800000Y-77100000D03*
%TD*%
D12*
%TO.P,J5,1,Pin_1*%
%TO.N,/V1*%
X120050000Y-73575000D03*
D13*
%TO.P,J5,2,Pin_2*%
%TO.N,Net-(J5-Pin_2)*%
X122590000Y-73575000D03*
%TD*%
D12*
%TO.P,J6,1,Pin_1*%
%TO.N,Net-(J6-Pin_1)*%
X119425000Y-85875000D03*
D13*
%TO.P,J6,2,Pin_2*%
X119425000Y-88415000D03*
%TO.P,J6,3,Pin_3*%
X119425000Y-90955000D03*
%TO.P,J6,4,Pin_4*%
%TO.N,Net-(J6-Pin_4)*%
X121965000Y-85875000D03*
%TO.P,J6,5,Pin_5*%
%TO.N,Net-(J6-Pin_5)*%
X121965000Y-88415000D03*
%TO.P,J6,6,Pin_6*%
%TO.N,Net-(J6-Pin_6)*%
X121965000Y-90955000D03*
%TD*%
D12*
%TO.P,J3,1,Pin_1*%
%TO.N,/V1*%
X131800000Y-84700000D03*
D13*
%TO.P,J3,2,Pin_2*%
%TO.N,Net-(J3-Pin_2)*%
X131800000Y-87240000D03*
%TO.P,J3,3,Pin_3*%
%TO.N,/VD1*%
X131800000Y-89780000D03*
%TD*%
D12*
%TO.P,J2,1,Pin_1*%
%TO.N,+5V*%
X106200000Y-90825000D03*
D13*
%TO.P,J2,2,Pin_2*%
%TO.N,GND*%
X106200000Y-93365000D03*
%TD*%
D12*
%TO.P,J7,1,Pin_1*%
%TO.N,/VacdcCh1*%
X179200000Y-70500000D03*
%TD*%
%TO.P,J12,1,Pin_1*%
%TO.N,GND*%
X133200000Y-65900000D03*
D13*
%TO.P,J12,2,Pin_2*%
%TO.N,Net-(A1-D13)*%
X135740000Y-65900000D03*
%TO.P,J12,3,Pin_3*%
%TO.N,unconnected-(J12-Pin_3-Pad3)*%
X138280000Y-65900000D03*
%TO.P,J12,4,Pin_4*%
%TO.N,Net-(A1-D12)*%
X140820000Y-65900000D03*
%TO.P,J12,5,Pin_5*%
%TO.N,Net-(A1-D11)*%
X143360000Y-65900000D03*
%TO.P,J12,6,Pin_6*%
%TO.N,Net-(A1-D10)*%
X145900000Y-65900000D03*
%TD*%
D14*
%TO.P,RV2,1,1*%
%TO.N,Net-(U6--)*%
X167000000Y-99300000D03*
D15*
%TO.P,RV2,2,2*%
%TO.N,/VD*%
X169500000Y-99300000D03*
%TO.P,RV2,3,3*%
X172000000Y-99300000D03*
%TD*%
D12*
%TO.P,J4,1,Pin_1*%
%TO.N,GND*%
X169525000Y-92900000D03*
D13*
%TO.P,J4,2,Pin_2*%
X172065000Y-92900000D03*
%TD*%
D10*
%TO.P,J9,1,Pin_1*%
%TO.N,+5V*%
X107200000Y-101300000D03*
D11*
%TO.P,J9,2,Pin_2*%
%TO.N,Net-(J9-Pin_2)*%
X107200000Y-103800000D03*
%TO.P,J9,3,Pin_3*%
%TO.N,GND*%
X107200000Y-106300000D03*
%TD*%
D16*
%TO.P,A1,1,NC*%
%TO.N,unconnected-(A1-NC-Pad1)*%
X137225000Y-119530000D03*
D17*
%TO.P,A1,2,IOREF*%
%TO.N,unconnected-(A1-IOREF-Pad2)*%
X139765000Y-119530000D03*
%TO.P,A1,3,~{RESET}*%
%TO.N,unconnected-(A1-~{RESET}-Pad3)*%
X142305000Y-119530000D03*
%TO.P,A1,4,3V3*%
%TO.N,unconnected-(A1-3V3-Pad4)*%
X144845000Y-119530000D03*
%TO.P,A1,5,+5V*%
%TO.N,+5V*%
X147385000Y-119530000D03*
%TO.P,A1,6,GND*%
%TO.N,GND*%
X149925000Y-119530000D03*
%TO.P,A1,7,GND*%
X152465000Y-119530000D03*
%TO.P,A1,8,VIN*%
%TO.N,unconnected-(A1-VIN-Pad8)*%
X155005000Y-119530000D03*
%TO.P,A1,9,A0*%
%TO.N,/VacdcCh1*%
X160085000Y-119530000D03*
%TO.P,A1,10,A1*%
%TO.N,/VdcCh1*%
X162625000Y-119530000D03*
%TO.P,A1,11,A2*%
%TO.N,/VacdcCh2*%
X165165000Y-119530000D03*
%TO.P,A1,12,A3*%
%TO.N,/VdcCh2*%
X167705000Y-119530000D03*
%TO.P,A1,13,SDA/A4*%
%TO.N,unconnected-(A1-SDA{slash}A4-Pad13)*%
X170245000Y-119530000D03*
%TO.P,A1,14,SCL/A5*%
%TO.N,unconnected-(A1-SCL{slash}A5-Pad14)*%
X172785000Y-119530000D03*
%TO.P,A1,15,D0/RX*%
%TO.N,Net-(A1-D0{slash}RX)*%
X172785000Y-71270000D03*
%TO.P,A1,16,D1/TX*%
%TO.N,Net-(A1-D1{slash}TX)*%
X170245000Y-71270000D03*
%TO.P,A1,17,D2*%
%TO.N,Net-(A1-D2)*%
X167705000Y-71270000D03*
%TO.P,A1,18,D3*%
%TO.N,Net-(A1-D3)*%
X165165000Y-71270000D03*
%TO.P,A1,19,D4*%
%TO.N,Net-(A1-D4)*%
X162625000Y-71270000D03*
%TO.P,A1,20,D5*%
%TO.N,Net-(A1-D5)*%
X160085000Y-71270000D03*
%TO.P,A1,21,D6*%
%TO.N,Net-(A1-D6)*%
X157545000Y-71270000D03*
%TO.P,A1,22,D7*%
%TO.N,Net-(A1-D7)*%
X155005000Y-71270000D03*
%TO.P,A1,23,D8*%
%TO.N,unconnected-(A1-D8-Pad23)*%
X150945000Y-71270000D03*
%TO.P,A1,24,D9*%
%TO.N,unconnected-(A1-D9-Pad24)*%
X148405000Y-71270000D03*
%TO.P,A1,25,D10*%
%TO.N,Net-(A1-D10)*%
X145865000Y-71270000D03*
%TO.P,A1,26,D11*%
%TO.N,Net-(A1-D11)*%
X143325000Y-71270000D03*
%TO.P,A1,27,D12*%
%TO.N,Net-(A1-D12)*%
X140785000Y-71270000D03*
%TO.P,A1,28,D13*%
%TO.N,Net-(A1-D13)*%
X138245000Y-71270000D03*
%TO.P,A1,29,GND*%
%TO.N,GND*%
X135705000Y-71270000D03*
%TO.P,A1,30,AREF*%
%TO.N,unconnected-(A1-AREF-Pad30)*%
X133165000Y-71270000D03*
%TO.P,A1,31,SDA/A4*%
%TO.N,unconnected-(A1-SDA{slash}A4-Pad31)*%
X130625000Y-71270000D03*
%TO.P,A1,32,SCL/A5*%
%TO.N,unconnected-(A1-SCL{slash}A5-Pad32)*%
X128085000Y-71270000D03*
%TD*%
D18*
%TO.N,GND*%
X140200000Y-80400000D03*
X139500000Y-103000000D03*
X139400000Y-110200000D03*
X140100000Y-87400000D03*
D19*
%TO.N,+5V*%
X133000000Y-74200000D03*
X114500000Y-96700000D03*
X148400000Y-106200000D03*
X161100000Y-108700000D03*
X134900000Y-97300000D03*
X161299996Y-86299996D03*
X174800000Y-81700000D03*
X161313173Y-81586827D03*
X115000000Y-74100000D03*
X161099974Y-104912500D03*
X149100000Y-84300000D03*
X121600000Y-78100000D03*
X104749997Y-116849997D03*
X103700000Y-66350000D03*
X171700000Y-107100000D03*
X124400000Y-99600000D03*
D18*
%TO.N,Net-(U2A--)*%
X134800000Y-85600000D03*
X138200000Y-75800000D03*
%TO.N,/V2*%
X146800000Y-89500000D03*
%TO.N,Net-(U2C--)*%
X146900000Y-76200000D03*
X151900000Y-88800000D03*
%TO.N,Net-(U5A--)*%
X134500000Y-108300000D03*
X134200000Y-100400000D03*
%TO.N,/VB*%
X146600000Y-112000000D03*
%TO.N,Net-(U5C--)*%
X146400000Y-99200000D03*
X151400000Y-111600000D03*
%TO.N,/VD1*%
X119800000Y-83500000D03*
X124600000Y-86500000D03*
%TO.N,/V1*%
X129400000Y-83400000D03*
X117300000Y-73500000D03*
%TO.N,/VA*%
X117000000Y-96900000D03*
X129000000Y-108600000D03*
%TO.N,/VD2*%
X119325000Y-106900000D03*
X123925000Y-110600000D03*
%TO.N,/V3*%
X161850000Y-83750000D03*
X152100000Y-77900000D03*
%TO.N,/VC*%
X151400000Y-101000000D03*
X162500001Y-102700001D03*
%TD*%
D20*
%TO.N,Net-(U2A--)*%
X134800000Y-79200000D02*
X134800000Y-85600000D01*
X138200000Y-75800000D02*
X134800000Y-79200000D01*
%TO.N,Net-(U2C--)*%
X151900000Y-81200000D02*
X151900000Y-88800000D01*
X146900000Y-76200000D02*
X151900000Y-81200000D01*
%TO.N,Net-(U5A--)*%
X134500000Y-100700000D02*
X134500000Y-108300000D01*
X134200000Y-100400000D02*
X134500000Y-100700000D01*
%TO.N,Net-(U5C--)*%
X151400000Y-111600000D02*
X151400000Y-104200000D01*
X151400000Y-104200000D02*
X146400000Y-99200000D01*
%TO.N,/VD1*%
X124600000Y-86247258D02*
X121852742Y-83500000D01*
X121852742Y-83500000D02*
X119800000Y-83500000D01*
X124600000Y-86500000D02*
X124600000Y-86247258D01*
%TO.N,/V1*%
X131800000Y-81000000D02*
X129400000Y-83400000D01*
X119700000Y-75900000D02*
X129800000Y-75900000D01*
X129800000Y-75900000D02*
X131800000Y-77900000D01*
X131800000Y-77900000D02*
X131800000Y-81000000D01*
X117300000Y-73500000D02*
X119700000Y-75900000D01*
%TO.N,/VA*%
X128700000Y-108600000D02*
X129000000Y-108600000D01*
X117000000Y-96900000D02*
X128700000Y-108600000D01*
%TO.N,/VD2*%
X120967742Y-106900000D02*
X123925000Y-109857258D01*
X119325000Y-106900000D02*
X120967742Y-106900000D01*
X123925000Y-109857258D02*
X123925000Y-110600000D01*
%TO.N,/V3*%
X152100000Y-77900000D02*
X156000000Y-77900000D01*
X156000000Y-77900000D02*
X161850000Y-83750000D01*
%TO.N,/VC*%
X151400000Y-101000000D02*
X160800000Y-101000000D01*
X160800000Y-101000000D02*
X162500001Y-102700001D01*
%TD*%
%TA.AperFunction,Conductor*%
%TO.N,GND*%
G36*
X151999075Y-119337007D02*
G01*
X151965000Y-119464174D01*
X151965000Y-119595826D01*
X151999075Y-119722993D01*
X152031988Y-119780000D01*
X150358012Y-119780000D01*
X150390925Y-119722993D01*
X150425000Y-119595826D01*
X150425000Y-119464174D01*
X150390925Y-119337007D01*
X150358012Y-119280000D01*
X152031988Y-119280000D01*
X151999075Y-119337007D01*
G37*
%TD.AperFunction*%
%TA.AperFunction,Conductor*%
G36*
X171599075Y-92707007D02*
G01*
X171565000Y-92834174D01*
X171565000Y-92965826D01*
X171599075Y-93092993D01*
X171631988Y-93150000D01*
X169958012Y-93150000D01*
X169990925Y-93092993D01*
X170025000Y-92965826D01*
X170025000Y-92834174D01*
X169990925Y-92707007D01*
X169958012Y-92650000D01*
X171631988Y-92650000D01*
X171599075Y-92707007D01*
G37*
%TD.AperFunction*%
%TA.AperFunction,Conductor*%
G36*
X183242539Y-63320185D02*
G01*
X183288294Y-63372989D01*
X183299500Y-63424500D01*
X183299500Y-93451500D01*
X183209141Y-120830499D01*
X183200410Y-123475909D01*
X183180505Y-123542883D01*
X183127550Y-123588464D01*
X183076411Y-123599500D01*
X101924500Y-123599500D01*
X101857461Y-123579815D01*
X101811706Y-123527011D01*
X101800500Y-123475500D01*
X101800500Y-118682135D01*
X135924500Y-118682135D01*
X135924500Y-120377870D01*
X135924501Y-120377876D01*
X135930908Y-120437483D01*
X135981202Y-120572328D01*
X135981206Y-120572335D01*
X136067452Y-120687544D01*
X136067455Y-120687547D01*
X136182664Y-120773793D01*
X136182671Y-120773797D01*
X136317517Y-120824091D01*
X136317516Y-120824091D01*
X136324444Y-120824835D01*
X136377127Y-120830500D01*
X138072872Y-120830499D01*
X138132483Y-120824091D01*
X138267331Y-120773796D01*
X138382546Y-120687546D01*
X138468796Y-120572331D01*
X138519091Y-120437483D01*
X138522862Y-120402401D01*
X138549599Y-120337855D01*
X138606990Y-120298006D01*
X138676816Y-120295511D01*
X138736905Y-120331163D01*
X138747726Y-120344536D01*
X138764956Y-120369143D01*
X138925858Y-120530045D01*
X138925861Y-120530047D01*
X139112266Y-120660568D01*
X139318504Y-120756739D01*
X139538308Y-120815635D01*
X139700230Y-120829801D01*
X139764998Y-120835468D01*
X139765000Y-120835468D01*
X139765002Y-120835468D01*
X139821807Y-120830498D01*
X139991692Y-120815635D01*
X140211496Y-120756739D01*
X140417734Y-120660568D01*
X140604139Y-120530047D01*
X140765047Y-120369139D01*
X140895568Y-120182734D01*
X140922618Y-120124724D01*
X140968790Y-120072285D01*
X141035983Y-120053133D01*
X141102865Y-120073348D01*
X141147382Y-120124725D01*
X141174429Y-120182728D01*
X141174432Y-120182734D01*
X141304954Y-120369141D01*
X141465858Y-120530045D01*
X141465861Y-120530047D01*
X141652266Y-120660568D01*
X141858504Y-120756739D01*
X142078308Y-120815635D01*
X142240230Y-120829801D01*
X142304998Y-120835468D01*
X142305000Y-120835468D01*
X142305002Y-120835468D01*
X142361807Y-120830498D01*
X142531692Y-120815635D01*
X142751496Y-120756739D01*
X142957734Y-120660568D01*
X143144139Y-120530047D01*
X143305047Y-120369139D01*
X143435568Y-120182734D01*
X143462618Y-120124724D01*
X143508790Y-120072285D01*
X143575983Y-120053133D01*
X143642865Y-120073348D01*
X143687382Y-120124725D01*
X143714429Y-120182728D01*
X143714432Y-120182734D01*
X143844954Y-120369141D01*
X144005858Y-120530045D01*
X144005861Y-120530047D01*
X144192266Y-120660568D01*
X144398504Y-120756739D01*
X144618308Y-120815635D01*
X144780230Y-120829801D01*
X144844998Y-120835468D01*
X144845000Y-120835468D01*
X144845002Y-120835468D01*
X144901807Y-120830498D01*
X145071692Y-120815635D01*
X145291496Y-120756739D01*
X145497734Y-120660568D01*
X145684139Y-120530047D01*
X145845047Y-120369139D01*
X145975568Y-120182734D01*
X146002618Y-120124724D01*
X146048790Y-120072285D01*
X146115983Y-120053133D01*
X146182865Y-120073348D01*
X146227382Y-120124725D01*
X146254429Y-120182728D01*
X146254432Y-120182734D01*
X146384954Y-120369141D01*
X146545858Y-120530045D01*
X146545861Y-120530047D01*
X146732266Y-120660568D01*
X146938504Y-120756739D01*
X147158308Y-120815635D01*
X147320230Y-120829801D01*
X147384998Y-120835468D01*
X147385000Y-120835468D01*
X147385002Y-120835468D01*
X147441807Y-120830498D01*
X147611692Y-120815635D01*
X147831496Y-120756739D01*
X148037734Y-120660568D01*
X148224139Y-120530047D01*
X148385047Y-120369139D01*
X148515568Y-120182734D01*
X148542895Y-120124129D01*
X148589064Y-120071695D01*
X148656257Y-120052542D01*
X148723139Y-120072757D01*
X148767657Y-120124133D01*
X148794865Y-120182482D01*
X148925342Y-120368820D01*
X149086179Y-120529657D01*
X149272517Y-120660134D01*
X149478673Y-120756265D01*
X149478682Y-120756269D01*
X149674999Y-120808872D01*
X149675000Y-120808871D01*
X149675000Y-119963012D01*
X149732007Y-119995925D01*
X149859174Y-120030000D01*
X149990826Y-120030000D01*
X150117993Y-119995925D01*
X150175000Y-119963012D01*
X150175000Y-120808872D01*
X150371317Y-120756269D01*
X150371326Y-120756265D01*
X150577482Y-120660134D01*
X150763820Y-120529657D01*
X150924657Y-120368820D01*
X151055134Y-120182481D01*
X151055135Y-120182479D01*
X151082618Y-120123543D01*
X151128790Y-120071103D01*
X151195983Y-120051951D01*
X151262864Y-120072166D01*
X151307382Y-120123543D01*
X151334864Y-120182479D01*
X151334865Y-120182481D01*
X151465342Y-120368820D01*
X151626179Y-120529657D01*
X151812517Y-120660134D01*
X152018673Y-120756265D01*
X152018682Y-120756269D01*
X152214999Y-120808872D01*
X152215000Y-120808871D01*
X152215000Y-119963012D01*
X152272007Y-119995925D01*
X152399174Y-120030000D01*
X152530826Y-120030000D01*
X152657993Y-119995925D01*
X152715000Y-119963012D01*
X152715000Y-120808872D01*
X152911317Y-120756269D01*
X152911326Y-120756265D01*
X153117482Y-120660134D01*
X153303820Y-120529657D01*
X153464657Y-120368820D01*
X153595132Y-120182484D01*
X153622341Y-120124134D01*
X153668513Y-120071695D01*
X153735707Y-120052542D01*
X153802588Y-120072757D01*
X153847106Y-120124133D01*
X153874431Y-120182732D01*
X153874432Y-120182734D01*
X154004954Y-120369141D01*
X154165858Y-120530045D01*
X154165861Y-120530047D01*
X154352266Y-120660568D01*
X154558504Y-120756739D01*
X154778308Y-120815635D01*
X154940230Y-120829801D01*
X155004998Y-120835468D01*
X155005000Y-120835468D01*
X155005002Y-120835468D01*
X155061807Y-120830498D01*
X155231692Y-120815635D01*
X155451496Y-120756739D01*
X155657734Y-120660568D01*
X155844139Y-120530047D01*
X156005047Y-120369139D01*
X156135568Y-120182734D01*
X156231739Y-119976496D01*
X156290635Y-119756692D01*
X156310468Y-119530000D01*
X156310468Y-119529998D01*
X158779532Y-119529998D01*
X158779532Y-119530001D01*
X158799364Y-119756686D01*
X158799366Y-119756697D01*
X158858258Y-119976488D01*
X158858261Y-119976497D01*
X158954431Y-120182732D01*
X158954432Y-120182734D01*
X159084954Y-120369141D01*
X159245858Y-120530045D01*
X159245861Y-120530047D01*
X159432266Y-120660568D01*
X159638504Y-120756739D01*
X159858308Y-120815635D01*
X160020230Y-120829801D01*
X160084998Y-120835468D01*
X160085000Y-120835468D01*
X160085002Y-120835468D01*
X160141807Y-120830498D01*
X160311692Y-120815635D01*
X160531496Y-120756739D01*
X160737734Y-120660568D01*
X160924139Y-120530047D01*
X161085047Y-120369139D01*
X161215568Y-120182734D01*
X161242618Y-120124724D01*
X161288790Y-120072285D01*
X161355983Y-120053133D01*
X161422865Y-120073348D01*
X161467382Y-120124725D01*
X161494429Y-120182728D01*
X161494432Y-120182734D01*
X161624954Y-120369141D01*
X161785858Y-120530045D01*
X161785861Y-120530047D01*
X161972266Y-120660568D01*
X162178504Y-120756739D01*
X162398308Y-120815635D01*
X162560230Y-120829801D01*
X162624998Y-120835468D01*
X162625000Y-120835468D01*
X162625002Y-120835468D01*
X162681807Y-120830498D01*
X162851692Y-120815635D01*
X163071496Y-120756739D01*
X163277734Y-120660568D01*
X163464139Y-120530047D01*
X163625047Y-120369139D01*
X163755568Y-120182734D01*
X163782618Y-120124724D01*
X163828790Y-120072285D01*
X163895983Y-120053133D01*
X163962865Y-120073348D01*
X164007382Y-120124725D01*
X164034429Y-120182728D01*
X164034432Y-120182734D01*
X164164954Y-120369141D01*
X164325858Y-120530045D01*
X164325861Y-120530047D01*
X164512266Y-120660568D01*
X164718504Y-120756739D01*
X164938308Y-120815635D01*
X165100230Y-120829801D01*
X165164998Y-120835468D01*
X165165000Y-120835468D01*
X165165002Y-120835468D01*
X165221807Y-120830498D01*
X165391692Y-120815635D01*
X165611496Y-120756739D01*
X165817734Y-120660568D01*
X166004139Y-120530047D01*
X166165047Y-120369139D01*
X166295568Y-120182734D01*
X166322618Y-120124724D01*
X166368790Y-120072285D01*
X166435983Y-120053133D01*
X166502865Y-120073348D01*
X166547382Y-120124725D01*
X166574429Y-120182728D01*
X166574432Y-120182734D01*
X166704954Y-120369141D01*
X166865858Y-120530045D01*
X166865861Y-120530047D01*
X167052266Y-120660568D01*
X167258504Y-120756739D01*
X167478308Y-120815635D01*
X167640230Y-120829801D01*
X167704998Y-120835468D01*
X167705000Y-120835468D01*
X167705002Y-120835468D01*
X167761807Y-120830498D01*
X167931692Y-120815635D01*
X168151496Y-120756739D01*
X168357734Y-120660568D01*
X168544139Y-120530047D01*
X168705047Y-120369139D01*
X168835568Y-120182734D01*
X168862618Y-120124724D01*
X168908790Y-120072285D01*
X168975983Y-120053133D01*
X169042865Y-120073348D01*
X169087382Y-120124725D01*
X169114429Y-120182728D01*
X169114432Y-120182734D01*
X169244954Y-120369141D01*
X169405858Y-120530045D01*
X169405861Y-120530047D01*
X169592266Y-120660568D01*
X169798504Y-120756739D01*
X170018308Y-120815635D01*
X170180230Y-120829801D01*
X170244998Y-120835468D01*
X170245000Y-120835468D01*
X170245002Y-120835468D01*
X170301807Y-120830498D01*
X170471692Y-120815635D01*
X170691496Y-120756739D01*
X170897734Y-120660568D01*
X171084139Y-120530047D01*
X171245047Y-120369139D01*
X171375568Y-120182734D01*
X171402618Y-120124724D01*
X171448790Y-120072285D01*
X171515983Y-120053133D01*
X171582865Y-120073348D01*
X171627382Y-120124725D01*
X171654429Y-120182728D01*
X171654432Y-120182734D01*
X171784954Y-120369141D01*
X171945858Y-120530045D01*
X171945861Y-120530047D01*
X172132266Y-120660568D01*
X172338504Y-120756739D01*
X172558308Y-120815635D01*
X172720230Y-120829801D01*
X172784998Y-120835468D01*
X172785000Y-120835468D01*
X172785002Y-120835468D01*
X172841807Y-120830498D01*
X173011692Y-120815635D01*
X173231496Y-120756739D01*
X173437734Y-120660568D01*
X173624139Y-120530047D01*
X173785047Y-120369139D01*
X173915568Y-120182734D01*
X174011739Y-119976496D01*
X174070635Y-119756692D01*
X174090468Y-119530000D01*
X174070635Y-119303308D01*
X174011739Y-119083504D01*
X173915568Y-118877266D01*
X173785047Y-118690861D01*
X173785045Y-118690858D01*
X173624141Y-118529954D01*
X173437734Y-118399432D01*
X173437732Y-118399431D01*
X173231497Y-118303261D01*
X173231488Y-118303258D01*
X173011697Y-118244366D01*
X173011693Y-118244365D01*
X173011692Y-118244365D01*
X173011691Y-118244364D01*
X173011686Y-118244364D01*
X172785002Y-118224532D01*
X172784998Y-118224532D01*
X172558313Y-118244364D01*
X172558302Y-118244366D01*
X172338511Y-118303258D01*
X172338502Y-118303261D01*
X172132267Y-118399431D01*
X172132265Y-118399432D01*
X171945858Y-118529954D01*
X171784954Y-118690858D01*
X171654432Y-118877265D01*
X171654431Y-118877267D01*
X171627382Y-118935275D01*
X171581209Y-118987714D01*
X171514016Y-119006866D01*
X171447135Y-118986650D01*
X171402618Y-118935275D01*
X171375686Y-118877520D01*
X171375568Y-118877266D01*
X171245047Y-118690861D01*
X171245045Y-118690858D01*
X171084141Y-118529954D01*
X170897734Y-118399432D01*
X170897732Y-118399431D01*
X170691497Y-118303261D01*
X170691488Y-118303258D01*
X170471697Y-118244366D01*
X170471693Y-118244365D01*
X170471692Y-118244365D01*
X170471691Y-118244364D01*
X170471686Y-118244364D01*
X170245002Y-118224532D01*
X170244998Y-118224532D01*
X170018313Y-118244364D01*
X170018302Y-118244366D01*
X169798511Y-118303258D01*
X169798502Y-118303261D01*
X169592267Y-118399431D01*
X169592265Y-118399432D01*
X169405858Y-118529954D01*
X169244954Y-118690858D01*
X169114432Y-118877265D01*
X169114431Y-118877267D01*
X169087382Y-118935275D01*
X169041209Y-118987714D01*
X168974016Y-119006866D01*
X168907135Y-118986650D01*
X168862618Y-118935275D01*
X168835686Y-118877520D01*
X168835568Y-118877266D01*
X168705047Y-118690861D01*
X168705045Y-118690858D01*
X168544141Y-118529954D01*
X168357734Y-118399432D01*
X168357732Y-118399431D01*
X168151497Y-118303261D01*
X168151488Y-118303258D01*
X167931697Y-118244366D01*
X167931693Y-118244365D01*
X167931692Y-118244365D01*
X167931691Y-118244364D01*
X167931686Y-118244364D01*
X167705002Y-118224532D01*
X167704998Y-118224532D01*
X167478313Y-118244364D01*
X167478302Y-118244366D01*
X167258511Y-118303258D01*
X167258502Y-118303261D01*
X167052267Y-118399431D01*
X167052265Y-118399432D01*
X166865858Y-118529954D01*
X166704954Y-118690858D01*
X166574432Y-118877265D01*
X166574431Y-118877267D01*
X166547382Y-118935275D01*
X166501209Y-118987714D01*
X166434016Y-119006866D01*
X166367135Y-118986650D01*
X166322618Y-118935275D01*
X166295686Y-118877520D01*
X166295568Y-118877266D01*
X166165047Y-118690861D01*
X166165045Y-118690858D01*
X166004141Y-118529954D01*
X165817734Y-118399432D01*
X165817732Y-118399431D01*
X165611497Y-118303261D01*
X165611488Y-118303258D01*
X165391697Y-118244366D01*
X165391693Y-118244365D01*
X165391692Y-118244365D01*
X165391691Y-118244364D01*
X165391686Y-118244364D01*
X165165002Y-118224532D01*
X165164998Y-118224532D01*
X164938313Y-118244364D01*
X164938302Y-118244366D01*
X164718511Y-118303258D01*
X164718502Y-118303261D01*
X164512267Y-118399431D01*
X164512265Y-118399432D01*
X164325858Y-118529954D01*
X164164954Y-118690858D01*
X164034432Y-118877265D01*
X164034431Y-118877267D01*
X164007382Y-118935275D01*
X163961209Y-118987714D01*
X163894016Y-119006866D01*
X163827135Y-118986650D01*
X163782618Y-118935275D01*
X163755686Y-118877520D01*
X163755568Y-118877266D01*
X163625047Y-118690861D01*
X163625045Y-118690858D01*
X163464141Y-118529954D01*
X163277734Y-118399432D01*
X163277732Y-118399431D01*
X163071497Y-118303261D01*
X163071488Y-118303258D01*
X162851697Y-118244366D01*
X162851693Y-118244365D01*
X162851692Y-118244365D01*
X162851691Y-118244364D01*
X162851686Y-118244364D01*
X162625002Y-118224532D01*
X162624998Y-118224532D01*
X162398313Y-118244364D01*
X162398302Y-118244366D01*
X162178511Y-118303258D01*
X162178502Y-118303261D01*
X161972267Y-118399431D01*
X161972265Y-118399432D01*
X161785858Y-118529954D01*
X161624954Y-118690858D01*
X161494432Y-118877265D01*
X161494431Y-118877267D01*
X161467382Y-118935275D01*
X161421209Y-118987714D01*
X161354016Y-119006866D01*
X161287135Y-118986650D01*
X161242618Y-118935275D01*
X161215686Y-118877520D01*
X161215568Y-118877266D01*
X161085047Y-118690861D01*
X161085045Y-118690858D01*
X160924141Y-118529954D01*
X160737734Y-118399432D01*
X160737732Y-118399431D01*
X160531497Y-118303261D01*
X160531488Y-118303258D01*
X160311697Y-118244366D01*
X160311693Y-118244365D01*
X160311692Y-118244365D01*
X160311691Y-118244364D01*
X160311686Y-118244364D01*
X160085002Y-118224532D01*
X160084998Y-118224532D01*
X159858313Y-118244364D01*
X159858302Y-118244366D01*
X159638511Y-118303258D01*
X159638502Y-118303261D01*
X159432267Y-118399431D01*
X159432265Y-118399432D01*
X159245858Y-118529954D01*
X159084954Y-118690858D01*
X158954432Y-118877265D01*
X158954431Y-118877267D01*
X158858261Y-119083502D01*
X158858258Y-119083511D01*
X158799366Y-119303302D01*
X158799364Y-119303313D01*
X158779532Y-119529998D01*
X156310468Y-119529998D01*
X156290635Y-119303308D01*
X156231739Y-119083504D01*
X156135568Y-118877266D01*
X156005047Y-118690861D01*
X156005045Y-118690858D01*
X155844141Y-118529954D01*
X155657734Y-118399432D01*
X155657732Y-118399431D01*
X155451497Y-118303261D01*
X155451488Y-118303258D01*
X155231697Y-118244366D01*
X155231693Y-118244365D01*
X155231692Y-118244365D01*
X155231691Y-118244364D01*
X155231686Y-118244364D01*
X155005002Y-118224532D01*
X155004998Y-118224532D01*
X154778313Y-118244364D01*
X154778302Y-118244366D01*
X154558511Y-118303258D01*
X154558502Y-118303261D01*
X154352267Y-118399431D01*
X154352265Y-118399432D01*
X154165858Y-118529954D01*
X154004954Y-118690858D01*
X153874433Y-118877264D01*
X153874432Y-118877266D01*
X153874315Y-118877518D01*
X153847106Y-118935867D01*
X153800933Y-118988306D01*
X153733739Y-119007457D01*
X153666858Y-118987241D01*
X153622342Y-118935865D01*
X153595135Y-118877520D01*
X153595134Y-118877518D01*
X153464657Y-118691179D01*
X153303820Y-118530342D01*
X153117482Y-118399865D01*
X152911328Y-118303734D01*
X152715000Y-118251127D01*
X152715000Y-119096988D01*
X152657993Y-119064075D01*
X152530826Y-119030000D01*
X152399174Y-119030000D01*
X152272007Y-119064075D01*
X152215000Y-119096988D01*
X152215000Y-118251127D01*
X152018671Y-118303734D01*
X151812517Y-118399865D01*
X151626179Y-118530342D01*
X151465342Y-118691179D01*
X151334865Y-118877517D01*
X151307382Y-118936457D01*
X151261210Y-118988896D01*
X151194016Y-119008048D01*
X151127135Y-118987832D01*
X151082618Y-118936457D01*
X151055134Y-118877517D01*
X150924657Y-118691179D01*
X150763820Y-118530342D01*
X150577482Y-118399865D01*
X150371328Y-118303734D01*
X150175000Y-118251127D01*
X150175000Y-119096988D01*
X150117993Y-119064075D01*
X149990826Y-119030000D01*
X149859174Y-119030000D01*
X149732007Y-119064075D01*
X149675000Y-119096988D01*
X149675000Y-118251127D01*
X149478671Y-118303734D01*
X149272517Y-118399865D01*
X149086179Y-118530342D01*
X148925342Y-118691179D01*
X148794867Y-118877515D01*
X148767657Y-118935867D01*
X148721484Y-118988306D01*
X148654290Y-119007457D01*
X148587409Y-118987241D01*
X148542893Y-118935865D01*
X148515685Y-118877518D01*
X148515568Y-118877266D01*
X148385047Y-118690861D01*
X148385045Y-118690858D01*
X148224141Y-118529954D01*
X148037734Y-118399432D01*
X148037732Y-118399431D01*
X147831497Y-118303261D01*
X147831488Y-118303258D01*
X147611697Y-118244366D01*
X147611693Y-118244365D01*
X147611692Y-118244365D01*
X147611691Y-118244364D01*
X147611686Y-118244364D01*
X147385002Y-118224532D01*
X147384998Y-118224532D01*
X147158313Y-118244364D01*
X147158302Y-118244366D01*
X146938511Y-118303258D01*
X146938502Y-118303261D01*
X146732267Y-118399431D01*
X146732265Y-118399432D01*
X146545858Y-118529954D01*
X146384954Y-118690858D01*
X146254432Y-118877265D01*
X146254431Y-118877267D01*
X146227382Y-118935275D01*
X146181209Y-118987714D01*
X146114016Y-119006866D01*
X146047135Y-118986650D01*
X146002618Y-118935275D01*
X145975686Y-118877520D01*
X145975568Y-118877266D01*
X145845047Y-118690861D01*
X145845045Y-118690858D01*
X145684141Y-118529954D01*
X145497734Y-118399432D01*
X145497732Y-118399431D01*
X145291497Y-118303261D01*
X145291488Y-118303258D01*
X145071697Y-118244366D01*
X145071693Y-118244365D01*
X145071692Y-118244365D01*
X145071691Y-118244364D01*
X145071686Y-118244364D01*
X144845002Y-118224532D01*
X144844998Y-118224532D01*
X144618313Y-118244364D01*
X144618302Y-118244366D01*
X144398511Y-118303258D01*
X144398502Y-118303261D01*
X144192267Y-118399431D01*
X144192265Y-118399432D01*
X144005858Y-118529954D01*
X143844954Y-118690858D01*
X143714432Y-118877265D01*
X143714431Y-118877267D01*
X143687382Y-118935275D01*
X143641209Y-118987714D01*
X143574016Y-119006866D01*
X143507135Y-118986650D01*
X143462618Y-118935275D01*
X143435686Y-118877520D01*
X143435568Y-118877266D01*
X143305047Y-118690861D01*
X143305045Y-118690858D01*
X143144141Y-118529954D01*
X142957734Y-118399432D01*
X142957732Y-118399431D01*
X142751497Y-118303261D01*
X142751488Y-118303258D01*
X142531697Y-118244366D01*
X142531693Y-118244365D01*
X142531692Y-118244365D01*
X142531691Y-118244364D01*
X142531686Y-118244364D01*
X142305002Y-118224532D01*
X142304998Y-118224532D01*
X142078313Y-118244364D01*
X142078302Y-118244366D01*
X141858511Y-118303258D01*
X141858502Y-118303261D01*
X141652267Y-118399431D01*
X141652265Y-118399432D01*
X141465858Y-118529954D01*
X141304954Y-118690858D01*
X141174432Y-118877265D01*
X141174431Y-118877267D01*
X141147382Y-118935275D01*
X141101209Y-118987714D01*
X141034016Y-119006866D01*
X140967135Y-118986650D01*
X140922618Y-118935275D01*
X140895686Y-118877520D01*
X140895568Y-118877266D01*
X140765047Y-118690861D01*
X140765045Y-118690858D01*
X140604141Y-118529954D01*
X140417734Y-118399432D01*
X140417732Y-118399431D01*
X140211497Y-118303261D01*
X140211488Y-118303258D01*
X139991697Y-118244366D01*
X139991693Y-118244365D01*
X139991692Y-118244365D01*
X139991691Y-118244364D01*
X139991686Y-118244364D01*
X139765002Y-118224532D01*
X139764998Y-118224532D01*
X139538313Y-118244364D01*
X139538302Y-118244366D01*
X139318511Y-118303258D01*
X139318502Y-118303261D01*
X139112267Y-118399431D01*
X139112265Y-118399432D01*
X138925858Y-118529954D01*
X138764954Y-118690858D01*
X138747725Y-118715464D01*
X138693147Y-118759088D01*
X138623648Y-118766280D01*
X138561294Y-118734757D01*
X138525882Y-118674526D01*
X138522861Y-118657591D01*
X138519091Y-118622516D01*
X138468797Y-118487671D01*
X138468793Y-118487664D01*
X138382547Y-118372455D01*
X138382544Y-118372452D01*
X138267335Y-118286206D01*
X138267328Y-118286202D01*
X138132482Y-118235908D01*
X138132483Y-118235908D01*
X138072883Y-118229501D01*
X138072881Y-118229500D01*
X138072873Y-118229500D01*
X138072864Y-118229500D01*
X136377129Y-118229500D01*
X136377123Y-118229501D01*
X136317516Y-118235908D01*
X136182671Y-118286202D01*
X136182664Y-118286206D01*
X136067455Y-118372452D01*
X136067452Y-118372455D01*
X135981206Y-118487664D01*
X135981202Y-118487671D01*
X135930908Y-118622517D01*
X135924501Y-118682116D01*
X135924500Y-118682135D01*
X101800500Y-118682135D01*
X101800500Y-116849997D01*
X103844537Y-116849997D01*
X103864323Y-117038253D01*
X103864324Y-117038256D01*
X103922815Y-117218274D01*
X103922818Y-117218281D01*
X104017464Y-117382213D01*
X104144126Y-117522885D01*
X104297262Y-117634145D01*
X104297267Y-117634148D01*
X104470189Y-117711139D01*
X104470194Y-117711141D01*
X104655351Y-117750497D01*
X104655352Y-117750497D01*
X104844641Y-117750497D01*
X104844643Y-117750497D01*
X105029800Y-117711141D01*
X105202727Y-117634148D01*
X105355868Y-117522885D01*
X105482530Y-117382213D01*
X105577176Y-117218281D01*
X105635671Y-117038253D01*
X105655457Y-116849997D01*
X105635671Y-116661741D01*
X105577176Y-116481713D01*
X105482530Y-116317781D01*
X105355868Y-116177109D01*
X105355867Y-116177108D01*
X105202731Y-116065848D01*
X105202726Y-116065845D01*
X105029804Y-115988854D01*
X105029799Y-115988852D01*
X104883998Y-115957862D01*
X104844643Y-115949497D01*
X104655351Y-115949497D01*
X104622894Y-115956395D01*
X104470194Y-115988852D01*
X104470189Y-115988854D01*
X104297267Y-116065845D01*
X104297262Y-116065848D01*
X104144126Y-116177108D01*
X104017463Y-116317782D01*
X103922818Y-116481712D01*
X103922815Y-116481719D01*
X103864324Y-116661737D01*
X103864323Y-116661741D01*
X103844537Y-116849997D01*
X101800500Y-116849997D01*
X101800500Y-112199999D01*
X117569341Y-112199999D01*
X117569341Y-112200000D01*
X117589936Y-112435403D01*
X117589938Y-112435413D01*
X117651094Y-112663655D01*
X117651096Y-112663659D01*
X117651097Y-112663663D01*
X117680067Y-112725789D01*
X117750965Y-112877830D01*
X117750967Y-112877834D01*
X117841876Y-113007664D01*
X117886501Y-113071396D01*
X117886506Y-113071402D01*
X118053597Y-113238493D01*
X118053603Y-113238498D01*
X118239158Y-113368425D01*
X118282783Y-113423002D01*
X118289977Y-113492500D01*
X118258454Y-113554855D01*
X118239158Y-113571575D01*
X118053597Y-113701505D01*
X117886505Y-113868597D01*
X117750965Y-114062169D01*
X117750964Y-114062171D01*
X117651098Y-114276335D01*
X117651094Y-114276344D01*
X117589938Y-114504586D01*
X117589936Y-114504596D01*
X117569341Y-114739999D01*
X117569341Y-114740000D01*
X117589936Y-114975403D01*
X117589938Y-114975413D01*
X117651094Y-115203655D01*
X117651096Y-115203659D01*
X117651097Y-115203663D01*
X117655000Y-115212032D01*
X117750965Y-115417830D01*
X117750967Y-115417834D01*
X117859281Y-115572521D01*
X117886505Y-115611401D01*
X118053599Y-115778495D01*
X118150384Y-115846265D01*
X118247165Y-115914032D01*
X118247167Y-115914033D01*
X118247170Y-115914035D01*
X118461337Y-116013903D01*
X118689592Y-116075063D01*
X118877918Y-116091539D01*
X118924999Y-116095659D01*
X118925000Y-116095659D01*
X118925001Y-116095659D01*
X118964234Y-116092226D01*
X119160408Y-116075063D01*
X119388663Y-116013903D01*
X119602830Y-115914035D01*
X119796401Y-115778495D01*
X119963495Y-115611401D01*
X120093425Y-115425842D01*
X120148002Y-115382217D01*
X120217500Y-115375023D01*
X120279855Y-115406546D01*
X120296575Y-115425842D01*
X120426500Y-115611395D01*
X120426505Y-115611401D01*
X120593599Y-115778495D01*
X120690384Y-115846265D01*
X120787165Y-115914032D01*
X120787167Y-115914033D01*
X120787170Y-115914035D01*
X121001337Y-116013903D01*
X121229592Y-116075063D01*
X121417918Y-116091539D01*
X121464999Y-116095659D01*
X121465000Y-116095659D01*
X121465001Y-116095659D01*
X121504234Y-116092226D01*
X121700408Y-116075063D01*
X121928663Y-116013903D01*
X122142830Y-115914035D01*
X122336401Y-115778495D01*
X122503495Y-115611401D01*
X122639035Y-115417830D01*
X122738903Y-115203663D01*
X122800063Y-114975408D01*
X122820659Y-114740000D01*
X122800063Y-114504592D01*
X122738903Y-114276337D01*
X122639035Y-114062171D01*
X122633425Y-114054158D01*
X122503494Y-113868597D01*
X122336402Y-113701506D01*
X122336396Y-113701501D01*
X122150842Y-113571575D01*
X122107217Y-113516998D01*
X122100023Y-113447500D01*
X122131546Y-113385145D01*
X122150842Y-113368425D01*
X122173026Y-113352891D01*
X122336401Y-113238495D01*
X122503495Y-113071401D01*
X122639035Y-112877830D01*
X122738903Y-112663663D01*
X122800063Y-112435408D01*
X122820659Y-112200000D01*
X122818843Y-112179249D01*
X122805908Y-112031401D01*
X122800063Y-111964592D01*
X122738903Y-111736337D01*
X122639035Y-111522171D01*
X122633425Y-111514158D01*
X122503494Y-111328597D01*
X122336402Y-111161506D01*
X122336396Y-111161501D01*
X122150842Y-111031575D01*
X122107217Y-110976998D01*
X122100023Y-110907500D01*
X122131546Y-110845145D01*
X122150842Y-110828425D01*
X122221072Y-110779249D01*
X122336401Y-110698495D01*
X122503495Y-110531401D01*
X122639035Y-110337830D01*
X122738903Y-110123663D01*
X122739482Y-110121505D01*
X122765971Y-110022641D01*
X122802335Y-109962980D01*
X122865182Y-109932450D01*
X122934557Y-109940744D01*
X122973427Y-109967052D01*
X123138181Y-110131806D01*
X123171666Y-110193129D01*
X123174500Y-110219487D01*
X123174500Y-110300028D01*
X123167542Y-110340982D01*
X123139631Y-110420747D01*
X123119435Y-110599996D01*
X123119435Y-110600003D01*
X123139630Y-110779249D01*
X123139631Y-110779254D01*
X123199211Y-110949523D01*
X123247243Y-111025965D01*
X123295184Y-111102262D01*
X123422738Y-111229816D01*
X123493392Y-111274211D01*
X123568010Y-111321097D01*
X123575478Y-111325789D01*
X123702352Y-111370184D01*
X123745745Y-111385368D01*
X123745750Y-111385369D01*
X123924996Y-111405565D01*
X123925000Y-111405565D01*
X123925004Y-111405565D01*
X124104249Y-111385369D01*
X124104252Y-111385368D01*
X124104255Y-111385368D01*
X124274522Y-111325789D01*
X124427262Y-111229816D01*
X124497079Y-111159999D01*
X130144341Y-111159999D01*
X130144341Y-111160000D01*
X130164936Y-111395403D01*
X130164938Y-111395413D01*
X130226094Y-111623655D01*
X130226096Y-111623659D01*
X130226097Y-111623663D01*
X130298651Y-111779255D01*
X130325965Y-111837830D01*
X130325967Y-111837834D01*
X130461501Y-112031395D01*
X130461506Y-112031402D01*
X130628597Y-112198493D01*
X130628603Y-112198498D01*
X130814158Y-112328425D01*
X130857783Y-112383002D01*
X130864977Y-112452500D01*
X130833454Y-112514855D01*
X130814158Y-112531575D01*
X130628597Y-112661505D01*
X130461505Y-112828597D01*
X130325965Y-113022169D01*
X130325964Y-113022171D01*
X130226098Y-113236335D01*
X130226094Y-113236344D01*
X130164938Y-113464586D01*
X130164936Y-113464596D01*
X130144341Y-113699999D01*
X130144341Y-113700000D01*
X130164936Y-113935403D01*
X130164938Y-113935413D01*
X130226094Y-114163655D01*
X130226096Y-114163659D01*
X130226097Y-114163663D01*
X130274735Y-114267967D01*
X130325965Y-114377830D01*
X130325967Y-114377834D01*
X130434281Y-114532521D01*
X130461505Y-114571401D01*
X130628599Y-114738495D01*
X130725384Y-114806265D01*
X130822165Y-114874032D01*
X130822167Y-114874033D01*
X130822170Y-114874035D01*
X131036337Y-114973903D01*
X131036343Y-114973904D01*
X131036344Y-114973905D01*
X131041972Y-114975413D01*
X131264592Y-115035063D01*
X131452918Y-115051539D01*
X131499999Y-115055659D01*
X131500000Y-115055659D01*
X131500001Y-115055659D01*
X131539234Y-115052226D01*
X131735408Y-115035063D01*
X131963663Y-114973903D01*
X132177830Y-114874035D01*
X132371401Y-114738495D01*
X132538495Y-114571401D01*
X132674035Y-114377830D01*
X132773903Y-114163663D01*
X132835063Y-113935408D01*
X132855659Y-113700000D01*
X132835063Y-113464592D01*
X132773903Y-113236337D01*
X132757954Y-113202135D01*
X171649500Y-113202135D01*
X171649500Y-114997870D01*
X171649501Y-114997876D01*
X171655908Y-115057483D01*
X171706202Y-115192328D01*
X171706206Y-115192335D01*
X171792452Y-115307544D01*
X171792455Y-115307547D01*
X171907664Y-115393793D01*
X171907671Y-115393797D01*
X172042517Y-115444091D01*
X172042516Y-115444091D01*
X172049444Y-115444835D01*
X172102127Y-115450500D01*
X173897872Y-115450499D01*
X173957483Y-115444091D01*
X174092331Y-115393796D01*
X174207546Y-115307546D01*
X174293796Y-115192331D01*
X174344091Y-115057483D01*
X174350500Y-114997873D01*
X174350499Y-113202128D01*
X174344091Y-113142517D01*
X174317566Y-113071401D01*
X174293797Y-113007671D01*
X174293793Y-113007664D01*
X174207547Y-112892455D01*
X174207544Y-112892452D01*
X174092335Y-112806206D01*
X174092328Y-112806202D01*
X173957482Y-112755908D01*
X173957483Y-112755908D01*
X173897883Y-112749501D01*
X173897881Y-112749500D01*
X173897873Y-112749500D01*
X173897864Y-112749500D01*
X172102129Y-112749500D01*
X172102123Y-112749501D01*
X172042516Y-112755908D01*
X171907671Y-112806202D01*
X171907664Y-112806206D01*
X171792455Y-112892452D01*
X171792452Y-112892455D01*
X171706206Y-113007664D01*
X171706202Y-113007671D01*
X171655908Y-113142517D01*
X171649501Y-113202116D01*
X171649501Y-113202123D01*
X171649500Y-113202135D01*
X132757954Y-113202135D01*
X132674035Y-113022171D01*
X132663878Y-113007664D01*
X132538494Y-112828597D01*
X132371402Y-112661506D01*
X132371396Y-112661501D01*
X132185842Y-112531575D01*
X132142217Y-112476998D01*
X132135023Y-112407500D01*
X132166546Y-112345145D01*
X132185842Y-112328425D01*
X132208026Y-112312891D01*
X132371401Y-112198495D01*
X132538495Y-112031401D01*
X132560485Y-111999996D01*
X145794435Y-111999996D01*
X145794435Y-112000003D01*
X145814630Y-112179249D01*
X145814631Y-112179254D01*
X145874211Y-112349523D01*
X145970184Y-112502262D01*
X146097738Y-112629816D01*
X146250478Y-112725789D01*
X146336556Y-112755909D01*
X146420745Y-112785368D01*
X146420750Y-112785369D01*
X146599996Y-112805565D01*
X146600000Y-112805565D01*
X146600004Y-112805565D01*
X146779249Y-112785369D01*
X146779252Y-112785368D01*
X146779255Y-112785368D01*
X146949522Y-112725789D01*
X147102262Y-112629816D01*
X147229816Y-112502262D01*
X147325789Y-112349522D01*
X147385368Y-112179255D01*
X147405565Y-112000000D01*
X147387293Y-111837834D01*
X147385369Y-111820750D01*
X147385368Y-111820745D01*
X147355832Y-111736335D01*
X147325789Y-111650478D01*
X147229816Y-111497738D01*
X147102262Y-111370184D01*
X146949523Y-111274211D01*
X146779254Y-111214631D01*
X146779249Y-111214630D01*
X146600004Y-111194435D01*
X146599996Y-111194435D01*
X146420750Y-111214630D01*
X146420745Y-111214631D01*
X146250476Y-111274211D01*
X146097737Y-111370184D01*
X145970184Y-111497737D01*
X145874211Y-111650476D01*
X145814631Y-111820745D01*
X145814630Y-111820750D01*
X145794435Y-111999996D01*
X132560485Y-111999996D01*
X132674035Y-111837830D01*
X132773903Y-111623663D01*
X132835063Y-111395408D01*
X132855659Y-111160000D01*
X132835063Y-110924592D01*
X132773903Y-110696337D01*
X132674035Y-110482171D01*
X132631024Y-110420745D01*
X132538496Y-110288600D01*
X132538495Y-110288599D01*
X132416567Y-110166671D01*
X132383084Y-110105351D01*
X132388068Y-110035659D01*
X132429939Y-109979725D01*
X132460915Y-109962810D01*
X132592331Y-109913796D01*
X132707546Y-109827546D01*
X132793796Y-109712331D01*
X132844091Y-109577483D01*
X132850500Y-109517873D01*
X132850499Y-107722128D01*
X132844091Y-107662517D01*
X132838314Y-107647029D01*
X132793797Y-107527671D01*
X132793793Y-107527664D01*
X132707547Y-107412455D01*
X132707544Y-107412452D01*
X132592335Y-107326206D01*
X132592328Y-107326202D01*
X132457482Y-107275908D01*
X132457483Y-107275908D01*
X132397883Y-107269501D01*
X132397881Y-107269500D01*
X132397873Y-107269500D01*
X132397864Y-107269500D01*
X130602129Y-107269500D01*
X130602123Y-107269501D01*
X130542516Y-107275908D01*
X130407671Y-107326202D01*
X130407664Y-107326206D01*
X130292455Y-107412452D01*
X130292452Y-107412455D01*
X130206206Y-107527664D01*
X130206202Y-107527671D01*
X130155908Y-107662517D01*
X130149501Y-107722116D01*
X130149501Y-107722123D01*
X130149500Y-107722135D01*
X130149500Y-109517870D01*
X130149501Y-109517876D01*
X130155908Y-109577483D01*
X130206202Y-109712328D01*
X130206206Y-109712335D01*
X130292452Y-109827544D01*
X130292455Y-109827547D01*
X130407664Y-109913793D01*
X130407671Y-109913797D01*
X130539081Y-109962810D01*
X130595015Y-110004681D01*
X130619432Y-110070145D01*
X130604580Y-110138418D01*
X130583430Y-110166673D01*
X130461503Y-110288600D01*
X130325965Y-110482169D01*
X130325964Y-110482171D01*
X130226098Y-110696335D01*
X130226094Y-110696344D01*
X130164938Y-110924586D01*
X130164936Y-110924596D01*
X130144341Y-111159999D01*
X124497079Y-111159999D01*
X124554816Y-111102262D01*
X124650789Y-110949522D01*
X124710368Y-110779255D01*
X124719467Y-110698498D01*
X124730565Y-110600003D01*
X124730565Y-110599996D01*
X124710368Y-110420747D01*
X124710368Y-110420745D01*
X124682458Y-110340982D01*
X124675500Y-110300028D01*
X124675500Y-109783337D01*
X124646659Y-109638350D01*
X124646658Y-109638349D01*
X124646658Y-109638345D01*
X124621448Y-109577482D01*
X124590087Y-109501769D01*
X124590080Y-109501756D01*
X124507952Y-109378843D01*
X124473870Y-109344761D01*
X124403416Y-109274307D01*
X123696773Y-108567664D01*
X121446163Y-106317052D01*
X121446156Y-106317046D01*
X121372471Y-106267812D01*
X121372471Y-106267813D01*
X121323233Y-106234913D01*
X121186659Y-106178343D01*
X121186649Y-106178340D01*
X121041662Y-106149500D01*
X121041660Y-106149500D01*
X119624972Y-106149500D01*
X119584017Y-106142542D01*
X119504254Y-106114631D01*
X119504249Y-106114630D01*
X119325004Y-106094435D01*
X119324996Y-106094435D01*
X119145750Y-106114630D01*
X119145745Y-106114631D01*
X118975476Y-106174211D01*
X118822737Y-106270184D01*
X118695184Y-106397737D01*
X118599211Y-106550476D01*
X118539631Y-106720745D01*
X118539630Y-106720750D01*
X118519435Y-106899996D01*
X118519435Y-106900003D01*
X118539630Y-107079249D01*
X118539631Y-107079254D01*
X118599211Y-107249523D01*
X118649607Y-107329727D01*
X118695184Y-107402262D01*
X118822738Y-107529816D01*
X118913080Y-107586582D01*
X118961103Y-107616757D01*
X118975478Y-107625789D01*
X119145745Y-107685368D01*
X119145750Y-107685369D01*
X119324996Y-107705565D01*
X119325000Y-107705565D01*
X119325004Y-107705565D01*
X119504249Y-107685369D01*
X119504252Y-107685368D01*
X119504255Y-107685368D01*
X119584017Y-107657457D01*
X119624972Y-107650500D01*
X120605512Y-107650500D01*
X120672551Y-107670185D01*
X120693193Y-107686819D01*
X121157946Y-108151572D01*
X121191431Y-108212895D01*
X121186447Y-108282587D01*
X121144575Y-108338520D01*
X121102359Y-108359028D01*
X121001341Y-108386095D01*
X121001335Y-108386098D01*
X120787171Y-108485964D01*
X120787169Y-108485965D01*
X120593600Y-108621503D01*
X120471673Y-108743430D01*
X120410350Y-108776914D01*
X120340658Y-108771930D01*
X120284725Y-108730058D01*
X120267810Y-108699081D01*
X120218797Y-108567671D01*
X120218793Y-108567664D01*
X120132547Y-108452455D01*
X120132544Y-108452452D01*
X120017335Y-108366206D01*
X120017328Y-108366202D01*
X119882482Y-108315908D01*
X119882483Y-108315908D01*
X119822883Y-108309501D01*
X119822881Y-108309500D01*
X119822873Y-108309500D01*
X119822864Y-108309500D01*
X118027129Y-108309500D01*
X118027123Y-108309501D01*
X117967516Y-108315908D01*
X117832671Y-108366202D01*
X117832664Y-108366206D01*
X117717455Y-108452452D01*
X117717452Y-108452455D01*
X117631206Y-108567664D01*
X117631202Y-108567671D01*
X117580908Y-108702517D01*
X117574501Y-108762116D01*
X117574500Y-108762135D01*
X117574500Y-110557870D01*
X117574501Y-110557876D01*
X117580908Y-110617483D01*
X117631202Y-110752328D01*
X117631206Y-110752335D01*
X117717452Y-110867544D01*
X117717455Y-110867547D01*
X117832664Y-110953793D01*
X117832671Y-110953797D01*
X117964081Y-111002810D01*
X118020015Y-111044681D01*
X118044432Y-111110145D01*
X118029580Y-111178418D01*
X118008430Y-111206673D01*
X117886503Y-111328600D01*
X117750965Y-111522169D01*
X117750964Y-111522171D01*
X117651098Y-111736335D01*
X117651094Y-111736344D01*
X117589938Y-111964586D01*
X117589936Y-111964596D01*
X117569341Y-112199999D01*
X101800500Y-112199999D01*
X101800500Y-99616228D01*
X104349500Y-99616228D01*
X104349500Y-99783771D01*
X104382182Y-99948074D01*
X104382184Y-99948082D01*
X104446295Y-100102860D01*
X104539373Y-100242162D01*
X104657836Y-100360625D01*
X104716759Y-100399996D01*
X104797137Y-100453703D01*
X104951918Y-100517816D01*
X105095093Y-100546295D01*
X105116228Y-100550499D01*
X105116232Y-100550500D01*
X105116233Y-100550500D01*
X105283768Y-100550500D01*
X105283769Y-100550499D01*
X105448082Y-100517816D01*
X105558891Y-100471916D01*
X105628358Y-100464448D01*
X105690837Y-100495722D01*
X105726490Y-100555811D01*
X105729700Y-100599078D01*
X105724501Y-100649976D01*
X105724500Y-100649996D01*
X105724500Y-101950001D01*
X105724501Y-101950018D01*
X105735000Y-102052796D01*
X105735001Y-102052799D01*
X105783030Y-102197738D01*
X105790186Y-102219334D01*
X105871076Y-102350479D01*
X105882289Y-102368657D01*
X106006344Y-102492712D01*
X106161120Y-102588178D01*
X106207845Y-102640126D01*
X106219068Y-102709088D01*
X106191224Y-102773171D01*
X106183706Y-102781398D01*
X106044889Y-102920215D01*
X105919951Y-103092179D01*
X105823444Y-103281585D01*
X105757753Y-103483760D01*
X105724500Y-103693713D01*
X105724500Y-103906286D01*
X105747476Y-104051355D01*
X105757754Y-104116243D01*
X105797839Y-104239612D01*
X105823444Y-104318414D01*
X105919951Y-104507820D01*
X106044890Y-104679786D01*
X106195209Y-104830105D01*
X106195214Y-104830109D01*
X106360218Y-104949991D01*
X106402884Y-105005320D01*
X106408863Y-105074934D01*
X106376258Y-105136729D01*
X106360218Y-105150627D01*
X106195540Y-105270272D01*
X106195535Y-105270276D01*
X106045276Y-105420535D01*
X106045272Y-105420540D01*
X105920379Y-105592442D01*
X105823904Y-105781782D01*
X105758242Y-105983870D01*
X105758242Y-105983873D01*
X105747769Y-106050000D01*
X106795854Y-106050000D01*
X106757370Y-106116657D01*
X106725000Y-106237465D01*
X106725000Y-106362535D01*
X106757370Y-106483343D01*
X106795854Y-106550000D01*
X105747769Y-106550000D01*
X105758242Y-106616126D01*
X105758242Y-106616129D01*
X105823904Y-106818217D01*
X105920379Y-107007557D01*
X106045272Y-107179459D01*
X106045276Y-107179464D01*
X106195535Y-107329723D01*
X106195540Y-107329727D01*
X106367442Y-107454620D01*
X106556782Y-107551095D01*
X106758872Y-107616757D01*
X106950000Y-107647029D01*
X106950000Y-106704145D01*
X107016657Y-106742630D01*
X107137465Y-106775000D01*
X107262535Y-106775000D01*
X107383343Y-106742630D01*
X107450000Y-106704145D01*
X107450000Y-107647028D01*
X107641127Y-107616757D01*
X107843217Y-107551095D01*
X108032557Y-107454620D01*
X108204459Y-107329727D01*
X108204464Y-107329723D01*
X108354723Y-107179464D01*
X108354727Y-107179459D01*
X108479620Y-107007557D01*
X108576095Y-106818217D01*
X108641757Y-106616129D01*
X108641757Y-106616126D01*
X108652231Y-106550000D01*
X107604146Y-106550000D01*
X107642630Y-106483343D01*
X107675000Y-106362535D01*
X107675000Y-106237465D01*
X107642630Y-106116657D01*
X107604146Y-106050000D01*
X108652231Y-106050000D01*
X108641757Y-105983873D01*
X108641757Y-105983870D01*
X108576095Y-105781782D01*
X108479620Y-105592442D01*
X108354727Y-105420540D01*
X108354723Y-105420535D01*
X108204464Y-105270276D01*
X108204459Y-105270272D01*
X108039781Y-105150627D01*
X107997115Y-105095297D01*
X107991136Y-105025684D01*
X108023741Y-104963889D01*
X108039776Y-104949994D01*
X108204792Y-104830104D01*
X108355104Y-104679792D01*
X108355106Y-104679788D01*
X108355109Y-104679786D01*
X108480048Y-104507820D01*
X108480047Y-104507820D01*
X108480051Y-104507816D01*
X108576557Y-104318412D01*
X108642246Y-104116243D01*
X108675500Y-103906287D01*
X108675500Y-103693713D01*
X108642246Y-103483757D01*
X108576557Y-103281588D01*
X108480051Y-103092184D01*
X108480049Y-103092181D01*
X108480048Y-103092179D01*
X108355109Y-102920213D01*
X108216294Y-102781398D01*
X108182809Y-102720075D01*
X108187793Y-102650383D01*
X108229665Y-102594450D01*
X108238879Y-102588178D01*
X108244331Y-102584814D01*
X108244334Y-102584814D01*
X108393656Y-102492712D01*
X108517712Y-102368656D01*
X108609814Y-102219334D01*
X108664999Y-102052797D01*
X108675500Y-101950009D01*
X108675499Y-100649992D01*
X108664999Y-100547203D01*
X108609814Y-100380666D01*
X108517712Y-100231344D01*
X108393656Y-100107288D01*
X108244334Y-100015186D01*
X108077797Y-99960001D01*
X108077795Y-99960000D01*
X107975010Y-99949500D01*
X106424998Y-99949500D01*
X106424981Y-99949501D01*
X106322203Y-99960000D01*
X106322200Y-99960001D01*
X106195971Y-100001830D01*
X106126143Y-100004232D01*
X106066101Y-99968500D01*
X106034908Y-99905980D01*
X106035350Y-99859933D01*
X106050499Y-99783770D01*
X106050500Y-99783768D01*
X106050500Y-99616232D01*
X106050499Y-99616228D01*
X106017817Y-99451925D01*
X106017816Y-99451918D01*
X105953703Y-99297137D01*
X105888798Y-99200000D01*
X105860626Y-99157837D01*
X105742162Y-99039373D01*
X105602860Y-98946295D01*
X105448082Y-98882184D01*
X105448074Y-98882182D01*
X105283771Y-98849500D01*
X105283767Y-98849500D01*
X105116233Y-98849500D01*
X105116228Y-98849500D01*
X104951925Y-98882182D01*
X104951917Y-98882184D01*
X104797139Y-98946295D01*
X104657837Y-99039373D01*
X104539373Y-99157837D01*
X104446295Y-99297139D01*
X104382184Y-99451917D01*
X104382182Y-99451925D01*
X104349500Y-99616228D01*
X101800500Y-99616228D01*
X101800500Y-96700000D01*
X113594540Y-96700000D01*
X113614326Y-96888256D01*
X113614327Y-96888259D01*
X113672818Y-97068277D01*
X113672821Y-97068284D01*
X113767467Y-97232216D01*
X113885919Y-97363770D01*
X113894129Y-97372888D01*
X114047265Y-97484148D01*
X114047270Y-97484151D01*
X114220192Y-97561142D01*
X114220197Y-97561144D01*
X114405354Y-97600500D01*
X114405355Y-97600500D01*
X114594644Y-97600500D01*
X114594646Y-97600500D01*
X114779803Y-97561144D01*
X114952730Y-97484151D01*
X115105871Y-97372888D01*
X115232533Y-97232216D01*
X115327179Y-97068284D01*
X115381859Y-96899996D01*
X116194435Y-96899996D01*
X116194435Y-96900003D01*
X116214630Y-97079249D01*
X116214631Y-97079254D01*
X116274211Y-97249523D01*
X116305928Y-97300000D01*
X116370184Y-97402262D01*
X116497738Y-97529816D01*
X116610231Y-97600500D01*
X116650478Y-97625789D01*
X116656754Y-97628811D01*
X116655867Y-97630651D01*
X116691940Y-97653307D01*
X128221585Y-109182952D01*
X128248839Y-109201162D01*
X128262374Y-109210206D01*
X128344498Y-109265080D01*
X128344511Y-109265087D01*
X128401079Y-109288518D01*
X128401080Y-109288518D01*
X128481088Y-109321659D01*
X128597241Y-109344763D01*
X128616468Y-109348587D01*
X128626081Y-109350500D01*
X128626082Y-109350500D01*
X128626083Y-109350500D01*
X128700028Y-109350500D01*
X128740983Y-109357458D01*
X128820745Y-109385368D01*
X128820750Y-109385369D01*
X128999996Y-109405565D01*
X129000000Y-109405565D01*
X129000004Y-109405565D01*
X129179249Y-109385369D01*
X129179252Y-109385368D01*
X129179255Y-109385368D01*
X129349522Y-109325789D01*
X129502262Y-109229816D01*
X129629816Y-109102262D01*
X129725789Y-108949522D01*
X129785368Y-108779255D01*
X129785632Y-108776914D01*
X129805565Y-108600003D01*
X129805565Y-108599996D01*
X129785369Y-108420750D01*
X129785368Y-108420745D01*
X129766283Y-108366204D01*
X129725789Y-108250478D01*
X129629816Y-108097738D01*
X129502262Y-107970184D01*
X129415792Y-107915851D01*
X129349523Y-107874211D01*
X129179254Y-107814631D01*
X129179250Y-107814630D01*
X128993305Y-107793680D01*
X128928892Y-107766614D01*
X128919508Y-107758141D01*
X120761368Y-99600000D01*
X123494540Y-99600000D01*
X123514326Y-99788256D01*
X123514327Y-99788259D01*
X123572818Y-99968277D01*
X123572821Y-99968284D01*
X123667467Y-100132216D01*
X123741673Y-100214630D01*
X123794129Y-100272888D01*
X123947265Y-100384148D01*
X123947270Y-100384151D01*
X124120192Y-100461142D01*
X124120197Y-100461144D01*
X124305354Y-100500500D01*
X124305355Y-100500500D01*
X124494644Y-100500500D01*
X124494646Y-100500500D01*
X124679803Y-100461144D01*
X124817142Y-100399996D01*
X133394435Y-100399996D01*
X133394435Y-100400003D01*
X133414630Y-100579249D01*
X133414631Y-100579254D01*
X133474211Y-100749523D01*
X133566964Y-100897137D01*
X133570184Y-100902262D01*
X133697738Y-101029816D01*
X133697742Y-101029819D01*
X133702809Y-101033859D01*
X133742952Y-101091046D01*
X133749500Y-101130809D01*
X133749500Y-108000028D01*
X133742542Y-108040982D01*
X133714631Y-108120747D01*
X133694435Y-108299996D01*
X133694435Y-108300003D01*
X133714630Y-108479249D01*
X133714631Y-108479254D01*
X133774211Y-108649523D01*
X133851125Y-108771930D01*
X133870184Y-108802262D01*
X133997738Y-108929816D01*
X134081060Y-108982171D01*
X134133843Y-109015337D01*
X134150478Y-109025789D01*
X134271902Y-109068277D01*
X134320745Y-109085368D01*
X134320750Y-109085369D01*
X134499996Y-109105565D01*
X134500000Y-109105565D01*
X134500004Y-109105565D01*
X134679249Y-109085369D01*
X134679252Y-109085368D01*
X134679255Y-109085368D01*
X134849522Y-109025789D01*
X135002262Y-108929816D01*
X135129816Y-108802262D01*
X135225789Y-108649522D01*
X135285368Y-108479255D01*
X135291960Y-108420750D01*
X135305565Y-108300003D01*
X135305565Y-108299996D01*
X135285368Y-108120747D01*
X135285368Y-108120745D01*
X135257458Y-108040982D01*
X135250500Y-108000028D01*
X135250500Y-106200000D01*
X147494540Y-106200000D01*
X147514326Y-106388256D01*
X147514327Y-106388259D01*
X147572818Y-106568277D01*
X147572821Y-106568284D01*
X147667467Y-106732216D01*
X147744903Y-106818217D01*
X147794129Y-106872888D01*
X147947265Y-106984148D01*
X147947270Y-106984151D01*
X148120192Y-107061142D01*
X148120197Y-107061144D01*
X148305354Y-107100500D01*
X148305355Y-107100500D01*
X148494644Y-107100500D01*
X148494646Y-107100500D01*
X148679803Y-107061144D01*
X148852730Y-106984151D01*
X149005871Y-106872888D01*
X149132533Y-106732216D01*
X149227179Y-106568284D01*
X149285674Y-106388256D01*
X149305460Y-106200000D01*
X149285674Y-106011744D01*
X149227179Y-105831716D01*
X149132533Y-105667784D01*
X149005871Y-105527112D01*
X149005870Y-105527111D01*
X148852734Y-105415851D01*
X148852729Y-105415848D01*
X148679807Y-105338857D01*
X148679802Y-105338855D01*
X148534001Y-105307865D01*
X148494646Y-105299500D01*
X148305354Y-105299500D01*
X148272897Y-105306398D01*
X148120197Y-105338855D01*
X148120192Y-105338857D01*
X147947270Y-105415848D01*
X147947265Y-105415851D01*
X147794129Y-105527111D01*
X147667466Y-105667785D01*
X147572821Y-105831715D01*
X147572818Y-105831722D01*
X147515431Y-106008343D01*
X147514326Y-106011744D01*
X147494540Y-106200000D01*
X135250500Y-106200000D01*
X135250500Y-100626079D01*
X135221659Y-100481092D01*
X135221658Y-100481091D01*
X135221658Y-100481087D01*
X135195132Y-100417048D01*
X135165085Y-100344507D01*
X135164969Y-100344334D01*
X135122288Y-100280456D01*
X135122287Y-100280454D01*
X135082956Y-100221589D01*
X135082952Y-100221584D01*
X134953307Y-100091939D01*
X134930653Y-100055869D01*
X134928813Y-100056756D01*
X134925792Y-100050484D01*
X134925789Y-100050480D01*
X134925789Y-100050478D01*
X134829816Y-99897738D01*
X134702262Y-99770184D01*
X134656203Y-99741243D01*
X134549523Y-99674211D01*
X134379254Y-99614631D01*
X134379249Y-99614630D01*
X134200004Y-99594435D01*
X134199996Y-99594435D01*
X134020750Y-99614630D01*
X134020745Y-99614631D01*
X133850476Y-99674211D01*
X133697737Y-99770184D01*
X133570184Y-99897737D01*
X133474211Y-100050476D01*
X133414631Y-100220745D01*
X133414630Y-100220750D01*
X133394435Y-100399996D01*
X124817142Y-100399996D01*
X124852730Y-100384151D01*
X125005871Y-100272888D01*
X125132533Y-100132216D01*
X125227179Y-99968284D01*
X125285674Y-99788256D01*
X125305460Y-99600000D01*
X125285674Y-99411744D01*
X125227179Y-99231716D01*
X125208865Y-99199996D01*
X145594435Y-99199996D01*
X145594435Y-99200003D01*
X145614630Y-99379249D01*
X145614631Y-99379254D01*
X145674211Y-99549523D01*
X145716128Y-99616233D01*
X145770184Y-99702262D01*
X145897738Y-99829816D01*
X146050478Y-99925789D01*
X146050480Y-99925789D01*
X146050484Y-99925792D01*
X146056756Y-99928813D01*
X146055869Y-99930653D01*
X146091939Y-99953307D01*
X150613181Y-104474549D01*
X150646666Y-104535872D01*
X150649500Y-104562230D01*
X150649500Y-111300028D01*
X150642542Y-111340982D01*
X150614631Y-111420747D01*
X150594435Y-111599996D01*
X150594435Y-111600003D01*
X150614630Y-111779249D01*
X150614631Y-111779254D01*
X150674211Y-111949523D01*
X150770184Y-112102262D01*
X150897738Y-112229816D01*
X151050478Y-112325789D01*
X151118306Y-112349523D01*
X151220745Y-112385368D01*
X151220750Y-112385369D01*
X151399996Y-112405565D01*
X151400000Y-112405565D01*
X151400004Y-112405565D01*
X151579249Y-112385369D01*
X151579252Y-112385368D01*
X151579255Y-112385368D01*
X151749522Y-112325789D01*
X151902262Y-112229816D01*
X152029816Y-112102262D01*
X152125789Y-111949522D01*
X152185368Y-111779255D01*
X152205565Y-111600000D01*
X152200808Y-111557783D01*
X152185368Y-111420747D01*
X152185368Y-111420745D01*
X152157458Y-111340982D01*
X152150500Y-111300028D01*
X152150500Y-108700000D01*
X160194540Y-108700000D01*
X160214326Y-108888256D01*
X160214327Y-108888259D01*
X160272818Y-109068277D01*
X160272821Y-109068284D01*
X160367467Y-109232216D01*
X160405367Y-109274308D01*
X160494129Y-109372888D01*
X160647265Y-109484148D01*
X160647270Y-109484151D01*
X160820192Y-109561142D01*
X160820197Y-109561144D01*
X161005354Y-109600500D01*
X161005355Y-109600500D01*
X161194644Y-109600500D01*
X161194646Y-109600500D01*
X161379803Y-109561144D01*
X161552730Y-109484151D01*
X161705871Y-109372888D01*
X161832533Y-109232216D01*
X161927179Y-109068284D01*
X161985674Y-108888256D01*
X162005460Y-108700000D01*
X161985674Y-108511744D01*
X161927179Y-108331716D01*
X161832533Y-108167784D01*
X161705871Y-108027112D01*
X161669243Y-108000500D01*
X161552734Y-107915851D01*
X161552729Y-107915848D01*
X161379807Y-107838857D01*
X161379802Y-107838855D01*
X161234001Y-107807865D01*
X161194646Y-107799500D01*
X161005354Y-107799500D01*
X160972897Y-107806398D01*
X160820197Y-107838855D01*
X160820192Y-107838857D01*
X160647270Y-107915848D01*
X160647265Y-107915851D01*
X160494129Y-108027111D01*
X160367466Y-108167785D01*
X160272821Y-108331715D01*
X160272818Y-108331722D01*
X160224882Y-108479255D01*
X160214326Y-108511744D01*
X160194540Y-108700000D01*
X152150500Y-108700000D01*
X152150500Y-107100000D01*
X170794540Y-107100000D01*
X170814326Y-107288256D01*
X170814327Y-107288259D01*
X170872818Y-107468277D01*
X170872821Y-107468284D01*
X170967467Y-107632216D01*
X171048431Y-107722135D01*
X171094129Y-107772888D01*
X171247265Y-107884148D01*
X171247270Y-107884151D01*
X171420192Y-107961142D01*
X171420197Y-107961144D01*
X171605354Y-108000500D01*
X171605355Y-108000500D01*
X171794644Y-108000500D01*
X171794646Y-108000500D01*
X171979803Y-107961144D01*
X172152730Y-107884151D01*
X172305871Y-107772888D01*
X172432533Y-107632216D01*
X172527179Y-107468284D01*
X172585674Y-107288256D01*
X172605460Y-107100000D01*
X172585674Y-106911744D01*
X172530725Y-106742630D01*
X172527181Y-106731722D01*
X172527180Y-106731721D01*
X172527179Y-106731716D01*
X172432533Y-106567784D01*
X172305871Y-106427112D01*
X172305870Y-106427111D01*
X172152734Y-106315851D01*
X172152729Y-106315848D01*
X171979807Y-106238857D01*
X171979802Y-106238855D01*
X171834001Y-106207865D01*
X171794646Y-106199500D01*
X171605354Y-106199500D01*
X171572897Y-106206398D01*
X171420197Y-106238855D01*
X171420192Y-106238857D01*
X171247270Y-106315848D01*
X171247265Y-106315851D01*
X171094129Y-106427111D01*
X170967466Y-106567785D01*
X170872821Y-106731715D01*
X170872818Y-106731722D01*
X170826951Y-106872888D01*
X170814326Y-106911744D01*
X170794540Y-107100000D01*
X152150500Y-107100000D01*
X152150500Y-104912500D01*
X160194514Y-104912500D01*
X160214300Y-105100756D01*
X160214301Y-105100759D01*
X160272792Y-105280777D01*
X160272795Y-105280784D01*
X160367441Y-105444716D01*
X160441630Y-105527111D01*
X160494103Y-105585388D01*
X160647239Y-105696648D01*
X160647244Y-105696651D01*
X160820166Y-105773642D01*
X160820171Y-105773644D01*
X161005328Y-105813000D01*
X161005329Y-105813000D01*
X161194618Y-105813000D01*
X161194620Y-105813000D01*
X161379777Y-105773644D01*
X161552704Y-105696651D01*
X161705845Y-105585388D01*
X161832507Y-105444716D01*
X161927153Y-105280784D01*
X161985648Y-105100756D01*
X162005434Y-104912500D01*
X161985648Y-104724244D01*
X161927153Y-104544216D01*
X161832507Y-104380284D01*
X161705845Y-104239612D01*
X161705844Y-104239611D01*
X161552708Y-104128351D01*
X161552703Y-104128348D01*
X161379781Y-104051357D01*
X161379776Y-104051355D01*
X161233975Y-104020365D01*
X161194620Y-104012000D01*
X161005328Y-104012000D01*
X160972871Y-104018898D01*
X160820171Y-104051355D01*
X160820166Y-104051357D01*
X160647244Y-104128348D01*
X160647239Y-104128351D01*
X160494103Y-104239611D01*
X160367440Y-104380285D01*
X160272795Y-104544215D01*
X160272792Y-104544222D01*
X160228745Y-104679786D01*
X160214300Y-104724244D01*
X160194514Y-104912500D01*
X152150500Y-104912500D01*
X152150500Y-104126079D01*
X152121659Y-103981092D01*
X152121658Y-103981091D01*
X152121658Y-103981087D01*
X152090675Y-103906287D01*
X152065086Y-103844509D01*
X152065085Y-103844507D01*
X152032186Y-103795270D01*
X152032185Y-103795268D01*
X151982956Y-103721589D01*
X151982952Y-103721584D01*
X149261364Y-100999996D01*
X150594435Y-100999996D01*
X150594435Y-101000003D01*
X150614630Y-101179249D01*
X150614631Y-101179254D01*
X150674211Y-101349523D01*
X150695729Y-101383768D01*
X150770184Y-101502262D01*
X150897738Y-101629816D01*
X150988080Y-101686582D01*
X151013991Y-101702863D01*
X151050478Y-101725789D01*
X151220745Y-101785368D01*
X151220750Y-101785369D01*
X151399996Y-101805565D01*
X151400000Y-101805565D01*
X151400004Y-101805565D01*
X151579249Y-101785369D01*
X151579252Y-101785368D01*
X151579255Y-101785368D01*
X151659017Y-101757457D01*
X151699972Y-101750500D01*
X160437770Y-101750500D01*
X160504809Y-101770185D01*
X160525451Y-101786819D01*
X161746693Y-103008060D01*
X161769359Y-103044126D01*
X161771189Y-103043245D01*
X161774210Y-103049519D01*
X161774212Y-103049523D01*
X161870185Y-103202263D01*
X161997739Y-103329817D01*
X162150479Y-103425790D01*
X162316139Y-103483757D01*
X162320746Y-103485369D01*
X162320751Y-103485370D01*
X162499997Y-103505566D01*
X162500001Y-103505566D01*
X162500005Y-103505566D01*
X162679250Y-103485370D01*
X162679253Y-103485369D01*
X162679256Y-103485369D01*
X162849523Y-103425790D01*
X163002263Y-103329817D01*
X163129817Y-103202263D01*
X163225790Y-103049523D01*
X163285369Y-102879256D01*
X163297691Y-102769896D01*
X163305566Y-102700004D01*
X163305566Y-102699997D01*
X163285370Y-102520751D01*
X163285369Y-102520746D01*
X163275559Y-102492712D01*
X163225790Y-102350479D01*
X163129817Y-102197739D01*
X163002263Y-102070185D01*
X162849523Y-101974212D01*
X162849519Y-101974210D01*
X162843245Y-101971189D01*
X162844126Y-101969359D01*
X162808060Y-101946693D01*
X162077596Y-101216228D01*
X164549500Y-101216228D01*
X164549500Y-101383771D01*
X164582182Y-101548074D01*
X164582184Y-101548082D01*
X164646295Y-101702860D01*
X164739373Y-101842162D01*
X164857837Y-101960626D01*
X164950494Y-102022537D01*
X164997137Y-102053703D01*
X165151918Y-102117816D01*
X165316228Y-102150499D01*
X165316232Y-102150500D01*
X165316233Y-102150500D01*
X165483768Y-102150500D01*
X165483769Y-102150499D01*
X165648082Y-102117816D01*
X165802863Y-102053703D01*
X165942162Y-101960626D01*
X166060626Y-101842162D01*
X166153703Y-101702863D01*
X166217816Y-101548082D01*
X166250500Y-101383767D01*
X166250500Y-101216233D01*
X166217816Y-101051918D01*
X166171916Y-100941108D01*
X166164448Y-100871641D01*
X166195723Y-100809162D01*
X166255811Y-100773509D01*
X166299081Y-100770299D01*
X166302300Y-100770627D01*
X166349991Y-100775500D01*
X167650008Y-100775499D01*
X167752797Y-100764999D01*
X167919334Y-100709814D01*
X168068656Y-100617712D01*
X168192712Y-100493656D01*
X168284814Y-100344334D01*
X168284814Y-100344331D01*
X168288178Y-100338879D01*
X168340126Y-100292154D01*
X168409088Y-100280931D01*
X168473170Y-100308774D01*
X168481398Y-100316294D01*
X168620213Y-100455109D01*
X168792179Y-100580048D01*
X168792181Y-100580049D01*
X168792184Y-100580051D01*
X168981588Y-100676557D01*
X169183757Y-100742246D01*
X169393713Y-100775500D01*
X169393714Y-100775500D01*
X169606286Y-100775500D01*
X169606287Y-100775500D01*
X169816243Y-100742246D01*
X170018412Y-100676557D01*
X170207816Y-100580051D01*
X170254275Y-100546297D01*
X170379786Y-100455109D01*
X170379788Y-100455106D01*
X170379792Y-100455104D01*
X170530104Y-100304792D01*
X170649683Y-100140204D01*
X170705011Y-100097540D01*
X170774624Y-100091561D01*
X170836420Y-100124166D01*
X170850313Y-100140199D01*
X170946717Y-100272888D01*
X170969896Y-100304792D01*
X171120213Y-100455109D01*
X171292179Y-100580048D01*
X171292181Y-100580049D01*
X171292184Y-100580051D01*
X171481588Y-100676557D01*
X171683757Y-100742246D01*
X171893713Y-100775500D01*
X171893714Y-100775500D01*
X172106286Y-100775500D01*
X172106287Y-100775500D01*
X172316243Y-100742246D01*
X172518412Y-100676557D01*
X172707816Y-100580051D01*
X172754275Y-100546297D01*
X172879786Y-100455109D01*
X172879788Y-100455106D01*
X172879792Y-100455104D01*
X173030104Y-100304792D01*
X173030106Y-100304788D01*
X173030109Y-100304786D01*
X173155048Y-100132820D01*
X173155047Y-100132820D01*
X173155051Y-100132816D01*
X173251557Y-99943412D01*
X173317246Y-99741243D01*
X173350500Y-99531287D01*
X173350500Y-99068713D01*
X173317246Y-98858757D01*
X173251557Y-98656588D01*
X173155051Y-98467184D01*
X173155049Y-98467181D01*
X173155048Y-98467179D01*
X173030109Y-98295213D01*
X172879786Y-98144890D01*
X172707820Y-98019951D01*
X172518414Y-97923444D01*
X172518413Y-97923443D01*
X172518412Y-97923443D01*
X172316243Y-97857754D01*
X172316241Y-97857753D01*
X172316240Y-97857753D01*
X172154957Y-97832208D01*
X172106287Y-97824500D01*
X171893713Y-97824500D01*
X171845042Y-97832208D01*
X171683760Y-97857753D01*
X171481585Y-97923444D01*
X171292179Y-98019951D01*
X171120213Y-98144890D01*
X170969894Y-98295209D01*
X170969890Y-98295214D01*
X170850318Y-98459793D01*
X170794989Y-98502459D01*
X170725375Y-98508438D01*
X170663580Y-98475833D01*
X170649682Y-98459793D01*
X170530109Y-98295214D01*
X170530105Y-98295209D01*
X170379786Y-98144890D01*
X170207820Y-98019951D01*
X170018414Y-97923444D01*
X170018413Y-97923443D01*
X170018412Y-97923443D01*
X169816243Y-97857754D01*
X169816241Y-97857753D01*
X169816240Y-97857753D01*
X169654957Y-97832208D01*
X169606287Y-97824500D01*
X169393713Y-97824500D01*
X169345042Y-97832208D01*
X169183760Y-97857753D01*
X168981585Y-97923444D01*
X168792179Y-98019951D01*
X168620215Y-98144889D01*
X168481398Y-98283706D01*
X168420075Y-98317190D01*
X168350383Y-98312206D01*
X168294450Y-98270334D01*
X168288178Y-98261120D01*
X168192712Y-98106344D01*
X168068657Y-97982289D01*
X168068656Y-97982288D01*
X167973253Y-97923443D01*
X167919336Y-97890187D01*
X167919331Y-97890185D01*
X167888546Y-97879984D01*
X167752797Y-97835001D01*
X167752795Y-97835000D01*
X167650010Y-97824500D01*
X166349998Y-97824500D01*
X166349981Y-97824501D01*
X166247203Y-97835000D01*
X166247200Y-97835001D01*
X166080668Y-97890185D01*
X166080663Y-97890187D01*
X165931342Y-97982289D01*
X165807289Y-98106342D01*
X165715187Y-98255663D01*
X165715185Y-98255668D01*
X165696450Y-98312206D01*
X165660001Y-98422203D01*
X165660001Y-98422204D01*
X165660000Y-98422204D01*
X165649500Y-98524983D01*
X165649500Y-100075001D01*
X165649501Y-100075018D01*
X165660000Y-100177796D01*
X165660001Y-100177799D01*
X165701830Y-100304028D01*
X165704232Y-100373856D01*
X165668500Y-100433898D01*
X165605980Y-100465091D01*
X165559934Y-100464650D01*
X165504897Y-100453703D01*
X165483767Y-100449500D01*
X165316233Y-100449500D01*
X165316228Y-100449500D01*
X165151925Y-100482182D01*
X165151917Y-100482184D01*
X164997139Y-100546295D01*
X164857837Y-100639373D01*
X164739373Y-100757837D01*
X164646295Y-100897139D01*
X164582184Y-101051917D01*
X164582182Y-101051925D01*
X164549500Y-101216228D01*
X162077596Y-101216228D01*
X161278421Y-100417052D01*
X161278414Y-100417046D01*
X161194070Y-100360690D01*
X161193973Y-100360626D01*
X161155495Y-100334916D01*
X161155494Y-100334915D01*
X161155492Y-100334914D01*
X161018917Y-100278343D01*
X161018907Y-100278340D01*
X160873920Y-100249500D01*
X160873918Y-100249500D01*
X151699972Y-100249500D01*
X151659017Y-100242542D01*
X151579254Y-100214631D01*
X151579249Y-100214630D01*
X151400004Y-100194435D01*
X151399996Y-100194435D01*
X151220750Y-100214630D01*
X151220745Y-100214631D01*
X151050476Y-100274211D01*
X150897737Y-100370184D01*
X150770184Y-100497737D01*
X150674211Y-100650476D01*
X150614631Y-100820745D01*
X150614630Y-100820750D01*
X150594435Y-100999996D01*
X149261364Y-100999996D01*
X147153307Y-98891939D01*
X147130653Y-98855869D01*
X147128813Y-98856756D01*
X147125792Y-98850484D01*
X147125789Y-98850480D01*
X147125789Y-98850478D01*
X147029816Y-98697738D01*
X146902262Y-98570184D01*
X146749523Y-98474211D01*
X146579254Y-98414631D01*
X146579249Y-98414630D01*
X146400004Y-98394435D01*
X146399996Y-98394435D01*
X146220750Y-98414630D01*
X146220745Y-98414631D01*
X146050476Y-98474211D01*
X145897737Y-98570184D01*
X145770184Y-98697737D01*
X145674211Y-98850476D01*
X145614631Y-99020745D01*
X145614630Y-99020750D01*
X145594435Y-99199996D01*
X125208865Y-99199996D01*
X125132533Y-99067784D01*
X125005871Y-98927112D01*
X125005870Y-98927111D01*
X124852734Y-98815851D01*
X124852729Y-98815848D01*
X124679807Y-98738857D01*
X124679802Y-98738855D01*
X124534001Y-98707865D01*
X124494646Y-98699500D01*
X124305354Y-98699500D01*
X124272897Y-98706398D01*
X124120197Y-98738855D01*
X124120192Y-98738857D01*
X123947270Y-98815848D01*
X123947265Y-98815851D01*
X123794129Y-98927111D01*
X123667466Y-99067785D01*
X123572821Y-99231715D01*
X123572818Y-99231722D01*
X123524882Y-99379255D01*
X123514326Y-99411744D01*
X123494540Y-99600000D01*
X120761368Y-99600000D01*
X119698548Y-98537180D01*
X119665063Y-98475857D01*
X119670047Y-98406165D01*
X119711919Y-98350232D01*
X119777383Y-98325815D01*
X119786229Y-98325499D01*
X121072871Y-98325499D01*
X121072872Y-98325499D01*
X121132483Y-98319091D01*
X121267331Y-98268796D01*
X121382546Y-98182546D01*
X121468796Y-98067331D01*
X121517810Y-97935916D01*
X121559681Y-97879984D01*
X121625145Y-97855566D01*
X121693418Y-97870417D01*
X121721673Y-97891569D01*
X121843599Y-98013495D01*
X121940384Y-98081265D01*
X122037165Y-98149032D01*
X122037167Y-98149033D01*
X122037170Y-98149035D01*
X122251337Y-98248903D01*
X122251343Y-98248904D01*
X122251344Y-98248905D01*
X122296932Y-98261120D01*
X122479592Y-98310063D01*
X122659634Y-98325815D01*
X122714999Y-98330659D01*
X122715000Y-98330659D01*
X122715001Y-98330659D01*
X122770366Y-98325815D01*
X122950408Y-98310063D01*
X123178663Y-98248903D01*
X123392830Y-98149035D01*
X123586401Y-98013495D01*
X123753495Y-97846401D01*
X123889035Y-97652830D01*
X123988903Y-97438663D01*
X124026057Y-97300000D01*
X133994540Y-97300000D01*
X134014326Y-97488256D01*
X134014327Y-97488259D01*
X134072818Y-97668277D01*
X134072821Y-97668284D01*
X134167467Y-97832216D01*
X134257748Y-97932483D01*
X134294129Y-97972888D01*
X134447265Y-98084148D01*
X134447270Y-98084151D01*
X134620192Y-98161142D01*
X134620197Y-98161144D01*
X134805354Y-98200500D01*
X134805355Y-98200500D01*
X134994644Y-98200500D01*
X134994646Y-98200500D01*
X135179803Y-98161144D01*
X135352730Y-98084151D01*
X135505871Y-97972888D01*
X135632533Y-97832216D01*
X135727179Y-97668284D01*
X135785674Y-97488256D01*
X135805460Y-97300000D01*
X135785674Y-97111744D01*
X135727179Y-96931716D01*
X135632533Y-96767784D01*
X135505871Y-96627112D01*
X135429914Y-96571926D01*
X135352734Y-96515851D01*
X135352729Y-96515848D01*
X135179807Y-96438857D01*
X135179802Y-96438855D01*
X135034001Y-96407865D01*
X134994646Y-96399500D01*
X134805354Y-96399500D01*
X134772897Y-96406398D01*
X134620197Y-96438855D01*
X134620192Y-96438857D01*
X134447270Y-96515848D01*
X134447265Y-96515851D01*
X134294129Y-96627111D01*
X134167466Y-96767785D01*
X134072821Y-96931715D01*
X134072818Y-96931722D01*
X134024882Y-97079255D01*
X134014326Y-97111744D01*
X133994540Y-97300000D01*
X124026057Y-97300000D01*
X124050063Y-97210408D01*
X124070659Y-96975000D01*
X124050063Y-96739592D01*
X123988903Y-96511337D01*
X123889035Y-96297171D01*
X123798439Y-96167785D01*
X123753494Y-96103597D01*
X123586402Y-95936506D01*
X123586395Y-95936501D01*
X123392834Y-95800967D01*
X123392830Y-95800965D01*
X123389688Y-95799500D01*
X123178663Y-95701097D01*
X123178659Y-95701096D01*
X123178655Y-95701094D01*
X122950413Y-95639938D01*
X122950403Y-95639936D01*
X122715001Y-95619341D01*
X122714999Y-95619341D01*
X122479596Y-95639936D01*
X122479586Y-95639938D01*
X122251344Y-95701094D01*
X122251335Y-95701098D01*
X122037171Y-95800964D01*
X122037169Y-95800965D01*
X121843600Y-95936503D01*
X121721673Y-96058430D01*
X121660350Y-96091914D01*
X121590658Y-96086930D01*
X121534725Y-96045058D01*
X121517810Y-96014081D01*
X121468797Y-95882671D01*
X121468793Y-95882664D01*
X121382547Y-95767455D01*
X121382544Y-95767452D01*
X121267335Y-95681206D01*
X121267328Y-95681202D01*
X121132482Y-95630908D01*
X121132483Y-95630908D01*
X121072883Y-95624501D01*
X121072881Y-95624500D01*
X121072873Y-95624500D01*
X121072864Y-95624500D01*
X119277129Y-95624500D01*
X119277123Y-95624501D01*
X119217516Y-95630908D01*
X119082671Y-95681202D01*
X119082664Y-95681206D01*
X118967455Y-95767452D01*
X118967452Y-95767455D01*
X118881206Y-95882664D01*
X118881202Y-95882671D01*
X118830908Y-96017517D01*
X118824501Y-96077116D01*
X118824500Y-96077135D01*
X118824500Y-97363770D01*
X118804815Y-97430809D01*
X118752011Y-97476564D01*
X118682853Y-97486508D01*
X118619297Y-97457483D01*
X118612819Y-97451451D01*
X117753307Y-96591940D01*
X117730651Y-96555867D01*
X117728811Y-96556754D01*
X117725789Y-96550478D01*
X117704030Y-96515849D01*
X117629816Y-96397738D01*
X117502262Y-96270184D01*
X117349523Y-96174211D01*
X117179254Y-96114631D01*
X117179249Y-96114630D01*
X117000004Y-96094435D01*
X116999996Y-96094435D01*
X116820750Y-96114630D01*
X116820745Y-96114631D01*
X116650476Y-96174211D01*
X116497737Y-96270184D01*
X116370184Y-96397737D01*
X116274211Y-96550476D01*
X116214631Y-96720745D01*
X116214630Y-96720750D01*
X116194435Y-96899996D01*
X115381859Y-96899996D01*
X115385674Y-96888256D01*
X115405460Y-96700000D01*
X115385674Y-96511744D01*
X115327179Y-96331716D01*
X115232533Y-96167784D01*
X115105871Y-96027112D01*
X115092665Y-96017517D01*
X114952734Y-95915851D01*
X114952729Y-95915848D01*
X114779807Y-95838857D01*
X114779802Y-95838855D01*
X114634001Y-95807865D01*
X114594646Y-95799500D01*
X114405354Y-95799500D01*
X114372897Y-95806398D01*
X114220197Y-95838855D01*
X114220192Y-95838857D01*
X114047270Y-95915848D01*
X114047265Y-95915851D01*
X113894129Y-96027111D01*
X113767466Y-96167785D01*
X113672821Y-96331715D01*
X113672818Y-96331722D01*
X113614459Y-96511335D01*
X113614326Y-96511744D01*
X113594540Y-96700000D01*
X101800500Y-96700000D01*
X101800500Y-89927135D01*
X104849500Y-89927135D01*
X104849500Y-91722870D01*
X104849501Y-91722876D01*
X104855908Y-91782483D01*
X104906202Y-91917328D01*
X104906206Y-91917335D01*
X104992452Y-92032544D01*
X104992455Y-92032547D01*
X105107664Y-92118793D01*
X105107671Y-92118797D01*
X105135121Y-92129035D01*
X105239598Y-92168002D01*
X105295531Y-92209873D01*
X105319949Y-92275337D01*
X105305098Y-92343610D01*
X105283947Y-92371865D01*
X105161886Y-92493926D01*
X105026400Y-92687420D01*
X105026399Y-92687422D01*
X104926570Y-92901507D01*
X104926567Y-92901513D01*
X104869364Y-93114999D01*
X104869364Y-93115000D01*
X105766988Y-93115000D01*
X105734075Y-93172007D01*
X105700000Y-93299174D01*
X105700000Y-93430826D01*
X105734075Y-93557993D01*
X105766988Y-93615000D01*
X104869364Y-93615000D01*
X104926567Y-93828486D01*
X104926570Y-93828492D01*
X105026399Y-94042578D01*
X105161894Y-94236082D01*
X105328917Y-94403105D01*
X105522421Y-94538600D01*
X105736507Y-94638429D01*
X105736516Y-94638433D01*
X105950000Y-94695634D01*
X105950000Y-93798012D01*
X106007007Y-93830925D01*
X106134174Y-93865000D01*
X106265826Y-93865000D01*
X106392993Y-93830925D01*
X106450000Y-93798012D01*
X106450000Y-94695633D01*
X106663483Y-94638433D01*
X106663492Y-94638429D01*
X106877578Y-94538600D01*
X107071082Y-94403105D01*
X107238105Y-94236082D01*
X107373600Y-94042578D01*
X107473429Y-93828492D01*
X107473432Y-93828486D01*
X107530636Y-93615000D01*
X106633012Y-93615000D01*
X106665925Y-93557993D01*
X106700000Y-93430826D01*
X106700000Y-93299174D01*
X106665925Y-93172007D01*
X106633012Y-93115000D01*
X107530636Y-93115000D01*
X107530635Y-93114999D01*
X107473432Y-92901513D01*
X107473429Y-92901507D01*
X107373600Y-92687422D01*
X107373599Y-92687420D01*
X107238113Y-92493926D01*
X107238108Y-92493920D01*
X107116053Y-92371865D01*
X107082568Y-92310542D01*
X107087552Y-92240850D01*
X107129424Y-92184917D01*
X107160400Y-92168002D01*
X107264879Y-92129035D01*
X107292326Y-92118798D01*
X107292326Y-92118797D01*
X107292331Y-92118796D01*
X107407546Y-92032546D01*
X107493796Y-91917331D01*
X107544091Y-91782483D01*
X107550500Y-91722873D01*
X107550499Y-89927128D01*
X107544091Y-89867517D01*
X107537379Y-89849522D01*
X107493797Y-89732671D01*
X107493793Y-89732664D01*
X107407547Y-89617455D01*
X107407544Y-89617452D01*
X107292335Y-89531206D01*
X107292328Y-89531202D01*
X107157482Y-89480908D01*
X107157483Y-89480908D01*
X107097883Y-89474501D01*
X107097881Y-89474500D01*
X107097873Y-89474500D01*
X107097864Y-89474500D01*
X105302129Y-89474500D01*
X105302123Y-89474501D01*
X105242516Y-89480908D01*
X105107671Y-89531202D01*
X105107664Y-89531206D01*
X104992455Y-89617452D01*
X104992452Y-89617455D01*
X104906206Y-89732664D01*
X104906202Y-89732671D01*
X104855908Y-89867517D01*
X104850642Y-89916501D01*
X104849501Y-89927123D01*
X104849500Y-89927135D01*
X101800500Y-89927135D01*
X101800500Y-88414999D01*
X118069341Y-88414999D01*
X118069341Y-88415000D01*
X118089936Y-88650403D01*
X118089938Y-88650413D01*
X118151094Y-88878655D01*
X118151096Y-88878659D01*
X118151097Y-88878663D01*
X118206623Y-88997738D01*
X118250965Y-89092830D01*
X118250967Y-89092834D01*
X118359281Y-89247521D01*
X118386501Y-89286396D01*
X118386506Y-89286402D01*
X118553597Y-89453493D01*
X118553603Y-89453498D01*
X118739158Y-89583425D01*
X118782783Y-89638002D01*
X118789977Y-89707500D01*
X118758454Y-89769855D01*
X118739158Y-89786575D01*
X118553597Y-89916505D01*
X118386505Y-90083597D01*
X118250965Y-90277169D01*
X118250964Y-90277171D01*
X118151098Y-90491335D01*
X118151094Y-90491344D01*
X118089938Y-90719586D01*
X118089936Y-90719596D01*
X118069341Y-90954999D01*
X118069341Y-90955000D01*
X118089936Y-91190403D01*
X118089938Y-91190413D01*
X118151094Y-91418655D01*
X118151096Y-91418659D01*
X118151097Y-91418663D01*
X118221370Y-91569364D01*
X118250965Y-91632830D01*
X118250967Y-91632834D01*
X118316483Y-91726400D01*
X118386505Y-91826401D01*
X118553599Y-91993495D01*
X118604191Y-92028920D01*
X118747165Y-92129032D01*
X118747167Y-92129033D01*
X118747170Y-92129035D01*
X118961337Y-92228903D01*
X119189592Y-92290063D01*
X119377918Y-92306539D01*
X119424999Y-92310659D01*
X119425000Y-92310659D01*
X119425001Y-92310659D01*
X119464234Y-92307226D01*
X119660408Y-92290063D01*
X119888663Y-92228903D01*
X120102830Y-92129035D01*
X120296401Y-91993495D01*
X120463495Y-91826401D01*
X120593425Y-91640842D01*
X120648002Y-91597217D01*
X120717500Y-91590023D01*
X120779855Y-91621546D01*
X120796575Y-91640842D01*
X120926500Y-91826395D01*
X120926505Y-91826401D01*
X121093599Y-91993495D01*
X121144191Y-92028920D01*
X121287165Y-92129032D01*
X121287167Y-92129033D01*
X121287170Y-92129035D01*
X121501337Y-92228903D01*
X121729592Y-92290063D01*
X121917918Y-92306539D01*
X121964999Y-92310659D01*
X121965000Y-92310659D01*
X121965001Y-92310659D01*
X122004234Y-92307226D01*
X122200408Y-92290063D01*
X122428663Y-92228903D01*
X122642830Y-92129035D01*
X122824033Y-92002155D01*
X168175000Y-92002155D01*
X168175000Y-92650000D01*
X169091988Y-92650000D01*
X169059075Y-92707007D01*
X169025000Y-92834174D01*
X169025000Y-92965826D01*
X169059075Y-93092993D01*
X169091988Y-93150000D01*
X168175000Y-93150000D01*
X168175000Y-93797844D01*
X168181401Y-93857372D01*
X168181403Y-93857379D01*
X168231645Y-93992086D01*
X168231649Y-93992093D01*
X168317809Y-94107187D01*
X168317812Y-94107190D01*
X168432906Y-94193350D01*
X168432913Y-94193354D01*
X168567620Y-94243596D01*
X168567627Y-94243598D01*
X168627155Y-94249999D01*
X168627172Y-94250000D01*
X169275000Y-94250000D01*
X169275000Y-93333012D01*
X169332007Y-93365925D01*
X169459174Y-93400000D01*
X169590826Y-93400000D01*
X169717993Y-93365925D01*
X169775000Y-93333012D01*
X169775000Y-94250000D01*
X170422828Y-94250000D01*
X170422844Y-94249999D01*
X170482372Y-94243598D01*
X170482379Y-94243596D01*
X170617086Y-94193354D01*
X170617093Y-94193350D01*
X170732187Y-94107190D01*
X170732190Y-94107187D01*
X170818350Y-93992093D01*
X170818354Y-93992086D01*
X170867614Y-93860013D01*
X170909485Y-93804079D01*
X170974949Y-93779662D01*
X171043222Y-93794513D01*
X171071477Y-93815665D01*
X171193917Y-93938105D01*
X171387421Y-94073600D01*
X171601507Y-94173429D01*
X171601516Y-94173433D01*
X171815000Y-94230634D01*
X171815000Y-93333012D01*
X171872007Y-93365925D01*
X171999174Y-93400000D01*
X172130826Y-93400000D01*
X172257993Y-93365925D01*
X172315000Y-93333012D01*
X172315000Y-94230633D01*
X172528483Y-94173433D01*
X172528492Y-94173429D01*
X172742578Y-94073600D01*
X172936082Y-93938105D01*
X173103105Y-93771082D01*
X173238600Y-93577578D01*
X173338429Y-93363492D01*
X173338432Y-93363486D01*
X173395636Y-93150000D01*
X172498012Y-93150000D01*
X172530925Y-93092993D01*
X172565000Y-92965826D01*
X172565000Y-92834174D01*
X172530925Y-92707007D01*
X172498012Y-92650000D01*
X173395636Y-92650000D01*
X173395635Y-92649999D01*
X173338432Y-92436513D01*
X173338429Y-92436507D01*
X173238600Y-92222422D01*
X173238599Y-92222420D01*
X173103113Y-92028926D01*
X173103108Y-92028920D01*
X172936082Y-91861894D01*
X172742578Y-91726399D01*
X172528492Y-91626570D01*
X172528486Y-91626567D01*
X172315000Y-91569364D01*
X172315000Y-92466988D01*
X172257993Y-92434075D01*
X172130826Y-92400000D01*
X171999174Y-92400000D01*
X171872007Y-92434075D01*
X171815000Y-92466988D01*
X171815000Y-91569364D01*
X171814999Y-91569364D01*
X171601513Y-91626567D01*
X171601507Y-91626570D01*
X171387422Y-91726399D01*
X171387420Y-91726400D01*
X171193926Y-91861886D01*
X171071477Y-91984335D01*
X171010154Y-92017819D01*
X170940462Y-92012835D01*
X170884529Y-91970963D01*
X170867614Y-91939986D01*
X170818354Y-91807913D01*
X170818350Y-91807906D01*
X170732190Y-91692812D01*
X170732187Y-91692809D01*
X170617093Y-91606649D01*
X170617086Y-91606645D01*
X170482379Y-91556403D01*
X170482372Y-91556401D01*
X170422844Y-91550000D01*
X169775000Y-91550000D01*
X169775000Y-92466988D01*
X169717993Y-92434075D01*
X169590826Y-92400000D01*
X169459174Y-92400000D01*
X169332007Y-92434075D01*
X169275000Y-92466988D01*
X169275000Y-91550000D01*
X168627155Y-91550000D01*
X168567627Y-91556401D01*
X168567620Y-91556403D01*
X168432913Y-91606645D01*
X168432906Y-91606649D01*
X168317812Y-91692809D01*
X168317809Y-91692812D01*
X168231649Y-91807906D01*
X168231645Y-91807913D01*
X168181403Y-91942620D01*
X168181401Y-91942627D01*
X168175000Y-92002155D01*
X122824033Y-92002155D01*
X122836401Y-91993495D01*
X123003495Y-91826401D01*
X123139035Y-91632830D01*
X123238903Y-91418663D01*
X123300063Y-91190408D01*
X123320659Y-90955000D01*
X123320574Y-90954034D01*
X123300063Y-90719596D01*
X123300063Y-90719592D01*
X123238903Y-90491337D01*
X123139035Y-90277171D01*
X123133425Y-90269158D01*
X123003494Y-90083597D01*
X122836402Y-89916506D01*
X122836396Y-89916501D01*
X122650842Y-89786575D01*
X122607217Y-89731998D01*
X122600023Y-89662500D01*
X122631546Y-89600145D01*
X122650842Y-89583425D01*
X122725424Y-89531202D01*
X122836401Y-89453495D01*
X123003495Y-89286401D01*
X123139035Y-89092830D01*
X123238903Y-88878663D01*
X123300063Y-88650408D01*
X123320659Y-88415000D01*
X123300063Y-88179592D01*
X123238903Y-87951337D01*
X123139035Y-87737171D01*
X123133425Y-87729158D01*
X123003494Y-87543597D01*
X122836402Y-87376506D01*
X122836396Y-87376501D01*
X122650842Y-87246575D01*
X122607217Y-87191998D01*
X122600023Y-87122500D01*
X122631546Y-87060145D01*
X122650842Y-87043425D01*
X122709629Y-87002262D01*
X122836401Y-86913495D01*
X123003495Y-86746401D01*
X123139035Y-86552830D01*
X123238903Y-86338663D01*
X123265971Y-86237639D01*
X123302335Y-86177980D01*
X123365182Y-86147450D01*
X123434557Y-86155744D01*
X123473427Y-86182052D01*
X123764141Y-86472766D01*
X123797626Y-86534089D01*
X123799680Y-86546563D01*
X123814630Y-86679249D01*
X123874210Y-86849521D01*
X123970184Y-87002262D01*
X124097738Y-87129816D01*
X124159774Y-87168796D01*
X124237779Y-87217810D01*
X124250478Y-87225789D01*
X124347336Y-87259681D01*
X124420745Y-87285368D01*
X124420750Y-87285369D01*
X124599996Y-87305565D01*
X124600000Y-87305565D01*
X124600004Y-87305565D01*
X124779249Y-87285369D01*
X124779252Y-87285368D01*
X124779255Y-87285368D01*
X124949522Y-87225789D01*
X125102262Y-87129816D01*
X125229816Y-87002262D01*
X125325789Y-86849522D01*
X125385368Y-86679255D01*
X125386605Y-86668280D01*
X125405565Y-86500003D01*
X125405565Y-86499996D01*
X125385368Y-86320747D01*
X125385368Y-86320745D01*
X125357458Y-86240982D01*
X125350500Y-86200028D01*
X125350500Y-86173339D01*
X125344763Y-86144500D01*
X125344763Y-86144498D01*
X125336362Y-86102262D01*
X125321659Y-86028346D01*
X125289009Y-85949523D01*
X125281653Y-85931764D01*
X125281633Y-85931718D01*
X125281631Y-85931712D01*
X125265084Y-85891763D01*
X125188041Y-85776459D01*
X125182952Y-85768843D01*
X124498257Y-85084148D01*
X122331163Y-82917052D01*
X122331156Y-82917046D01*
X122246851Y-82860716D01*
X122246850Y-82860716D01*
X122208243Y-82834919D01*
X122208230Y-82834912D01*
X122071659Y-82778343D01*
X122071649Y-82778340D01*
X121926662Y-82749500D01*
X121926660Y-82749500D01*
X120099972Y-82749500D01*
X120059017Y-82742542D01*
X119979254Y-82714631D01*
X119979249Y-82714630D01*
X119800004Y-82694435D01*
X119799996Y-82694435D01*
X119620750Y-82714630D01*
X119620745Y-82714631D01*
X119450476Y-82774211D01*
X119297737Y-82870184D01*
X119170184Y-82997737D01*
X119074211Y-83150476D01*
X119014631Y-83320745D01*
X119014630Y-83320750D01*
X118994435Y-83499996D01*
X118994435Y-83500003D01*
X119014630Y-83679249D01*
X119014631Y-83679254D01*
X119074211Y-83849523D01*
X119170184Y-84002262D01*
X119297738Y-84129816D01*
X119450478Y-84225789D01*
X119615287Y-84283458D01*
X119672063Y-84324180D01*
X119697810Y-84389133D01*
X119684354Y-84457694D01*
X119635967Y-84508097D01*
X119574332Y-84524500D01*
X118527129Y-84524500D01*
X118527123Y-84524501D01*
X118467516Y-84530908D01*
X118332671Y-84581202D01*
X118332664Y-84581206D01*
X118217455Y-84667452D01*
X118217452Y-84667455D01*
X118131206Y-84782664D01*
X118131202Y-84782671D01*
X118080908Y-84917517D01*
X118074501Y-84977116D01*
X118074500Y-84977135D01*
X118074500Y-86772870D01*
X118074501Y-86772876D01*
X118080908Y-86832483D01*
X118131202Y-86967328D01*
X118131206Y-86967335D01*
X118217452Y-87082544D01*
X118217455Y-87082547D01*
X118332664Y-87168793D01*
X118332671Y-87168797D01*
X118464081Y-87217810D01*
X118520015Y-87259681D01*
X118544432Y-87325145D01*
X118529580Y-87393418D01*
X118508430Y-87421673D01*
X118386503Y-87543600D01*
X118250965Y-87737169D01*
X118250964Y-87737171D01*
X118151098Y-87951335D01*
X118151094Y-87951344D01*
X118089938Y-88179586D01*
X118089936Y-88179596D01*
X118069341Y-88414999D01*
X101800500Y-88414999D01*
X101800500Y-76316228D01*
X105149500Y-76316228D01*
X105149500Y-76483771D01*
X105182182Y-76648074D01*
X105182184Y-76648082D01*
X105246295Y-76802860D01*
X105339373Y-76942162D01*
X105457837Y-77060626D01*
X105538660Y-77114630D01*
X105597137Y-77153703D01*
X105751918Y-77217816D01*
X105899643Y-77247200D01*
X105916228Y-77250499D01*
X105916232Y-77250500D01*
X105916233Y-77250500D01*
X106083768Y-77250500D01*
X106083769Y-77250499D01*
X106248082Y-77217816D01*
X106358891Y-77171916D01*
X106428358Y-77164448D01*
X106490837Y-77195722D01*
X106526490Y-77255811D01*
X106529700Y-77299078D01*
X106524501Y-77349976D01*
X106524500Y-77349996D01*
X106524500Y-78650001D01*
X106524501Y-78650018D01*
X106535000Y-78752796D01*
X106535001Y-78752799D01*
X106567849Y-78851925D01*
X106590186Y-78919334D01*
X106649953Y-79016233D01*
X106682289Y-79068657D01*
X106806344Y-79192712D01*
X106961120Y-79288178D01*
X107007845Y-79340126D01*
X107019068Y-79409088D01*
X106991224Y-79473171D01*
X106983706Y-79481398D01*
X106844889Y-79620215D01*
X106719951Y-79792179D01*
X106623444Y-79981585D01*
X106557753Y-80183760D01*
X106524500Y-80393713D01*
X106524500Y-80606286D01*
X106552185Y-80781086D01*
X106557754Y-80816243D01*
X106611315Y-80981087D01*
X106623444Y-81018414D01*
X106719951Y-81207820D01*
X106844890Y-81379786D01*
X106995209Y-81530105D01*
X106995214Y-81530109D01*
X107160218Y-81649991D01*
X107202884Y-81705320D01*
X107208863Y-81774934D01*
X107176258Y-81836729D01*
X107160218Y-81850627D01*
X106995540Y-81970272D01*
X106995535Y-81970276D01*
X106845276Y-82120535D01*
X106845272Y-82120540D01*
X106720379Y-82292442D01*
X106623904Y-82481782D01*
X106558242Y-82683870D01*
X106558242Y-82683873D01*
X106547769Y-82750000D01*
X107595854Y-82750000D01*
X107557370Y-82816657D01*
X107525000Y-82937465D01*
X107525000Y-83062535D01*
X107557370Y-83183343D01*
X107595854Y-83250000D01*
X106547769Y-83250000D01*
X106558242Y-83316126D01*
X106558242Y-83316129D01*
X106623904Y-83518217D01*
X106720379Y-83707557D01*
X106845272Y-83879459D01*
X106845276Y-83879464D01*
X106995535Y-84029723D01*
X106995540Y-84029727D01*
X107167442Y-84154620D01*
X107356782Y-84251095D01*
X107558872Y-84316757D01*
X107750000Y-84347029D01*
X107750000Y-83404145D01*
X107816657Y-83442630D01*
X107937465Y-83475000D01*
X108062535Y-83475000D01*
X108183343Y-83442630D01*
X108250000Y-83404145D01*
X108250000Y-84347028D01*
X108441127Y-84316757D01*
X108643217Y-84251095D01*
X108832557Y-84154620D01*
X109004459Y-84029727D01*
X109004464Y-84029723D01*
X109154723Y-83879464D01*
X109154727Y-83879459D01*
X109279620Y-83707557D01*
X109376095Y-83518217D01*
X109441757Y-83316129D01*
X109441757Y-83316126D01*
X109452231Y-83250000D01*
X108404146Y-83250000D01*
X108442630Y-83183343D01*
X108475000Y-83062535D01*
X108475000Y-82937465D01*
X108442630Y-82816657D01*
X108404146Y-82750000D01*
X109452231Y-82750000D01*
X109441757Y-82683873D01*
X109441757Y-82683870D01*
X109376095Y-82481782D01*
X109279620Y-82292442D01*
X109154727Y-82120540D01*
X109154723Y-82120535D01*
X109004464Y-81970276D01*
X109004459Y-81970272D01*
X108839781Y-81850627D01*
X108797115Y-81795297D01*
X108791136Y-81725684D01*
X108823741Y-81663889D01*
X108839776Y-81649994D01*
X109004792Y-81530104D01*
X109155104Y-81379792D01*
X109155106Y-81379788D01*
X109155109Y-81379786D01*
X109280048Y-81207820D01*
X109280047Y-81207820D01*
X109280051Y-81207816D01*
X109376557Y-81018412D01*
X109442246Y-80816243D01*
X109475500Y-80606287D01*
X109475500Y-80393713D01*
X109442246Y-80183757D01*
X109376557Y-79981588D01*
X109280051Y-79792184D01*
X109280049Y-79792181D01*
X109280048Y-79792179D01*
X109155109Y-79620213D01*
X109016294Y-79481398D01*
X108982809Y-79420075D01*
X108987793Y-79350383D01*
X109029665Y-79294450D01*
X109038879Y-79288178D01*
X109044331Y-79284814D01*
X109044334Y-79284814D01*
X109193656Y-79192712D01*
X109317712Y-79068656D01*
X109409814Y-78919334D01*
X109464999Y-78752797D01*
X109475500Y-78650009D01*
X109475500Y-78100000D01*
X120694540Y-78100000D01*
X120714326Y-78288256D01*
X120714327Y-78288259D01*
X120772818Y-78468277D01*
X120772821Y-78468284D01*
X120867467Y-78632216D01*
X120925924Y-78697139D01*
X120994126Y-78772885D01*
X120994129Y-78772888D01*
X121147265Y-78884148D01*
X121147270Y-78884151D01*
X121320192Y-78961142D01*
X121320197Y-78961144D01*
X121505354Y-79000500D01*
X121505355Y-79000500D01*
X121694644Y-79000500D01*
X121694646Y-79000500D01*
X121879803Y-78961144D01*
X122052730Y-78884151D01*
X122205871Y-78772888D01*
X122332533Y-78632216D01*
X122427179Y-78468284D01*
X122485674Y-78288256D01*
X122505460Y-78100000D01*
X122485674Y-77911744D01*
X122427179Y-77731716D01*
X122332533Y-77567784D01*
X122205871Y-77427112D01*
X122198264Y-77421585D01*
X122052734Y-77315851D01*
X122052729Y-77315848D01*
X121879807Y-77238857D01*
X121879802Y-77238855D01*
X121734001Y-77207865D01*
X121694646Y-77199500D01*
X121505354Y-77199500D01*
X121472897Y-77206398D01*
X121320197Y-77238855D01*
X121320192Y-77238857D01*
X121147270Y-77315848D01*
X121147265Y-77315851D01*
X120994129Y-77427111D01*
X120867466Y-77567785D01*
X120772821Y-77731715D01*
X120772818Y-77731722D01*
X120726262Y-77875008D01*
X120714326Y-77911744D01*
X120694540Y-78100000D01*
X109475500Y-78100000D01*
X109475499Y-77349992D01*
X109472011Y-77315851D01*
X109464999Y-77247203D01*
X109464998Y-77247200D01*
X109442181Y-77178343D01*
X109409814Y-77080666D01*
X109317712Y-76931344D01*
X109193656Y-76807288D01*
X109044334Y-76715186D01*
X108877797Y-76660001D01*
X108877795Y-76660000D01*
X108775010Y-76649500D01*
X107224998Y-76649500D01*
X107224981Y-76649501D01*
X107122203Y-76660000D01*
X107122200Y-76660001D01*
X106995971Y-76701830D01*
X106926143Y-76704232D01*
X106866101Y-76668500D01*
X106834908Y-76605980D01*
X106835350Y-76559933D01*
X106850499Y-76483770D01*
X106850500Y-76483768D01*
X106850500Y-76316232D01*
X106850499Y-76316228D01*
X106839273Y-76259793D01*
X106817816Y-76151918D01*
X106753703Y-75997137D01*
X106693037Y-75906344D01*
X106660626Y-75857837D01*
X106542162Y-75739373D01*
X106402860Y-75646295D01*
X106248082Y-75582184D01*
X106248074Y-75582182D01*
X106083771Y-75549500D01*
X106083767Y-75549500D01*
X105916233Y-75549500D01*
X105916228Y-75549500D01*
X105751925Y-75582182D01*
X105751917Y-75582184D01*
X105597139Y-75646295D01*
X105457837Y-75739373D01*
X105339373Y-75857837D01*
X105246295Y-75997139D01*
X105182184Y-76151917D01*
X105182182Y-76151925D01*
X105149500Y-76316228D01*
X101800500Y-76316228D01*
X101800500Y-74100000D01*
X114094540Y-74100000D01*
X114114326Y-74288256D01*
X114114327Y-74288259D01*
X114172818Y-74468277D01*
X114172821Y-74468284D01*
X114267467Y-74632216D01*
X114357506Y-74732214D01*
X114394129Y-74772888D01*
X114547265Y-74884148D01*
X114547270Y-74884151D01*
X114720192Y-74961142D01*
X114720197Y-74961144D01*
X114905354Y-75000500D01*
X114905355Y-75000500D01*
X115094644Y-75000500D01*
X115094646Y-75000500D01*
X115279803Y-74961144D01*
X115452730Y-74884151D01*
X115605871Y-74772888D01*
X115732533Y-74632216D01*
X115827179Y-74468284D01*
X115885674Y-74288256D01*
X115905460Y-74100000D01*
X115885674Y-73911744D01*
X115827179Y-73731716D01*
X115732533Y-73567784D01*
X115671496Y-73499996D01*
X116494435Y-73499996D01*
X116494435Y-73500003D01*
X116514630Y-73679249D01*
X116514631Y-73679254D01*
X116574211Y-73849523D01*
X116670184Y-74002262D01*
X116797738Y-74129816D01*
X116909435Y-74200000D01*
X116950483Y-74225792D01*
X116956753Y-74228812D01*
X116955864Y-74230656D01*
X116991937Y-74253305D01*
X119117049Y-76378416D01*
X119192165Y-76453532D01*
X119221585Y-76482952D01*
X119344498Y-76565080D01*
X119344511Y-76565087D01*
X119393474Y-76585368D01*
X119393475Y-76585368D01*
X119481088Y-76621659D01*
X119597241Y-76644763D01*
X119616468Y-76648587D01*
X119626081Y-76650500D01*
X119626082Y-76650500D01*
X119626083Y-76650500D01*
X119773918Y-76650500D01*
X129437770Y-76650500D01*
X129504809Y-76670185D01*
X129525451Y-76686819D01*
X131013181Y-78174548D01*
X131046666Y-78235871D01*
X131049500Y-78262229D01*
X131049500Y-80637769D01*
X131029815Y-80704808D01*
X131013181Y-80725450D01*
X129091937Y-82646693D01*
X129055873Y-82669370D01*
X129056750Y-82671191D01*
X129050475Y-82674212D01*
X128897737Y-82770184D01*
X128770184Y-82897737D01*
X128674211Y-83050476D01*
X128614631Y-83220745D01*
X128614630Y-83220750D01*
X128594435Y-83399996D01*
X128594435Y-83400003D01*
X128614630Y-83579249D01*
X128614631Y-83579254D01*
X128674211Y-83749523D01*
X128707266Y-83802129D01*
X128770184Y-83902262D01*
X128897738Y-84029816D01*
X128974537Y-84078072D01*
X129028125Y-84111744D01*
X129050478Y-84125789D01*
X129220745Y-84185368D01*
X129220750Y-84185369D01*
X129399996Y-84205565D01*
X129400000Y-84205565D01*
X129400004Y-84205565D01*
X129579249Y-84185369D01*
X129579252Y-84185368D01*
X129579255Y-84185368D01*
X129749522Y-84125789D01*
X129902262Y-84029816D01*
X130029816Y-83902262D01*
X130125789Y-83749522D01*
X130125792Y-83749510D01*
X130128810Y-83743248D01*
X130130650Y-83744134D01*
X130153305Y-83708061D01*
X130253345Y-83608021D01*
X130314666Y-83574538D01*
X130384358Y-83579522D01*
X130440291Y-83621394D01*
X130464708Y-83686858D01*
X130457209Y-83739030D01*
X130455908Y-83742516D01*
X130453192Y-83767784D01*
X130449501Y-83802123D01*
X130449500Y-83802135D01*
X130449500Y-85597870D01*
X130449501Y-85597876D01*
X130455908Y-85657483D01*
X130506202Y-85792328D01*
X130506206Y-85792335D01*
X130592452Y-85907544D01*
X130592455Y-85907547D01*
X130707664Y-85993793D01*
X130707671Y-85993797D01*
X130839081Y-86042810D01*
X130895015Y-86084681D01*
X130919432Y-86150145D01*
X130904580Y-86218418D01*
X130883430Y-86246673D01*
X130761503Y-86368600D01*
X130625965Y-86562169D01*
X130625964Y-86562171D01*
X130526098Y-86776335D01*
X130526094Y-86776344D01*
X130464938Y-87004586D01*
X130464936Y-87004596D01*
X130444341Y-87239999D01*
X130444341Y-87240000D01*
X130464936Y-87475403D01*
X130464938Y-87475413D01*
X130526094Y-87703655D01*
X130526096Y-87703659D01*
X130526097Y-87703663D01*
X130561683Y-87779977D01*
X130625965Y-87917830D01*
X130625967Y-87917834D01*
X130761501Y-88111395D01*
X130761506Y-88111402D01*
X130928597Y-88278493D01*
X130928603Y-88278498D01*
X131114158Y-88408425D01*
X131157783Y-88463002D01*
X131164977Y-88532500D01*
X131133454Y-88594855D01*
X131114158Y-88611575D01*
X130928597Y-88741505D01*
X130761505Y-88908597D01*
X130625965Y-89102169D01*
X130625964Y-89102171D01*
X130526098Y-89316335D01*
X130526094Y-89316344D01*
X130464938Y-89544586D01*
X130464936Y-89544596D01*
X130444341Y-89779999D01*
X130444341Y-89780000D01*
X130464936Y-90015403D01*
X130464938Y-90015413D01*
X130526094Y-90243655D01*
X130526096Y-90243659D01*
X130526097Y-90243663D01*
X130561683Y-90319977D01*
X130625965Y-90457830D01*
X130625967Y-90457834D01*
X130734281Y-90612521D01*
X130761505Y-90651401D01*
X130928599Y-90818495D01*
X131025384Y-90886265D01*
X131122165Y-90954032D01*
X131122167Y-90954033D01*
X131122170Y-90954035D01*
X131336337Y-91053903D01*
X131564592Y-91115063D01*
X131752918Y-91131539D01*
X131799999Y-91135659D01*
X131800000Y-91135659D01*
X131800001Y-91135659D01*
X131839234Y-91132226D01*
X132035408Y-91115063D01*
X132263663Y-91053903D01*
X132477830Y-90954035D01*
X132671401Y-90818495D01*
X132838495Y-90651401D01*
X132974035Y-90457830D01*
X133073903Y-90243663D01*
X133135063Y-90015408D01*
X133155659Y-89780000D01*
X133135063Y-89544592D01*
X133123114Y-89499996D01*
X145994435Y-89499996D01*
X145994435Y-89500003D01*
X146014630Y-89679249D01*
X146014631Y-89679254D01*
X146074211Y-89849523D01*
X146170184Y-90002262D01*
X146297738Y-90129816D01*
X146450478Y-90225789D01*
X146597314Y-90277169D01*
X146620745Y-90285368D01*
X146620750Y-90285369D01*
X146799996Y-90305565D01*
X146800000Y-90305565D01*
X146800004Y-90305565D01*
X146979249Y-90285369D01*
X146979252Y-90285368D01*
X146979255Y-90285368D01*
X147149522Y-90225789D01*
X147302262Y-90129816D01*
X147429816Y-90002262D01*
X147525789Y-89849522D01*
X147585368Y-89679255D01*
X147592331Y-89617455D01*
X147605565Y-89500003D01*
X147605565Y-89499996D01*
X147585369Y-89320750D01*
X147585368Y-89320745D01*
X147583825Y-89316335D01*
X147525789Y-89150478D01*
X147525188Y-89149522D01*
X147429815Y-88997737D01*
X147302262Y-88870184D01*
X147149523Y-88774211D01*
X146979254Y-88714631D01*
X146979249Y-88714630D01*
X146800004Y-88694435D01*
X146799996Y-88694435D01*
X146620750Y-88714630D01*
X146620745Y-88714631D01*
X146450476Y-88774211D01*
X146297737Y-88870184D01*
X146170184Y-88997737D01*
X146074211Y-89150476D01*
X146014631Y-89320745D01*
X146014630Y-89320750D01*
X145994435Y-89499996D01*
X133123114Y-89499996D01*
X133088626Y-89371285D01*
X133073905Y-89316344D01*
X133073904Y-89316343D01*
X133073903Y-89316337D01*
X132974035Y-89102171D01*
X132973105Y-89100842D01*
X132838494Y-88908597D01*
X132671402Y-88741506D01*
X132671396Y-88741501D01*
X132485842Y-88611575D01*
X132442217Y-88556998D01*
X132435023Y-88487500D01*
X132466546Y-88425145D01*
X132485842Y-88408425D01*
X132508026Y-88392891D01*
X132671401Y-88278495D01*
X132838495Y-88111401D01*
X132974035Y-87917830D01*
X133073903Y-87703663D01*
X133135063Y-87475408D01*
X133155659Y-87240000D01*
X133155197Y-87234725D01*
X133145379Y-87122500D01*
X133135063Y-87004592D01*
X133073903Y-86776337D01*
X132974035Y-86562171D01*
X132967497Y-86552834D01*
X132838496Y-86368600D01*
X132790641Y-86320745D01*
X132716567Y-86246671D01*
X132683084Y-86185351D01*
X132688068Y-86115659D01*
X132729939Y-86059725D01*
X132760915Y-86042810D01*
X132892331Y-85993796D01*
X133007546Y-85907546D01*
X133093796Y-85792331D01*
X133144091Y-85657483D01*
X133150272Y-85599996D01*
X133994435Y-85599996D01*
X133994435Y-85600003D01*
X134014630Y-85779249D01*
X134014631Y-85779254D01*
X134074211Y-85949523D01*
X134137659Y-86050499D01*
X134170184Y-86102262D01*
X134297738Y-86229816D01*
X134388080Y-86286582D01*
X134442453Y-86320747D01*
X134450478Y-86325789D01*
X134487270Y-86338663D01*
X134620745Y-86385368D01*
X134620750Y-86385369D01*
X134799996Y-86405565D01*
X134800000Y-86405565D01*
X134800004Y-86405565D01*
X134979249Y-86385369D01*
X134979252Y-86385368D01*
X134979255Y-86385368D01*
X135149522Y-86325789D01*
X135302262Y-86229816D01*
X135429816Y-86102262D01*
X135525789Y-85949522D01*
X135585368Y-85779255D01*
X135586541Y-85768843D01*
X135605565Y-85600003D01*
X135605565Y-85599996D01*
X135585368Y-85420747D01*
X135585368Y-85420745D01*
X135557458Y-85340982D01*
X135550500Y-85300028D01*
X135550500Y-84300000D01*
X148194540Y-84300000D01*
X148214326Y-84488256D01*
X148214327Y-84488259D01*
X148272818Y-84668277D01*
X148272821Y-84668284D01*
X148367467Y-84832216D01*
X148441179Y-84914081D01*
X148494129Y-84972888D01*
X148647265Y-85084148D01*
X148647270Y-85084151D01*
X148820192Y-85161142D01*
X148820197Y-85161144D01*
X149005354Y-85200500D01*
X149005355Y-85200500D01*
X149194644Y-85200500D01*
X149194646Y-85200500D01*
X149379803Y-85161144D01*
X149552730Y-85084151D01*
X149705871Y-84972888D01*
X149832533Y-84832216D01*
X149927179Y-84668284D01*
X149985674Y-84488256D01*
X150005460Y-84300000D01*
X149985674Y-84111744D01*
X149927179Y-83931716D01*
X149832533Y-83767784D01*
X149705871Y-83627112D01*
X149698001Y-83621394D01*
X149552734Y-83515851D01*
X149552729Y-83515848D01*
X149379807Y-83438857D01*
X149379802Y-83438855D01*
X149234001Y-83407865D01*
X149194646Y-83399500D01*
X149005354Y-83399500D01*
X148972897Y-83406398D01*
X148820197Y-83438855D01*
X148820192Y-83438857D01*
X148647270Y-83515848D01*
X148647265Y-83515851D01*
X148494129Y-83627111D01*
X148367466Y-83767785D01*
X148272821Y-83931715D01*
X148272818Y-83931722D01*
X148218297Y-84099522D01*
X148214326Y-84111744D01*
X148194540Y-84300000D01*
X135550500Y-84300000D01*
X135550500Y-79562228D01*
X135570185Y-79495189D01*
X135586814Y-79474552D01*
X138508059Y-76553306D01*
X138544132Y-76530657D01*
X138543244Y-76528813D01*
X138549515Y-76525792D01*
X138549516Y-76525790D01*
X138549522Y-76525789D01*
X138702262Y-76429816D01*
X138829816Y-76302262D01*
X138894074Y-76199996D01*
X146094435Y-76199996D01*
X146094435Y-76200003D01*
X146114630Y-76379249D01*
X146114631Y-76379254D01*
X146174211Y-76549523D01*
X146269913Y-76701830D01*
X146270184Y-76702262D01*
X146397738Y-76829816D01*
X146550478Y-76925789D01*
X146550480Y-76925789D01*
X146550484Y-76925792D01*
X146556756Y-76928813D01*
X146555869Y-76930653D01*
X146591939Y-76953307D01*
X151113181Y-81474549D01*
X151146666Y-81535872D01*
X151149500Y-81562230D01*
X151149500Y-88500028D01*
X151142542Y-88540982D01*
X151114631Y-88620747D01*
X151094435Y-88799996D01*
X151094435Y-88800003D01*
X151114630Y-88979249D01*
X151114631Y-88979254D01*
X151174211Y-89149523D01*
X151260214Y-89286395D01*
X151270184Y-89302262D01*
X151397738Y-89429816D01*
X151550478Y-89525789D01*
X151715192Y-89583425D01*
X151720745Y-89585368D01*
X151720750Y-89585369D01*
X151899996Y-89605565D01*
X151900000Y-89605565D01*
X151900004Y-89605565D01*
X152079249Y-89585369D01*
X152079252Y-89585368D01*
X152079255Y-89585368D01*
X152249522Y-89525789D01*
X152402262Y-89429816D01*
X152529816Y-89302262D01*
X152625789Y-89149522D01*
X152685368Y-88979255D01*
X152693329Y-88908599D01*
X152705565Y-88800003D01*
X152705565Y-88799996D01*
X152685368Y-88620747D01*
X152685368Y-88620745D01*
X152657458Y-88540982D01*
X152650500Y-88500028D01*
X152650500Y-86299996D01*
X160394536Y-86299996D01*
X160414322Y-86488252D01*
X160414323Y-86488255D01*
X160472814Y-86668273D01*
X160472817Y-86668280D01*
X160567463Y-86832212D01*
X160689122Y-86967328D01*
X160694125Y-86972884D01*
X160847261Y-87084144D01*
X160847266Y-87084147D01*
X161020188Y-87161138D01*
X161020193Y-87161140D01*
X161205350Y-87200496D01*
X161205351Y-87200496D01*
X161394640Y-87200496D01*
X161394642Y-87200496D01*
X161579799Y-87161140D01*
X161752726Y-87084147D01*
X161905867Y-86972884D01*
X162032529Y-86832212D01*
X162127175Y-86668280D01*
X162185670Y-86488252D01*
X162205456Y-86299996D01*
X162185670Y-86111740D01*
X162127175Y-85931712D01*
X162032529Y-85767780D01*
X161905867Y-85627108D01*
X161905866Y-85627107D01*
X161752730Y-85515847D01*
X161752725Y-85515844D01*
X161579803Y-85438853D01*
X161579798Y-85438851D01*
X161433997Y-85407861D01*
X161394642Y-85399496D01*
X161205350Y-85399496D01*
X161172893Y-85406394D01*
X161020193Y-85438851D01*
X161020188Y-85438853D01*
X160847266Y-85515844D01*
X160847261Y-85515847D01*
X160694125Y-85627107D01*
X160567462Y-85767781D01*
X160553286Y-85792335D01*
X160486771Y-85907544D01*
X160472819Y-85931709D01*
X160472814Y-85931718D01*
X160414323Y-86111736D01*
X160414322Y-86111740D01*
X160394536Y-86299996D01*
X152650500Y-86299996D01*
X152650500Y-81126079D01*
X152621659Y-80981092D01*
X152621658Y-80981091D01*
X152621658Y-80981087D01*
X152565084Y-80844505D01*
X152522710Y-80781087D01*
X152522710Y-80781086D01*
X152482950Y-80721581D01*
X152482947Y-80721578D01*
X149661364Y-77899996D01*
X151294435Y-77899996D01*
X151294435Y-77900003D01*
X151314630Y-78079249D01*
X151314631Y-78079254D01*
X151374211Y-78249523D01*
X151435019Y-78346297D01*
X151470184Y-78402262D01*
X151597738Y-78529816D01*
X151750478Y-78625789D01*
X151920745Y-78685368D01*
X151920750Y-78685369D01*
X152099996Y-78705565D01*
X152100000Y-78705565D01*
X152100004Y-78705565D01*
X152279249Y-78685369D01*
X152279252Y-78685368D01*
X152279255Y-78685368D01*
X152359017Y-78657457D01*
X152399972Y-78650500D01*
X155637770Y-78650500D01*
X155704809Y-78670185D01*
X155725451Y-78686819D01*
X161096692Y-84058059D01*
X161119358Y-84094125D01*
X161121188Y-84093244D01*
X161124209Y-84099518D01*
X161124211Y-84099522D01*
X161220184Y-84252262D01*
X161347738Y-84379816D01*
X161362566Y-84389133D01*
X161462635Y-84452011D01*
X161500478Y-84475789D01*
X161583430Y-84504815D01*
X161670745Y-84535368D01*
X161670750Y-84535369D01*
X161849996Y-84555565D01*
X161850000Y-84555565D01*
X161850004Y-84555565D01*
X162029249Y-84535369D01*
X162029252Y-84535368D01*
X162029255Y-84535368D01*
X162199522Y-84475789D01*
X162352262Y-84379816D01*
X162479816Y-84252262D01*
X162575789Y-84099522D01*
X162635368Y-83929255D01*
X162635369Y-83929249D01*
X162655565Y-83750003D01*
X162655565Y-83749996D01*
X162635369Y-83570750D01*
X162635368Y-83570745D01*
X162601865Y-83475000D01*
X162575789Y-83400478D01*
X162575174Y-83399500D01*
X162530688Y-83328700D01*
X162479816Y-83247738D01*
X162352262Y-83120184D01*
X162199522Y-83024211D01*
X162199518Y-83024209D01*
X162193244Y-83021188D01*
X162194125Y-83019358D01*
X162158059Y-82996692D01*
X161731873Y-82570506D01*
X161698388Y-82509183D01*
X161703372Y-82439491D01*
X161745244Y-82383558D01*
X161760500Y-82374605D01*
X161760280Y-82374224D01*
X161765897Y-82370980D01*
X161765903Y-82370978D01*
X161919044Y-82259715D01*
X162045706Y-82119043D01*
X162140352Y-81955111D01*
X162198847Y-81775083D01*
X162206738Y-81700000D01*
X173894540Y-81700000D01*
X173914326Y-81888256D01*
X173914327Y-81888259D01*
X173972818Y-82068277D01*
X173972821Y-82068284D01*
X174067467Y-82232216D01*
X174121695Y-82292442D01*
X174194129Y-82372888D01*
X174347265Y-82484148D01*
X174347270Y-82484151D01*
X174520192Y-82561142D01*
X174520197Y-82561144D01*
X174705354Y-82600500D01*
X174705355Y-82600500D01*
X174894644Y-82600500D01*
X174894646Y-82600500D01*
X175079803Y-82561144D01*
X175252730Y-82484151D01*
X175405871Y-82372888D01*
X175532533Y-82232216D01*
X175627179Y-82068284D01*
X175685674Y-81888256D01*
X175705460Y-81700000D01*
X175685674Y-81511744D01*
X175627179Y-81331716D01*
X175532533Y-81167784D01*
X175405871Y-81027112D01*
X175405870Y-81027111D01*
X175252734Y-80915851D01*
X175252729Y-80915848D01*
X175079807Y-80838857D01*
X175079802Y-80838855D01*
X174909597Y-80802678D01*
X174894646Y-80799500D01*
X174705354Y-80799500D01*
X174690403Y-80802678D01*
X174520197Y-80838855D01*
X174520192Y-80838857D01*
X174347270Y-80915848D01*
X174347265Y-80915851D01*
X174194129Y-81027111D01*
X174067466Y-81167785D01*
X173972821Y-81331715D01*
X173972818Y-81331722D01*
X173914327Y-81511740D01*
X173914326Y-81511744D01*
X173894540Y-81700000D01*
X162206738Y-81700000D01*
X162218633Y-81586827D01*
X162198847Y-81398571D01*
X162140352Y-81218543D01*
X162045706Y-81054611D01*
X161919044Y-80913939D01*
X161919043Y-80913938D01*
X161765907Y-80802678D01*
X161765902Y-80802675D01*
X161592980Y-80725684D01*
X161592975Y-80725682D01*
X161447174Y-80694692D01*
X161407819Y-80686327D01*
X161218527Y-80686327D01*
X161186070Y-80693225D01*
X161033370Y-80725682D01*
X161033365Y-80725684D01*
X160860443Y-80802675D01*
X160860438Y-80802678D01*
X160707302Y-80913938D01*
X160580638Y-81054612D01*
X160527964Y-81145847D01*
X160477397Y-81194063D01*
X160408790Y-81207285D01*
X160343925Y-81181317D01*
X160332896Y-81171528D01*
X158177597Y-79016228D01*
X164349500Y-79016228D01*
X164349500Y-79183771D01*
X164382182Y-79348074D01*
X164382184Y-79348082D01*
X164446295Y-79502860D01*
X164539373Y-79642162D01*
X164657837Y-79760626D01*
X164750494Y-79822537D01*
X164797137Y-79853703D01*
X164951918Y-79917816D01*
X165116228Y-79950499D01*
X165116232Y-79950500D01*
X165116233Y-79950500D01*
X165283768Y-79950500D01*
X165283769Y-79950499D01*
X165448082Y-79917816D01*
X165602863Y-79853703D01*
X165742162Y-79760626D01*
X165860626Y-79642162D01*
X165953703Y-79502863D01*
X166017816Y-79348082D01*
X166050500Y-79183767D01*
X166050500Y-79016233D01*
X166017816Y-78851918D01*
X165971916Y-78741108D01*
X165964448Y-78671641D01*
X165995723Y-78609162D01*
X166055811Y-78573509D01*
X166099081Y-78570299D01*
X166102300Y-78570627D01*
X166149991Y-78575500D01*
X167450008Y-78575499D01*
X167552797Y-78564999D01*
X167719334Y-78509814D01*
X167868656Y-78417712D01*
X167992712Y-78293656D01*
X168084814Y-78144334D01*
X168084814Y-78144331D01*
X168088178Y-78138879D01*
X168140126Y-78092154D01*
X168209088Y-78080931D01*
X168273170Y-78108774D01*
X168281398Y-78116294D01*
X168420213Y-78255109D01*
X168592179Y-78380048D01*
X168592181Y-78380049D01*
X168592184Y-78380051D01*
X168781588Y-78476557D01*
X168983757Y-78542246D01*
X169193713Y-78575500D01*
X169193714Y-78575500D01*
X169406286Y-78575500D01*
X169406287Y-78575500D01*
X169616243Y-78542246D01*
X169818412Y-78476557D01*
X170007816Y-78380051D01*
X170054275Y-78346297D01*
X170179786Y-78255109D01*
X170179788Y-78255106D01*
X170179792Y-78255104D01*
X170330104Y-78104792D01*
X170449683Y-77940204D01*
X170505011Y-77897540D01*
X170574624Y-77891561D01*
X170636420Y-77924166D01*
X170650313Y-77940199D01*
X170752560Y-78080931D01*
X170769896Y-78104792D01*
X170920213Y-78255109D01*
X171092179Y-78380048D01*
X171092181Y-78380049D01*
X171092184Y-78380051D01*
X171281588Y-78476557D01*
X171483757Y-78542246D01*
X171693713Y-78575500D01*
X171693714Y-78575500D01*
X171906286Y-78575500D01*
X171906287Y-78575500D01*
X172116243Y-78542246D01*
X172318412Y-78476557D01*
X172507816Y-78380051D01*
X172554275Y-78346297D01*
X172679786Y-78255109D01*
X172679788Y-78255106D01*
X172679792Y-78255104D01*
X172830104Y-78104792D01*
X172830106Y-78104788D01*
X172830109Y-78104786D01*
X172955048Y-77932820D01*
X172955047Y-77932820D01*
X172955051Y-77932816D01*
X173051557Y-77743412D01*
X173117246Y-77541243D01*
X173150500Y-77331287D01*
X173150500Y-76868713D01*
X173117246Y-76658757D01*
X173051557Y-76456588D01*
X172955051Y-76267184D01*
X172955049Y-76267181D01*
X172955048Y-76267179D01*
X172830109Y-76095213D01*
X172679786Y-75944890D01*
X172507820Y-75819951D01*
X172318414Y-75723444D01*
X172318413Y-75723443D01*
X172318412Y-75723443D01*
X172116243Y-75657754D01*
X172116241Y-75657753D01*
X172116240Y-75657753D01*
X171954957Y-75632208D01*
X171906287Y-75624500D01*
X171693713Y-75624500D01*
X171645042Y-75632208D01*
X171483760Y-75657753D01*
X171281585Y-75723444D01*
X171092179Y-75819951D01*
X170920213Y-75944890D01*
X170769894Y-76095209D01*
X170769890Y-76095214D01*
X170650318Y-76259793D01*
X170594989Y-76302459D01*
X170525375Y-76308438D01*
X170463580Y-76275833D01*
X170449682Y-76259793D01*
X170330109Y-76095214D01*
X170330105Y-76095209D01*
X170179786Y-75944890D01*
X170007820Y-75819951D01*
X169818414Y-75723444D01*
X169818413Y-75723443D01*
X169818412Y-75723443D01*
X169616243Y-75657754D01*
X169616241Y-75657753D01*
X169616240Y-75657753D01*
X169454957Y-75632208D01*
X169406287Y-75624500D01*
X169193713Y-75624500D01*
X169145042Y-75632208D01*
X168983760Y-75657753D01*
X168781585Y-75723444D01*
X168592179Y-75819951D01*
X168420215Y-75944889D01*
X168281398Y-76083706D01*
X168220075Y-76117190D01*
X168150383Y-76112206D01*
X168094450Y-76070334D01*
X168088178Y-76061120D01*
X167992712Y-75906344D01*
X167868657Y-75782289D01*
X167868656Y-75782288D01*
X167719334Y-75690186D01*
X167552797Y-75635001D01*
X167552795Y-75635000D01*
X167450010Y-75624500D01*
X166149998Y-75624500D01*
X166149981Y-75624501D01*
X166047203Y-75635000D01*
X166047200Y-75635001D01*
X165880668Y-75690185D01*
X165880663Y-75690187D01*
X165731342Y-75782289D01*
X165607289Y-75906342D01*
X165515187Y-76055663D01*
X165515185Y-76055668D01*
X165510325Y-76070334D01*
X165460001Y-76222203D01*
X165460001Y-76222204D01*
X165460000Y-76222204D01*
X165449500Y-76324983D01*
X165449500Y-77875001D01*
X165449501Y-77875018D01*
X165460000Y-77977796D01*
X165460001Y-77977799D01*
X165501830Y-78104028D01*
X165504232Y-78173856D01*
X165468500Y-78233898D01*
X165405980Y-78265091D01*
X165359934Y-78264650D01*
X165308015Y-78254323D01*
X165283767Y-78249500D01*
X165116233Y-78249500D01*
X165116228Y-78249500D01*
X164951925Y-78282182D01*
X164951917Y-78282184D01*
X164797139Y-78346295D01*
X164657837Y-78439373D01*
X164539373Y-78557837D01*
X164446295Y-78697139D01*
X164382184Y-78851917D01*
X164382182Y-78851925D01*
X164349500Y-79016228D01*
X158177597Y-79016228D01*
X156478421Y-77317052D01*
X156478414Y-77317046D01*
X156378818Y-77250499D01*
X156378817Y-77250499D01*
X156355495Y-77234916D01*
X156355488Y-77234912D01*
X156218917Y-77178343D01*
X156218907Y-77178340D01*
X156073920Y-77149500D01*
X156073918Y-77149500D01*
X152399972Y-77149500D01*
X152359017Y-77142542D01*
X152279254Y-77114631D01*
X152279249Y-77114630D01*
X152100004Y-77094435D01*
X152099996Y-77094435D01*
X151920750Y-77114630D01*
X151920745Y-77114631D01*
X151750476Y-77174211D01*
X151597737Y-77270184D01*
X151470184Y-77397737D01*
X151374211Y-77550476D01*
X151314631Y-77720745D01*
X151314630Y-77720750D01*
X151294435Y-77899996D01*
X149661364Y-77899996D01*
X147653307Y-75891939D01*
X147630653Y-75855869D01*
X147628813Y-75856756D01*
X147625792Y-75850484D01*
X147625789Y-75850480D01*
X147625789Y-75850478D01*
X147529816Y-75697738D01*
X147402262Y-75570184D01*
X147369344Y-75549500D01*
X147249523Y-75474211D01*
X147079254Y-75414631D01*
X147079249Y-75414630D01*
X146900004Y-75394435D01*
X146899996Y-75394435D01*
X146720750Y-75414630D01*
X146720745Y-75414631D01*
X146550476Y-75474211D01*
X146397737Y-75570184D01*
X146270184Y-75697737D01*
X146174211Y-75850476D01*
X146114631Y-76020745D01*
X146114630Y-76020750D01*
X146094435Y-76199996D01*
X138894074Y-76199996D01*
X138925789Y-76149522D01*
X138985368Y-75979255D01*
X138985369Y-75979249D01*
X139005565Y-75800003D01*
X139005565Y-75799996D01*
X138985369Y-75620750D01*
X138985368Y-75620745D01*
X138940297Y-75491939D01*
X138925789Y-75450478D01*
X138903265Y-75414632D01*
X138829815Y-75297737D01*
X138702262Y-75170184D01*
X138549523Y-75074211D01*
X138379254Y-75014631D01*
X138379249Y-75014630D01*
X138200004Y-74994435D01*
X138199996Y-74994435D01*
X138020750Y-75014630D01*
X138020745Y-75014631D01*
X137850476Y-75074211D01*
X137697737Y-75170184D01*
X137570184Y-75297737D01*
X137474208Y-75450483D01*
X137471186Y-75456758D01*
X137469361Y-75455878D01*
X137446692Y-75491939D01*
X134217045Y-78721586D01*
X134182771Y-78772885D01*
X134182769Y-78772888D01*
X134134919Y-78844499D01*
X134134912Y-78844511D01*
X134078343Y-78981082D01*
X134078340Y-78981092D01*
X134049500Y-79126079D01*
X134049500Y-85300028D01*
X134042542Y-85340982D01*
X134014631Y-85420747D01*
X133994435Y-85599996D01*
X133150272Y-85599996D01*
X133150500Y-85597873D01*
X133150499Y-83802128D01*
X133144091Y-83742517D01*
X133142790Y-83739030D01*
X133093797Y-83607671D01*
X133093793Y-83607664D01*
X133007547Y-83492455D01*
X133007544Y-83492452D01*
X132892335Y-83406206D01*
X132892328Y-83406202D01*
X132757482Y-83355908D01*
X132757483Y-83355908D01*
X132697883Y-83349501D01*
X132697881Y-83349500D01*
X132697873Y-83349500D01*
X132697864Y-83349500D01*
X130902129Y-83349500D01*
X130902123Y-83349501D01*
X130842516Y-83355908D01*
X130839030Y-83357209D01*
X130836138Y-83357415D01*
X130834969Y-83357692D01*
X130834924Y-83357502D01*
X130769338Y-83362188D01*
X130708017Y-83328700D01*
X130674536Y-83267374D01*
X130679525Y-83197683D01*
X130708021Y-83153345D01*
X132382952Y-81478415D01*
X132410205Y-81437627D01*
X132465084Y-81355495D01*
X132505584Y-81257720D01*
X132521659Y-81218912D01*
X132550500Y-81073917D01*
X132550500Y-80926082D01*
X132550500Y-77826082D01*
X132550500Y-77826079D01*
X132521659Y-77681092D01*
X132521658Y-77681091D01*
X132521658Y-77681087D01*
X132474727Y-77567785D01*
X132465087Y-77544511D01*
X132465080Y-77544498D01*
X132382952Y-77421585D01*
X132359104Y-77397737D01*
X132278416Y-77317049D01*
X132278415Y-77317048D01*
X131791182Y-76829815D01*
X130278421Y-75317052D01*
X130278414Y-75317046D01*
X130194109Y-75260716D01*
X130194108Y-75260716D01*
X130155501Y-75234919D01*
X130155488Y-75234912D01*
X130018917Y-75178343D01*
X130018907Y-75178340D01*
X129873920Y-75149500D01*
X129873918Y-75149500D01*
X122873691Y-75149500D01*
X122806652Y-75129815D01*
X122760897Y-75077011D01*
X122750953Y-75007853D01*
X122779978Y-74944297D01*
X122838756Y-74906523D01*
X122841598Y-74905725D01*
X122922125Y-74884148D01*
X123053663Y-74848903D01*
X123267830Y-74749035D01*
X123461401Y-74613495D01*
X123628495Y-74446401D01*
X123764035Y-74252830D01*
X123788670Y-74200000D01*
X132094540Y-74200000D01*
X132114326Y-74388256D01*
X132114327Y-74388259D01*
X132172818Y-74568277D01*
X132172821Y-74568284D01*
X132267467Y-74732216D01*
X132372531Y-74848901D01*
X132394129Y-74872888D01*
X132547265Y-74984148D01*
X132547270Y-74984151D01*
X132720192Y-75061142D01*
X132720197Y-75061144D01*
X132905354Y-75100500D01*
X132905355Y-75100500D01*
X133094644Y-75100500D01*
X133094646Y-75100500D01*
X133279803Y-75061144D01*
X133452730Y-74984151D01*
X133605871Y-74872888D01*
X133732533Y-74732216D01*
X133827179Y-74568284D01*
X133885674Y-74388256D01*
X133905460Y-74200000D01*
X133885674Y-74011744D01*
X133827179Y-73831716D01*
X133732533Y-73667784D01*
X133605871Y-73527112D01*
X133568559Y-73500003D01*
X133452734Y-73415851D01*
X133452729Y-73415848D01*
X133279807Y-73338857D01*
X133279802Y-73338855D01*
X133134001Y-73307865D01*
X133094646Y-73299500D01*
X132905354Y-73299500D01*
X132872897Y-73306398D01*
X132720197Y-73338855D01*
X132720192Y-73338857D01*
X132547270Y-73415848D01*
X132547265Y-73415851D01*
X132394129Y-73527111D01*
X132267466Y-73667785D01*
X132172821Y-73831715D01*
X132172818Y-73831722D01*
X132117407Y-74002262D01*
X132114326Y-74011744D01*
X132094540Y-74200000D01*
X123788670Y-74200000D01*
X123863903Y-74038663D01*
X123925063Y-73810408D01*
X123945659Y-73575000D01*
X123925063Y-73339592D01*
X123863903Y-73111337D01*
X123764035Y-72897171D01*
X123636221Y-72714632D01*
X123628494Y-72703597D01*
X123461402Y-72536506D01*
X123461395Y-72536501D01*
X123267834Y-72400967D01*
X123267830Y-72400965D01*
X123266048Y-72400134D01*
X123053663Y-72301097D01*
X123053659Y-72301096D01*
X123053655Y-72301094D01*
X122825413Y-72239938D01*
X122825403Y-72239936D01*
X122590001Y-72219341D01*
X122589999Y-72219341D01*
X122354596Y-72239936D01*
X122354586Y-72239938D01*
X122126344Y-72301094D01*
X122126335Y-72301098D01*
X121912171Y-72400964D01*
X121912169Y-72400965D01*
X121718600Y-72536503D01*
X121596673Y-72658430D01*
X121535350Y-72691914D01*
X121465658Y-72686930D01*
X121409725Y-72645058D01*
X121392810Y-72614081D01*
X121343797Y-72482671D01*
X121343793Y-72482664D01*
X121257547Y-72367455D01*
X121257544Y-72367452D01*
X121142335Y-72281206D01*
X121142328Y-72281202D01*
X121007482Y-72230908D01*
X121007483Y-72230908D01*
X120947883Y-72224501D01*
X120947881Y-72224500D01*
X120947873Y-72224500D01*
X120947864Y-72224500D01*
X119152129Y-72224500D01*
X119152123Y-72224501D01*
X119092516Y-72230908D01*
X118957671Y-72281202D01*
X118957664Y-72281206D01*
X118842455Y-72367452D01*
X118842452Y-72367455D01*
X118756206Y-72482664D01*
X118756202Y-72482671D01*
X118705908Y-72617517D01*
X118699501Y-72677116D01*
X118699500Y-72677135D01*
X118699500Y-73538770D01*
X118679815Y-73605809D01*
X118627011Y-73651564D01*
X118557853Y-73661508D01*
X118494297Y-73632483D01*
X118487819Y-73626451D01*
X118053308Y-73191940D01*
X118030643Y-73155870D01*
X118028812Y-73156753D01*
X118025792Y-73150483D01*
X117929815Y-72997737D01*
X117802262Y-72870184D01*
X117649523Y-72774211D01*
X117479254Y-72714631D01*
X117479249Y-72714630D01*
X117300004Y-72694435D01*
X117299996Y-72694435D01*
X117120750Y-72714630D01*
X117120745Y-72714631D01*
X116950476Y-72774211D01*
X116797737Y-72870184D01*
X116670184Y-72997737D01*
X116574211Y-73150476D01*
X116514631Y-73320745D01*
X116514630Y-73320750D01*
X116494435Y-73499996D01*
X115671496Y-73499996D01*
X115605871Y-73427112D01*
X115590369Y-73415849D01*
X115452734Y-73315851D01*
X115452729Y-73315848D01*
X115279807Y-73238857D01*
X115279802Y-73238855D01*
X115134001Y-73207865D01*
X115094646Y-73199500D01*
X114905354Y-73199500D01*
X114872897Y-73206398D01*
X114720197Y-73238855D01*
X114720192Y-73238857D01*
X114547270Y-73315848D01*
X114547265Y-73315851D01*
X114394129Y-73427111D01*
X114267466Y-73567785D01*
X114172821Y-73731715D01*
X114172818Y-73731722D01*
X114114327Y-73911740D01*
X114114326Y-73911744D01*
X114094540Y-74100000D01*
X101800500Y-74100000D01*
X101800500Y-71269998D01*
X126779532Y-71269998D01*
X126779532Y-71270001D01*
X126799364Y-71496686D01*
X126799366Y-71496697D01*
X126858258Y-71716488D01*
X126858261Y-71716497D01*
X126954431Y-71922732D01*
X126954432Y-71922734D01*
X127084954Y-72109141D01*
X127245858Y-72270045D01*
X127245861Y-72270047D01*
X127432266Y-72400568D01*
X127638504Y-72496739D01*
X127858308Y-72555635D01*
X128020230Y-72569801D01*
X128084998Y-72575468D01*
X128085000Y-72575468D01*
X128085002Y-72575468D01*
X128141673Y-72570509D01*
X128311692Y-72555635D01*
X128531496Y-72496739D01*
X128737734Y-72400568D01*
X128924139Y-72270047D01*
X129085047Y-72109139D01*
X129215568Y-71922734D01*
X129242618Y-71864724D01*
X129288790Y-71812285D01*
X129355983Y-71793133D01*
X129422865Y-71813348D01*
X129467382Y-71864725D01*
X129494429Y-71922728D01*
X129494432Y-71922734D01*
X129624954Y-72109141D01*
X129785858Y-72270045D01*
X129785861Y-72270047D01*
X129972266Y-72400568D01*
X130178504Y-72496739D01*
X130398308Y-72555635D01*
X130560230Y-72569801D01*
X130624998Y-72575468D01*
X130625000Y-72575468D01*
X130625002Y-72575468D01*
X130681673Y-72570509D01*
X130851692Y-72555635D01*
X131071496Y-72496739D01*
X131277734Y-72400568D01*
X131464139Y-72270047D01*
X131625047Y-72109139D01*
X131755568Y-71922734D01*
X131782618Y-71864724D01*
X131828790Y-71812285D01*
X131895983Y-71793133D01*
X131962865Y-71813348D01*
X132007382Y-71864725D01*
X132034429Y-71922728D01*
X132034432Y-71922734D01*
X132164954Y-72109141D01*
X132325858Y-72270045D01*
X132325861Y-72270047D01*
X132512266Y-72400568D01*
X132718504Y-72496739D01*
X132938308Y-72555635D01*
X133100230Y-72569801D01*
X133164998Y-72575468D01*
X133165000Y-72575468D01*
X133165002Y-72575468D01*
X133221673Y-72570509D01*
X133391692Y-72555635D01*
X133611496Y-72496739D01*
X133817734Y-72400568D01*
X134004139Y-72270047D01*
X134165047Y-72109139D01*
X134295568Y-71922734D01*
X134322895Y-71864129D01*
X134369064Y-71811695D01*
X134436257Y-71792542D01*
X134503139Y-71812757D01*
X134547657Y-71864133D01*
X134574865Y-71922482D01*
X134705342Y-72108820D01*
X134866179Y-72269657D01*
X135052517Y-72400134D01*
X135258673Y-72496265D01*
X135258682Y-72496269D01*
X135454999Y-72548872D01*
X135455000Y-72548871D01*
X135455000Y-71703012D01*
X135512007Y-71735925D01*
X135639174Y-71770000D01*
X135770826Y-71770000D01*
X135897993Y-71735925D01*
X135955000Y-71703012D01*
X135955000Y-72548872D01*
X136151317Y-72496269D01*
X136151326Y-72496265D01*
X136357482Y-72400134D01*
X136543820Y-72269657D01*
X136704657Y-72108820D01*
X136835132Y-71922484D01*
X136862341Y-71864134D01*
X136908513Y-71811695D01*
X136975707Y-71792542D01*
X137042588Y-71812757D01*
X137087106Y-71864133D01*
X137114431Y-71922732D01*
X137114432Y-71922734D01*
X137244954Y-72109141D01*
X137405858Y-72270045D01*
X137405861Y-72270047D01*
X137592266Y-72400568D01*
X137798504Y-72496739D01*
X138018308Y-72555635D01*
X138180230Y-72569801D01*
X138244998Y-72575468D01*
X138245000Y-72575468D01*
X138245002Y-72575468D01*
X138301673Y-72570509D01*
X138471692Y-72555635D01*
X138691496Y-72496739D01*
X138897734Y-72400568D01*
X139084139Y-72270047D01*
X139245047Y-72109139D01*
X139375568Y-71922734D01*
X139402618Y-71864724D01*
X139448790Y-71812285D01*
X139515983Y-71793133D01*
X139582865Y-71813348D01*
X139627382Y-71864725D01*
X139654429Y-71922728D01*
X139654432Y-71922734D01*
X139784954Y-72109141D01*
X139945858Y-72270045D01*
X139945861Y-72270047D01*
X140132266Y-72400568D01*
X140338504Y-72496739D01*
X140558308Y-72555635D01*
X140720230Y-72569801D01*
X140784998Y-72575468D01*
X140785000Y-72575468D01*
X140785002Y-72575468D01*
X140841673Y-72570509D01*
X141011692Y-72555635D01*
X141231496Y-72496739D01*
X141437734Y-72400568D01*
X141624139Y-72270047D01*
X141785047Y-72109139D01*
X141915568Y-71922734D01*
X141942618Y-71864724D01*
X141988790Y-71812285D01*
X142055983Y-71793133D01*
X142122865Y-71813348D01*
X142167382Y-71864725D01*
X142194429Y-71922728D01*
X142194432Y-71922734D01*
X142324954Y-72109141D01*
X142485858Y-72270045D01*
X142485861Y-72270047D01*
X142672266Y-72400568D01*
X142878504Y-72496739D01*
X143098308Y-72555635D01*
X143260230Y-72569801D01*
X143324998Y-72575468D01*
X143325000Y-72575468D01*
X143325002Y-72575468D01*
X143381673Y-72570509D01*
X143551692Y-72555635D01*
X143771496Y-72496739D01*
X143977734Y-72400568D01*
X144164139Y-72270047D01*
X144325047Y-72109139D01*
X144455568Y-71922734D01*
X144482618Y-71864724D01*
X144528790Y-71812285D01*
X144595983Y-71793133D01*
X144662865Y-71813348D01*
X144707382Y-71864725D01*
X144734429Y-71922728D01*
X144734432Y-71922734D01*
X144864954Y-72109141D01*
X145025858Y-72270045D01*
X145025861Y-72270047D01*
X145212266Y-72400568D01*
X145418504Y-72496739D01*
X145638308Y-72555635D01*
X145800230Y-72569801D01*
X145864998Y-72575468D01*
X145865000Y-72575468D01*
X145865002Y-72575468D01*
X145921673Y-72570509D01*
X146091692Y-72555635D01*
X146311496Y-72496739D01*
X146517734Y-72400568D01*
X146704139Y-72270047D01*
X146865047Y-72109139D01*
X146995568Y-71922734D01*
X147022618Y-71864724D01*
X147068790Y-71812285D01*
X147135983Y-71793133D01*
X147202865Y-71813348D01*
X147247382Y-71864725D01*
X147274429Y-71922728D01*
X147274432Y-71922734D01*
X147404954Y-72109141D01*
X147565858Y-72270045D01*
X147565861Y-72270047D01*
X147752266Y-72400568D01*
X147958504Y-72496739D01*
X148178308Y-72555635D01*
X148340230Y-72569801D01*
X148404998Y-72575468D01*
X148405000Y-72575468D01*
X148405002Y-72575468D01*
X148461673Y-72570509D01*
X148631692Y-72555635D01*
X148851496Y-72496739D01*
X149057734Y-72400568D01*
X149244139Y-72270047D01*
X149405047Y-72109139D01*
X149535568Y-71922734D01*
X149562618Y-71864724D01*
X149608790Y-71812285D01*
X149675983Y-71793133D01*
X149742865Y-71813348D01*
X149787382Y-71864725D01*
X149814429Y-71922728D01*
X149814432Y-71922734D01*
X149944954Y-72109141D01*
X150105858Y-72270045D01*
X150105861Y-72270047D01*
X150292266Y-72400568D01*
X150498504Y-72496739D01*
X150718308Y-72555635D01*
X150880230Y-72569801D01*
X150944998Y-72575468D01*
X150945000Y-72575468D01*
X150945002Y-72575468D01*
X151001673Y-72570509D01*
X151171692Y-72555635D01*
X151391496Y-72496739D01*
X151597734Y-72400568D01*
X151784139Y-72270047D01*
X151945047Y-72109139D01*
X152075568Y-71922734D01*
X152171739Y-71716496D01*
X152230635Y-71496692D01*
X152250468Y-71270000D01*
X152250468Y-71269998D01*
X153699532Y-71269998D01*
X153699532Y-71270001D01*
X153719364Y-71496686D01*
X153719366Y-71496697D01*
X153778258Y-71716488D01*
X153778261Y-71716497D01*
X153874431Y-71922732D01*
X153874432Y-71922734D01*
X154004954Y-72109141D01*
X154165858Y-72270045D01*
X154165861Y-72270047D01*
X154352266Y-72400568D01*
X154558504Y-72496739D01*
X154778308Y-72555635D01*
X154940230Y-72569801D01*
X155004998Y-72575468D01*
X155005000Y-72575468D01*
X155005002Y-72575468D01*
X155061673Y-72570509D01*
X155231692Y-72555635D01*
X155451496Y-72496739D01*
X155657734Y-72400568D01*
X155844139Y-72270047D01*
X156005047Y-72109139D01*
X156135568Y-71922734D01*
X156162618Y-71864724D01*
X156208790Y-71812285D01*
X156275983Y-71793133D01*
X156342865Y-71813348D01*
X156387382Y-71864725D01*
X156414429Y-71922728D01*
X156414432Y-71922734D01*
X156544954Y-72109141D01*
X156705858Y-72270045D01*
X156705861Y-72270047D01*
X156892266Y-72400568D01*
X157098504Y-72496739D01*
X157318308Y-72555635D01*
X157480230Y-72569801D01*
X157544998Y-72575468D01*
X157545000Y-72575468D01*
X157545002Y-72575468D01*
X157601673Y-72570509D01*
X157771692Y-72555635D01*
X157991496Y-72496739D01*
X158197734Y-72400568D01*
X158384139Y-72270047D01*
X158545047Y-72109139D01*
X158675568Y-71922734D01*
X158702618Y-71864724D01*
X158748790Y-71812285D01*
X158815983Y-71793133D01*
X158882865Y-71813348D01*
X158927382Y-71864725D01*
X158954429Y-71922728D01*
X158954432Y-71922734D01*
X159084954Y-72109141D01*
X159245858Y-72270045D01*
X159245861Y-72270047D01*
X159432266Y-72400568D01*
X159638504Y-72496739D01*
X159858308Y-72555635D01*
X160020230Y-72569801D01*
X160084998Y-72575468D01*
X160085000Y-72575468D01*
X160085002Y-72575468D01*
X160141673Y-72570509D01*
X160311692Y-72555635D01*
X160531496Y-72496739D01*
X160737734Y-72400568D01*
X160924139Y-72270047D01*
X161085047Y-72109139D01*
X161215568Y-71922734D01*
X161242618Y-71864724D01*
X161288790Y-71812285D01*
X161355983Y-71793133D01*
X161422865Y-71813348D01*
X161467382Y-71864725D01*
X161494429Y-71922728D01*
X161494432Y-71922734D01*
X161624954Y-72109141D01*
X161785858Y-72270045D01*
X161785861Y-72270047D01*
X161972266Y-72400568D01*
X162178504Y-72496739D01*
X162398308Y-72555635D01*
X162560230Y-72569801D01*
X162624998Y-72575468D01*
X162625000Y-72575468D01*
X162625002Y-72575468D01*
X162681673Y-72570509D01*
X162851692Y-72555635D01*
X163071496Y-72496739D01*
X163277734Y-72400568D01*
X163464139Y-72270047D01*
X163625047Y-72109139D01*
X163755568Y-71922734D01*
X163782618Y-71864724D01*
X163828790Y-71812285D01*
X163895983Y-71793133D01*
X163962865Y-71813348D01*
X164007382Y-71864725D01*
X164034429Y-71922728D01*
X164034432Y-71922734D01*
X164164954Y-72109141D01*
X164325858Y-72270045D01*
X164325861Y-72270047D01*
X164512266Y-72400568D01*
X164718504Y-72496739D01*
X164938308Y-72555635D01*
X165100230Y-72569801D01*
X165164998Y-72575468D01*
X165165000Y-72575468D01*
X165165002Y-72575468D01*
X165221673Y-72570509D01*
X165391692Y-72555635D01*
X165611496Y-72496739D01*
X165817734Y-72400568D01*
X166004139Y-72270047D01*
X166165047Y-72109139D01*
X166295568Y-71922734D01*
X166322618Y-71864724D01*
X166368790Y-71812285D01*
X166435983Y-71793133D01*
X166502865Y-71813348D01*
X166547382Y-71864725D01*
X166574429Y-71922728D01*
X166574432Y-71922734D01*
X166704954Y-72109141D01*
X166865858Y-72270045D01*
X166865861Y-72270047D01*
X167052266Y-72400568D01*
X167258504Y-72496739D01*
X167478308Y-72555635D01*
X167640230Y-72569801D01*
X167704998Y-72575468D01*
X167705000Y-72575468D01*
X167705002Y-72575468D01*
X167761673Y-72570509D01*
X167931692Y-72555635D01*
X168151496Y-72496739D01*
X168357734Y-72400568D01*
X168544139Y-72270047D01*
X168705047Y-72109139D01*
X168835568Y-71922734D01*
X168862618Y-71864724D01*
X168908790Y-71812285D01*
X168975983Y-71793133D01*
X169042865Y-71813348D01*
X169087382Y-71864725D01*
X169114429Y-71922728D01*
X169114432Y-71922734D01*
X169244954Y-72109141D01*
X169405858Y-72270045D01*
X169405861Y-72270047D01*
X169592266Y-72400568D01*
X169798504Y-72496739D01*
X170018308Y-72555635D01*
X170180230Y-72569801D01*
X170244998Y-72575468D01*
X170245000Y-72575468D01*
X170245002Y-72575468D01*
X170301673Y-72570509D01*
X170471692Y-72555635D01*
X170691496Y-72496739D01*
X170897734Y-72400568D01*
X171084139Y-72270047D01*
X171245047Y-72109139D01*
X171375568Y-71922734D01*
X171402618Y-71864724D01*
X171448790Y-71812285D01*
X171515983Y-71793133D01*
X171582865Y-71813348D01*
X171627382Y-71864725D01*
X171654429Y-71922728D01*
X171654432Y-71922734D01*
X171784954Y-72109141D01*
X171945858Y-72270045D01*
X171945861Y-72270047D01*
X172132266Y-72400568D01*
X172338504Y-72496739D01*
X172558308Y-72555635D01*
X172720230Y-72569801D01*
X172784998Y-72575468D01*
X172785000Y-72575468D01*
X172785002Y-72575468D01*
X172841673Y-72570509D01*
X173011692Y-72555635D01*
X173231496Y-72496739D01*
X173437734Y-72400568D01*
X173624139Y-72270047D01*
X173785047Y-72109139D01*
X173915568Y-71922734D01*
X174011739Y-71716496D01*
X174070635Y-71496692D01*
X174090468Y-71270000D01*
X174070635Y-71043308D01*
X174011739Y-70823504D01*
X173915568Y-70617266D01*
X173785047Y-70430861D01*
X173785045Y-70430858D01*
X173624141Y-70269954D01*
X173437734Y-70139432D01*
X173437732Y-70139431D01*
X173231497Y-70043261D01*
X173231488Y-70043258D01*
X173011697Y-69984366D01*
X173011693Y-69984365D01*
X173011692Y-69984365D01*
X173011691Y-69984364D01*
X173011686Y-69984364D01*
X172785002Y-69964532D01*
X172784998Y-69964532D01*
X172558313Y-69984364D01*
X172558302Y-69984366D01*
X172338511Y-70043258D01*
X172338502Y-70043261D01*
X172132267Y-70139431D01*
X172132265Y-70139432D01*
X171945858Y-70269954D01*
X171784954Y-70430858D01*
X171654432Y-70617265D01*
X171654431Y-70617267D01*
X171627382Y-70675275D01*
X171581209Y-70727714D01*
X171514016Y-70746866D01*
X171447135Y-70726650D01*
X171402618Y-70675275D01*
X171375686Y-70617520D01*
X171375568Y-70617266D01*
X171245047Y-70430861D01*
X171245045Y-70430858D01*
X171084141Y-70269954D01*
X170897734Y-70139432D01*
X170897732Y-70139431D01*
X170691497Y-70043261D01*
X170691488Y-70043258D01*
X170471697Y-69984366D01*
X170471693Y-69984365D01*
X170471692Y-69984365D01*
X170471691Y-69984364D01*
X170471686Y-69984364D01*
X170245002Y-69964532D01*
X170244998Y-69964532D01*
X170018313Y-69984364D01*
X170018302Y-69984366D01*
X169798511Y-70043258D01*
X169798502Y-70043261D01*
X169592267Y-70139431D01*
X169592265Y-70139432D01*
X169405858Y-70269954D01*
X169244954Y-70430858D01*
X169114432Y-70617265D01*
X169114431Y-70617267D01*
X169087382Y-70675275D01*
X169041209Y-70727714D01*
X168974016Y-70746866D01*
X168907135Y-70726650D01*
X168862618Y-70675275D01*
X168835686Y-70617520D01*
X168835568Y-70617266D01*
X168705047Y-70430861D01*
X168705045Y-70430858D01*
X168544141Y-70269954D01*
X168357734Y-70139432D01*
X168357732Y-70139431D01*
X168151497Y-70043261D01*
X168151488Y-70043258D01*
X167931697Y-69984366D01*
X167931693Y-69984365D01*
X167931692Y-69984365D01*
X167931691Y-69984364D01*
X167931686Y-69984364D01*
X167705002Y-69964532D01*
X167704998Y-69964532D01*
X167478313Y-69984364D01*
X167478302Y-69984366D01*
X167258511Y-70043258D01*
X167258502Y-70043261D01*
X167052267Y-70139431D01*
X167052265Y-70139432D01*
X166865858Y-70269954D01*
X166704954Y-70430858D01*
X166574432Y-70617265D01*
X166574431Y-70617267D01*
X166547382Y-70675275D01*
X166501209Y-70727714D01*
X166434016Y-70746866D01*
X166367135Y-70726650D01*
X166322618Y-70675275D01*
X166295686Y-70617520D01*
X166295568Y-70617266D01*
X166165047Y-70430861D01*
X166165045Y-70430858D01*
X166004141Y-70269954D01*
X165817734Y-70139432D01*
X165817732Y-70139431D01*
X165611497Y-70043261D01*
X165611488Y-70043258D01*
X165391697Y-69984366D01*
X165391693Y-69984365D01*
X165391692Y-69984365D01*
X165391691Y-69984364D01*
X165391686Y-69984364D01*
X165165002Y-69964532D01*
X165164998Y-69964532D01*
X164938313Y-69984364D01*
X164938302Y-69984366D01*
X164718511Y-70043258D01*
X164718502Y-70043261D01*
X164512267Y-70139431D01*
X164512265Y-70139432D01*
X164325858Y-70269954D01*
X164164954Y-70430858D01*
X164034432Y-70617265D01*
X164034431Y-70617267D01*
X164007382Y-70675275D01*
X163961209Y-70727714D01*
X163894016Y-70746866D01*
X163827135Y-70726650D01*
X163782618Y-70675275D01*
X163755686Y-70617520D01*
X163755568Y-70617266D01*
X163625047Y-70430861D01*
X163625045Y-70430858D01*
X163464141Y-70269954D01*
X163277734Y-70139432D01*
X163277732Y-70139431D01*
X163071497Y-70043261D01*
X163071488Y-70043258D01*
X162851697Y-69984366D01*
X162851693Y-69984365D01*
X162851692Y-69984365D01*
X162851691Y-69984364D01*
X162851686Y-69984364D01*
X162625002Y-69964532D01*
X162624998Y-69964532D01*
X162398313Y-69984364D01*
X162398302Y-69984366D01*
X162178511Y-70043258D01*
X162178502Y-70043261D01*
X161972267Y-70139431D01*
X161972265Y-70139432D01*
X161785858Y-70269954D01*
X161624954Y-70430858D01*
X161494432Y-70617265D01*
X161494431Y-70617267D01*
X161467382Y-70675275D01*
X161421209Y-70727714D01*
X161354016Y-70746866D01*
X161287135Y-70726650D01*
X161242618Y-70675275D01*
X161215686Y-70617520D01*
X161215568Y-70617266D01*
X161085047Y-70430861D01*
X161085045Y-70430858D01*
X160924141Y-70269954D01*
X160737734Y-70139432D01*
X160737732Y-70139431D01*
X160531497Y-70043261D01*
X160531488Y-70043258D01*
X160311697Y-69984366D01*
X160311693Y-69984365D01*
X160311692Y-69984365D01*
X160311691Y-69984364D01*
X160311686Y-69984364D01*
X160085002Y-69964532D01*
X160084998Y-69964532D01*
X159858313Y-69984364D01*
X159858302Y-69984366D01*
X159638511Y-70043258D01*
X159638502Y-70043261D01*
X159432267Y-70139431D01*
X159432265Y-70139432D01*
X159245858Y-70269954D01*
X159084954Y-70430858D01*
X158954432Y-70617265D01*
X158954431Y-70617267D01*
X158927382Y-70675275D01*
X158881209Y-70727714D01*
X158814016Y-70746866D01*
X158747135Y-70726650D01*
X158702618Y-70675275D01*
X158675686Y-70617520D01*
X158675568Y-70617266D01*
X158545047Y-70430861D01*
X158545045Y-70430858D01*
X158384141Y-70269954D01*
X158197734Y-70139432D01*
X158197732Y-70139431D01*
X157991497Y-70043261D01*
X157991488Y-70043258D01*
X157771697Y-69984366D01*
X157771693Y-69984365D01*
X157771692Y-69984365D01*
X157771691Y-69984364D01*
X157771686Y-69984364D01*
X157545002Y-69964532D01*
X157544998Y-69964532D01*
X157318313Y-69984364D01*
X157318302Y-69984366D01*
X157098511Y-70043258D01*
X157098502Y-70043261D01*
X156892267Y-70139431D01*
X156892265Y-70139432D01*
X156705858Y-70269954D01*
X156544954Y-70430858D01*
X156414432Y-70617265D01*
X156414431Y-70617267D01*
X156387382Y-70675275D01*
X156341209Y-70727714D01*
X156274016Y-70746866D01*
X156207135Y-70726650D01*
X156162618Y-70675275D01*
X156135686Y-70617520D01*
X156135568Y-70617266D01*
X156005047Y-70430861D01*
X156005045Y-70430858D01*
X155844141Y-70269954D01*
X155657734Y-70139432D01*
X155657732Y-70139431D01*
X155451497Y-70043261D01*
X155451488Y-70043258D01*
X155231697Y-69984366D01*
X155231693Y-69984365D01*
X155231692Y-69984365D01*
X155231691Y-69984364D01*
X155231686Y-69984364D01*
X155005002Y-69964532D01*
X155004998Y-69964532D01*
X154778313Y-69984364D01*
X154778302Y-69984366D01*
X154558511Y-70043258D01*
X154558502Y-70043261D01*
X154352267Y-70139431D01*
X154352265Y-70139432D01*
X154165858Y-70269954D01*
X154004954Y-70430858D01*
X153874432Y-70617265D01*
X153874431Y-70617267D01*
X153778261Y-70823502D01*
X153778258Y-70823511D01*
X153719366Y-71043302D01*
X153719364Y-71043313D01*
X153699532Y-71269998D01*
X152250468Y-71269998D01*
X152230635Y-71043308D01*
X152171739Y-70823504D01*
X152075568Y-70617266D01*
X151945047Y-70430861D01*
X151945045Y-70430858D01*
X151784141Y-70269954D01*
X151597734Y-70139432D01*
X151597732Y-70139431D01*
X151391497Y-70043261D01*
X151391488Y-70043258D01*
X151171697Y-69984366D01*
X151171693Y-69984365D01*
X151171692Y-69984365D01*
X151171691Y-69984364D01*
X151171686Y-69984364D01*
X150945002Y-69964532D01*
X150944998Y-69964532D01*
X150718313Y-69984364D01*
X150718302Y-69984366D01*
X150498511Y-70043258D01*
X150498502Y-70043261D01*
X150292267Y-70139431D01*
X150292265Y-70139432D01*
X150105858Y-70269954D01*
X149944954Y-70430858D01*
X149814432Y-70617265D01*
X149814431Y-70617267D01*
X149787382Y-70675275D01*
X149741209Y-70727714D01*
X149674016Y-70746866D01*
X149607135Y-70726650D01*
X149562618Y-70675275D01*
X149535686Y-70617520D01*
X149535568Y-70617266D01*
X149405047Y-70430861D01*
X149405045Y-70430858D01*
X149244141Y-70269954D01*
X149057734Y-70139432D01*
X149057732Y-70139431D01*
X148851497Y-70043261D01*
X148851488Y-70043258D01*
X148631697Y-69984366D01*
X148631693Y-69984365D01*
X148631692Y-69984365D01*
X148631691Y-69984364D01*
X148631686Y-69984364D01*
X148405002Y-69964532D01*
X148404998Y-69964532D01*
X148178313Y-69984364D01*
X148178302Y-69984366D01*
X147958511Y-70043258D01*
X147958502Y-70043261D01*
X147752267Y-70139431D01*
X147752265Y-70139432D01*
X147565858Y-70269954D01*
X147404954Y-70430858D01*
X147274432Y-70617265D01*
X147274431Y-70617267D01*
X147247382Y-70675275D01*
X147201209Y-70727714D01*
X147134016Y-70746866D01*
X147067135Y-70726650D01*
X147022618Y-70675275D01*
X146995686Y-70617520D01*
X146995568Y-70617266D01*
X146865047Y-70430861D01*
X146865045Y-70430858D01*
X146704141Y-70269954D01*
X146517734Y-70139432D01*
X146517732Y-70139431D01*
X146311497Y-70043261D01*
X146311488Y-70043258D01*
X146091697Y-69984366D01*
X146091693Y-69984365D01*
X146091692Y-69984365D01*
X146091691Y-69984364D01*
X146091686Y-69984364D01*
X145865002Y-69964532D01*
X145864998Y-69964532D01*
X145638313Y-69984364D01*
X145638302Y-69984366D01*
X145418511Y-70043258D01*
X145418502Y-70043261D01*
X145212267Y-70139431D01*
X145212265Y-70139432D01*
X145025858Y-70269954D01*
X144864954Y-70430858D01*
X144734432Y-70617265D01*
X144734431Y-70617267D01*
X144707382Y-70675275D01*
X144661209Y-70727714D01*
X144594016Y-70746866D01*
X144527135Y-70726650D01*
X144482618Y-70675275D01*
X144455686Y-70617520D01*
X144455568Y-70617266D01*
X144325047Y-70430861D01*
X144325045Y-70430858D01*
X144164141Y-70269954D01*
X143977734Y-70139432D01*
X143977732Y-70139431D01*
X143771497Y-70043261D01*
X143771488Y-70043258D01*
X143551697Y-69984366D01*
X143551693Y-69984365D01*
X143551692Y-69984365D01*
X143551691Y-69984364D01*
X143551686Y-69984364D01*
X143325002Y-69964532D01*
X143324998Y-69964532D01*
X143098313Y-69984364D01*
X143098302Y-69984366D01*
X142878511Y-70043258D01*
X142878502Y-70043261D01*
X142672267Y-70139431D01*
X142672265Y-70139432D01*
X142485858Y-70269954D01*
X142324954Y-70430858D01*
X142194432Y-70617265D01*
X142194431Y-70617267D01*
X142167382Y-70675275D01*
X142121209Y-70727714D01*
X142054016Y-70746866D01*
X141987135Y-70726650D01*
X141942618Y-70675275D01*
X141915686Y-70617520D01*
X141915568Y-70617266D01*
X141785047Y-70430861D01*
X141785045Y-70430858D01*
X141624141Y-70269954D01*
X141437734Y-70139432D01*
X141437732Y-70139431D01*
X141231497Y-70043261D01*
X141231488Y-70043258D01*
X141011697Y-69984366D01*
X141011693Y-69984365D01*
X141011692Y-69984365D01*
X141011691Y-69984364D01*
X141011686Y-69984364D01*
X140785002Y-69964532D01*
X140784998Y-69964532D01*
X140558313Y-69984364D01*
X140558302Y-69984366D01*
X140338511Y-70043258D01*
X140338502Y-70043261D01*
X140132267Y-70139431D01*
X140132265Y-70139432D01*
X139945858Y-70269954D01*
X139784954Y-70430858D01*
X139654432Y-70617265D01*
X139654431Y-70617267D01*
X139627382Y-70675275D01*
X139581209Y-70727714D01*
X139514016Y-70746866D01*
X139447135Y-70726650D01*
X139402618Y-70675275D01*
X139375686Y-70617520D01*
X139375568Y-70617266D01*
X139245047Y-70430861D01*
X139245045Y-70430858D01*
X139084141Y-70269954D01*
X138897734Y-70139432D01*
X138897732Y-70139431D01*
X138691497Y-70043261D01*
X138691488Y-70043258D01*
X138471697Y-69984366D01*
X138471693Y-69984365D01*
X138471692Y-69984365D01*
X138471691Y-69984364D01*
X138471686Y-69984364D01*
X138245002Y-69964532D01*
X138244998Y-69964532D01*
X138018313Y-69984364D01*
X138018302Y-69984366D01*
X137798511Y-70043258D01*
X137798502Y-70043261D01*
X137592267Y-70139431D01*
X137592265Y-70139432D01*
X137405858Y-70269954D01*
X137244954Y-70430858D01*
X137114433Y-70617264D01*
X137114432Y-70617266D01*
X137114315Y-70617518D01*
X137087106Y-70675867D01*
X137040933Y-70728306D01*
X136973739Y-70747457D01*
X136906858Y-70727241D01*
X136862342Y-70675865D01*
X136835135Y-70617520D01*
X136835134Y-70617518D01*
X136704657Y-70431179D01*
X136543820Y-70270342D01*
X136357482Y-70139865D01*
X136151328Y-70043734D01*
X135955000Y-69991127D01*
X135955000Y-70836988D01*
X135897993Y-70804075D01*
X135770826Y-70770000D01*
X135639174Y-70770000D01*
X135512007Y-70804075D01*
X135455000Y-70836988D01*
X135455000Y-69991127D01*
X135258671Y-70043734D01*
X135052517Y-70139865D01*
X134866179Y-70270342D01*
X134705342Y-70431179D01*
X134574867Y-70617515D01*
X134547657Y-70675867D01*
X134501484Y-70728306D01*
X134434290Y-70747457D01*
X134367409Y-70727241D01*
X134322893Y-70675865D01*
X134295685Y-70617518D01*
X134295568Y-70617266D01*
X134165047Y-70430861D01*
X134165045Y-70430858D01*
X134004141Y-70269954D01*
X133817734Y-70139432D01*
X133817732Y-70139431D01*
X133611497Y-70043261D01*
X133611488Y-70043258D01*
X133391697Y-69984366D01*
X133391693Y-69984365D01*
X133391692Y-69984365D01*
X133391691Y-69984364D01*
X133391686Y-69984364D01*
X133165002Y-69964532D01*
X133164998Y-69964532D01*
X132938313Y-69984364D01*
X132938302Y-69984366D01*
X132718511Y-70043258D01*
X132718502Y-70043261D01*
X132512267Y-70139431D01*
X132512265Y-70139432D01*
X132325858Y-70269954D01*
X132164954Y-70430858D01*
X132034432Y-70617265D01*
X132034431Y-70617267D01*
X132007382Y-70675275D01*
X131961209Y-70727714D01*
X131894016Y-70746866D01*
X131827135Y-70726650D01*
X131782618Y-70675275D01*
X131755686Y-70617520D01*
X131755568Y-70617266D01*
X131625047Y-70430861D01*
X131625045Y-70430858D01*
X131464141Y-70269954D01*
X131277734Y-70139432D01*
X131277732Y-70139431D01*
X131071497Y-70043261D01*
X131071488Y-70043258D01*
X130851697Y-69984366D01*
X130851693Y-69984365D01*
X130851692Y-69984365D01*
X130851691Y-69984364D01*
X130851686Y-69984364D01*
X130625002Y-69964532D01*
X130624998Y-69964532D01*
X130398313Y-69984364D01*
X130398302Y-69984366D01*
X130178511Y-70043258D01*
X130178502Y-70043261D01*
X129972267Y-70139431D01*
X129972265Y-70139432D01*
X129785858Y-70269954D01*
X129624954Y-70430858D01*
X129494432Y-70617265D01*
X129494431Y-70617267D01*
X129467382Y-70675275D01*
X129421209Y-70727714D01*
X129354016Y-70746866D01*
X129287135Y-70726650D01*
X129242618Y-70675275D01*
X129215686Y-70617520D01*
X129215568Y-70617266D01*
X129085047Y-70430861D01*
X129085045Y-70430858D01*
X128924141Y-70269954D01*
X128737734Y-70139432D01*
X128737732Y-70139431D01*
X128531497Y-70043261D01*
X128531488Y-70043258D01*
X128311697Y-69984366D01*
X128311693Y-69984365D01*
X128311692Y-69984365D01*
X128311691Y-69984364D01*
X128311686Y-69984364D01*
X128085002Y-69964532D01*
X128084998Y-69964532D01*
X127858313Y-69984364D01*
X127858302Y-69984366D01*
X127638511Y-70043258D01*
X127638502Y-70043261D01*
X127432267Y-70139431D01*
X127432265Y-70139432D01*
X127245858Y-70269954D01*
X127084954Y-70430858D01*
X126954432Y-70617265D01*
X126954431Y-70617267D01*
X126858261Y-70823502D01*
X126858258Y-70823511D01*
X126799366Y-71043302D01*
X126799364Y-71043313D01*
X126779532Y-71269998D01*
X101800500Y-71269998D01*
X101800500Y-69602135D01*
X177849500Y-69602135D01*
X177849500Y-71397870D01*
X177849501Y-71397876D01*
X177855908Y-71457483D01*
X177906202Y-71592328D01*
X177906206Y-71592335D01*
X177992452Y-71707544D01*
X177992455Y-71707547D01*
X178107664Y-71793793D01*
X178107671Y-71793797D01*
X178242517Y-71844091D01*
X178242516Y-71844091D01*
X178249444Y-71844835D01*
X178302127Y-71850500D01*
X180097872Y-71850499D01*
X180157483Y-71844091D01*
X180292331Y-71793796D01*
X180407546Y-71707546D01*
X180493796Y-71592331D01*
X180544091Y-71457483D01*
X180550500Y-71397873D01*
X180550499Y-69602128D01*
X180544091Y-69542517D01*
X180493796Y-69407669D01*
X180493795Y-69407668D01*
X180493793Y-69407664D01*
X180407547Y-69292455D01*
X180407544Y-69292452D01*
X180292335Y-69206206D01*
X180292328Y-69206202D01*
X180157482Y-69155908D01*
X180157483Y-69155908D01*
X180097883Y-69149501D01*
X180097881Y-69149500D01*
X180097873Y-69149500D01*
X180097864Y-69149500D01*
X178302129Y-69149500D01*
X178302123Y-69149501D01*
X178242516Y-69155908D01*
X178107671Y-69206202D01*
X178107664Y-69206206D01*
X177992455Y-69292452D01*
X177992452Y-69292455D01*
X177906206Y-69407664D01*
X177906202Y-69407671D01*
X177855908Y-69542517D01*
X177849501Y-69602116D01*
X177849501Y-69602123D01*
X177849500Y-69602135D01*
X101800500Y-69602135D01*
X101800500Y-66350000D01*
X102794540Y-66350000D01*
X102814326Y-66538256D01*
X102814327Y-66538259D01*
X102872818Y-66718277D01*
X102872821Y-66718284D01*
X102967467Y-66882216D01*
X103018141Y-66938495D01*
X103094129Y-67022888D01*
X103247265Y-67134148D01*
X103247270Y-67134151D01*
X103420192Y-67211142D01*
X103420197Y-67211144D01*
X103605354Y-67250500D01*
X103605355Y-67250500D01*
X103794644Y-67250500D01*
X103794646Y-67250500D01*
X103979803Y-67211144D01*
X104152730Y-67134151D01*
X104305871Y-67022888D01*
X104432533Y-66882216D01*
X104527179Y-66718284D01*
X104585674Y-66538256D01*
X104605460Y-66350000D01*
X104585674Y-66161744D01*
X104527179Y-65981716D01*
X104432533Y-65817784D01*
X104305871Y-65677112D01*
X104305870Y-65677111D01*
X104152734Y-65565851D01*
X104152729Y-65565848D01*
X103979807Y-65488857D01*
X103979802Y-65488855D01*
X103834001Y-65457865D01*
X103794646Y-65449500D01*
X103605354Y-65449500D01*
X103572897Y-65456398D01*
X103420197Y-65488855D01*
X103420192Y-65488857D01*
X103247270Y-65565848D01*
X103247265Y-65565851D01*
X103094129Y-65677111D01*
X102967466Y-65817785D01*
X102872821Y-65981715D01*
X102872818Y-65981722D01*
X102818142Y-66150000D01*
X102814326Y-66161744D01*
X102794540Y-66350000D01*
X101800500Y-66350000D01*
X101800500Y-65002155D01*
X131850000Y-65002155D01*
X131850000Y-65650000D01*
X132766988Y-65650000D01*
X132734075Y-65707007D01*
X132700000Y-65834174D01*
X132700000Y-65965826D01*
X132734075Y-66092993D01*
X132766988Y-66150000D01*
X131850000Y-66150000D01*
X131850000Y-66797844D01*
X131856401Y-66857372D01*
X131856403Y-66857379D01*
X131906645Y-66992086D01*
X131906649Y-66992093D01*
X131992809Y-67107187D01*
X131992812Y-67107190D01*
X132107906Y-67193350D01*
X132107913Y-67193354D01*
X132242620Y-67243596D01*
X132242627Y-67243598D01*
X132302155Y-67249999D01*
X132302172Y-67250000D01*
X132950000Y-67250000D01*
X132950000Y-66333012D01*
X133007007Y-66365925D01*
X133134174Y-66400000D01*
X133265826Y-66400000D01*
X133392993Y-66365925D01*
X133450000Y-66333012D01*
X133450000Y-67250000D01*
X134097828Y-67250000D01*
X134097844Y-67249999D01*
X134157372Y-67243598D01*
X134157379Y-67243596D01*
X134292086Y-67193354D01*
X134292093Y-67193350D01*
X134407187Y-67107190D01*
X134407190Y-67107187D01*
X134493350Y-66992093D01*
X134493354Y-66992086D01*
X134542422Y-66860529D01*
X134584293Y-66804595D01*
X134649757Y-66780178D01*
X134718030Y-66795030D01*
X134746285Y-66816181D01*
X134868599Y-66938495D01*
X134965384Y-67006265D01*
X135062165Y-67074032D01*
X135062167Y-67074033D01*
X135062170Y-67074035D01*
X135276337Y-67173903D01*
X135504592Y-67235063D01*
X135681034Y-67250500D01*
X135739999Y-67255659D01*
X135740000Y-67255659D01*
X135740001Y-67255659D01*
X135798966Y-67250500D01*
X135975408Y-67235063D01*
X136203663Y-67173903D01*
X136417830Y-67074035D01*
X136611401Y-66938495D01*
X136778495Y-66771401D01*
X136908425Y-66585842D01*
X136963002Y-66542217D01*
X137032500Y-66535023D01*
X137094855Y-66566546D01*
X137111575Y-66585842D01*
X137241500Y-66771395D01*
X137241505Y-66771401D01*
X137408599Y-66938495D01*
X137505384Y-67006265D01*
X137602165Y-67074032D01*
X137602167Y-67074033D01*
X137602170Y-67074035D01*
X137816337Y-67173903D01*
X138044592Y-67235063D01*
X138221034Y-67250500D01*
X138279999Y-67255659D01*
X138280000Y-67255659D01*
X138280001Y-67255659D01*
X138338966Y-67250500D01*
X138515408Y-67235063D01*
X138743663Y-67173903D01*
X138957830Y-67074035D01*
X139151401Y-66938495D01*
X139318495Y-66771401D01*
X139448425Y-66585842D01*
X139503002Y-66542217D01*
X139572500Y-66535023D01*
X139634855Y-66566546D01*
X139651575Y-66585842D01*
X139781500Y-66771395D01*
X139781505Y-66771401D01*
X139948599Y-66938495D01*
X140045384Y-67006265D01*
X140142165Y-67074032D01*
X140142167Y-67074033D01*
X140142170Y-67074035D01*
X140356337Y-67173903D01*
X140584592Y-67235063D01*
X140761034Y-67250500D01*
X140819999Y-67255659D01*
X140820000Y-67255659D01*
X140820001Y-67255659D01*
X140878966Y-67250500D01*
X141055408Y-67235063D01*
X141283663Y-67173903D01*
X141497830Y-67074035D01*
X141691401Y-66938495D01*
X141858495Y-66771401D01*
X141988425Y-66585842D01*
X142043002Y-66542217D01*
X142112500Y-66535023D01*
X142174855Y-66566546D01*
X142191575Y-66585842D01*
X142321500Y-66771395D01*
X142321505Y-66771401D01*
X142488599Y-66938495D01*
X142585384Y-67006265D01*
X142682165Y-67074032D01*
X142682167Y-67074033D01*
X142682170Y-67074035D01*
X142896337Y-67173903D01*
X143124592Y-67235063D01*
X143301034Y-67250500D01*
X143359999Y-67255659D01*
X143360000Y-67255659D01*
X143360001Y-67255659D01*
X143418966Y-67250500D01*
X143595408Y-67235063D01*
X143823663Y-67173903D01*
X144037830Y-67074035D01*
X144231401Y-66938495D01*
X144398495Y-66771401D01*
X144528425Y-66585842D01*
X144583002Y-66542217D01*
X144652500Y-66535023D01*
X144714855Y-66566546D01*
X144731575Y-66585842D01*
X144861500Y-66771395D01*
X144861505Y-66771401D01*
X145028599Y-66938495D01*
X145125384Y-67006265D01*
X145222165Y-67074032D01*
X145222167Y-67074033D01*
X145222170Y-67074035D01*
X145436337Y-67173903D01*
X145664592Y-67235063D01*
X145841034Y-67250500D01*
X145899999Y-67255659D01*
X145900000Y-67255659D01*
X145900001Y-67255659D01*
X145958966Y-67250500D01*
X146135408Y-67235063D01*
X146363663Y-67173903D01*
X146577830Y-67074035D01*
X146771401Y-66938495D01*
X146938495Y-66771401D01*
X147074035Y-66577830D01*
X147173903Y-66363663D01*
X147235063Y-66135408D01*
X147255659Y-65900000D01*
X147255659Y-65899999D01*
X153644341Y-65899999D01*
X153644341Y-65900000D01*
X153664936Y-66135403D01*
X153664938Y-66135413D01*
X153726094Y-66363655D01*
X153726096Y-66363659D01*
X153726097Y-66363663D01*
X153806004Y-66535023D01*
X153825965Y-66577830D01*
X153825967Y-66577834D01*
X153924307Y-66718277D01*
X153961505Y-66771401D01*
X154128599Y-66938495D01*
X154225384Y-67006265D01*
X154322165Y-67074032D01*
X154322167Y-67074033D01*
X154322170Y-67074035D01*
X154536337Y-67173903D01*
X154764592Y-67235063D01*
X154941034Y-67250500D01*
X154999999Y-67255659D01*
X155000000Y-67255659D01*
X155000001Y-67255659D01*
X155058966Y-67250500D01*
X155235408Y-67235063D01*
X155463663Y-67173903D01*
X155677830Y-67074035D01*
X155871401Y-66938495D01*
X156038495Y-66771401D01*
X156168425Y-66585842D01*
X156223002Y-66542217D01*
X156292500Y-66535023D01*
X156354855Y-66566546D01*
X156371575Y-66585842D01*
X156501500Y-66771395D01*
X156501505Y-66771401D01*
X156668599Y-66938495D01*
X156765384Y-67006265D01*
X156862165Y-67074032D01*
X156862167Y-67074033D01*
X156862170Y-67074035D01*
X157076337Y-67173903D01*
X157304592Y-67235063D01*
X157481034Y-67250500D01*
X157539999Y-67255659D01*
X157540000Y-67255659D01*
X157540001Y-67255659D01*
X157598966Y-67250500D01*
X157775408Y-67235063D01*
X158003663Y-67173903D01*
X158217830Y-67074035D01*
X158411401Y-66938495D01*
X158578495Y-66771401D01*
X158708425Y-66585842D01*
X158763002Y-66542217D01*
X158832500Y-66535023D01*
X158894855Y-66566546D01*
X158911575Y-66585842D01*
X159041500Y-66771395D01*
X159041505Y-66771401D01*
X159208599Y-66938495D01*
X159305384Y-67006265D01*
X159402165Y-67074032D01*
X159402167Y-67074033D01*
X159402170Y-67074035D01*
X159616337Y-67173903D01*
X159844592Y-67235063D01*
X160021034Y-67250500D01*
X160079999Y-67255659D01*
X160080000Y-67255659D01*
X160080001Y-67255659D01*
X160138966Y-67250500D01*
X160315408Y-67235063D01*
X160543663Y-67173903D01*
X160757830Y-67074035D01*
X160951401Y-66938495D01*
X161118495Y-66771401D01*
X161248425Y-66585842D01*
X161303002Y-66542217D01*
X161372500Y-66535023D01*
X161434855Y-66566546D01*
X161451575Y-66585842D01*
X161581500Y-66771395D01*
X161581505Y-66771401D01*
X161748599Y-66938495D01*
X161845384Y-67006265D01*
X161942165Y-67074032D01*
X161942167Y-67074033D01*
X161942170Y-67074035D01*
X162156337Y-67173903D01*
X162384592Y-67235063D01*
X162561034Y-67250500D01*
X162619999Y-67255659D01*
X162620000Y-67255659D01*
X162620001Y-67255659D01*
X162678966Y-67250500D01*
X162855408Y-67235063D01*
X163083663Y-67173903D01*
X163297830Y-67074035D01*
X163491401Y-66938495D01*
X163658495Y-66771401D01*
X163788425Y-66585842D01*
X163843002Y-66542217D01*
X163912500Y-66535023D01*
X163974855Y-66566546D01*
X163991575Y-66585842D01*
X164121500Y-66771395D01*
X164121505Y-66771401D01*
X164288599Y-66938495D01*
X164385384Y-67006265D01*
X164482165Y-67074032D01*
X164482167Y-67074033D01*
X164482170Y-67074035D01*
X164696337Y-67173903D01*
X164924592Y-67235063D01*
X165101034Y-67250500D01*
X165159999Y-67255659D01*
X165160000Y-67255659D01*
X165160001Y-67255659D01*
X165218966Y-67250500D01*
X165395408Y-67235063D01*
X165623663Y-67173903D01*
X165837830Y-67074035D01*
X166031401Y-66938495D01*
X166198495Y-66771401D01*
X166328425Y-66585842D01*
X166383002Y-66542217D01*
X166452500Y-66535023D01*
X166514855Y-66566546D01*
X166531575Y-66585842D01*
X166661500Y-66771395D01*
X166661505Y-66771401D01*
X166828599Y-66938495D01*
X166925384Y-67006265D01*
X167022165Y-67074032D01*
X167022167Y-67074033D01*
X167022170Y-67074035D01*
X167236337Y-67173903D01*
X167464592Y-67235063D01*
X167641034Y-67250500D01*
X167699999Y-67255659D01*
X167700000Y-67255659D01*
X167700001Y-67255659D01*
X167758966Y-67250500D01*
X167935408Y-67235063D01*
X168163663Y-67173903D01*
X168377830Y-67074035D01*
X168571401Y-66938495D01*
X168738495Y-66771401D01*
X168868425Y-66585842D01*
X168923002Y-66542217D01*
X168992500Y-66535023D01*
X169054855Y-66566546D01*
X169071575Y-66585842D01*
X169201500Y-66771395D01*
X169201505Y-66771401D01*
X169368599Y-66938495D01*
X169465384Y-67006265D01*
X169562165Y-67074032D01*
X169562167Y-67074033D01*
X169562170Y-67074035D01*
X169776337Y-67173903D01*
X170004592Y-67235063D01*
X170181034Y-67250500D01*
X170239999Y-67255659D01*
X170240000Y-67255659D01*
X170240001Y-67255659D01*
X170298966Y-67250500D01*
X170475408Y-67235063D01*
X170703663Y-67173903D01*
X170917830Y-67074035D01*
X171111401Y-66938495D01*
X171233329Y-66816566D01*
X171294648Y-66783084D01*
X171364340Y-66788068D01*
X171420274Y-66829939D01*
X171437189Y-66860917D01*
X171486202Y-66992328D01*
X171486206Y-66992335D01*
X171572452Y-67107544D01*
X171572455Y-67107547D01*
X171687664Y-67193793D01*
X171687671Y-67193797D01*
X171822517Y-67244091D01*
X171822516Y-67244091D01*
X171829444Y-67244835D01*
X171882127Y-67250500D01*
X173677872Y-67250499D01*
X173737483Y-67244091D01*
X173872331Y-67193796D01*
X173987546Y-67107546D01*
X174073796Y-66992331D01*
X174124091Y-66857483D01*
X174130500Y-66797873D01*
X174130499Y-65002128D01*
X174124091Y-64942517D01*
X174122810Y-64939083D01*
X174073797Y-64807671D01*
X174073793Y-64807664D01*
X173987547Y-64692455D01*
X173987544Y-64692452D01*
X173872335Y-64606206D01*
X173872328Y-64606202D01*
X173737482Y-64555908D01*
X173737483Y-64555908D01*
X173677883Y-64549501D01*
X173677881Y-64549500D01*
X173677873Y-64549500D01*
X173677864Y-64549500D01*
X171882129Y-64549500D01*
X171882123Y-64549501D01*
X171822516Y-64555908D01*
X171687671Y-64606202D01*
X171687664Y-64606206D01*
X171572455Y-64692452D01*
X171572452Y-64692455D01*
X171486206Y-64807664D01*
X171486203Y-64807669D01*
X171437189Y-64939083D01*
X171395317Y-64995016D01*
X171329853Y-65019433D01*
X171261580Y-65004581D01*
X171233326Y-64983430D01*
X171111402Y-64861506D01*
X171111395Y-64861501D01*
X170917834Y-64725967D01*
X170917830Y-64725965D01*
X170846727Y-64692809D01*
X170703663Y-64626097D01*
X170703659Y-64626096D01*
X170703655Y-64626094D01*
X170475413Y-64564938D01*
X170475403Y-64564936D01*
X170240001Y-64544341D01*
X170239999Y-64544341D01*
X170004596Y-64564936D01*
X170004586Y-64564938D01*
X169776344Y-64626094D01*
X169776335Y-64626098D01*
X169562171Y-64725964D01*
X169562169Y-64725965D01*
X169368597Y-64861505D01*
X169201505Y-65028597D01*
X169071575Y-65214158D01*
X169016998Y-65257783D01*
X168947500Y-65264977D01*
X168885145Y-65233454D01*
X168868425Y-65214158D01*
X168738494Y-65028597D01*
X168571402Y-64861506D01*
X168571395Y-64861501D01*
X168377834Y-64725967D01*
X168377830Y-64725965D01*
X168306727Y-64692809D01*
X168163663Y-64626097D01*
X168163659Y-64626096D01*
X168163655Y-64626094D01*
X167935413Y-64564938D01*
X167935403Y-64564936D01*
X167700001Y-64544341D01*
X167699999Y-64544341D01*
X167464596Y-64564936D01*
X167464586Y-64564938D01*
X167236344Y-64626094D01*
X167236335Y-64626098D01*
X167022171Y-64725964D01*
X167022169Y-64725965D01*
X166828597Y-64861505D01*
X166661505Y-65028597D01*
X166531575Y-65214158D01*
X166476998Y-65257783D01*
X166407500Y-65264977D01*
X166345145Y-65233454D01*
X166328425Y-65214158D01*
X166198494Y-65028597D01*
X166031402Y-64861506D01*
X166031395Y-64861501D01*
X165837834Y-64725967D01*
X165837830Y-64725965D01*
X165766727Y-64692809D01*
X165623663Y-64626097D01*
X165623659Y-64626096D01*
X165623655Y-64626094D01*
X165395413Y-64564938D01*
X165395403Y-64564936D01*
X165160001Y-64544341D01*
X165159999Y-64544341D01*
X164924596Y-64564936D01*
X164924586Y-64564938D01*
X164696344Y-64626094D01*
X164696335Y-64626098D01*
X164482171Y-64725964D01*
X164482169Y-64725965D01*
X164288597Y-64861505D01*
X164121505Y-65028597D01*
X163991575Y-65214158D01*
X163936998Y-65257783D01*
X163867500Y-65264977D01*
X163805145Y-65233454D01*
X163788425Y-65214158D01*
X163658494Y-65028597D01*
X163491402Y-64861506D01*
X163491395Y-64861501D01*
X163297834Y-64725967D01*
X163297830Y-64725965D01*
X163226727Y-64692809D01*
X163083663Y-64626097D01*
X163083659Y-64626096D01*
X163083655Y-64626094D01*
X162855413Y-64564938D01*
X162855403Y-64564936D01*
X162620001Y-64544341D01*
X162619999Y-64544341D01*
X162384596Y-64564936D01*
X162384586Y-64564938D01*
X162156344Y-64626094D01*
X162156335Y-64626098D01*
X161942171Y-64725964D01*
X161942169Y-64725965D01*
X161748597Y-64861505D01*
X161581505Y-65028597D01*
X161451575Y-65214158D01*
X161396998Y-65257783D01*
X161327500Y-65264977D01*
X161265145Y-65233454D01*
X161248425Y-65214158D01*
X161118494Y-65028597D01*
X160951402Y-64861506D01*
X160951395Y-64861501D01*
X160757834Y-64725967D01*
X160757830Y-64725965D01*
X160686727Y-64692809D01*
X160543663Y-64626097D01*
X160543659Y-64626096D01*
X160543655Y-64626094D01*
X160315413Y-64564938D01*
X160315403Y-64564936D01*
X160080001Y-64544341D01*
X160079999Y-64544341D01*
X159844596Y-64564936D01*
X159844586Y-64564938D01*
X159616344Y-64626094D01*
X159616335Y-64626098D01*
X159402171Y-64725964D01*
X159402169Y-64725965D01*
X159208597Y-64861505D01*
X159041505Y-65028597D01*
X158911575Y-65214158D01*
X158856998Y-65257783D01*
X158787500Y-65264977D01*
X158725145Y-65233454D01*
X158708425Y-65214158D01*
X158578494Y-65028597D01*
X158411402Y-64861506D01*
X158411395Y-64861501D01*
X158217834Y-64725967D01*
X158217830Y-64725965D01*
X158146727Y-64692809D01*
X158003663Y-64626097D01*
X158003659Y-64626096D01*
X158003655Y-64626094D01*
X157775413Y-64564938D01*
X157775403Y-64564936D01*
X157540001Y-64544341D01*
X157539999Y-64544341D01*
X157304596Y-64564936D01*
X157304586Y-64564938D01*
X157076344Y-64626094D01*
X157076335Y-64626098D01*
X156862171Y-64725964D01*
X156862169Y-64725965D01*
X156668597Y-64861505D01*
X156501505Y-65028597D01*
X156371575Y-65214158D01*
X156316998Y-65257783D01*
X156247500Y-65264977D01*
X156185145Y-65233454D01*
X156168425Y-65214158D01*
X156038494Y-65028597D01*
X155871402Y-64861506D01*
X155871395Y-64861501D01*
X155677834Y-64725967D01*
X155677830Y-64725965D01*
X155606727Y-64692809D01*
X155463663Y-64626097D01*
X155463659Y-64626096D01*
X155463655Y-64626094D01*
X155235413Y-64564938D01*
X155235403Y-64564936D01*
X155000001Y-64544341D01*
X154999999Y-64544341D01*
X154764596Y-64564936D01*
X154764586Y-64564938D01*
X154536344Y-64626094D01*
X154536335Y-64626098D01*
X154322171Y-64725964D01*
X154322169Y-64725965D01*
X154128597Y-64861505D01*
X153961505Y-65028597D01*
X153825965Y-65222169D01*
X153825964Y-65222171D01*
X153726098Y-65436335D01*
X153726094Y-65436344D01*
X153664938Y-65664586D01*
X153664936Y-65664596D01*
X153644341Y-65899999D01*
X147255659Y-65899999D01*
X147235063Y-65664592D01*
X147173903Y-65436337D01*
X147074035Y-65222171D01*
X147068425Y-65214158D01*
X146938494Y-65028597D01*
X146771402Y-64861506D01*
X146771395Y-64861501D01*
X146577834Y-64725967D01*
X146577830Y-64725965D01*
X146506727Y-64692809D01*
X146363663Y-64626097D01*
X146363659Y-64626096D01*
X146363655Y-64626094D01*
X146135413Y-64564938D01*
X146135403Y-64564936D01*
X145900001Y-64544341D01*
X145899999Y-64544341D01*
X145664596Y-64564936D01*
X145664586Y-64564938D01*
X145436344Y-64626094D01*
X145436335Y-64626098D01*
X145222171Y-64725964D01*
X145222169Y-64725965D01*
X145028597Y-64861505D01*
X144861505Y-65028597D01*
X144731575Y-65214158D01*
X144676998Y-65257783D01*
X144607500Y-65264977D01*
X144545145Y-65233454D01*
X144528425Y-65214158D01*
X144398494Y-65028597D01*
X144231402Y-64861506D01*
X144231395Y-64861501D01*
X144037834Y-64725967D01*
X144037830Y-64725965D01*
X143966727Y-64692809D01*
X143823663Y-64626097D01*
X143823659Y-64626096D01*
X143823655Y-64626094D01*
X143595413Y-64564938D01*
X143595403Y-64564936D01*
X143360001Y-64544341D01*
X143359999Y-64544341D01*
X143124596Y-64564936D01*
X143124586Y-64564938D01*
X142896344Y-64626094D01*
X142896335Y-64626098D01*
X142682171Y-64725964D01*
X142682169Y-64725965D01*
X142488597Y-64861505D01*
X142321505Y-65028597D01*
X142191575Y-65214158D01*
X142136998Y-65257783D01*
X142067500Y-65264977D01*
X142005145Y-65233454D01*
X141988425Y-65214158D01*
X141858494Y-65028597D01*
X141691402Y-64861506D01*
X141691395Y-64861501D01*
X141497834Y-64725967D01*
X141497830Y-64725965D01*
X141426727Y-64692809D01*
X141283663Y-64626097D01*
X141283659Y-64626096D01*
X141283655Y-64626094D01*
X141055413Y-64564938D01*
X141055403Y-64564936D01*
X140820001Y-64544341D01*
X140819999Y-64544341D01*
X140584596Y-64564936D01*
X140584586Y-64564938D01*
X140356344Y-64626094D01*
X140356335Y-64626098D01*
X140142171Y-64725964D01*
X140142169Y-64725965D01*
X139948597Y-64861505D01*
X139781505Y-65028597D01*
X139651575Y-65214158D01*
X139596998Y-65257783D01*
X139527500Y-65264977D01*
X139465145Y-65233454D01*
X139448425Y-65214158D01*
X139318494Y-65028597D01*
X139151402Y-64861506D01*
X139151395Y-64861501D01*
X138957834Y-64725967D01*
X138957830Y-64725965D01*
X138886727Y-64692809D01*
X138743663Y-64626097D01*
X138743659Y-64626096D01*
X138743655Y-64626094D01*
X138515413Y-64564938D01*
X138515403Y-64564936D01*
X138280001Y-64544341D01*
X138279999Y-64544341D01*
X138044596Y-64564936D01*
X138044586Y-64564938D01*
X137816344Y-64626094D01*
X137816335Y-64626098D01*
X137602171Y-64725964D01*
X137602169Y-64725965D01*
X137408597Y-64861505D01*
X137241505Y-65028597D01*
X137111575Y-65214158D01*
X137056998Y-65257783D01*
X136987500Y-65264977D01*
X136925145Y-65233454D01*
X136908425Y-65214158D01*
X136778494Y-65028597D01*
X136611402Y-64861506D01*
X136611395Y-64861501D01*
X136417834Y-64725967D01*
X136417830Y-64725965D01*
X136346727Y-64692809D01*
X136203663Y-64626097D01*
X136203659Y-64626096D01*
X136203655Y-64626094D01*
X135975413Y-64564938D01*
X135975403Y-64564936D01*
X135740001Y-64544341D01*
X135739999Y-64544341D01*
X135504596Y-64564936D01*
X135504586Y-64564938D01*
X135276344Y-64626094D01*
X135276335Y-64626098D01*
X135062171Y-64725964D01*
X135062169Y-64725965D01*
X134868600Y-64861503D01*
X134746284Y-64983819D01*
X134684961Y-65017303D01*
X134615269Y-65012319D01*
X134559336Y-64970447D01*
X134542421Y-64939470D01*
X134493354Y-64807913D01*
X134493350Y-64807906D01*
X134407190Y-64692812D01*
X134407187Y-64692809D01*
X134292093Y-64606649D01*
X134292086Y-64606645D01*
X134157379Y-64556403D01*
X134157372Y-64556401D01*
X134097844Y-64550000D01*
X133450000Y-64550000D01*
X133450000Y-65466988D01*
X133392993Y-65434075D01*
X133265826Y-65400000D01*
X133134174Y-65400000D01*
X133007007Y-65434075D01*
X132950000Y-65466988D01*
X132950000Y-64550000D01*
X132302155Y-64550000D01*
X132242627Y-64556401D01*
X132242620Y-64556403D01*
X132107913Y-64606645D01*
X132107906Y-64606649D01*
X131992812Y-64692809D01*
X131992809Y-64692812D01*
X131906649Y-64807906D01*
X131906645Y-64807913D01*
X131856403Y-64942620D01*
X131856401Y-64942627D01*
X131850000Y-65002155D01*
X101800500Y-65002155D01*
X101800500Y-63424500D01*
X101820185Y-63357461D01*
X101872989Y-63311706D01*
X101924500Y-63300500D01*
X183175500Y-63300500D01*
X183242539Y-63320185D01*
G37*
%TD.AperFunction*%
%TD*%
M02*
