M48
; DRILL file {KiCad 8.0.4} date 2024-11-27T12:35:52+0100
; FORMAT={-:-/ absolute / inch / decimal}
; #@! TF.CreationDate,2024-11-27T12:35:52+01:00
; #@! TF.GenerationSoftware,Kicad,Pcbnew,8.0.4
; #@! TF.FileFunction,Plated,1,4,PTH
FMAT,2
INCH
; #@! TA.AperFunction,Plated,PTH,ViaDrill
T1C0.0118
; #@! TA.AperFunction,Plated,PTH,ViaDrill
T2C0.0197
; #@! TA.AperFunction,Plated,PTH,ComponentDrill
T3C0.0374
; #@! TA.AperFunction,Plated,PTH,ComponentDrill
T4C0.0394
%
G90
G05
T1
X4.6063Y-3.815
X4.6181Y-2.8937
X4.6978Y-4.2087
X4.7165Y-3.2874
X4.8789Y-4.3543
X4.9055Y-3.4055
X5.0787Y-4.2756
X5.0945Y-3.2835
X5.2835Y-3.9528
X5.2953Y-4.2638
X5.3071Y-3.3701
X5.4409Y-2.9843
X5.4882Y-4.3386
X5.4921Y-4.0551
X5.5157Y-3.4409
X5.5197Y-3.1654
X5.7638Y-3.9055
X5.7717Y-4.4094
X5.7795Y-3.5236
X5.7835Y-3.0
X5.9606Y-3.9764
X5.9606Y-4.3937
X5.9803Y-3.4961
X5.9882Y-3.0669
X6.372Y-3.2972
X6.3976Y-4.0433
T2
X4.0827Y-2.6122
X4.124Y-4.6004
X4.5079Y-3.8071
X4.5276Y-2.9173
X4.7874Y-3.0748
X4.8976Y-3.9213
X5.2362Y-2.9213
X5.311Y-3.8307
X5.8425Y-4.1811
X5.8701Y-3.3189
X6.3425Y-4.1304
X6.3425Y-4.2795
X6.3504Y-3.3976
X6.3509Y-3.2121
X6.7598Y-4.2165
X6.8819Y-3.2165
T3
X4.2205Y-3.9882
X4.2205Y-4.0866
X4.2205Y-4.185
X4.252Y-3.0709
X4.252Y-3.1693
X4.252Y-3.2677
X6.5669Y-3.0354
X6.5748Y-3.9094
X6.6654Y-3.0354
X6.6732Y-3.9094
X6.7638Y-3.0354
X6.7717Y-3.9094
T4
X4.1811Y-3.5758
X4.1811Y-3.6758
X4.6821Y-4.3173
X4.6821Y-4.4173
X4.6821Y-4.5173
X4.7018Y-3.3809
X4.7018Y-3.4809
X4.7018Y-3.5809
X4.7264Y-2.8967
X4.7313Y-3.8179
X4.7821Y-4.3173
X4.7821Y-4.4173
X4.7821Y-4.5173
X4.8018Y-3.3809
X4.8018Y-3.4809
X4.8018Y-3.5809
X4.8264Y-2.8967
X4.8313Y-3.8179
X5.0427Y-2.8059
X5.1427Y-2.8059
X5.1772Y-4.2764
X5.1772Y-4.3764
X5.1772Y-4.4764
X5.189Y-3.3346
X5.189Y-3.4346
X5.189Y-3.5346
X5.2427Y-2.8059
X5.2441Y-2.5945
X5.3427Y-2.8059
X5.3441Y-2.5945
X5.4026Y-4.7059
X5.4427Y-2.8059
X5.4441Y-2.5945
X5.5026Y-4.7059
X5.5427Y-2.8059
X5.5441Y-2.5945
X5.6026Y-4.7059
X5.6427Y-2.8059
X5.6441Y-2.5945
X5.7026Y-4.7059
X5.7427Y-2.8059
X5.7441Y-2.5945
X5.8026Y-4.7059
X5.8427Y-2.8059
X5.9026Y-4.7059
X5.9427Y-2.8059
X6.0026Y-4.7059
X6.1024Y-2.5945
X6.1026Y-2.8059
X6.1026Y-4.7059
X6.2024Y-2.5945
X6.2026Y-2.8059
X6.3024Y-2.5945
X6.3026Y-2.8059
X6.3026Y-4.7059
X6.4024Y-2.5945
X6.4026Y-2.8059
X6.4026Y-4.7059
X6.5024Y-2.5945
X6.5026Y-2.8059
X6.5026Y-4.7059
X6.6024Y-2.5945
X6.6026Y-2.8059
X6.6026Y-4.7059
X6.6742Y-3.6575
X6.7024Y-2.5945
X6.7026Y-2.8059
X6.7026Y-4.7059
X6.7742Y-3.6575
X6.8024Y-2.5945
X6.8026Y-2.8059
X6.8026Y-4.7059
X6.811Y-4.4921
X7.0551Y-2.7756
M30
