%TF.GenerationSoftware,KiCad,Pcbnew,8.0.4*%
%TF.CreationDate,2024-11-27T12:35:37+01:00*%
%TF.ProjectId,Filtre_V2_FPGA_SMD-SMH_LD,46696c74-7265-45f5-9632-5f465047415f,rev?*%
%TF.SameCoordinates,Original*%
%TF.FileFunction,Paste,Top*%
%TF.FilePolarity,Positive*%
%FSLAX46Y46*%
G04 Gerber Fmt 4.6, Leading zero omitted, Abs format (unit mm)*
G04 Created by KiCad (PCBNEW 8.0.4) date 2024-11-27 12:35:37*
%MOMM*%
%LPD*%
G01*
G04 APERTURE LIST*
G04 Aperture macros list*
%AMRoundRect*
0 Rectangle with rounded corners*
0 $1 Rounding radius*
0 $2 $3 $4 $5 $6 $7 $8 $9 X,Y pos of 4 corners*
0 Add a 4 corners polygon primitive as box body*
4,1,4,$2,$3,$4,$5,$6,$7,$8,$9,$2,$3,0*
0 Add four circle primitives for the rounded corners*
1,1,$1+$1,$2,$3*
1,1,$1+$1,$4,$5*
1,1,$1+$1,$6,$7*
1,1,$1+$1,$8,$9*
0 Add four rect primitives between the rounded corners*
20,1,$1+$1,$2,$3,$4,$5,0*
20,1,$1+$1,$4,$5,$6,$7,0*
20,1,$1+$1,$6,$7,$8,$9,0*
20,1,$1+$1,$8,$9,$2,$3,0*%
G04 Aperture macros list end*
%ADD10RoundRect,0.250000X-0.475000X0.250000X-0.475000X-0.250000X0.475000X-0.250000X0.475000X0.250000X0*%
%ADD11RoundRect,0.250000X-0.250000X-0.475000X0.250000X-0.475000X0.250000X0.475000X-0.250000X0.475000X0*%
%ADD12RoundRect,0.250000X-0.450000X0.262500X-0.450000X-0.262500X0.450000X-0.262500X0.450000X0.262500X0*%
%ADD13RoundRect,0.250000X-0.262500X-0.450000X0.262500X-0.450000X0.262500X0.450000X-0.262500X0.450000X0*%
%ADD14RoundRect,0.250000X0.450000X-0.262500X0.450000X0.262500X-0.450000X0.262500X-0.450000X-0.262500X0*%
%ADD15R,3.500000X1.600000*%
%ADD16RoundRect,0.150000X-0.825000X-0.150000X0.825000X-0.150000X0.825000X0.150000X-0.825000X0.150000X0*%
%ADD17RoundRect,0.250000X0.262500X0.450000X-0.262500X0.450000X-0.262500X-0.450000X0.262500X-0.450000X0*%
%ADD18R,1.600000X2.600000*%
%ADD19RoundRect,0.250000X0.475000X-0.250000X0.475000X0.250000X-0.475000X0.250000X-0.475000X-0.250000X0*%
G04 APERTURE END LIST*
D10*
%TO.C,C25*%
X155200000Y-103050000D03*
X155200000Y-104950000D03*
%TD*%
D11*
%TO.C,C27*%
X176950000Y-115300000D03*
X178850000Y-115300000D03*
%TD*%
%TO.C,C14*%
X177050000Y-89100000D03*
X178950000Y-89100000D03*
%TD*%
D12*
%TO.C,R1*%
X115000000Y-75875000D03*
X115000000Y-77700000D03*
%TD*%
D11*
%TO.C,C8*%
X141650000Y-89100000D03*
X143550000Y-89100000D03*
%TD*%
D13*
%TO.C,R21*%
X126187500Y-85000000D03*
X128012500Y-85000000D03*
%TD*%
%TO.C,R38*%
X152687500Y-113400000D03*
X154512500Y-113400000D03*
%TD*%
D12*
%TO.C,R29*%
X114525000Y-107287500D03*
X114525000Y-109112500D03*
%TD*%
D13*
%TO.C,R33*%
X140887500Y-108300000D03*
X142712500Y-108300000D03*
%TD*%
D11*
%TO.C,C22*%
X147950000Y-113400000D03*
X149850000Y-113400000D03*
%TD*%
D14*
%TO.C,R14*%
X159100000Y-86612500D03*
X159100000Y-84787500D03*
%TD*%
D12*
%TO.C,R45*%
X158600000Y-98787500D03*
X158600000Y-100612500D03*
%TD*%
D13*
%TO.C,R24*%
X177187500Y-78700000D03*
X179012500Y-78700000D03*
%TD*%
D15*
%TO.C,C1*%
X108300000Y-116850000D03*
X113900000Y-116850000D03*
%TD*%
D14*
%TO.C,R39*%
X158600000Y-109312500D03*
X158600000Y-107487500D03*
%TD*%
D11*
%TO.C,C12*%
X148850000Y-76300000D03*
X150750000Y-76300000D03*
%TD*%
D13*
%TO.C,R47*%
X176987500Y-108500000D03*
X178812500Y-108500000D03*
%TD*%
D14*
%TO.C,R44*%
X158600000Y-113712500D03*
X158600000Y-111887500D03*
%TD*%
D12*
%TO.C,R42*%
X127075000Y-102087500D03*
X127075000Y-103912500D03*
%TD*%
%TO.C,R15*%
X159100000Y-80187500D03*
X159100000Y-82012500D03*
%TD*%
D13*
%TO.C,R22*%
X126187500Y-88400000D03*
X128012500Y-88400000D03*
%TD*%
D16*
%TO.C,U3*%
X168525000Y-83995000D03*
X168525000Y-85265000D03*
X168525000Y-86535000D03*
X168525000Y-87805000D03*
X173475000Y-87805000D03*
X173475000Y-86535000D03*
X173475000Y-85265000D03*
X173475000Y-83995000D03*
%TD*%
D13*
%TO.C,R31*%
X140987500Y-104900000D03*
X142812500Y-104900000D03*
%TD*%
D11*
%TO.C,C17*%
X136050000Y-111800000D03*
X137950000Y-111800000D03*
%TD*%
%TO.C,C15*%
X177250000Y-75200000D03*
X179150000Y-75200000D03*
%TD*%
D13*
%TO.C,R10*%
X153887500Y-76300000D03*
X155712500Y-76300000D03*
%TD*%
%TO.C,R4*%
X163387500Y-90800000D03*
X165212500Y-90800000D03*
%TD*%
D11*
%TO.C,C19*%
X141050000Y-101500000D03*
X142950000Y-101500000D03*
%TD*%
D12*
%TO.C,R12*%
X131000000Y-74187500D03*
X131000000Y-76012500D03*
%TD*%
D16*
%TO.C,U5*%
X146425000Y-102390000D03*
X146425000Y-103660000D03*
X146425000Y-104930000D03*
X146425000Y-106200000D03*
X146425000Y-107470000D03*
X146425000Y-108740000D03*
X146425000Y-110010000D03*
X151375000Y-110010000D03*
X151375000Y-108740000D03*
X151375000Y-107470000D03*
X151375000Y-106200000D03*
X151375000Y-104930000D03*
X151375000Y-103660000D03*
X151375000Y-102390000D03*
%TD*%
D13*
%TO.C,R43*%
X177087500Y-98300000D03*
X178912500Y-98300000D03*
%TD*%
D11*
%TO.C,C6*%
X113150000Y-80587500D03*
X115050000Y-80587500D03*
%TD*%
D13*
%TO.C,R23*%
X177187500Y-82100000D03*
X179012500Y-82100000D03*
%TD*%
%TO.C,R13*%
X153687500Y-90400000D03*
X155512500Y-90400000D03*
%TD*%
D12*
%TO.C,R19*%
X159100000Y-75687500D03*
X159100000Y-77512500D03*
%TD*%
D11*
%TO.C,C24*%
X148350000Y-99200000D03*
X150250000Y-99200000D03*
%TD*%
D17*
%TO.C,R2*%
X165212500Y-87500000D03*
X163387500Y-87500000D03*
%TD*%
D13*
%TO.C,R8*%
X141687500Y-85500000D03*
X143512500Y-85500000D03*
%TD*%
D12*
%TO.C,R3*%
X115000000Y-83787500D03*
X115000000Y-85612500D03*
%TD*%
D18*
%TO.C,C2*%
X113000000Y-66400000D03*
X113000000Y-70000000D03*
%TD*%
D11*
%TO.C,C20*%
X140750000Y-111800000D03*
X142650000Y-111800000D03*
%TD*%
D13*
%TO.C,R32*%
X136187500Y-108300000D03*
X138012500Y-108300000D03*
%TD*%
D12*
%TO.C,R37*%
X130625000Y-97287500D03*
X130625000Y-99112500D03*
%TD*%
D10*
%TO.C,C9*%
X127500000Y-74150000D03*
X127500000Y-76050000D03*
%TD*%
D13*
%TO.C,R5*%
X137087500Y-82200000D03*
X138912500Y-82200000D03*
%TD*%
%TO.C,R34*%
X163387500Y-106100000D03*
X165212500Y-106100000D03*
%TD*%
D19*
%TO.C,C11*%
X155800000Y-86650000D03*
X155800000Y-84750000D03*
%TD*%
D11*
%TO.C,C18*%
X112575000Y-103800000D03*
X114475000Y-103800000D03*
%TD*%
D13*
%TO.C,R20*%
X177087500Y-92500000D03*
X178912500Y-92500000D03*
%TD*%
D14*
%TO.C,R18*%
X159100000Y-91112500D03*
X159100000Y-89287500D03*
%TD*%
D10*
%TO.C,C3*%
X106700000Y-66300000D03*
X106700000Y-68200000D03*
%TD*%
D11*
%TO.C,C5*%
X136650000Y-89200000D03*
X138550000Y-89200000D03*
%TD*%
D13*
%TO.C,R46*%
X125512500Y-108900000D03*
X127337500Y-108900000D03*
%TD*%
D12*
%TO.C,R16*%
X127500000Y-78887500D03*
X127500000Y-80712500D03*
%TD*%
D10*
%TO.C,C21*%
X127125000Y-97150000D03*
X127125000Y-99050000D03*
%TD*%
D13*
%TO.C,R6*%
X141687500Y-82200000D03*
X143512500Y-82200000D03*
%TD*%
D11*
%TO.C,C16*%
X136150000Y-101500000D03*
X138050000Y-101500000D03*
%TD*%
D13*
%TO.C,R28*%
X163387500Y-112900000D03*
X165212500Y-112900000D03*
%TD*%
D12*
%TO.C,R40*%
X158600000Y-103087500D03*
X158600000Y-104912500D03*
%TD*%
D10*
%TO.C,C13*%
X155600000Y-80250000D03*
X155600000Y-82150000D03*
%TD*%
D13*
%TO.C,R17*%
X177087500Y-85600000D03*
X178912500Y-85600000D03*
%TD*%
%TO.C,R30*%
X136187500Y-104900000D03*
X138012500Y-104900000D03*
%TD*%
%TO.C,R41*%
X177087500Y-105200000D03*
X178912500Y-105200000D03*
%TD*%
D16*
%TO.C,U6*%
X168625000Y-105895000D03*
X168625000Y-107165000D03*
X168625000Y-108435000D03*
X168625000Y-109705000D03*
X173575000Y-109705000D03*
X173575000Y-108435000D03*
X173575000Y-107165000D03*
X173575000Y-105895000D03*
%TD*%
D13*
%TO.C,R25*%
X126287500Y-91700000D03*
X128112500Y-91700000D03*
%TD*%
D12*
%TO.C,R27*%
X114525000Y-98687500D03*
X114525000Y-100512500D03*
%TD*%
D11*
%TO.C,C10*%
X148750000Y-90400000D03*
X150650000Y-90400000D03*
%TD*%
D13*
%TO.C,R35*%
X153100000Y-99200000D03*
X154925000Y-99200000D03*
%TD*%
D14*
%TO.C,R11*%
X131000000Y-80712500D03*
X131000000Y-78887500D03*
%TD*%
D11*
%TO.C,C26*%
X177050000Y-101700000D03*
X178950000Y-101700000D03*
%TD*%
D19*
%TO.C,C23*%
X155100000Y-109350000D03*
X155100000Y-107450000D03*
%TD*%
D16*
%TO.C,U2*%
X147125000Y-79590000D03*
X147125000Y-80860000D03*
X147125000Y-82130000D03*
X147125000Y-83400000D03*
X147125000Y-84670000D03*
X147125000Y-85940000D03*
X147125000Y-87210000D03*
X152075000Y-87210000D03*
X152075000Y-85940000D03*
X152075000Y-84670000D03*
X152075000Y-83400000D03*
X152075000Y-82130000D03*
X152075000Y-80860000D03*
X152075000Y-79590000D03*
%TD*%
D13*
%TO.C,R48*%
X176987500Y-111900000D03*
X178812500Y-111900000D03*
%TD*%
D16*
%TO.C,U4*%
X118450000Y-101295000D03*
X118450000Y-102565000D03*
X118450000Y-103835000D03*
X118450000Y-105105000D03*
X123400000Y-105105000D03*
X123400000Y-103835000D03*
X123400000Y-102565000D03*
X123400000Y-101295000D03*
%TD*%
D11*
%TO.C,C4*%
X137150000Y-78700000D03*
X139050000Y-78700000D03*
%TD*%
D13*
%TO.C,R7*%
X136787500Y-85700000D03*
X138612500Y-85700000D03*
%TD*%
D14*
%TO.C,R36*%
X130625000Y-103912500D03*
X130625000Y-102087500D03*
%TD*%
D13*
%TO.C,R9*%
X163412500Y-84105000D03*
X165237500Y-84105000D03*
%TD*%
D16*
%TO.C,U1*%
X118825000Y-78095000D03*
X118825000Y-79365000D03*
X118825000Y-80635000D03*
X118825000Y-81905000D03*
X123775000Y-81905000D03*
X123775000Y-80635000D03*
X123775000Y-79365000D03*
X123775000Y-78095000D03*
%TD*%
D17*
%TO.C,R26*%
X165212500Y-109500000D03*
X163387500Y-109500000D03*
%TD*%
D13*
%TO.C,R49*%
X125512500Y-112200000D03*
X127337500Y-112200000D03*
%TD*%
%TO.C,R50*%
X125512500Y-115400000D03*
X127337500Y-115400000D03*
%TD*%
D11*
%TO.C,C7*%
X141750000Y-78700000D03*
X143650000Y-78700000D03*
%TD*%
M02*
