M48
; DRILL file {KiCad 9.0.2} date 2025-08-29T05:40:13+0200
; FORMAT={-:-/ absolute / metric / decimal}
; #@! TF.CreationDate,2025-08-29T05:40:13+02:00
; #@! TF.GenerationSoftware,Kicad,Pcbnew,9.0.2
; #@! TF.FileFunction,Plated,1,4,PTH
FMAT,2
METRIC
; #@! TA.AperFunction,Plated,PTH,ViaDrill
T1C0.400
%
G90
G05
T1
X138.0Y-84.0
X138.0Y-87.0
X138.0Y-90.0
X138.0Y-93.0
X138.0Y-96.0
X138.0Y-99.0
X138.0Y-102.0
X139.0Y-82.0
X141.0Y-102.0
X141.7Y-85.3
X141.7Y-90.6
X142.0Y-82.0
X142.0Y-93.0
X144.0Y-102.0
X144.6Y-95.4
X144.991Y-75.0
X145.0Y-81.0
X145.056Y-77.979
X147.0Y-102.0
X148.0Y-75.0
X148.3Y-95.5
X148.4Y-82.3
X150.0Y-92.0
X150.0Y-102.0
X150.9Y-87.5
X151.0Y-75.0
X151.0Y-77.8
X153.0Y-102.0
X154.0Y-75.0
X156.0Y-102.0
X157.0Y-75.0
X159.0Y-102.0
X160.0Y-75.0
X162.0Y-102.0
X162.6Y-78.84
X162.6Y-89.94
X162.6Y-96.5
X163.0Y-75.0
X165.0Y-102.0
X166.0Y-75.0
X166.162Y-80.7
X168.0Y-102.0
X169.0Y-75.0
X169.5Y-86.402
X169.6Y-88.402
X171.0Y-102.0
X172.0Y-75.0
X172.5Y-92.6
X174.0Y-102.0
X175.0Y-75.0
X175.262Y-80.7
X177.0Y-102.0
X178.0Y-75.0
X180.0Y-102.0
X181.0Y-75.0
X183.0Y-76.0
X183.0Y-79.0
X183.0Y-82.0
X183.0Y-96.0
X183.0Y-99.0
X183.0Y-102.0
X186.0Y-82.0
X186.0Y-95.0
X189.0Y-82.0
X189.0Y-95.0
X190.0Y-84.0
X190.0Y-87.0
X190.0Y-90.0
X190.0Y-93.0
M30
