%TF.GenerationSoftware,KiCad,Pcbnew,9.0.2*%
%TF.CreationDate,2025-08-29T05:40:04+02:00*%
%TF.ProjectId,Microphone_OCTAV,4d696372-6f70-4686-9f6e-655f4f435441,rev?*%
%TF.SameCoordinates,Original*%
%TF.FileFunction,Legend,Bot*%
%TF.FilePolarity,Positive*%
%FSLAX46Y46*%
G04 Gerber Fmt 4.6, Leading zero omitted, Abs format (unit mm)*
G04 Created by KiCad (PCBNEW 9.0.2) date 2025-08-29 05:40:04*
%MOMM*%
%LPD*%
G01*
G04 APERTURE LIST*
%ADD10C,0.100000*%
%ADD11C,0.150000*%
%ADD12C,0.300000*%
%ADD13C,0.400000*%
%ADD14C,0.508000*%
%ADD15C,0.000000*%
G04 APERTURE END LIST*
D10*
D11*
X177002200Y-166007200D02*
X285002200Y-166007200D01*
X285002200Y-198007200D01*
X177002200Y-198007200D01*
X177002200Y-166007200D01*
D10*
D11*
X10000000Y-10000000D02*
X287002200Y-10000000D01*
X287002200Y-200007200D01*
X10000000Y-200007200D01*
X10000000Y-10000000D01*
D10*
D11*
X12000000Y-12000000D02*
X285002200Y-12000000D01*
X285002200Y-198007200D01*
X12000000Y-198007200D01*
X12000000Y-12000000D01*
D10*
D11*
X60000000Y-12000000D02*
X60000000Y-10000000D01*
D10*
D11*
X110000000Y-12000000D02*
X110000000Y-10000000D01*
D10*
D11*
X160000000Y-12000000D02*
X160000000Y-10000000D01*
D10*
D11*
X210000000Y-12000000D02*
X210000000Y-10000000D01*
D10*
D11*
X260000000Y-12000000D02*
X260000000Y-10000000D01*
D10*
D11*
X36089160Y-11593604D02*
X35346303Y-11593604D01*
X35717731Y-11593604D02*
X35717731Y-10293604D01*
X35717731Y-10293604D02*
X35593922Y-10479319D01*
X35593922Y-10479319D02*
X35470112Y-10603128D01*
X35470112Y-10603128D02*
X35346303Y-10665033D01*
D10*
D11*
X85346303Y-10417414D02*
X85408207Y-10355509D01*
X85408207Y-10355509D02*
X85532017Y-10293604D01*
X85532017Y-10293604D02*
X85841541Y-10293604D01*
X85841541Y-10293604D02*
X85965350Y-10355509D01*
X85965350Y-10355509D02*
X86027255Y-10417414D01*
X86027255Y-10417414D02*
X86089160Y-10541223D01*
X86089160Y-10541223D02*
X86089160Y-10665033D01*
X86089160Y-10665033D02*
X86027255Y-10850747D01*
X86027255Y-10850747D02*
X85284398Y-11593604D01*
X85284398Y-11593604D02*
X86089160Y-11593604D01*
D10*
D11*
X135284398Y-10293604D02*
X136089160Y-10293604D01*
X136089160Y-10293604D02*
X135655826Y-10788842D01*
X135655826Y-10788842D02*
X135841541Y-10788842D01*
X135841541Y-10788842D02*
X135965350Y-10850747D01*
X135965350Y-10850747D02*
X136027255Y-10912652D01*
X136027255Y-10912652D02*
X136089160Y-11036461D01*
X136089160Y-11036461D02*
X136089160Y-11345985D01*
X136089160Y-11345985D02*
X136027255Y-11469795D01*
X136027255Y-11469795D02*
X135965350Y-11531700D01*
X135965350Y-11531700D02*
X135841541Y-11593604D01*
X135841541Y-11593604D02*
X135470112Y-11593604D01*
X135470112Y-11593604D02*
X135346303Y-11531700D01*
X135346303Y-11531700D02*
X135284398Y-11469795D01*
D10*
D11*
X185965350Y-10726938D02*
X185965350Y-11593604D01*
X185655826Y-10231700D02*
X185346303Y-11160271D01*
X185346303Y-11160271D02*
X186151064Y-11160271D01*
D10*
D11*
X236027255Y-10293604D02*
X235408207Y-10293604D01*
X235408207Y-10293604D02*
X235346303Y-10912652D01*
X235346303Y-10912652D02*
X235408207Y-10850747D01*
X235408207Y-10850747D02*
X235532017Y-10788842D01*
X235532017Y-10788842D02*
X235841541Y-10788842D01*
X235841541Y-10788842D02*
X235965350Y-10850747D01*
X235965350Y-10850747D02*
X236027255Y-10912652D01*
X236027255Y-10912652D02*
X236089160Y-11036461D01*
X236089160Y-11036461D02*
X236089160Y-11345985D01*
X236089160Y-11345985D02*
X236027255Y-11469795D01*
X236027255Y-11469795D02*
X235965350Y-11531700D01*
X235965350Y-11531700D02*
X235841541Y-11593604D01*
X235841541Y-11593604D02*
X235532017Y-11593604D01*
X235532017Y-11593604D02*
X235408207Y-11531700D01*
X235408207Y-11531700D02*
X235346303Y-11469795D01*
D10*
D11*
X285965350Y-10293604D02*
X285717731Y-10293604D01*
X285717731Y-10293604D02*
X285593922Y-10355509D01*
X285593922Y-10355509D02*
X285532017Y-10417414D01*
X285532017Y-10417414D02*
X285408207Y-10603128D01*
X285408207Y-10603128D02*
X285346303Y-10850747D01*
X285346303Y-10850747D02*
X285346303Y-11345985D01*
X285346303Y-11345985D02*
X285408207Y-11469795D01*
X285408207Y-11469795D02*
X285470112Y-11531700D01*
X285470112Y-11531700D02*
X285593922Y-11593604D01*
X285593922Y-11593604D02*
X285841541Y-11593604D01*
X285841541Y-11593604D02*
X285965350Y-11531700D01*
X285965350Y-11531700D02*
X286027255Y-11469795D01*
X286027255Y-11469795D02*
X286089160Y-11345985D01*
X286089160Y-11345985D02*
X286089160Y-11036461D01*
X286089160Y-11036461D02*
X286027255Y-10912652D01*
X286027255Y-10912652D02*
X285965350Y-10850747D01*
X285965350Y-10850747D02*
X285841541Y-10788842D01*
X285841541Y-10788842D02*
X285593922Y-10788842D01*
X285593922Y-10788842D02*
X285470112Y-10850747D01*
X285470112Y-10850747D02*
X285408207Y-10912652D01*
X285408207Y-10912652D02*
X285346303Y-11036461D01*
D10*
D11*
X60000000Y-198007200D02*
X60000000Y-200007200D01*
D10*
D11*
X110000000Y-198007200D02*
X110000000Y-200007200D01*
D10*
D11*
X160000000Y-198007200D02*
X160000000Y-200007200D01*
D10*
D11*
X210000000Y-198007200D02*
X210000000Y-200007200D01*
D10*
D11*
X260000000Y-198007200D02*
X260000000Y-200007200D01*
D10*
D11*
X36089160Y-199600804D02*
X35346303Y-199600804D01*
X35717731Y-199600804D02*
X35717731Y-198300804D01*
X35717731Y-198300804D02*
X35593922Y-198486519D01*
X35593922Y-198486519D02*
X35470112Y-198610328D01*
X35470112Y-198610328D02*
X35346303Y-198672233D01*
D10*
D11*
X85346303Y-198424614D02*
X85408207Y-198362709D01*
X85408207Y-198362709D02*
X85532017Y-198300804D01*
X85532017Y-198300804D02*
X85841541Y-198300804D01*
X85841541Y-198300804D02*
X85965350Y-198362709D01*
X85965350Y-198362709D02*
X86027255Y-198424614D01*
X86027255Y-198424614D02*
X86089160Y-198548423D01*
X86089160Y-198548423D02*
X86089160Y-198672233D01*
X86089160Y-198672233D02*
X86027255Y-198857947D01*
X86027255Y-198857947D02*
X85284398Y-199600804D01*
X85284398Y-199600804D02*
X86089160Y-199600804D01*
D10*
D11*
X135284398Y-198300804D02*
X136089160Y-198300804D01*
X136089160Y-198300804D02*
X135655826Y-198796042D01*
X135655826Y-198796042D02*
X135841541Y-198796042D01*
X135841541Y-198796042D02*
X135965350Y-198857947D01*
X135965350Y-198857947D02*
X136027255Y-198919852D01*
X136027255Y-198919852D02*
X136089160Y-199043661D01*
X136089160Y-199043661D02*
X136089160Y-199353185D01*
X136089160Y-199353185D02*
X136027255Y-199476995D01*
X136027255Y-199476995D02*
X135965350Y-199538900D01*
X135965350Y-199538900D02*
X135841541Y-199600804D01*
X135841541Y-199600804D02*
X135470112Y-199600804D01*
X135470112Y-199600804D02*
X135346303Y-199538900D01*
X135346303Y-199538900D02*
X135284398Y-199476995D01*
D10*
D11*
X185965350Y-198734138D02*
X185965350Y-199600804D01*
X185655826Y-198238900D02*
X185346303Y-199167471D01*
X185346303Y-199167471D02*
X186151064Y-199167471D01*
D10*
D11*
X236027255Y-198300804D02*
X235408207Y-198300804D01*
X235408207Y-198300804D02*
X235346303Y-198919852D01*
X235346303Y-198919852D02*
X235408207Y-198857947D01*
X235408207Y-198857947D02*
X235532017Y-198796042D01*
X235532017Y-198796042D02*
X235841541Y-198796042D01*
X235841541Y-198796042D02*
X235965350Y-198857947D01*
X235965350Y-198857947D02*
X236027255Y-198919852D01*
X236027255Y-198919852D02*
X236089160Y-199043661D01*
X236089160Y-199043661D02*
X236089160Y-199353185D01*
X236089160Y-199353185D02*
X236027255Y-199476995D01*
X236027255Y-199476995D02*
X235965350Y-199538900D01*
X235965350Y-199538900D02*
X235841541Y-199600804D01*
X235841541Y-199600804D02*
X235532017Y-199600804D01*
X235532017Y-199600804D02*
X235408207Y-199538900D01*
X235408207Y-199538900D02*
X235346303Y-199476995D01*
D10*
D11*
X285965350Y-198300804D02*
X285717731Y-198300804D01*
X285717731Y-198300804D02*
X285593922Y-198362709D01*
X285593922Y-198362709D02*
X285532017Y-198424614D01*
X285532017Y-198424614D02*
X285408207Y-198610328D01*
X285408207Y-198610328D02*
X285346303Y-198857947D01*
X285346303Y-198857947D02*
X285346303Y-199353185D01*
X285346303Y-199353185D02*
X285408207Y-199476995D01*
X285408207Y-199476995D02*
X285470112Y-199538900D01*
X285470112Y-199538900D02*
X285593922Y-199600804D01*
X285593922Y-199600804D02*
X285841541Y-199600804D01*
X285841541Y-199600804D02*
X285965350Y-199538900D01*
X285965350Y-199538900D02*
X286027255Y-199476995D01*
X286027255Y-199476995D02*
X286089160Y-199353185D01*
X286089160Y-199353185D02*
X286089160Y-199043661D01*
X286089160Y-199043661D02*
X286027255Y-198919852D01*
X286027255Y-198919852D02*
X285965350Y-198857947D01*
X285965350Y-198857947D02*
X285841541Y-198796042D01*
X285841541Y-198796042D02*
X285593922Y-198796042D01*
X285593922Y-198796042D02*
X285470112Y-198857947D01*
X285470112Y-198857947D02*
X285408207Y-198919852D01*
X285408207Y-198919852D02*
X285346303Y-199043661D01*
D10*
D11*
X10000000Y-60000000D02*
X12000000Y-60000000D01*
D10*
D11*
X10000000Y-110000000D02*
X12000000Y-110000000D01*
D10*
D11*
X10000000Y-160000000D02*
X12000000Y-160000000D01*
D10*
D11*
X10690476Y-35222176D02*
X11309523Y-35222176D01*
X10566666Y-35593604D02*
X10999999Y-34293604D01*
X10999999Y-34293604D02*
X11433333Y-35593604D01*
D10*
D11*
X11092857Y-84912652D02*
X11278571Y-84974557D01*
X11278571Y-84974557D02*
X11340476Y-85036461D01*
X11340476Y-85036461D02*
X11402380Y-85160271D01*
X11402380Y-85160271D02*
X11402380Y-85345985D01*
X11402380Y-85345985D02*
X11340476Y-85469795D01*
X11340476Y-85469795D02*
X11278571Y-85531700D01*
X11278571Y-85531700D02*
X11154761Y-85593604D01*
X11154761Y-85593604D02*
X10659523Y-85593604D01*
X10659523Y-85593604D02*
X10659523Y-84293604D01*
X10659523Y-84293604D02*
X11092857Y-84293604D01*
X11092857Y-84293604D02*
X11216666Y-84355509D01*
X11216666Y-84355509D02*
X11278571Y-84417414D01*
X11278571Y-84417414D02*
X11340476Y-84541223D01*
X11340476Y-84541223D02*
X11340476Y-84665033D01*
X11340476Y-84665033D02*
X11278571Y-84788842D01*
X11278571Y-84788842D02*
X11216666Y-84850747D01*
X11216666Y-84850747D02*
X11092857Y-84912652D01*
X11092857Y-84912652D02*
X10659523Y-84912652D01*
D10*
D11*
X11402380Y-135469795D02*
X11340476Y-135531700D01*
X11340476Y-135531700D02*
X11154761Y-135593604D01*
X11154761Y-135593604D02*
X11030952Y-135593604D01*
X11030952Y-135593604D02*
X10845238Y-135531700D01*
X10845238Y-135531700D02*
X10721428Y-135407890D01*
X10721428Y-135407890D02*
X10659523Y-135284080D01*
X10659523Y-135284080D02*
X10597619Y-135036461D01*
X10597619Y-135036461D02*
X10597619Y-134850747D01*
X10597619Y-134850747D02*
X10659523Y-134603128D01*
X10659523Y-134603128D02*
X10721428Y-134479319D01*
X10721428Y-134479319D02*
X10845238Y-134355509D01*
X10845238Y-134355509D02*
X11030952Y-134293604D01*
X11030952Y-134293604D02*
X11154761Y-134293604D01*
X11154761Y-134293604D02*
X11340476Y-134355509D01*
X11340476Y-134355509D02*
X11402380Y-134417414D01*
D10*
D11*
X10659523Y-185593604D02*
X10659523Y-184293604D01*
X10659523Y-184293604D02*
X10969047Y-184293604D01*
X10969047Y-184293604D02*
X11154761Y-184355509D01*
X11154761Y-184355509D02*
X11278571Y-184479319D01*
X11278571Y-184479319D02*
X11340476Y-184603128D01*
X11340476Y-184603128D02*
X11402380Y-184850747D01*
X11402380Y-184850747D02*
X11402380Y-185036461D01*
X11402380Y-185036461D02*
X11340476Y-185284080D01*
X11340476Y-185284080D02*
X11278571Y-185407890D01*
X11278571Y-185407890D02*
X11154761Y-185531700D01*
X11154761Y-185531700D02*
X10969047Y-185593604D01*
X10969047Y-185593604D02*
X10659523Y-185593604D01*
D10*
D11*
X287002200Y-60000000D02*
X285002200Y-60000000D01*
D10*
D11*
X287002200Y-110000000D02*
X285002200Y-110000000D01*
D10*
D11*
X287002200Y-160000000D02*
X285002200Y-160000000D01*
D10*
D11*
X285692676Y-35222176D02*
X286311723Y-35222176D01*
X285568866Y-35593604D02*
X286002199Y-34293604D01*
X286002199Y-34293604D02*
X286435533Y-35593604D01*
D10*
D11*
X286095057Y-84912652D02*
X286280771Y-84974557D01*
X286280771Y-84974557D02*
X286342676Y-85036461D01*
X286342676Y-85036461D02*
X286404580Y-85160271D01*
X286404580Y-85160271D02*
X286404580Y-85345985D01*
X286404580Y-85345985D02*
X286342676Y-85469795D01*
X286342676Y-85469795D02*
X286280771Y-85531700D01*
X286280771Y-85531700D02*
X286156961Y-85593604D01*
X286156961Y-85593604D02*
X285661723Y-85593604D01*
X285661723Y-85593604D02*
X285661723Y-84293604D01*
X285661723Y-84293604D02*
X286095057Y-84293604D01*
X286095057Y-84293604D02*
X286218866Y-84355509D01*
X286218866Y-84355509D02*
X286280771Y-84417414D01*
X286280771Y-84417414D02*
X286342676Y-84541223D01*
X286342676Y-84541223D02*
X286342676Y-84665033D01*
X286342676Y-84665033D02*
X286280771Y-84788842D01*
X286280771Y-84788842D02*
X286218866Y-84850747D01*
X286218866Y-84850747D02*
X286095057Y-84912652D01*
X286095057Y-84912652D02*
X285661723Y-84912652D01*
D10*
D11*
X286404580Y-135469795D02*
X286342676Y-135531700D01*
X286342676Y-135531700D02*
X286156961Y-135593604D01*
X286156961Y-135593604D02*
X286033152Y-135593604D01*
X286033152Y-135593604D02*
X285847438Y-135531700D01*
X285847438Y-135531700D02*
X285723628Y-135407890D01*
X285723628Y-135407890D02*
X285661723Y-135284080D01*
X285661723Y-135284080D02*
X285599819Y-135036461D01*
X285599819Y-135036461D02*
X285599819Y-134850747D01*
X285599819Y-134850747D02*
X285661723Y-134603128D01*
X285661723Y-134603128D02*
X285723628Y-134479319D01*
X285723628Y-134479319D02*
X285847438Y-134355509D01*
X285847438Y-134355509D02*
X286033152Y-134293604D01*
X286033152Y-134293604D02*
X286156961Y-134293604D01*
X286156961Y-134293604D02*
X286342676Y-134355509D01*
X286342676Y-134355509D02*
X286404580Y-134417414D01*
D10*
D11*
X285661723Y-185593604D02*
X285661723Y-184293604D01*
X285661723Y-184293604D02*
X285971247Y-184293604D01*
X285971247Y-184293604D02*
X286156961Y-184355509D01*
X286156961Y-184355509D02*
X286280771Y-184479319D01*
X286280771Y-184479319D02*
X286342676Y-184603128D01*
X286342676Y-184603128D02*
X286404580Y-184850747D01*
X286404580Y-184850747D02*
X286404580Y-185036461D01*
X286404580Y-185036461D02*
X286342676Y-185284080D01*
X286342676Y-185284080D02*
X286280771Y-185407890D01*
X286280771Y-185407890D02*
X286156961Y-185531700D01*
X286156961Y-185531700D02*
X285971247Y-185593604D01*
X285971247Y-185593604D02*
X285661723Y-185593604D01*
D10*
D11*
X200458026Y-193793328D02*
X200458026Y-192293328D01*
X200458026Y-192293328D02*
X200815169Y-192293328D01*
X200815169Y-192293328D02*
X201029455Y-192364757D01*
X201029455Y-192364757D02*
X201172312Y-192507614D01*
X201172312Y-192507614D02*
X201243741Y-192650471D01*
X201243741Y-192650471D02*
X201315169Y-192936185D01*
X201315169Y-192936185D02*
X201315169Y-193150471D01*
X201315169Y-193150471D02*
X201243741Y-193436185D01*
X201243741Y-193436185D02*
X201172312Y-193579042D01*
X201172312Y-193579042D02*
X201029455Y-193721900D01*
X201029455Y-193721900D02*
X200815169Y-193793328D01*
X200815169Y-193793328D02*
X200458026Y-193793328D01*
X202600884Y-193793328D02*
X202600884Y-193007614D01*
X202600884Y-193007614D02*
X202529455Y-192864757D01*
X202529455Y-192864757D02*
X202386598Y-192793328D01*
X202386598Y-192793328D02*
X202100884Y-192793328D01*
X202100884Y-192793328D02*
X201958026Y-192864757D01*
X202600884Y-193721900D02*
X202458026Y-193793328D01*
X202458026Y-193793328D02*
X202100884Y-193793328D01*
X202100884Y-193793328D02*
X201958026Y-193721900D01*
X201958026Y-193721900D02*
X201886598Y-193579042D01*
X201886598Y-193579042D02*
X201886598Y-193436185D01*
X201886598Y-193436185D02*
X201958026Y-193293328D01*
X201958026Y-193293328D02*
X202100884Y-193221900D01*
X202100884Y-193221900D02*
X202458026Y-193221900D01*
X202458026Y-193221900D02*
X202600884Y-193150471D01*
X203100884Y-192793328D02*
X203672312Y-192793328D01*
X203315169Y-192293328D02*
X203315169Y-193579042D01*
X203315169Y-193579042D02*
X203386598Y-193721900D01*
X203386598Y-193721900D02*
X203529455Y-193793328D01*
X203529455Y-193793328D02*
X203672312Y-193793328D01*
X204743741Y-193721900D02*
X204600884Y-193793328D01*
X204600884Y-193793328D02*
X204315170Y-193793328D01*
X204315170Y-193793328D02*
X204172312Y-193721900D01*
X204172312Y-193721900D02*
X204100884Y-193579042D01*
X204100884Y-193579042D02*
X204100884Y-193007614D01*
X204100884Y-193007614D02*
X204172312Y-192864757D01*
X204172312Y-192864757D02*
X204315170Y-192793328D01*
X204315170Y-192793328D02*
X204600884Y-192793328D01*
X204600884Y-192793328D02*
X204743741Y-192864757D01*
X204743741Y-192864757D02*
X204815170Y-193007614D01*
X204815170Y-193007614D02*
X204815170Y-193150471D01*
X204815170Y-193150471D02*
X204100884Y-193293328D01*
X205458026Y-193650471D02*
X205529455Y-193721900D01*
X205529455Y-193721900D02*
X205458026Y-193793328D01*
X205458026Y-193793328D02*
X205386598Y-193721900D01*
X205386598Y-193721900D02*
X205458026Y-193650471D01*
X205458026Y-193650471D02*
X205458026Y-193793328D01*
X205458026Y-192864757D02*
X205529455Y-192936185D01*
X205529455Y-192936185D02*
X205458026Y-193007614D01*
X205458026Y-193007614D02*
X205386598Y-192936185D01*
X205386598Y-192936185D02*
X205458026Y-192864757D01*
X205458026Y-192864757D02*
X205458026Y-193007614D01*
D10*
D11*
X177002200Y-194507200D02*
X285002200Y-194507200D01*
D10*
D11*
X178458026Y-196593328D02*
X178458026Y-195093328D01*
X179315169Y-196593328D02*
X178672312Y-195736185D01*
X179315169Y-195093328D02*
X178458026Y-195950471D01*
X179958026Y-196593328D02*
X179958026Y-195593328D01*
X179958026Y-195093328D02*
X179886598Y-195164757D01*
X179886598Y-195164757D02*
X179958026Y-195236185D01*
X179958026Y-195236185D02*
X180029455Y-195164757D01*
X180029455Y-195164757D02*
X179958026Y-195093328D01*
X179958026Y-195093328D02*
X179958026Y-195236185D01*
X181529455Y-196450471D02*
X181458027Y-196521900D01*
X181458027Y-196521900D02*
X181243741Y-196593328D01*
X181243741Y-196593328D02*
X181100884Y-196593328D01*
X181100884Y-196593328D02*
X180886598Y-196521900D01*
X180886598Y-196521900D02*
X180743741Y-196379042D01*
X180743741Y-196379042D02*
X180672312Y-196236185D01*
X180672312Y-196236185D02*
X180600884Y-195950471D01*
X180600884Y-195950471D02*
X180600884Y-195736185D01*
X180600884Y-195736185D02*
X180672312Y-195450471D01*
X180672312Y-195450471D02*
X180743741Y-195307614D01*
X180743741Y-195307614D02*
X180886598Y-195164757D01*
X180886598Y-195164757D02*
X181100884Y-195093328D01*
X181100884Y-195093328D02*
X181243741Y-195093328D01*
X181243741Y-195093328D02*
X181458027Y-195164757D01*
X181458027Y-195164757D02*
X181529455Y-195236185D01*
X182815170Y-196593328D02*
X182815170Y-195807614D01*
X182815170Y-195807614D02*
X182743741Y-195664757D01*
X182743741Y-195664757D02*
X182600884Y-195593328D01*
X182600884Y-195593328D02*
X182315170Y-195593328D01*
X182315170Y-195593328D02*
X182172312Y-195664757D01*
X182815170Y-196521900D02*
X182672312Y-196593328D01*
X182672312Y-196593328D02*
X182315170Y-196593328D01*
X182315170Y-196593328D02*
X182172312Y-196521900D01*
X182172312Y-196521900D02*
X182100884Y-196379042D01*
X182100884Y-196379042D02*
X182100884Y-196236185D01*
X182100884Y-196236185D02*
X182172312Y-196093328D01*
X182172312Y-196093328D02*
X182315170Y-196021900D01*
X182315170Y-196021900D02*
X182672312Y-196021900D01*
X182672312Y-196021900D02*
X182815170Y-195950471D01*
X184172313Y-196593328D02*
X184172313Y-195093328D01*
X184172313Y-196521900D02*
X184029455Y-196593328D01*
X184029455Y-196593328D02*
X183743741Y-196593328D01*
X183743741Y-196593328D02*
X183600884Y-196521900D01*
X183600884Y-196521900D02*
X183529455Y-196450471D01*
X183529455Y-196450471D02*
X183458027Y-196307614D01*
X183458027Y-196307614D02*
X183458027Y-195879042D01*
X183458027Y-195879042D02*
X183529455Y-195736185D01*
X183529455Y-195736185D02*
X183600884Y-195664757D01*
X183600884Y-195664757D02*
X183743741Y-195593328D01*
X183743741Y-195593328D02*
X184029455Y-195593328D01*
X184029455Y-195593328D02*
X184172313Y-195664757D01*
X186029455Y-195807614D02*
X186529455Y-195807614D01*
X186743741Y-196593328D02*
X186029455Y-196593328D01*
X186029455Y-196593328D02*
X186029455Y-195093328D01*
X186029455Y-195093328D02*
X186743741Y-195093328D01*
X187386598Y-196450471D02*
X187458027Y-196521900D01*
X187458027Y-196521900D02*
X187386598Y-196593328D01*
X187386598Y-196593328D02*
X187315170Y-196521900D01*
X187315170Y-196521900D02*
X187386598Y-196450471D01*
X187386598Y-196450471D02*
X187386598Y-196593328D01*
X188100884Y-196593328D02*
X188100884Y-195093328D01*
X188100884Y-195093328D02*
X188458027Y-195093328D01*
X188458027Y-195093328D02*
X188672313Y-195164757D01*
X188672313Y-195164757D02*
X188815170Y-195307614D01*
X188815170Y-195307614D02*
X188886599Y-195450471D01*
X188886599Y-195450471D02*
X188958027Y-195736185D01*
X188958027Y-195736185D02*
X188958027Y-195950471D01*
X188958027Y-195950471D02*
X188886599Y-196236185D01*
X188886599Y-196236185D02*
X188815170Y-196379042D01*
X188815170Y-196379042D02*
X188672313Y-196521900D01*
X188672313Y-196521900D02*
X188458027Y-196593328D01*
X188458027Y-196593328D02*
X188100884Y-196593328D01*
X189600884Y-196450471D02*
X189672313Y-196521900D01*
X189672313Y-196521900D02*
X189600884Y-196593328D01*
X189600884Y-196593328D02*
X189529456Y-196521900D01*
X189529456Y-196521900D02*
X189600884Y-196450471D01*
X189600884Y-196450471D02*
X189600884Y-196593328D01*
X190243742Y-196164757D02*
X190958028Y-196164757D01*
X190100885Y-196593328D02*
X190600885Y-195093328D01*
X190600885Y-195093328D02*
X191100885Y-196593328D01*
X191600884Y-196450471D02*
X191672313Y-196521900D01*
X191672313Y-196521900D02*
X191600884Y-196593328D01*
X191600884Y-196593328D02*
X191529456Y-196521900D01*
X191529456Y-196521900D02*
X191600884Y-196450471D01*
X191600884Y-196450471D02*
X191600884Y-196593328D01*
X193529456Y-196593328D02*
X193815170Y-196593328D01*
X193815170Y-196593328D02*
X193958027Y-196521900D01*
X193958027Y-196521900D02*
X194029456Y-196450471D01*
X194029456Y-196450471D02*
X194172313Y-196236185D01*
X194172313Y-196236185D02*
X194243742Y-195950471D01*
X194243742Y-195950471D02*
X194243742Y-195379042D01*
X194243742Y-195379042D02*
X194172313Y-195236185D01*
X194172313Y-195236185D02*
X194100885Y-195164757D01*
X194100885Y-195164757D02*
X193958027Y-195093328D01*
X193958027Y-195093328D02*
X193672313Y-195093328D01*
X193672313Y-195093328D02*
X193529456Y-195164757D01*
X193529456Y-195164757D02*
X193458027Y-195236185D01*
X193458027Y-195236185D02*
X193386599Y-195379042D01*
X193386599Y-195379042D02*
X193386599Y-195736185D01*
X193386599Y-195736185D02*
X193458027Y-195879042D01*
X193458027Y-195879042D02*
X193529456Y-195950471D01*
X193529456Y-195950471D02*
X193672313Y-196021900D01*
X193672313Y-196021900D02*
X193958027Y-196021900D01*
X193958027Y-196021900D02*
X194100885Y-195950471D01*
X194100885Y-195950471D02*
X194172313Y-195879042D01*
X194172313Y-195879042D02*
X194243742Y-195736185D01*
X194886598Y-196450471D02*
X194958027Y-196521900D01*
X194958027Y-196521900D02*
X194886598Y-196593328D01*
X194886598Y-196593328D02*
X194815170Y-196521900D01*
X194815170Y-196521900D02*
X194886598Y-196450471D01*
X194886598Y-196450471D02*
X194886598Y-196593328D01*
X195886599Y-195093328D02*
X196029456Y-195093328D01*
X196029456Y-195093328D02*
X196172313Y-195164757D01*
X196172313Y-195164757D02*
X196243742Y-195236185D01*
X196243742Y-195236185D02*
X196315170Y-195379042D01*
X196315170Y-195379042D02*
X196386599Y-195664757D01*
X196386599Y-195664757D02*
X196386599Y-196021900D01*
X196386599Y-196021900D02*
X196315170Y-196307614D01*
X196315170Y-196307614D02*
X196243742Y-196450471D01*
X196243742Y-196450471D02*
X196172313Y-196521900D01*
X196172313Y-196521900D02*
X196029456Y-196593328D01*
X196029456Y-196593328D02*
X195886599Y-196593328D01*
X195886599Y-196593328D02*
X195743742Y-196521900D01*
X195743742Y-196521900D02*
X195672313Y-196450471D01*
X195672313Y-196450471D02*
X195600884Y-196307614D01*
X195600884Y-196307614D02*
X195529456Y-196021900D01*
X195529456Y-196021900D02*
X195529456Y-195664757D01*
X195529456Y-195664757D02*
X195600884Y-195379042D01*
X195600884Y-195379042D02*
X195672313Y-195236185D01*
X195672313Y-195236185D02*
X195743742Y-195164757D01*
X195743742Y-195164757D02*
X195886599Y-195093328D01*
X197029455Y-196450471D02*
X197100884Y-196521900D01*
X197100884Y-196521900D02*
X197029455Y-196593328D01*
X197029455Y-196593328D02*
X196958027Y-196521900D01*
X196958027Y-196521900D02*
X197029455Y-196450471D01*
X197029455Y-196450471D02*
X197029455Y-196593328D01*
X197672313Y-195236185D02*
X197743741Y-195164757D01*
X197743741Y-195164757D02*
X197886599Y-195093328D01*
X197886599Y-195093328D02*
X198243741Y-195093328D01*
X198243741Y-195093328D02*
X198386599Y-195164757D01*
X198386599Y-195164757D02*
X198458027Y-195236185D01*
X198458027Y-195236185D02*
X198529456Y-195379042D01*
X198529456Y-195379042D02*
X198529456Y-195521900D01*
X198529456Y-195521900D02*
X198458027Y-195736185D01*
X198458027Y-195736185D02*
X197600884Y-196593328D01*
X197600884Y-196593328D02*
X198529456Y-196593328D01*
D10*
D11*
X177002200Y-191507200D02*
X285002200Y-191507200D01*
D10*
D12*
X264413853Y-193785528D02*
X263913853Y-193071242D01*
X263556710Y-193785528D02*
X263556710Y-192285528D01*
X263556710Y-192285528D02*
X264128139Y-192285528D01*
X264128139Y-192285528D02*
X264270996Y-192356957D01*
X264270996Y-192356957D02*
X264342425Y-192428385D01*
X264342425Y-192428385D02*
X264413853Y-192571242D01*
X264413853Y-192571242D02*
X264413853Y-192785528D01*
X264413853Y-192785528D02*
X264342425Y-192928385D01*
X264342425Y-192928385D02*
X264270996Y-192999814D01*
X264270996Y-192999814D02*
X264128139Y-193071242D01*
X264128139Y-193071242D02*
X263556710Y-193071242D01*
X265628139Y-193714100D02*
X265485282Y-193785528D01*
X265485282Y-193785528D02*
X265199568Y-193785528D01*
X265199568Y-193785528D02*
X265056710Y-193714100D01*
X265056710Y-193714100D02*
X264985282Y-193571242D01*
X264985282Y-193571242D02*
X264985282Y-192999814D01*
X264985282Y-192999814D02*
X265056710Y-192856957D01*
X265056710Y-192856957D02*
X265199568Y-192785528D01*
X265199568Y-192785528D02*
X265485282Y-192785528D01*
X265485282Y-192785528D02*
X265628139Y-192856957D01*
X265628139Y-192856957D02*
X265699568Y-192999814D01*
X265699568Y-192999814D02*
X265699568Y-193142671D01*
X265699568Y-193142671D02*
X264985282Y-193285528D01*
X266199567Y-192785528D02*
X266556710Y-193785528D01*
X266556710Y-193785528D02*
X266913853Y-192785528D01*
X267485281Y-193642671D02*
X267556710Y-193714100D01*
X267556710Y-193714100D02*
X267485281Y-193785528D01*
X267485281Y-193785528D02*
X267413853Y-193714100D01*
X267413853Y-193714100D02*
X267485281Y-193642671D01*
X267485281Y-193642671D02*
X267485281Y-193785528D01*
X267485281Y-192856957D02*
X267556710Y-192928385D01*
X267556710Y-192928385D02*
X267485281Y-192999814D01*
X267485281Y-192999814D02*
X267413853Y-192928385D01*
X267413853Y-192928385D02*
X267485281Y-192856957D01*
X267485281Y-192856957D02*
X267485281Y-192999814D01*
D10*
D11*
X178386598Y-193721900D02*
X178600884Y-193793328D01*
X178600884Y-193793328D02*
X178958026Y-193793328D01*
X178958026Y-193793328D02*
X179100884Y-193721900D01*
X179100884Y-193721900D02*
X179172312Y-193650471D01*
X179172312Y-193650471D02*
X179243741Y-193507614D01*
X179243741Y-193507614D02*
X179243741Y-193364757D01*
X179243741Y-193364757D02*
X179172312Y-193221900D01*
X179172312Y-193221900D02*
X179100884Y-193150471D01*
X179100884Y-193150471D02*
X178958026Y-193079042D01*
X178958026Y-193079042D02*
X178672312Y-193007614D01*
X178672312Y-193007614D02*
X178529455Y-192936185D01*
X178529455Y-192936185D02*
X178458026Y-192864757D01*
X178458026Y-192864757D02*
X178386598Y-192721900D01*
X178386598Y-192721900D02*
X178386598Y-192579042D01*
X178386598Y-192579042D02*
X178458026Y-192436185D01*
X178458026Y-192436185D02*
X178529455Y-192364757D01*
X178529455Y-192364757D02*
X178672312Y-192293328D01*
X178672312Y-192293328D02*
X179029455Y-192293328D01*
X179029455Y-192293328D02*
X179243741Y-192364757D01*
X179886597Y-193793328D02*
X179886597Y-192793328D01*
X179886597Y-192293328D02*
X179815169Y-192364757D01*
X179815169Y-192364757D02*
X179886597Y-192436185D01*
X179886597Y-192436185D02*
X179958026Y-192364757D01*
X179958026Y-192364757D02*
X179886597Y-192293328D01*
X179886597Y-192293328D02*
X179886597Y-192436185D01*
X180458026Y-192793328D02*
X181243741Y-192793328D01*
X181243741Y-192793328D02*
X180458026Y-193793328D01*
X180458026Y-193793328D02*
X181243741Y-193793328D01*
X182386598Y-193721900D02*
X182243741Y-193793328D01*
X182243741Y-193793328D02*
X181958027Y-193793328D01*
X181958027Y-193793328D02*
X181815169Y-193721900D01*
X181815169Y-193721900D02*
X181743741Y-193579042D01*
X181743741Y-193579042D02*
X181743741Y-193007614D01*
X181743741Y-193007614D02*
X181815169Y-192864757D01*
X181815169Y-192864757D02*
X181958027Y-192793328D01*
X181958027Y-192793328D02*
X182243741Y-192793328D01*
X182243741Y-192793328D02*
X182386598Y-192864757D01*
X182386598Y-192864757D02*
X182458027Y-193007614D01*
X182458027Y-193007614D02*
X182458027Y-193150471D01*
X182458027Y-193150471D02*
X181743741Y-193293328D01*
X183100883Y-193650471D02*
X183172312Y-193721900D01*
X183172312Y-193721900D02*
X183100883Y-193793328D01*
X183100883Y-193793328D02*
X183029455Y-193721900D01*
X183029455Y-193721900D02*
X183100883Y-193650471D01*
X183100883Y-193650471D02*
X183100883Y-193793328D01*
X183100883Y-192864757D02*
X183172312Y-192936185D01*
X183172312Y-192936185D02*
X183100883Y-193007614D01*
X183100883Y-193007614D02*
X183029455Y-192936185D01*
X183029455Y-192936185D02*
X183100883Y-192864757D01*
X183100883Y-192864757D02*
X183100883Y-193007614D01*
X184886598Y-193364757D02*
X185600884Y-193364757D01*
X184743741Y-193793328D02*
X185243741Y-192293328D01*
X185243741Y-192293328D02*
X185743741Y-193793328D01*
X186886598Y-192793328D02*
X186886598Y-193793328D01*
X186529455Y-192221900D02*
X186172312Y-193293328D01*
X186172312Y-193293328D02*
X187100883Y-193293328D01*
D10*
D11*
X263458026Y-196593328D02*
X263458026Y-195093328D01*
X264815170Y-196593328D02*
X264815170Y-195093328D01*
X264815170Y-196521900D02*
X264672312Y-196593328D01*
X264672312Y-196593328D02*
X264386598Y-196593328D01*
X264386598Y-196593328D02*
X264243741Y-196521900D01*
X264243741Y-196521900D02*
X264172312Y-196450471D01*
X264172312Y-196450471D02*
X264100884Y-196307614D01*
X264100884Y-196307614D02*
X264100884Y-195879042D01*
X264100884Y-195879042D02*
X264172312Y-195736185D01*
X264172312Y-195736185D02*
X264243741Y-195664757D01*
X264243741Y-195664757D02*
X264386598Y-195593328D01*
X264386598Y-195593328D02*
X264672312Y-195593328D01*
X264672312Y-195593328D02*
X264815170Y-195664757D01*
X265529455Y-196450471D02*
X265600884Y-196521900D01*
X265600884Y-196521900D02*
X265529455Y-196593328D01*
X265529455Y-196593328D02*
X265458027Y-196521900D01*
X265458027Y-196521900D02*
X265529455Y-196450471D01*
X265529455Y-196450471D02*
X265529455Y-196593328D01*
X265529455Y-195664757D02*
X265600884Y-195736185D01*
X265600884Y-195736185D02*
X265529455Y-195807614D01*
X265529455Y-195807614D02*
X265458027Y-195736185D01*
X265458027Y-195736185D02*
X265529455Y-195664757D01*
X265529455Y-195664757D02*
X265529455Y-195807614D01*
X268172313Y-196593328D02*
X267315170Y-196593328D01*
X267743741Y-196593328D02*
X267743741Y-195093328D01*
X267743741Y-195093328D02*
X267600884Y-195307614D01*
X267600884Y-195307614D02*
X267458027Y-195450471D01*
X267458027Y-195450471D02*
X267315170Y-195521900D01*
X269100884Y-195093328D02*
X269243741Y-195093328D01*
X269243741Y-195093328D02*
X269386598Y-195164757D01*
X269386598Y-195164757D02*
X269458027Y-195236185D01*
X269458027Y-195236185D02*
X269529455Y-195379042D01*
X269529455Y-195379042D02*
X269600884Y-195664757D01*
X269600884Y-195664757D02*
X269600884Y-196021900D01*
X269600884Y-196021900D02*
X269529455Y-196307614D01*
X269529455Y-196307614D02*
X269458027Y-196450471D01*
X269458027Y-196450471D02*
X269386598Y-196521900D01*
X269386598Y-196521900D02*
X269243741Y-196593328D01*
X269243741Y-196593328D02*
X269100884Y-196593328D01*
X269100884Y-196593328D02*
X268958027Y-196521900D01*
X268958027Y-196521900D02*
X268886598Y-196450471D01*
X268886598Y-196450471D02*
X268815169Y-196307614D01*
X268815169Y-196307614D02*
X268743741Y-196021900D01*
X268743741Y-196021900D02*
X268743741Y-195664757D01*
X268743741Y-195664757D02*
X268815169Y-195379042D01*
X268815169Y-195379042D02*
X268886598Y-195236185D01*
X268886598Y-195236185D02*
X268958027Y-195164757D01*
X268958027Y-195164757D02*
X269100884Y-195093328D01*
X271315169Y-195021900D02*
X270029455Y-196950471D01*
X272600884Y-196593328D02*
X271743741Y-196593328D01*
X272172312Y-196593328D02*
X272172312Y-195093328D01*
X272172312Y-195093328D02*
X272029455Y-195307614D01*
X272029455Y-195307614D02*
X271886598Y-195450471D01*
X271886598Y-195450471D02*
X271743741Y-195521900D01*
X273100883Y-195093328D02*
X274100883Y-195093328D01*
X274100883Y-195093328D02*
X273458026Y-196593328D01*
D10*
D11*
X177002200Y-187507200D02*
X285002200Y-187507200D01*
D10*
D13*
X178693928Y-188211638D02*
X179836785Y-188211638D01*
X179015357Y-190211638D02*
X179265357Y-188211638D01*
X180253452Y-190211638D02*
X180420119Y-188878304D01*
X180503452Y-188211638D02*
X180396309Y-188306876D01*
X180396309Y-188306876D02*
X180479643Y-188402114D01*
X180479643Y-188402114D02*
X180586786Y-188306876D01*
X180586786Y-188306876D02*
X180503452Y-188211638D01*
X180503452Y-188211638D02*
X180479643Y-188402114D01*
X181086786Y-188878304D02*
X181848690Y-188878304D01*
X181455833Y-188211638D02*
X181241548Y-189925923D01*
X181241548Y-189925923D02*
X181312976Y-190116400D01*
X181312976Y-190116400D02*
X181491548Y-190211638D01*
X181491548Y-190211638D02*
X181682024Y-190211638D01*
X182634405Y-190211638D02*
X182455833Y-190116400D01*
X182455833Y-190116400D02*
X182384405Y-189925923D01*
X182384405Y-189925923D02*
X182598690Y-188211638D01*
X184170119Y-190116400D02*
X183967738Y-190211638D01*
X183967738Y-190211638D02*
X183586785Y-190211638D01*
X183586785Y-190211638D02*
X183408214Y-190116400D01*
X183408214Y-190116400D02*
X183336785Y-189925923D01*
X183336785Y-189925923D02*
X183432024Y-189164019D01*
X183432024Y-189164019D02*
X183551071Y-188973542D01*
X183551071Y-188973542D02*
X183753452Y-188878304D01*
X183753452Y-188878304D02*
X184134404Y-188878304D01*
X184134404Y-188878304D02*
X184312976Y-188973542D01*
X184312976Y-188973542D02*
X184384404Y-189164019D01*
X184384404Y-189164019D02*
X184360595Y-189354495D01*
X184360595Y-189354495D02*
X183384404Y-189544971D01*
X185134405Y-190021161D02*
X185217738Y-190116400D01*
X185217738Y-190116400D02*
X185110595Y-190211638D01*
X185110595Y-190211638D02*
X185027262Y-190116400D01*
X185027262Y-190116400D02*
X185134405Y-190021161D01*
X185134405Y-190021161D02*
X185110595Y-190211638D01*
X185265357Y-188973542D02*
X185348690Y-189068780D01*
X185348690Y-189068780D02*
X185241548Y-189164019D01*
X185241548Y-189164019D02*
X185158214Y-189068780D01*
X185158214Y-189068780D02*
X185265357Y-188973542D01*
X185265357Y-188973542D02*
X185241548Y-189164019D01*
D10*
D11*
X178958026Y-185607614D02*
X178458026Y-185607614D01*
X178458026Y-186393328D02*
X178458026Y-184893328D01*
X178458026Y-184893328D02*
X179172312Y-184893328D01*
X179743740Y-186393328D02*
X179743740Y-185393328D01*
X179743740Y-184893328D02*
X179672312Y-184964757D01*
X179672312Y-184964757D02*
X179743740Y-185036185D01*
X179743740Y-185036185D02*
X179815169Y-184964757D01*
X179815169Y-184964757D02*
X179743740Y-184893328D01*
X179743740Y-184893328D02*
X179743740Y-185036185D01*
X180672312Y-186393328D02*
X180529455Y-186321900D01*
X180529455Y-186321900D02*
X180458026Y-186179042D01*
X180458026Y-186179042D02*
X180458026Y-184893328D01*
X181815169Y-186321900D02*
X181672312Y-186393328D01*
X181672312Y-186393328D02*
X181386598Y-186393328D01*
X181386598Y-186393328D02*
X181243740Y-186321900D01*
X181243740Y-186321900D02*
X181172312Y-186179042D01*
X181172312Y-186179042D02*
X181172312Y-185607614D01*
X181172312Y-185607614D02*
X181243740Y-185464757D01*
X181243740Y-185464757D02*
X181386598Y-185393328D01*
X181386598Y-185393328D02*
X181672312Y-185393328D01*
X181672312Y-185393328D02*
X181815169Y-185464757D01*
X181815169Y-185464757D02*
X181886598Y-185607614D01*
X181886598Y-185607614D02*
X181886598Y-185750471D01*
X181886598Y-185750471D02*
X181172312Y-185893328D01*
X182529454Y-186250471D02*
X182600883Y-186321900D01*
X182600883Y-186321900D02*
X182529454Y-186393328D01*
X182529454Y-186393328D02*
X182458026Y-186321900D01*
X182458026Y-186321900D02*
X182529454Y-186250471D01*
X182529454Y-186250471D02*
X182529454Y-186393328D01*
X182529454Y-185464757D02*
X182600883Y-185536185D01*
X182600883Y-185536185D02*
X182529454Y-185607614D01*
X182529454Y-185607614D02*
X182458026Y-185536185D01*
X182458026Y-185536185D02*
X182529454Y-185464757D01*
X182529454Y-185464757D02*
X182529454Y-185607614D01*
X184386597Y-186393328D02*
X184386597Y-184893328D01*
X184386597Y-184893328D02*
X184886597Y-185964757D01*
X184886597Y-185964757D02*
X185386597Y-184893328D01*
X185386597Y-184893328D02*
X185386597Y-186393328D01*
X186100883Y-186393328D02*
X186100883Y-185393328D01*
X186100883Y-184893328D02*
X186029455Y-184964757D01*
X186029455Y-184964757D02*
X186100883Y-185036185D01*
X186100883Y-185036185D02*
X186172312Y-184964757D01*
X186172312Y-184964757D02*
X186100883Y-184893328D01*
X186100883Y-184893328D02*
X186100883Y-185036185D01*
X187458027Y-186321900D02*
X187315169Y-186393328D01*
X187315169Y-186393328D02*
X187029455Y-186393328D01*
X187029455Y-186393328D02*
X186886598Y-186321900D01*
X186886598Y-186321900D02*
X186815169Y-186250471D01*
X186815169Y-186250471D02*
X186743741Y-186107614D01*
X186743741Y-186107614D02*
X186743741Y-185679042D01*
X186743741Y-185679042D02*
X186815169Y-185536185D01*
X186815169Y-185536185D02*
X186886598Y-185464757D01*
X186886598Y-185464757D02*
X187029455Y-185393328D01*
X187029455Y-185393328D02*
X187315169Y-185393328D01*
X187315169Y-185393328D02*
X187458027Y-185464757D01*
X188100883Y-186393328D02*
X188100883Y-185393328D01*
X188100883Y-185679042D02*
X188172312Y-185536185D01*
X188172312Y-185536185D02*
X188243741Y-185464757D01*
X188243741Y-185464757D02*
X188386598Y-185393328D01*
X188386598Y-185393328D02*
X188529455Y-185393328D01*
X189243740Y-186393328D02*
X189100883Y-186321900D01*
X189100883Y-186321900D02*
X189029454Y-186250471D01*
X189029454Y-186250471D02*
X188958026Y-186107614D01*
X188958026Y-186107614D02*
X188958026Y-185679042D01*
X188958026Y-185679042D02*
X189029454Y-185536185D01*
X189029454Y-185536185D02*
X189100883Y-185464757D01*
X189100883Y-185464757D02*
X189243740Y-185393328D01*
X189243740Y-185393328D02*
X189458026Y-185393328D01*
X189458026Y-185393328D02*
X189600883Y-185464757D01*
X189600883Y-185464757D02*
X189672312Y-185536185D01*
X189672312Y-185536185D02*
X189743740Y-185679042D01*
X189743740Y-185679042D02*
X189743740Y-186107614D01*
X189743740Y-186107614D02*
X189672312Y-186250471D01*
X189672312Y-186250471D02*
X189600883Y-186321900D01*
X189600883Y-186321900D02*
X189458026Y-186393328D01*
X189458026Y-186393328D02*
X189243740Y-186393328D01*
X190386597Y-185393328D02*
X190386597Y-186893328D01*
X190386597Y-185464757D02*
X190529455Y-185393328D01*
X190529455Y-185393328D02*
X190815169Y-185393328D01*
X190815169Y-185393328D02*
X190958026Y-185464757D01*
X190958026Y-185464757D02*
X191029455Y-185536185D01*
X191029455Y-185536185D02*
X191100883Y-185679042D01*
X191100883Y-185679042D02*
X191100883Y-186107614D01*
X191100883Y-186107614D02*
X191029455Y-186250471D01*
X191029455Y-186250471D02*
X190958026Y-186321900D01*
X190958026Y-186321900D02*
X190815169Y-186393328D01*
X190815169Y-186393328D02*
X190529455Y-186393328D01*
X190529455Y-186393328D02*
X190386597Y-186321900D01*
X191743740Y-186393328D02*
X191743740Y-184893328D01*
X192386598Y-186393328D02*
X192386598Y-185607614D01*
X192386598Y-185607614D02*
X192315169Y-185464757D01*
X192315169Y-185464757D02*
X192172312Y-185393328D01*
X192172312Y-185393328D02*
X191958026Y-185393328D01*
X191958026Y-185393328D02*
X191815169Y-185464757D01*
X191815169Y-185464757D02*
X191743740Y-185536185D01*
X193315169Y-186393328D02*
X193172312Y-186321900D01*
X193172312Y-186321900D02*
X193100883Y-186250471D01*
X193100883Y-186250471D02*
X193029455Y-186107614D01*
X193029455Y-186107614D02*
X193029455Y-185679042D01*
X193029455Y-185679042D02*
X193100883Y-185536185D01*
X193100883Y-185536185D02*
X193172312Y-185464757D01*
X193172312Y-185464757D02*
X193315169Y-185393328D01*
X193315169Y-185393328D02*
X193529455Y-185393328D01*
X193529455Y-185393328D02*
X193672312Y-185464757D01*
X193672312Y-185464757D02*
X193743741Y-185536185D01*
X193743741Y-185536185D02*
X193815169Y-185679042D01*
X193815169Y-185679042D02*
X193815169Y-186107614D01*
X193815169Y-186107614D02*
X193743741Y-186250471D01*
X193743741Y-186250471D02*
X193672312Y-186321900D01*
X193672312Y-186321900D02*
X193529455Y-186393328D01*
X193529455Y-186393328D02*
X193315169Y-186393328D01*
X194458026Y-185393328D02*
X194458026Y-186393328D01*
X194458026Y-185536185D02*
X194529455Y-185464757D01*
X194529455Y-185464757D02*
X194672312Y-185393328D01*
X194672312Y-185393328D02*
X194886598Y-185393328D01*
X194886598Y-185393328D02*
X195029455Y-185464757D01*
X195029455Y-185464757D02*
X195100884Y-185607614D01*
X195100884Y-185607614D02*
X195100884Y-186393328D01*
X196386598Y-186321900D02*
X196243741Y-186393328D01*
X196243741Y-186393328D02*
X195958027Y-186393328D01*
X195958027Y-186393328D02*
X195815169Y-186321900D01*
X195815169Y-186321900D02*
X195743741Y-186179042D01*
X195743741Y-186179042D02*
X195743741Y-185607614D01*
X195743741Y-185607614D02*
X195815169Y-185464757D01*
X195815169Y-185464757D02*
X195958027Y-185393328D01*
X195958027Y-185393328D02*
X196243741Y-185393328D01*
X196243741Y-185393328D02*
X196386598Y-185464757D01*
X196386598Y-185464757D02*
X196458027Y-185607614D01*
X196458027Y-185607614D02*
X196458027Y-185750471D01*
X196458027Y-185750471D02*
X195743741Y-185893328D01*
X196743741Y-186536185D02*
X197886598Y-186536185D01*
X198529455Y-184893328D02*
X198815169Y-184893328D01*
X198815169Y-184893328D02*
X198958026Y-184964757D01*
X198958026Y-184964757D02*
X199100883Y-185107614D01*
X199100883Y-185107614D02*
X199172312Y-185393328D01*
X199172312Y-185393328D02*
X199172312Y-185893328D01*
X199172312Y-185893328D02*
X199100883Y-186179042D01*
X199100883Y-186179042D02*
X198958026Y-186321900D01*
X198958026Y-186321900D02*
X198815169Y-186393328D01*
X198815169Y-186393328D02*
X198529455Y-186393328D01*
X198529455Y-186393328D02*
X198386598Y-186321900D01*
X198386598Y-186321900D02*
X198243740Y-186179042D01*
X198243740Y-186179042D02*
X198172312Y-185893328D01*
X198172312Y-185893328D02*
X198172312Y-185393328D01*
X198172312Y-185393328D02*
X198243740Y-185107614D01*
X198243740Y-185107614D02*
X198386598Y-184964757D01*
X198386598Y-184964757D02*
X198529455Y-184893328D01*
X200672312Y-186250471D02*
X200600884Y-186321900D01*
X200600884Y-186321900D02*
X200386598Y-186393328D01*
X200386598Y-186393328D02*
X200243741Y-186393328D01*
X200243741Y-186393328D02*
X200029455Y-186321900D01*
X200029455Y-186321900D02*
X199886598Y-186179042D01*
X199886598Y-186179042D02*
X199815169Y-186036185D01*
X199815169Y-186036185D02*
X199743741Y-185750471D01*
X199743741Y-185750471D02*
X199743741Y-185536185D01*
X199743741Y-185536185D02*
X199815169Y-185250471D01*
X199815169Y-185250471D02*
X199886598Y-185107614D01*
X199886598Y-185107614D02*
X200029455Y-184964757D01*
X200029455Y-184964757D02*
X200243741Y-184893328D01*
X200243741Y-184893328D02*
X200386598Y-184893328D01*
X200386598Y-184893328D02*
X200600884Y-184964757D01*
X200600884Y-184964757D02*
X200672312Y-185036185D01*
X201100884Y-184893328D02*
X201958027Y-184893328D01*
X201529455Y-186393328D02*
X201529455Y-184893328D01*
X202386598Y-185964757D02*
X203100884Y-185964757D01*
X202243741Y-186393328D02*
X202743741Y-184893328D01*
X202743741Y-184893328D02*
X203243741Y-186393328D01*
X203529455Y-184893328D02*
X204029455Y-186393328D01*
X204029455Y-186393328D02*
X204529455Y-184893328D01*
X205029454Y-186250471D02*
X205100883Y-186321900D01*
X205100883Y-186321900D02*
X205029454Y-186393328D01*
X205029454Y-186393328D02*
X204958026Y-186321900D01*
X204958026Y-186321900D02*
X205029454Y-186250471D01*
X205029454Y-186250471D02*
X205029454Y-186393328D01*
X205743740Y-186393328D02*
X205743740Y-184893328D01*
X205886598Y-185821900D02*
X206315169Y-186393328D01*
X206315169Y-185393328D02*
X205743740Y-185964757D01*
X206958026Y-186393328D02*
X206958026Y-185393328D01*
X206958026Y-184893328D02*
X206886598Y-184964757D01*
X206886598Y-184964757D02*
X206958026Y-185036185D01*
X206958026Y-185036185D02*
X207029455Y-184964757D01*
X207029455Y-184964757D02*
X206958026Y-184893328D01*
X206958026Y-184893328D02*
X206958026Y-185036185D01*
X208315170Y-186321900D02*
X208172312Y-186393328D01*
X208172312Y-186393328D02*
X207886598Y-186393328D01*
X207886598Y-186393328D02*
X207743741Y-186321900D01*
X207743741Y-186321900D02*
X207672312Y-186250471D01*
X207672312Y-186250471D02*
X207600884Y-186107614D01*
X207600884Y-186107614D02*
X207600884Y-185679042D01*
X207600884Y-185679042D02*
X207672312Y-185536185D01*
X207672312Y-185536185D02*
X207743741Y-185464757D01*
X207743741Y-185464757D02*
X207886598Y-185393328D01*
X207886598Y-185393328D02*
X208172312Y-185393328D01*
X208172312Y-185393328D02*
X208315170Y-185464757D01*
X209600884Y-186393328D02*
X209600884Y-185607614D01*
X209600884Y-185607614D02*
X209529455Y-185464757D01*
X209529455Y-185464757D02*
X209386598Y-185393328D01*
X209386598Y-185393328D02*
X209100884Y-185393328D01*
X209100884Y-185393328D02*
X208958026Y-185464757D01*
X209600884Y-186321900D02*
X209458026Y-186393328D01*
X209458026Y-186393328D02*
X209100884Y-186393328D01*
X209100884Y-186393328D02*
X208958026Y-186321900D01*
X208958026Y-186321900D02*
X208886598Y-186179042D01*
X208886598Y-186179042D02*
X208886598Y-186036185D01*
X208886598Y-186036185D02*
X208958026Y-185893328D01*
X208958026Y-185893328D02*
X209100884Y-185821900D01*
X209100884Y-185821900D02*
X209458026Y-185821900D01*
X209458026Y-185821900D02*
X209600884Y-185750471D01*
X210958027Y-186393328D02*
X210958027Y-184893328D01*
X210958027Y-186321900D02*
X210815169Y-186393328D01*
X210815169Y-186393328D02*
X210529455Y-186393328D01*
X210529455Y-186393328D02*
X210386598Y-186321900D01*
X210386598Y-186321900D02*
X210315169Y-186250471D01*
X210315169Y-186250471D02*
X210243741Y-186107614D01*
X210243741Y-186107614D02*
X210243741Y-185679042D01*
X210243741Y-185679042D02*
X210315169Y-185536185D01*
X210315169Y-185536185D02*
X210386598Y-185464757D01*
X210386598Y-185464757D02*
X210529455Y-185393328D01*
X210529455Y-185393328D02*
X210815169Y-185393328D01*
X210815169Y-185393328D02*
X210958027Y-185464757D01*
X211315170Y-186536185D02*
X212458027Y-186536185D01*
X212815169Y-185393328D02*
X212815169Y-186893328D01*
X212815169Y-185464757D02*
X212958027Y-185393328D01*
X212958027Y-185393328D02*
X213243741Y-185393328D01*
X213243741Y-185393328D02*
X213386598Y-185464757D01*
X213386598Y-185464757D02*
X213458027Y-185536185D01*
X213458027Y-185536185D02*
X213529455Y-185679042D01*
X213529455Y-185679042D02*
X213529455Y-186107614D01*
X213529455Y-186107614D02*
X213458027Y-186250471D01*
X213458027Y-186250471D02*
X213386598Y-186321900D01*
X213386598Y-186321900D02*
X213243741Y-186393328D01*
X213243741Y-186393328D02*
X212958027Y-186393328D01*
X212958027Y-186393328D02*
X212815169Y-186321900D01*
X214815170Y-186321900D02*
X214672312Y-186393328D01*
X214672312Y-186393328D02*
X214386598Y-186393328D01*
X214386598Y-186393328D02*
X214243741Y-186321900D01*
X214243741Y-186321900D02*
X214172312Y-186250471D01*
X214172312Y-186250471D02*
X214100884Y-186107614D01*
X214100884Y-186107614D02*
X214100884Y-185679042D01*
X214100884Y-185679042D02*
X214172312Y-185536185D01*
X214172312Y-185536185D02*
X214243741Y-185464757D01*
X214243741Y-185464757D02*
X214386598Y-185393328D01*
X214386598Y-185393328D02*
X214672312Y-185393328D01*
X214672312Y-185393328D02*
X214815170Y-185464757D01*
X215458026Y-186393328D02*
X215458026Y-184893328D01*
X215458026Y-185464757D02*
X215600884Y-185393328D01*
X215600884Y-185393328D02*
X215886598Y-185393328D01*
X215886598Y-185393328D02*
X216029455Y-185464757D01*
X216029455Y-185464757D02*
X216100884Y-185536185D01*
X216100884Y-185536185D02*
X216172312Y-185679042D01*
X216172312Y-185679042D02*
X216172312Y-186107614D01*
X216172312Y-186107614D02*
X216100884Y-186250471D01*
X216100884Y-186250471D02*
X216029455Y-186321900D01*
X216029455Y-186321900D02*
X215886598Y-186393328D01*
X215886598Y-186393328D02*
X215600884Y-186393328D01*
X215600884Y-186393328D02*
X215458026Y-186321900D01*
D10*
D11*
X177002200Y-181507200D02*
X285002200Y-181507200D01*
D10*
D11*
X178386598Y-183621900D02*
X178600884Y-183693328D01*
X178600884Y-183693328D02*
X178958026Y-183693328D01*
X178958026Y-183693328D02*
X179100884Y-183621900D01*
X179100884Y-183621900D02*
X179172312Y-183550471D01*
X179172312Y-183550471D02*
X179243741Y-183407614D01*
X179243741Y-183407614D02*
X179243741Y-183264757D01*
X179243741Y-183264757D02*
X179172312Y-183121900D01*
X179172312Y-183121900D02*
X179100884Y-183050471D01*
X179100884Y-183050471D02*
X178958026Y-182979042D01*
X178958026Y-182979042D02*
X178672312Y-182907614D01*
X178672312Y-182907614D02*
X178529455Y-182836185D01*
X178529455Y-182836185D02*
X178458026Y-182764757D01*
X178458026Y-182764757D02*
X178386598Y-182621900D01*
X178386598Y-182621900D02*
X178386598Y-182479042D01*
X178386598Y-182479042D02*
X178458026Y-182336185D01*
X178458026Y-182336185D02*
X178529455Y-182264757D01*
X178529455Y-182264757D02*
X178672312Y-182193328D01*
X178672312Y-182193328D02*
X179029455Y-182193328D01*
X179029455Y-182193328D02*
X179243741Y-182264757D01*
X179886597Y-183693328D02*
X179886597Y-182193328D01*
X180529455Y-183693328D02*
X180529455Y-182907614D01*
X180529455Y-182907614D02*
X180458026Y-182764757D01*
X180458026Y-182764757D02*
X180315169Y-182693328D01*
X180315169Y-182693328D02*
X180100883Y-182693328D01*
X180100883Y-182693328D02*
X179958026Y-182764757D01*
X179958026Y-182764757D02*
X179886597Y-182836185D01*
X181815169Y-183621900D02*
X181672312Y-183693328D01*
X181672312Y-183693328D02*
X181386598Y-183693328D01*
X181386598Y-183693328D02*
X181243740Y-183621900D01*
X181243740Y-183621900D02*
X181172312Y-183479042D01*
X181172312Y-183479042D02*
X181172312Y-182907614D01*
X181172312Y-182907614D02*
X181243740Y-182764757D01*
X181243740Y-182764757D02*
X181386598Y-182693328D01*
X181386598Y-182693328D02*
X181672312Y-182693328D01*
X181672312Y-182693328D02*
X181815169Y-182764757D01*
X181815169Y-182764757D02*
X181886598Y-182907614D01*
X181886598Y-182907614D02*
X181886598Y-183050471D01*
X181886598Y-183050471D02*
X181172312Y-183193328D01*
X183100883Y-183621900D02*
X182958026Y-183693328D01*
X182958026Y-183693328D02*
X182672312Y-183693328D01*
X182672312Y-183693328D02*
X182529454Y-183621900D01*
X182529454Y-183621900D02*
X182458026Y-183479042D01*
X182458026Y-183479042D02*
X182458026Y-182907614D01*
X182458026Y-182907614D02*
X182529454Y-182764757D01*
X182529454Y-182764757D02*
X182672312Y-182693328D01*
X182672312Y-182693328D02*
X182958026Y-182693328D01*
X182958026Y-182693328D02*
X183100883Y-182764757D01*
X183100883Y-182764757D02*
X183172312Y-182907614D01*
X183172312Y-182907614D02*
X183172312Y-183050471D01*
X183172312Y-183050471D02*
X182458026Y-183193328D01*
X183600883Y-182693328D02*
X184172311Y-182693328D01*
X183815168Y-182193328D02*
X183815168Y-183479042D01*
X183815168Y-183479042D02*
X183886597Y-183621900D01*
X183886597Y-183621900D02*
X184029454Y-183693328D01*
X184029454Y-183693328D02*
X184172311Y-183693328D01*
X184672311Y-183550471D02*
X184743740Y-183621900D01*
X184743740Y-183621900D02*
X184672311Y-183693328D01*
X184672311Y-183693328D02*
X184600883Y-183621900D01*
X184600883Y-183621900D02*
X184672311Y-183550471D01*
X184672311Y-183550471D02*
X184672311Y-183693328D01*
X184672311Y-182764757D02*
X184743740Y-182836185D01*
X184743740Y-182836185D02*
X184672311Y-182907614D01*
X184672311Y-182907614D02*
X184600883Y-182836185D01*
X184600883Y-182836185D02*
X184672311Y-182764757D01*
X184672311Y-182764757D02*
X184672311Y-182907614D01*
D10*
D11*
X197002200Y-191507200D02*
X197002200Y-194507200D01*
D10*
D11*
X261002200Y-191507200D02*
X261002200Y-198007200D01*
D14*
%TO.C,J1*%
X180981000Y-82659601D02*
G75*
G02*
X180219000Y-82659601I-381000J0D01*
G01*
X180219000Y-82659601D02*
G75*
G02*
X180981000Y-82659601I381000J0D01*
G01*
D15*
%TO.C,G\u002A\u002A\u002A*%
G36*
X160916499Y-85956858D02*
G01*
X160916499Y-86271347D01*
X160360690Y-86276572D01*
X159804880Y-86281797D01*
X159799841Y-87811502D01*
X159794802Y-89341208D01*
X159421224Y-89341208D01*
X159047647Y-89341208D01*
X159042607Y-87811502D01*
X159037568Y-86281797D01*
X158481759Y-86276572D01*
X157925949Y-86271347D01*
X157925949Y-85956858D01*
X157925949Y-85642370D01*
X159421224Y-85642370D01*
X160916499Y-85642370D01*
X160916499Y-85956858D01*
G37*
G36*
X153448176Y-83075995D02*
G01*
X153544573Y-83117804D01*
X153615978Y-83188750D01*
X153660331Y-83286643D01*
X153675573Y-83409295D01*
X153674066Y-83449464D01*
X153649859Y-83563423D01*
X153597580Y-83653889D01*
X153519130Y-83717123D01*
X153514007Y-83719742D01*
X153438486Y-83744238D01*
X153351588Y-83753602D01*
X153255000Y-83742595D01*
X153158604Y-83700785D01*
X153087199Y-83629840D01*
X153042846Y-83531946D01*
X153027604Y-83409295D01*
X153037961Y-83306648D01*
X153077302Y-83204205D01*
X153144061Y-83128322D01*
X153236176Y-83081186D01*
X153351588Y-83064988D01*
X153448176Y-83075995D01*
G37*
G36*
X157697905Y-83075995D02*
G01*
X157794302Y-83117804D01*
X157865706Y-83188750D01*
X157910060Y-83286643D01*
X157925302Y-83409295D01*
X157923795Y-83449464D01*
X157899588Y-83563423D01*
X157847309Y-83653889D01*
X157768859Y-83717123D01*
X157763736Y-83719742D01*
X157688215Y-83744238D01*
X157601317Y-83753602D01*
X157504729Y-83742595D01*
X157408333Y-83700785D01*
X157336928Y-83629840D01*
X157292575Y-83531946D01*
X157277332Y-83409295D01*
X157287690Y-83306648D01*
X157327031Y-83204205D01*
X157393789Y-83128322D01*
X157485905Y-83081186D01*
X157601317Y-83064988D01*
X157697905Y-83075995D01*
G37*
G36*
X161986983Y-83075995D02*
G01*
X162083380Y-83117804D01*
X162154785Y-83188750D01*
X162199138Y-83286643D01*
X162214380Y-83409295D01*
X162212873Y-83449464D01*
X162188666Y-83563423D01*
X162136388Y-83653889D01*
X162057937Y-83717123D01*
X162052814Y-83719742D01*
X161977293Y-83744238D01*
X161890395Y-83753602D01*
X161793808Y-83742595D01*
X161697411Y-83700785D01*
X161626006Y-83629840D01*
X161581653Y-83531946D01*
X161566411Y-83409295D01*
X161576768Y-83306648D01*
X161616109Y-83204205D01*
X161682868Y-83128322D01*
X161774983Y-83081186D01*
X161890395Y-83064988D01*
X161986983Y-83075995D01*
G37*
G36*
X166276062Y-83075995D02*
G01*
X166372458Y-83117804D01*
X166443863Y-83188750D01*
X166488216Y-83286643D01*
X166503458Y-83409295D01*
X166501951Y-83449464D01*
X166477745Y-83563423D01*
X166425466Y-83653889D01*
X166347015Y-83717123D01*
X166341892Y-83719742D01*
X166266371Y-83744238D01*
X166179474Y-83753602D01*
X166082886Y-83742595D01*
X165986489Y-83700785D01*
X165915084Y-83629840D01*
X165870731Y-83531946D01*
X165855489Y-83409295D01*
X165865846Y-83306648D01*
X165905188Y-83204205D01*
X165971946Y-83128322D01*
X166064061Y-83081186D01*
X166179474Y-83064988D01*
X166276062Y-83075995D01*
G37*
G36*
X154522334Y-82221518D02*
G01*
X154593586Y-82253020D01*
X154620138Y-82272164D01*
X154643519Y-82291463D01*
X154662920Y-82313428D01*
X154678690Y-82341395D01*
X154691177Y-82378698D01*
X154700727Y-82428671D01*
X154707690Y-82494651D01*
X154712412Y-82579970D01*
X154715242Y-82687965D01*
X154716527Y-82821969D01*
X154716615Y-82985318D01*
X154715854Y-83181347D01*
X154714592Y-83413390D01*
X154714360Y-83455024D01*
X154713121Y-83669852D01*
X154711906Y-83849355D01*
X154710552Y-83996952D01*
X154708898Y-84116067D01*
X154706783Y-84210121D01*
X154704045Y-84282536D01*
X154700522Y-84336733D01*
X154696054Y-84376134D01*
X154690479Y-84404160D01*
X154683636Y-84424234D01*
X154675363Y-84439777D01*
X154665499Y-84454210D01*
X154663656Y-84456745D01*
X154614238Y-84508362D01*
X154557288Y-84548307D01*
X154539609Y-84556147D01*
X154455558Y-84574686D01*
X154359166Y-84575087D01*
X154266660Y-84558369D01*
X154194269Y-84525547D01*
X154172866Y-84510187D01*
X154148932Y-84491005D01*
X154129019Y-84469576D01*
X154112758Y-84442526D01*
X154099779Y-84406482D01*
X154089712Y-84358072D01*
X154082188Y-84293922D01*
X154076835Y-84210661D01*
X154073285Y-84104914D01*
X154071168Y-83973310D01*
X154070114Y-83812474D01*
X154069752Y-83619035D01*
X154069714Y-83389620D01*
X154069728Y-83207148D01*
X154069984Y-83006154D01*
X154070851Y-82838496D01*
X154072704Y-82700801D01*
X154075913Y-82589693D01*
X154080851Y-82501798D01*
X154087891Y-82433742D01*
X154097404Y-82382149D01*
X154109763Y-82343645D01*
X154125341Y-82314854D01*
X154144509Y-82292403D01*
X154167640Y-82272917D01*
X154195106Y-82253020D01*
X154245257Y-82228085D01*
X154333166Y-82209051D01*
X154430526Y-82206862D01*
X154522334Y-82221518D01*
G37*
G36*
X156725897Y-82221518D02*
G01*
X156797149Y-82253020D01*
X156823701Y-82272164D01*
X156847082Y-82291463D01*
X156866483Y-82313428D01*
X156882253Y-82341395D01*
X156894740Y-82378698D01*
X156904291Y-82428671D01*
X156911253Y-82494651D01*
X156915976Y-82579970D01*
X156918805Y-82687965D01*
X156920090Y-82821969D01*
X156920179Y-82985318D01*
X156919417Y-83181347D01*
X156918155Y-83413390D01*
X156917923Y-83455024D01*
X156916685Y-83669852D01*
X156915469Y-83849355D01*
X156914115Y-83996952D01*
X156912461Y-84116067D01*
X156910346Y-84210121D01*
X156907608Y-84282536D01*
X156904085Y-84336733D01*
X156899617Y-84376134D01*
X156894042Y-84404160D01*
X156887199Y-84424234D01*
X156878926Y-84439777D01*
X156869062Y-84454210D01*
X156867219Y-84456745D01*
X156817802Y-84508362D01*
X156760851Y-84548307D01*
X156743172Y-84556147D01*
X156659121Y-84574686D01*
X156562729Y-84575087D01*
X156470223Y-84558369D01*
X156397832Y-84525547D01*
X156376429Y-84510187D01*
X156352495Y-84491005D01*
X156332582Y-84469576D01*
X156316322Y-84442526D01*
X156303343Y-84406482D01*
X156293276Y-84358072D01*
X156285751Y-84293922D01*
X156280398Y-84210661D01*
X156276848Y-84104914D01*
X156274731Y-83973310D01*
X156273677Y-83812474D01*
X156273315Y-83619035D01*
X156273277Y-83389620D01*
X156273291Y-83207148D01*
X156273547Y-83006154D01*
X156274415Y-82838496D01*
X156276267Y-82700801D01*
X156279476Y-82589693D01*
X156284414Y-82501798D01*
X156291454Y-82433742D01*
X156300967Y-82382149D01*
X156313326Y-82343645D01*
X156328904Y-82314854D01*
X156348072Y-82292403D01*
X156371203Y-82272917D01*
X156398669Y-82253020D01*
X156448820Y-82228085D01*
X156536729Y-82209051D01*
X156634089Y-82206862D01*
X156725897Y-82221518D01*
G37*
G36*
X158772063Y-82221518D02*
G01*
X158843315Y-82253020D01*
X158869867Y-82272164D01*
X158893248Y-82291463D01*
X158912649Y-82313428D01*
X158928419Y-82341395D01*
X158940906Y-82378698D01*
X158950456Y-82428671D01*
X158957419Y-82494651D01*
X158962141Y-82579970D01*
X158964971Y-82687965D01*
X158966256Y-82821969D01*
X158966344Y-82985318D01*
X158965583Y-83181347D01*
X158964320Y-83413390D01*
X158964089Y-83455024D01*
X158962850Y-83669852D01*
X158961635Y-83849355D01*
X158960281Y-83996952D01*
X158958627Y-84116067D01*
X158956512Y-84210121D01*
X158953773Y-84282536D01*
X158950251Y-84336733D01*
X158945783Y-84376134D01*
X158940208Y-84404160D01*
X158933365Y-84424234D01*
X158925092Y-84439777D01*
X158915227Y-84454210D01*
X158913385Y-84456745D01*
X158863967Y-84508362D01*
X158807017Y-84548307D01*
X158789338Y-84556147D01*
X158705287Y-84574686D01*
X158608895Y-84575087D01*
X158516389Y-84558369D01*
X158443998Y-84525547D01*
X158422595Y-84510187D01*
X158398661Y-84491005D01*
X158378748Y-84469576D01*
X158362487Y-84442526D01*
X158349508Y-84406482D01*
X158339441Y-84358072D01*
X158331917Y-84293922D01*
X158326564Y-84210661D01*
X158323014Y-84104914D01*
X158320897Y-83973310D01*
X158319842Y-83812474D01*
X158319481Y-83619035D01*
X158319443Y-83389620D01*
X158319457Y-83207148D01*
X158319712Y-83006154D01*
X158320580Y-82838496D01*
X158322433Y-82700801D01*
X158325642Y-82589693D01*
X158330580Y-82501798D01*
X158337619Y-82433742D01*
X158347133Y-82382149D01*
X158359492Y-82343645D01*
X158375069Y-82314854D01*
X158394238Y-82292403D01*
X158417369Y-82272917D01*
X158444835Y-82253020D01*
X158494986Y-82228085D01*
X158582895Y-82209051D01*
X158680255Y-82206862D01*
X158772063Y-82221518D01*
G37*
G36*
X160975626Y-82221518D02*
G01*
X161046878Y-82253020D01*
X161073430Y-82272164D01*
X161096811Y-82291463D01*
X161116212Y-82313428D01*
X161131982Y-82341395D01*
X161144469Y-82378698D01*
X161154019Y-82428671D01*
X161160982Y-82494651D01*
X161165704Y-82579970D01*
X161168534Y-82687965D01*
X161169819Y-82821969D01*
X161169907Y-82985318D01*
X161169146Y-83181347D01*
X161167884Y-83413390D01*
X161167652Y-83455024D01*
X161166414Y-83669852D01*
X161165198Y-83849355D01*
X161163844Y-83996952D01*
X161162190Y-84116067D01*
X161160075Y-84210121D01*
X161157337Y-84282536D01*
X161153814Y-84336733D01*
X161149346Y-84376134D01*
X161143771Y-84404160D01*
X161136928Y-84424234D01*
X161128655Y-84439777D01*
X161118791Y-84454210D01*
X161116948Y-84456745D01*
X161067530Y-84508362D01*
X161010580Y-84548307D01*
X160992901Y-84556147D01*
X160908850Y-84574686D01*
X160812458Y-84575087D01*
X160719952Y-84558369D01*
X160647561Y-84525547D01*
X160626158Y-84510187D01*
X160602224Y-84491005D01*
X160582311Y-84469576D01*
X160566050Y-84442526D01*
X160553071Y-84406482D01*
X160543005Y-84358072D01*
X160535480Y-84293922D01*
X160530127Y-84210661D01*
X160526577Y-84104914D01*
X160524460Y-83973310D01*
X160523406Y-83812474D01*
X160523044Y-83619035D01*
X160523006Y-83389620D01*
X160523020Y-83207148D01*
X160523276Y-83006154D01*
X160524143Y-82838496D01*
X160525996Y-82700801D01*
X160529205Y-82589693D01*
X160534143Y-82501798D01*
X160541183Y-82433742D01*
X160550696Y-82382149D01*
X160563055Y-82343645D01*
X160578633Y-82314854D01*
X160597801Y-82292403D01*
X160620932Y-82272917D01*
X160648398Y-82253020D01*
X160698549Y-82228085D01*
X160786458Y-82209051D01*
X160883818Y-82206862D01*
X160975626Y-82221518D01*
G37*
G36*
X163061141Y-82221518D02*
G01*
X163132393Y-82253020D01*
X163158945Y-82272164D01*
X163182326Y-82291463D01*
X163201727Y-82313428D01*
X163217497Y-82341395D01*
X163229984Y-82378698D01*
X163239535Y-82428671D01*
X163246497Y-82494651D01*
X163251220Y-82579970D01*
X163254049Y-82687965D01*
X163255334Y-82821969D01*
X163255423Y-82985318D01*
X163254661Y-83181347D01*
X163253399Y-83413390D01*
X163253167Y-83455024D01*
X163251929Y-83669852D01*
X163250713Y-83849355D01*
X163249359Y-83996952D01*
X163247705Y-84116067D01*
X163245590Y-84210121D01*
X163242852Y-84282536D01*
X163239329Y-84336733D01*
X163234861Y-84376134D01*
X163229286Y-84404160D01*
X163222443Y-84424234D01*
X163214170Y-84439777D01*
X163204306Y-84454210D01*
X163202463Y-84456745D01*
X163153046Y-84508362D01*
X163096095Y-84548307D01*
X163078416Y-84556147D01*
X162994365Y-84574686D01*
X162897973Y-84575087D01*
X162805467Y-84558369D01*
X162733076Y-84525547D01*
X162711673Y-84510187D01*
X162687739Y-84491005D01*
X162667826Y-84469576D01*
X162651566Y-84442526D01*
X162638587Y-84406482D01*
X162628520Y-84358072D01*
X162620995Y-84293922D01*
X162615642Y-84210661D01*
X162612092Y-84104914D01*
X162609975Y-83973310D01*
X162608921Y-83812474D01*
X162608559Y-83619035D01*
X162608521Y-83389620D01*
X162608535Y-83207148D01*
X162608791Y-83006154D01*
X162609659Y-82838496D01*
X162611511Y-82700801D01*
X162614720Y-82589693D01*
X162619658Y-82501798D01*
X162626698Y-82433742D01*
X162636211Y-82382149D01*
X162648570Y-82343645D01*
X162664148Y-82314854D01*
X162683316Y-82292403D01*
X162706447Y-82272917D01*
X162733913Y-82253020D01*
X162784064Y-82228085D01*
X162871973Y-82209051D01*
X162969333Y-82206862D01*
X163061141Y-82221518D01*
G37*
G36*
X165264705Y-82221518D02*
G01*
X165335956Y-82253020D01*
X165362508Y-82272164D01*
X165385889Y-82291463D01*
X165405290Y-82313428D01*
X165421060Y-82341395D01*
X165433547Y-82378698D01*
X165443098Y-82428671D01*
X165450060Y-82494651D01*
X165454783Y-82579970D01*
X165457613Y-82687965D01*
X165458898Y-82821969D01*
X165458986Y-82985318D01*
X165458224Y-83181347D01*
X165456962Y-83413390D01*
X165456730Y-83455024D01*
X165455492Y-83669852D01*
X165454276Y-83849355D01*
X165452922Y-83996952D01*
X165451268Y-84116067D01*
X165449153Y-84210121D01*
X165446415Y-84282536D01*
X165442892Y-84336733D01*
X165438424Y-84376134D01*
X165432850Y-84404160D01*
X165426006Y-84424234D01*
X165417733Y-84439777D01*
X165407869Y-84454210D01*
X165406026Y-84456745D01*
X165356609Y-84508362D01*
X165299658Y-84548307D01*
X165281980Y-84556147D01*
X165197928Y-84574686D01*
X165101536Y-84575087D01*
X165009030Y-84558369D01*
X164936639Y-84525547D01*
X164915236Y-84510187D01*
X164891302Y-84491005D01*
X164871390Y-84469576D01*
X164855129Y-84442526D01*
X164842150Y-84406482D01*
X164832083Y-84358072D01*
X164824558Y-84293922D01*
X164819205Y-84210661D01*
X164815656Y-84104914D01*
X164813538Y-83973310D01*
X164812484Y-83812474D01*
X164812122Y-83619035D01*
X164812084Y-83389620D01*
X164812098Y-83207148D01*
X164812354Y-83006154D01*
X164813222Y-82838496D01*
X164815074Y-82700801D01*
X164818283Y-82589693D01*
X164823221Y-82501798D01*
X164830261Y-82433742D01*
X164839774Y-82382149D01*
X164852133Y-82343645D01*
X164867711Y-82314854D01*
X164886879Y-82292403D01*
X164910010Y-82272917D01*
X164937476Y-82253020D01*
X164987627Y-82228085D01*
X165075536Y-82209051D01*
X165172896Y-82206862D01*
X165264705Y-82221518D01*
G37*
G36*
X155624116Y-81611604D02*
G01*
X155695367Y-81643106D01*
X155716220Y-81657534D01*
X155735707Y-81671510D01*
X155752631Y-81686603D01*
X155767162Y-81705361D01*
X155779471Y-81730333D01*
X155789729Y-81764069D01*
X155798108Y-81809116D01*
X155804779Y-81868023D01*
X155809912Y-81943341D01*
X155813680Y-82037617D01*
X155816252Y-82153400D01*
X155817801Y-82293239D01*
X155818497Y-82459683D01*
X155818512Y-82655282D01*
X155818016Y-82882582D01*
X155817180Y-83144135D01*
X155816177Y-83442488D01*
X155810922Y-85061967D01*
X155767280Y-85123149D01*
X155765438Y-85125684D01*
X155716020Y-85177301D01*
X155659069Y-85217246D01*
X155641391Y-85225086D01*
X155557340Y-85243625D01*
X155460947Y-85244026D01*
X155368442Y-85227307D01*
X155296051Y-85194486D01*
X155278610Y-85182387D01*
X155258886Y-85168376D01*
X155241740Y-85153518D01*
X155226991Y-85135245D01*
X155214460Y-85110992D01*
X155203966Y-85078191D01*
X155195329Y-85034276D01*
X155188369Y-84976679D01*
X155182907Y-84902834D01*
X155178762Y-84810175D01*
X155175754Y-84696133D01*
X155173702Y-84558144D01*
X155172427Y-84393639D01*
X155171750Y-84200052D01*
X155171488Y-83974817D01*
X155171464Y-83715366D01*
X155171495Y-83419132D01*
X155171471Y-83179639D01*
X155171467Y-82912978D01*
X155171663Y-82681048D01*
X155172240Y-82481283D01*
X155173379Y-82311115D01*
X155175262Y-82167977D01*
X155178069Y-82049301D01*
X155181983Y-81952519D01*
X155187184Y-81875065D01*
X155193853Y-81814371D01*
X155202173Y-81767868D01*
X155212323Y-81732990D01*
X155224486Y-81707169D01*
X155238843Y-81687838D01*
X155255574Y-81672428D01*
X155274862Y-81658374D01*
X155296888Y-81643106D01*
X155347039Y-81618170D01*
X155434947Y-81599136D01*
X155532308Y-81596947D01*
X155624116Y-81611604D01*
G37*
G36*
X159873845Y-81611604D02*
G01*
X159945096Y-81643106D01*
X159965948Y-81657534D01*
X159985436Y-81671510D01*
X160002360Y-81686603D01*
X160016891Y-81705361D01*
X160029200Y-81730333D01*
X160039458Y-81764069D01*
X160047837Y-81809116D01*
X160054508Y-81868023D01*
X160059641Y-81943341D01*
X160063409Y-82037617D01*
X160065981Y-82153400D01*
X160067530Y-82293239D01*
X160068226Y-82459683D01*
X160068240Y-82655282D01*
X160067744Y-82882582D01*
X160066909Y-83144135D01*
X160065906Y-83442488D01*
X160060651Y-85061967D01*
X160017009Y-85123149D01*
X160015167Y-85125684D01*
X159965749Y-85177301D01*
X159908798Y-85217246D01*
X159891120Y-85225086D01*
X159807069Y-85243625D01*
X159710676Y-85244026D01*
X159618170Y-85227307D01*
X159545780Y-85194486D01*
X159528339Y-85182387D01*
X159508615Y-85168376D01*
X159491469Y-85153518D01*
X159476720Y-85135245D01*
X159464188Y-85110992D01*
X159453695Y-85078191D01*
X159445058Y-85034276D01*
X159438098Y-84976679D01*
X159432636Y-84902834D01*
X159428491Y-84810175D01*
X159425482Y-84696133D01*
X159423431Y-84558144D01*
X159422156Y-84393639D01*
X159421478Y-84200052D01*
X159421217Y-83974817D01*
X159421192Y-83715366D01*
X159421224Y-83419132D01*
X159421199Y-83179639D01*
X159421196Y-82912978D01*
X159421392Y-82681048D01*
X159421969Y-82481283D01*
X159423108Y-82311115D01*
X159424991Y-82167977D01*
X159427798Y-82049301D01*
X159431712Y-81952519D01*
X159436913Y-81875065D01*
X159443582Y-81814371D01*
X159451902Y-81767868D01*
X159462052Y-81732990D01*
X159474215Y-81707169D01*
X159488572Y-81687838D01*
X159505303Y-81672428D01*
X159524591Y-81658374D01*
X159546617Y-81643106D01*
X159596767Y-81618170D01*
X159684676Y-81599136D01*
X159782037Y-81596947D01*
X159873845Y-81611604D01*
G37*
G36*
X164162923Y-81611604D02*
G01*
X164234174Y-81643106D01*
X164255027Y-81657534D01*
X164274514Y-81671510D01*
X164291438Y-81686603D01*
X164305969Y-81705361D01*
X164318278Y-81730333D01*
X164328536Y-81764069D01*
X164336915Y-81809116D01*
X164343586Y-81868023D01*
X164348720Y-81943341D01*
X164352487Y-82037617D01*
X164355060Y-82153400D01*
X164356608Y-82293239D01*
X164357304Y-82459683D01*
X164357319Y-82655282D01*
X164356823Y-82882582D01*
X164355987Y-83144135D01*
X164354984Y-83442488D01*
X164349729Y-85061967D01*
X164306087Y-85123149D01*
X164304245Y-85125684D01*
X164254827Y-85177301D01*
X164197877Y-85217246D01*
X164180198Y-85225086D01*
X164096147Y-85243625D01*
X163999754Y-85244026D01*
X163907249Y-85227307D01*
X163834858Y-85194486D01*
X163817417Y-85182387D01*
X163797693Y-85168376D01*
X163780547Y-85153518D01*
X163765798Y-85135245D01*
X163753267Y-85110992D01*
X163742773Y-85078191D01*
X163734136Y-85034276D01*
X163727177Y-84976679D01*
X163721714Y-84902834D01*
X163717569Y-84810175D01*
X163714561Y-84696133D01*
X163712509Y-84558144D01*
X163711235Y-84393639D01*
X163710557Y-84200052D01*
X163710295Y-83974817D01*
X163710271Y-83715366D01*
X163710302Y-83419132D01*
X163710278Y-83179639D01*
X163710274Y-82912978D01*
X163710470Y-82681048D01*
X163711047Y-82481283D01*
X163712186Y-82311115D01*
X163714069Y-82167977D01*
X163716877Y-82049301D01*
X163720790Y-81952519D01*
X163725991Y-81875065D01*
X163732661Y-81814371D01*
X163740980Y-81767868D01*
X163751130Y-81732990D01*
X163763293Y-81707169D01*
X163777650Y-81687838D01*
X163794382Y-81672428D01*
X163813669Y-81658374D01*
X163835695Y-81643106D01*
X163885846Y-81618170D01*
X163973754Y-81599136D01*
X164071115Y-81596947D01*
X164162923Y-81611604D01*
G37*
G36*
X168764948Y-87487375D02*
G01*
X168764621Y-87639904D01*
X168759285Y-87776719D01*
X168748585Y-87888149D01*
X168720323Y-88051109D01*
X168648161Y-88318577D01*
X168548195Y-88560097D01*
X168421276Y-88774701D01*
X168268252Y-88961421D01*
X168089974Y-89119290D01*
X167887291Y-89247341D01*
X167661052Y-89344605D01*
X167412108Y-89410115D01*
X167302642Y-89424515D01*
X167164062Y-89432583D01*
X167009807Y-89434164D01*
X166850821Y-89429579D01*
X166698049Y-89419148D01*
X166562433Y-89403192D01*
X166454919Y-89382034D01*
X166389996Y-89363618D01*
X166158744Y-89273964D01*
X165951411Y-89153473D01*
X165768599Y-89002919D01*
X165610910Y-88823076D01*
X165478946Y-88614715D01*
X165373308Y-88378610D01*
X165294599Y-88115533D01*
X165243420Y-87826258D01*
X165239960Y-87794615D01*
X165231781Y-87662548D01*
X165230389Y-87559913D01*
X165979453Y-87559913D01*
X165998934Y-87794324D01*
X166044189Y-88012324D01*
X166114106Y-88209750D01*
X166207576Y-88382437D01*
X166323485Y-88526221D01*
X166351171Y-88553396D01*
X166482258Y-88660090D01*
X166620063Y-88734190D01*
X166774034Y-88781041D01*
X166889170Y-88799601D01*
X167084636Y-88803167D01*
X167268137Y-88770967D01*
X167437212Y-88704751D01*
X167589398Y-88606267D01*
X167722231Y-88477264D01*
X167833249Y-88319491D01*
X167919990Y-88134698D01*
X167979991Y-87924632D01*
X167995898Y-87833104D01*
X168015050Y-87636459D01*
X168018782Y-87427917D01*
X168007096Y-87223510D01*
X167979991Y-87039272D01*
X167968273Y-86987163D01*
X167901947Y-86784263D01*
X167809387Y-86606324D01*
X167693101Y-86455262D01*
X167555594Y-86332995D01*
X167399373Y-86241440D01*
X167226945Y-86182512D01*
X167040816Y-86158129D01*
X166843494Y-86170208D01*
X166736712Y-86191703D01*
X166585507Y-86246115D01*
X166450356Y-86329578D01*
X166321673Y-86447181D01*
X166284322Y-86488269D01*
X166188531Y-86613319D01*
X166114115Y-86747492D01*
X166058180Y-86898034D01*
X166017833Y-87072193D01*
X165990179Y-87277214D01*
X165986857Y-87313257D01*
X165979453Y-87559913D01*
X165230389Y-87559913D01*
X165229698Y-87508936D01*
X165233300Y-87345917D01*
X165242175Y-87185627D01*
X165255911Y-87040204D01*
X165274097Y-86921786D01*
X165284010Y-86874827D01*
X165359442Y-86610513D01*
X165462636Y-86372411D01*
X165592947Y-86161432D01*
X165749729Y-85978486D01*
X165932337Y-85824483D01*
X166140124Y-85700333D01*
X166276241Y-85639446D01*
X166411542Y-85593917D01*
X166555058Y-85562057D01*
X166716965Y-85541612D01*
X166907436Y-85530327D01*
X166993389Y-85528357D01*
X167265543Y-85539011D01*
X167511612Y-85577057D01*
X167734095Y-85643386D01*
X167935493Y-85738887D01*
X168118304Y-85864451D01*
X168285029Y-86020969D01*
X168343249Y-86086781D01*
X168463782Y-86248668D01*
X168562407Y-86424614D01*
X168643244Y-86622658D01*
X168710414Y-86850837D01*
X168723286Y-86913566D01*
X168739435Y-87032228D01*
X168751999Y-87173865D01*
X168760622Y-87328805D01*
X168763326Y-87427917D01*
X168764948Y-87487375D01*
G37*
G36*
X152021284Y-85706313D02*
G01*
X152025438Y-85720001D01*
X152040427Y-85770902D01*
X152064776Y-85854388D01*
X152097546Y-85967215D01*
X152137797Y-86106137D01*
X152184592Y-86267910D01*
X152236991Y-86449290D01*
X152294055Y-86647032D01*
X152354845Y-86857890D01*
X152418422Y-87078621D01*
X152459236Y-87220235D01*
X152520828Y-87433344D01*
X152578941Y-87633710D01*
X152632656Y-87818196D01*
X152681052Y-87983668D01*
X152723208Y-88126989D01*
X152758204Y-88245026D01*
X152785120Y-88334641D01*
X152803035Y-88392701D01*
X152811029Y-88416070D01*
X152816381Y-88424572D01*
X152830467Y-88427702D01*
X152847900Y-88396395D01*
X152852511Y-88382935D01*
X152867832Y-88333103D01*
X152892350Y-88250692D01*
X152925141Y-88138890D01*
X152965281Y-88000886D01*
X153011847Y-87839869D01*
X153063915Y-87659026D01*
X153120561Y-87461548D01*
X153180861Y-87250621D01*
X153243893Y-87029434D01*
X153286201Y-86880746D01*
X153347087Y-86666806D01*
X153404369Y-86465576D01*
X153457151Y-86280198D01*
X153504540Y-86113816D01*
X153545638Y-85969570D01*
X153579553Y-85850603D01*
X153605387Y-85760058D01*
X153622246Y-85701076D01*
X153629235Y-85676801D01*
X153629563Y-85675750D01*
X153636524Y-85664344D01*
X153652301Y-85655859D01*
X153681982Y-85649870D01*
X153730657Y-85645951D01*
X153803414Y-85643678D01*
X153905341Y-85642626D01*
X154041528Y-85642370D01*
X154073070Y-85642395D01*
X154190898Y-85642962D01*
X154292685Y-85644185D01*
X154372604Y-85645945D01*
X154424829Y-85648122D01*
X154443533Y-85650597D01*
X154441849Y-85656188D01*
X154429467Y-85693960D01*
X154405770Y-85765160D01*
X154371609Y-85867259D01*
X154327836Y-85997725D01*
X154275301Y-86154028D01*
X154214857Y-86333639D01*
X154147354Y-86534025D01*
X154073643Y-86752657D01*
X153994576Y-86987004D01*
X153911005Y-87234537D01*
X153823780Y-87492724D01*
X153777982Y-87628265D01*
X153692557Y-87881191D01*
X153611227Y-88122130D01*
X153534845Y-88348554D01*
X153464261Y-88557932D01*
X153400327Y-88747738D01*
X153343894Y-88915441D01*
X153295812Y-89058513D01*
X153256933Y-89174425D01*
X153228109Y-89260649D01*
X153210190Y-89314655D01*
X153204028Y-89333916D01*
X153186077Y-89336180D01*
X153134809Y-89338194D01*
X153056363Y-89339786D01*
X152956883Y-89340832D01*
X152842513Y-89341208D01*
X152480998Y-89341208D01*
X152417430Y-89159217D01*
X152413754Y-89148688D01*
X152374438Y-89035440D01*
X152326786Y-88897261D01*
X152271850Y-88737259D01*
X152210681Y-88558542D01*
X152144332Y-88364221D01*
X152073854Y-88157402D01*
X152000299Y-87941195D01*
X151924719Y-87718709D01*
X151848167Y-87493053D01*
X151771694Y-87267334D01*
X151696352Y-87044663D01*
X151623193Y-86828147D01*
X151553268Y-86620895D01*
X151487631Y-86426016D01*
X151427332Y-86246619D01*
X151373424Y-86085813D01*
X151326959Y-85946705D01*
X151288988Y-85832406D01*
X151260563Y-85746023D01*
X151242737Y-85690665D01*
X151236561Y-85669442D01*
X151236579Y-85668849D01*
X151243909Y-85659406D01*
X151267673Y-85652407D01*
X151312451Y-85647529D01*
X151382826Y-85644447D01*
X151483379Y-85642835D01*
X151618691Y-85642370D01*
X152000822Y-85642370D01*
X152021284Y-85706313D01*
G37*
G36*
X163168905Y-85579052D02*
G01*
X163318118Y-85594400D01*
X163440498Y-85618755D01*
X163625270Y-85681538D01*
X163839423Y-85789722D01*
X164030529Y-85928834D01*
X164197595Y-86097658D01*
X164339627Y-86294976D01*
X164455633Y-86519573D01*
X164544617Y-86770230D01*
X164605587Y-87045732D01*
X164612438Y-87094880D01*
X164623913Y-87222138D01*
X164631095Y-87370507D01*
X164633863Y-87527955D01*
X164632096Y-87682452D01*
X164625675Y-87821967D01*
X164614479Y-87934469D01*
X164588521Y-88084540D01*
X164517615Y-88350421D01*
X164419106Y-88589461D01*
X164293634Y-88800948D01*
X164141836Y-88984168D01*
X163964351Y-89138408D01*
X163761817Y-89262957D01*
X163534872Y-89357101D01*
X163284154Y-89420127D01*
X163199794Y-89429871D01*
X163082561Y-89434426D01*
X162949044Y-89433288D01*
X162810343Y-89426976D01*
X162677562Y-89416011D01*
X162561803Y-89400913D01*
X162474170Y-89382200D01*
X162465925Y-89379772D01*
X162275383Y-89308532D01*
X162094748Y-89213273D01*
X161933655Y-89099840D01*
X161801739Y-88974084D01*
X161752169Y-88913704D01*
X161657633Y-88777083D01*
X161571513Y-88625712D01*
X161498914Y-88469972D01*
X161444940Y-88320244D01*
X161414696Y-88186910D01*
X161403017Y-88101704D01*
X161775638Y-88101704D01*
X162148258Y-88101704D01*
X162192258Y-88238319D01*
X162200199Y-88261987D01*
X162275985Y-88426025D01*
X162377672Y-88561004D01*
X162503407Y-88665679D01*
X162651338Y-88738805D01*
X162819612Y-88779137D01*
X163006378Y-88785430D01*
X163077751Y-88780177D01*
X163159538Y-88768125D01*
X163230001Y-88747292D01*
X163305718Y-88713704D01*
X163381326Y-88671490D01*
X163524135Y-88559145D01*
X163644907Y-88416215D01*
X163741686Y-88245264D01*
X163812520Y-88048857D01*
X163815028Y-88039634D01*
X163829802Y-87979084D01*
X163840471Y-87918746D01*
X163847666Y-87850708D01*
X163852022Y-87767061D01*
X163854171Y-87659895D01*
X163854747Y-87521301D01*
X163854734Y-87496969D01*
X163853954Y-87363878D01*
X163851495Y-87260877D01*
X163846718Y-87179982D01*
X163838979Y-87113208D01*
X163827637Y-87052571D01*
X163812051Y-86990085D01*
X163760232Y-86831670D01*
X163673319Y-86648280D01*
X163566189Y-86492752D01*
X163441002Y-86368089D01*
X163299915Y-86277295D01*
X163269877Y-86262920D01*
X163224606Y-86244490D01*
X163179045Y-86232751D01*
X163123431Y-86226213D01*
X163048000Y-86223384D01*
X162942990Y-86222773D01*
X162892634Y-86222879D01*
X162800728Y-86224419D01*
X162734017Y-86228930D01*
X162682643Y-86237845D01*
X162636751Y-86252597D01*
X162586485Y-86274619D01*
X162459774Y-86347196D01*
X162345913Y-86447764D01*
X162255517Y-86574562D01*
X162184005Y-86732803D01*
X162140730Y-86852362D01*
X161764711Y-86857706D01*
X161388691Y-86863049D01*
X161388691Y-86811359D01*
X161389715Y-86788716D01*
X161404135Y-86701928D01*
X161432755Y-86596831D01*
X161471939Y-86485540D01*
X161518054Y-86380170D01*
X161573185Y-86277110D01*
X161704212Y-86087307D01*
X161859521Y-85927606D01*
X162040452Y-85796950D01*
X162248346Y-85694284D01*
X162484544Y-85618551D01*
X162533177Y-85607789D01*
X162674995Y-85587081D01*
X162835871Y-85575391D01*
X163004332Y-85572715D01*
X163168905Y-85579052D01*
G37*
G36*
X156212595Y-85750593D02*
G01*
X156303014Y-85751779D01*
X156368245Y-85756562D01*
X156420491Y-85767291D01*
X156471951Y-85786313D01*
X156534829Y-85815977D01*
X156677887Y-85903005D01*
X156831767Y-86035117D01*
X156980137Y-86203593D01*
X157121687Y-86406929D01*
X157255106Y-86643618D01*
X157260069Y-86653381D01*
X157419191Y-86999640D01*
X157561382Y-87377470D01*
X157686893Y-87787773D01*
X157795971Y-88231453D01*
X157888865Y-88709415D01*
X157965826Y-89222560D01*
X157973980Y-89283305D01*
X157988336Y-89381570D01*
X158001551Y-89461815D01*
X158012432Y-89517025D01*
X158019788Y-89540185D01*
X158034753Y-89545499D01*
X158082616Y-89554925D01*
X158154225Y-89565658D01*
X158240744Y-89576254D01*
X158342577Y-89588240D01*
X158718475Y-89645449D01*
X159084161Y-89721198D01*
X159434980Y-89814006D01*
X159766274Y-89922390D01*
X160073389Y-90044868D01*
X160351668Y-90179958D01*
X160596454Y-90326177D01*
X160600119Y-90328626D01*
X160735472Y-90422088D01*
X160870218Y-90521390D01*
X161006964Y-90628948D01*
X161148318Y-90747179D01*
X161296887Y-90878496D01*
X161455278Y-91025317D01*
X161626100Y-91190057D01*
X161811958Y-91375131D01*
X162015462Y-91582954D01*
X162239218Y-91815943D01*
X162485833Y-92076513D01*
X162595939Y-92192466D01*
X162788091Y-92388750D01*
X162958083Y-92553649D01*
X163106398Y-92687570D01*
X163233517Y-92790917D01*
X163339924Y-92864094D01*
X163426100Y-92907507D01*
X163492529Y-92921561D01*
X163540803Y-92911113D01*
X163609165Y-92864126D01*
X163677986Y-92781079D01*
X163746217Y-92663846D01*
X163812811Y-92514303D01*
X163876722Y-92334325D01*
X163936902Y-92125789D01*
X163960856Y-92031091D01*
X163986463Y-91922928D01*
X164013070Y-91802796D01*
X164041589Y-91666221D01*
X164072929Y-91508728D01*
X164107998Y-91325842D01*
X164147707Y-91113089D01*
X164192965Y-90865995D01*
X164193694Y-90861989D01*
X164249937Y-90571126D01*
X164306411Y-90317558D01*
X164364225Y-90099267D01*
X164424484Y-89914235D01*
X164488296Y-89760444D01*
X164556767Y-89635876D01*
X164631006Y-89538514D01*
X164712119Y-89466337D01*
X164801214Y-89417330D01*
X164899397Y-89389474D01*
X165007775Y-89380750D01*
X165105935Y-89388451D01*
X165235093Y-89427279D01*
X165350209Y-89500202D01*
X165453464Y-89608730D01*
X165547039Y-89754376D01*
X165555383Y-89769903D01*
X165595129Y-89849136D01*
X165632950Y-89934768D01*
X165669887Y-90030381D01*
X165706983Y-90139556D01*
X165745283Y-90265876D01*
X165785829Y-90412921D01*
X165829664Y-90584275D01*
X165877831Y-90783518D01*
X165931374Y-91014233D01*
X165991335Y-91280001D01*
X165991922Y-91282627D01*
X166045211Y-91516868D01*
X166092870Y-91717336D01*
X166134673Y-91883205D01*
X166170395Y-92013652D01*
X166199810Y-92107849D01*
X166222692Y-92164973D01*
X166238814Y-92184198D01*
X166239374Y-92184181D01*
X166255697Y-92168514D01*
X166272172Y-92122309D01*
X166289118Y-92043814D01*
X166306857Y-91931272D01*
X166325708Y-91782930D01*
X166345991Y-91597032D01*
X166358105Y-91481312D01*
X166381354Y-91273737D01*
X166403577Y-91098701D01*
X166425657Y-90951688D01*
X166448477Y-90828184D01*
X166472922Y-90723673D01*
X166499875Y-90633641D01*
X166530219Y-90553572D01*
X166564839Y-90478953D01*
X166605341Y-90407795D01*
X166705871Y-90284091D01*
X166827116Y-90193225D01*
X166967035Y-90136178D01*
X167123585Y-90113935D01*
X167294722Y-90127479D01*
X167330081Y-90134489D01*
X167483125Y-90182578D01*
X167626317Y-90258896D01*
X167761437Y-90365293D01*
X167890263Y-90503623D01*
X168014575Y-90675737D01*
X168136154Y-90883488D01*
X168256778Y-91128727D01*
X168297502Y-91221027D01*
X168342291Y-91337394D01*
X168367651Y-91431331D01*
X168374598Y-91509326D01*
X168364147Y-91577870D01*
X168337313Y-91643451D01*
X168301391Y-91691099D01*
X168231384Y-91746057D01*
X168148663Y-91785460D01*
X168068242Y-91800542D01*
X168047428Y-91798713D01*
X167985119Y-91782944D01*
X167919932Y-91756274D01*
X167903865Y-91748203D01*
X167877563Y-91733940D01*
X167855253Y-91717577D01*
X167833915Y-91694351D01*
X167810535Y-91659502D01*
X167782092Y-91608271D01*
X167745572Y-91535896D01*
X167697955Y-91437618D01*
X167636225Y-91308675D01*
X167595454Y-91226684D01*
X167506181Y-91068448D01*
X167417326Y-90938907D01*
X167331294Y-90841364D01*
X167250491Y-90779119D01*
X167166582Y-90731960D01*
X167131968Y-90774707D01*
X167111478Y-90809385D01*
X167083099Y-90891475D01*
X167056211Y-91011604D01*
X167030722Y-91170201D01*
X167006543Y-91367699D01*
X166992337Y-91496457D01*
X166976005Y-91640964D01*
X166959762Y-91781740D01*
X166945629Y-91901085D01*
X166931876Y-92005455D01*
X166889771Y-92243182D01*
X166836401Y-92444746D01*
X166770857Y-92611504D01*
X166692228Y-92744813D01*
X166599604Y-92846033D01*
X166492075Y-92916520D01*
X166368730Y-92957633D01*
X166228660Y-92970729D01*
X166138251Y-92965864D01*
X166030278Y-92940484D01*
X165937813Y-92888899D01*
X165849270Y-92806081D01*
X165809527Y-92758393D01*
X165764540Y-92693303D01*
X165721608Y-92616813D01*
X165679734Y-92525885D01*
X165637923Y-92417482D01*
X165595179Y-92288566D01*
X165550507Y-92136099D01*
X165502910Y-91957044D01*
X165451393Y-91748364D01*
X165394960Y-91507021D01*
X165332616Y-91229976D01*
X165327225Y-91205722D01*
X165269189Y-90951519D01*
X165215900Y-90731200D01*
X165167576Y-90545473D01*
X165124431Y-90395049D01*
X165086680Y-90280635D01*
X165054539Y-90202943D01*
X165028223Y-90162680D01*
X165007948Y-90160557D01*
X165004869Y-90164332D01*
X164986473Y-90205866D01*
X164962692Y-90284860D01*
X164933804Y-90400096D01*
X164900084Y-90550352D01*
X164861810Y-90734407D01*
X164819257Y-90951042D01*
X164772702Y-91199036D01*
X164743580Y-91356545D01*
X164703330Y-91570957D01*
X164667935Y-91754259D01*
X164636349Y-91911118D01*
X164607527Y-92046201D01*
X164580424Y-92164174D01*
X164553995Y-92269704D01*
X164527196Y-92367459D01*
X164498980Y-92462104D01*
X164468303Y-92558306D01*
X164394651Y-92765294D01*
X164308145Y-92963736D01*
X164215351Y-93128981D01*
X164113795Y-93264268D01*
X164001005Y-93372838D01*
X163874506Y-93457930D01*
X163731826Y-93522782D01*
X163727105Y-93524409D01*
X163669040Y-93536919D01*
X163589315Y-93546001D01*
X163503718Y-93549786D01*
X163423890Y-93547129D01*
X163320676Y-93533162D01*
X163217053Y-93505696D01*
X163110626Y-93462991D01*
X162998997Y-93403309D01*
X162879772Y-93324908D01*
X162750555Y-93226050D01*
X162608949Y-93104995D01*
X162452559Y-92960002D01*
X162278988Y-92789333D01*
X162085842Y-92591247D01*
X161870723Y-92364004D01*
X161773596Y-92260718D01*
X161670438Y-92152128D01*
X161578277Y-92056288D01*
X161500263Y-91976422D01*
X161439545Y-91915749D01*
X161399276Y-91877493D01*
X161382606Y-91864874D01*
X161370448Y-91879432D01*
X161347777Y-91921834D01*
X161321478Y-91981394D01*
X161288233Y-92052773D01*
X161199765Y-92195967D01*
X161083090Y-92343439D01*
X160943884Y-92488968D01*
X160787825Y-92626336D01*
X160620587Y-92749322D01*
X160481257Y-92836773D01*
X160183561Y-92994714D01*
X159852939Y-93135617D01*
X159491370Y-93258847D01*
X159100830Y-93363765D01*
X158683295Y-93449734D01*
X158240744Y-93516119D01*
X158194819Y-93520855D01*
X158085015Y-93528204D01*
X157946466Y-93533997D01*
X157785978Y-93538235D01*
X157610358Y-93540916D01*
X157426412Y-93542041D01*
X157240947Y-93541611D01*
X157060768Y-93539624D01*
X156892682Y-93536082D01*
X156743496Y-93530983D01*
X156620016Y-93524329D01*
X156529048Y-93516119D01*
X156465815Y-93508052D01*
X156032730Y-93440230D01*
X155625853Y-93353981D01*
X155246667Y-93249872D01*
X154896658Y-93128469D01*
X154577307Y-92990339D01*
X154290101Y-92836049D01*
X154036522Y-92666164D01*
X153818055Y-92481252D01*
X153816022Y-92479300D01*
X153650209Y-92300883D01*
X153522802Y-92120718D01*
X153432868Y-91936901D01*
X153379474Y-91747531D01*
X153361689Y-91550705D01*
X153362569Y-91501104D01*
X153385616Y-91310058D01*
X153441151Y-91128545D01*
X153530835Y-90953142D01*
X153656327Y-90780424D01*
X153819287Y-90606969D01*
X153860514Y-90567912D01*
X153965663Y-90475008D01*
X154055005Y-90408763D01*
X154134501Y-90365722D01*
X154210110Y-90342431D01*
X154287792Y-90335435D01*
X154351166Y-90338447D01*
X154416504Y-90354718D01*
X154481634Y-90390642D01*
X154532214Y-90431108D01*
X154597093Y-90517394D01*
X154631277Y-90616753D01*
X154634958Y-90722065D01*
X154608332Y-90826210D01*
X154551593Y-90922068D01*
X154464935Y-91002521D01*
X154437342Y-91022874D01*
X154361118Y-91088469D01*
X154281588Y-91167461D01*
X154207349Y-91250466D01*
X154146995Y-91328100D01*
X154109121Y-91390979D01*
X154107444Y-91394712D01*
X154076387Y-91493267D01*
X154074991Y-91588360D01*
X154104766Y-91684990D01*
X154167224Y-91788156D01*
X154263876Y-91902858D01*
X154390908Y-92023121D01*
X154582904Y-92165815D01*
X154807380Y-92297622D01*
X155061107Y-92417566D01*
X155340855Y-92524676D01*
X155643394Y-92617978D01*
X155965493Y-92696498D01*
X156303923Y-92759264D01*
X156655453Y-92805301D01*
X157016854Y-92833638D01*
X157384896Y-92843299D01*
X157677212Y-92837202D01*
X158040252Y-92812650D01*
X158394090Y-92770196D01*
X158735496Y-92710812D01*
X159061240Y-92635472D01*
X159368092Y-92545150D01*
X159652821Y-92440817D01*
X159912198Y-92323449D01*
X160142993Y-92194017D01*
X160341975Y-92053496D01*
X160505916Y-91902858D01*
X160562455Y-91839132D01*
X160643724Y-91725634D01*
X160688716Y-91620273D01*
X160697431Y-91518374D01*
X160669870Y-91415260D01*
X160606031Y-91306255D01*
X160505916Y-91186684D01*
X160502321Y-91182856D01*
X160337850Y-91032644D01*
X160137163Y-90891643D01*
X159902500Y-90760973D01*
X159636102Y-90641756D01*
X159340213Y-90535112D01*
X159017074Y-90442163D01*
X158885374Y-90410058D01*
X158558398Y-90343671D01*
X158225487Y-90295715D01*
X157879076Y-90265445D01*
X157511604Y-90252116D01*
X157115507Y-90254984D01*
X157093969Y-90255541D01*
X156933480Y-90259381D01*
X156806721Y-90261130D01*
X156708687Y-90259988D01*
X156634372Y-90255156D01*
X156578770Y-90245836D01*
X156536875Y-90231227D01*
X156503681Y-90210531D01*
X156474182Y-90182949D01*
X156443373Y-90147682D01*
X156388919Y-90060264D01*
X156361018Y-89955258D01*
X156365313Y-89848792D01*
X156400216Y-89748648D01*
X156464137Y-89662611D01*
X156555488Y-89598466D01*
X156570448Y-89591596D01*
X156612446Y-89576639D01*
X156664026Y-89565461D01*
X156732629Y-89557047D01*
X156825697Y-89550377D01*
X156950673Y-89544435D01*
X157002514Y-89542148D01*
X157120196Y-89535286D01*
X157202210Y-89527387D01*
X157251258Y-89518136D01*
X157270040Y-89507220D01*
X157271688Y-89484708D01*
X157268001Y-89426788D01*
X157258866Y-89341183D01*
X157245179Y-89233966D01*
X157227838Y-89111211D01*
X157207742Y-88978991D01*
X157185787Y-88843379D01*
X157162872Y-88710448D01*
X157139894Y-88586273D01*
X157117751Y-88476926D01*
X157096442Y-88377566D01*
X157026804Y-88430681D01*
X157023340Y-88433266D01*
X156939017Y-88474272D01*
X156837831Y-88493178D01*
X156735339Y-88488787D01*
X156647096Y-88459902D01*
X156621571Y-88444124D01*
X156549822Y-88371067D01*
X156505503Y-88272185D01*
X156490346Y-88150890D01*
X156502148Y-88039541D01*
X156542877Y-87939289D01*
X156611620Y-87866305D01*
X156707285Y-87821699D01*
X156828779Y-87806584D01*
X156877290Y-87804737D01*
X156924275Y-87797541D01*
X156942216Y-87786594D01*
X156939847Y-87772481D01*
X156925334Y-87723255D01*
X156900002Y-87649130D01*
X156866626Y-87557377D01*
X156827977Y-87455267D01*
X156786829Y-87350074D01*
X156745954Y-87249069D01*
X156708124Y-87159524D01*
X156676114Y-87088711D01*
X156663040Y-87061891D01*
X156608990Y-86958416D01*
X156549278Y-86852673D01*
X156494609Y-86763826D01*
X156459675Y-86713550D01*
X156399060Y-86635941D01*
X156335844Y-86564077D01*
X156276341Y-86504567D01*
X156226867Y-86464016D01*
X156193735Y-86449031D01*
X156188469Y-86450053D01*
X156155168Y-86471485D01*
X156106346Y-86515404D01*
X156048593Y-86574783D01*
X155988501Y-86642594D01*
X155932659Y-86711811D01*
X155887658Y-86775404D01*
X155840879Y-86854861D01*
X155787334Y-86956256D01*
X155729860Y-87073114D01*
X155671187Y-87199123D01*
X155614047Y-87327971D01*
X155561172Y-87453347D01*
X155515293Y-87568938D01*
X155479140Y-87668432D01*
X155455446Y-87745518D01*
X155446941Y-87793885D01*
X155457405Y-87806620D01*
X155496731Y-87812831D01*
X155569907Y-87811251D01*
X155575618Y-87810952D01*
X155695728Y-87820369D01*
X155791316Y-87860284D01*
X155861135Y-87929486D01*
X155903940Y-88026759D01*
X155918486Y-88150890D01*
X155918464Y-88156065D01*
X155902796Y-88279160D01*
X155858897Y-88375433D01*
X155788071Y-88443610D01*
X155691620Y-88482420D01*
X155570845Y-88490590D01*
X155548305Y-88489115D01*
X155477974Y-88479333D01*
X155424676Y-88458631D01*
X155370691Y-88420832D01*
X155292567Y-88358050D01*
X155261440Y-88500403D01*
X155249633Y-88553542D01*
X155220910Y-88671332D01*
X155193579Y-88759134D01*
X155164235Y-88823413D01*
X155129472Y-88870638D01*
X155085884Y-88907276D01*
X155030067Y-88939794D01*
X155012699Y-88947627D01*
X154926434Y-88966130D01*
X154827572Y-88963976D01*
X154731912Y-88942685D01*
X154655247Y-88903775D01*
X154606939Y-88861512D01*
X154566726Y-88809432D01*
X154540530Y-88747598D01*
X154528088Y-88671413D01*
X154529131Y-88576279D01*
X154543395Y-88457600D01*
X154570612Y-88310778D01*
X154610517Y-88131216D01*
X154672889Y-87881053D01*
X154772953Y-87535851D01*
X154882971Y-87215454D01*
X155001973Y-86921673D01*
X155128987Y-86656318D01*
X155263044Y-86421200D01*
X155403171Y-86218128D01*
X155548399Y-86048914D01*
X155697756Y-85915367D01*
X155850272Y-85819299D01*
X155868103Y-85810444D01*
X155928331Y-85782378D01*
X155978877Y-85764802D01*
X156031999Y-85755272D01*
X156099952Y-85751346D01*
X156194992Y-85750581D01*
X156212595Y-85750593D01*
G37*
G36*
X187621985Y-83842563D02*
G01*
X187618969Y-84117323D01*
X187593433Y-84488898D01*
X187578529Y-84636614D01*
X187537262Y-84846283D01*
X187462152Y-84980188D01*
X187333604Y-85053680D01*
X187132022Y-85082108D01*
X186837810Y-85080824D01*
X186733829Y-85078234D01*
X186523146Y-85077864D01*
X186370303Y-85084462D01*
X186302888Y-85097185D01*
X186305473Y-85113205D01*
X186376526Y-85165730D01*
X186511562Y-85231884D01*
X186549312Y-85247930D01*
X186852202Y-85378201D01*
X187067837Y-85475620D01*
X187212083Y-85549040D01*
X187300804Y-85607318D01*
X187349865Y-85659307D01*
X187375133Y-85713862D01*
X187380362Y-85829547D01*
X187294106Y-85959989D01*
X187227630Y-86014503D01*
X187125776Y-86056559D01*
X186972336Y-86078220D01*
X186736625Y-86086446D01*
X186577554Y-86089217D01*
X186312893Y-86099910D01*
X186159228Y-86119914D01*
X186115142Y-86152797D01*
X186179216Y-86202130D01*
X186350034Y-86271480D01*
X186626176Y-86364416D01*
X186711808Y-86392424D01*
X186973149Y-86487463D01*
X187143709Y-86574262D01*
X187238945Y-86666248D01*
X187274317Y-86776845D01*
X187265282Y-86919480D01*
X187254008Y-87003837D01*
X187258593Y-87099791D01*
X187301976Y-87113743D01*
X187302969Y-87113346D01*
X187337079Y-87043793D01*
X187381961Y-86862257D01*
X187437501Y-86569347D01*
X187503582Y-86165674D01*
X187580088Y-85651846D01*
X187652368Y-85160838D01*
X187723506Y-84715469D01*
X187788611Y-84362932D01*
X187851028Y-84092915D01*
X187899661Y-83940412D01*
X188148525Y-83940412D01*
X188174917Y-84008551D01*
X188251308Y-84059580D01*
X188329159Y-84029302D01*
X188364811Y-83921529D01*
X188341535Y-83876563D01*
X188247523Y-83846102D01*
X188172523Y-83862501D01*
X188148525Y-83940412D01*
X187899661Y-83940412D01*
X187914108Y-83895110D01*
X187981197Y-83759207D01*
X188055643Y-83674898D01*
X188140795Y-83631872D01*
X188240000Y-83619821D01*
X188253641Y-83620056D01*
X188424669Y-83669746D01*
X188540534Y-83784985D01*
X188585965Y-83921529D01*
X188590529Y-83935247D01*
X188563946Y-84090007D01*
X188450078Y-84218740D01*
X188345454Y-84267788D01*
X188169869Y-84276199D01*
X188152288Y-84271329D01*
X188112687Y-84259622D01*
X188080490Y-84258423D01*
X188053112Y-84279011D01*
X188027968Y-84332666D01*
X188002475Y-84430668D01*
X187974046Y-84584295D01*
X187940098Y-84804827D01*
X187898046Y-85103544D01*
X187845304Y-85491725D01*
X187779289Y-85980650D01*
X187593715Y-87351501D01*
X187596873Y-87354562D01*
X187776409Y-87528575D01*
X187779697Y-87531773D01*
X187964541Y-87760728D01*
X188111528Y-88054232D01*
X188222757Y-88421332D01*
X188300330Y-88871074D01*
X188346346Y-89412507D01*
X188351600Y-89616258D01*
X188362906Y-90054676D01*
X188364811Y-90577950D01*
X187609881Y-90577950D01*
X187505057Y-90578094D01*
X187221395Y-90581313D01*
X187025436Y-90590508D01*
X186897632Y-90607980D01*
X186818436Y-90636026D01*
X186768297Y-90676948D01*
X186765884Y-90679745D01*
X186743168Y-90718866D01*
X186747159Y-90766296D01*
X186787484Y-90832845D01*
X186787610Y-90833053D01*
X186874274Y-90930153D01*
X187016906Y-91068614D01*
X187225258Y-91259452D01*
X187509084Y-91513685D01*
X188336526Y-92251423D01*
X188353012Y-92753751D01*
X188355589Y-92850863D01*
X188356695Y-93073858D01*
X188350852Y-93245928D01*
X188338817Y-93336030D01*
X188298600Y-93362656D01*
X188210956Y-93319848D01*
X188062495Y-93199082D01*
X188048992Y-93187159D01*
X187919084Y-93072420D01*
X187724522Y-92900550D01*
X187482681Y-92686900D01*
X187210939Y-92446821D01*
X186926674Y-92195665D01*
X186036495Y-91409148D01*
X185461121Y-91969637D01*
X185204672Y-92219103D01*
X184927022Y-92488611D01*
X184663422Y-92743968D01*
X184447328Y-92952734D01*
X184008909Y-93375341D01*
X184008909Y-92779324D01*
X184008909Y-92197315D01*
X184192251Y-92197315D01*
X184238018Y-92217817D01*
X184269136Y-92204820D01*
X184377016Y-92129161D01*
X184538868Y-91999434D01*
X184737391Y-91831151D01*
X184955287Y-91639820D01*
X185175253Y-91440954D01*
X185379991Y-91250061D01*
X185552199Y-91082654D01*
X185674579Y-90954241D01*
X185729829Y-90880334D01*
X185735271Y-90865479D01*
X185741472Y-90832845D01*
X185722696Y-90829982D01*
X185669224Y-90864690D01*
X185571340Y-90944772D01*
X185419325Y-91078029D01*
X185203461Y-91272263D01*
X184914031Y-91535275D01*
X184788222Y-91649773D01*
X184573463Y-91844898D01*
X184394935Y-92006691D01*
X184268428Y-92120852D01*
X184209733Y-92173081D01*
X184192251Y-92197315D01*
X184008909Y-92197315D01*
X184008909Y-92183307D01*
X184865403Y-91394771D01*
X185721896Y-90606235D01*
X184860128Y-90590591D01*
X183998359Y-90574947D01*
X184018824Y-89619127D01*
X184208678Y-89619127D01*
X184218905Y-89624503D01*
X184317494Y-89638241D01*
X184506667Y-89649728D01*
X184770753Y-89658977D01*
X185094084Y-89665999D01*
X185460990Y-89670806D01*
X185855801Y-89673408D01*
X186262847Y-89673818D01*
X186666460Y-89672047D01*
X187050969Y-89668106D01*
X187400706Y-89662007D01*
X187700000Y-89653762D01*
X187933181Y-89643380D01*
X188084581Y-89630875D01*
X188138530Y-89616258D01*
X188114426Y-89594091D01*
X188005616Y-89569322D01*
X187838826Y-89559687D01*
X187539122Y-89559687D01*
X187473330Y-89038451D01*
X187444695Y-88835734D01*
X187397461Y-88607746D01*
X187335580Y-88436659D01*
X187249003Y-88288896D01*
X187123396Y-88135889D01*
X186871403Y-87948681D01*
X186554790Y-87841029D01*
X186160731Y-87807255D01*
X185959268Y-87815009D01*
X185607666Y-87878036D01*
X185334454Y-88008180D01*
X185127968Y-88209989D01*
X185048687Y-88321973D01*
X184969980Y-88461392D01*
X184919763Y-88611179D01*
X184887593Y-88805581D01*
X184863028Y-89078841D01*
X184829176Y-89531402D01*
X184502333Y-89548415D01*
X184362829Y-89560744D01*
X184240695Y-89586849D01*
X184208678Y-89619127D01*
X184018824Y-89619127D01*
X184021037Y-89515758D01*
X184023617Y-89403895D01*
X184039474Y-88968233D01*
X184066301Y-88621650D01*
X184109315Y-88344567D01*
X184173733Y-88117405D01*
X184264773Y-87920584D01*
X184387650Y-87734526D01*
X184402681Y-87716211D01*
X184579671Y-87716211D01*
X184619595Y-87716062D01*
X184727657Y-87673304D01*
X184864878Y-87599902D01*
X184994982Y-87515758D01*
X185081694Y-87440775D01*
X185082788Y-87439452D01*
X185131376Y-87354562D01*
X185104565Y-87321599D01*
X185023408Y-87333825D01*
X184908959Y-87384506D01*
X184782269Y-87466905D01*
X184664393Y-87574287D01*
X184595962Y-87663544D01*
X184579671Y-87716211D01*
X184402681Y-87716211D01*
X184547582Y-87539649D01*
X184805562Y-87245001D01*
X184520376Y-86852905D01*
X184472711Y-86786138D01*
X184351410Y-86603429D01*
X184266909Y-86456781D01*
X184235189Y-86373085D01*
X184235576Y-86365634D01*
X184258772Y-86260107D01*
X184310740Y-86086940D01*
X184381549Y-85879619D01*
X184391252Y-85852527D01*
X184463435Y-85626505D01*
X184487570Y-85484832D01*
X184466404Y-85412372D01*
X184411352Y-85297222D01*
X184405948Y-85119178D01*
X184406008Y-85118930D01*
X184687751Y-85118930D01*
X184698959Y-85195324D01*
X184755635Y-85305612D01*
X184832646Y-85348800D01*
X184970602Y-85373496D01*
X185076827Y-85360155D01*
X185207391Y-85274677D01*
X185253452Y-85118930D01*
X185238629Y-85023327D01*
X185143653Y-84905820D01*
X184970602Y-84864365D01*
X184864376Y-84877705D01*
X184733812Y-84963184D01*
X184687751Y-85118930D01*
X184406008Y-85118930D01*
X184452272Y-84927023D01*
X184545218Y-84762857D01*
X184708013Y-84629440D01*
X184926674Y-84560913D01*
X185152289Y-84577981D01*
X185354827Y-84677694D01*
X185504261Y-84857099D01*
X185579493Y-85050782D01*
X185576958Y-85118930D01*
X185573171Y-85220750D01*
X185481798Y-85413548D01*
X185455363Y-85453564D01*
X185316242Y-85584366D01*
X185103916Y-85672946D01*
X184974785Y-85714540D01*
X184869726Y-85774765D01*
X184801186Y-85874753D01*
X184735345Y-86049010D01*
X184634003Y-86347155D01*
X184887757Y-86702759D01*
X185141511Y-87058363D01*
X185494475Y-86946285D01*
X185542521Y-86931423D01*
X185775807Y-86875554D01*
X186010044Y-86855144D01*
X186300000Y-86864640D01*
X186343261Y-86867679D01*
X186572245Y-86887879D01*
X186763679Y-86911087D01*
X186879844Y-86932865D01*
X186904731Y-86939725D01*
X186986629Y-86937118D01*
X187007127Y-86855490D01*
X186992645Y-86797318D01*
X186929472Y-86740872D01*
X186796904Y-86682907D01*
X186574425Y-86611870D01*
X186504219Y-86590033D01*
X186232813Y-86484923D01*
X186015585Y-86367565D01*
X185871407Y-86249677D01*
X185819154Y-86142977D01*
X185836088Y-86077545D01*
X185899442Y-85964152D01*
X185925034Y-85934709D01*
X185994005Y-85891811D01*
X186108485Y-85862179D01*
X186291016Y-85841047D01*
X186564141Y-85823650D01*
X187148553Y-85792958D01*
X186865702Y-85666984D01*
X186801747Y-85638326D01*
X186464821Y-85478455D01*
X186226641Y-85344492D01*
X186079521Y-85228814D01*
X186015775Y-85123802D01*
X186027717Y-85021831D01*
X186107659Y-84915280D01*
X186141080Y-84884472D01*
X186214742Y-84840594D01*
X186319372Y-84817666D01*
X186482265Y-84811406D01*
X186730713Y-84817533D01*
X187001887Y-84821715D01*
X187180123Y-84805111D01*
X187284094Y-84759272D01*
X187332910Y-84675765D01*
X187345682Y-84546157D01*
X187355849Y-84416221D01*
X187381904Y-84249164D01*
X187396447Y-84154455D01*
X187377400Y-84087421D01*
X187297049Y-84072382D01*
X187264903Y-84069794D01*
X187117347Y-84002080D01*
X186999025Y-83872931D01*
X186950557Y-83723273D01*
X186952410Y-83714131D01*
X187186832Y-83714131D01*
X187213225Y-83782271D01*
X187289615Y-83833300D01*
X187367466Y-83803021D01*
X187403118Y-83695248D01*
X187379842Y-83650282D01*
X187285830Y-83619821D01*
X187210830Y-83636220D01*
X187186832Y-83714131D01*
X186952410Y-83714131D01*
X186974598Y-83604672D01*
X187075943Y-83474986D01*
X187225425Y-83404207D01*
X187388948Y-83405812D01*
X187532415Y-83493279D01*
X187556967Y-83526543D01*
X187601609Y-83650381D01*
X187606366Y-83695248D01*
X187621985Y-83842563D01*
G37*
%TD*%
M02*
