%TF.GenerationSoftware,KiCad,Pcbnew,9.0.2*%
%TF.CreationDate,2025-08-29T05:40:04+02:00*%
%TF.ProjectId,Microphone_OCTAV,4d696372-6f70-4686-9f6e-655f4f435441,rev?*%
%TF.SameCoordinates,Original*%
%TF.FileFunction,Copper,L1,Top*%
%TF.FilePolarity,Positive*%
%FSLAX46Y46*%
G04 Gerber Fmt 4.6, Leading zero omitted, Abs format (unit mm)*
G04 Created by KiCad (PCBNEW 9.0.2) date 2025-08-29 05:40:04*
%MOMM*%
%LPD*%
G01*
G04 APERTURE LIST*
G04 Aperture macros list*
%AMRoundRect*
0 Rectangle with rounded corners*
0 $1 Rounding radius*
0 $2 $3 $4 $5 $6 $7 $8 $9 X,Y pos of 4 corners*
0 Add a 4 corners polygon primitive as box body*
4,1,4,$2,$3,$4,$5,$6,$7,$8,$9,$2,$3,0*
0 Add four circle primitives for the rounded corners*
1,1,$1+$1,$2,$3*
1,1,$1+$1,$4,$5*
1,1,$1+$1,$6,$7*
1,1,$1+$1,$8,$9*
0 Add four rect primitives between the rounded corners*
20,1,$1+$1,$2,$3,$4,$5,0*
20,1,$1+$1,$4,$5,$6,$7,0*
20,1,$1+$1,$6,$7,$8,$9,0*
20,1,$1+$1,$8,$9,$2,$3,0*%
%AMFreePoly0*
4,1,183,0.653452,0.815617,0.654999,0.812116,0.655000,0.812000,0.655000,0.512000,0.653536,0.508464,0.650000,0.507000,0.623180,0.507000,0.596571,0.505029,0.570816,0.501066,0.544028,0.496105,0.518325,0.490174,0.493591,0.482259,0.467771,0.473322,0.444014,0.463423,0.419238,0.452521,0.396534,0.439688,0.373708,0.425795,0.351932,0.410947,0.330158,0.394122,0.310398,0.377326,
0.272674,0.339602,0.255877,0.319841,0.239052,0.298068,0.224204,0.276291,0.210311,0.253466,0.197478,0.230761,0.186577,0.205986,0.176677,0.182228,0.167740,0.156408,0.159825,0.131674,0.153894,0.105971,0.148933,0.079183,0.144971,0.053428,0.143000,0.026820,0.143000,-0.026820,0.144971,-0.053428,0.148933,-0.079183,0.153894,-0.105971,0.159825,-0.131674,0.167740,-0.156408,
0.176677,-0.182228,0.186577,-0.205986,0.197478,-0.230761,0.210311,-0.253466,0.224204,-0.276291,0.239052,-0.298068,0.255877,-0.319841,0.272674,-0.339602,0.310398,-0.377326,0.330158,-0.394122,0.351932,-0.410947,0.373708,-0.425795,0.396534,-0.439688,0.419238,-0.452521,0.444010,-0.463421,0.467771,-0.473322,0.493591,-0.482259,0.518325,-0.490174,0.544028,-0.496105,0.570816,-0.501066,
0.596571,-0.505029,0.623180,-0.507000,0.650000,-0.507000,0.653536,-0.508464,0.654536,-0.509464,0.656000,-0.513000,0.655000,-0.515415,0.655000,-0.812500,0.653536,-0.816036,0.650000,-0.817500,0.648724,-0.816972,0.606884,-0.815999,0.606644,-0.815987,0.564644,-0.812987,0.564293,-0.812950,0.522293,-0.806950,0.522178,-0.806932,0.480178,-0.799932,0.479815,-0.799858,0.438815,-0.789858,
0.438596,-0.789799,0.397596,-0.777799,0.397348,-0.777719,0.357348,-0.763719,0.357002,-0.763583,0.317905,-0.746540,0.278905,-0.728540,0.278622,-0.728399,0.241622,-0.708399,0.241360,-0.708246,0.204360,-0.685246,0.204172,-0.685124,0.169172,-0.661124,0.168906,-0.660927,0.135834,-0.634870,0.102834,-0.607870,0.102584,-0.607651,0.071584,-0.578651,0.071349,-0.578416,0.042349,-0.547416,
0.042130,-0.547166,0.015130,-0.514166,-0.010927,-0.481094,-0.011124,-0.480828,-0.035124,-0.445828,-0.035246,-0.445640,-0.058246,-0.408640,-0.058399,-0.408378,-0.078399,-0.371378,-0.078540,-0.371095,-0.096540,-0.332095,-0.113583,-0.292998,-0.113719,-0.292652,-0.127719,-0.252652,-0.127799,-0.252404,-0.139799,-0.211404,-0.139858,-0.211185,-0.149858,-0.170185,-0.149932,-0.169822,-0.156932,-0.127822,
-0.156950,-0.127707,-0.162950,-0.085707,-0.162987,-0.085356,-0.165987,-0.043356,-0.165995,-0.043232,-0.167995,-0.000232,-0.167995,0.000232,-0.165995,0.043232,-0.165987,0.043356,-0.162987,0.085356,-0.162950,0.085707,-0.156950,0.127707,-0.156932,0.127822,-0.149932,0.169822,-0.149858,0.170185,-0.139858,0.211185,-0.139799,0.211404,-0.127799,0.252404,-0.127719,0.252652,-0.113719,0.292652,
-0.113583,0.292998,-0.096540,0.332095,-0.078540,0.371095,-0.078399,0.371378,-0.058399,0.408378,-0.058246,0.408640,-0.035246,0.445640,-0.035124,0.445828,-0.011124,0.480828,-0.010927,0.481094,0.015130,0.514166,0.042130,0.547166,0.042349,0.547416,0.071349,0.578416,0.071584,0.578651,0.102584,0.607651,0.102834,0.607870,0.135834,0.634870,0.168906,0.660927,0.169172,0.661124,
0.204172,0.685124,0.204360,0.685246,0.241360,0.708246,0.241622,0.708399,0.278622,0.728399,0.278905,0.728540,0.317905,0.746540,0.357002,0.763583,0.357348,0.763719,0.397348,0.777719,0.397596,0.777799,0.438596,0.789799,0.438815,0.789858,0.479815,0.799858,0.480178,0.799932,0.522178,0.806932,0.522293,0.806950,0.564293,0.812950,0.564644,0.812987,0.606644,0.815987,
0.606884,0.815999,0.649884,0.816999,0.653452,0.815617,0.653452,0.815617,$1*%
%AMFreePoly1*
4,1,183,-0.649884,0.816999,-0.606884,0.815999,-0.606644,0.815987,-0.564644,0.812987,-0.564293,0.812950,-0.522293,0.806950,-0.522178,0.806932,-0.480178,0.799932,-0.479815,0.799858,-0.438815,0.789858,-0.438596,0.789799,-0.397596,0.777799,-0.397348,0.777719,-0.357348,0.763719,-0.357002,0.763583,-0.317905,0.746540,-0.278905,0.728540,-0.278622,0.728399,-0.241622,0.708399,-0.241360,0.708246,
-0.204360,0.685246,-0.204172,0.685124,-0.169172,0.661124,-0.168906,0.660927,-0.135834,0.634870,-0.102834,0.607870,-0.102584,0.607651,-0.071584,0.578651,-0.071349,0.578416,-0.042349,0.547416,-0.042130,0.547166,-0.015130,0.514166,0.010927,0.481094,0.011124,0.480828,0.035124,0.445828,0.035246,0.445640,0.058246,0.408640,0.058399,0.408378,0.078399,0.371378,0.078540,0.371095,
0.096540,0.332095,0.113583,0.292998,0.113719,0.292652,0.127719,0.252652,0.127799,0.252404,0.139799,0.211404,0.139858,0.211185,0.149858,0.170185,0.149932,0.169822,0.156932,0.127822,0.156950,0.127707,0.162950,0.085707,0.162987,0.085356,0.165987,0.043356,0.165995,0.043232,0.167995,0.000232,0.167995,-0.000232,0.165995,-0.043232,0.165987,-0.043356,0.162987,-0.085356,
0.162950,-0.085707,0.156950,-0.127707,0.156932,-0.127822,0.149932,-0.169822,0.149858,-0.170185,0.139858,-0.211185,0.139799,-0.211404,0.127799,-0.252404,0.127719,-0.252652,0.113719,-0.292652,0.113583,-0.292998,0.096540,-0.332095,0.078540,-0.371095,0.078399,-0.371378,0.058399,-0.408378,0.058246,-0.408640,0.035246,-0.445640,0.035124,-0.445828,0.011124,-0.480828,0.010927,-0.481094,
-0.015130,-0.514166,-0.042130,-0.547166,-0.042349,-0.547416,-0.071349,-0.578416,-0.071584,-0.578651,-0.102584,-0.607651,-0.102834,-0.607870,-0.135834,-0.634870,-0.168906,-0.660927,-0.169172,-0.661124,-0.204172,-0.685124,-0.204360,-0.685246,-0.241360,-0.708246,-0.241622,-0.708399,-0.278622,-0.728399,-0.278905,-0.728540,-0.317905,-0.746540,-0.357002,-0.763583,-0.357348,-0.763719,-0.397348,-0.777719,
-0.397596,-0.777799,-0.438596,-0.789799,-0.438815,-0.789858,-0.479815,-0.799858,-0.480178,-0.799932,-0.522178,-0.806932,-0.522293,-0.806950,-0.564293,-0.812950,-0.564644,-0.812987,-0.606644,-0.815987,-0.606884,-0.815999,-0.648724,-0.816972,-0.650000,-0.817500,-0.653536,-0.816036,-0.655000,-0.812500,-0.655000,-0.515415,-0.656000,-0.513000,-0.654536,-0.509464,-0.653536,-0.508464,-0.650000,-0.507000,
-0.623180,-0.507000,-0.596571,-0.505029,-0.570816,-0.501066,-0.544028,-0.496105,-0.518325,-0.490174,-0.493591,-0.482259,-0.467771,-0.473322,-0.444010,-0.463421,-0.419238,-0.452521,-0.396534,-0.439688,-0.373708,-0.425795,-0.351932,-0.410947,-0.330158,-0.394122,-0.310398,-0.377326,-0.272674,-0.339602,-0.255877,-0.319841,-0.239052,-0.298068,-0.224204,-0.276291,-0.210311,-0.253466,-0.197478,-0.230761,
-0.186577,-0.205986,-0.176677,-0.182228,-0.167740,-0.156408,-0.159825,-0.131674,-0.153894,-0.105971,-0.148933,-0.079183,-0.144971,-0.053428,-0.143000,-0.026820,-0.143000,0.026820,-0.144971,0.053428,-0.148933,0.079183,-0.153894,0.105971,-0.159825,0.131674,-0.167740,0.156408,-0.176677,0.182228,-0.186577,0.205986,-0.197478,0.230761,-0.210311,0.253466,-0.224204,0.276291,-0.239052,0.298068,
-0.255877,0.319841,-0.272674,0.339602,-0.310398,0.377326,-0.330158,0.394122,-0.351932,0.410947,-0.373708,0.425795,-0.396534,0.439688,-0.419238,0.452521,-0.444014,0.463423,-0.467771,0.473322,-0.493591,0.482259,-0.518325,0.490174,-0.544028,0.496105,-0.570816,0.501066,-0.596571,0.505029,-0.623180,0.507000,-0.650000,0.507000,-0.653536,0.508464,-0.655000,0.512000,-0.655000,0.812000,
-0.653536,0.815536,-0.650000,0.817000,-0.649884,0.816999,-0.649884,0.816999,$1*%
G04 Aperture macros list end*
%ADD10C,0.100000*%
%ADD11C,0.150000*%
%ADD12C,0.300000*%
%ADD13C,0.400000*%
%TA.AperFunction,SMDPad,CuDef*%
%ADD14RoundRect,0.243750X0.243750X0.456250X-0.243750X0.456250X-0.243750X-0.456250X0.243750X-0.456250X0*%
%TD*%
%TA.AperFunction,SMDPad,CuDef*%
%ADD15RoundRect,0.250000X-0.475000X0.250000X-0.475000X-0.250000X0.475000X-0.250000X0.475000X0.250000X0*%
%TD*%
%TA.AperFunction,SMDPad,CuDef*%
%ADD16R,1.500000X0.650000*%
%TD*%
%TA.AperFunction,SMDPad,CuDef*%
%ADD17RoundRect,0.250000X-0.262500X-0.450000X0.262500X-0.450000X0.262500X0.450000X-0.262500X0.450000X0*%
%TD*%
%TA.AperFunction,SMDPad,CuDef*%
%ADD18R,5.511800X0.990600*%
%TD*%
%TA.AperFunction,SMDPad,CuDef*%
%ADD19R,3.098800X1.700000*%
%TD*%
%TA.AperFunction,SMDPad,CuDef*%
%ADD20RoundRect,0.250000X0.475000X-0.250000X0.475000X0.250000X-0.475000X0.250000X-0.475000X-0.250000X0*%
%TD*%
%TA.AperFunction,SMDPad,CuDef*%
%ADD21RoundRect,0.250000X-0.450000X0.262500X-0.450000X-0.262500X0.450000X-0.262500X0.450000X0.262500X0*%
%TD*%
%TA.AperFunction,SMDPad,CuDef*%
%ADD22RoundRect,0.250000X0.450000X-0.262500X0.450000X0.262500X-0.450000X0.262500X-0.450000X-0.262500X0*%
%TD*%
%TA.AperFunction,SMDPad,CuDef*%
%ADD23R,0.522000X0.725000*%
%TD*%
%TA.AperFunction,SMDPad,CuDef*%
%ADD24FreePoly0,270.000000*%
%TD*%
%TA.AperFunction,SMDPad,CuDef*%
%ADD25FreePoly1,270.000000*%
%TD*%
%TA.AperFunction,ViaPad*%
%ADD26C,0.800000*%
%TD*%
%TA.AperFunction,Conductor*%
%ADD27C,0.500000*%
%TD*%
G04 APERTURE END LIST*
D10*
D11*
X177002200Y-166007200D02*
X285002200Y-166007200D01*
X285002200Y-198007200D01*
X177002200Y-198007200D01*
X177002200Y-166007200D01*
D10*
D11*
X10000000Y-10000000D02*
X287002200Y-10000000D01*
X287002200Y-200007200D01*
X10000000Y-200007200D01*
X10000000Y-10000000D01*
D10*
D11*
X12000000Y-12000000D02*
X285002200Y-12000000D01*
X285002200Y-198007200D01*
X12000000Y-198007200D01*
X12000000Y-12000000D01*
D10*
D11*
X60000000Y-12000000D02*
X60000000Y-10000000D01*
D10*
D11*
X110000000Y-12000000D02*
X110000000Y-10000000D01*
D10*
D11*
X160000000Y-12000000D02*
X160000000Y-10000000D01*
D10*
D11*
X210000000Y-12000000D02*
X210000000Y-10000000D01*
D10*
D11*
X260000000Y-12000000D02*
X260000000Y-10000000D01*
D10*
D11*
X36089160Y-11593604D02*
X35346303Y-11593604D01*
X35717731Y-11593604D02*
X35717731Y-10293604D01*
X35717731Y-10293604D02*
X35593922Y-10479319D01*
X35593922Y-10479319D02*
X35470112Y-10603128D01*
X35470112Y-10603128D02*
X35346303Y-10665033D01*
D10*
D11*
X85346303Y-10417414D02*
X85408207Y-10355509D01*
X85408207Y-10355509D02*
X85532017Y-10293604D01*
X85532017Y-10293604D02*
X85841541Y-10293604D01*
X85841541Y-10293604D02*
X85965350Y-10355509D01*
X85965350Y-10355509D02*
X86027255Y-10417414D01*
X86027255Y-10417414D02*
X86089160Y-10541223D01*
X86089160Y-10541223D02*
X86089160Y-10665033D01*
X86089160Y-10665033D02*
X86027255Y-10850747D01*
X86027255Y-10850747D02*
X85284398Y-11593604D01*
X85284398Y-11593604D02*
X86089160Y-11593604D01*
D10*
D11*
X135284398Y-10293604D02*
X136089160Y-10293604D01*
X136089160Y-10293604D02*
X135655826Y-10788842D01*
X135655826Y-10788842D02*
X135841541Y-10788842D01*
X135841541Y-10788842D02*
X135965350Y-10850747D01*
X135965350Y-10850747D02*
X136027255Y-10912652D01*
X136027255Y-10912652D02*
X136089160Y-11036461D01*
X136089160Y-11036461D02*
X136089160Y-11345985D01*
X136089160Y-11345985D02*
X136027255Y-11469795D01*
X136027255Y-11469795D02*
X135965350Y-11531700D01*
X135965350Y-11531700D02*
X135841541Y-11593604D01*
X135841541Y-11593604D02*
X135470112Y-11593604D01*
X135470112Y-11593604D02*
X135346303Y-11531700D01*
X135346303Y-11531700D02*
X135284398Y-11469795D01*
D10*
D11*
X185965350Y-10726938D02*
X185965350Y-11593604D01*
X185655826Y-10231700D02*
X185346303Y-11160271D01*
X185346303Y-11160271D02*
X186151064Y-11160271D01*
D10*
D11*
X236027255Y-10293604D02*
X235408207Y-10293604D01*
X235408207Y-10293604D02*
X235346303Y-10912652D01*
X235346303Y-10912652D02*
X235408207Y-10850747D01*
X235408207Y-10850747D02*
X235532017Y-10788842D01*
X235532017Y-10788842D02*
X235841541Y-10788842D01*
X235841541Y-10788842D02*
X235965350Y-10850747D01*
X235965350Y-10850747D02*
X236027255Y-10912652D01*
X236027255Y-10912652D02*
X236089160Y-11036461D01*
X236089160Y-11036461D02*
X236089160Y-11345985D01*
X236089160Y-11345985D02*
X236027255Y-11469795D01*
X236027255Y-11469795D02*
X235965350Y-11531700D01*
X235965350Y-11531700D02*
X235841541Y-11593604D01*
X235841541Y-11593604D02*
X235532017Y-11593604D01*
X235532017Y-11593604D02*
X235408207Y-11531700D01*
X235408207Y-11531700D02*
X235346303Y-11469795D01*
D10*
D11*
X285965350Y-10293604D02*
X285717731Y-10293604D01*
X285717731Y-10293604D02*
X285593922Y-10355509D01*
X285593922Y-10355509D02*
X285532017Y-10417414D01*
X285532017Y-10417414D02*
X285408207Y-10603128D01*
X285408207Y-10603128D02*
X285346303Y-10850747D01*
X285346303Y-10850747D02*
X285346303Y-11345985D01*
X285346303Y-11345985D02*
X285408207Y-11469795D01*
X285408207Y-11469795D02*
X285470112Y-11531700D01*
X285470112Y-11531700D02*
X285593922Y-11593604D01*
X285593922Y-11593604D02*
X285841541Y-11593604D01*
X285841541Y-11593604D02*
X285965350Y-11531700D01*
X285965350Y-11531700D02*
X286027255Y-11469795D01*
X286027255Y-11469795D02*
X286089160Y-11345985D01*
X286089160Y-11345985D02*
X286089160Y-11036461D01*
X286089160Y-11036461D02*
X286027255Y-10912652D01*
X286027255Y-10912652D02*
X285965350Y-10850747D01*
X285965350Y-10850747D02*
X285841541Y-10788842D01*
X285841541Y-10788842D02*
X285593922Y-10788842D01*
X285593922Y-10788842D02*
X285470112Y-10850747D01*
X285470112Y-10850747D02*
X285408207Y-10912652D01*
X285408207Y-10912652D02*
X285346303Y-11036461D01*
D10*
D11*
X60000000Y-198007200D02*
X60000000Y-200007200D01*
D10*
D11*
X110000000Y-198007200D02*
X110000000Y-200007200D01*
D10*
D11*
X160000000Y-198007200D02*
X160000000Y-200007200D01*
D10*
D11*
X210000000Y-198007200D02*
X210000000Y-200007200D01*
D10*
D11*
X260000000Y-198007200D02*
X260000000Y-200007200D01*
D10*
D11*
X36089160Y-199600804D02*
X35346303Y-199600804D01*
X35717731Y-199600804D02*
X35717731Y-198300804D01*
X35717731Y-198300804D02*
X35593922Y-198486519D01*
X35593922Y-198486519D02*
X35470112Y-198610328D01*
X35470112Y-198610328D02*
X35346303Y-198672233D01*
D10*
D11*
X85346303Y-198424614D02*
X85408207Y-198362709D01*
X85408207Y-198362709D02*
X85532017Y-198300804D01*
X85532017Y-198300804D02*
X85841541Y-198300804D01*
X85841541Y-198300804D02*
X85965350Y-198362709D01*
X85965350Y-198362709D02*
X86027255Y-198424614D01*
X86027255Y-198424614D02*
X86089160Y-198548423D01*
X86089160Y-198548423D02*
X86089160Y-198672233D01*
X86089160Y-198672233D02*
X86027255Y-198857947D01*
X86027255Y-198857947D02*
X85284398Y-199600804D01*
X85284398Y-199600804D02*
X86089160Y-199600804D01*
D10*
D11*
X135284398Y-198300804D02*
X136089160Y-198300804D01*
X136089160Y-198300804D02*
X135655826Y-198796042D01*
X135655826Y-198796042D02*
X135841541Y-198796042D01*
X135841541Y-198796042D02*
X135965350Y-198857947D01*
X135965350Y-198857947D02*
X136027255Y-198919852D01*
X136027255Y-198919852D02*
X136089160Y-199043661D01*
X136089160Y-199043661D02*
X136089160Y-199353185D01*
X136089160Y-199353185D02*
X136027255Y-199476995D01*
X136027255Y-199476995D02*
X135965350Y-199538900D01*
X135965350Y-199538900D02*
X135841541Y-199600804D01*
X135841541Y-199600804D02*
X135470112Y-199600804D01*
X135470112Y-199600804D02*
X135346303Y-199538900D01*
X135346303Y-199538900D02*
X135284398Y-199476995D01*
D10*
D11*
X185965350Y-198734138D02*
X185965350Y-199600804D01*
X185655826Y-198238900D02*
X185346303Y-199167471D01*
X185346303Y-199167471D02*
X186151064Y-199167471D01*
D10*
D11*
X236027255Y-198300804D02*
X235408207Y-198300804D01*
X235408207Y-198300804D02*
X235346303Y-198919852D01*
X235346303Y-198919852D02*
X235408207Y-198857947D01*
X235408207Y-198857947D02*
X235532017Y-198796042D01*
X235532017Y-198796042D02*
X235841541Y-198796042D01*
X235841541Y-198796042D02*
X235965350Y-198857947D01*
X235965350Y-198857947D02*
X236027255Y-198919852D01*
X236027255Y-198919852D02*
X236089160Y-199043661D01*
X236089160Y-199043661D02*
X236089160Y-199353185D01*
X236089160Y-199353185D02*
X236027255Y-199476995D01*
X236027255Y-199476995D02*
X235965350Y-199538900D01*
X235965350Y-199538900D02*
X235841541Y-199600804D01*
X235841541Y-199600804D02*
X235532017Y-199600804D01*
X235532017Y-199600804D02*
X235408207Y-199538900D01*
X235408207Y-199538900D02*
X235346303Y-199476995D01*
D10*
D11*
X285965350Y-198300804D02*
X285717731Y-198300804D01*
X285717731Y-198300804D02*
X285593922Y-198362709D01*
X285593922Y-198362709D02*
X285532017Y-198424614D01*
X285532017Y-198424614D02*
X285408207Y-198610328D01*
X285408207Y-198610328D02*
X285346303Y-198857947D01*
X285346303Y-198857947D02*
X285346303Y-199353185D01*
X285346303Y-199353185D02*
X285408207Y-199476995D01*
X285408207Y-199476995D02*
X285470112Y-199538900D01*
X285470112Y-199538900D02*
X285593922Y-199600804D01*
X285593922Y-199600804D02*
X285841541Y-199600804D01*
X285841541Y-199600804D02*
X285965350Y-199538900D01*
X285965350Y-199538900D02*
X286027255Y-199476995D01*
X286027255Y-199476995D02*
X286089160Y-199353185D01*
X286089160Y-199353185D02*
X286089160Y-199043661D01*
X286089160Y-199043661D02*
X286027255Y-198919852D01*
X286027255Y-198919852D02*
X285965350Y-198857947D01*
X285965350Y-198857947D02*
X285841541Y-198796042D01*
X285841541Y-198796042D02*
X285593922Y-198796042D01*
X285593922Y-198796042D02*
X285470112Y-198857947D01*
X285470112Y-198857947D02*
X285408207Y-198919852D01*
X285408207Y-198919852D02*
X285346303Y-199043661D01*
D10*
D11*
X10000000Y-60000000D02*
X12000000Y-60000000D01*
D10*
D11*
X10000000Y-110000000D02*
X12000000Y-110000000D01*
D10*
D11*
X10000000Y-160000000D02*
X12000000Y-160000000D01*
D10*
D11*
X10690476Y-35222176D02*
X11309523Y-35222176D01*
X10566666Y-35593604D02*
X10999999Y-34293604D01*
X10999999Y-34293604D02*
X11433333Y-35593604D01*
D10*
D11*
X11092857Y-84912652D02*
X11278571Y-84974557D01*
X11278571Y-84974557D02*
X11340476Y-85036461D01*
X11340476Y-85036461D02*
X11402380Y-85160271D01*
X11402380Y-85160271D02*
X11402380Y-85345985D01*
X11402380Y-85345985D02*
X11340476Y-85469795D01*
X11340476Y-85469795D02*
X11278571Y-85531700D01*
X11278571Y-85531700D02*
X11154761Y-85593604D01*
X11154761Y-85593604D02*
X10659523Y-85593604D01*
X10659523Y-85593604D02*
X10659523Y-84293604D01*
X10659523Y-84293604D02*
X11092857Y-84293604D01*
X11092857Y-84293604D02*
X11216666Y-84355509D01*
X11216666Y-84355509D02*
X11278571Y-84417414D01*
X11278571Y-84417414D02*
X11340476Y-84541223D01*
X11340476Y-84541223D02*
X11340476Y-84665033D01*
X11340476Y-84665033D02*
X11278571Y-84788842D01*
X11278571Y-84788842D02*
X11216666Y-84850747D01*
X11216666Y-84850747D02*
X11092857Y-84912652D01*
X11092857Y-84912652D02*
X10659523Y-84912652D01*
D10*
D11*
X11402380Y-135469795D02*
X11340476Y-135531700D01*
X11340476Y-135531700D02*
X11154761Y-135593604D01*
X11154761Y-135593604D02*
X11030952Y-135593604D01*
X11030952Y-135593604D02*
X10845238Y-135531700D01*
X10845238Y-135531700D02*
X10721428Y-135407890D01*
X10721428Y-135407890D02*
X10659523Y-135284080D01*
X10659523Y-135284080D02*
X10597619Y-135036461D01*
X10597619Y-135036461D02*
X10597619Y-134850747D01*
X10597619Y-134850747D02*
X10659523Y-134603128D01*
X10659523Y-134603128D02*
X10721428Y-134479319D01*
X10721428Y-134479319D02*
X10845238Y-134355509D01*
X10845238Y-134355509D02*
X11030952Y-134293604D01*
X11030952Y-134293604D02*
X11154761Y-134293604D01*
X11154761Y-134293604D02*
X11340476Y-134355509D01*
X11340476Y-134355509D02*
X11402380Y-134417414D01*
D10*
D11*
X10659523Y-185593604D02*
X10659523Y-184293604D01*
X10659523Y-184293604D02*
X10969047Y-184293604D01*
X10969047Y-184293604D02*
X11154761Y-184355509D01*
X11154761Y-184355509D02*
X11278571Y-184479319D01*
X11278571Y-184479319D02*
X11340476Y-184603128D01*
X11340476Y-184603128D02*
X11402380Y-184850747D01*
X11402380Y-184850747D02*
X11402380Y-185036461D01*
X11402380Y-185036461D02*
X11340476Y-185284080D01*
X11340476Y-185284080D02*
X11278571Y-185407890D01*
X11278571Y-185407890D02*
X11154761Y-185531700D01*
X11154761Y-185531700D02*
X10969047Y-185593604D01*
X10969047Y-185593604D02*
X10659523Y-185593604D01*
D10*
D11*
X287002200Y-60000000D02*
X285002200Y-60000000D01*
D10*
D11*
X287002200Y-110000000D02*
X285002200Y-110000000D01*
D10*
D11*
X287002200Y-160000000D02*
X285002200Y-160000000D01*
D10*
D11*
X285692676Y-35222176D02*
X286311723Y-35222176D01*
X285568866Y-35593604D02*
X286002199Y-34293604D01*
X286002199Y-34293604D02*
X286435533Y-35593604D01*
D10*
D11*
X286095057Y-84912652D02*
X286280771Y-84974557D01*
X286280771Y-84974557D02*
X286342676Y-85036461D01*
X286342676Y-85036461D02*
X286404580Y-85160271D01*
X286404580Y-85160271D02*
X286404580Y-85345985D01*
X286404580Y-85345985D02*
X286342676Y-85469795D01*
X286342676Y-85469795D02*
X286280771Y-85531700D01*
X286280771Y-85531700D02*
X286156961Y-85593604D01*
X286156961Y-85593604D02*
X285661723Y-85593604D01*
X285661723Y-85593604D02*
X285661723Y-84293604D01*
X285661723Y-84293604D02*
X286095057Y-84293604D01*
X286095057Y-84293604D02*
X286218866Y-84355509D01*
X286218866Y-84355509D02*
X286280771Y-84417414D01*
X286280771Y-84417414D02*
X286342676Y-84541223D01*
X286342676Y-84541223D02*
X286342676Y-84665033D01*
X286342676Y-84665033D02*
X286280771Y-84788842D01*
X286280771Y-84788842D02*
X286218866Y-84850747D01*
X286218866Y-84850747D02*
X286095057Y-84912652D01*
X286095057Y-84912652D02*
X285661723Y-84912652D01*
D10*
D11*
X286404580Y-135469795D02*
X286342676Y-135531700D01*
X286342676Y-135531700D02*
X286156961Y-135593604D01*
X286156961Y-135593604D02*
X286033152Y-135593604D01*
X286033152Y-135593604D02*
X285847438Y-135531700D01*
X285847438Y-135531700D02*
X285723628Y-135407890D01*
X285723628Y-135407890D02*
X285661723Y-135284080D01*
X285661723Y-135284080D02*
X285599819Y-135036461D01*
X285599819Y-135036461D02*
X285599819Y-134850747D01*
X285599819Y-134850747D02*
X285661723Y-134603128D01*
X285661723Y-134603128D02*
X285723628Y-134479319D01*
X285723628Y-134479319D02*
X285847438Y-134355509D01*
X285847438Y-134355509D02*
X286033152Y-134293604D01*
X286033152Y-134293604D02*
X286156961Y-134293604D01*
X286156961Y-134293604D02*
X286342676Y-134355509D01*
X286342676Y-134355509D02*
X286404580Y-134417414D01*
D10*
D11*
X285661723Y-185593604D02*
X285661723Y-184293604D01*
X285661723Y-184293604D02*
X285971247Y-184293604D01*
X285971247Y-184293604D02*
X286156961Y-184355509D01*
X286156961Y-184355509D02*
X286280771Y-184479319D01*
X286280771Y-184479319D02*
X286342676Y-184603128D01*
X286342676Y-184603128D02*
X286404580Y-184850747D01*
X286404580Y-184850747D02*
X286404580Y-185036461D01*
X286404580Y-185036461D02*
X286342676Y-185284080D01*
X286342676Y-185284080D02*
X286280771Y-185407890D01*
X286280771Y-185407890D02*
X286156961Y-185531700D01*
X286156961Y-185531700D02*
X285971247Y-185593604D01*
X285971247Y-185593604D02*
X285661723Y-185593604D01*
D10*
D11*
X200458026Y-193793328D02*
X200458026Y-192293328D01*
X200458026Y-192293328D02*
X200815169Y-192293328D01*
X200815169Y-192293328D02*
X201029455Y-192364757D01*
X201029455Y-192364757D02*
X201172312Y-192507614D01*
X201172312Y-192507614D02*
X201243741Y-192650471D01*
X201243741Y-192650471D02*
X201315169Y-192936185D01*
X201315169Y-192936185D02*
X201315169Y-193150471D01*
X201315169Y-193150471D02*
X201243741Y-193436185D01*
X201243741Y-193436185D02*
X201172312Y-193579042D01*
X201172312Y-193579042D02*
X201029455Y-193721900D01*
X201029455Y-193721900D02*
X200815169Y-193793328D01*
X200815169Y-193793328D02*
X200458026Y-193793328D01*
X202600884Y-193793328D02*
X202600884Y-193007614D01*
X202600884Y-193007614D02*
X202529455Y-192864757D01*
X202529455Y-192864757D02*
X202386598Y-192793328D01*
X202386598Y-192793328D02*
X202100884Y-192793328D01*
X202100884Y-192793328D02*
X201958026Y-192864757D01*
X202600884Y-193721900D02*
X202458026Y-193793328D01*
X202458026Y-193793328D02*
X202100884Y-193793328D01*
X202100884Y-193793328D02*
X201958026Y-193721900D01*
X201958026Y-193721900D02*
X201886598Y-193579042D01*
X201886598Y-193579042D02*
X201886598Y-193436185D01*
X201886598Y-193436185D02*
X201958026Y-193293328D01*
X201958026Y-193293328D02*
X202100884Y-193221900D01*
X202100884Y-193221900D02*
X202458026Y-193221900D01*
X202458026Y-193221900D02*
X202600884Y-193150471D01*
X203100884Y-192793328D02*
X203672312Y-192793328D01*
X203315169Y-192293328D02*
X203315169Y-193579042D01*
X203315169Y-193579042D02*
X203386598Y-193721900D01*
X203386598Y-193721900D02*
X203529455Y-193793328D01*
X203529455Y-193793328D02*
X203672312Y-193793328D01*
X204743741Y-193721900D02*
X204600884Y-193793328D01*
X204600884Y-193793328D02*
X204315170Y-193793328D01*
X204315170Y-193793328D02*
X204172312Y-193721900D01*
X204172312Y-193721900D02*
X204100884Y-193579042D01*
X204100884Y-193579042D02*
X204100884Y-193007614D01*
X204100884Y-193007614D02*
X204172312Y-192864757D01*
X204172312Y-192864757D02*
X204315170Y-192793328D01*
X204315170Y-192793328D02*
X204600884Y-192793328D01*
X204600884Y-192793328D02*
X204743741Y-192864757D01*
X204743741Y-192864757D02*
X204815170Y-193007614D01*
X204815170Y-193007614D02*
X204815170Y-193150471D01*
X204815170Y-193150471D02*
X204100884Y-193293328D01*
X205458026Y-193650471D02*
X205529455Y-193721900D01*
X205529455Y-193721900D02*
X205458026Y-193793328D01*
X205458026Y-193793328D02*
X205386598Y-193721900D01*
X205386598Y-193721900D02*
X205458026Y-193650471D01*
X205458026Y-193650471D02*
X205458026Y-193793328D01*
X205458026Y-192864757D02*
X205529455Y-192936185D01*
X205529455Y-192936185D02*
X205458026Y-193007614D01*
X205458026Y-193007614D02*
X205386598Y-192936185D01*
X205386598Y-192936185D02*
X205458026Y-192864757D01*
X205458026Y-192864757D02*
X205458026Y-193007614D01*
D10*
D11*
X177002200Y-194507200D02*
X285002200Y-194507200D01*
D10*
D11*
X178458026Y-196593328D02*
X178458026Y-195093328D01*
X179315169Y-196593328D02*
X178672312Y-195736185D01*
X179315169Y-195093328D02*
X178458026Y-195950471D01*
X179958026Y-196593328D02*
X179958026Y-195593328D01*
X179958026Y-195093328D02*
X179886598Y-195164757D01*
X179886598Y-195164757D02*
X179958026Y-195236185D01*
X179958026Y-195236185D02*
X180029455Y-195164757D01*
X180029455Y-195164757D02*
X179958026Y-195093328D01*
X179958026Y-195093328D02*
X179958026Y-195236185D01*
X181529455Y-196450471D02*
X181458027Y-196521900D01*
X181458027Y-196521900D02*
X181243741Y-196593328D01*
X181243741Y-196593328D02*
X181100884Y-196593328D01*
X181100884Y-196593328D02*
X180886598Y-196521900D01*
X180886598Y-196521900D02*
X180743741Y-196379042D01*
X180743741Y-196379042D02*
X180672312Y-196236185D01*
X180672312Y-196236185D02*
X180600884Y-195950471D01*
X180600884Y-195950471D02*
X180600884Y-195736185D01*
X180600884Y-195736185D02*
X180672312Y-195450471D01*
X180672312Y-195450471D02*
X180743741Y-195307614D01*
X180743741Y-195307614D02*
X180886598Y-195164757D01*
X180886598Y-195164757D02*
X181100884Y-195093328D01*
X181100884Y-195093328D02*
X181243741Y-195093328D01*
X181243741Y-195093328D02*
X181458027Y-195164757D01*
X181458027Y-195164757D02*
X181529455Y-195236185D01*
X182815170Y-196593328D02*
X182815170Y-195807614D01*
X182815170Y-195807614D02*
X182743741Y-195664757D01*
X182743741Y-195664757D02*
X182600884Y-195593328D01*
X182600884Y-195593328D02*
X182315170Y-195593328D01*
X182315170Y-195593328D02*
X182172312Y-195664757D01*
X182815170Y-196521900D02*
X182672312Y-196593328D01*
X182672312Y-196593328D02*
X182315170Y-196593328D01*
X182315170Y-196593328D02*
X182172312Y-196521900D01*
X182172312Y-196521900D02*
X182100884Y-196379042D01*
X182100884Y-196379042D02*
X182100884Y-196236185D01*
X182100884Y-196236185D02*
X182172312Y-196093328D01*
X182172312Y-196093328D02*
X182315170Y-196021900D01*
X182315170Y-196021900D02*
X182672312Y-196021900D01*
X182672312Y-196021900D02*
X182815170Y-195950471D01*
X184172313Y-196593328D02*
X184172313Y-195093328D01*
X184172313Y-196521900D02*
X184029455Y-196593328D01*
X184029455Y-196593328D02*
X183743741Y-196593328D01*
X183743741Y-196593328D02*
X183600884Y-196521900D01*
X183600884Y-196521900D02*
X183529455Y-196450471D01*
X183529455Y-196450471D02*
X183458027Y-196307614D01*
X183458027Y-196307614D02*
X183458027Y-195879042D01*
X183458027Y-195879042D02*
X183529455Y-195736185D01*
X183529455Y-195736185D02*
X183600884Y-195664757D01*
X183600884Y-195664757D02*
X183743741Y-195593328D01*
X183743741Y-195593328D02*
X184029455Y-195593328D01*
X184029455Y-195593328D02*
X184172313Y-195664757D01*
X186029455Y-195807614D02*
X186529455Y-195807614D01*
X186743741Y-196593328D02*
X186029455Y-196593328D01*
X186029455Y-196593328D02*
X186029455Y-195093328D01*
X186029455Y-195093328D02*
X186743741Y-195093328D01*
X187386598Y-196450471D02*
X187458027Y-196521900D01*
X187458027Y-196521900D02*
X187386598Y-196593328D01*
X187386598Y-196593328D02*
X187315170Y-196521900D01*
X187315170Y-196521900D02*
X187386598Y-196450471D01*
X187386598Y-196450471D02*
X187386598Y-196593328D01*
X188100884Y-196593328D02*
X188100884Y-195093328D01*
X188100884Y-195093328D02*
X188458027Y-195093328D01*
X188458027Y-195093328D02*
X188672313Y-195164757D01*
X188672313Y-195164757D02*
X188815170Y-195307614D01*
X188815170Y-195307614D02*
X188886599Y-195450471D01*
X188886599Y-195450471D02*
X188958027Y-195736185D01*
X188958027Y-195736185D02*
X188958027Y-195950471D01*
X188958027Y-195950471D02*
X188886599Y-196236185D01*
X188886599Y-196236185D02*
X188815170Y-196379042D01*
X188815170Y-196379042D02*
X188672313Y-196521900D01*
X188672313Y-196521900D02*
X188458027Y-196593328D01*
X188458027Y-196593328D02*
X188100884Y-196593328D01*
X189600884Y-196450471D02*
X189672313Y-196521900D01*
X189672313Y-196521900D02*
X189600884Y-196593328D01*
X189600884Y-196593328D02*
X189529456Y-196521900D01*
X189529456Y-196521900D02*
X189600884Y-196450471D01*
X189600884Y-196450471D02*
X189600884Y-196593328D01*
X190243742Y-196164757D02*
X190958028Y-196164757D01*
X190100885Y-196593328D02*
X190600885Y-195093328D01*
X190600885Y-195093328D02*
X191100885Y-196593328D01*
X191600884Y-196450471D02*
X191672313Y-196521900D01*
X191672313Y-196521900D02*
X191600884Y-196593328D01*
X191600884Y-196593328D02*
X191529456Y-196521900D01*
X191529456Y-196521900D02*
X191600884Y-196450471D01*
X191600884Y-196450471D02*
X191600884Y-196593328D01*
X193529456Y-196593328D02*
X193815170Y-196593328D01*
X193815170Y-196593328D02*
X193958027Y-196521900D01*
X193958027Y-196521900D02*
X194029456Y-196450471D01*
X194029456Y-196450471D02*
X194172313Y-196236185D01*
X194172313Y-196236185D02*
X194243742Y-195950471D01*
X194243742Y-195950471D02*
X194243742Y-195379042D01*
X194243742Y-195379042D02*
X194172313Y-195236185D01*
X194172313Y-195236185D02*
X194100885Y-195164757D01*
X194100885Y-195164757D02*
X193958027Y-195093328D01*
X193958027Y-195093328D02*
X193672313Y-195093328D01*
X193672313Y-195093328D02*
X193529456Y-195164757D01*
X193529456Y-195164757D02*
X193458027Y-195236185D01*
X193458027Y-195236185D02*
X193386599Y-195379042D01*
X193386599Y-195379042D02*
X193386599Y-195736185D01*
X193386599Y-195736185D02*
X193458027Y-195879042D01*
X193458027Y-195879042D02*
X193529456Y-195950471D01*
X193529456Y-195950471D02*
X193672313Y-196021900D01*
X193672313Y-196021900D02*
X193958027Y-196021900D01*
X193958027Y-196021900D02*
X194100885Y-195950471D01*
X194100885Y-195950471D02*
X194172313Y-195879042D01*
X194172313Y-195879042D02*
X194243742Y-195736185D01*
X194886598Y-196450471D02*
X194958027Y-196521900D01*
X194958027Y-196521900D02*
X194886598Y-196593328D01*
X194886598Y-196593328D02*
X194815170Y-196521900D01*
X194815170Y-196521900D02*
X194886598Y-196450471D01*
X194886598Y-196450471D02*
X194886598Y-196593328D01*
X195886599Y-195093328D02*
X196029456Y-195093328D01*
X196029456Y-195093328D02*
X196172313Y-195164757D01*
X196172313Y-195164757D02*
X196243742Y-195236185D01*
X196243742Y-195236185D02*
X196315170Y-195379042D01*
X196315170Y-195379042D02*
X196386599Y-195664757D01*
X196386599Y-195664757D02*
X196386599Y-196021900D01*
X196386599Y-196021900D02*
X196315170Y-196307614D01*
X196315170Y-196307614D02*
X196243742Y-196450471D01*
X196243742Y-196450471D02*
X196172313Y-196521900D01*
X196172313Y-196521900D02*
X196029456Y-196593328D01*
X196029456Y-196593328D02*
X195886599Y-196593328D01*
X195886599Y-196593328D02*
X195743742Y-196521900D01*
X195743742Y-196521900D02*
X195672313Y-196450471D01*
X195672313Y-196450471D02*
X195600884Y-196307614D01*
X195600884Y-196307614D02*
X195529456Y-196021900D01*
X195529456Y-196021900D02*
X195529456Y-195664757D01*
X195529456Y-195664757D02*
X195600884Y-195379042D01*
X195600884Y-195379042D02*
X195672313Y-195236185D01*
X195672313Y-195236185D02*
X195743742Y-195164757D01*
X195743742Y-195164757D02*
X195886599Y-195093328D01*
X197029455Y-196450471D02*
X197100884Y-196521900D01*
X197100884Y-196521900D02*
X197029455Y-196593328D01*
X197029455Y-196593328D02*
X196958027Y-196521900D01*
X196958027Y-196521900D02*
X197029455Y-196450471D01*
X197029455Y-196450471D02*
X197029455Y-196593328D01*
X197672313Y-195236185D02*
X197743741Y-195164757D01*
X197743741Y-195164757D02*
X197886599Y-195093328D01*
X197886599Y-195093328D02*
X198243741Y-195093328D01*
X198243741Y-195093328D02*
X198386599Y-195164757D01*
X198386599Y-195164757D02*
X198458027Y-195236185D01*
X198458027Y-195236185D02*
X198529456Y-195379042D01*
X198529456Y-195379042D02*
X198529456Y-195521900D01*
X198529456Y-195521900D02*
X198458027Y-195736185D01*
X198458027Y-195736185D02*
X197600884Y-196593328D01*
X197600884Y-196593328D02*
X198529456Y-196593328D01*
D10*
D11*
X177002200Y-191507200D02*
X285002200Y-191507200D01*
D10*
D12*
X264413853Y-193785528D02*
X263913853Y-193071242D01*
X263556710Y-193785528D02*
X263556710Y-192285528D01*
X263556710Y-192285528D02*
X264128139Y-192285528D01*
X264128139Y-192285528D02*
X264270996Y-192356957D01*
X264270996Y-192356957D02*
X264342425Y-192428385D01*
X264342425Y-192428385D02*
X264413853Y-192571242D01*
X264413853Y-192571242D02*
X264413853Y-192785528D01*
X264413853Y-192785528D02*
X264342425Y-192928385D01*
X264342425Y-192928385D02*
X264270996Y-192999814D01*
X264270996Y-192999814D02*
X264128139Y-193071242D01*
X264128139Y-193071242D02*
X263556710Y-193071242D01*
X265628139Y-193714100D02*
X265485282Y-193785528D01*
X265485282Y-193785528D02*
X265199568Y-193785528D01*
X265199568Y-193785528D02*
X265056710Y-193714100D01*
X265056710Y-193714100D02*
X264985282Y-193571242D01*
X264985282Y-193571242D02*
X264985282Y-192999814D01*
X264985282Y-192999814D02*
X265056710Y-192856957D01*
X265056710Y-192856957D02*
X265199568Y-192785528D01*
X265199568Y-192785528D02*
X265485282Y-192785528D01*
X265485282Y-192785528D02*
X265628139Y-192856957D01*
X265628139Y-192856957D02*
X265699568Y-192999814D01*
X265699568Y-192999814D02*
X265699568Y-193142671D01*
X265699568Y-193142671D02*
X264985282Y-193285528D01*
X266199567Y-192785528D02*
X266556710Y-193785528D01*
X266556710Y-193785528D02*
X266913853Y-192785528D01*
X267485281Y-193642671D02*
X267556710Y-193714100D01*
X267556710Y-193714100D02*
X267485281Y-193785528D01*
X267485281Y-193785528D02*
X267413853Y-193714100D01*
X267413853Y-193714100D02*
X267485281Y-193642671D01*
X267485281Y-193642671D02*
X267485281Y-193785528D01*
X267485281Y-192856957D02*
X267556710Y-192928385D01*
X267556710Y-192928385D02*
X267485281Y-192999814D01*
X267485281Y-192999814D02*
X267413853Y-192928385D01*
X267413853Y-192928385D02*
X267485281Y-192856957D01*
X267485281Y-192856957D02*
X267485281Y-192999814D01*
D10*
D11*
X178386598Y-193721900D02*
X178600884Y-193793328D01*
X178600884Y-193793328D02*
X178958026Y-193793328D01*
X178958026Y-193793328D02*
X179100884Y-193721900D01*
X179100884Y-193721900D02*
X179172312Y-193650471D01*
X179172312Y-193650471D02*
X179243741Y-193507614D01*
X179243741Y-193507614D02*
X179243741Y-193364757D01*
X179243741Y-193364757D02*
X179172312Y-193221900D01*
X179172312Y-193221900D02*
X179100884Y-193150471D01*
X179100884Y-193150471D02*
X178958026Y-193079042D01*
X178958026Y-193079042D02*
X178672312Y-193007614D01*
X178672312Y-193007614D02*
X178529455Y-192936185D01*
X178529455Y-192936185D02*
X178458026Y-192864757D01*
X178458026Y-192864757D02*
X178386598Y-192721900D01*
X178386598Y-192721900D02*
X178386598Y-192579042D01*
X178386598Y-192579042D02*
X178458026Y-192436185D01*
X178458026Y-192436185D02*
X178529455Y-192364757D01*
X178529455Y-192364757D02*
X178672312Y-192293328D01*
X178672312Y-192293328D02*
X179029455Y-192293328D01*
X179029455Y-192293328D02*
X179243741Y-192364757D01*
X179886597Y-193793328D02*
X179886597Y-192793328D01*
X179886597Y-192293328D02*
X179815169Y-192364757D01*
X179815169Y-192364757D02*
X179886597Y-192436185D01*
X179886597Y-192436185D02*
X179958026Y-192364757D01*
X179958026Y-192364757D02*
X179886597Y-192293328D01*
X179886597Y-192293328D02*
X179886597Y-192436185D01*
X180458026Y-192793328D02*
X181243741Y-192793328D01*
X181243741Y-192793328D02*
X180458026Y-193793328D01*
X180458026Y-193793328D02*
X181243741Y-193793328D01*
X182386598Y-193721900D02*
X182243741Y-193793328D01*
X182243741Y-193793328D02*
X181958027Y-193793328D01*
X181958027Y-193793328D02*
X181815169Y-193721900D01*
X181815169Y-193721900D02*
X181743741Y-193579042D01*
X181743741Y-193579042D02*
X181743741Y-193007614D01*
X181743741Y-193007614D02*
X181815169Y-192864757D01*
X181815169Y-192864757D02*
X181958027Y-192793328D01*
X181958027Y-192793328D02*
X182243741Y-192793328D01*
X182243741Y-192793328D02*
X182386598Y-192864757D01*
X182386598Y-192864757D02*
X182458027Y-193007614D01*
X182458027Y-193007614D02*
X182458027Y-193150471D01*
X182458027Y-193150471D02*
X181743741Y-193293328D01*
X183100883Y-193650471D02*
X183172312Y-193721900D01*
X183172312Y-193721900D02*
X183100883Y-193793328D01*
X183100883Y-193793328D02*
X183029455Y-193721900D01*
X183029455Y-193721900D02*
X183100883Y-193650471D01*
X183100883Y-193650471D02*
X183100883Y-193793328D01*
X183100883Y-192864757D02*
X183172312Y-192936185D01*
X183172312Y-192936185D02*
X183100883Y-193007614D01*
X183100883Y-193007614D02*
X183029455Y-192936185D01*
X183029455Y-192936185D02*
X183100883Y-192864757D01*
X183100883Y-192864757D02*
X183100883Y-193007614D01*
X184886598Y-193364757D02*
X185600884Y-193364757D01*
X184743741Y-193793328D02*
X185243741Y-192293328D01*
X185243741Y-192293328D02*
X185743741Y-193793328D01*
X186886598Y-192793328D02*
X186886598Y-193793328D01*
X186529455Y-192221900D02*
X186172312Y-193293328D01*
X186172312Y-193293328D02*
X187100883Y-193293328D01*
D10*
D11*
X263458026Y-196593328D02*
X263458026Y-195093328D01*
X264815170Y-196593328D02*
X264815170Y-195093328D01*
X264815170Y-196521900D02*
X264672312Y-196593328D01*
X264672312Y-196593328D02*
X264386598Y-196593328D01*
X264386598Y-196593328D02*
X264243741Y-196521900D01*
X264243741Y-196521900D02*
X264172312Y-196450471D01*
X264172312Y-196450471D02*
X264100884Y-196307614D01*
X264100884Y-196307614D02*
X264100884Y-195879042D01*
X264100884Y-195879042D02*
X264172312Y-195736185D01*
X264172312Y-195736185D02*
X264243741Y-195664757D01*
X264243741Y-195664757D02*
X264386598Y-195593328D01*
X264386598Y-195593328D02*
X264672312Y-195593328D01*
X264672312Y-195593328D02*
X264815170Y-195664757D01*
X265529455Y-196450471D02*
X265600884Y-196521900D01*
X265600884Y-196521900D02*
X265529455Y-196593328D01*
X265529455Y-196593328D02*
X265458027Y-196521900D01*
X265458027Y-196521900D02*
X265529455Y-196450471D01*
X265529455Y-196450471D02*
X265529455Y-196593328D01*
X265529455Y-195664757D02*
X265600884Y-195736185D01*
X265600884Y-195736185D02*
X265529455Y-195807614D01*
X265529455Y-195807614D02*
X265458027Y-195736185D01*
X265458027Y-195736185D02*
X265529455Y-195664757D01*
X265529455Y-195664757D02*
X265529455Y-195807614D01*
X268172313Y-196593328D02*
X267315170Y-196593328D01*
X267743741Y-196593328D02*
X267743741Y-195093328D01*
X267743741Y-195093328D02*
X267600884Y-195307614D01*
X267600884Y-195307614D02*
X267458027Y-195450471D01*
X267458027Y-195450471D02*
X267315170Y-195521900D01*
X269886598Y-195021900D02*
X268600884Y-196950471D01*
X271172313Y-196593328D02*
X270315170Y-196593328D01*
X270743741Y-196593328D02*
X270743741Y-195093328D01*
X270743741Y-195093328D02*
X270600884Y-195307614D01*
X270600884Y-195307614D02*
X270458027Y-195450471D01*
X270458027Y-195450471D02*
X270315170Y-195521900D01*
X271672312Y-195093328D02*
X272672312Y-195093328D01*
X272672312Y-195093328D02*
X272029455Y-196593328D01*
D10*
D11*
X177002200Y-187507200D02*
X285002200Y-187507200D01*
D10*
D13*
X178693928Y-188211638D02*
X179836785Y-188211638D01*
X179015357Y-190211638D02*
X179265357Y-188211638D01*
X180253452Y-190211638D02*
X180420119Y-188878304D01*
X180503452Y-188211638D02*
X180396309Y-188306876D01*
X180396309Y-188306876D02*
X180479643Y-188402114D01*
X180479643Y-188402114D02*
X180586786Y-188306876D01*
X180586786Y-188306876D02*
X180503452Y-188211638D01*
X180503452Y-188211638D02*
X180479643Y-188402114D01*
X181086786Y-188878304D02*
X181848690Y-188878304D01*
X181455833Y-188211638D02*
X181241548Y-189925923D01*
X181241548Y-189925923D02*
X181312976Y-190116400D01*
X181312976Y-190116400D02*
X181491548Y-190211638D01*
X181491548Y-190211638D02*
X181682024Y-190211638D01*
X182634405Y-190211638D02*
X182455833Y-190116400D01*
X182455833Y-190116400D02*
X182384405Y-189925923D01*
X182384405Y-189925923D02*
X182598690Y-188211638D01*
X184170119Y-190116400D02*
X183967738Y-190211638D01*
X183967738Y-190211638D02*
X183586785Y-190211638D01*
X183586785Y-190211638D02*
X183408214Y-190116400D01*
X183408214Y-190116400D02*
X183336785Y-189925923D01*
X183336785Y-189925923D02*
X183432024Y-189164019D01*
X183432024Y-189164019D02*
X183551071Y-188973542D01*
X183551071Y-188973542D02*
X183753452Y-188878304D01*
X183753452Y-188878304D02*
X184134404Y-188878304D01*
X184134404Y-188878304D02*
X184312976Y-188973542D01*
X184312976Y-188973542D02*
X184384404Y-189164019D01*
X184384404Y-189164019D02*
X184360595Y-189354495D01*
X184360595Y-189354495D02*
X183384404Y-189544971D01*
X185134405Y-190021161D02*
X185217738Y-190116400D01*
X185217738Y-190116400D02*
X185110595Y-190211638D01*
X185110595Y-190211638D02*
X185027262Y-190116400D01*
X185027262Y-190116400D02*
X185134405Y-190021161D01*
X185134405Y-190021161D02*
X185110595Y-190211638D01*
X185265357Y-188973542D02*
X185348690Y-189068780D01*
X185348690Y-189068780D02*
X185241548Y-189164019D01*
X185241548Y-189164019D02*
X185158214Y-189068780D01*
X185158214Y-189068780D02*
X185265357Y-188973542D01*
X185265357Y-188973542D02*
X185241548Y-189164019D01*
D10*
D11*
X178958026Y-185607614D02*
X178458026Y-185607614D01*
X178458026Y-186393328D02*
X178458026Y-184893328D01*
X178458026Y-184893328D02*
X179172312Y-184893328D01*
X179743740Y-186393328D02*
X179743740Y-185393328D01*
X179743740Y-184893328D02*
X179672312Y-184964757D01*
X179672312Y-184964757D02*
X179743740Y-185036185D01*
X179743740Y-185036185D02*
X179815169Y-184964757D01*
X179815169Y-184964757D02*
X179743740Y-184893328D01*
X179743740Y-184893328D02*
X179743740Y-185036185D01*
X180672312Y-186393328D02*
X180529455Y-186321900D01*
X180529455Y-186321900D02*
X180458026Y-186179042D01*
X180458026Y-186179042D02*
X180458026Y-184893328D01*
X181815169Y-186321900D02*
X181672312Y-186393328D01*
X181672312Y-186393328D02*
X181386598Y-186393328D01*
X181386598Y-186393328D02*
X181243740Y-186321900D01*
X181243740Y-186321900D02*
X181172312Y-186179042D01*
X181172312Y-186179042D02*
X181172312Y-185607614D01*
X181172312Y-185607614D02*
X181243740Y-185464757D01*
X181243740Y-185464757D02*
X181386598Y-185393328D01*
X181386598Y-185393328D02*
X181672312Y-185393328D01*
X181672312Y-185393328D02*
X181815169Y-185464757D01*
X181815169Y-185464757D02*
X181886598Y-185607614D01*
X181886598Y-185607614D02*
X181886598Y-185750471D01*
X181886598Y-185750471D02*
X181172312Y-185893328D01*
X182529454Y-186250471D02*
X182600883Y-186321900D01*
X182600883Y-186321900D02*
X182529454Y-186393328D01*
X182529454Y-186393328D02*
X182458026Y-186321900D01*
X182458026Y-186321900D02*
X182529454Y-186250471D01*
X182529454Y-186250471D02*
X182529454Y-186393328D01*
X182529454Y-185464757D02*
X182600883Y-185536185D01*
X182600883Y-185536185D02*
X182529454Y-185607614D01*
X182529454Y-185607614D02*
X182458026Y-185536185D01*
X182458026Y-185536185D02*
X182529454Y-185464757D01*
X182529454Y-185464757D02*
X182529454Y-185607614D01*
X184386597Y-186393328D02*
X184386597Y-184893328D01*
X184386597Y-184893328D02*
X184886597Y-185964757D01*
X184886597Y-185964757D02*
X185386597Y-184893328D01*
X185386597Y-184893328D02*
X185386597Y-186393328D01*
X186100883Y-186393328D02*
X186100883Y-185393328D01*
X186100883Y-184893328D02*
X186029455Y-184964757D01*
X186029455Y-184964757D02*
X186100883Y-185036185D01*
X186100883Y-185036185D02*
X186172312Y-184964757D01*
X186172312Y-184964757D02*
X186100883Y-184893328D01*
X186100883Y-184893328D02*
X186100883Y-185036185D01*
X187458027Y-186321900D02*
X187315169Y-186393328D01*
X187315169Y-186393328D02*
X187029455Y-186393328D01*
X187029455Y-186393328D02*
X186886598Y-186321900D01*
X186886598Y-186321900D02*
X186815169Y-186250471D01*
X186815169Y-186250471D02*
X186743741Y-186107614D01*
X186743741Y-186107614D02*
X186743741Y-185679042D01*
X186743741Y-185679042D02*
X186815169Y-185536185D01*
X186815169Y-185536185D02*
X186886598Y-185464757D01*
X186886598Y-185464757D02*
X187029455Y-185393328D01*
X187029455Y-185393328D02*
X187315169Y-185393328D01*
X187315169Y-185393328D02*
X187458027Y-185464757D01*
X188100883Y-186393328D02*
X188100883Y-185393328D01*
X188100883Y-185679042D02*
X188172312Y-185536185D01*
X188172312Y-185536185D02*
X188243741Y-185464757D01*
X188243741Y-185464757D02*
X188386598Y-185393328D01*
X188386598Y-185393328D02*
X188529455Y-185393328D01*
X189243740Y-186393328D02*
X189100883Y-186321900D01*
X189100883Y-186321900D02*
X189029454Y-186250471D01*
X189029454Y-186250471D02*
X188958026Y-186107614D01*
X188958026Y-186107614D02*
X188958026Y-185679042D01*
X188958026Y-185679042D02*
X189029454Y-185536185D01*
X189029454Y-185536185D02*
X189100883Y-185464757D01*
X189100883Y-185464757D02*
X189243740Y-185393328D01*
X189243740Y-185393328D02*
X189458026Y-185393328D01*
X189458026Y-185393328D02*
X189600883Y-185464757D01*
X189600883Y-185464757D02*
X189672312Y-185536185D01*
X189672312Y-185536185D02*
X189743740Y-185679042D01*
X189743740Y-185679042D02*
X189743740Y-186107614D01*
X189743740Y-186107614D02*
X189672312Y-186250471D01*
X189672312Y-186250471D02*
X189600883Y-186321900D01*
X189600883Y-186321900D02*
X189458026Y-186393328D01*
X189458026Y-186393328D02*
X189243740Y-186393328D01*
X190386597Y-185393328D02*
X190386597Y-186893328D01*
X190386597Y-185464757D02*
X190529455Y-185393328D01*
X190529455Y-185393328D02*
X190815169Y-185393328D01*
X190815169Y-185393328D02*
X190958026Y-185464757D01*
X190958026Y-185464757D02*
X191029455Y-185536185D01*
X191029455Y-185536185D02*
X191100883Y-185679042D01*
X191100883Y-185679042D02*
X191100883Y-186107614D01*
X191100883Y-186107614D02*
X191029455Y-186250471D01*
X191029455Y-186250471D02*
X190958026Y-186321900D01*
X190958026Y-186321900D02*
X190815169Y-186393328D01*
X190815169Y-186393328D02*
X190529455Y-186393328D01*
X190529455Y-186393328D02*
X190386597Y-186321900D01*
X191743740Y-186393328D02*
X191743740Y-184893328D01*
X192386598Y-186393328D02*
X192386598Y-185607614D01*
X192386598Y-185607614D02*
X192315169Y-185464757D01*
X192315169Y-185464757D02*
X192172312Y-185393328D01*
X192172312Y-185393328D02*
X191958026Y-185393328D01*
X191958026Y-185393328D02*
X191815169Y-185464757D01*
X191815169Y-185464757D02*
X191743740Y-185536185D01*
X193315169Y-186393328D02*
X193172312Y-186321900D01*
X193172312Y-186321900D02*
X193100883Y-186250471D01*
X193100883Y-186250471D02*
X193029455Y-186107614D01*
X193029455Y-186107614D02*
X193029455Y-185679042D01*
X193029455Y-185679042D02*
X193100883Y-185536185D01*
X193100883Y-185536185D02*
X193172312Y-185464757D01*
X193172312Y-185464757D02*
X193315169Y-185393328D01*
X193315169Y-185393328D02*
X193529455Y-185393328D01*
X193529455Y-185393328D02*
X193672312Y-185464757D01*
X193672312Y-185464757D02*
X193743741Y-185536185D01*
X193743741Y-185536185D02*
X193815169Y-185679042D01*
X193815169Y-185679042D02*
X193815169Y-186107614D01*
X193815169Y-186107614D02*
X193743741Y-186250471D01*
X193743741Y-186250471D02*
X193672312Y-186321900D01*
X193672312Y-186321900D02*
X193529455Y-186393328D01*
X193529455Y-186393328D02*
X193315169Y-186393328D01*
X194458026Y-185393328D02*
X194458026Y-186393328D01*
X194458026Y-185536185D02*
X194529455Y-185464757D01*
X194529455Y-185464757D02*
X194672312Y-185393328D01*
X194672312Y-185393328D02*
X194886598Y-185393328D01*
X194886598Y-185393328D02*
X195029455Y-185464757D01*
X195029455Y-185464757D02*
X195100884Y-185607614D01*
X195100884Y-185607614D02*
X195100884Y-186393328D01*
X196386598Y-186321900D02*
X196243741Y-186393328D01*
X196243741Y-186393328D02*
X195958027Y-186393328D01*
X195958027Y-186393328D02*
X195815169Y-186321900D01*
X195815169Y-186321900D02*
X195743741Y-186179042D01*
X195743741Y-186179042D02*
X195743741Y-185607614D01*
X195743741Y-185607614D02*
X195815169Y-185464757D01*
X195815169Y-185464757D02*
X195958027Y-185393328D01*
X195958027Y-185393328D02*
X196243741Y-185393328D01*
X196243741Y-185393328D02*
X196386598Y-185464757D01*
X196386598Y-185464757D02*
X196458027Y-185607614D01*
X196458027Y-185607614D02*
X196458027Y-185750471D01*
X196458027Y-185750471D02*
X195743741Y-185893328D01*
X196743741Y-186536185D02*
X197886598Y-186536185D01*
X198529455Y-184893328D02*
X198815169Y-184893328D01*
X198815169Y-184893328D02*
X198958026Y-184964757D01*
X198958026Y-184964757D02*
X199100883Y-185107614D01*
X199100883Y-185107614D02*
X199172312Y-185393328D01*
X199172312Y-185393328D02*
X199172312Y-185893328D01*
X199172312Y-185893328D02*
X199100883Y-186179042D01*
X199100883Y-186179042D02*
X198958026Y-186321900D01*
X198958026Y-186321900D02*
X198815169Y-186393328D01*
X198815169Y-186393328D02*
X198529455Y-186393328D01*
X198529455Y-186393328D02*
X198386598Y-186321900D01*
X198386598Y-186321900D02*
X198243740Y-186179042D01*
X198243740Y-186179042D02*
X198172312Y-185893328D01*
X198172312Y-185893328D02*
X198172312Y-185393328D01*
X198172312Y-185393328D02*
X198243740Y-185107614D01*
X198243740Y-185107614D02*
X198386598Y-184964757D01*
X198386598Y-184964757D02*
X198529455Y-184893328D01*
X200672312Y-186250471D02*
X200600884Y-186321900D01*
X200600884Y-186321900D02*
X200386598Y-186393328D01*
X200386598Y-186393328D02*
X200243741Y-186393328D01*
X200243741Y-186393328D02*
X200029455Y-186321900D01*
X200029455Y-186321900D02*
X199886598Y-186179042D01*
X199886598Y-186179042D02*
X199815169Y-186036185D01*
X199815169Y-186036185D02*
X199743741Y-185750471D01*
X199743741Y-185750471D02*
X199743741Y-185536185D01*
X199743741Y-185536185D02*
X199815169Y-185250471D01*
X199815169Y-185250471D02*
X199886598Y-185107614D01*
X199886598Y-185107614D02*
X200029455Y-184964757D01*
X200029455Y-184964757D02*
X200243741Y-184893328D01*
X200243741Y-184893328D02*
X200386598Y-184893328D01*
X200386598Y-184893328D02*
X200600884Y-184964757D01*
X200600884Y-184964757D02*
X200672312Y-185036185D01*
X201100884Y-184893328D02*
X201958027Y-184893328D01*
X201529455Y-186393328D02*
X201529455Y-184893328D01*
X202386598Y-185964757D02*
X203100884Y-185964757D01*
X202243741Y-186393328D02*
X202743741Y-184893328D01*
X202743741Y-184893328D02*
X203243741Y-186393328D01*
X203529455Y-184893328D02*
X204029455Y-186393328D01*
X204029455Y-186393328D02*
X204529455Y-184893328D01*
X205029454Y-186250471D02*
X205100883Y-186321900D01*
X205100883Y-186321900D02*
X205029454Y-186393328D01*
X205029454Y-186393328D02*
X204958026Y-186321900D01*
X204958026Y-186321900D02*
X205029454Y-186250471D01*
X205029454Y-186250471D02*
X205029454Y-186393328D01*
X205743740Y-186393328D02*
X205743740Y-184893328D01*
X205886598Y-185821900D02*
X206315169Y-186393328D01*
X206315169Y-185393328D02*
X205743740Y-185964757D01*
X206958026Y-186393328D02*
X206958026Y-185393328D01*
X206958026Y-184893328D02*
X206886598Y-184964757D01*
X206886598Y-184964757D02*
X206958026Y-185036185D01*
X206958026Y-185036185D02*
X207029455Y-184964757D01*
X207029455Y-184964757D02*
X206958026Y-184893328D01*
X206958026Y-184893328D02*
X206958026Y-185036185D01*
X208315170Y-186321900D02*
X208172312Y-186393328D01*
X208172312Y-186393328D02*
X207886598Y-186393328D01*
X207886598Y-186393328D02*
X207743741Y-186321900D01*
X207743741Y-186321900D02*
X207672312Y-186250471D01*
X207672312Y-186250471D02*
X207600884Y-186107614D01*
X207600884Y-186107614D02*
X207600884Y-185679042D01*
X207600884Y-185679042D02*
X207672312Y-185536185D01*
X207672312Y-185536185D02*
X207743741Y-185464757D01*
X207743741Y-185464757D02*
X207886598Y-185393328D01*
X207886598Y-185393328D02*
X208172312Y-185393328D01*
X208172312Y-185393328D02*
X208315170Y-185464757D01*
X209600884Y-186393328D02*
X209600884Y-185607614D01*
X209600884Y-185607614D02*
X209529455Y-185464757D01*
X209529455Y-185464757D02*
X209386598Y-185393328D01*
X209386598Y-185393328D02*
X209100884Y-185393328D01*
X209100884Y-185393328D02*
X208958026Y-185464757D01*
X209600884Y-186321900D02*
X209458026Y-186393328D01*
X209458026Y-186393328D02*
X209100884Y-186393328D01*
X209100884Y-186393328D02*
X208958026Y-186321900D01*
X208958026Y-186321900D02*
X208886598Y-186179042D01*
X208886598Y-186179042D02*
X208886598Y-186036185D01*
X208886598Y-186036185D02*
X208958026Y-185893328D01*
X208958026Y-185893328D02*
X209100884Y-185821900D01*
X209100884Y-185821900D02*
X209458026Y-185821900D01*
X209458026Y-185821900D02*
X209600884Y-185750471D01*
X210958027Y-186393328D02*
X210958027Y-184893328D01*
X210958027Y-186321900D02*
X210815169Y-186393328D01*
X210815169Y-186393328D02*
X210529455Y-186393328D01*
X210529455Y-186393328D02*
X210386598Y-186321900D01*
X210386598Y-186321900D02*
X210315169Y-186250471D01*
X210315169Y-186250471D02*
X210243741Y-186107614D01*
X210243741Y-186107614D02*
X210243741Y-185679042D01*
X210243741Y-185679042D02*
X210315169Y-185536185D01*
X210315169Y-185536185D02*
X210386598Y-185464757D01*
X210386598Y-185464757D02*
X210529455Y-185393328D01*
X210529455Y-185393328D02*
X210815169Y-185393328D01*
X210815169Y-185393328D02*
X210958027Y-185464757D01*
X211315170Y-186536185D02*
X212458027Y-186536185D01*
X212815169Y-185393328D02*
X212815169Y-186893328D01*
X212815169Y-185464757D02*
X212958027Y-185393328D01*
X212958027Y-185393328D02*
X213243741Y-185393328D01*
X213243741Y-185393328D02*
X213386598Y-185464757D01*
X213386598Y-185464757D02*
X213458027Y-185536185D01*
X213458027Y-185536185D02*
X213529455Y-185679042D01*
X213529455Y-185679042D02*
X213529455Y-186107614D01*
X213529455Y-186107614D02*
X213458027Y-186250471D01*
X213458027Y-186250471D02*
X213386598Y-186321900D01*
X213386598Y-186321900D02*
X213243741Y-186393328D01*
X213243741Y-186393328D02*
X212958027Y-186393328D01*
X212958027Y-186393328D02*
X212815169Y-186321900D01*
X214815170Y-186321900D02*
X214672312Y-186393328D01*
X214672312Y-186393328D02*
X214386598Y-186393328D01*
X214386598Y-186393328D02*
X214243741Y-186321900D01*
X214243741Y-186321900D02*
X214172312Y-186250471D01*
X214172312Y-186250471D02*
X214100884Y-186107614D01*
X214100884Y-186107614D02*
X214100884Y-185679042D01*
X214100884Y-185679042D02*
X214172312Y-185536185D01*
X214172312Y-185536185D02*
X214243741Y-185464757D01*
X214243741Y-185464757D02*
X214386598Y-185393328D01*
X214386598Y-185393328D02*
X214672312Y-185393328D01*
X214672312Y-185393328D02*
X214815170Y-185464757D01*
X215458026Y-186393328D02*
X215458026Y-184893328D01*
X215458026Y-185464757D02*
X215600884Y-185393328D01*
X215600884Y-185393328D02*
X215886598Y-185393328D01*
X215886598Y-185393328D02*
X216029455Y-185464757D01*
X216029455Y-185464757D02*
X216100884Y-185536185D01*
X216100884Y-185536185D02*
X216172312Y-185679042D01*
X216172312Y-185679042D02*
X216172312Y-186107614D01*
X216172312Y-186107614D02*
X216100884Y-186250471D01*
X216100884Y-186250471D02*
X216029455Y-186321900D01*
X216029455Y-186321900D02*
X215886598Y-186393328D01*
X215886598Y-186393328D02*
X215600884Y-186393328D01*
X215600884Y-186393328D02*
X215458026Y-186321900D01*
D10*
D11*
X177002200Y-181507200D02*
X285002200Y-181507200D01*
D10*
D11*
X178386598Y-183621900D02*
X178600884Y-183693328D01*
X178600884Y-183693328D02*
X178958026Y-183693328D01*
X178958026Y-183693328D02*
X179100884Y-183621900D01*
X179100884Y-183621900D02*
X179172312Y-183550471D01*
X179172312Y-183550471D02*
X179243741Y-183407614D01*
X179243741Y-183407614D02*
X179243741Y-183264757D01*
X179243741Y-183264757D02*
X179172312Y-183121900D01*
X179172312Y-183121900D02*
X179100884Y-183050471D01*
X179100884Y-183050471D02*
X178958026Y-182979042D01*
X178958026Y-182979042D02*
X178672312Y-182907614D01*
X178672312Y-182907614D02*
X178529455Y-182836185D01*
X178529455Y-182836185D02*
X178458026Y-182764757D01*
X178458026Y-182764757D02*
X178386598Y-182621900D01*
X178386598Y-182621900D02*
X178386598Y-182479042D01*
X178386598Y-182479042D02*
X178458026Y-182336185D01*
X178458026Y-182336185D02*
X178529455Y-182264757D01*
X178529455Y-182264757D02*
X178672312Y-182193328D01*
X178672312Y-182193328D02*
X179029455Y-182193328D01*
X179029455Y-182193328D02*
X179243741Y-182264757D01*
X179886597Y-183693328D02*
X179886597Y-182193328D01*
X180529455Y-183693328D02*
X180529455Y-182907614D01*
X180529455Y-182907614D02*
X180458026Y-182764757D01*
X180458026Y-182764757D02*
X180315169Y-182693328D01*
X180315169Y-182693328D02*
X180100883Y-182693328D01*
X180100883Y-182693328D02*
X179958026Y-182764757D01*
X179958026Y-182764757D02*
X179886597Y-182836185D01*
X181815169Y-183621900D02*
X181672312Y-183693328D01*
X181672312Y-183693328D02*
X181386598Y-183693328D01*
X181386598Y-183693328D02*
X181243740Y-183621900D01*
X181243740Y-183621900D02*
X181172312Y-183479042D01*
X181172312Y-183479042D02*
X181172312Y-182907614D01*
X181172312Y-182907614D02*
X181243740Y-182764757D01*
X181243740Y-182764757D02*
X181386598Y-182693328D01*
X181386598Y-182693328D02*
X181672312Y-182693328D01*
X181672312Y-182693328D02*
X181815169Y-182764757D01*
X181815169Y-182764757D02*
X181886598Y-182907614D01*
X181886598Y-182907614D02*
X181886598Y-183050471D01*
X181886598Y-183050471D02*
X181172312Y-183193328D01*
X183100883Y-183621900D02*
X182958026Y-183693328D01*
X182958026Y-183693328D02*
X182672312Y-183693328D01*
X182672312Y-183693328D02*
X182529454Y-183621900D01*
X182529454Y-183621900D02*
X182458026Y-183479042D01*
X182458026Y-183479042D02*
X182458026Y-182907614D01*
X182458026Y-182907614D02*
X182529454Y-182764757D01*
X182529454Y-182764757D02*
X182672312Y-182693328D01*
X182672312Y-182693328D02*
X182958026Y-182693328D01*
X182958026Y-182693328D02*
X183100883Y-182764757D01*
X183100883Y-182764757D02*
X183172312Y-182907614D01*
X183172312Y-182907614D02*
X183172312Y-183050471D01*
X183172312Y-183050471D02*
X182458026Y-183193328D01*
X183600883Y-182693328D02*
X184172311Y-182693328D01*
X183815168Y-182193328D02*
X183815168Y-183479042D01*
X183815168Y-183479042D02*
X183886597Y-183621900D01*
X183886597Y-183621900D02*
X184029454Y-183693328D01*
X184029454Y-183693328D02*
X184172311Y-183693328D01*
X184672311Y-183550471D02*
X184743740Y-183621900D01*
X184743740Y-183621900D02*
X184672311Y-183693328D01*
X184672311Y-183693328D02*
X184600883Y-183621900D01*
X184600883Y-183621900D02*
X184672311Y-183550471D01*
X184672311Y-183550471D02*
X184672311Y-183693328D01*
X184672311Y-182764757D02*
X184743740Y-182836185D01*
X184743740Y-182836185D02*
X184672311Y-182907614D01*
X184672311Y-182907614D02*
X184600883Y-182836185D01*
X184600883Y-182836185D02*
X184672311Y-182764757D01*
X184672311Y-182764757D02*
X184672311Y-182907614D01*
D10*
D11*
X197002200Y-191507200D02*
X197002200Y-194507200D01*
D10*
D11*
X261002200Y-191507200D02*
X261002200Y-198007200D01*
D14*
%TO.P,D1,1,K*%
%TO.N,GND*%
X173600000Y-80700000D03*
%TO.P,D1,2,A*%
%TO.N,Net-(D1-A)*%
X171725000Y-80700000D03*
%TD*%
D15*
%TO.P,C2,1*%
%TO.N,Net-(U1-VDD)*%
X148300000Y-91850000D03*
%TO.P,C2,2*%
%TO.N,GND*%
X148300000Y-93750000D03*
%TD*%
D16*
%TO.P,IC1,1,NC*%
%TO.N,unconnected-(IC1-NC-Pad1)*%
X164780000Y-92075000D03*
%TO.P,IC1,2,VIN-*%
%TO.N,Net-(IC1-VIN-)*%
X164780000Y-93345000D03*
%TO.P,IC1,3,VIN+*%
%TO.N,Net-(IC1-VIN+)*%
X164780000Y-94615000D03*
%TO.P,IC1,4,VSS*%
%TO.N,GND*%
X164780000Y-95885000D03*
%TO.P,IC1,5,VREF*%
%TO.N,unconnected-(IC1-VREF-Pad5)*%
X170180000Y-95885000D03*
%TO.P,IC1,6,VOUT*%
%TO.N,Net-(IC1-VOUT)*%
X170180000Y-94615000D03*
%TO.P,IC1,7,VDD*%
%TO.N,+5V*%
X170180000Y-93345000D03*
%TO.P,IC1,8,NC_1*%
%TO.N,unconnected-(IC1-NC_1-Pad8)*%
X170180000Y-92075000D03*
%TD*%
D17*
%TO.P,R4,1*%
%TO.N,Net-(IC1-VIN-)*%
X167500000Y-99060000D03*
%TO.P,R4,2*%
%TO.N,Net-(IC1-VOUT)*%
X169325000Y-99060000D03*
%TD*%
D15*
%TO.P,C4,1*%
%TO.N,+5V*%
X175300000Y-86352401D03*
%TO.P,C4,2*%
%TO.N,GND*%
X175300000Y-88252401D03*
%TD*%
D18*
%TO.P,J1,1,Pin_1*%
%TO.N,+5V*%
X180600000Y-86400000D03*
%TO.P,J1,2,Pin_2*%
%TO.N,GND*%
X180600000Y-88400001D03*
%TO.P,J1,3,Pin_3*%
%TO.N,Net-(J1-Pin_3)*%
X180600000Y-90400002D03*
D19*
%TO.P,J1,4*%
%TO.N,N/C*%
X182851964Y-92800000D03*
%TO.P,J1,5*%
X182851964Y-84000002D03*
%TD*%
D15*
%TO.P,C1,1*%
%TO.N,Net-(U1-VDD)*%
X144600000Y-91850000D03*
%TO.P,C1,2*%
%TO.N,GND*%
X144600000Y-93750000D03*
%TD*%
D17*
%TO.P,R5,1*%
%TO.N,Net-(C5-Pad2)*%
X156987500Y-93300000D03*
%TO.P,R5,2*%
%TO.N,Net-(IC1-VIN-)*%
X158812500Y-93300000D03*
%TD*%
D15*
%TO.P,C3,1*%
%TO.N,+5V*%
X171800000Y-86352401D03*
%TO.P,C3,2*%
%TO.N,GND*%
X171800000Y-88252401D03*
%TD*%
D20*
%TO.P,C6,1*%
%TO.N,Net-(IC1-VOUT)*%
X174400000Y-94650000D03*
%TO.P,C6,2*%
%TO.N,Net-(J1-Pin_3)*%
X174400000Y-92750000D03*
%TD*%
D17*
%TO.P,R2,1*%
%TO.N,+5V*%
X167850000Y-80700000D03*
%TO.P,R2,2*%
%TO.N,Net-(D1-A)*%
X169675000Y-80700000D03*
%TD*%
D21*
%TO.P,R6,1*%
%TO.N,+5V*%
X162600000Y-80537500D03*
%TO.P,R6,2*%
%TO.N,Net-(IC1-VIN+)*%
X162600000Y-82362500D03*
%TD*%
D22*
%TO.P,R7,1*%
%TO.N,GND*%
X162600000Y-88412500D03*
%TO.P,R7,2*%
%TO.N,Net-(IC1-VIN+)*%
X162600000Y-86587500D03*
%TD*%
D21*
%TO.P,R3,1*%
%TO.N,Net-(U1-VDD)*%
X151000000Y-83687500D03*
%TO.P,R3,2*%
%TO.N,GND*%
X151000000Y-85512500D03*
%TD*%
D22*
%TO.P,R1,1*%
%TO.N,Net-(U1-VDD)*%
X151000000Y-81162500D03*
%TO.P,R1,2*%
%TO.N,+5V*%
X151000000Y-79337500D03*
%TD*%
D23*
%TO.P,U1,1,OUT*%
%TO.N,/Signal*%
X142564000Y-87162500D03*
%TO.P,U1,2,GND*%
%TO.N,GND*%
X141742000Y-87162500D03*
D24*
%TO.P,U1,3_1,GND__1*%
X140490000Y-87350000D03*
D25*
%TO.P,U1,3_2,GND__2*%
X140490000Y-88650000D03*
D23*
%TO.P,U1,4,GND__3*%
X141742000Y-88837500D03*
%TO.P,U1,5,VDD*%
%TO.N,Net-(U1-VDD)*%
X142564000Y-88837500D03*
%TD*%
D15*
%TO.P,C5,1*%
%TO.N,/Signal*%
X153300000Y-89050000D03*
%TO.P,C5,2*%
%TO.N,Net-(C5-Pad2)*%
X153300000Y-90950000D03*
%TD*%
D26*
%TO.N,Net-(U1-VDD)*%
X148400000Y-82300000D03*
X150000000Y-92000000D03*
X142000000Y-93000000D03*
%TO.N,GND*%
X144000000Y-102000000D03*
X189000000Y-95000000D03*
X162600000Y-96500000D03*
X145055807Y-77979091D03*
X181000000Y-75000000D03*
X186000000Y-95000000D03*
X163000000Y-75000000D03*
X147000000Y-102000000D03*
X150900000Y-87500000D03*
X183000000Y-99000000D03*
X141700000Y-90600000D03*
X144600000Y-95400000D03*
X154000000Y-75000000D03*
X183000000Y-79000000D03*
X183000000Y-96000000D03*
X138000000Y-96000000D03*
X144990690Y-74999999D03*
X165000000Y-102000000D03*
X138000000Y-93000000D03*
X148000000Y-75000000D03*
X162600000Y-89940000D03*
X138000000Y-87000000D03*
X183000000Y-102000000D03*
X180000000Y-102000000D03*
X151000000Y-75000000D03*
X178000000Y-75000000D03*
X162000000Y-102000000D03*
X141700000Y-85300000D03*
X157000000Y-75000000D03*
X141000000Y-102000000D03*
X174000000Y-102000000D03*
X190000000Y-87000000D03*
X169000000Y-75000000D03*
X145000000Y-81000000D03*
X139000000Y-82000000D03*
X138000000Y-102000000D03*
X175000000Y-75000000D03*
X156000000Y-102000000D03*
X190000000Y-90000000D03*
X142000000Y-82000000D03*
X186000000Y-82000000D03*
X175262500Y-80700000D03*
X138000000Y-99000000D03*
X160000000Y-75000000D03*
X177000000Y-102000000D03*
X183000000Y-76000000D03*
X171000000Y-102000000D03*
X150000000Y-102000000D03*
X138000000Y-84000000D03*
X190000000Y-84000000D03*
X148300000Y-95500000D03*
X168000000Y-102000000D03*
X166000000Y-75000000D03*
X159000000Y-102000000D03*
X190000000Y-93000000D03*
X138000000Y-90000000D03*
X189000000Y-82000000D03*
X169600000Y-88402401D03*
X153000000Y-102000000D03*
X172000000Y-75000000D03*
X183000000Y-82000000D03*
%TO.N,+5V*%
X162600000Y-78840000D03*
X151000000Y-77800000D03*
X172500000Y-92600000D03*
X169500000Y-86402401D03*
X166162500Y-80700000D03*
%TD*%
D27*
%TO.N,Net-(U1-VDD)*%
X142000000Y-93000000D02*
X142000000Y-92500000D01*
X144037500Y-88837500D02*
X142564000Y-88837500D01*
X144600000Y-89400000D02*
X144037500Y-88837500D01*
X142000000Y-92500000D02*
X142650000Y-91850000D01*
X148300000Y-91850000D02*
X149850000Y-91850000D01*
X144600000Y-91850000D02*
X144600000Y-89400000D01*
X151000000Y-81162500D02*
X151000000Y-82300000D01*
X148300000Y-91850000D02*
X144600000Y-91850000D01*
X149850000Y-91850000D02*
X150000000Y-92000000D01*
X151000000Y-82300000D02*
X148400000Y-82300000D01*
X151000000Y-82300000D02*
X151000000Y-83687500D01*
X142650000Y-91850000D02*
X144600000Y-91850000D01*
%TO.N,GND*%
X140891000Y-87249000D02*
X140490000Y-87249000D01*
X162600000Y-96400000D02*
X162600000Y-96500000D01*
X163115000Y-95885000D02*
X162600000Y-96400000D01*
X180600000Y-88400001D02*
X169602400Y-88400001D01*
X148300000Y-93750000D02*
X148300000Y-95500000D01*
X141742000Y-88837500D02*
X141742000Y-88100000D01*
X144600000Y-93750000D02*
X148300000Y-93750000D01*
X141742000Y-87162500D02*
X141742000Y-85342000D01*
X164780000Y-95885000D02*
X164885000Y-95885000D01*
X141742000Y-88100000D02*
X141742000Y-87162500D01*
X141742000Y-88837500D02*
X141742000Y-90558000D01*
X164780000Y-95885000D02*
X163115000Y-95885000D01*
X162600000Y-88412500D02*
X162600000Y-89940000D01*
X141742000Y-90558000D02*
X141700000Y-90600000D01*
X141091000Y-88751000D02*
X140490000Y-88751000D01*
X164885000Y-95885000D02*
X165000000Y-96000000D01*
X144600000Y-93750000D02*
X144600000Y-95400000D01*
X151000000Y-87400000D02*
X150900000Y-87500000D01*
X151000000Y-85512500D02*
X151000000Y-87400000D01*
X141742000Y-85342000D02*
X141700000Y-85300000D01*
X141742000Y-88100000D02*
X140891000Y-87249000D01*
X169602400Y-88400001D02*
X169600000Y-88402401D01*
X141742000Y-88100000D02*
X141091000Y-88751000D01*
X173600000Y-80700000D02*
X175262500Y-80700000D01*
%TO.N,+5V*%
X180600000Y-86400000D02*
X169502401Y-86400000D01*
X169502401Y-86400000D02*
X169500000Y-86402401D01*
X151000000Y-79337500D02*
X151000000Y-77800000D01*
X167850000Y-80700000D02*
X166162500Y-80700000D01*
X171755000Y-93345000D02*
X172500000Y-92600000D01*
X162600000Y-80537500D02*
X162600000Y-78840000D01*
X170180000Y-93345000D02*
X171755000Y-93345000D01*
%TO.N,/Signal*%
X149550000Y-89050000D02*
X147662500Y-87162500D01*
X153300000Y-89050000D02*
X149550000Y-89050000D01*
X147662500Y-87162500D02*
X142564000Y-87162500D01*
%TO.N,Net-(C5-Pad2)*%
X156987500Y-93300000D02*
X153900000Y-93300000D01*
X153300000Y-92700000D02*
X153300000Y-90950000D01*
X153900000Y-93300000D02*
X153300000Y-92700000D01*
%TO.N,Net-(J1-Pin_3)*%
X175399998Y-90400002D02*
X180600000Y-90400002D01*
X174400000Y-92750000D02*
X174400000Y-91400000D01*
X174400000Y-91400000D02*
X175399998Y-90400002D01*
%TO.N,Net-(IC1-VOUT)*%
X174300000Y-94750000D02*
X174400000Y-94650000D01*
X169325000Y-99060000D02*
X170940000Y-99060000D01*
X174400000Y-94650000D02*
X174365000Y-94615000D01*
X170940000Y-99060000D02*
X174300000Y-95700000D01*
X174300000Y-95700000D02*
X174300000Y-94750000D01*
X174365000Y-94615000D02*
X170180000Y-94615000D01*
%TO.N,Net-(IC1-VIN+)*%
X164780000Y-94615000D02*
X166030000Y-94615000D01*
X167000000Y-93645000D02*
X167000000Y-89200000D01*
X164387500Y-86587500D02*
X162600000Y-86587500D01*
X162600000Y-82362500D02*
X162600000Y-86587500D01*
X166030000Y-94615000D02*
X167000000Y-93645000D01*
X162547500Y-86640000D02*
X162600000Y-86587500D01*
X167000000Y-89200000D02*
X164387500Y-86587500D01*
%TO.N,Net-(IC1-VIN-)*%
X158812500Y-95012500D02*
X158812500Y-93300000D01*
X158857500Y-93345000D02*
X158812500Y-93300000D01*
X167500000Y-99060000D02*
X162860000Y-99060000D01*
X162860000Y-99060000D02*
X158812500Y-95012500D01*
X164780000Y-93345000D02*
X158857500Y-93345000D01*
%TO.N,Net-(D1-A)*%
X171725000Y-80700000D02*
X169675000Y-80700000D01*
%TD*%
%TA.AperFunction,Conductor*%
%TO.N,GND*%
G36*
X191782539Y-73420185D02*
G01*
X191828294Y-73472989D01*
X191839500Y-73524500D01*
X191839500Y-103275500D01*
X191819815Y-103342539D01*
X191767011Y-103388294D01*
X191715500Y-103399500D01*
X136484500Y-103399500D01*
X136417461Y-103379815D01*
X136371706Y-103327011D01*
X136360500Y-103275500D01*
X136360500Y-94049986D01*
X143375001Y-94049986D01*
X143385494Y-94152697D01*
X143440641Y-94319119D01*
X143440643Y-94319124D01*
X143532684Y-94468345D01*
X143656654Y-94592315D01*
X143805875Y-94684356D01*
X143805880Y-94684358D01*
X143972302Y-94739505D01*
X143972309Y-94739506D01*
X144075019Y-94749999D01*
X144349999Y-94749999D01*
X144850000Y-94749999D01*
X145124972Y-94749999D01*
X145124986Y-94749998D01*
X145227697Y-94739505D01*
X145394119Y-94684358D01*
X145394124Y-94684356D01*
X145543345Y-94592315D01*
X145667315Y-94468345D01*
X145759356Y-94319124D01*
X145759358Y-94319119D01*
X145814505Y-94152697D01*
X145814506Y-94152690D01*
X145824999Y-94049986D01*
X147075001Y-94049986D01*
X147085494Y-94152697D01*
X147140641Y-94319119D01*
X147140643Y-94319124D01*
X147232684Y-94468345D01*
X147356654Y-94592315D01*
X147505875Y-94684356D01*
X147505880Y-94684358D01*
X147672302Y-94739505D01*
X147672309Y-94739506D01*
X147775019Y-94749999D01*
X148049999Y-94749999D01*
X148550000Y-94749999D01*
X148824972Y-94749999D01*
X148824986Y-94749998D01*
X148927697Y-94739505D01*
X149094119Y-94684358D01*
X149094124Y-94684356D01*
X149243345Y-94592315D01*
X149367315Y-94468345D01*
X149459356Y-94319124D01*
X149459358Y-94319119D01*
X149514505Y-94152697D01*
X149514506Y-94152690D01*
X149524999Y-94049986D01*
X149525000Y-94049973D01*
X149525000Y-94000000D01*
X148550000Y-94000000D01*
X148550000Y-94749999D01*
X148049999Y-94749999D01*
X148050000Y-94749998D01*
X148050000Y-94000000D01*
X147075001Y-94000000D01*
X147075001Y-94049986D01*
X145824999Y-94049986D01*
X145825000Y-94049973D01*
X145825000Y-94000000D01*
X144850000Y-94000000D01*
X144850000Y-94749999D01*
X144349999Y-94749999D01*
X144350000Y-94749998D01*
X144350000Y-94000000D01*
X143375001Y-94000000D01*
X143375001Y-94049986D01*
X136360500Y-94049986D01*
X136360500Y-92911304D01*
X141099500Y-92911304D01*
X141099500Y-93088695D01*
X141134103Y-93262658D01*
X141134106Y-93262667D01*
X141201983Y-93426540D01*
X141201990Y-93426553D01*
X141300535Y-93574034D01*
X141300538Y-93574038D01*
X141425961Y-93699461D01*
X141425965Y-93699464D01*
X141573446Y-93798009D01*
X141573459Y-93798016D01*
X141696363Y-93848923D01*
X141737334Y-93865894D01*
X141737336Y-93865894D01*
X141737341Y-93865896D01*
X141911304Y-93900499D01*
X141911307Y-93900500D01*
X141911309Y-93900500D01*
X142088693Y-93900500D01*
X142088694Y-93900499D01*
X142146682Y-93888964D01*
X142262658Y-93865896D01*
X142262661Y-93865894D01*
X142262666Y-93865894D01*
X142340045Y-93833843D01*
X142426541Y-93798016D01*
X142426544Y-93798014D01*
X142426547Y-93798013D01*
X142574035Y-93699464D01*
X142699464Y-93574035D01*
X142798013Y-93426547D01*
X142865894Y-93262666D01*
X142882652Y-93178421D01*
X142900499Y-93088695D01*
X142900500Y-93088693D01*
X142900500Y-92911306D01*
X142876981Y-92793072D01*
X142871879Y-92767423D01*
X142872586Y-92759515D01*
X142869811Y-92752072D01*
X142875656Y-92725208D01*
X142878106Y-92697833D01*
X142883356Y-92689820D01*
X142884667Y-92683800D01*
X142905814Y-92655552D01*
X142924554Y-92636814D01*
X142985879Y-92603332D01*
X143012231Y-92600500D01*
X143512770Y-92600500D01*
X143579809Y-92620185D01*
X143600451Y-92636819D01*
X143656344Y-92692712D01*
X143659628Y-92694737D01*
X143659653Y-92694753D01*
X143661445Y-92696746D01*
X143662011Y-92697193D01*
X143661934Y-92697289D01*
X143706379Y-92746699D01*
X143717603Y-92815661D01*
X143689761Y-92879744D01*
X143659665Y-92905826D01*
X143656660Y-92907679D01*
X143656655Y-92907683D01*
X143532684Y-93031654D01*
X143440643Y-93180875D01*
X143440641Y-93180880D01*
X143385494Y-93347302D01*
X143385493Y-93347309D01*
X143375000Y-93450013D01*
X143375000Y-93500000D01*
X145824999Y-93500000D01*
X145824999Y-93450028D01*
X145824998Y-93450013D01*
X145814505Y-93347302D01*
X145759358Y-93180880D01*
X145759356Y-93180875D01*
X145667315Y-93031654D01*
X145543344Y-92907683D01*
X145543341Y-92907681D01*
X145540339Y-92905829D01*
X145538713Y-92904021D01*
X145537677Y-92903202D01*
X145537817Y-92903024D01*
X145493617Y-92853880D01*
X145482397Y-92784917D01*
X145510243Y-92720836D01*
X145521157Y-92709341D01*
X145530036Y-92701112D01*
X145543656Y-92692712D01*
X145601214Y-92635153D01*
X145602947Y-92633548D01*
X145632197Y-92618991D01*
X145660872Y-92603334D01*
X145664428Y-92602951D01*
X145665499Y-92602419D01*
X145667419Y-92602630D01*
X145687230Y-92600500D01*
X147212770Y-92600500D01*
X147279809Y-92620185D01*
X147300451Y-92636819D01*
X147356344Y-92692712D01*
X147359628Y-92694737D01*
X147359653Y-92694753D01*
X147361445Y-92696746D01*
X147362011Y-92697193D01*
X147361934Y-92697289D01*
X147406379Y-92746699D01*
X147417603Y-92815661D01*
X147389761Y-92879744D01*
X147359665Y-92905826D01*
X147356660Y-92907679D01*
X147356655Y-92907683D01*
X147232684Y-93031654D01*
X147140643Y-93180875D01*
X147140641Y-93180880D01*
X147085494Y-93347302D01*
X147085493Y-93347309D01*
X147075000Y-93450013D01*
X147075000Y-93500000D01*
X149524999Y-93500000D01*
X149524999Y-93450028D01*
X149524998Y-93450013D01*
X149514505Y-93347302D01*
X149459358Y-93180880D01*
X149459356Y-93180875D01*
X149367315Y-93031654D01*
X149243344Y-92907683D01*
X149243341Y-92907681D01*
X149240339Y-92905829D01*
X149238713Y-92904021D01*
X149237677Y-92903202D01*
X149237817Y-92903024D01*
X149219602Y-92882772D01*
X149197398Y-92861144D01*
X149196444Y-92857024D01*
X149193617Y-92853880D01*
X149188638Y-92823281D01*
X149181650Y-92793072D01*
X149183075Y-92789089D01*
X149182397Y-92784917D01*
X149194749Y-92756490D01*
X149205205Y-92727293D01*
X149208940Y-92723834D01*
X149210243Y-92720836D01*
X149229832Y-92702011D01*
X149234896Y-92698114D01*
X149243656Y-92692712D01*
X149249445Y-92686922D01*
X149255826Y-92682014D01*
X149281183Y-92672174D01*
X149305064Y-92659132D01*
X149313283Y-92659719D01*
X149320964Y-92656739D01*
X149347617Y-92662171D01*
X149374756Y-92664110D01*
X149382944Y-92669371D01*
X149389426Y-92670693D01*
X149398005Y-92679050D01*
X149419115Y-92692615D01*
X149425961Y-92699461D01*
X149425965Y-92699464D01*
X149573446Y-92798009D01*
X149573459Y-92798016D01*
X149674817Y-92839999D01*
X149737334Y-92865894D01*
X149737336Y-92865894D01*
X149737341Y-92865896D01*
X149911304Y-92900499D01*
X149911307Y-92900500D01*
X149911309Y-92900500D01*
X150088693Y-92900500D01*
X150088694Y-92900499D01*
X150146682Y-92888964D01*
X150262658Y-92865896D01*
X150262661Y-92865894D01*
X150262666Y-92865894D01*
X150426547Y-92798013D01*
X150574035Y-92699464D01*
X150699464Y-92574035D01*
X150798013Y-92426547D01*
X150865894Y-92262666D01*
X150866227Y-92260996D01*
X150900499Y-92088695D01*
X150900500Y-92088693D01*
X150900500Y-91911306D01*
X150900499Y-91911304D01*
X150865896Y-91737341D01*
X150865893Y-91737332D01*
X150854931Y-91710868D01*
X150843103Y-91682312D01*
X150798016Y-91573459D01*
X150798009Y-91573446D01*
X150699464Y-91425965D01*
X150699461Y-91425961D01*
X150574038Y-91300538D01*
X150574034Y-91300535D01*
X150426553Y-91201990D01*
X150426540Y-91201983D01*
X150262667Y-91134106D01*
X150262658Y-91134103D01*
X150088694Y-91099500D01*
X150088691Y-91099500D01*
X149923918Y-91099500D01*
X149387230Y-91099500D01*
X149320191Y-91079815D01*
X149299549Y-91063181D01*
X149243657Y-91007289D01*
X149243656Y-91007288D01*
X149109404Y-90924481D01*
X149094336Y-90915187D01*
X149094331Y-90915185D01*
X149092862Y-90914698D01*
X148927797Y-90860001D01*
X148927795Y-90860000D01*
X148825010Y-90849500D01*
X147774998Y-90849500D01*
X147774980Y-90849501D01*
X147672203Y-90860000D01*
X147672200Y-90860001D01*
X147505668Y-90915185D01*
X147505663Y-90915187D01*
X147356342Y-91007289D01*
X147300451Y-91063181D01*
X147239128Y-91096666D01*
X147212770Y-91099500D01*
X145687230Y-91099500D01*
X145620191Y-91079815D01*
X145599549Y-91063181D01*
X145543657Y-91007289D01*
X145543656Y-91007288D01*
X145409402Y-90924480D01*
X145362679Y-90872533D01*
X145350500Y-90818942D01*
X145350500Y-89326079D01*
X145321659Y-89181092D01*
X145321658Y-89181091D01*
X145321658Y-89181087D01*
X145308627Y-89149628D01*
X145265087Y-89044511D01*
X145265080Y-89044498D01*
X145182952Y-88921585D01*
X145131453Y-88870086D01*
X145078416Y-88817049D01*
X144939276Y-88677909D01*
X144515921Y-88254552D01*
X144515914Y-88254546D01*
X144442229Y-88205312D01*
X144442229Y-88205313D01*
X144392995Y-88172416D01*
X144357663Y-88157781D01*
X144342647Y-88151561D01*
X144288244Y-88107720D01*
X144266179Y-88041426D01*
X144283458Y-87973727D01*
X144334595Y-87926116D01*
X144390100Y-87913000D01*
X147300270Y-87913000D01*
X147367309Y-87932685D01*
X147387951Y-87949319D01*
X148188613Y-88749980D01*
X148967049Y-89528416D01*
X149026633Y-89588000D01*
X149071585Y-89632952D01*
X149194498Y-89715080D01*
X149194511Y-89715087D01*
X149323842Y-89768657D01*
X149331087Y-89771658D01*
X149331091Y-89771658D01*
X149331092Y-89771659D01*
X149476079Y-89800500D01*
X149476082Y-89800500D01*
X149476083Y-89800500D01*
X149623917Y-89800500D01*
X152212770Y-89800500D01*
X152240093Y-89808523D01*
X152268124Y-89813541D01*
X152275658Y-89818966D01*
X152279809Y-89820185D01*
X152297143Y-89833631D01*
X152298821Y-89835189D01*
X152356344Y-89892712D01*
X152369536Y-89900849D01*
X152378456Y-89909131D01*
X152390352Y-89929119D01*
X152405905Y-89946411D01*
X152407884Y-89958576D01*
X152414190Y-89969171D01*
X152413390Y-89992418D01*
X152417126Y-90015374D01*
X152412213Y-90026680D01*
X152411790Y-90039000D01*
X152398551Y-90058122D01*
X152389282Y-90079456D01*
X152375537Y-90091365D01*
X152372020Y-90096446D01*
X152367509Y-90098321D01*
X152359182Y-90105537D01*
X152356346Y-90107285D01*
X152232289Y-90231342D01*
X152140187Y-90380663D01*
X152140186Y-90380666D01*
X152085001Y-90547203D01*
X152085001Y-90547204D01*
X152085000Y-90547204D01*
X152074500Y-90649983D01*
X152074500Y-91250001D01*
X152074501Y-91250019D01*
X152085000Y-91352796D01*
X152085001Y-91352799D01*
X152135834Y-91506202D01*
X152140186Y-91519334D01*
X152232288Y-91668656D01*
X152356344Y-91792712D01*
X152490597Y-91875519D01*
X152537321Y-91927465D01*
X152549500Y-91981057D01*
X152549500Y-92773918D01*
X152549500Y-92773920D01*
X152549499Y-92773920D01*
X152578340Y-92918907D01*
X152578343Y-92918917D01*
X152634912Y-93055488D01*
X152634916Y-93055495D01*
X152652014Y-93081084D01*
X152652015Y-93081087D01*
X152717046Y-93178414D01*
X152717052Y-93178421D01*
X153317049Y-93778416D01*
X153421584Y-93882951D01*
X153421587Y-93882953D01*
X153421588Y-93882954D01*
X153544503Y-93965083D01*
X153544504Y-93965083D01*
X153544505Y-93965084D01*
X153592382Y-93984915D01*
X153592383Y-93984916D01*
X153592384Y-93984916D01*
X153681087Y-94021658D01*
X153681091Y-94021658D01*
X153681092Y-94021659D01*
X153826079Y-94050500D01*
X153826082Y-94050500D01*
X153973917Y-94050500D01*
X155959362Y-94050500D01*
X156026401Y-94070185D01*
X156064899Y-94109401D01*
X156132288Y-94218656D01*
X156256344Y-94342712D01*
X156405666Y-94434814D01*
X156572203Y-94489999D01*
X156674991Y-94500500D01*
X157300008Y-94500499D01*
X157300016Y-94500498D01*
X157300019Y-94500498D01*
X157356302Y-94494748D01*
X157402797Y-94489999D01*
X157569334Y-94434814D01*
X157718656Y-94342712D01*
X157812319Y-94249049D01*
X157820264Y-94244710D01*
X157825690Y-94237463D01*
X157850449Y-94228228D01*
X157873642Y-94215564D01*
X157882671Y-94216209D01*
X157891154Y-94213046D01*
X157916974Y-94218662D01*
X157943334Y-94220548D01*
X157952387Y-94226366D01*
X157959427Y-94227898D01*
X157987681Y-94249049D01*
X158025681Y-94287049D01*
X158059166Y-94348372D01*
X158062000Y-94374730D01*
X158062000Y-95086418D01*
X158062000Y-95086420D01*
X158061999Y-95086420D01*
X158090840Y-95231407D01*
X158090843Y-95231417D01*
X158147412Y-95367988D01*
X158147420Y-95368003D01*
X158178879Y-95415083D01*
X158178881Y-95415086D01*
X158229543Y-95490910D01*
X158229547Y-95490915D01*
X162381580Y-99642948D01*
X162381584Y-99642951D01*
X162504498Y-99725080D01*
X162504511Y-99725087D01*
X162641082Y-99781656D01*
X162641087Y-99781658D01*
X162641091Y-99781658D01*
X162641092Y-99781659D01*
X162786079Y-99810500D01*
X162786082Y-99810500D01*
X162933917Y-99810500D01*
X166471862Y-99810500D01*
X166538901Y-99830185D01*
X166577399Y-99869401D01*
X166644788Y-99978656D01*
X166768844Y-100102712D01*
X166918166Y-100194814D01*
X167084703Y-100249999D01*
X167187491Y-100260500D01*
X167812508Y-100260499D01*
X167812516Y-100260498D01*
X167812519Y-100260498D01*
X167868802Y-100254748D01*
X167915297Y-100249999D01*
X168081834Y-100194814D01*
X168231156Y-100102712D01*
X168324819Y-100009049D01*
X168386142Y-99975564D01*
X168455834Y-99980548D01*
X168500181Y-100009049D01*
X168593844Y-100102712D01*
X168743166Y-100194814D01*
X168909703Y-100249999D01*
X169012491Y-100260500D01*
X169637508Y-100260499D01*
X169637516Y-100260498D01*
X169637519Y-100260498D01*
X169693802Y-100254748D01*
X169740297Y-100249999D01*
X169906834Y-100194814D01*
X170056156Y-100102712D01*
X170180212Y-99978656D01*
X170247599Y-99869402D01*
X170299547Y-99822679D01*
X170353138Y-99810500D01*
X171013920Y-99810500D01*
X171111462Y-99791096D01*
X171158913Y-99781658D01*
X171295495Y-99725084D01*
X171344729Y-99692186D01*
X171418416Y-99642952D01*
X172182657Y-98878711D01*
X185149500Y-98878711D01*
X185149500Y-99121288D01*
X185181161Y-99361785D01*
X185243947Y-99596104D01*
X185336773Y-99820205D01*
X185336777Y-99820214D01*
X185342534Y-99830185D01*
X185458064Y-100030289D01*
X185458066Y-100030292D01*
X185458067Y-100030293D01*
X185605733Y-100222736D01*
X185605739Y-100222743D01*
X185777256Y-100394260D01*
X185777262Y-100394265D01*
X185969711Y-100541936D01*
X186179788Y-100663224D01*
X186403900Y-100756054D01*
X186638211Y-100818838D01*
X186818586Y-100842584D01*
X186878711Y-100850500D01*
X186878712Y-100850500D01*
X187121289Y-100850500D01*
X187169388Y-100844167D01*
X187361789Y-100818838D01*
X187596100Y-100756054D01*
X187820212Y-100663224D01*
X188030289Y-100541936D01*
X188222738Y-100394265D01*
X188394265Y-100222738D01*
X188541936Y-100030289D01*
X188663224Y-99820212D01*
X188756054Y-99596100D01*
X188818838Y-99361789D01*
X188850500Y-99121288D01*
X188850500Y-98878712D01*
X188818838Y-98638211D01*
X188756054Y-98403900D01*
X188663224Y-98179788D01*
X188541936Y-97969711D01*
X188394265Y-97777262D01*
X188394260Y-97777256D01*
X188222743Y-97605739D01*
X188222736Y-97605733D01*
X188030293Y-97458067D01*
X188030292Y-97458066D01*
X188030289Y-97458064D01*
X187820212Y-97336776D01*
X187820205Y-97336773D01*
X187596104Y-97243947D01*
X187361785Y-97181161D01*
X187121289Y-97149500D01*
X187121288Y-97149500D01*
X186878712Y-97149500D01*
X186878711Y-97149500D01*
X186638214Y-97181161D01*
X186403895Y-97243947D01*
X186179794Y-97336773D01*
X186179785Y-97336777D01*
X185969706Y-97458067D01*
X185777263Y-97605733D01*
X185777256Y-97605739D01*
X185605739Y-97777256D01*
X185605733Y-97777263D01*
X185458067Y-97969706D01*
X185336777Y-98179785D01*
X185336773Y-98179794D01*
X185243947Y-98403895D01*
X185181161Y-98638214D01*
X185149500Y-98878711D01*
X172182657Y-98878711D01*
X174882952Y-96178415D01*
X174910205Y-96137627D01*
X174965084Y-96055495D01*
X174988518Y-95998920D01*
X175021659Y-95918912D01*
X175050500Y-95773917D01*
X175050500Y-95722016D01*
X175070185Y-95654977D01*
X175122989Y-95609222D01*
X175135488Y-95604313D01*
X175194334Y-95584814D01*
X175343656Y-95492712D01*
X175467712Y-95368656D01*
X175559814Y-95219334D01*
X175614999Y-95052797D01*
X175625500Y-94950009D01*
X175625499Y-94349992D01*
X175624755Y-94342712D01*
X175614999Y-94247203D01*
X175614998Y-94247200D01*
X175605539Y-94218656D01*
X175559814Y-94080666D01*
X175467712Y-93931344D01*
X175343656Y-93807288D01*
X175340819Y-93805538D01*
X175339283Y-93803830D01*
X175337989Y-93802807D01*
X175338163Y-93802585D01*
X175294096Y-93753594D01*
X175282872Y-93684632D01*
X175310713Y-93620549D01*
X175340817Y-93594462D01*
X175343656Y-93592712D01*
X175467712Y-93468656D01*
X175559814Y-93319334D01*
X175614999Y-93152797D01*
X175625500Y-93050009D01*
X175625499Y-92449992D01*
X175625282Y-92447872D01*
X175614999Y-92347203D01*
X175614998Y-92347200D01*
X175593090Y-92281087D01*
X175559814Y-92180666D01*
X175467712Y-92031344D01*
X175343656Y-91907288D01*
X175343655Y-91907287D01*
X175236177Y-91840995D01*
X175189452Y-91789047D01*
X175178229Y-91720085D01*
X175206072Y-91656003D01*
X175213581Y-91647786D01*
X175674547Y-91186821D01*
X175735870Y-91153336D01*
X175762228Y-91150502D01*
X177347868Y-91150502D01*
X177414907Y-91170187D01*
X177447134Y-91200190D01*
X177460327Y-91217813D01*
X177485311Y-91251188D01*
X177486555Y-91252849D01*
X177601764Y-91339095D01*
X177601771Y-91339099D01*
X177736617Y-91389393D01*
X177736616Y-91389393D01*
X177743544Y-91390137D01*
X177796227Y-91395802D01*
X180844511Y-91395801D01*
X180911549Y-91415486D01*
X180957304Y-91468290D01*
X180967248Y-91537448D01*
X180943777Y-91594112D01*
X180858767Y-91707669D01*
X180858766Y-91707671D01*
X180808472Y-91842517D01*
X180803925Y-91884814D01*
X180802065Y-91902123D01*
X180802064Y-91902135D01*
X180802064Y-93697870D01*
X180802065Y-93697876D01*
X180808472Y-93757483D01*
X180858766Y-93892328D01*
X180858770Y-93892335D01*
X180945016Y-94007544D01*
X180945019Y-94007547D01*
X181060228Y-94093793D01*
X181060235Y-94093797D01*
X181195081Y-94144091D01*
X181195080Y-94144091D01*
X181202008Y-94144835D01*
X181254691Y-94150500D01*
X184449236Y-94150499D01*
X184508847Y-94144091D01*
X184643695Y-94093796D01*
X184758910Y-94007546D01*
X184845160Y-93892331D01*
X184895455Y-93757483D01*
X184901864Y-93697873D01*
X184901863Y-91902128D01*
X184895455Y-91842517D01*
X184894887Y-91840995D01*
X184845161Y-91707671D01*
X184845157Y-91707664D01*
X184758911Y-91592455D01*
X184758908Y-91592452D01*
X184643699Y-91506206D01*
X184643692Y-91506202D01*
X184508846Y-91455908D01*
X184508847Y-91455908D01*
X184449247Y-91449501D01*
X184449245Y-91449500D01*
X184449237Y-91449500D01*
X184449229Y-91449500D01*
X183813954Y-91449500D01*
X183746915Y-91429815D01*
X183701160Y-91377011D01*
X183691216Y-91307853D01*
X183714687Y-91251190D01*
X183799696Y-91137633D01*
X183849991Y-91002785D01*
X183856400Y-90943175D01*
X183856399Y-89856830D01*
X183849991Y-89797219D01*
X183840457Y-89771658D01*
X183799697Y-89662373D01*
X183799693Y-89662366D01*
X183713447Y-89547157D01*
X183698372Y-89535872D01*
X183649058Y-89498955D01*
X183607188Y-89443021D01*
X183602204Y-89373330D01*
X183635690Y-89312007D01*
X183649059Y-89300422D01*
X183713091Y-89252487D01*
X183799250Y-89137394D01*
X183799254Y-89137387D01*
X183849496Y-89002680D01*
X183849498Y-89002673D01*
X183855899Y-88943145D01*
X183855900Y-88943128D01*
X183855900Y-88650001D01*
X177344100Y-88650001D01*
X177344100Y-88943145D01*
X177350501Y-89002673D01*
X177350503Y-89002680D01*
X177400745Y-89137387D01*
X177400749Y-89137394D01*
X177486909Y-89252488D01*
X177550941Y-89300423D01*
X177562045Y-89315257D01*
X177576750Y-89326533D01*
X177582548Y-89342647D01*
X177592811Y-89356357D01*
X177594132Y-89374840D01*
X177600407Y-89392276D01*
X177596573Y-89408966D01*
X177597795Y-89426048D01*
X177588914Y-89442310D01*
X177584766Y-89460372D01*
X177569614Y-89477654D01*
X177564309Y-89487371D01*
X177563289Y-89488380D01*
X177557459Y-89494076D01*
X177486554Y-89547156D01*
X177441388Y-89607489D01*
X177434528Y-89614193D01*
X177411800Y-89626263D01*
X177391200Y-89641684D01*
X177378424Y-89643988D01*
X177372821Y-89646965D01*
X177365366Y-89646344D01*
X177347868Y-89649502D01*
X175326074Y-89649502D01*
X175297240Y-89655236D01*
X175297241Y-89655237D01*
X175181091Y-89678341D01*
X175181081Y-89678344D01*
X175101079Y-89711481D01*
X175101080Y-89711482D01*
X175044504Y-89734917D01*
X175013709Y-89755494D01*
X174921577Y-89817053D01*
X173817050Y-90921580D01*
X173817044Y-90921588D01*
X173767812Y-90995268D01*
X173767813Y-90995269D01*
X173734921Y-91044496D01*
X173734914Y-91044508D01*
X173678342Y-91181086D01*
X173678340Y-91181092D01*
X173649500Y-91326079D01*
X173649500Y-91718942D01*
X173629815Y-91785981D01*
X173590598Y-91824479D01*
X173507852Y-91875518D01*
X173456342Y-91907289D01*
X173356247Y-92007385D01*
X173294924Y-92040870D01*
X173225232Y-92035886D01*
X173180885Y-92007385D01*
X173074038Y-91900538D01*
X173074034Y-91900535D01*
X172926553Y-91801990D01*
X172926540Y-91801983D01*
X172762667Y-91734106D01*
X172762658Y-91734103D01*
X172588694Y-91699500D01*
X172588691Y-91699500D01*
X172411309Y-91699500D01*
X172411306Y-91699500D01*
X172237341Y-91734103D01*
X172237332Y-91734106D01*
X172073459Y-91801983D01*
X172073446Y-91801990D01*
X171925965Y-91900535D01*
X171925961Y-91900538D01*
X171800538Y-92025961D01*
X171800535Y-92025965D01*
X171701990Y-92173446D01*
X171701985Y-92173456D01*
X171669060Y-92252945D01*
X171625219Y-92307348D01*
X171558925Y-92329413D01*
X171491225Y-92312134D01*
X171443615Y-92260996D01*
X171430499Y-92205494D01*
X171430499Y-91702128D01*
X171424091Y-91642517D01*
X171418159Y-91626613D01*
X171373797Y-91507671D01*
X171373793Y-91507664D01*
X171287547Y-91392455D01*
X171287544Y-91392452D01*
X171172335Y-91306206D01*
X171172328Y-91306202D01*
X171037482Y-91255908D01*
X171037483Y-91255908D01*
X170977883Y-91249501D01*
X170977881Y-91249500D01*
X170977873Y-91249500D01*
X170977864Y-91249500D01*
X169382129Y-91249500D01*
X169382123Y-91249501D01*
X169322516Y-91255908D01*
X169187671Y-91306202D01*
X169187664Y-91306206D01*
X169072455Y-91392452D01*
X169072452Y-91392455D01*
X168986206Y-91507664D01*
X168986202Y-91507671D01*
X168935910Y-91642513D01*
X168935909Y-91642517D01*
X168929500Y-91702127D01*
X168929500Y-91702134D01*
X168929500Y-91702135D01*
X168929500Y-92447870D01*
X168929501Y-92447876D01*
X168935908Y-92507483D01*
X168986202Y-92642328D01*
X168990454Y-92650114D01*
X168987280Y-92651846D01*
X169005659Y-92701302D01*
X168990725Y-92769557D01*
X168990117Y-92770502D01*
X168986202Y-92777671D01*
X168935910Y-92912513D01*
X168935909Y-92912517D01*
X168929500Y-92972127D01*
X168929500Y-92972134D01*
X168929500Y-92972135D01*
X168929500Y-93717870D01*
X168929501Y-93717876D01*
X168935908Y-93777483D01*
X168986202Y-93912328D01*
X168990454Y-93920114D01*
X168987280Y-93921846D01*
X169005659Y-93971302D01*
X168990725Y-94039557D01*
X168990117Y-94040502D01*
X168986202Y-94047671D01*
X168935910Y-94182513D01*
X168935909Y-94182517D01*
X168929500Y-94242127D01*
X168929500Y-94242134D01*
X168929500Y-94242135D01*
X168929500Y-94987870D01*
X168929501Y-94987876D01*
X168935908Y-95047483D01*
X168986202Y-95182328D01*
X168990454Y-95190114D01*
X168987280Y-95191846D01*
X169005659Y-95241302D01*
X168990725Y-95309557D01*
X168990117Y-95310502D01*
X168986202Y-95317671D01*
X168935910Y-95452513D01*
X168935909Y-95452517D01*
X168929500Y-95512127D01*
X168929500Y-95512134D01*
X168929500Y-95512135D01*
X168929500Y-96257870D01*
X168929501Y-96257876D01*
X168935908Y-96317483D01*
X168986202Y-96452328D01*
X168986206Y-96452335D01*
X169072452Y-96567544D01*
X169072455Y-96567547D01*
X169187664Y-96653793D01*
X169187671Y-96653797D01*
X169322517Y-96704091D01*
X169322516Y-96704091D01*
X169329444Y-96704835D01*
X169382127Y-96710500D01*
X170977872Y-96710499D01*
X171037483Y-96704091D01*
X171172331Y-96653796D01*
X171287546Y-96567546D01*
X171373796Y-96452331D01*
X171424091Y-96317483D01*
X171430500Y-96257873D01*
X171430499Y-95512128D01*
X171430498Y-95512126D01*
X171430498Y-95512114D01*
X171429492Y-95502757D01*
X171441896Y-95433997D01*
X171489506Y-95382859D01*
X171552781Y-95365500D01*
X173273770Y-95365500D01*
X173340809Y-95385185D01*
X173386564Y-95437989D01*
X173396508Y-95507147D01*
X173367483Y-95570703D01*
X173361451Y-95577181D01*
X170665451Y-98273181D01*
X170638523Y-98287884D01*
X170612705Y-98304477D01*
X170606504Y-98305368D01*
X170604128Y-98306666D01*
X170577770Y-98309500D01*
X170353138Y-98309500D01*
X170286099Y-98289815D01*
X170247599Y-98250597D01*
X170180212Y-98141344D01*
X170056156Y-98017288D01*
X169906834Y-97925186D01*
X169740297Y-97870001D01*
X169740295Y-97870000D01*
X169637510Y-97859500D01*
X169012498Y-97859500D01*
X169012480Y-97859501D01*
X168909703Y-97870000D01*
X168909700Y-97870001D01*
X168743168Y-97925185D01*
X168743163Y-97925187D01*
X168593842Y-98017289D01*
X168500181Y-98110951D01*
X168438858Y-98144436D01*
X168369166Y-98139452D01*
X168324819Y-98110951D01*
X168231157Y-98017289D01*
X168231156Y-98017288D01*
X168081834Y-97925186D01*
X167915297Y-97870001D01*
X167915295Y-97870000D01*
X167812510Y-97859500D01*
X167187498Y-97859500D01*
X167187480Y-97859501D01*
X167084703Y-97870000D01*
X167084700Y-97870001D01*
X166918168Y-97925185D01*
X166918163Y-97925187D01*
X166768842Y-98017289D01*
X166644789Y-98141342D01*
X166577401Y-98250597D01*
X166525453Y-98297321D01*
X166471862Y-98309500D01*
X163222229Y-98309500D01*
X163155190Y-98289815D01*
X163134548Y-98273181D01*
X161571366Y-96709999D01*
X164308551Y-96709999D01*
X164308552Y-96710000D01*
X165251448Y-96710000D01*
X165251448Y-96709999D01*
X164780000Y-96238552D01*
X164308551Y-96709999D01*
X161571366Y-96709999D01*
X159599319Y-94737951D01*
X159565834Y-94676628D01*
X159563000Y-94650270D01*
X159563000Y-94374730D01*
X159569894Y-94351251D01*
X159572585Y-94326925D01*
X159580506Y-94315108D01*
X159582685Y-94307691D01*
X159590688Y-94296627D01*
X159594749Y-94291618D01*
X159667712Y-94218656D01*
X159711538Y-94147600D01*
X159716570Y-94141397D01*
X159739017Y-94125914D01*
X159759291Y-94107679D01*
X159768482Y-94105590D01*
X159774085Y-94101726D01*
X159787397Y-94101291D01*
X159812882Y-94095500D01*
X163407219Y-94095500D01*
X163474258Y-94115185D01*
X163520013Y-94167989D01*
X163530507Y-94232756D01*
X163529500Y-94242127D01*
X163529500Y-94987870D01*
X163529501Y-94987876D01*
X163535908Y-95047483D01*
X163586202Y-95182327D01*
X163590452Y-95190109D01*
X163587394Y-95191778D01*
X163605963Y-95241594D01*
X163591098Y-95309864D01*
X163590717Y-95310457D01*
X163586645Y-95317913D01*
X163536403Y-95452620D01*
X163536401Y-95452627D01*
X163530000Y-95512155D01*
X163530000Y-96257844D01*
X163536401Y-96317372D01*
X163536403Y-96317379D01*
X163586645Y-96452086D01*
X163586647Y-96452088D01*
X163672810Y-96567188D01*
X163713671Y-96597776D01*
X163718224Y-96593224D01*
X164515543Y-95795905D01*
X164576866Y-95762420D01*
X164646558Y-95767404D01*
X164690905Y-95795905D01*
X164780000Y-95885000D01*
X164869095Y-95795905D01*
X164930418Y-95762420D01*
X165000110Y-95767404D01*
X165044457Y-95795905D01*
X165846327Y-96597775D01*
X165846328Y-96597775D01*
X165887188Y-96567190D01*
X165973352Y-96452088D01*
X165973354Y-96452086D01*
X166023596Y-96317379D01*
X166023598Y-96317372D01*
X166029999Y-96257844D01*
X166030000Y-96257827D01*
X166030000Y-95512172D01*
X166029999Y-95512163D01*
X166028231Y-95495719D01*
X166040634Y-95426959D01*
X166088243Y-95375820D01*
X166127328Y-95360843D01*
X166248913Y-95336658D01*
X166385495Y-95280084D01*
X166456035Y-95232951D01*
X166456038Y-95232948D01*
X166456040Y-95232948D01*
X166482400Y-95215334D01*
X166508416Y-95197952D01*
X167582951Y-94123416D01*
X167665084Y-94000495D01*
X167721658Y-93863913D01*
X167734767Y-93798013D01*
X167750500Y-93718920D01*
X167750500Y-89126079D01*
X167721659Y-88981092D01*
X167721658Y-88981091D01*
X167721658Y-88981087D01*
X167697011Y-88921584D01*
X167665085Y-88844507D01*
X167657927Y-88833794D01*
X167611014Y-88763583D01*
X167591396Y-88734221D01*
X167582957Y-88721590D01*
X167582952Y-88721584D01*
X167413755Y-88552387D01*
X170575001Y-88552387D01*
X170585494Y-88655098D01*
X170640641Y-88821520D01*
X170640643Y-88821525D01*
X170732684Y-88970746D01*
X170856654Y-89094716D01*
X171005875Y-89186757D01*
X171005880Y-89186759D01*
X171172302Y-89241906D01*
X171172309Y-89241907D01*
X171275019Y-89252400D01*
X171549999Y-89252400D01*
X172050000Y-89252400D01*
X172324972Y-89252400D01*
X172324986Y-89252399D01*
X172427697Y-89241906D01*
X172594119Y-89186759D01*
X172594124Y-89186757D01*
X172743345Y-89094716D01*
X172867315Y-88970746D01*
X172959356Y-88821525D01*
X172959358Y-88821520D01*
X173014505Y-88655098D01*
X173014506Y-88655091D01*
X173024999Y-88552387D01*
X174075001Y-88552387D01*
X174085494Y-88655098D01*
X174140641Y-88821520D01*
X174140643Y-88821525D01*
X174232684Y-88970746D01*
X174356654Y-89094716D01*
X174505875Y-89186757D01*
X174505880Y-89186759D01*
X174672302Y-89241906D01*
X174672309Y-89241907D01*
X174775019Y-89252400D01*
X175049999Y-89252400D01*
X175550000Y-89252400D01*
X175824972Y-89252400D01*
X175824986Y-89252399D01*
X175927697Y-89241906D01*
X176094119Y-89186759D01*
X176094124Y-89186757D01*
X176243345Y-89094716D01*
X176367315Y-88970746D01*
X176459356Y-88821525D01*
X176459358Y-88821520D01*
X176514505Y-88655098D01*
X176514506Y-88655091D01*
X176524999Y-88552387D01*
X176525000Y-88552374D01*
X176525000Y-88502401D01*
X175550000Y-88502401D01*
X175550000Y-89252400D01*
X175049999Y-89252400D01*
X175050000Y-89252399D01*
X175050000Y-88502401D01*
X174075001Y-88502401D01*
X174075001Y-88552387D01*
X173024999Y-88552387D01*
X173025000Y-88552374D01*
X173025000Y-88502401D01*
X172050000Y-88502401D01*
X172050000Y-89252400D01*
X171549999Y-89252400D01*
X171550000Y-89252399D01*
X171550000Y-88502401D01*
X170575001Y-88502401D01*
X170575001Y-88552387D01*
X167413755Y-88552387D01*
X167400088Y-88538720D01*
X165256668Y-86395299D01*
X165175074Y-86313705D01*
X168599500Y-86313705D01*
X168599500Y-86491096D01*
X168634103Y-86665059D01*
X168634106Y-86665068D01*
X168701983Y-86828941D01*
X168701990Y-86828954D01*
X168800535Y-86976435D01*
X168800538Y-86976439D01*
X168925961Y-87101862D01*
X168925965Y-87101865D01*
X169073446Y-87200410D01*
X169073459Y-87200417D01*
X169190993Y-87249100D01*
X169237334Y-87268295D01*
X169237336Y-87268295D01*
X169237341Y-87268297D01*
X169411304Y-87302900D01*
X169411307Y-87302901D01*
X169411309Y-87302901D01*
X169588693Y-87302901D01*
X169588694Y-87302900D01*
X169667032Y-87287318D01*
X169762658Y-87268297D01*
X169762661Y-87268295D01*
X169762666Y-87268295D01*
X169910584Y-87207026D01*
X169926540Y-87200417D01*
X169926540Y-87200416D01*
X169926547Y-87200414D01*
X169931426Y-87197154D01*
X169969973Y-87171398D01*
X170036650Y-87150520D01*
X170038864Y-87150500D01*
X170760369Y-87150500D01*
X170784319Y-87157532D01*
X170809111Y-87160481D01*
X170820427Y-87168135D01*
X170827408Y-87170185D01*
X170839259Y-87178832D01*
X170843843Y-87182612D01*
X170856344Y-87195113D01*
X170866892Y-87201619D01*
X170873449Y-87207026D01*
X170888472Y-87229192D01*
X170906379Y-87249100D01*
X170907774Y-87257672D01*
X170912648Y-87264864D01*
X170913301Y-87291635D01*
X170917603Y-87318062D01*
X170914141Y-87326028D01*
X170914354Y-87334713D01*
X170900429Y-87357588D01*
X170889761Y-87382145D01*
X170880706Y-87389991D01*
X170878026Y-87394396D01*
X170872550Y-87397059D01*
X170859665Y-87408227D01*
X170856660Y-87410080D01*
X170856655Y-87410084D01*
X170732684Y-87534055D01*
X170640643Y-87683276D01*
X170640641Y-87683281D01*
X170585494Y-87849703D01*
X170585493Y-87849710D01*
X170575000Y-87952414D01*
X170575000Y-88002401D01*
X173024999Y-88002401D01*
X173024999Y-87952429D01*
X173024998Y-87952414D01*
X173014505Y-87849703D01*
X172959358Y-87683281D01*
X172959356Y-87683276D01*
X172867315Y-87534055D01*
X172743344Y-87410084D01*
X172743341Y-87410082D01*
X172740339Y-87408230D01*
X172738713Y-87406422D01*
X172737677Y-87405603D01*
X172737817Y-87405425D01*
X172720954Y-87386677D01*
X172699518Y-87367165D01*
X172697874Y-87361014D01*
X172693617Y-87356281D01*
X172688962Y-87327669D01*
X172681477Y-87299664D01*
X172683419Y-87293601D01*
X172682397Y-87287318D01*
X172693949Y-87260732D01*
X172702794Y-87233126D01*
X172708193Y-87227954D01*
X172710243Y-87223237D01*
X172726551Y-87207025D01*
X172733103Y-87201621D01*
X172743656Y-87195113D01*
X172756158Y-87182610D01*
X172760742Y-87178831D01*
X172787620Y-87167341D01*
X172813273Y-87153334D01*
X172822780Y-87152311D01*
X172824988Y-87151368D01*
X172827544Y-87151799D01*
X172839631Y-87150500D01*
X174260369Y-87150500D01*
X174327408Y-87170185D01*
X174348050Y-87186819D01*
X174356344Y-87195113D01*
X174359628Y-87197138D01*
X174359653Y-87197154D01*
X174361445Y-87199147D01*
X174362011Y-87199594D01*
X174361934Y-87199690D01*
X174406379Y-87249100D01*
X174417603Y-87318062D01*
X174389761Y-87382145D01*
X174359665Y-87408227D01*
X174356660Y-87410080D01*
X174356655Y-87410084D01*
X174232684Y-87534055D01*
X174140643Y-87683276D01*
X174140641Y-87683281D01*
X174085494Y-87849703D01*
X174085493Y-87849710D01*
X174075000Y-87952414D01*
X174075000Y-88002401D01*
X176524999Y-88002401D01*
X176524999Y-87952429D01*
X176524998Y-87952414D01*
X176514505Y-87849703D01*
X176459358Y-87683281D01*
X176459356Y-87683276D01*
X176367315Y-87534055D01*
X176243344Y-87410084D01*
X176243341Y-87410082D01*
X176240339Y-87408230D01*
X176238713Y-87406422D01*
X176237677Y-87405603D01*
X176237817Y-87405425D01*
X176220954Y-87386677D01*
X176199518Y-87367165D01*
X176197874Y-87361014D01*
X176193617Y-87356281D01*
X176188962Y-87327669D01*
X176181477Y-87299664D01*
X176183419Y-87293601D01*
X176182397Y-87287318D01*
X176193949Y-87260732D01*
X176202794Y-87233126D01*
X176208193Y-87227954D01*
X176210243Y-87223237D01*
X176226551Y-87207025D01*
X176233103Y-87201621D01*
X176243656Y-87195113D01*
X176256158Y-87182610D01*
X176260742Y-87178831D01*
X176287620Y-87167341D01*
X176313273Y-87153334D01*
X176322780Y-87152311D01*
X176324988Y-87151368D01*
X176327544Y-87151799D01*
X176339631Y-87150500D01*
X177347868Y-87150500D01*
X177414907Y-87170185D01*
X177447134Y-87200188D01*
X177486555Y-87252847D01*
X177550940Y-87301046D01*
X177592811Y-87356979D01*
X177597795Y-87426671D01*
X177564309Y-87487994D01*
X177550941Y-87499578D01*
X177486909Y-87547513D01*
X177400749Y-87662607D01*
X177400745Y-87662614D01*
X177350503Y-87797321D01*
X177350501Y-87797328D01*
X177344100Y-87856856D01*
X177344100Y-88150001D01*
X183855900Y-88150001D01*
X183855900Y-87856873D01*
X183855899Y-87856856D01*
X183849498Y-87797328D01*
X183849496Y-87797321D01*
X183799254Y-87662614D01*
X183799250Y-87662607D01*
X183713090Y-87547513D01*
X183649058Y-87499578D01*
X183607188Y-87443644D01*
X183602204Y-87373952D01*
X183635690Y-87312630D01*
X183649049Y-87301053D01*
X183713446Y-87252846D01*
X183799696Y-87137631D01*
X183849991Y-87002783D01*
X183856400Y-86943173D01*
X183856399Y-85856828D01*
X183849991Y-85797217D01*
X183837042Y-85762500D01*
X183799697Y-85662371D01*
X183799695Y-85662368D01*
X183790062Y-85649500D01*
X183714686Y-85548810D01*
X183690269Y-85483349D01*
X183705120Y-85415075D01*
X183754525Y-85365670D01*
X183813952Y-85350501D01*
X184449236Y-85350501D01*
X184508847Y-85344093D01*
X184643695Y-85293798D01*
X184758910Y-85207548D01*
X184845160Y-85092333D01*
X184895455Y-84957485D01*
X184901864Y-84897875D01*
X184901863Y-83102130D01*
X184895455Y-83042519D01*
X184879395Y-82999461D01*
X184845161Y-82907673D01*
X184845157Y-82907666D01*
X184758911Y-82792457D01*
X184758908Y-82792454D01*
X184643699Y-82706208D01*
X184643692Y-82706204D01*
X184508846Y-82655910D01*
X184508847Y-82655910D01*
X184449247Y-82649503D01*
X184449245Y-82649502D01*
X184449237Y-82649502D01*
X184449228Y-82649502D01*
X181254693Y-82649502D01*
X181254687Y-82649503D01*
X181195080Y-82655910D01*
X181060235Y-82706204D01*
X181060228Y-82706208D01*
X180945019Y-82792454D01*
X180945016Y-82792457D01*
X180858770Y-82907666D01*
X180858766Y-82907673D01*
X180808472Y-83042519D01*
X180802506Y-83098016D01*
X180802065Y-83102125D01*
X180802064Y-83102137D01*
X180802064Y-84897872D01*
X180802065Y-84897878D01*
X180808472Y-84957485D01*
X180858766Y-85092330D01*
X180858768Y-85092333D01*
X180943776Y-85205889D01*
X180968194Y-85271353D01*
X180953343Y-85339626D01*
X180903938Y-85389032D01*
X180844510Y-85404200D01*
X177796229Y-85404200D01*
X177796223Y-85404201D01*
X177736616Y-85410608D01*
X177601771Y-85460902D01*
X177601764Y-85460906D01*
X177486555Y-85547152D01*
X177447134Y-85599812D01*
X177391200Y-85641682D01*
X177347868Y-85649500D01*
X176434830Y-85649500D01*
X176367791Y-85629815D01*
X176347149Y-85613182D01*
X176333779Y-85599812D01*
X176243656Y-85509689D01*
X176094334Y-85417587D01*
X175927797Y-85362402D01*
X175927795Y-85362401D01*
X175825010Y-85351901D01*
X174774998Y-85351901D01*
X174774980Y-85351902D01*
X174672203Y-85362401D01*
X174672200Y-85362402D01*
X174505668Y-85417586D01*
X174505663Y-85417588D01*
X174356345Y-85509688D01*
X174252851Y-85613182D01*
X174191528Y-85646666D01*
X174165170Y-85649500D01*
X172934830Y-85649500D01*
X172867791Y-85629815D01*
X172847149Y-85613182D01*
X172833779Y-85599812D01*
X172743656Y-85509689D01*
X172594334Y-85417587D01*
X172427797Y-85362402D01*
X172427795Y-85362401D01*
X172325010Y-85351901D01*
X171274998Y-85351901D01*
X171274980Y-85351902D01*
X171172203Y-85362401D01*
X171172200Y-85362402D01*
X171005668Y-85417586D01*
X171005663Y-85417588D01*
X170856345Y-85509688D01*
X170752851Y-85613182D01*
X170691528Y-85646666D01*
X170665170Y-85649500D01*
X170031676Y-85649500D01*
X169964637Y-85629815D01*
X169962785Y-85628602D01*
X169959491Y-85626401D01*
X169926547Y-85604388D01*
X169926544Y-85604386D01*
X169926543Y-85604386D01*
X169926542Y-85604385D01*
X169762667Y-85536507D01*
X169762658Y-85536504D01*
X169588694Y-85501901D01*
X169588691Y-85501901D01*
X169411309Y-85501901D01*
X169411306Y-85501901D01*
X169237341Y-85536504D01*
X169237332Y-85536507D01*
X169073459Y-85604384D01*
X169073446Y-85604391D01*
X168925965Y-85702936D01*
X168925961Y-85702939D01*
X168800538Y-85828362D01*
X168800535Y-85828366D01*
X168701990Y-85975847D01*
X168701983Y-85975860D01*
X168634106Y-86139733D01*
X168634103Y-86139742D01*
X168599500Y-86313705D01*
X165175074Y-86313705D01*
X164865921Y-86004552D01*
X164865914Y-86004546D01*
X164783784Y-85949669D01*
X164783685Y-85949604D01*
X164742995Y-85922416D01*
X164742994Y-85922415D01*
X164742992Y-85922414D01*
X164606417Y-85865843D01*
X164606407Y-85865840D01*
X164461420Y-85837000D01*
X164461418Y-85837000D01*
X163674730Y-85837000D01*
X163607691Y-85817315D01*
X163587049Y-85800681D01*
X163518657Y-85732289D01*
X163518656Y-85732288D01*
X163409402Y-85664900D01*
X163362679Y-85612953D01*
X163350500Y-85559362D01*
X163350500Y-83390638D01*
X163370185Y-83323599D01*
X163409401Y-83285100D01*
X163518656Y-83217712D01*
X163642712Y-83093656D01*
X163734814Y-82944334D01*
X163789999Y-82777797D01*
X163800500Y-82675009D01*
X163800499Y-82049992D01*
X163797201Y-82017710D01*
X163789999Y-81947203D01*
X163789998Y-81947200D01*
X163774357Y-81899999D01*
X163734814Y-81780666D01*
X163642712Y-81631344D01*
X163549049Y-81537681D01*
X163515564Y-81476358D01*
X163520548Y-81406666D01*
X163549049Y-81362319D01*
X163642712Y-81268656D01*
X163734814Y-81119334D01*
X163789999Y-80952797D01*
X163800500Y-80850009D01*
X163800499Y-80611304D01*
X165262000Y-80611304D01*
X165262000Y-80788695D01*
X165296603Y-80962658D01*
X165296606Y-80962667D01*
X165364483Y-81126540D01*
X165364490Y-81126553D01*
X165463035Y-81274034D01*
X165463038Y-81274038D01*
X165588461Y-81399461D01*
X165588465Y-81399464D01*
X165735946Y-81498009D01*
X165735959Y-81498016D01*
X165831721Y-81537681D01*
X165899834Y-81565894D01*
X165899836Y-81565894D01*
X165899841Y-81565896D01*
X166073804Y-81600499D01*
X166073807Y-81600500D01*
X166073809Y-81600500D01*
X166251193Y-81600500D01*
X166251194Y-81600499D01*
X166309182Y-81588964D01*
X166425158Y-81565896D01*
X166425161Y-81565894D01*
X166425166Y-81565894D01*
X166589047Y-81498013D01*
X166589050Y-81498010D01*
X166589052Y-81498010D01*
X166628878Y-81471399D01*
X166646924Y-81465747D01*
X166662835Y-81455523D01*
X166693792Y-81451071D01*
X166695555Y-81450520D01*
X166697770Y-81450500D01*
X166821862Y-81450500D01*
X166888901Y-81470185D01*
X166927399Y-81509401D01*
X166994788Y-81618656D01*
X167118844Y-81742712D01*
X167268166Y-81834814D01*
X167434703Y-81889999D01*
X167537491Y-81900500D01*
X168162508Y-81900499D01*
X168162516Y-81900498D01*
X168162519Y-81900498D01*
X168229497Y-81893656D01*
X168265297Y-81889999D01*
X168431834Y-81834814D01*
X168581156Y-81742712D01*
X168674819Y-81649049D01*
X168736142Y-81615564D01*
X168805834Y-81620548D01*
X168850181Y-81649049D01*
X168943844Y-81742712D01*
X169093166Y-81834814D01*
X169259703Y-81889999D01*
X169362491Y-81900500D01*
X169987508Y-81900499D01*
X169987516Y-81900498D01*
X169987519Y-81900498D01*
X170054497Y-81893656D01*
X170090297Y-81889999D01*
X170256834Y-81834814D01*
X170406156Y-81742712D01*
X170530212Y-81618656D01*
X170597599Y-81509402D01*
X170605186Y-81502578D01*
X170609425Y-81493297D01*
X170630724Y-81479608D01*
X170649547Y-81462679D01*
X170661182Y-81460034D01*
X170668203Y-81455523D01*
X170703138Y-81450500D01*
X170719100Y-81450500D01*
X170786139Y-81470185D01*
X170824636Y-81509400D01*
X170893278Y-81620685D01*
X170893475Y-81621004D01*
X171016496Y-81744025D01*
X171016500Y-81744028D01*
X171164566Y-81835357D01*
X171164569Y-81835358D01*
X171164575Y-81835362D01*
X171329725Y-81890087D01*
X171431652Y-81900500D01*
X171431657Y-81900500D01*
X172018343Y-81900500D01*
X172018348Y-81900500D01*
X172120275Y-81890087D01*
X172285425Y-81835362D01*
X172433503Y-81744026D01*
X172556526Y-81621003D01*
X172557255Y-81619821D01*
X172557966Y-81619181D01*
X172561007Y-81615336D01*
X172561663Y-81615855D01*
X172609201Y-81573097D01*
X172678164Y-81561873D01*
X172742246Y-81589715D01*
X172764261Y-81615123D01*
X172764388Y-81615023D01*
X172766613Y-81617838D01*
X172768333Y-81619822D01*
X172768865Y-81620685D01*
X172768869Y-81620690D01*
X172891808Y-81743629D01*
X173039785Y-81834903D01*
X173039790Y-81834905D01*
X173204826Y-81889592D01*
X173306684Y-81899999D01*
X173306697Y-81900000D01*
X173350000Y-81900000D01*
X173850000Y-81900000D01*
X173893303Y-81900000D01*
X173893315Y-81899999D01*
X173995173Y-81889592D01*
X174160209Y-81834905D01*
X174160214Y-81834903D01*
X174308191Y-81743629D01*
X174431129Y-81620691D01*
X174522403Y-81472714D01*
X174522405Y-81472709D01*
X174577092Y-81307673D01*
X174587499Y-81205815D01*
X174587500Y-81205802D01*
X174587500Y-80950000D01*
X173850000Y-80950000D01*
X173850000Y-81900000D01*
X173350000Y-81900000D01*
X173350000Y-80450000D01*
X173850000Y-80450000D01*
X174587500Y-80450000D01*
X174587500Y-80194197D01*
X174587499Y-80194184D01*
X174577092Y-80092326D01*
X174522405Y-79927290D01*
X174522403Y-79927285D01*
X174431129Y-79779308D01*
X174308191Y-79656370D01*
X174160214Y-79565096D01*
X174160209Y-79565094D01*
X173995173Y-79510407D01*
X173893315Y-79500000D01*
X173850000Y-79500000D01*
X173850000Y-80450000D01*
X173350000Y-80450000D01*
X173350000Y-79500000D01*
X173306684Y-79500000D01*
X173204826Y-79510407D01*
X173039790Y-79565094D01*
X173039785Y-79565096D01*
X172891808Y-79656370D01*
X172768869Y-79779309D01*
X172768864Y-79779315D01*
X172768329Y-79780184D01*
X172767806Y-79780654D01*
X172764388Y-79784977D01*
X172763649Y-79784392D01*
X172716379Y-79826906D01*
X172647416Y-79838125D01*
X172583335Y-79810278D01*
X172561086Y-79784601D01*
X172561007Y-79784664D01*
X172559611Y-79782898D01*
X172557258Y-79780183D01*
X172556528Y-79778999D01*
X172433503Y-79655974D01*
X172433499Y-79655971D01*
X172285433Y-79564642D01*
X172285427Y-79564639D01*
X172285425Y-79564638D01*
X172216915Y-79541936D01*
X172120276Y-79509913D01*
X172018355Y-79499500D01*
X172018348Y-79499500D01*
X171431652Y-79499500D01*
X171431644Y-79499500D01*
X171329723Y-79509913D01*
X171164577Y-79564637D01*
X171164566Y-79564642D01*
X171016500Y-79655971D01*
X171016496Y-79655974D01*
X170893475Y-79778995D01*
X170889785Y-79784977D01*
X170824636Y-79890599D01*
X170817051Y-79897421D01*
X170812813Y-79906703D01*
X170791513Y-79920391D01*
X170772691Y-79937321D01*
X170761055Y-79939965D01*
X170754035Y-79944477D01*
X170719100Y-79949500D01*
X170703138Y-79949500D01*
X170636099Y-79929815D01*
X170597599Y-79890597D01*
X170530212Y-79781344D01*
X170406156Y-79657288D01*
X170297366Y-79590186D01*
X170256836Y-79565187D01*
X170256831Y-79565185D01*
X170193795Y-79544297D01*
X170090297Y-79510001D01*
X170090295Y-79510000D01*
X169987510Y-79499500D01*
X169362498Y-79499500D01*
X169362480Y-79499501D01*
X169259703Y-79510000D01*
X169259700Y-79510001D01*
X169093168Y-79565185D01*
X169093163Y-79565187D01*
X168943842Y-79657289D01*
X168850181Y-79750951D01*
X168788858Y-79784436D01*
X168719166Y-79779452D01*
X168674819Y-79750951D01*
X168581157Y-79657289D01*
X168581156Y-79657288D01*
X168472366Y-79590186D01*
X168431836Y-79565187D01*
X168431831Y-79565185D01*
X168368795Y-79544297D01*
X168265297Y-79510001D01*
X168265295Y-79510000D01*
X168162510Y-79499500D01*
X167537498Y-79499500D01*
X167537480Y-79499501D01*
X167434703Y-79510000D01*
X167434700Y-79510001D01*
X167268168Y-79565185D01*
X167268163Y-79565187D01*
X167118842Y-79657289D01*
X166994789Y-79781342D01*
X166994788Y-79781344D01*
X166952133Y-79850500D01*
X166927401Y-79890597D01*
X166919813Y-79897421D01*
X166915575Y-79906703D01*
X166894275Y-79920391D01*
X166875453Y-79937321D01*
X166863817Y-79939965D01*
X166856797Y-79944477D01*
X166821862Y-79949500D01*
X166697770Y-79949500D01*
X166630731Y-79929815D01*
X166628878Y-79928601D01*
X166589052Y-79901989D01*
X166589047Y-79901987D01*
X166425167Y-79834106D01*
X166425158Y-79834103D01*
X166251194Y-79799500D01*
X166251191Y-79799500D01*
X166073809Y-79799500D01*
X166073806Y-79799500D01*
X165899841Y-79834103D01*
X165899832Y-79834106D01*
X165735959Y-79901983D01*
X165735946Y-79901990D01*
X165588465Y-80000535D01*
X165588461Y-80000538D01*
X165463038Y-80125961D01*
X165463035Y-80125965D01*
X165364490Y-80273446D01*
X165364483Y-80273459D01*
X165296606Y-80437332D01*
X165296603Y-80437341D01*
X165262000Y-80611304D01*
X163800499Y-80611304D01*
X163800499Y-80450000D01*
X163800499Y-80224998D01*
X163800498Y-80224980D01*
X163789999Y-80122203D01*
X163789998Y-80122200D01*
X163780065Y-80092225D01*
X163734814Y-79955666D01*
X163642712Y-79806344D01*
X163518656Y-79682288D01*
X163409402Y-79614900D01*
X163402578Y-79607313D01*
X163393297Y-79603075D01*
X163379608Y-79581775D01*
X163362679Y-79562953D01*
X163360034Y-79551317D01*
X163355523Y-79544297D01*
X163350500Y-79509362D01*
X163350500Y-79375269D01*
X163370185Y-79308230D01*
X163371398Y-79306378D01*
X163398013Y-79266547D01*
X163465894Y-79102666D01*
X163481345Y-79024992D01*
X163500499Y-78928695D01*
X163500500Y-78928693D01*
X163500500Y-78751306D01*
X163500499Y-78751304D01*
X163465896Y-78577341D01*
X163465893Y-78577332D01*
X163398016Y-78413459D01*
X163398009Y-78413446D01*
X163299464Y-78265965D01*
X163299461Y-78265961D01*
X163174038Y-78140538D01*
X163174034Y-78140535D01*
X163026553Y-78041990D01*
X163026541Y-78041983D01*
X162899140Y-77989214D01*
X162862667Y-77974106D01*
X162862658Y-77974103D01*
X162688694Y-77939500D01*
X162688691Y-77939500D01*
X162511309Y-77939500D01*
X162511306Y-77939500D01*
X162337341Y-77974103D01*
X162337332Y-77974106D01*
X162173459Y-78041983D01*
X162173446Y-78041990D01*
X162025965Y-78140535D01*
X162025961Y-78140538D01*
X161900538Y-78265961D01*
X161900535Y-78265965D01*
X161801990Y-78413446D01*
X161801983Y-78413459D01*
X161734106Y-78577332D01*
X161734103Y-78577341D01*
X161699500Y-78751304D01*
X161699500Y-78928695D01*
X161734103Y-79102658D01*
X161734106Y-79102667D01*
X161801984Y-79266542D01*
X161801985Y-79266543D01*
X161801987Y-79266547D01*
X161828602Y-79306378D01*
X161834252Y-79324424D01*
X161844477Y-79340334D01*
X161848928Y-79371293D01*
X161849480Y-79373055D01*
X161849500Y-79375269D01*
X161849500Y-79509362D01*
X161829815Y-79576401D01*
X161790598Y-79614899D01*
X161733690Y-79650001D01*
X161681342Y-79682289D01*
X161557289Y-79806342D01*
X161465187Y-79955663D01*
X161465185Y-79955668D01*
X161450317Y-80000538D01*
X161410001Y-80122203D01*
X161410001Y-80122204D01*
X161410000Y-80122204D01*
X161399500Y-80224983D01*
X161399500Y-80850001D01*
X161399501Y-80850019D01*
X161410000Y-80952796D01*
X161410001Y-80952799D01*
X161465185Y-81119331D01*
X161465187Y-81119336D01*
X161557289Y-81268657D01*
X161650951Y-81362319D01*
X161684436Y-81423642D01*
X161679452Y-81493334D01*
X161650951Y-81537681D01*
X161557289Y-81631342D01*
X161465187Y-81780663D01*
X161465185Y-81780668D01*
X161437349Y-81864670D01*
X161410001Y-81947203D01*
X161410001Y-81947204D01*
X161410000Y-81947204D01*
X161399500Y-82049983D01*
X161399500Y-82675001D01*
X161399501Y-82675019D01*
X161410000Y-82777796D01*
X161410001Y-82777799D01*
X161465185Y-82944331D01*
X161465187Y-82944336D01*
X161472594Y-82956344D01*
X161557288Y-83093656D01*
X161681344Y-83217712D01*
X161790597Y-83285099D01*
X161837321Y-83337047D01*
X161849500Y-83390638D01*
X161849500Y-85559362D01*
X161829815Y-85626401D01*
X161790598Y-85664899D01*
X161728930Y-85702937D01*
X161681342Y-85732289D01*
X161557289Y-85856342D01*
X161465187Y-86005663D01*
X161465186Y-86005666D01*
X161410001Y-86172203D01*
X161410001Y-86172204D01*
X161410000Y-86172204D01*
X161399500Y-86274983D01*
X161399500Y-86900001D01*
X161399501Y-86900019D01*
X161410000Y-87002796D01*
X161410001Y-87002799D01*
X161465185Y-87169331D01*
X161465187Y-87169336D01*
X161482345Y-87197154D01*
X161553571Y-87312630D01*
X161557289Y-87318657D01*
X161651304Y-87412672D01*
X161684789Y-87473995D01*
X161679805Y-87543687D01*
X161651305Y-87588034D01*
X161557682Y-87681657D01*
X161465643Y-87830875D01*
X161465641Y-87830880D01*
X161410494Y-87997302D01*
X161410493Y-87997309D01*
X161400000Y-88100013D01*
X161400000Y-88162500D01*
X163799999Y-88162500D01*
X163799999Y-88100028D01*
X163799998Y-88100013D01*
X163789505Y-87997302D01*
X163734358Y-87830880D01*
X163734356Y-87830875D01*
X163642315Y-87681654D01*
X163548695Y-87588034D01*
X163544356Y-87580088D01*
X163537108Y-87574662D01*
X163527873Y-87549902D01*
X163515210Y-87526711D01*
X163515855Y-87517680D01*
X163512692Y-87509197D01*
X163518308Y-87483378D01*
X163520194Y-87457019D01*
X163526013Y-87447963D01*
X163527545Y-87440925D01*
X163548693Y-87412674D01*
X163587050Y-87374318D01*
X163648373Y-87340833D01*
X163674730Y-87338000D01*
X164025270Y-87338000D01*
X164092309Y-87357685D01*
X164112951Y-87374319D01*
X166213181Y-89474549D01*
X166246666Y-89535872D01*
X166249500Y-89562230D01*
X166249500Y-91559574D01*
X166229815Y-91626613D01*
X166177011Y-91672368D01*
X166107853Y-91682312D01*
X166044297Y-91653287D01*
X166009318Y-91602907D01*
X165973797Y-91507671D01*
X165973793Y-91507664D01*
X165887547Y-91392455D01*
X165887544Y-91392452D01*
X165772335Y-91306206D01*
X165772328Y-91306202D01*
X165637482Y-91255908D01*
X165637483Y-91255908D01*
X165577883Y-91249501D01*
X165577881Y-91249500D01*
X165577873Y-91249500D01*
X165577864Y-91249500D01*
X163982129Y-91249500D01*
X163982123Y-91249501D01*
X163922516Y-91255908D01*
X163787671Y-91306202D01*
X163787664Y-91306206D01*
X163672455Y-91392452D01*
X163672452Y-91392455D01*
X163586206Y-91507664D01*
X163586202Y-91507671D01*
X163535910Y-91642513D01*
X163535909Y-91642517D01*
X163529500Y-91702127D01*
X163529500Y-91702134D01*
X163529500Y-91702135D01*
X163529500Y-92447870D01*
X163529501Y-92447885D01*
X163530508Y-92457243D01*
X163518104Y-92526003D01*
X163470494Y-92577141D01*
X163407219Y-92594500D01*
X159868394Y-92594500D01*
X159801355Y-92574815D01*
X159762855Y-92535597D01*
X159759289Y-92529815D01*
X159667712Y-92381344D01*
X159543656Y-92257288D01*
X159450888Y-92200069D01*
X159394336Y-92165187D01*
X159394331Y-92165185D01*
X159392862Y-92164698D01*
X159227797Y-92110001D01*
X159227795Y-92110000D01*
X159125010Y-92099500D01*
X158499998Y-92099500D01*
X158499980Y-92099501D01*
X158397203Y-92110000D01*
X158397200Y-92110001D01*
X158230668Y-92165185D01*
X158230663Y-92165187D01*
X158081342Y-92257289D01*
X157987681Y-92350951D01*
X157926358Y-92384436D01*
X157856666Y-92379452D01*
X157812319Y-92350951D01*
X157718657Y-92257289D01*
X157718656Y-92257288D01*
X157625888Y-92200069D01*
X157569336Y-92165187D01*
X157569331Y-92165185D01*
X157567862Y-92164698D01*
X157402797Y-92110001D01*
X157402795Y-92110000D01*
X157300010Y-92099500D01*
X156674998Y-92099500D01*
X156674980Y-92099501D01*
X156572203Y-92110000D01*
X156572200Y-92110001D01*
X156405668Y-92165185D01*
X156405663Y-92165187D01*
X156256342Y-92257289D01*
X156132289Y-92381342D01*
X156132288Y-92381344D01*
X156085474Y-92457243D01*
X156064901Y-92490597D01*
X156012953Y-92537321D01*
X155959362Y-92549500D01*
X154262230Y-92549500D01*
X154232790Y-92540855D01*
X154202803Y-92534332D01*
X154197787Y-92530577D01*
X154195191Y-92529815D01*
X154174548Y-92513181D01*
X154086818Y-92425450D01*
X154053334Y-92364126D01*
X154050500Y-92337769D01*
X154050500Y-91981057D01*
X154070185Y-91914018D01*
X154109401Y-91875520D01*
X154243656Y-91792712D01*
X154367712Y-91668656D01*
X154459814Y-91519334D01*
X154514999Y-91352797D01*
X154525500Y-91250009D01*
X154525499Y-90649992D01*
X154514999Y-90547203D01*
X154459814Y-90380666D01*
X154367712Y-90231344D01*
X154243656Y-90107288D01*
X154240819Y-90105538D01*
X154239283Y-90103830D01*
X154237989Y-90102807D01*
X154238163Y-90102585D01*
X154194096Y-90053594D01*
X154182872Y-89984632D01*
X154210713Y-89920549D01*
X154240817Y-89894462D01*
X154243656Y-89892712D01*
X154367712Y-89768656D01*
X154459814Y-89619334D01*
X154514999Y-89452797D01*
X154525500Y-89350009D01*
X154525499Y-88749992D01*
X154522944Y-88724986D01*
X161400001Y-88724986D01*
X161410494Y-88827697D01*
X161465641Y-88994119D01*
X161465643Y-88994124D01*
X161557684Y-89143345D01*
X161681654Y-89267315D01*
X161830875Y-89359356D01*
X161830880Y-89359358D01*
X161997302Y-89414505D01*
X161997309Y-89414506D01*
X162100019Y-89424999D01*
X162349999Y-89424999D01*
X162850000Y-89424999D01*
X163099972Y-89424999D01*
X163099986Y-89424998D01*
X163202697Y-89414505D01*
X163369119Y-89359358D01*
X163369124Y-89359356D01*
X163518345Y-89267315D01*
X163642315Y-89143345D01*
X163734356Y-88994124D01*
X163734358Y-88994119D01*
X163789505Y-88827697D01*
X163789506Y-88827690D01*
X163799999Y-88724986D01*
X163800000Y-88724973D01*
X163800000Y-88662500D01*
X162850000Y-88662500D01*
X162850000Y-89424999D01*
X162349999Y-89424999D01*
X162350000Y-89424998D01*
X162350000Y-88662500D01*
X161400001Y-88662500D01*
X161400001Y-88724986D01*
X154522944Y-88724986D01*
X154521911Y-88714871D01*
X154514999Y-88647203D01*
X154514998Y-88647201D01*
X154499444Y-88600262D01*
X154459814Y-88480666D01*
X154367712Y-88331344D01*
X154243656Y-88207288D01*
X154150778Y-88150001D01*
X154094336Y-88115187D01*
X154094331Y-88115185D01*
X154048590Y-88100028D01*
X153927797Y-88060001D01*
X153927795Y-88060000D01*
X153825010Y-88049500D01*
X152774998Y-88049500D01*
X152774980Y-88049501D01*
X152672203Y-88060000D01*
X152672200Y-88060001D01*
X152505668Y-88115185D01*
X152505663Y-88115187D01*
X152356342Y-88207289D01*
X152300451Y-88263181D01*
X152239128Y-88296666D01*
X152212770Y-88299500D01*
X149912229Y-88299500D01*
X149845190Y-88279815D01*
X149824548Y-88263181D01*
X148140921Y-86579552D01*
X148140914Y-86579546D01*
X148067229Y-86530312D01*
X148067229Y-86530313D01*
X148017991Y-86497413D01*
X147881417Y-86440843D01*
X147881407Y-86440840D01*
X147736420Y-86412000D01*
X147736418Y-86412000D01*
X143183137Y-86412000D01*
X143116098Y-86392315D01*
X143108826Y-86387267D01*
X143067331Y-86356204D01*
X143067328Y-86356202D01*
X142932486Y-86305910D01*
X142932485Y-86305909D01*
X142932483Y-86305909D01*
X142872873Y-86299500D01*
X142872863Y-86299500D01*
X142255129Y-86299500D01*
X142255123Y-86299501D01*
X142195515Y-86305909D01*
X142187971Y-86307692D01*
X142187675Y-86306439D01*
X142125926Y-86310855D01*
X142112357Y-86306870D01*
X142110372Y-86306401D01*
X142050844Y-86300000D01*
X141992000Y-86300000D01*
X141992000Y-86345540D01*
X141972315Y-86412579D01*
X141951008Y-86435468D01*
X141951724Y-86436184D01*
X141945452Y-86442455D01*
X141859206Y-86557664D01*
X141859202Y-86557671D01*
X141809850Y-86689993D01*
X141808909Y-86692517D01*
X141802500Y-86752127D01*
X141802500Y-87160481D01*
X141802501Y-87162500D01*
X141802501Y-87572876D01*
X141808908Y-87632483D01*
X141859202Y-87767328D01*
X141859203Y-87767329D01*
X141859204Y-87767331D01*
X141945454Y-87882546D01*
X141945457Y-87882548D01*
X141948193Y-87885285D01*
X141949203Y-87885746D01*
X141950188Y-87887279D01*
X141951722Y-87888813D01*
X141951388Y-87889146D01*
X141965789Y-87911554D01*
X141984179Y-87936117D01*
X141985195Y-87941752D01*
X141986977Y-87944524D01*
X141992000Y-87979459D01*
X141992000Y-88020540D01*
X141972315Y-88087579D01*
X141951008Y-88110468D01*
X141951724Y-88111184D01*
X141945452Y-88117455D01*
X141859206Y-88232664D01*
X141859202Y-88232671D01*
X141808910Y-88367513D01*
X141808909Y-88367517D01*
X141802500Y-88427127D01*
X141802500Y-88837163D01*
X141802501Y-88837500D01*
X141802501Y-89247876D01*
X141808908Y-89307483D01*
X141859202Y-89442328D01*
X141859203Y-89442329D01*
X141859204Y-89442331D01*
X141945454Y-89557546D01*
X141945457Y-89557548D01*
X141951722Y-89563813D01*
X141950029Y-89565505D01*
X141984179Y-89611117D01*
X141992000Y-89654459D01*
X141992000Y-89700000D01*
X142050828Y-89700000D01*
X142050844Y-89699999D01*
X142110375Y-89693598D01*
X142117926Y-89691814D01*
X142118315Y-89693462D01*
X142178624Y-89689140D01*
X142195387Y-89694060D01*
X142195511Y-89694088D01*
X142195517Y-89694091D01*
X142255127Y-89700500D01*
X142872872Y-89700499D01*
X142932483Y-89694091D01*
X143067331Y-89643796D01*
X143108826Y-89612733D01*
X143174291Y-89588316D01*
X143183137Y-89588000D01*
X143675269Y-89588000D01*
X143704705Y-89596643D01*
X143734695Y-89603167D01*
X143739711Y-89606922D01*
X143742308Y-89607685D01*
X143762949Y-89624318D01*
X143813180Y-89674548D01*
X143846666Y-89735871D01*
X143849500Y-89762230D01*
X143849500Y-90818942D01*
X143829815Y-90885981D01*
X143790598Y-90924479D01*
X143704209Y-90977764D01*
X143656342Y-91007289D01*
X143600451Y-91063181D01*
X143539128Y-91096666D01*
X143512770Y-91099500D01*
X142576080Y-91099500D01*
X142431092Y-91128340D01*
X142431086Y-91128342D01*
X142294508Y-91184914D01*
X142294496Y-91184921D01*
X142245269Y-91217813D01*
X142171588Y-91267044D01*
X142171580Y-91267050D01*
X141417049Y-92021581D01*
X141385370Y-92068992D01*
X141385371Y-92068993D01*
X141334914Y-92144508D01*
X141278343Y-92281082D01*
X141278340Y-92281092D01*
X141249500Y-92426079D01*
X141249500Y-92464729D01*
X141229815Y-92531768D01*
X141228602Y-92533620D01*
X141201988Y-92573449D01*
X141201987Y-92573452D01*
X141134106Y-92737332D01*
X141134103Y-92737341D01*
X141099500Y-92911304D01*
X136360500Y-92911304D01*
X136360500Y-88022139D01*
X139162347Y-88022139D01*
X139163659Y-88034350D01*
X139164137Y-88054926D01*
X139164532Y-88066330D01*
X139164554Y-88066820D01*
X139165310Y-88079717D01*
X139168309Y-88121707D01*
X139169959Y-88140076D01*
X139170035Y-88140778D01*
X139172170Y-88157781D01*
X139178206Y-88200028D01*
X139178852Y-88204417D01*
X139178882Y-88204616D01*
X139179993Y-88211582D01*
X139187009Y-88253678D01*
X139190447Y-88272174D01*
X139190597Y-88272906D01*
X139194660Y-88291004D01*
X139204680Y-88332087D01*
X139207576Y-88343388D01*
X139207719Y-88343919D01*
X139210726Y-88354627D01*
X139222730Y-88395643D01*
X139226321Y-88407382D01*
X139226484Y-88407895D01*
X139230903Y-88421102D01*
X139244905Y-88461111D01*
X139251571Y-88479058D01*
X139251839Y-88479738D01*
X139258906Y-88496799D01*
X139275909Y-88535805D01*
X139277621Y-88539689D01*
X139277706Y-88539879D01*
X139280408Y-88545830D01*
X139298396Y-88584806D01*
X139305554Y-88599672D01*
X139305850Y-88600262D01*
X139312958Y-88613905D01*
X139332951Y-88650891D01*
X139340371Y-88664138D01*
X139340699Y-88664703D01*
X139348632Y-88677909D01*
X139371608Y-88714871D01*
X139377920Y-88724765D01*
X139378177Y-88725159D01*
X139384248Y-88734221D01*
X139408266Y-88769247D01*
X139417658Y-88782483D01*
X139418074Y-88783049D01*
X139428477Y-88796725D01*
X139454457Y-88829700D01*
X139457603Y-88833654D01*
X139457716Y-88833794D01*
X139460448Y-88837163D01*
X139487387Y-88870086D01*
X139498028Y-88882670D01*
X139498467Y-88883172D01*
X139509902Y-88895818D01*
X139538908Y-88926824D01*
X139550621Y-88938935D01*
X139551064Y-88939378D01*
X139563175Y-88951091D01*
X139594181Y-88980097D01*
X139606827Y-88991532D01*
X139607329Y-88991971D01*
X139619913Y-89002612D01*
X139652836Y-89029551D01*
X139656205Y-89032283D01*
X139656345Y-89032396D01*
X139660299Y-89035542D01*
X139693274Y-89061522D01*
X139706950Y-89071925D01*
X139707516Y-89072341D01*
X139720752Y-89081733D01*
X139755778Y-89105751D01*
X139764840Y-89111822D01*
X139765234Y-89112079D01*
X139775128Y-89118391D01*
X139812090Y-89141367D01*
X139825296Y-89149300D01*
X139825861Y-89149628D01*
X139839108Y-89157048D01*
X139876094Y-89177041D01*
X139889737Y-89184149D01*
X139890327Y-89184445D01*
X139905193Y-89191603D01*
X139944169Y-89209591D01*
X139950120Y-89212293D01*
X139950310Y-89212378D01*
X139954194Y-89214090D01*
X139993200Y-89231093D01*
X140010261Y-89238160D01*
X140010941Y-89238428D01*
X140028888Y-89245094D01*
X140068897Y-89259096D01*
X140082104Y-89263515D01*
X140082617Y-89263678D01*
X140094356Y-89267269D01*
X140135372Y-89279273D01*
X140146080Y-89282280D01*
X140146611Y-89282423D01*
X140157912Y-89285319D01*
X140198995Y-89295339D01*
X140217093Y-89299402D01*
X140217825Y-89299552D01*
X140236321Y-89302990D01*
X140278417Y-89310006D01*
X140285383Y-89311117D01*
X140285582Y-89311147D01*
X140289971Y-89311793D01*
X140332218Y-89317829D01*
X140349221Y-89319964D01*
X140349923Y-89320040D01*
X140368288Y-89321690D01*
X140410294Y-89324690D01*
X140417659Y-89325162D01*
X140417931Y-89325178D01*
X140423157Y-89325447D01*
X140466051Y-89327442D01*
X140489554Y-89327989D01*
X140490446Y-89327989D01*
X140513948Y-89327442D01*
X140556842Y-89325447D01*
X140562068Y-89325178D01*
X140562340Y-89325162D01*
X140569705Y-89324690D01*
X140611711Y-89321690D01*
X140630076Y-89320040D01*
X140630778Y-89319964D01*
X140647781Y-89317829D01*
X140690028Y-89311793D01*
X140694417Y-89311147D01*
X140694616Y-89311117D01*
X140701582Y-89310006D01*
X140743678Y-89302990D01*
X140762174Y-89299552D01*
X140762906Y-89299402D01*
X140781004Y-89295339D01*
X140822087Y-89285319D01*
X140833388Y-89282423D01*
X140833919Y-89282280D01*
X140844604Y-89279280D01*
X140853186Y-89276768D01*
X140923055Y-89276823D01*
X140981804Y-89314644D01*
X141004209Y-89352439D01*
X141037646Y-89442088D01*
X141037649Y-89442093D01*
X141123809Y-89557187D01*
X141123812Y-89557190D01*
X141238906Y-89643350D01*
X141238913Y-89643354D01*
X141373620Y-89693596D01*
X141373627Y-89693598D01*
X141433155Y-89699999D01*
X141433172Y-89700000D01*
X141492000Y-89700000D01*
X141492000Y-86300000D01*
X141433155Y-86300000D01*
X141373627Y-86306401D01*
X141373620Y-86306403D01*
X141238913Y-86356645D01*
X141238906Y-86356649D01*
X141123812Y-86442809D01*
X141123809Y-86442812D01*
X141037649Y-86557906D01*
X141037646Y-86557912D01*
X141004209Y-86647560D01*
X140962337Y-86703493D01*
X140896872Y-86727910D01*
X140853198Y-86723234D01*
X140844652Y-86720733D01*
X140833919Y-86717719D01*
X140833388Y-86717576D01*
X140822087Y-86714680D01*
X140781004Y-86704660D01*
X140762906Y-86700597D01*
X140762174Y-86700447D01*
X140743678Y-86697009D01*
X140701582Y-86689993D01*
X140694616Y-86688882D01*
X140694417Y-86688852D01*
X140690028Y-86688206D01*
X140647781Y-86682170D01*
X140630778Y-86680035D01*
X140630076Y-86679959D01*
X140611711Y-86678309D01*
X140569705Y-86675309D01*
X140562340Y-86674837D01*
X140562068Y-86674821D01*
X140556842Y-86674552D01*
X140513948Y-86672557D01*
X140490446Y-86672011D01*
X140489554Y-86672011D01*
X140466051Y-86672557D01*
X140423157Y-86674552D01*
X140417931Y-86674821D01*
X140417659Y-86674837D01*
X140410294Y-86675309D01*
X140368288Y-86678309D01*
X140349923Y-86679959D01*
X140349221Y-86680035D01*
X140332218Y-86682170D01*
X140289971Y-86688206D01*
X140285582Y-86688852D01*
X140285383Y-86688882D01*
X140278417Y-86689993D01*
X140236321Y-86697009D01*
X140217825Y-86700447D01*
X140217093Y-86700597D01*
X140198995Y-86704660D01*
X140157912Y-86714680D01*
X140146611Y-86717576D01*
X140146080Y-86717719D01*
X140135372Y-86720726D01*
X140094356Y-86732730D01*
X140082617Y-86736321D01*
X140082104Y-86736484D01*
X140068897Y-86740903D01*
X140028888Y-86754905D01*
X140010941Y-86761571D01*
X140010261Y-86761839D01*
X139993200Y-86768906D01*
X139954194Y-86785909D01*
X139950310Y-86787621D01*
X139950120Y-86787706D01*
X139944169Y-86790408D01*
X139905193Y-86808396D01*
X139890327Y-86815554D01*
X139889737Y-86815850D01*
X139876094Y-86822958D01*
X139839108Y-86842951D01*
X139825861Y-86850371D01*
X139825296Y-86850699D01*
X139812090Y-86858632D01*
X139775128Y-86881608D01*
X139765234Y-86887920D01*
X139764840Y-86888177D01*
X139755778Y-86894248D01*
X139720752Y-86918266D01*
X139707516Y-86927658D01*
X139706950Y-86928074D01*
X139693274Y-86938477D01*
X139660299Y-86964457D01*
X139656345Y-86967603D01*
X139656205Y-86967716D01*
X139652836Y-86970448D01*
X139619913Y-86997387D01*
X139607329Y-87008028D01*
X139606827Y-87008467D01*
X139594181Y-87019902D01*
X139563175Y-87048908D01*
X139551064Y-87060621D01*
X139550621Y-87061064D01*
X139538908Y-87073175D01*
X139509902Y-87104181D01*
X139498467Y-87116827D01*
X139498028Y-87117329D01*
X139487387Y-87129913D01*
X139460486Y-87162791D01*
X139457824Y-87166072D01*
X139457603Y-87166345D01*
X139454457Y-87170299D01*
X139428477Y-87203274D01*
X139418074Y-87216950D01*
X139417658Y-87217516D01*
X139408266Y-87230752D01*
X139384248Y-87265778D01*
X139378177Y-87274840D01*
X139377920Y-87275234D01*
X139371608Y-87285128D01*
X139348632Y-87322090D01*
X139340699Y-87335296D01*
X139340371Y-87335861D01*
X139332951Y-87349108D01*
X139312958Y-87386094D01*
X139305850Y-87399737D01*
X139305554Y-87400327D01*
X139298396Y-87415193D01*
X139280408Y-87454169D01*
X139277706Y-87460120D01*
X139277621Y-87460310D01*
X139275909Y-87464194D01*
X139258906Y-87503200D01*
X139251839Y-87520261D01*
X139251571Y-87520941D01*
X139244905Y-87538888D01*
X139230903Y-87578897D01*
X139226484Y-87592104D01*
X139226321Y-87592617D01*
X139222730Y-87604356D01*
X139210726Y-87645372D01*
X139207719Y-87656080D01*
X139207576Y-87656611D01*
X139204680Y-87667912D01*
X139194660Y-87708995D01*
X139190597Y-87727093D01*
X139190447Y-87727825D01*
X139187009Y-87746321D01*
X139179993Y-87788417D01*
X139178882Y-87795383D01*
X139178852Y-87795582D01*
X139178216Y-87799902D01*
X139172170Y-87842218D01*
X139170035Y-87859221D01*
X139169959Y-87859923D01*
X139168309Y-87878292D01*
X139165310Y-87920282D01*
X139164554Y-87933179D01*
X139164532Y-87933669D01*
X139164137Y-87945077D01*
X139163659Y-87965659D01*
X139163660Y-87965660D01*
X139162795Y-88002869D01*
X139162347Y-88022139D01*
X136360500Y-88022139D01*
X136360500Y-85824986D01*
X149800001Y-85824986D01*
X149810494Y-85927697D01*
X149865641Y-86094119D01*
X149865643Y-86094124D01*
X149957684Y-86243345D01*
X150081654Y-86367315D01*
X150230875Y-86459356D01*
X150230880Y-86459358D01*
X150397302Y-86514505D01*
X150397309Y-86514506D01*
X150500019Y-86524999D01*
X150749999Y-86524999D01*
X151250000Y-86524999D01*
X151499972Y-86524999D01*
X151499986Y-86524998D01*
X151602697Y-86514505D01*
X151769119Y-86459358D01*
X151769124Y-86459356D01*
X151918345Y-86367315D01*
X152042315Y-86243345D01*
X152134356Y-86094124D01*
X152134358Y-86094119D01*
X152189505Y-85927697D01*
X152189506Y-85927690D01*
X152199999Y-85824986D01*
X152200000Y-85824973D01*
X152200000Y-85762500D01*
X151250000Y-85762500D01*
X151250000Y-86524999D01*
X150749999Y-86524999D01*
X150750000Y-86524998D01*
X150750000Y-85762500D01*
X149800001Y-85762500D01*
X149800001Y-85824986D01*
X136360500Y-85824986D01*
X136360500Y-82211304D01*
X147499500Y-82211304D01*
X147499500Y-82388695D01*
X147534103Y-82562658D01*
X147534106Y-82562667D01*
X147601983Y-82726540D01*
X147601990Y-82726553D01*
X147700535Y-82874034D01*
X147700538Y-82874038D01*
X147825961Y-82999461D01*
X147825965Y-82999464D01*
X147973446Y-83098009D01*
X147973459Y-83098016D01*
X148096363Y-83148923D01*
X148137334Y-83165894D01*
X148137336Y-83165894D01*
X148137341Y-83165896D01*
X148311304Y-83200499D01*
X148311307Y-83200500D01*
X148311309Y-83200500D01*
X148488693Y-83200500D01*
X148488694Y-83200499D01*
X148546682Y-83188964D01*
X148662658Y-83165896D01*
X148662661Y-83165894D01*
X148662666Y-83165894D01*
X148826547Y-83098013D01*
X148826550Y-83098010D01*
X148826552Y-83098010D01*
X148866378Y-83071399D01*
X148933055Y-83050520D01*
X148935270Y-83050500D01*
X149711746Y-83050500D01*
X149778785Y-83070185D01*
X149824540Y-83122989D01*
X149834484Y-83192147D01*
X149829452Y-83213503D01*
X149810001Y-83272200D01*
X149810000Y-83272204D01*
X149799500Y-83374983D01*
X149799500Y-84000001D01*
X149799501Y-84000019D01*
X149810000Y-84102796D01*
X149810001Y-84102799D01*
X149865185Y-84269331D01*
X149865187Y-84269336D01*
X149957289Y-84418657D01*
X150051304Y-84512672D01*
X150084789Y-84573995D01*
X150079805Y-84643687D01*
X150051305Y-84688034D01*
X149957682Y-84781657D01*
X149865643Y-84930875D01*
X149865641Y-84930880D01*
X149810494Y-85097302D01*
X149810493Y-85097309D01*
X149800000Y-85200013D01*
X149800000Y-85262500D01*
X152199999Y-85262500D01*
X152199999Y-85200028D01*
X152199998Y-85200013D01*
X152189505Y-85097302D01*
X152134358Y-84930880D01*
X152134356Y-84930875D01*
X152042315Y-84781654D01*
X151948695Y-84688034D01*
X151915210Y-84626711D01*
X151920194Y-84557019D01*
X151948691Y-84512676D01*
X152042712Y-84418656D01*
X152134814Y-84269334D01*
X152189999Y-84102797D01*
X152200500Y-84000009D01*
X152200499Y-83374992D01*
X152194478Y-83316054D01*
X152189999Y-83272203D01*
X152189998Y-83272200D01*
X152171942Y-83217710D01*
X152134814Y-83105666D01*
X152042712Y-82956344D01*
X151918656Y-82832288D01*
X151809402Y-82764900D01*
X151762679Y-82712953D01*
X151750500Y-82659362D01*
X151750500Y-82190638D01*
X151770185Y-82123599D01*
X151809401Y-82085100D01*
X151918656Y-82017712D01*
X152042712Y-81893656D01*
X152134814Y-81744334D01*
X152189999Y-81577797D01*
X152200500Y-81475009D01*
X152200499Y-80849992D01*
X152194237Y-80788695D01*
X152189999Y-80747203D01*
X152189998Y-80747200D01*
X152142949Y-80605217D01*
X152134814Y-80580666D01*
X152042712Y-80431344D01*
X151949049Y-80337681D01*
X151915564Y-80276358D01*
X151920548Y-80206666D01*
X151949049Y-80162319D01*
X151989168Y-80122200D01*
X152042712Y-80068656D01*
X152134814Y-79919334D01*
X152189999Y-79752797D01*
X152200500Y-79650009D01*
X152200499Y-79024992D01*
X152189999Y-78922203D01*
X152134814Y-78755666D01*
X152042712Y-78606344D01*
X151918656Y-78482288D01*
X151918655Y-78482287D01*
X151821662Y-78422462D01*
X151774937Y-78370514D01*
X151763714Y-78301552D01*
X151783656Y-78248033D01*
X151798013Y-78226547D01*
X151865894Y-78062666D01*
X151870008Y-78041987D01*
X151900499Y-77888695D01*
X151900500Y-77888693D01*
X151900500Y-77878711D01*
X185149500Y-77878711D01*
X185149500Y-78121288D01*
X185181161Y-78361785D01*
X185243947Y-78596104D01*
X185310039Y-78755663D01*
X185336776Y-78820212D01*
X185458064Y-79030289D01*
X185458066Y-79030292D01*
X185458067Y-79030293D01*
X185605733Y-79222736D01*
X185605739Y-79222743D01*
X185777256Y-79394260D01*
X185777262Y-79394265D01*
X185969711Y-79541936D01*
X186179788Y-79663224D01*
X186403900Y-79756054D01*
X186638211Y-79818838D01*
X186784713Y-79838125D01*
X186878711Y-79850500D01*
X186878712Y-79850500D01*
X187121289Y-79850500D01*
X187169388Y-79844167D01*
X187361789Y-79818838D01*
X187596100Y-79756054D01*
X187820212Y-79663224D01*
X188030289Y-79541936D01*
X188222738Y-79394265D01*
X188394265Y-79222738D01*
X188541936Y-79030289D01*
X188663224Y-78820212D01*
X188756054Y-78596100D01*
X188818838Y-78361789D01*
X188850500Y-78121288D01*
X188850500Y-77878712D01*
X188818838Y-77638211D01*
X188756054Y-77403900D01*
X188663224Y-77179788D01*
X188541936Y-76969711D01*
X188394265Y-76777262D01*
X188394260Y-76777256D01*
X188222743Y-76605739D01*
X188222736Y-76605733D01*
X188030293Y-76458067D01*
X188030292Y-76458066D01*
X188030289Y-76458064D01*
X187820212Y-76336776D01*
X187820205Y-76336773D01*
X187596104Y-76243947D01*
X187361785Y-76181161D01*
X187121289Y-76149500D01*
X187121288Y-76149500D01*
X186878712Y-76149500D01*
X186878711Y-76149500D01*
X186638214Y-76181161D01*
X186403895Y-76243947D01*
X186179794Y-76336773D01*
X186179785Y-76336777D01*
X185969706Y-76458067D01*
X185777263Y-76605733D01*
X185777256Y-76605739D01*
X185605739Y-76777256D01*
X185605733Y-76777263D01*
X185458067Y-76969706D01*
X185336777Y-77179785D01*
X185336773Y-77179794D01*
X185243947Y-77403895D01*
X185181161Y-77638214D01*
X185149500Y-77878711D01*
X151900500Y-77878711D01*
X151900500Y-77711306D01*
X151900499Y-77711304D01*
X151865896Y-77537341D01*
X151865893Y-77537332D01*
X151798016Y-77373459D01*
X151798009Y-77373446D01*
X151699464Y-77225965D01*
X151699461Y-77225961D01*
X151574038Y-77100538D01*
X151574034Y-77100535D01*
X151426553Y-77001990D01*
X151426540Y-77001983D01*
X151262667Y-76934106D01*
X151262658Y-76934103D01*
X151088694Y-76899500D01*
X151088691Y-76899500D01*
X150911309Y-76899500D01*
X150911306Y-76899500D01*
X150737341Y-76934103D01*
X150737332Y-76934106D01*
X150573459Y-77001983D01*
X150573446Y-77001990D01*
X150425965Y-77100535D01*
X150425961Y-77100538D01*
X150300538Y-77225961D01*
X150300535Y-77225965D01*
X150201990Y-77373446D01*
X150201983Y-77373459D01*
X150134106Y-77537332D01*
X150134103Y-77537341D01*
X150099500Y-77711304D01*
X150099500Y-77888695D01*
X150134103Y-78062658D01*
X150134106Y-78062667D01*
X150201984Y-78226542D01*
X150201988Y-78226549D01*
X150216343Y-78248033D01*
X150237221Y-78314710D01*
X150218736Y-78382090D01*
X150178338Y-78422462D01*
X150081342Y-78482289D01*
X149957289Y-78606342D01*
X149865187Y-78755663D01*
X149865185Y-78755668D01*
X149843797Y-78820214D01*
X149810001Y-78922203D01*
X149810001Y-78922204D01*
X149810000Y-78922204D01*
X149799500Y-79024983D01*
X149799500Y-79650001D01*
X149799501Y-79650019D01*
X149810000Y-79752796D01*
X149810001Y-79752799D01*
X149865185Y-79919331D01*
X149865187Y-79919336D01*
X149876280Y-79937321D01*
X149915271Y-80000536D01*
X149957289Y-80068657D01*
X150050951Y-80162319D01*
X150084436Y-80223642D01*
X150079452Y-80293334D01*
X150050951Y-80337681D01*
X149957289Y-80431342D01*
X149865187Y-80580663D01*
X149865185Y-80580668D01*
X149855032Y-80611309D01*
X149810001Y-80747203D01*
X149810001Y-80747204D01*
X149810000Y-80747204D01*
X149799500Y-80849983D01*
X149799500Y-80849996D01*
X149799501Y-81425500D01*
X149779817Y-81492539D01*
X149727013Y-81538294D01*
X149675501Y-81549500D01*
X148935270Y-81549500D01*
X148868231Y-81529815D01*
X148866378Y-81528601D01*
X148826552Y-81501989D01*
X148826547Y-81501987D01*
X148662667Y-81434106D01*
X148662658Y-81434103D01*
X148488694Y-81399500D01*
X148488691Y-81399500D01*
X148311309Y-81399500D01*
X148311306Y-81399500D01*
X148137341Y-81434103D01*
X148137332Y-81434106D01*
X147973459Y-81501983D01*
X147973446Y-81501990D01*
X147825965Y-81600535D01*
X147825961Y-81600538D01*
X147700538Y-81725961D01*
X147700535Y-81725965D01*
X147601990Y-81873446D01*
X147601983Y-81873459D01*
X147534106Y-82037332D01*
X147534103Y-82037341D01*
X147499500Y-82211304D01*
X136360500Y-82211304D01*
X136360500Y-77878711D01*
X139149500Y-77878711D01*
X139149500Y-78121288D01*
X139181161Y-78361785D01*
X139243947Y-78596104D01*
X139310039Y-78755663D01*
X139336776Y-78820212D01*
X139458064Y-79030289D01*
X139458066Y-79030292D01*
X139458067Y-79030293D01*
X139605733Y-79222736D01*
X139605739Y-79222743D01*
X139777256Y-79394260D01*
X139777262Y-79394265D01*
X139969711Y-79541936D01*
X140179788Y-79663224D01*
X140403900Y-79756054D01*
X140638211Y-79818838D01*
X140784713Y-79838125D01*
X140878711Y-79850500D01*
X140878712Y-79850500D01*
X141121289Y-79850500D01*
X141169388Y-79844167D01*
X141361789Y-79818838D01*
X141596100Y-79756054D01*
X141820212Y-79663224D01*
X142030289Y-79541936D01*
X142222738Y-79394265D01*
X142394265Y-79222738D01*
X142541936Y-79030289D01*
X142663224Y-78820212D01*
X142756054Y-78596100D01*
X142818838Y-78361789D01*
X142850500Y-78121288D01*
X142850500Y-77878712D01*
X142818838Y-77638211D01*
X142756054Y-77403900D01*
X142663224Y-77179788D01*
X142541936Y-76969711D01*
X142394265Y-76777262D01*
X142394260Y-76777256D01*
X142222743Y-76605739D01*
X142222736Y-76605733D01*
X142030293Y-76458067D01*
X142030292Y-76458066D01*
X142030289Y-76458064D01*
X141820212Y-76336776D01*
X141820205Y-76336773D01*
X141596104Y-76243947D01*
X141361785Y-76181161D01*
X141121289Y-76149500D01*
X141121288Y-76149500D01*
X140878712Y-76149500D01*
X140878711Y-76149500D01*
X140638214Y-76181161D01*
X140403895Y-76243947D01*
X140179794Y-76336773D01*
X140179785Y-76336777D01*
X139969706Y-76458067D01*
X139777263Y-76605733D01*
X139777256Y-76605739D01*
X139605739Y-76777256D01*
X139605733Y-76777263D01*
X139458067Y-76969706D01*
X139336777Y-77179785D01*
X139336773Y-77179794D01*
X139243947Y-77403895D01*
X139181161Y-77638214D01*
X139149500Y-77878711D01*
X136360500Y-77878711D01*
X136360500Y-73524500D01*
X136380185Y-73457461D01*
X136432989Y-73411706D01*
X136484500Y-73400500D01*
X191715500Y-73400500D01*
X191782539Y-73420185D01*
G37*
%TD.AperFunction*%
%TD*%
M02*
