%TF.GenerationSoftware,KiCad,Pcbnew,9.0.2*%
%TF.CreationDate,2025-08-29T05:40:04+02:00*%
%TF.ProjectId,Microphone_OCTAV,4d696372-6f70-4686-9f6e-655f4f435441,rev?*%
%TF.SameCoordinates,Original*%
%TF.FileFunction,Copper,L3,Inr*%
%TF.FilePolarity,Positive*%
%FSLAX46Y46*%
G04 Gerber Fmt 4.6, Leading zero omitted, Abs format (unit mm)*
G04 Created by KiCad (PCBNEW 9.0.2) date 2025-08-29 05:40:04*
%MOMM*%
%LPD*%
G01*
G04 APERTURE LIST*
%ADD10C,0.100000*%
%ADD11C,0.150000*%
%ADD12C,0.300000*%
%ADD13C,0.400000*%
%TA.AperFunction,ViaPad*%
%ADD14C,0.800000*%
%TD*%
G04 APERTURE END LIST*
D10*
D11*
X177002200Y-166007200D02*
X285002200Y-166007200D01*
X285002200Y-198007200D01*
X177002200Y-198007200D01*
X177002200Y-166007200D01*
D10*
D11*
X10000000Y-10000000D02*
X287002200Y-10000000D01*
X287002200Y-200007200D01*
X10000000Y-200007200D01*
X10000000Y-10000000D01*
D10*
D11*
X12000000Y-12000000D02*
X285002200Y-12000000D01*
X285002200Y-198007200D01*
X12000000Y-198007200D01*
X12000000Y-12000000D01*
D10*
D11*
X60000000Y-12000000D02*
X60000000Y-10000000D01*
D10*
D11*
X110000000Y-12000000D02*
X110000000Y-10000000D01*
D10*
D11*
X160000000Y-12000000D02*
X160000000Y-10000000D01*
D10*
D11*
X210000000Y-12000000D02*
X210000000Y-10000000D01*
D10*
D11*
X260000000Y-12000000D02*
X260000000Y-10000000D01*
D10*
D11*
X36089160Y-11593604D02*
X35346303Y-11593604D01*
X35717731Y-11593604D02*
X35717731Y-10293604D01*
X35717731Y-10293604D02*
X35593922Y-10479319D01*
X35593922Y-10479319D02*
X35470112Y-10603128D01*
X35470112Y-10603128D02*
X35346303Y-10665033D01*
D10*
D11*
X85346303Y-10417414D02*
X85408207Y-10355509D01*
X85408207Y-10355509D02*
X85532017Y-10293604D01*
X85532017Y-10293604D02*
X85841541Y-10293604D01*
X85841541Y-10293604D02*
X85965350Y-10355509D01*
X85965350Y-10355509D02*
X86027255Y-10417414D01*
X86027255Y-10417414D02*
X86089160Y-10541223D01*
X86089160Y-10541223D02*
X86089160Y-10665033D01*
X86089160Y-10665033D02*
X86027255Y-10850747D01*
X86027255Y-10850747D02*
X85284398Y-11593604D01*
X85284398Y-11593604D02*
X86089160Y-11593604D01*
D10*
D11*
X135284398Y-10293604D02*
X136089160Y-10293604D01*
X136089160Y-10293604D02*
X135655826Y-10788842D01*
X135655826Y-10788842D02*
X135841541Y-10788842D01*
X135841541Y-10788842D02*
X135965350Y-10850747D01*
X135965350Y-10850747D02*
X136027255Y-10912652D01*
X136027255Y-10912652D02*
X136089160Y-11036461D01*
X136089160Y-11036461D02*
X136089160Y-11345985D01*
X136089160Y-11345985D02*
X136027255Y-11469795D01*
X136027255Y-11469795D02*
X135965350Y-11531700D01*
X135965350Y-11531700D02*
X135841541Y-11593604D01*
X135841541Y-11593604D02*
X135470112Y-11593604D01*
X135470112Y-11593604D02*
X135346303Y-11531700D01*
X135346303Y-11531700D02*
X135284398Y-11469795D01*
D10*
D11*
X185965350Y-10726938D02*
X185965350Y-11593604D01*
X185655826Y-10231700D02*
X185346303Y-11160271D01*
X185346303Y-11160271D02*
X186151064Y-11160271D01*
D10*
D11*
X236027255Y-10293604D02*
X235408207Y-10293604D01*
X235408207Y-10293604D02*
X235346303Y-10912652D01*
X235346303Y-10912652D02*
X235408207Y-10850747D01*
X235408207Y-10850747D02*
X235532017Y-10788842D01*
X235532017Y-10788842D02*
X235841541Y-10788842D01*
X235841541Y-10788842D02*
X235965350Y-10850747D01*
X235965350Y-10850747D02*
X236027255Y-10912652D01*
X236027255Y-10912652D02*
X236089160Y-11036461D01*
X236089160Y-11036461D02*
X236089160Y-11345985D01*
X236089160Y-11345985D02*
X236027255Y-11469795D01*
X236027255Y-11469795D02*
X235965350Y-11531700D01*
X235965350Y-11531700D02*
X235841541Y-11593604D01*
X235841541Y-11593604D02*
X235532017Y-11593604D01*
X235532017Y-11593604D02*
X235408207Y-11531700D01*
X235408207Y-11531700D02*
X235346303Y-11469795D01*
D10*
D11*
X285965350Y-10293604D02*
X285717731Y-10293604D01*
X285717731Y-10293604D02*
X285593922Y-10355509D01*
X285593922Y-10355509D02*
X285532017Y-10417414D01*
X285532017Y-10417414D02*
X285408207Y-10603128D01*
X285408207Y-10603128D02*
X285346303Y-10850747D01*
X285346303Y-10850747D02*
X285346303Y-11345985D01*
X285346303Y-11345985D02*
X285408207Y-11469795D01*
X285408207Y-11469795D02*
X285470112Y-11531700D01*
X285470112Y-11531700D02*
X285593922Y-11593604D01*
X285593922Y-11593604D02*
X285841541Y-11593604D01*
X285841541Y-11593604D02*
X285965350Y-11531700D01*
X285965350Y-11531700D02*
X286027255Y-11469795D01*
X286027255Y-11469795D02*
X286089160Y-11345985D01*
X286089160Y-11345985D02*
X286089160Y-11036461D01*
X286089160Y-11036461D02*
X286027255Y-10912652D01*
X286027255Y-10912652D02*
X285965350Y-10850747D01*
X285965350Y-10850747D02*
X285841541Y-10788842D01*
X285841541Y-10788842D02*
X285593922Y-10788842D01*
X285593922Y-10788842D02*
X285470112Y-10850747D01*
X285470112Y-10850747D02*
X285408207Y-10912652D01*
X285408207Y-10912652D02*
X285346303Y-11036461D01*
D10*
D11*
X60000000Y-198007200D02*
X60000000Y-200007200D01*
D10*
D11*
X110000000Y-198007200D02*
X110000000Y-200007200D01*
D10*
D11*
X160000000Y-198007200D02*
X160000000Y-200007200D01*
D10*
D11*
X210000000Y-198007200D02*
X210000000Y-200007200D01*
D10*
D11*
X260000000Y-198007200D02*
X260000000Y-200007200D01*
D10*
D11*
X36089160Y-199600804D02*
X35346303Y-199600804D01*
X35717731Y-199600804D02*
X35717731Y-198300804D01*
X35717731Y-198300804D02*
X35593922Y-198486519D01*
X35593922Y-198486519D02*
X35470112Y-198610328D01*
X35470112Y-198610328D02*
X35346303Y-198672233D01*
D10*
D11*
X85346303Y-198424614D02*
X85408207Y-198362709D01*
X85408207Y-198362709D02*
X85532017Y-198300804D01*
X85532017Y-198300804D02*
X85841541Y-198300804D01*
X85841541Y-198300804D02*
X85965350Y-198362709D01*
X85965350Y-198362709D02*
X86027255Y-198424614D01*
X86027255Y-198424614D02*
X86089160Y-198548423D01*
X86089160Y-198548423D02*
X86089160Y-198672233D01*
X86089160Y-198672233D02*
X86027255Y-198857947D01*
X86027255Y-198857947D02*
X85284398Y-199600804D01*
X85284398Y-199600804D02*
X86089160Y-199600804D01*
D10*
D11*
X135284398Y-198300804D02*
X136089160Y-198300804D01*
X136089160Y-198300804D02*
X135655826Y-198796042D01*
X135655826Y-198796042D02*
X135841541Y-198796042D01*
X135841541Y-198796042D02*
X135965350Y-198857947D01*
X135965350Y-198857947D02*
X136027255Y-198919852D01*
X136027255Y-198919852D02*
X136089160Y-199043661D01*
X136089160Y-199043661D02*
X136089160Y-199353185D01*
X136089160Y-199353185D02*
X136027255Y-199476995D01*
X136027255Y-199476995D02*
X135965350Y-199538900D01*
X135965350Y-199538900D02*
X135841541Y-199600804D01*
X135841541Y-199600804D02*
X135470112Y-199600804D01*
X135470112Y-199600804D02*
X135346303Y-199538900D01*
X135346303Y-199538900D02*
X135284398Y-199476995D01*
D10*
D11*
X185965350Y-198734138D02*
X185965350Y-199600804D01*
X185655826Y-198238900D02*
X185346303Y-199167471D01*
X185346303Y-199167471D02*
X186151064Y-199167471D01*
D10*
D11*
X236027255Y-198300804D02*
X235408207Y-198300804D01*
X235408207Y-198300804D02*
X235346303Y-198919852D01*
X235346303Y-198919852D02*
X235408207Y-198857947D01*
X235408207Y-198857947D02*
X235532017Y-198796042D01*
X235532017Y-198796042D02*
X235841541Y-198796042D01*
X235841541Y-198796042D02*
X235965350Y-198857947D01*
X235965350Y-198857947D02*
X236027255Y-198919852D01*
X236027255Y-198919852D02*
X236089160Y-199043661D01*
X236089160Y-199043661D02*
X236089160Y-199353185D01*
X236089160Y-199353185D02*
X236027255Y-199476995D01*
X236027255Y-199476995D02*
X235965350Y-199538900D01*
X235965350Y-199538900D02*
X235841541Y-199600804D01*
X235841541Y-199600804D02*
X235532017Y-199600804D01*
X235532017Y-199600804D02*
X235408207Y-199538900D01*
X235408207Y-199538900D02*
X235346303Y-199476995D01*
D10*
D11*
X285965350Y-198300804D02*
X285717731Y-198300804D01*
X285717731Y-198300804D02*
X285593922Y-198362709D01*
X285593922Y-198362709D02*
X285532017Y-198424614D01*
X285532017Y-198424614D02*
X285408207Y-198610328D01*
X285408207Y-198610328D02*
X285346303Y-198857947D01*
X285346303Y-198857947D02*
X285346303Y-199353185D01*
X285346303Y-199353185D02*
X285408207Y-199476995D01*
X285408207Y-199476995D02*
X285470112Y-199538900D01*
X285470112Y-199538900D02*
X285593922Y-199600804D01*
X285593922Y-199600804D02*
X285841541Y-199600804D01*
X285841541Y-199600804D02*
X285965350Y-199538900D01*
X285965350Y-199538900D02*
X286027255Y-199476995D01*
X286027255Y-199476995D02*
X286089160Y-199353185D01*
X286089160Y-199353185D02*
X286089160Y-199043661D01*
X286089160Y-199043661D02*
X286027255Y-198919852D01*
X286027255Y-198919852D02*
X285965350Y-198857947D01*
X285965350Y-198857947D02*
X285841541Y-198796042D01*
X285841541Y-198796042D02*
X285593922Y-198796042D01*
X285593922Y-198796042D02*
X285470112Y-198857947D01*
X285470112Y-198857947D02*
X285408207Y-198919852D01*
X285408207Y-198919852D02*
X285346303Y-199043661D01*
D10*
D11*
X10000000Y-60000000D02*
X12000000Y-60000000D01*
D10*
D11*
X10000000Y-110000000D02*
X12000000Y-110000000D01*
D10*
D11*
X10000000Y-160000000D02*
X12000000Y-160000000D01*
D10*
D11*
X10690476Y-35222176D02*
X11309523Y-35222176D01*
X10566666Y-35593604D02*
X10999999Y-34293604D01*
X10999999Y-34293604D02*
X11433333Y-35593604D01*
D10*
D11*
X11092857Y-84912652D02*
X11278571Y-84974557D01*
X11278571Y-84974557D02*
X11340476Y-85036461D01*
X11340476Y-85036461D02*
X11402380Y-85160271D01*
X11402380Y-85160271D02*
X11402380Y-85345985D01*
X11402380Y-85345985D02*
X11340476Y-85469795D01*
X11340476Y-85469795D02*
X11278571Y-85531700D01*
X11278571Y-85531700D02*
X11154761Y-85593604D01*
X11154761Y-85593604D02*
X10659523Y-85593604D01*
X10659523Y-85593604D02*
X10659523Y-84293604D01*
X10659523Y-84293604D02*
X11092857Y-84293604D01*
X11092857Y-84293604D02*
X11216666Y-84355509D01*
X11216666Y-84355509D02*
X11278571Y-84417414D01*
X11278571Y-84417414D02*
X11340476Y-84541223D01*
X11340476Y-84541223D02*
X11340476Y-84665033D01*
X11340476Y-84665033D02*
X11278571Y-84788842D01*
X11278571Y-84788842D02*
X11216666Y-84850747D01*
X11216666Y-84850747D02*
X11092857Y-84912652D01*
X11092857Y-84912652D02*
X10659523Y-84912652D01*
D10*
D11*
X11402380Y-135469795D02*
X11340476Y-135531700D01*
X11340476Y-135531700D02*
X11154761Y-135593604D01*
X11154761Y-135593604D02*
X11030952Y-135593604D01*
X11030952Y-135593604D02*
X10845238Y-135531700D01*
X10845238Y-135531700D02*
X10721428Y-135407890D01*
X10721428Y-135407890D02*
X10659523Y-135284080D01*
X10659523Y-135284080D02*
X10597619Y-135036461D01*
X10597619Y-135036461D02*
X10597619Y-134850747D01*
X10597619Y-134850747D02*
X10659523Y-134603128D01*
X10659523Y-134603128D02*
X10721428Y-134479319D01*
X10721428Y-134479319D02*
X10845238Y-134355509D01*
X10845238Y-134355509D02*
X11030952Y-134293604D01*
X11030952Y-134293604D02*
X11154761Y-134293604D01*
X11154761Y-134293604D02*
X11340476Y-134355509D01*
X11340476Y-134355509D02*
X11402380Y-134417414D01*
D10*
D11*
X10659523Y-185593604D02*
X10659523Y-184293604D01*
X10659523Y-184293604D02*
X10969047Y-184293604D01*
X10969047Y-184293604D02*
X11154761Y-184355509D01*
X11154761Y-184355509D02*
X11278571Y-184479319D01*
X11278571Y-184479319D02*
X11340476Y-184603128D01*
X11340476Y-184603128D02*
X11402380Y-184850747D01*
X11402380Y-184850747D02*
X11402380Y-185036461D01*
X11402380Y-185036461D02*
X11340476Y-185284080D01*
X11340476Y-185284080D02*
X11278571Y-185407890D01*
X11278571Y-185407890D02*
X11154761Y-185531700D01*
X11154761Y-185531700D02*
X10969047Y-185593604D01*
X10969047Y-185593604D02*
X10659523Y-185593604D01*
D10*
D11*
X287002200Y-60000000D02*
X285002200Y-60000000D01*
D10*
D11*
X287002200Y-110000000D02*
X285002200Y-110000000D01*
D10*
D11*
X287002200Y-160000000D02*
X285002200Y-160000000D01*
D10*
D11*
X285692676Y-35222176D02*
X286311723Y-35222176D01*
X285568866Y-35593604D02*
X286002199Y-34293604D01*
X286002199Y-34293604D02*
X286435533Y-35593604D01*
D10*
D11*
X286095057Y-84912652D02*
X286280771Y-84974557D01*
X286280771Y-84974557D02*
X286342676Y-85036461D01*
X286342676Y-85036461D02*
X286404580Y-85160271D01*
X286404580Y-85160271D02*
X286404580Y-85345985D01*
X286404580Y-85345985D02*
X286342676Y-85469795D01*
X286342676Y-85469795D02*
X286280771Y-85531700D01*
X286280771Y-85531700D02*
X286156961Y-85593604D01*
X286156961Y-85593604D02*
X285661723Y-85593604D01*
X285661723Y-85593604D02*
X285661723Y-84293604D01*
X285661723Y-84293604D02*
X286095057Y-84293604D01*
X286095057Y-84293604D02*
X286218866Y-84355509D01*
X286218866Y-84355509D02*
X286280771Y-84417414D01*
X286280771Y-84417414D02*
X286342676Y-84541223D01*
X286342676Y-84541223D02*
X286342676Y-84665033D01*
X286342676Y-84665033D02*
X286280771Y-84788842D01*
X286280771Y-84788842D02*
X286218866Y-84850747D01*
X286218866Y-84850747D02*
X286095057Y-84912652D01*
X286095057Y-84912652D02*
X285661723Y-84912652D01*
D10*
D11*
X286404580Y-135469795D02*
X286342676Y-135531700D01*
X286342676Y-135531700D02*
X286156961Y-135593604D01*
X286156961Y-135593604D02*
X286033152Y-135593604D01*
X286033152Y-135593604D02*
X285847438Y-135531700D01*
X285847438Y-135531700D02*
X285723628Y-135407890D01*
X285723628Y-135407890D02*
X285661723Y-135284080D01*
X285661723Y-135284080D02*
X285599819Y-135036461D01*
X285599819Y-135036461D02*
X285599819Y-134850747D01*
X285599819Y-134850747D02*
X285661723Y-134603128D01*
X285661723Y-134603128D02*
X285723628Y-134479319D01*
X285723628Y-134479319D02*
X285847438Y-134355509D01*
X285847438Y-134355509D02*
X286033152Y-134293604D01*
X286033152Y-134293604D02*
X286156961Y-134293604D01*
X286156961Y-134293604D02*
X286342676Y-134355509D01*
X286342676Y-134355509D02*
X286404580Y-134417414D01*
D10*
D11*
X285661723Y-185593604D02*
X285661723Y-184293604D01*
X285661723Y-184293604D02*
X285971247Y-184293604D01*
X285971247Y-184293604D02*
X286156961Y-184355509D01*
X286156961Y-184355509D02*
X286280771Y-184479319D01*
X286280771Y-184479319D02*
X286342676Y-184603128D01*
X286342676Y-184603128D02*
X286404580Y-184850747D01*
X286404580Y-184850747D02*
X286404580Y-185036461D01*
X286404580Y-185036461D02*
X286342676Y-185284080D01*
X286342676Y-185284080D02*
X286280771Y-185407890D01*
X286280771Y-185407890D02*
X286156961Y-185531700D01*
X286156961Y-185531700D02*
X285971247Y-185593604D01*
X285971247Y-185593604D02*
X285661723Y-185593604D01*
D10*
D11*
X200458026Y-193793328D02*
X200458026Y-192293328D01*
X200458026Y-192293328D02*
X200815169Y-192293328D01*
X200815169Y-192293328D02*
X201029455Y-192364757D01*
X201029455Y-192364757D02*
X201172312Y-192507614D01*
X201172312Y-192507614D02*
X201243741Y-192650471D01*
X201243741Y-192650471D02*
X201315169Y-192936185D01*
X201315169Y-192936185D02*
X201315169Y-193150471D01*
X201315169Y-193150471D02*
X201243741Y-193436185D01*
X201243741Y-193436185D02*
X201172312Y-193579042D01*
X201172312Y-193579042D02*
X201029455Y-193721900D01*
X201029455Y-193721900D02*
X200815169Y-193793328D01*
X200815169Y-193793328D02*
X200458026Y-193793328D01*
X202600884Y-193793328D02*
X202600884Y-193007614D01*
X202600884Y-193007614D02*
X202529455Y-192864757D01*
X202529455Y-192864757D02*
X202386598Y-192793328D01*
X202386598Y-192793328D02*
X202100884Y-192793328D01*
X202100884Y-192793328D02*
X201958026Y-192864757D01*
X202600884Y-193721900D02*
X202458026Y-193793328D01*
X202458026Y-193793328D02*
X202100884Y-193793328D01*
X202100884Y-193793328D02*
X201958026Y-193721900D01*
X201958026Y-193721900D02*
X201886598Y-193579042D01*
X201886598Y-193579042D02*
X201886598Y-193436185D01*
X201886598Y-193436185D02*
X201958026Y-193293328D01*
X201958026Y-193293328D02*
X202100884Y-193221900D01*
X202100884Y-193221900D02*
X202458026Y-193221900D01*
X202458026Y-193221900D02*
X202600884Y-193150471D01*
X203100884Y-192793328D02*
X203672312Y-192793328D01*
X203315169Y-192293328D02*
X203315169Y-193579042D01*
X203315169Y-193579042D02*
X203386598Y-193721900D01*
X203386598Y-193721900D02*
X203529455Y-193793328D01*
X203529455Y-193793328D02*
X203672312Y-193793328D01*
X204743741Y-193721900D02*
X204600884Y-193793328D01*
X204600884Y-193793328D02*
X204315170Y-193793328D01*
X204315170Y-193793328D02*
X204172312Y-193721900D01*
X204172312Y-193721900D02*
X204100884Y-193579042D01*
X204100884Y-193579042D02*
X204100884Y-193007614D01*
X204100884Y-193007614D02*
X204172312Y-192864757D01*
X204172312Y-192864757D02*
X204315170Y-192793328D01*
X204315170Y-192793328D02*
X204600884Y-192793328D01*
X204600884Y-192793328D02*
X204743741Y-192864757D01*
X204743741Y-192864757D02*
X204815170Y-193007614D01*
X204815170Y-193007614D02*
X204815170Y-193150471D01*
X204815170Y-193150471D02*
X204100884Y-193293328D01*
X205458026Y-193650471D02*
X205529455Y-193721900D01*
X205529455Y-193721900D02*
X205458026Y-193793328D01*
X205458026Y-193793328D02*
X205386598Y-193721900D01*
X205386598Y-193721900D02*
X205458026Y-193650471D01*
X205458026Y-193650471D02*
X205458026Y-193793328D01*
X205458026Y-192864757D02*
X205529455Y-192936185D01*
X205529455Y-192936185D02*
X205458026Y-193007614D01*
X205458026Y-193007614D02*
X205386598Y-192936185D01*
X205386598Y-192936185D02*
X205458026Y-192864757D01*
X205458026Y-192864757D02*
X205458026Y-193007614D01*
D10*
D11*
X177002200Y-194507200D02*
X285002200Y-194507200D01*
D10*
D11*
X178458026Y-196593328D02*
X178458026Y-195093328D01*
X179315169Y-196593328D02*
X178672312Y-195736185D01*
X179315169Y-195093328D02*
X178458026Y-195950471D01*
X179958026Y-196593328D02*
X179958026Y-195593328D01*
X179958026Y-195093328D02*
X179886598Y-195164757D01*
X179886598Y-195164757D02*
X179958026Y-195236185D01*
X179958026Y-195236185D02*
X180029455Y-195164757D01*
X180029455Y-195164757D02*
X179958026Y-195093328D01*
X179958026Y-195093328D02*
X179958026Y-195236185D01*
X181529455Y-196450471D02*
X181458027Y-196521900D01*
X181458027Y-196521900D02*
X181243741Y-196593328D01*
X181243741Y-196593328D02*
X181100884Y-196593328D01*
X181100884Y-196593328D02*
X180886598Y-196521900D01*
X180886598Y-196521900D02*
X180743741Y-196379042D01*
X180743741Y-196379042D02*
X180672312Y-196236185D01*
X180672312Y-196236185D02*
X180600884Y-195950471D01*
X180600884Y-195950471D02*
X180600884Y-195736185D01*
X180600884Y-195736185D02*
X180672312Y-195450471D01*
X180672312Y-195450471D02*
X180743741Y-195307614D01*
X180743741Y-195307614D02*
X180886598Y-195164757D01*
X180886598Y-195164757D02*
X181100884Y-195093328D01*
X181100884Y-195093328D02*
X181243741Y-195093328D01*
X181243741Y-195093328D02*
X181458027Y-195164757D01*
X181458027Y-195164757D02*
X181529455Y-195236185D01*
X182815170Y-196593328D02*
X182815170Y-195807614D01*
X182815170Y-195807614D02*
X182743741Y-195664757D01*
X182743741Y-195664757D02*
X182600884Y-195593328D01*
X182600884Y-195593328D02*
X182315170Y-195593328D01*
X182315170Y-195593328D02*
X182172312Y-195664757D01*
X182815170Y-196521900D02*
X182672312Y-196593328D01*
X182672312Y-196593328D02*
X182315170Y-196593328D01*
X182315170Y-196593328D02*
X182172312Y-196521900D01*
X182172312Y-196521900D02*
X182100884Y-196379042D01*
X182100884Y-196379042D02*
X182100884Y-196236185D01*
X182100884Y-196236185D02*
X182172312Y-196093328D01*
X182172312Y-196093328D02*
X182315170Y-196021900D01*
X182315170Y-196021900D02*
X182672312Y-196021900D01*
X182672312Y-196021900D02*
X182815170Y-195950471D01*
X184172313Y-196593328D02*
X184172313Y-195093328D01*
X184172313Y-196521900D02*
X184029455Y-196593328D01*
X184029455Y-196593328D02*
X183743741Y-196593328D01*
X183743741Y-196593328D02*
X183600884Y-196521900D01*
X183600884Y-196521900D02*
X183529455Y-196450471D01*
X183529455Y-196450471D02*
X183458027Y-196307614D01*
X183458027Y-196307614D02*
X183458027Y-195879042D01*
X183458027Y-195879042D02*
X183529455Y-195736185D01*
X183529455Y-195736185D02*
X183600884Y-195664757D01*
X183600884Y-195664757D02*
X183743741Y-195593328D01*
X183743741Y-195593328D02*
X184029455Y-195593328D01*
X184029455Y-195593328D02*
X184172313Y-195664757D01*
X186029455Y-195807614D02*
X186529455Y-195807614D01*
X186743741Y-196593328D02*
X186029455Y-196593328D01*
X186029455Y-196593328D02*
X186029455Y-195093328D01*
X186029455Y-195093328D02*
X186743741Y-195093328D01*
X187386598Y-196450471D02*
X187458027Y-196521900D01*
X187458027Y-196521900D02*
X187386598Y-196593328D01*
X187386598Y-196593328D02*
X187315170Y-196521900D01*
X187315170Y-196521900D02*
X187386598Y-196450471D01*
X187386598Y-196450471D02*
X187386598Y-196593328D01*
X188100884Y-196593328D02*
X188100884Y-195093328D01*
X188100884Y-195093328D02*
X188458027Y-195093328D01*
X188458027Y-195093328D02*
X188672313Y-195164757D01*
X188672313Y-195164757D02*
X188815170Y-195307614D01*
X188815170Y-195307614D02*
X188886599Y-195450471D01*
X188886599Y-195450471D02*
X188958027Y-195736185D01*
X188958027Y-195736185D02*
X188958027Y-195950471D01*
X188958027Y-195950471D02*
X188886599Y-196236185D01*
X188886599Y-196236185D02*
X188815170Y-196379042D01*
X188815170Y-196379042D02*
X188672313Y-196521900D01*
X188672313Y-196521900D02*
X188458027Y-196593328D01*
X188458027Y-196593328D02*
X188100884Y-196593328D01*
X189600884Y-196450471D02*
X189672313Y-196521900D01*
X189672313Y-196521900D02*
X189600884Y-196593328D01*
X189600884Y-196593328D02*
X189529456Y-196521900D01*
X189529456Y-196521900D02*
X189600884Y-196450471D01*
X189600884Y-196450471D02*
X189600884Y-196593328D01*
X190243742Y-196164757D02*
X190958028Y-196164757D01*
X190100885Y-196593328D02*
X190600885Y-195093328D01*
X190600885Y-195093328D02*
X191100885Y-196593328D01*
X191600884Y-196450471D02*
X191672313Y-196521900D01*
X191672313Y-196521900D02*
X191600884Y-196593328D01*
X191600884Y-196593328D02*
X191529456Y-196521900D01*
X191529456Y-196521900D02*
X191600884Y-196450471D01*
X191600884Y-196450471D02*
X191600884Y-196593328D01*
X193529456Y-196593328D02*
X193815170Y-196593328D01*
X193815170Y-196593328D02*
X193958027Y-196521900D01*
X193958027Y-196521900D02*
X194029456Y-196450471D01*
X194029456Y-196450471D02*
X194172313Y-196236185D01*
X194172313Y-196236185D02*
X194243742Y-195950471D01*
X194243742Y-195950471D02*
X194243742Y-195379042D01*
X194243742Y-195379042D02*
X194172313Y-195236185D01*
X194172313Y-195236185D02*
X194100885Y-195164757D01*
X194100885Y-195164757D02*
X193958027Y-195093328D01*
X193958027Y-195093328D02*
X193672313Y-195093328D01*
X193672313Y-195093328D02*
X193529456Y-195164757D01*
X193529456Y-195164757D02*
X193458027Y-195236185D01*
X193458027Y-195236185D02*
X193386599Y-195379042D01*
X193386599Y-195379042D02*
X193386599Y-195736185D01*
X193386599Y-195736185D02*
X193458027Y-195879042D01*
X193458027Y-195879042D02*
X193529456Y-195950471D01*
X193529456Y-195950471D02*
X193672313Y-196021900D01*
X193672313Y-196021900D02*
X193958027Y-196021900D01*
X193958027Y-196021900D02*
X194100885Y-195950471D01*
X194100885Y-195950471D02*
X194172313Y-195879042D01*
X194172313Y-195879042D02*
X194243742Y-195736185D01*
X194886598Y-196450471D02*
X194958027Y-196521900D01*
X194958027Y-196521900D02*
X194886598Y-196593328D01*
X194886598Y-196593328D02*
X194815170Y-196521900D01*
X194815170Y-196521900D02*
X194886598Y-196450471D01*
X194886598Y-196450471D02*
X194886598Y-196593328D01*
X195886599Y-195093328D02*
X196029456Y-195093328D01*
X196029456Y-195093328D02*
X196172313Y-195164757D01*
X196172313Y-195164757D02*
X196243742Y-195236185D01*
X196243742Y-195236185D02*
X196315170Y-195379042D01*
X196315170Y-195379042D02*
X196386599Y-195664757D01*
X196386599Y-195664757D02*
X196386599Y-196021900D01*
X196386599Y-196021900D02*
X196315170Y-196307614D01*
X196315170Y-196307614D02*
X196243742Y-196450471D01*
X196243742Y-196450471D02*
X196172313Y-196521900D01*
X196172313Y-196521900D02*
X196029456Y-196593328D01*
X196029456Y-196593328D02*
X195886599Y-196593328D01*
X195886599Y-196593328D02*
X195743742Y-196521900D01*
X195743742Y-196521900D02*
X195672313Y-196450471D01*
X195672313Y-196450471D02*
X195600884Y-196307614D01*
X195600884Y-196307614D02*
X195529456Y-196021900D01*
X195529456Y-196021900D02*
X195529456Y-195664757D01*
X195529456Y-195664757D02*
X195600884Y-195379042D01*
X195600884Y-195379042D02*
X195672313Y-195236185D01*
X195672313Y-195236185D02*
X195743742Y-195164757D01*
X195743742Y-195164757D02*
X195886599Y-195093328D01*
X197029455Y-196450471D02*
X197100884Y-196521900D01*
X197100884Y-196521900D02*
X197029455Y-196593328D01*
X197029455Y-196593328D02*
X196958027Y-196521900D01*
X196958027Y-196521900D02*
X197029455Y-196450471D01*
X197029455Y-196450471D02*
X197029455Y-196593328D01*
X197672313Y-195236185D02*
X197743741Y-195164757D01*
X197743741Y-195164757D02*
X197886599Y-195093328D01*
X197886599Y-195093328D02*
X198243741Y-195093328D01*
X198243741Y-195093328D02*
X198386599Y-195164757D01*
X198386599Y-195164757D02*
X198458027Y-195236185D01*
X198458027Y-195236185D02*
X198529456Y-195379042D01*
X198529456Y-195379042D02*
X198529456Y-195521900D01*
X198529456Y-195521900D02*
X198458027Y-195736185D01*
X198458027Y-195736185D02*
X197600884Y-196593328D01*
X197600884Y-196593328D02*
X198529456Y-196593328D01*
D10*
D11*
X177002200Y-191507200D02*
X285002200Y-191507200D01*
D10*
D12*
X264413853Y-193785528D02*
X263913853Y-193071242D01*
X263556710Y-193785528D02*
X263556710Y-192285528D01*
X263556710Y-192285528D02*
X264128139Y-192285528D01*
X264128139Y-192285528D02*
X264270996Y-192356957D01*
X264270996Y-192356957D02*
X264342425Y-192428385D01*
X264342425Y-192428385D02*
X264413853Y-192571242D01*
X264413853Y-192571242D02*
X264413853Y-192785528D01*
X264413853Y-192785528D02*
X264342425Y-192928385D01*
X264342425Y-192928385D02*
X264270996Y-192999814D01*
X264270996Y-192999814D02*
X264128139Y-193071242D01*
X264128139Y-193071242D02*
X263556710Y-193071242D01*
X265628139Y-193714100D02*
X265485282Y-193785528D01*
X265485282Y-193785528D02*
X265199568Y-193785528D01*
X265199568Y-193785528D02*
X265056710Y-193714100D01*
X265056710Y-193714100D02*
X264985282Y-193571242D01*
X264985282Y-193571242D02*
X264985282Y-192999814D01*
X264985282Y-192999814D02*
X265056710Y-192856957D01*
X265056710Y-192856957D02*
X265199568Y-192785528D01*
X265199568Y-192785528D02*
X265485282Y-192785528D01*
X265485282Y-192785528D02*
X265628139Y-192856957D01*
X265628139Y-192856957D02*
X265699568Y-192999814D01*
X265699568Y-192999814D02*
X265699568Y-193142671D01*
X265699568Y-193142671D02*
X264985282Y-193285528D01*
X266199567Y-192785528D02*
X266556710Y-193785528D01*
X266556710Y-193785528D02*
X266913853Y-192785528D01*
X267485281Y-193642671D02*
X267556710Y-193714100D01*
X267556710Y-193714100D02*
X267485281Y-193785528D01*
X267485281Y-193785528D02*
X267413853Y-193714100D01*
X267413853Y-193714100D02*
X267485281Y-193642671D01*
X267485281Y-193642671D02*
X267485281Y-193785528D01*
X267485281Y-192856957D02*
X267556710Y-192928385D01*
X267556710Y-192928385D02*
X267485281Y-192999814D01*
X267485281Y-192999814D02*
X267413853Y-192928385D01*
X267413853Y-192928385D02*
X267485281Y-192856957D01*
X267485281Y-192856957D02*
X267485281Y-192999814D01*
D10*
D11*
X178386598Y-193721900D02*
X178600884Y-193793328D01*
X178600884Y-193793328D02*
X178958026Y-193793328D01*
X178958026Y-193793328D02*
X179100884Y-193721900D01*
X179100884Y-193721900D02*
X179172312Y-193650471D01*
X179172312Y-193650471D02*
X179243741Y-193507614D01*
X179243741Y-193507614D02*
X179243741Y-193364757D01*
X179243741Y-193364757D02*
X179172312Y-193221900D01*
X179172312Y-193221900D02*
X179100884Y-193150471D01*
X179100884Y-193150471D02*
X178958026Y-193079042D01*
X178958026Y-193079042D02*
X178672312Y-193007614D01*
X178672312Y-193007614D02*
X178529455Y-192936185D01*
X178529455Y-192936185D02*
X178458026Y-192864757D01*
X178458026Y-192864757D02*
X178386598Y-192721900D01*
X178386598Y-192721900D02*
X178386598Y-192579042D01*
X178386598Y-192579042D02*
X178458026Y-192436185D01*
X178458026Y-192436185D02*
X178529455Y-192364757D01*
X178529455Y-192364757D02*
X178672312Y-192293328D01*
X178672312Y-192293328D02*
X179029455Y-192293328D01*
X179029455Y-192293328D02*
X179243741Y-192364757D01*
X179886597Y-193793328D02*
X179886597Y-192793328D01*
X179886597Y-192293328D02*
X179815169Y-192364757D01*
X179815169Y-192364757D02*
X179886597Y-192436185D01*
X179886597Y-192436185D02*
X179958026Y-192364757D01*
X179958026Y-192364757D02*
X179886597Y-192293328D01*
X179886597Y-192293328D02*
X179886597Y-192436185D01*
X180458026Y-192793328D02*
X181243741Y-192793328D01*
X181243741Y-192793328D02*
X180458026Y-193793328D01*
X180458026Y-193793328D02*
X181243741Y-193793328D01*
X182386598Y-193721900D02*
X182243741Y-193793328D01*
X182243741Y-193793328D02*
X181958027Y-193793328D01*
X181958027Y-193793328D02*
X181815169Y-193721900D01*
X181815169Y-193721900D02*
X181743741Y-193579042D01*
X181743741Y-193579042D02*
X181743741Y-193007614D01*
X181743741Y-193007614D02*
X181815169Y-192864757D01*
X181815169Y-192864757D02*
X181958027Y-192793328D01*
X181958027Y-192793328D02*
X182243741Y-192793328D01*
X182243741Y-192793328D02*
X182386598Y-192864757D01*
X182386598Y-192864757D02*
X182458027Y-193007614D01*
X182458027Y-193007614D02*
X182458027Y-193150471D01*
X182458027Y-193150471D02*
X181743741Y-193293328D01*
X183100883Y-193650471D02*
X183172312Y-193721900D01*
X183172312Y-193721900D02*
X183100883Y-193793328D01*
X183100883Y-193793328D02*
X183029455Y-193721900D01*
X183029455Y-193721900D02*
X183100883Y-193650471D01*
X183100883Y-193650471D02*
X183100883Y-193793328D01*
X183100883Y-192864757D02*
X183172312Y-192936185D01*
X183172312Y-192936185D02*
X183100883Y-193007614D01*
X183100883Y-193007614D02*
X183029455Y-192936185D01*
X183029455Y-192936185D02*
X183100883Y-192864757D01*
X183100883Y-192864757D02*
X183100883Y-193007614D01*
X184886598Y-193364757D02*
X185600884Y-193364757D01*
X184743741Y-193793328D02*
X185243741Y-192293328D01*
X185243741Y-192293328D02*
X185743741Y-193793328D01*
X186886598Y-192793328D02*
X186886598Y-193793328D01*
X186529455Y-192221900D02*
X186172312Y-193293328D01*
X186172312Y-193293328D02*
X187100883Y-193293328D01*
D10*
D11*
X263458026Y-196593328D02*
X263458026Y-195093328D01*
X264815170Y-196593328D02*
X264815170Y-195093328D01*
X264815170Y-196521900D02*
X264672312Y-196593328D01*
X264672312Y-196593328D02*
X264386598Y-196593328D01*
X264386598Y-196593328D02*
X264243741Y-196521900D01*
X264243741Y-196521900D02*
X264172312Y-196450471D01*
X264172312Y-196450471D02*
X264100884Y-196307614D01*
X264100884Y-196307614D02*
X264100884Y-195879042D01*
X264100884Y-195879042D02*
X264172312Y-195736185D01*
X264172312Y-195736185D02*
X264243741Y-195664757D01*
X264243741Y-195664757D02*
X264386598Y-195593328D01*
X264386598Y-195593328D02*
X264672312Y-195593328D01*
X264672312Y-195593328D02*
X264815170Y-195664757D01*
X265529455Y-196450471D02*
X265600884Y-196521900D01*
X265600884Y-196521900D02*
X265529455Y-196593328D01*
X265529455Y-196593328D02*
X265458027Y-196521900D01*
X265458027Y-196521900D02*
X265529455Y-196450471D01*
X265529455Y-196450471D02*
X265529455Y-196593328D01*
X265529455Y-195664757D02*
X265600884Y-195736185D01*
X265600884Y-195736185D02*
X265529455Y-195807614D01*
X265529455Y-195807614D02*
X265458027Y-195736185D01*
X265458027Y-195736185D02*
X265529455Y-195664757D01*
X265529455Y-195664757D02*
X265529455Y-195807614D01*
X267243741Y-195093328D02*
X268172313Y-195093328D01*
X268172313Y-195093328D02*
X267672313Y-195664757D01*
X267672313Y-195664757D02*
X267886598Y-195664757D01*
X267886598Y-195664757D02*
X268029456Y-195736185D01*
X268029456Y-195736185D02*
X268100884Y-195807614D01*
X268100884Y-195807614D02*
X268172313Y-195950471D01*
X268172313Y-195950471D02*
X268172313Y-196307614D01*
X268172313Y-196307614D02*
X268100884Y-196450471D01*
X268100884Y-196450471D02*
X268029456Y-196521900D01*
X268029456Y-196521900D02*
X267886598Y-196593328D01*
X267886598Y-196593328D02*
X267458027Y-196593328D01*
X267458027Y-196593328D02*
X267315170Y-196521900D01*
X267315170Y-196521900D02*
X267243741Y-196450471D01*
X269886598Y-195021900D02*
X268600884Y-196950471D01*
X271172313Y-196593328D02*
X270315170Y-196593328D01*
X270743741Y-196593328D02*
X270743741Y-195093328D01*
X270743741Y-195093328D02*
X270600884Y-195307614D01*
X270600884Y-195307614D02*
X270458027Y-195450471D01*
X270458027Y-195450471D02*
X270315170Y-195521900D01*
X271672312Y-195093328D02*
X272672312Y-195093328D01*
X272672312Y-195093328D02*
X272029455Y-196593328D01*
D10*
D11*
X177002200Y-187507200D02*
X285002200Y-187507200D01*
D10*
D13*
X178693928Y-188211638D02*
X179836785Y-188211638D01*
X179015357Y-190211638D02*
X179265357Y-188211638D01*
X180253452Y-190211638D02*
X180420119Y-188878304D01*
X180503452Y-188211638D02*
X180396309Y-188306876D01*
X180396309Y-188306876D02*
X180479643Y-188402114D01*
X180479643Y-188402114D02*
X180586786Y-188306876D01*
X180586786Y-188306876D02*
X180503452Y-188211638D01*
X180503452Y-188211638D02*
X180479643Y-188402114D01*
X181086786Y-188878304D02*
X181848690Y-188878304D01*
X181455833Y-188211638D02*
X181241548Y-189925923D01*
X181241548Y-189925923D02*
X181312976Y-190116400D01*
X181312976Y-190116400D02*
X181491548Y-190211638D01*
X181491548Y-190211638D02*
X181682024Y-190211638D01*
X182634405Y-190211638D02*
X182455833Y-190116400D01*
X182455833Y-190116400D02*
X182384405Y-189925923D01*
X182384405Y-189925923D02*
X182598690Y-188211638D01*
X184170119Y-190116400D02*
X183967738Y-190211638D01*
X183967738Y-190211638D02*
X183586785Y-190211638D01*
X183586785Y-190211638D02*
X183408214Y-190116400D01*
X183408214Y-190116400D02*
X183336785Y-189925923D01*
X183336785Y-189925923D02*
X183432024Y-189164019D01*
X183432024Y-189164019D02*
X183551071Y-188973542D01*
X183551071Y-188973542D02*
X183753452Y-188878304D01*
X183753452Y-188878304D02*
X184134404Y-188878304D01*
X184134404Y-188878304D02*
X184312976Y-188973542D01*
X184312976Y-188973542D02*
X184384404Y-189164019D01*
X184384404Y-189164019D02*
X184360595Y-189354495D01*
X184360595Y-189354495D02*
X183384404Y-189544971D01*
X185134405Y-190021161D02*
X185217738Y-190116400D01*
X185217738Y-190116400D02*
X185110595Y-190211638D01*
X185110595Y-190211638D02*
X185027262Y-190116400D01*
X185027262Y-190116400D02*
X185134405Y-190021161D01*
X185134405Y-190021161D02*
X185110595Y-190211638D01*
X185265357Y-188973542D02*
X185348690Y-189068780D01*
X185348690Y-189068780D02*
X185241548Y-189164019D01*
X185241548Y-189164019D02*
X185158214Y-189068780D01*
X185158214Y-189068780D02*
X185265357Y-188973542D01*
X185265357Y-188973542D02*
X185241548Y-189164019D01*
D10*
D11*
X178958026Y-185607614D02*
X178458026Y-185607614D01*
X178458026Y-186393328D02*
X178458026Y-184893328D01*
X178458026Y-184893328D02*
X179172312Y-184893328D01*
X179743740Y-186393328D02*
X179743740Y-185393328D01*
X179743740Y-184893328D02*
X179672312Y-184964757D01*
X179672312Y-184964757D02*
X179743740Y-185036185D01*
X179743740Y-185036185D02*
X179815169Y-184964757D01*
X179815169Y-184964757D02*
X179743740Y-184893328D01*
X179743740Y-184893328D02*
X179743740Y-185036185D01*
X180672312Y-186393328D02*
X180529455Y-186321900D01*
X180529455Y-186321900D02*
X180458026Y-186179042D01*
X180458026Y-186179042D02*
X180458026Y-184893328D01*
X181815169Y-186321900D02*
X181672312Y-186393328D01*
X181672312Y-186393328D02*
X181386598Y-186393328D01*
X181386598Y-186393328D02*
X181243740Y-186321900D01*
X181243740Y-186321900D02*
X181172312Y-186179042D01*
X181172312Y-186179042D02*
X181172312Y-185607614D01*
X181172312Y-185607614D02*
X181243740Y-185464757D01*
X181243740Y-185464757D02*
X181386598Y-185393328D01*
X181386598Y-185393328D02*
X181672312Y-185393328D01*
X181672312Y-185393328D02*
X181815169Y-185464757D01*
X181815169Y-185464757D02*
X181886598Y-185607614D01*
X181886598Y-185607614D02*
X181886598Y-185750471D01*
X181886598Y-185750471D02*
X181172312Y-185893328D01*
X182529454Y-186250471D02*
X182600883Y-186321900D01*
X182600883Y-186321900D02*
X182529454Y-186393328D01*
X182529454Y-186393328D02*
X182458026Y-186321900D01*
X182458026Y-186321900D02*
X182529454Y-186250471D01*
X182529454Y-186250471D02*
X182529454Y-186393328D01*
X182529454Y-185464757D02*
X182600883Y-185536185D01*
X182600883Y-185536185D02*
X182529454Y-185607614D01*
X182529454Y-185607614D02*
X182458026Y-185536185D01*
X182458026Y-185536185D02*
X182529454Y-185464757D01*
X182529454Y-185464757D02*
X182529454Y-185607614D01*
X184386597Y-186393328D02*
X184386597Y-184893328D01*
X184386597Y-184893328D02*
X184886597Y-185964757D01*
X184886597Y-185964757D02*
X185386597Y-184893328D01*
X185386597Y-184893328D02*
X185386597Y-186393328D01*
X186100883Y-186393328D02*
X186100883Y-185393328D01*
X186100883Y-184893328D02*
X186029455Y-184964757D01*
X186029455Y-184964757D02*
X186100883Y-185036185D01*
X186100883Y-185036185D02*
X186172312Y-184964757D01*
X186172312Y-184964757D02*
X186100883Y-184893328D01*
X186100883Y-184893328D02*
X186100883Y-185036185D01*
X187458027Y-186321900D02*
X187315169Y-186393328D01*
X187315169Y-186393328D02*
X187029455Y-186393328D01*
X187029455Y-186393328D02*
X186886598Y-186321900D01*
X186886598Y-186321900D02*
X186815169Y-186250471D01*
X186815169Y-186250471D02*
X186743741Y-186107614D01*
X186743741Y-186107614D02*
X186743741Y-185679042D01*
X186743741Y-185679042D02*
X186815169Y-185536185D01*
X186815169Y-185536185D02*
X186886598Y-185464757D01*
X186886598Y-185464757D02*
X187029455Y-185393328D01*
X187029455Y-185393328D02*
X187315169Y-185393328D01*
X187315169Y-185393328D02*
X187458027Y-185464757D01*
X188100883Y-186393328D02*
X188100883Y-185393328D01*
X188100883Y-185679042D02*
X188172312Y-185536185D01*
X188172312Y-185536185D02*
X188243741Y-185464757D01*
X188243741Y-185464757D02*
X188386598Y-185393328D01*
X188386598Y-185393328D02*
X188529455Y-185393328D01*
X189243740Y-186393328D02*
X189100883Y-186321900D01*
X189100883Y-186321900D02*
X189029454Y-186250471D01*
X189029454Y-186250471D02*
X188958026Y-186107614D01*
X188958026Y-186107614D02*
X188958026Y-185679042D01*
X188958026Y-185679042D02*
X189029454Y-185536185D01*
X189029454Y-185536185D02*
X189100883Y-185464757D01*
X189100883Y-185464757D02*
X189243740Y-185393328D01*
X189243740Y-185393328D02*
X189458026Y-185393328D01*
X189458026Y-185393328D02*
X189600883Y-185464757D01*
X189600883Y-185464757D02*
X189672312Y-185536185D01*
X189672312Y-185536185D02*
X189743740Y-185679042D01*
X189743740Y-185679042D02*
X189743740Y-186107614D01*
X189743740Y-186107614D02*
X189672312Y-186250471D01*
X189672312Y-186250471D02*
X189600883Y-186321900D01*
X189600883Y-186321900D02*
X189458026Y-186393328D01*
X189458026Y-186393328D02*
X189243740Y-186393328D01*
X190386597Y-185393328D02*
X190386597Y-186893328D01*
X190386597Y-185464757D02*
X190529455Y-185393328D01*
X190529455Y-185393328D02*
X190815169Y-185393328D01*
X190815169Y-185393328D02*
X190958026Y-185464757D01*
X190958026Y-185464757D02*
X191029455Y-185536185D01*
X191029455Y-185536185D02*
X191100883Y-185679042D01*
X191100883Y-185679042D02*
X191100883Y-186107614D01*
X191100883Y-186107614D02*
X191029455Y-186250471D01*
X191029455Y-186250471D02*
X190958026Y-186321900D01*
X190958026Y-186321900D02*
X190815169Y-186393328D01*
X190815169Y-186393328D02*
X190529455Y-186393328D01*
X190529455Y-186393328D02*
X190386597Y-186321900D01*
X191743740Y-186393328D02*
X191743740Y-184893328D01*
X192386598Y-186393328D02*
X192386598Y-185607614D01*
X192386598Y-185607614D02*
X192315169Y-185464757D01*
X192315169Y-185464757D02*
X192172312Y-185393328D01*
X192172312Y-185393328D02*
X191958026Y-185393328D01*
X191958026Y-185393328D02*
X191815169Y-185464757D01*
X191815169Y-185464757D02*
X191743740Y-185536185D01*
X193315169Y-186393328D02*
X193172312Y-186321900D01*
X193172312Y-186321900D02*
X193100883Y-186250471D01*
X193100883Y-186250471D02*
X193029455Y-186107614D01*
X193029455Y-186107614D02*
X193029455Y-185679042D01*
X193029455Y-185679042D02*
X193100883Y-185536185D01*
X193100883Y-185536185D02*
X193172312Y-185464757D01*
X193172312Y-185464757D02*
X193315169Y-185393328D01*
X193315169Y-185393328D02*
X193529455Y-185393328D01*
X193529455Y-185393328D02*
X193672312Y-185464757D01*
X193672312Y-185464757D02*
X193743741Y-185536185D01*
X193743741Y-185536185D02*
X193815169Y-185679042D01*
X193815169Y-185679042D02*
X193815169Y-186107614D01*
X193815169Y-186107614D02*
X193743741Y-186250471D01*
X193743741Y-186250471D02*
X193672312Y-186321900D01*
X193672312Y-186321900D02*
X193529455Y-186393328D01*
X193529455Y-186393328D02*
X193315169Y-186393328D01*
X194458026Y-185393328D02*
X194458026Y-186393328D01*
X194458026Y-185536185D02*
X194529455Y-185464757D01*
X194529455Y-185464757D02*
X194672312Y-185393328D01*
X194672312Y-185393328D02*
X194886598Y-185393328D01*
X194886598Y-185393328D02*
X195029455Y-185464757D01*
X195029455Y-185464757D02*
X195100884Y-185607614D01*
X195100884Y-185607614D02*
X195100884Y-186393328D01*
X196386598Y-186321900D02*
X196243741Y-186393328D01*
X196243741Y-186393328D02*
X195958027Y-186393328D01*
X195958027Y-186393328D02*
X195815169Y-186321900D01*
X195815169Y-186321900D02*
X195743741Y-186179042D01*
X195743741Y-186179042D02*
X195743741Y-185607614D01*
X195743741Y-185607614D02*
X195815169Y-185464757D01*
X195815169Y-185464757D02*
X195958027Y-185393328D01*
X195958027Y-185393328D02*
X196243741Y-185393328D01*
X196243741Y-185393328D02*
X196386598Y-185464757D01*
X196386598Y-185464757D02*
X196458027Y-185607614D01*
X196458027Y-185607614D02*
X196458027Y-185750471D01*
X196458027Y-185750471D02*
X195743741Y-185893328D01*
X196743741Y-186536185D02*
X197886598Y-186536185D01*
X198529455Y-184893328D02*
X198815169Y-184893328D01*
X198815169Y-184893328D02*
X198958026Y-184964757D01*
X198958026Y-184964757D02*
X199100883Y-185107614D01*
X199100883Y-185107614D02*
X199172312Y-185393328D01*
X199172312Y-185393328D02*
X199172312Y-185893328D01*
X199172312Y-185893328D02*
X199100883Y-186179042D01*
X199100883Y-186179042D02*
X198958026Y-186321900D01*
X198958026Y-186321900D02*
X198815169Y-186393328D01*
X198815169Y-186393328D02*
X198529455Y-186393328D01*
X198529455Y-186393328D02*
X198386598Y-186321900D01*
X198386598Y-186321900D02*
X198243740Y-186179042D01*
X198243740Y-186179042D02*
X198172312Y-185893328D01*
X198172312Y-185893328D02*
X198172312Y-185393328D01*
X198172312Y-185393328D02*
X198243740Y-185107614D01*
X198243740Y-185107614D02*
X198386598Y-184964757D01*
X198386598Y-184964757D02*
X198529455Y-184893328D01*
X200672312Y-186250471D02*
X200600884Y-186321900D01*
X200600884Y-186321900D02*
X200386598Y-186393328D01*
X200386598Y-186393328D02*
X200243741Y-186393328D01*
X200243741Y-186393328D02*
X200029455Y-186321900D01*
X200029455Y-186321900D02*
X199886598Y-186179042D01*
X199886598Y-186179042D02*
X199815169Y-186036185D01*
X199815169Y-186036185D02*
X199743741Y-185750471D01*
X199743741Y-185750471D02*
X199743741Y-185536185D01*
X199743741Y-185536185D02*
X199815169Y-185250471D01*
X199815169Y-185250471D02*
X199886598Y-185107614D01*
X199886598Y-185107614D02*
X200029455Y-184964757D01*
X200029455Y-184964757D02*
X200243741Y-184893328D01*
X200243741Y-184893328D02*
X200386598Y-184893328D01*
X200386598Y-184893328D02*
X200600884Y-184964757D01*
X200600884Y-184964757D02*
X200672312Y-185036185D01*
X201100884Y-184893328D02*
X201958027Y-184893328D01*
X201529455Y-186393328D02*
X201529455Y-184893328D01*
X202386598Y-185964757D02*
X203100884Y-185964757D01*
X202243741Y-186393328D02*
X202743741Y-184893328D01*
X202743741Y-184893328D02*
X203243741Y-186393328D01*
X203529455Y-184893328D02*
X204029455Y-186393328D01*
X204029455Y-186393328D02*
X204529455Y-184893328D01*
X205029454Y-186250471D02*
X205100883Y-186321900D01*
X205100883Y-186321900D02*
X205029454Y-186393328D01*
X205029454Y-186393328D02*
X204958026Y-186321900D01*
X204958026Y-186321900D02*
X205029454Y-186250471D01*
X205029454Y-186250471D02*
X205029454Y-186393328D01*
X205743740Y-186393328D02*
X205743740Y-184893328D01*
X205886598Y-185821900D02*
X206315169Y-186393328D01*
X206315169Y-185393328D02*
X205743740Y-185964757D01*
X206958026Y-186393328D02*
X206958026Y-185393328D01*
X206958026Y-184893328D02*
X206886598Y-184964757D01*
X206886598Y-184964757D02*
X206958026Y-185036185D01*
X206958026Y-185036185D02*
X207029455Y-184964757D01*
X207029455Y-184964757D02*
X206958026Y-184893328D01*
X206958026Y-184893328D02*
X206958026Y-185036185D01*
X208315170Y-186321900D02*
X208172312Y-186393328D01*
X208172312Y-186393328D02*
X207886598Y-186393328D01*
X207886598Y-186393328D02*
X207743741Y-186321900D01*
X207743741Y-186321900D02*
X207672312Y-186250471D01*
X207672312Y-186250471D02*
X207600884Y-186107614D01*
X207600884Y-186107614D02*
X207600884Y-185679042D01*
X207600884Y-185679042D02*
X207672312Y-185536185D01*
X207672312Y-185536185D02*
X207743741Y-185464757D01*
X207743741Y-185464757D02*
X207886598Y-185393328D01*
X207886598Y-185393328D02*
X208172312Y-185393328D01*
X208172312Y-185393328D02*
X208315170Y-185464757D01*
X209600884Y-186393328D02*
X209600884Y-185607614D01*
X209600884Y-185607614D02*
X209529455Y-185464757D01*
X209529455Y-185464757D02*
X209386598Y-185393328D01*
X209386598Y-185393328D02*
X209100884Y-185393328D01*
X209100884Y-185393328D02*
X208958026Y-185464757D01*
X209600884Y-186321900D02*
X209458026Y-186393328D01*
X209458026Y-186393328D02*
X209100884Y-186393328D01*
X209100884Y-186393328D02*
X208958026Y-186321900D01*
X208958026Y-186321900D02*
X208886598Y-186179042D01*
X208886598Y-186179042D02*
X208886598Y-186036185D01*
X208886598Y-186036185D02*
X208958026Y-185893328D01*
X208958026Y-185893328D02*
X209100884Y-185821900D01*
X209100884Y-185821900D02*
X209458026Y-185821900D01*
X209458026Y-185821900D02*
X209600884Y-185750471D01*
X210958027Y-186393328D02*
X210958027Y-184893328D01*
X210958027Y-186321900D02*
X210815169Y-186393328D01*
X210815169Y-186393328D02*
X210529455Y-186393328D01*
X210529455Y-186393328D02*
X210386598Y-186321900D01*
X210386598Y-186321900D02*
X210315169Y-186250471D01*
X210315169Y-186250471D02*
X210243741Y-186107614D01*
X210243741Y-186107614D02*
X210243741Y-185679042D01*
X210243741Y-185679042D02*
X210315169Y-185536185D01*
X210315169Y-185536185D02*
X210386598Y-185464757D01*
X210386598Y-185464757D02*
X210529455Y-185393328D01*
X210529455Y-185393328D02*
X210815169Y-185393328D01*
X210815169Y-185393328D02*
X210958027Y-185464757D01*
X211315170Y-186536185D02*
X212458027Y-186536185D01*
X212815169Y-185393328D02*
X212815169Y-186893328D01*
X212815169Y-185464757D02*
X212958027Y-185393328D01*
X212958027Y-185393328D02*
X213243741Y-185393328D01*
X213243741Y-185393328D02*
X213386598Y-185464757D01*
X213386598Y-185464757D02*
X213458027Y-185536185D01*
X213458027Y-185536185D02*
X213529455Y-185679042D01*
X213529455Y-185679042D02*
X213529455Y-186107614D01*
X213529455Y-186107614D02*
X213458027Y-186250471D01*
X213458027Y-186250471D02*
X213386598Y-186321900D01*
X213386598Y-186321900D02*
X213243741Y-186393328D01*
X213243741Y-186393328D02*
X212958027Y-186393328D01*
X212958027Y-186393328D02*
X212815169Y-186321900D01*
X214815170Y-186321900D02*
X214672312Y-186393328D01*
X214672312Y-186393328D02*
X214386598Y-186393328D01*
X214386598Y-186393328D02*
X214243741Y-186321900D01*
X214243741Y-186321900D02*
X214172312Y-186250471D01*
X214172312Y-186250471D02*
X214100884Y-186107614D01*
X214100884Y-186107614D02*
X214100884Y-185679042D01*
X214100884Y-185679042D02*
X214172312Y-185536185D01*
X214172312Y-185536185D02*
X214243741Y-185464757D01*
X214243741Y-185464757D02*
X214386598Y-185393328D01*
X214386598Y-185393328D02*
X214672312Y-185393328D01*
X214672312Y-185393328D02*
X214815170Y-185464757D01*
X215458026Y-186393328D02*
X215458026Y-184893328D01*
X215458026Y-185464757D02*
X215600884Y-185393328D01*
X215600884Y-185393328D02*
X215886598Y-185393328D01*
X215886598Y-185393328D02*
X216029455Y-185464757D01*
X216029455Y-185464757D02*
X216100884Y-185536185D01*
X216100884Y-185536185D02*
X216172312Y-185679042D01*
X216172312Y-185679042D02*
X216172312Y-186107614D01*
X216172312Y-186107614D02*
X216100884Y-186250471D01*
X216100884Y-186250471D02*
X216029455Y-186321900D01*
X216029455Y-186321900D02*
X215886598Y-186393328D01*
X215886598Y-186393328D02*
X215600884Y-186393328D01*
X215600884Y-186393328D02*
X215458026Y-186321900D01*
D10*
D11*
X177002200Y-181507200D02*
X285002200Y-181507200D01*
D10*
D11*
X178386598Y-183621900D02*
X178600884Y-183693328D01*
X178600884Y-183693328D02*
X178958026Y-183693328D01*
X178958026Y-183693328D02*
X179100884Y-183621900D01*
X179100884Y-183621900D02*
X179172312Y-183550471D01*
X179172312Y-183550471D02*
X179243741Y-183407614D01*
X179243741Y-183407614D02*
X179243741Y-183264757D01*
X179243741Y-183264757D02*
X179172312Y-183121900D01*
X179172312Y-183121900D02*
X179100884Y-183050471D01*
X179100884Y-183050471D02*
X178958026Y-182979042D01*
X178958026Y-182979042D02*
X178672312Y-182907614D01*
X178672312Y-182907614D02*
X178529455Y-182836185D01*
X178529455Y-182836185D02*
X178458026Y-182764757D01*
X178458026Y-182764757D02*
X178386598Y-182621900D01*
X178386598Y-182621900D02*
X178386598Y-182479042D01*
X178386598Y-182479042D02*
X178458026Y-182336185D01*
X178458026Y-182336185D02*
X178529455Y-182264757D01*
X178529455Y-182264757D02*
X178672312Y-182193328D01*
X178672312Y-182193328D02*
X179029455Y-182193328D01*
X179029455Y-182193328D02*
X179243741Y-182264757D01*
X179886597Y-183693328D02*
X179886597Y-182193328D01*
X180529455Y-183693328D02*
X180529455Y-182907614D01*
X180529455Y-182907614D02*
X180458026Y-182764757D01*
X180458026Y-182764757D02*
X180315169Y-182693328D01*
X180315169Y-182693328D02*
X180100883Y-182693328D01*
X180100883Y-182693328D02*
X179958026Y-182764757D01*
X179958026Y-182764757D02*
X179886597Y-182836185D01*
X181815169Y-183621900D02*
X181672312Y-183693328D01*
X181672312Y-183693328D02*
X181386598Y-183693328D01*
X181386598Y-183693328D02*
X181243740Y-183621900D01*
X181243740Y-183621900D02*
X181172312Y-183479042D01*
X181172312Y-183479042D02*
X181172312Y-182907614D01*
X181172312Y-182907614D02*
X181243740Y-182764757D01*
X181243740Y-182764757D02*
X181386598Y-182693328D01*
X181386598Y-182693328D02*
X181672312Y-182693328D01*
X181672312Y-182693328D02*
X181815169Y-182764757D01*
X181815169Y-182764757D02*
X181886598Y-182907614D01*
X181886598Y-182907614D02*
X181886598Y-183050471D01*
X181886598Y-183050471D02*
X181172312Y-183193328D01*
X183100883Y-183621900D02*
X182958026Y-183693328D01*
X182958026Y-183693328D02*
X182672312Y-183693328D01*
X182672312Y-183693328D02*
X182529454Y-183621900D01*
X182529454Y-183621900D02*
X182458026Y-183479042D01*
X182458026Y-183479042D02*
X182458026Y-182907614D01*
X182458026Y-182907614D02*
X182529454Y-182764757D01*
X182529454Y-182764757D02*
X182672312Y-182693328D01*
X182672312Y-182693328D02*
X182958026Y-182693328D01*
X182958026Y-182693328D02*
X183100883Y-182764757D01*
X183100883Y-182764757D02*
X183172312Y-182907614D01*
X183172312Y-182907614D02*
X183172312Y-183050471D01*
X183172312Y-183050471D02*
X182458026Y-183193328D01*
X183600883Y-182693328D02*
X184172311Y-182693328D01*
X183815168Y-182193328D02*
X183815168Y-183479042D01*
X183815168Y-183479042D02*
X183886597Y-183621900D01*
X183886597Y-183621900D02*
X184029454Y-183693328D01*
X184029454Y-183693328D02*
X184172311Y-183693328D01*
X184672311Y-183550471D02*
X184743740Y-183621900D01*
X184743740Y-183621900D02*
X184672311Y-183693328D01*
X184672311Y-183693328D02*
X184600883Y-183621900D01*
X184600883Y-183621900D02*
X184672311Y-183550471D01*
X184672311Y-183550471D02*
X184672311Y-183693328D01*
X184672311Y-182764757D02*
X184743740Y-182836185D01*
X184743740Y-182836185D02*
X184672311Y-182907614D01*
X184672311Y-182907614D02*
X184600883Y-182836185D01*
X184600883Y-182836185D02*
X184672311Y-182764757D01*
X184672311Y-182764757D02*
X184672311Y-182907614D01*
D10*
D11*
X197002200Y-191507200D02*
X197002200Y-194507200D01*
D10*
D11*
X261002200Y-191507200D02*
X261002200Y-198007200D01*
D14*
%TO.N,Net-(U1-VDD)*%
X148400000Y-82300000D03*
X150000000Y-92000000D03*
X142000000Y-93000000D03*
%TO.N,GND*%
X144000000Y-102000000D03*
X189000000Y-95000000D03*
X162600000Y-96500000D03*
X145055807Y-77979091D03*
X181000000Y-75000000D03*
X186000000Y-95000000D03*
X163000000Y-75000000D03*
X147000000Y-102000000D03*
X150900000Y-87500000D03*
X183000000Y-99000000D03*
X141700000Y-90600000D03*
X144600000Y-95400000D03*
X154000000Y-75000000D03*
X183000000Y-79000000D03*
X183000000Y-96000000D03*
X138000000Y-96000000D03*
X144990690Y-74999999D03*
X165000000Y-102000000D03*
X138000000Y-93000000D03*
X148000000Y-75000000D03*
X162600000Y-89940000D03*
X138000000Y-87000000D03*
X183000000Y-102000000D03*
X180000000Y-102000000D03*
X151000000Y-75000000D03*
X178000000Y-75000000D03*
X162000000Y-102000000D03*
X141700000Y-85300000D03*
X157000000Y-75000000D03*
X141000000Y-102000000D03*
X174000000Y-102000000D03*
X190000000Y-87000000D03*
X169000000Y-75000000D03*
X145000000Y-81000000D03*
X139000000Y-82000000D03*
X138000000Y-102000000D03*
X175000000Y-75000000D03*
X156000000Y-102000000D03*
X190000000Y-90000000D03*
X142000000Y-82000000D03*
X186000000Y-82000000D03*
X175262500Y-80700000D03*
X138000000Y-99000000D03*
X160000000Y-75000000D03*
X177000000Y-102000000D03*
X183000000Y-76000000D03*
X171000000Y-102000000D03*
X150000000Y-102000000D03*
X138000000Y-84000000D03*
X190000000Y-84000000D03*
X148300000Y-95500000D03*
X168000000Y-102000000D03*
X166000000Y-75000000D03*
X159000000Y-102000000D03*
X190000000Y-93000000D03*
X138000000Y-90000000D03*
X189000000Y-82000000D03*
X169600000Y-88402401D03*
X153000000Y-102000000D03*
X172000000Y-75000000D03*
X183000000Y-82000000D03*
%TO.N,+5V*%
X162600000Y-78840000D03*
X151000000Y-77800000D03*
X172500000Y-92600000D03*
X169500000Y-86402401D03*
X166162500Y-80700000D03*
%TD*%
%TA.AperFunction,Conductor*%
%TO.N,Net-(U1-VDD)*%
G36*
X144547731Y-80319685D02*
G01*
X144593486Y-80372489D01*
X144603430Y-80441647D01*
X144574405Y-80505203D01*
X144568373Y-80511681D01*
X144494726Y-80585327D01*
X144494723Y-80585331D01*
X144423538Y-80691866D01*
X144423533Y-80691875D01*
X144374499Y-80810255D01*
X144374497Y-80810261D01*
X144349500Y-80935928D01*
X144349500Y-80935931D01*
X144349500Y-81064069D01*
X144349500Y-81064071D01*
X144349499Y-81064071D01*
X144374497Y-81189738D01*
X144374499Y-81189744D01*
X144423533Y-81308124D01*
X144423538Y-81308133D01*
X144494723Y-81414668D01*
X144494726Y-81414672D01*
X144585327Y-81505273D01*
X144585331Y-81505276D01*
X144691866Y-81576461D01*
X144691872Y-81576464D01*
X144691873Y-81576465D01*
X144810256Y-81625501D01*
X144810260Y-81625501D01*
X144810261Y-81625502D01*
X144935928Y-81650500D01*
X144935931Y-81650500D01*
X145064071Y-81650500D01*
X145148615Y-81633682D01*
X145189744Y-81625501D01*
X145308127Y-81576465D01*
X145414669Y-81505276D01*
X145505276Y-81414669D01*
X145576465Y-81308127D01*
X145625501Y-81189744D01*
X145650500Y-81064069D01*
X145650500Y-80935931D01*
X145650500Y-80935928D01*
X145625502Y-80810261D01*
X145625501Y-80810260D01*
X145625501Y-80810256D01*
X145576465Y-80691873D01*
X145576464Y-80691872D01*
X145576461Y-80691866D01*
X145505276Y-80585331D01*
X145505273Y-80585327D01*
X145431627Y-80511681D01*
X145398142Y-80450358D01*
X145403126Y-80380666D01*
X145444998Y-80324733D01*
X145510462Y-80300316D01*
X145519308Y-80300000D01*
X157876531Y-80300000D01*
X157943570Y-80319685D01*
X157989325Y-80372489D01*
X158000529Y-80423467D01*
X158081072Y-99189738D01*
X158098605Y-103274968D01*
X158079208Y-103342091D01*
X158026601Y-103388072D01*
X157974606Y-103399500D01*
X136484500Y-103399500D01*
X136417461Y-103379815D01*
X136371706Y-103327011D01*
X136360500Y-103275500D01*
X136360500Y-102064071D01*
X137349499Y-102064071D01*
X137374497Y-102189738D01*
X137374499Y-102189744D01*
X137423533Y-102308124D01*
X137423538Y-102308133D01*
X137494723Y-102414668D01*
X137494726Y-102414672D01*
X137585327Y-102505273D01*
X137585331Y-102505276D01*
X137691866Y-102576461D01*
X137691872Y-102576464D01*
X137691873Y-102576465D01*
X137810256Y-102625501D01*
X137810260Y-102625501D01*
X137810261Y-102625502D01*
X137935928Y-102650500D01*
X137935931Y-102650500D01*
X138064071Y-102650500D01*
X138148615Y-102633682D01*
X138189744Y-102625501D01*
X138308127Y-102576465D01*
X138414669Y-102505276D01*
X138505276Y-102414669D01*
X138576465Y-102308127D01*
X138625501Y-102189744D01*
X138650500Y-102064071D01*
X140349499Y-102064071D01*
X140374497Y-102189738D01*
X140374499Y-102189744D01*
X140423533Y-102308124D01*
X140423538Y-102308133D01*
X140494723Y-102414668D01*
X140494726Y-102414672D01*
X140585327Y-102505273D01*
X140585331Y-102505276D01*
X140691866Y-102576461D01*
X140691872Y-102576464D01*
X140691873Y-102576465D01*
X140810256Y-102625501D01*
X140810260Y-102625501D01*
X140810261Y-102625502D01*
X140935928Y-102650500D01*
X140935931Y-102650500D01*
X141064071Y-102650500D01*
X141148615Y-102633682D01*
X141189744Y-102625501D01*
X141308127Y-102576465D01*
X141414669Y-102505276D01*
X141505276Y-102414669D01*
X141576465Y-102308127D01*
X141625501Y-102189744D01*
X141650500Y-102064071D01*
X143349499Y-102064071D01*
X143374497Y-102189738D01*
X143374499Y-102189744D01*
X143423533Y-102308124D01*
X143423538Y-102308133D01*
X143494723Y-102414668D01*
X143494726Y-102414672D01*
X143585327Y-102505273D01*
X143585331Y-102505276D01*
X143691866Y-102576461D01*
X143691872Y-102576464D01*
X143691873Y-102576465D01*
X143810256Y-102625501D01*
X143810260Y-102625501D01*
X143810261Y-102625502D01*
X143935928Y-102650500D01*
X143935931Y-102650500D01*
X144064071Y-102650500D01*
X144148615Y-102633682D01*
X144189744Y-102625501D01*
X144308127Y-102576465D01*
X144414669Y-102505276D01*
X144505276Y-102414669D01*
X144576465Y-102308127D01*
X144625501Y-102189744D01*
X144650500Y-102064071D01*
X146349499Y-102064071D01*
X146374497Y-102189738D01*
X146374499Y-102189744D01*
X146423533Y-102308124D01*
X146423538Y-102308133D01*
X146494723Y-102414668D01*
X146494726Y-102414672D01*
X146585327Y-102505273D01*
X146585331Y-102505276D01*
X146691866Y-102576461D01*
X146691872Y-102576464D01*
X146691873Y-102576465D01*
X146810256Y-102625501D01*
X146810260Y-102625501D01*
X146810261Y-102625502D01*
X146935928Y-102650500D01*
X146935931Y-102650500D01*
X147064071Y-102650500D01*
X147148615Y-102633682D01*
X147189744Y-102625501D01*
X147308127Y-102576465D01*
X147414669Y-102505276D01*
X147505276Y-102414669D01*
X147576465Y-102308127D01*
X147625501Y-102189744D01*
X147650500Y-102064071D01*
X149349499Y-102064071D01*
X149374497Y-102189738D01*
X149374499Y-102189744D01*
X149423533Y-102308124D01*
X149423538Y-102308133D01*
X149494723Y-102414668D01*
X149494726Y-102414672D01*
X149585327Y-102505273D01*
X149585331Y-102505276D01*
X149691866Y-102576461D01*
X149691872Y-102576464D01*
X149691873Y-102576465D01*
X149810256Y-102625501D01*
X149810260Y-102625501D01*
X149810261Y-102625502D01*
X149935928Y-102650500D01*
X149935931Y-102650500D01*
X150064071Y-102650500D01*
X150148615Y-102633682D01*
X150189744Y-102625501D01*
X150308127Y-102576465D01*
X150414669Y-102505276D01*
X150505276Y-102414669D01*
X150576465Y-102308127D01*
X150625501Y-102189744D01*
X150650500Y-102064071D01*
X152349499Y-102064071D01*
X152374497Y-102189738D01*
X152374499Y-102189744D01*
X152423533Y-102308124D01*
X152423538Y-102308133D01*
X152494723Y-102414668D01*
X152494726Y-102414672D01*
X152585327Y-102505273D01*
X152585331Y-102505276D01*
X152691866Y-102576461D01*
X152691872Y-102576464D01*
X152691873Y-102576465D01*
X152810256Y-102625501D01*
X152810260Y-102625501D01*
X152810261Y-102625502D01*
X152935928Y-102650500D01*
X152935931Y-102650500D01*
X153064071Y-102650500D01*
X153148615Y-102633682D01*
X153189744Y-102625501D01*
X153308127Y-102576465D01*
X153414669Y-102505276D01*
X153505276Y-102414669D01*
X153576465Y-102308127D01*
X153625501Y-102189744D01*
X153650500Y-102064071D01*
X155349499Y-102064071D01*
X155374497Y-102189738D01*
X155374499Y-102189744D01*
X155423533Y-102308124D01*
X155423538Y-102308133D01*
X155494723Y-102414668D01*
X155494726Y-102414672D01*
X155585327Y-102505273D01*
X155585331Y-102505276D01*
X155691866Y-102576461D01*
X155691872Y-102576464D01*
X155691873Y-102576465D01*
X155810256Y-102625501D01*
X155810260Y-102625501D01*
X155810261Y-102625502D01*
X155935928Y-102650500D01*
X155935931Y-102650500D01*
X156064071Y-102650500D01*
X156148615Y-102633682D01*
X156189744Y-102625501D01*
X156308127Y-102576465D01*
X156414669Y-102505276D01*
X156505276Y-102414669D01*
X156576465Y-102308127D01*
X156625501Y-102189744D01*
X156650500Y-102064069D01*
X156650500Y-101935931D01*
X156650500Y-101935928D01*
X156625502Y-101810261D01*
X156625501Y-101810260D01*
X156625501Y-101810256D01*
X156576465Y-101691873D01*
X156576464Y-101691872D01*
X156576461Y-101691866D01*
X156505276Y-101585331D01*
X156505273Y-101585327D01*
X156414672Y-101494726D01*
X156414668Y-101494723D01*
X156308133Y-101423538D01*
X156308124Y-101423533D01*
X156189744Y-101374499D01*
X156189738Y-101374497D01*
X156064071Y-101349500D01*
X156064069Y-101349500D01*
X155935931Y-101349500D01*
X155935929Y-101349500D01*
X155810261Y-101374497D01*
X155810255Y-101374499D01*
X155691875Y-101423533D01*
X155691866Y-101423538D01*
X155585331Y-101494723D01*
X155585327Y-101494726D01*
X155494726Y-101585327D01*
X155494723Y-101585331D01*
X155423538Y-101691866D01*
X155423533Y-101691875D01*
X155374499Y-101810255D01*
X155374497Y-101810261D01*
X155349500Y-101935928D01*
X155349500Y-101935931D01*
X155349500Y-102064069D01*
X155349500Y-102064071D01*
X155349499Y-102064071D01*
X153650500Y-102064071D01*
X153650500Y-102064069D01*
X153650500Y-101935931D01*
X153650500Y-101935928D01*
X153625502Y-101810261D01*
X153625501Y-101810260D01*
X153625501Y-101810256D01*
X153576465Y-101691873D01*
X153576464Y-101691872D01*
X153576461Y-101691866D01*
X153505276Y-101585331D01*
X153505273Y-101585327D01*
X153414672Y-101494726D01*
X153414668Y-101494723D01*
X153308133Y-101423538D01*
X153308124Y-101423533D01*
X153189744Y-101374499D01*
X153189738Y-101374497D01*
X153064071Y-101349500D01*
X153064069Y-101349500D01*
X152935931Y-101349500D01*
X152935929Y-101349500D01*
X152810261Y-101374497D01*
X152810255Y-101374499D01*
X152691875Y-101423533D01*
X152691866Y-101423538D01*
X152585331Y-101494723D01*
X152585327Y-101494726D01*
X152494726Y-101585327D01*
X152494723Y-101585331D01*
X152423538Y-101691866D01*
X152423533Y-101691875D01*
X152374499Y-101810255D01*
X152374497Y-101810261D01*
X152349500Y-101935928D01*
X152349500Y-101935931D01*
X152349500Y-102064069D01*
X152349500Y-102064071D01*
X152349499Y-102064071D01*
X150650500Y-102064071D01*
X150650500Y-102064069D01*
X150650500Y-101935931D01*
X150650500Y-101935928D01*
X150625502Y-101810261D01*
X150625501Y-101810260D01*
X150625501Y-101810256D01*
X150576465Y-101691873D01*
X150576464Y-101691872D01*
X150576461Y-101691866D01*
X150505276Y-101585331D01*
X150505273Y-101585327D01*
X150414672Y-101494726D01*
X150414668Y-101494723D01*
X150308133Y-101423538D01*
X150308124Y-101423533D01*
X150189744Y-101374499D01*
X150189738Y-101374497D01*
X150064071Y-101349500D01*
X150064069Y-101349500D01*
X149935931Y-101349500D01*
X149935929Y-101349500D01*
X149810261Y-101374497D01*
X149810255Y-101374499D01*
X149691875Y-101423533D01*
X149691866Y-101423538D01*
X149585331Y-101494723D01*
X149585327Y-101494726D01*
X149494726Y-101585327D01*
X149494723Y-101585331D01*
X149423538Y-101691866D01*
X149423533Y-101691875D01*
X149374499Y-101810255D01*
X149374497Y-101810261D01*
X149349500Y-101935928D01*
X149349500Y-101935931D01*
X149349500Y-102064069D01*
X149349500Y-102064071D01*
X149349499Y-102064071D01*
X147650500Y-102064071D01*
X147650500Y-102064069D01*
X147650500Y-101935931D01*
X147650500Y-101935928D01*
X147625502Y-101810261D01*
X147625501Y-101810260D01*
X147625501Y-101810256D01*
X147576465Y-101691873D01*
X147576464Y-101691872D01*
X147576461Y-101691866D01*
X147505276Y-101585331D01*
X147505273Y-101585327D01*
X147414672Y-101494726D01*
X147414668Y-101494723D01*
X147308133Y-101423538D01*
X147308124Y-101423533D01*
X147189744Y-101374499D01*
X147189738Y-101374497D01*
X147064071Y-101349500D01*
X147064069Y-101349500D01*
X146935931Y-101349500D01*
X146935929Y-101349500D01*
X146810261Y-101374497D01*
X146810255Y-101374499D01*
X146691875Y-101423533D01*
X146691866Y-101423538D01*
X146585331Y-101494723D01*
X146585327Y-101494726D01*
X146494726Y-101585327D01*
X146494723Y-101585331D01*
X146423538Y-101691866D01*
X146423533Y-101691875D01*
X146374499Y-101810255D01*
X146374497Y-101810261D01*
X146349500Y-101935928D01*
X146349500Y-101935931D01*
X146349500Y-102064069D01*
X146349500Y-102064071D01*
X146349499Y-102064071D01*
X144650500Y-102064071D01*
X144650500Y-102064069D01*
X144650500Y-101935931D01*
X144650500Y-101935928D01*
X144625502Y-101810261D01*
X144625501Y-101810260D01*
X144625501Y-101810256D01*
X144576465Y-101691873D01*
X144576464Y-101691872D01*
X144576461Y-101691866D01*
X144505276Y-101585331D01*
X144505273Y-101585327D01*
X144414672Y-101494726D01*
X144414668Y-101494723D01*
X144308133Y-101423538D01*
X144308124Y-101423533D01*
X144189744Y-101374499D01*
X144189738Y-101374497D01*
X144064071Y-101349500D01*
X144064069Y-101349500D01*
X143935931Y-101349500D01*
X143935929Y-101349500D01*
X143810261Y-101374497D01*
X143810255Y-101374499D01*
X143691875Y-101423533D01*
X143691866Y-101423538D01*
X143585331Y-101494723D01*
X143585327Y-101494726D01*
X143494726Y-101585327D01*
X143494723Y-101585331D01*
X143423538Y-101691866D01*
X143423533Y-101691875D01*
X143374499Y-101810255D01*
X143374497Y-101810261D01*
X143349500Y-101935928D01*
X143349500Y-101935931D01*
X143349500Y-102064069D01*
X143349500Y-102064071D01*
X143349499Y-102064071D01*
X141650500Y-102064071D01*
X141650500Y-102064069D01*
X141650500Y-101935931D01*
X141650500Y-101935928D01*
X141625502Y-101810261D01*
X141625501Y-101810260D01*
X141625501Y-101810256D01*
X141576465Y-101691873D01*
X141576464Y-101691872D01*
X141576461Y-101691866D01*
X141505276Y-101585331D01*
X141505273Y-101585327D01*
X141414672Y-101494726D01*
X141414668Y-101494723D01*
X141308133Y-101423538D01*
X141308124Y-101423533D01*
X141189744Y-101374499D01*
X141189738Y-101374497D01*
X141064071Y-101349500D01*
X141064069Y-101349500D01*
X140935931Y-101349500D01*
X140935929Y-101349500D01*
X140810261Y-101374497D01*
X140810255Y-101374499D01*
X140691875Y-101423533D01*
X140691866Y-101423538D01*
X140585331Y-101494723D01*
X140585327Y-101494726D01*
X140494726Y-101585327D01*
X140494723Y-101585331D01*
X140423538Y-101691866D01*
X140423533Y-101691875D01*
X140374499Y-101810255D01*
X140374497Y-101810261D01*
X140349500Y-101935928D01*
X140349500Y-101935931D01*
X140349500Y-102064069D01*
X140349500Y-102064071D01*
X140349499Y-102064071D01*
X138650500Y-102064071D01*
X138650500Y-102064069D01*
X138650500Y-101935931D01*
X138650500Y-101935928D01*
X138625502Y-101810261D01*
X138625501Y-101810260D01*
X138625501Y-101810256D01*
X138576465Y-101691873D01*
X138576464Y-101691872D01*
X138576461Y-101691866D01*
X138505276Y-101585331D01*
X138505273Y-101585327D01*
X138414672Y-101494726D01*
X138414668Y-101494723D01*
X138308133Y-101423538D01*
X138308124Y-101423533D01*
X138189744Y-101374499D01*
X138189738Y-101374497D01*
X138064071Y-101349500D01*
X138064069Y-101349500D01*
X137935931Y-101349500D01*
X137935929Y-101349500D01*
X137810261Y-101374497D01*
X137810255Y-101374499D01*
X137691875Y-101423533D01*
X137691866Y-101423538D01*
X137585331Y-101494723D01*
X137585327Y-101494726D01*
X137494726Y-101585327D01*
X137494723Y-101585331D01*
X137423538Y-101691866D01*
X137423533Y-101691875D01*
X137374499Y-101810255D01*
X137374497Y-101810261D01*
X137349500Y-101935928D01*
X137349500Y-101935931D01*
X137349500Y-102064069D01*
X137349500Y-102064071D01*
X137349499Y-102064071D01*
X136360500Y-102064071D01*
X136360500Y-99064071D01*
X137349499Y-99064071D01*
X137374497Y-99189738D01*
X137374499Y-99189744D01*
X137423533Y-99308124D01*
X137423538Y-99308133D01*
X137494723Y-99414668D01*
X137494726Y-99414672D01*
X137585327Y-99505273D01*
X137585331Y-99505276D01*
X137691866Y-99576461D01*
X137691872Y-99576464D01*
X137691873Y-99576465D01*
X137810256Y-99625501D01*
X137810260Y-99625501D01*
X137810261Y-99625502D01*
X137935928Y-99650500D01*
X137935931Y-99650500D01*
X138064071Y-99650500D01*
X138148615Y-99633682D01*
X138189744Y-99625501D01*
X138308127Y-99576465D01*
X138414669Y-99505276D01*
X138505276Y-99414669D01*
X138576465Y-99308127D01*
X138625501Y-99189744D01*
X138650500Y-99064069D01*
X138650500Y-98935931D01*
X138650500Y-98935928D01*
X138625502Y-98810261D01*
X138625501Y-98810260D01*
X138625501Y-98810256D01*
X138576465Y-98691873D01*
X138576464Y-98691872D01*
X138576461Y-98691866D01*
X138505276Y-98585331D01*
X138505273Y-98585327D01*
X138414672Y-98494726D01*
X138414668Y-98494723D01*
X138308133Y-98423538D01*
X138308124Y-98423533D01*
X138189744Y-98374499D01*
X138189738Y-98374497D01*
X138064071Y-98349500D01*
X138064069Y-98349500D01*
X137935931Y-98349500D01*
X137935929Y-98349500D01*
X137810261Y-98374497D01*
X137810255Y-98374499D01*
X137691875Y-98423533D01*
X137691866Y-98423538D01*
X137585331Y-98494723D01*
X137585327Y-98494726D01*
X137494726Y-98585327D01*
X137494723Y-98585331D01*
X137423538Y-98691866D01*
X137423533Y-98691875D01*
X137374499Y-98810255D01*
X137374497Y-98810261D01*
X137349500Y-98935928D01*
X137349500Y-98935931D01*
X137349500Y-99064069D01*
X137349500Y-99064071D01*
X137349499Y-99064071D01*
X136360500Y-99064071D01*
X136360500Y-96064071D01*
X137349499Y-96064071D01*
X137374497Y-96189738D01*
X137374499Y-96189744D01*
X137423533Y-96308124D01*
X137423538Y-96308133D01*
X137494723Y-96414668D01*
X137494726Y-96414672D01*
X137585327Y-96505273D01*
X137585331Y-96505276D01*
X137691866Y-96576461D01*
X137691872Y-96576464D01*
X137691873Y-96576465D01*
X137810256Y-96625501D01*
X137810260Y-96625501D01*
X137810261Y-96625502D01*
X137935928Y-96650500D01*
X137935931Y-96650500D01*
X138064071Y-96650500D01*
X138148615Y-96633682D01*
X138189744Y-96625501D01*
X138308127Y-96576465D01*
X138414669Y-96505276D01*
X138505276Y-96414669D01*
X138576465Y-96308127D01*
X138625501Y-96189744D01*
X138648034Y-96076466D01*
X138650500Y-96064071D01*
X138650500Y-95935928D01*
X138625502Y-95810261D01*
X138625501Y-95810260D01*
X138625501Y-95810256D01*
X138576465Y-95691873D01*
X138576464Y-95691872D01*
X138576461Y-95691866D01*
X138505276Y-95585331D01*
X138505273Y-95585327D01*
X138414672Y-95494726D01*
X138414668Y-95494723D01*
X138368794Y-95464071D01*
X143949499Y-95464071D01*
X143974497Y-95589738D01*
X143974499Y-95589744D01*
X144023533Y-95708124D01*
X144023538Y-95708133D01*
X144094723Y-95814668D01*
X144094726Y-95814672D01*
X144185327Y-95905273D01*
X144185331Y-95905276D01*
X144291866Y-95976461D01*
X144291872Y-95976464D01*
X144291873Y-95976465D01*
X144410256Y-96025501D01*
X144410260Y-96025501D01*
X144410261Y-96025502D01*
X144535928Y-96050500D01*
X144535931Y-96050500D01*
X144664071Y-96050500D01*
X144748615Y-96033682D01*
X144789744Y-96025501D01*
X144908127Y-95976465D01*
X145014669Y-95905276D01*
X145105276Y-95814669D01*
X145176465Y-95708127D01*
X145225501Y-95589744D01*
X145230608Y-95564071D01*
X147649499Y-95564071D01*
X147674497Y-95689738D01*
X147674499Y-95689744D01*
X147723533Y-95808124D01*
X147723538Y-95808133D01*
X147794723Y-95914668D01*
X147794726Y-95914672D01*
X147885327Y-96005273D01*
X147885331Y-96005276D01*
X147991866Y-96076461D01*
X147991872Y-96076464D01*
X147991873Y-96076465D01*
X148110256Y-96125501D01*
X148110260Y-96125501D01*
X148110261Y-96125502D01*
X148235928Y-96150500D01*
X148235931Y-96150500D01*
X148364071Y-96150500D01*
X148448615Y-96133682D01*
X148489744Y-96125501D01*
X148608127Y-96076465D01*
X148714669Y-96005276D01*
X148805276Y-95914669D01*
X148876465Y-95808127D01*
X148925501Y-95689744D01*
X148946271Y-95585331D01*
X148950500Y-95564071D01*
X148950500Y-95435928D01*
X148925502Y-95310261D01*
X148925501Y-95310260D01*
X148925501Y-95310256D01*
X148876465Y-95191873D01*
X148876464Y-95191872D01*
X148876461Y-95191866D01*
X148805276Y-95085331D01*
X148805273Y-95085327D01*
X148714672Y-94994726D01*
X148714668Y-94994723D01*
X148608133Y-94923538D01*
X148608124Y-94923533D01*
X148489744Y-94874499D01*
X148489738Y-94874497D01*
X148364071Y-94849500D01*
X148364069Y-94849500D01*
X148235931Y-94849500D01*
X148235929Y-94849500D01*
X148110261Y-94874497D01*
X148110255Y-94874499D01*
X147991875Y-94923533D01*
X147991866Y-94923538D01*
X147885331Y-94994723D01*
X147885327Y-94994726D01*
X147794726Y-95085327D01*
X147794723Y-95085331D01*
X147723538Y-95191866D01*
X147723533Y-95191875D01*
X147674499Y-95310255D01*
X147674497Y-95310261D01*
X147649500Y-95435928D01*
X147649500Y-95435931D01*
X147649500Y-95564069D01*
X147649500Y-95564071D01*
X147649499Y-95564071D01*
X145230608Y-95564071D01*
X145244402Y-95494724D01*
X145250500Y-95464071D01*
X145250500Y-95335928D01*
X145225502Y-95210261D01*
X145225501Y-95210260D01*
X145225501Y-95210256D01*
X145176465Y-95091873D01*
X145176464Y-95091872D01*
X145176461Y-95091866D01*
X145105276Y-94985331D01*
X145105273Y-94985327D01*
X145014672Y-94894726D01*
X145014668Y-94894723D01*
X144908133Y-94823538D01*
X144908124Y-94823533D01*
X144789744Y-94774499D01*
X144789738Y-94774497D01*
X144664071Y-94749500D01*
X144664069Y-94749500D01*
X144535931Y-94749500D01*
X144535929Y-94749500D01*
X144410261Y-94774497D01*
X144410255Y-94774499D01*
X144291875Y-94823533D01*
X144291866Y-94823538D01*
X144185331Y-94894723D01*
X144185327Y-94894726D01*
X144094726Y-94985327D01*
X144094723Y-94985331D01*
X144023538Y-95091866D01*
X144023533Y-95091875D01*
X143974499Y-95210255D01*
X143974497Y-95210261D01*
X143949500Y-95335928D01*
X143949500Y-95335931D01*
X143949500Y-95464069D01*
X143949500Y-95464071D01*
X143949499Y-95464071D01*
X138368794Y-95464071D01*
X138322205Y-95432941D01*
X138308133Y-95423538D01*
X138308124Y-95423533D01*
X138189744Y-95374499D01*
X138189738Y-95374497D01*
X138064071Y-95349500D01*
X138064069Y-95349500D01*
X137935931Y-95349500D01*
X137935929Y-95349500D01*
X137810261Y-95374497D01*
X137810255Y-95374499D01*
X137691875Y-95423533D01*
X137691866Y-95423538D01*
X137585331Y-95494723D01*
X137585327Y-95494726D01*
X137494726Y-95585327D01*
X137494723Y-95585331D01*
X137423538Y-95691866D01*
X137423533Y-95691875D01*
X137374499Y-95810255D01*
X137374497Y-95810261D01*
X137349500Y-95935928D01*
X137349500Y-95935931D01*
X137349500Y-96064069D01*
X137349500Y-96064071D01*
X137349499Y-96064071D01*
X136360500Y-96064071D01*
X136360500Y-93064071D01*
X137349499Y-93064071D01*
X137374497Y-93189738D01*
X137374499Y-93189744D01*
X137423533Y-93308124D01*
X137423538Y-93308133D01*
X137494723Y-93414668D01*
X137494726Y-93414672D01*
X137585327Y-93505273D01*
X137585331Y-93505276D01*
X137691866Y-93576461D01*
X137691872Y-93576464D01*
X137691873Y-93576465D01*
X137810256Y-93625501D01*
X137810260Y-93625501D01*
X137810261Y-93625502D01*
X137935928Y-93650500D01*
X137935931Y-93650500D01*
X138064071Y-93650500D01*
X138148615Y-93633682D01*
X138189744Y-93625501D01*
X138308127Y-93576465D01*
X138414669Y-93505276D01*
X138505276Y-93414669D01*
X138576465Y-93308127D01*
X138625501Y-93189744D01*
X138650500Y-93064069D01*
X138650500Y-92935931D01*
X138650500Y-92935928D01*
X138625502Y-92810261D01*
X138625501Y-92810260D01*
X138625501Y-92810256D01*
X138576465Y-92691873D01*
X138576464Y-92691872D01*
X138576461Y-92691866D01*
X138505276Y-92585331D01*
X138505273Y-92585327D01*
X138414672Y-92494726D01*
X138414668Y-92494723D01*
X138308133Y-92423538D01*
X138308124Y-92423533D01*
X138189744Y-92374499D01*
X138189738Y-92374497D01*
X138064071Y-92349500D01*
X138064069Y-92349500D01*
X137935931Y-92349500D01*
X137935929Y-92349500D01*
X137810261Y-92374497D01*
X137810255Y-92374499D01*
X137691875Y-92423533D01*
X137691866Y-92423538D01*
X137585331Y-92494723D01*
X137585327Y-92494726D01*
X137494726Y-92585327D01*
X137494723Y-92585331D01*
X137423538Y-92691866D01*
X137423533Y-92691875D01*
X137374499Y-92810255D01*
X137374497Y-92810261D01*
X137349500Y-92935928D01*
X137349500Y-92935931D01*
X137349500Y-93064069D01*
X137349500Y-93064071D01*
X137349499Y-93064071D01*
X136360500Y-93064071D01*
X136360500Y-90664071D01*
X141049499Y-90664071D01*
X141074497Y-90789738D01*
X141074499Y-90789744D01*
X141123533Y-90908124D01*
X141123538Y-90908133D01*
X141194723Y-91014668D01*
X141194726Y-91014672D01*
X141285327Y-91105273D01*
X141285331Y-91105276D01*
X141391866Y-91176461D01*
X141391872Y-91176464D01*
X141391873Y-91176465D01*
X141510256Y-91225501D01*
X141510260Y-91225501D01*
X141510261Y-91225502D01*
X141635928Y-91250500D01*
X141635931Y-91250500D01*
X141764071Y-91250500D01*
X141848615Y-91233682D01*
X141889744Y-91225501D01*
X142008127Y-91176465D01*
X142114669Y-91105276D01*
X142205276Y-91014669D01*
X142276465Y-90908127D01*
X142325501Y-90789744D01*
X142350500Y-90664069D01*
X142350500Y-90535931D01*
X142350500Y-90535928D01*
X142325502Y-90410261D01*
X142325501Y-90410260D01*
X142325501Y-90410256D01*
X142276465Y-90291873D01*
X142276464Y-90291872D01*
X142276461Y-90291866D01*
X142205276Y-90185331D01*
X142205273Y-90185327D01*
X142114672Y-90094726D01*
X142114668Y-90094723D01*
X142008133Y-90023538D01*
X142008124Y-90023533D01*
X141889744Y-89974499D01*
X141889738Y-89974497D01*
X141764071Y-89949500D01*
X141764069Y-89949500D01*
X141635931Y-89949500D01*
X141635929Y-89949500D01*
X141510261Y-89974497D01*
X141510255Y-89974499D01*
X141391875Y-90023533D01*
X141391866Y-90023538D01*
X141285331Y-90094723D01*
X141285327Y-90094726D01*
X141194726Y-90185327D01*
X141194723Y-90185331D01*
X141123538Y-90291866D01*
X141123533Y-90291875D01*
X141074499Y-90410255D01*
X141074497Y-90410261D01*
X141049500Y-90535928D01*
X141049500Y-90535931D01*
X141049500Y-90664069D01*
X141049500Y-90664071D01*
X141049499Y-90664071D01*
X136360500Y-90664071D01*
X136360500Y-90064071D01*
X137349499Y-90064071D01*
X137374497Y-90189738D01*
X137374499Y-90189744D01*
X137423533Y-90308124D01*
X137423538Y-90308133D01*
X137494723Y-90414668D01*
X137494726Y-90414672D01*
X137585327Y-90505273D01*
X137585331Y-90505276D01*
X137691866Y-90576461D01*
X137691872Y-90576464D01*
X137691873Y-90576465D01*
X137810256Y-90625501D01*
X137810260Y-90625501D01*
X137810261Y-90625502D01*
X137935928Y-90650500D01*
X137935931Y-90650500D01*
X138064071Y-90650500D01*
X138148615Y-90633682D01*
X138189744Y-90625501D01*
X138308127Y-90576465D01*
X138414669Y-90505276D01*
X138414672Y-90505273D01*
X138477788Y-90442158D01*
X138505273Y-90414672D01*
X138505276Y-90414669D01*
X138576465Y-90308127D01*
X138625501Y-90189744D01*
X138644402Y-90094724D01*
X138650500Y-90064071D01*
X138650500Y-89935928D01*
X138625502Y-89810261D01*
X138625501Y-89810260D01*
X138625501Y-89810256D01*
X138576465Y-89691873D01*
X138576464Y-89691872D01*
X138576461Y-89691866D01*
X138505276Y-89585331D01*
X138505273Y-89585327D01*
X138414672Y-89494726D01*
X138414668Y-89494723D01*
X138308133Y-89423538D01*
X138308124Y-89423533D01*
X138189744Y-89374499D01*
X138189738Y-89374497D01*
X138064071Y-89349500D01*
X138064069Y-89349500D01*
X137935931Y-89349500D01*
X137935929Y-89349500D01*
X137810261Y-89374497D01*
X137810255Y-89374499D01*
X137691875Y-89423533D01*
X137691866Y-89423538D01*
X137585331Y-89494723D01*
X137585327Y-89494726D01*
X137494726Y-89585327D01*
X137494723Y-89585331D01*
X137423538Y-89691866D01*
X137423533Y-89691875D01*
X137374499Y-89810255D01*
X137374497Y-89810261D01*
X137349500Y-89935928D01*
X137349500Y-89935931D01*
X137349500Y-90064069D01*
X137349500Y-90064071D01*
X137349499Y-90064071D01*
X136360500Y-90064071D01*
X136360500Y-87934108D01*
X139989500Y-87934108D01*
X139989500Y-88065891D01*
X140023608Y-88193187D01*
X140056554Y-88250250D01*
X140089500Y-88307314D01*
X140182686Y-88400500D01*
X140296814Y-88466392D01*
X140424108Y-88500500D01*
X140424110Y-88500500D01*
X140555890Y-88500500D01*
X140555892Y-88500500D01*
X140683186Y-88466392D01*
X140797314Y-88400500D01*
X140890500Y-88307314D01*
X140956392Y-88193186D01*
X140990500Y-88065892D01*
X140990500Y-87934108D01*
X140956392Y-87806814D01*
X140890500Y-87692686D01*
X140797314Y-87599500D01*
X140735950Y-87564071D01*
X150249499Y-87564071D01*
X150274497Y-87689738D01*
X150274499Y-87689744D01*
X150323533Y-87808124D01*
X150323538Y-87808133D01*
X150394723Y-87914668D01*
X150394726Y-87914672D01*
X150485327Y-88005273D01*
X150485331Y-88005276D01*
X150591866Y-88076461D01*
X150591872Y-88076464D01*
X150591873Y-88076465D01*
X150710256Y-88125501D01*
X150710260Y-88125501D01*
X150710261Y-88125502D01*
X150835928Y-88150500D01*
X150835931Y-88150500D01*
X150964071Y-88150500D01*
X151048615Y-88133682D01*
X151089744Y-88125501D01*
X151208127Y-88076465D01*
X151314669Y-88005276D01*
X151405276Y-87914669D01*
X151476465Y-87808127D01*
X151525501Y-87689744D01*
X151548034Y-87576466D01*
X151550500Y-87564071D01*
X151550500Y-87435928D01*
X151525502Y-87310261D01*
X151525501Y-87310260D01*
X151525501Y-87310256D01*
X151476465Y-87191873D01*
X151476464Y-87191872D01*
X151476461Y-87191866D01*
X151405276Y-87085331D01*
X151405273Y-87085327D01*
X151314672Y-86994726D01*
X151314668Y-86994723D01*
X151208133Y-86923538D01*
X151208124Y-86923533D01*
X151089744Y-86874499D01*
X151089738Y-86874497D01*
X150964071Y-86849500D01*
X150964069Y-86849500D01*
X150835931Y-86849500D01*
X150835929Y-86849500D01*
X150710261Y-86874497D01*
X150710255Y-86874499D01*
X150591875Y-86923533D01*
X150591866Y-86923538D01*
X150485331Y-86994723D01*
X150485327Y-86994726D01*
X150394726Y-87085327D01*
X150394723Y-87085331D01*
X150323538Y-87191866D01*
X150323533Y-87191875D01*
X150274499Y-87310255D01*
X150274497Y-87310261D01*
X150249500Y-87435928D01*
X150249500Y-87435931D01*
X150249500Y-87564069D01*
X150249500Y-87564071D01*
X150249499Y-87564071D01*
X140735950Y-87564071D01*
X140689453Y-87537226D01*
X140689452Y-87537225D01*
X140689451Y-87537225D01*
X140683188Y-87533608D01*
X140598323Y-87510869D01*
X140555892Y-87499500D01*
X140424108Y-87499500D01*
X140296812Y-87533608D01*
X140182686Y-87599500D01*
X140182683Y-87599502D01*
X140089502Y-87692683D01*
X140089500Y-87692686D01*
X140023608Y-87806812D01*
X139989500Y-87934108D01*
X136360500Y-87934108D01*
X136360500Y-87064071D01*
X137349499Y-87064071D01*
X137374497Y-87189738D01*
X137374499Y-87189744D01*
X137423533Y-87308124D01*
X137423538Y-87308133D01*
X137494723Y-87414668D01*
X137494726Y-87414672D01*
X137585327Y-87505273D01*
X137585331Y-87505276D01*
X137691866Y-87576461D01*
X137691872Y-87576464D01*
X137691873Y-87576465D01*
X137810256Y-87625501D01*
X137810260Y-87625501D01*
X137810261Y-87625502D01*
X137935928Y-87650500D01*
X137935931Y-87650500D01*
X138064071Y-87650500D01*
X138148615Y-87633682D01*
X138189744Y-87625501D01*
X138308127Y-87576465D01*
X138414669Y-87505276D01*
X138505276Y-87414669D01*
X138576465Y-87308127D01*
X138625501Y-87189744D01*
X138646271Y-87085331D01*
X138650500Y-87064071D01*
X138650500Y-86935928D01*
X138625502Y-86810261D01*
X138625501Y-86810260D01*
X138625501Y-86810256D01*
X138576465Y-86691873D01*
X138576464Y-86691872D01*
X138576461Y-86691866D01*
X138505276Y-86585331D01*
X138505273Y-86585327D01*
X138414672Y-86494726D01*
X138414668Y-86494723D01*
X138308133Y-86423538D01*
X138308124Y-86423533D01*
X138189744Y-86374499D01*
X138189738Y-86374497D01*
X138064071Y-86349500D01*
X138064069Y-86349500D01*
X137935931Y-86349500D01*
X137935929Y-86349500D01*
X137810261Y-86374497D01*
X137810255Y-86374499D01*
X137691875Y-86423533D01*
X137691866Y-86423538D01*
X137585331Y-86494723D01*
X137585327Y-86494726D01*
X137494726Y-86585327D01*
X137494723Y-86585331D01*
X137423538Y-86691866D01*
X137423533Y-86691875D01*
X137374499Y-86810255D01*
X137374497Y-86810261D01*
X137349500Y-86935928D01*
X137349500Y-86935931D01*
X137349500Y-87064069D01*
X137349500Y-87064071D01*
X137349499Y-87064071D01*
X136360500Y-87064071D01*
X136360500Y-85364071D01*
X141049499Y-85364071D01*
X141074497Y-85489738D01*
X141074499Y-85489744D01*
X141123533Y-85608124D01*
X141123538Y-85608133D01*
X141194723Y-85714668D01*
X141194726Y-85714672D01*
X141285327Y-85805273D01*
X141285331Y-85805276D01*
X141391866Y-85876461D01*
X141391872Y-85876464D01*
X141391873Y-85876465D01*
X141510256Y-85925501D01*
X141510260Y-85925501D01*
X141510261Y-85925502D01*
X141635928Y-85950500D01*
X141635931Y-85950500D01*
X141764071Y-85950500D01*
X141848615Y-85933682D01*
X141889744Y-85925501D01*
X142008127Y-85876465D01*
X142114669Y-85805276D01*
X142205276Y-85714669D01*
X142276465Y-85608127D01*
X142325501Y-85489744D01*
X142350500Y-85364069D01*
X142350500Y-85235931D01*
X142350500Y-85235928D01*
X142325502Y-85110261D01*
X142325501Y-85110260D01*
X142325501Y-85110256D01*
X142276465Y-84991873D01*
X142276464Y-84991872D01*
X142276461Y-84991866D01*
X142205276Y-84885331D01*
X142205273Y-84885327D01*
X142114672Y-84794726D01*
X142114668Y-84794723D01*
X142008133Y-84723538D01*
X142008124Y-84723533D01*
X141889744Y-84674499D01*
X141889738Y-84674497D01*
X141764071Y-84649500D01*
X141764069Y-84649500D01*
X141635931Y-84649500D01*
X141635929Y-84649500D01*
X141510261Y-84674497D01*
X141510255Y-84674499D01*
X141391875Y-84723533D01*
X141391866Y-84723538D01*
X141285331Y-84794723D01*
X141285327Y-84794726D01*
X141194726Y-84885327D01*
X141194723Y-84885331D01*
X141123538Y-84991866D01*
X141123533Y-84991875D01*
X141074499Y-85110255D01*
X141074497Y-85110261D01*
X141049500Y-85235928D01*
X141049500Y-85235931D01*
X141049500Y-85364069D01*
X141049500Y-85364071D01*
X141049499Y-85364071D01*
X136360500Y-85364071D01*
X136360500Y-84064071D01*
X137349499Y-84064071D01*
X137374497Y-84189738D01*
X137374499Y-84189744D01*
X137423533Y-84308124D01*
X137423538Y-84308133D01*
X137494723Y-84414668D01*
X137494726Y-84414672D01*
X137585327Y-84505273D01*
X137585331Y-84505276D01*
X137691866Y-84576461D01*
X137691872Y-84576464D01*
X137691873Y-84576465D01*
X137810256Y-84625501D01*
X137810260Y-84625501D01*
X137810261Y-84625502D01*
X137935928Y-84650500D01*
X137935931Y-84650500D01*
X138064071Y-84650500D01*
X138148615Y-84633682D01*
X138189744Y-84625501D01*
X138308127Y-84576465D01*
X138414669Y-84505276D01*
X138505276Y-84414669D01*
X138576465Y-84308127D01*
X138625501Y-84189744D01*
X138650500Y-84064069D01*
X138650500Y-83935931D01*
X138650500Y-83935928D01*
X138625502Y-83810261D01*
X138625501Y-83810260D01*
X138625501Y-83810256D01*
X138576465Y-83691873D01*
X138576464Y-83691872D01*
X138576461Y-83691866D01*
X138505276Y-83585331D01*
X138505273Y-83585327D01*
X138414672Y-83494726D01*
X138414668Y-83494723D01*
X138308133Y-83423538D01*
X138308124Y-83423533D01*
X138189744Y-83374499D01*
X138189738Y-83374497D01*
X138064071Y-83349500D01*
X138064069Y-83349500D01*
X137935931Y-83349500D01*
X137935929Y-83349500D01*
X137810261Y-83374497D01*
X137810255Y-83374499D01*
X137691875Y-83423533D01*
X137691866Y-83423538D01*
X137585331Y-83494723D01*
X137585327Y-83494726D01*
X137494726Y-83585327D01*
X137494723Y-83585331D01*
X137423538Y-83691866D01*
X137423533Y-83691875D01*
X137374499Y-83810255D01*
X137374497Y-83810261D01*
X137349500Y-83935928D01*
X137349500Y-83935931D01*
X137349500Y-84064069D01*
X137349500Y-84064071D01*
X137349499Y-84064071D01*
X136360500Y-84064071D01*
X136360500Y-82064071D01*
X138349499Y-82064071D01*
X138374497Y-82189738D01*
X138374499Y-82189744D01*
X138423533Y-82308124D01*
X138423538Y-82308133D01*
X138494723Y-82414668D01*
X138494726Y-82414672D01*
X138585327Y-82505273D01*
X138585331Y-82505276D01*
X138691866Y-82576461D01*
X138691872Y-82576464D01*
X138691873Y-82576465D01*
X138810256Y-82625501D01*
X138810260Y-82625501D01*
X138810261Y-82625502D01*
X138935928Y-82650500D01*
X138935931Y-82650500D01*
X139064071Y-82650500D01*
X139148615Y-82633682D01*
X139189744Y-82625501D01*
X139308127Y-82576465D01*
X139414669Y-82505276D01*
X139505276Y-82414669D01*
X139576465Y-82308127D01*
X139625501Y-82189744D01*
X139650500Y-82064071D01*
X141349499Y-82064071D01*
X141374497Y-82189738D01*
X141374499Y-82189744D01*
X141423533Y-82308124D01*
X141423538Y-82308133D01*
X141494723Y-82414668D01*
X141494726Y-82414672D01*
X141585327Y-82505273D01*
X141585331Y-82505276D01*
X141691866Y-82576461D01*
X141691872Y-82576464D01*
X141691873Y-82576465D01*
X141810256Y-82625501D01*
X141810260Y-82625501D01*
X141810261Y-82625502D01*
X141935928Y-82650500D01*
X141935931Y-82650500D01*
X142064071Y-82650500D01*
X142148615Y-82633682D01*
X142189744Y-82625501D01*
X142308127Y-82576465D01*
X142414669Y-82505276D01*
X142505276Y-82414669D01*
X142576465Y-82308127D01*
X142625501Y-82189744D01*
X142650500Y-82064069D01*
X142650500Y-81935931D01*
X142650500Y-81935928D01*
X142625502Y-81810261D01*
X142625501Y-81810260D01*
X142625501Y-81810256D01*
X142576465Y-81691873D01*
X142576464Y-81691872D01*
X142576461Y-81691866D01*
X142505276Y-81585331D01*
X142505273Y-81585327D01*
X142414672Y-81494726D01*
X142414668Y-81494723D01*
X142308133Y-81423538D01*
X142308124Y-81423533D01*
X142189744Y-81374499D01*
X142189738Y-81374497D01*
X142064071Y-81349500D01*
X142064069Y-81349500D01*
X141935931Y-81349500D01*
X141935929Y-81349500D01*
X141810261Y-81374497D01*
X141810255Y-81374499D01*
X141691875Y-81423533D01*
X141691866Y-81423538D01*
X141585331Y-81494723D01*
X141585327Y-81494726D01*
X141494726Y-81585327D01*
X141494723Y-81585331D01*
X141423538Y-81691866D01*
X141423533Y-81691875D01*
X141374499Y-81810255D01*
X141374497Y-81810261D01*
X141349500Y-81935928D01*
X141349500Y-81935931D01*
X141349500Y-82064069D01*
X141349500Y-82064071D01*
X141349499Y-82064071D01*
X139650500Y-82064071D01*
X139650500Y-82064069D01*
X139650500Y-81935931D01*
X139650500Y-81935928D01*
X139625502Y-81810261D01*
X139625501Y-81810260D01*
X139625501Y-81810256D01*
X139576465Y-81691873D01*
X139576464Y-81691872D01*
X139576461Y-81691866D01*
X139505276Y-81585331D01*
X139505273Y-81585327D01*
X139414672Y-81494726D01*
X139414668Y-81494723D01*
X139308133Y-81423538D01*
X139308124Y-81423533D01*
X139189744Y-81374499D01*
X139189738Y-81374497D01*
X139064071Y-81349500D01*
X139064069Y-81349500D01*
X138935931Y-81349500D01*
X138935929Y-81349500D01*
X138810261Y-81374497D01*
X138810255Y-81374499D01*
X138691875Y-81423533D01*
X138691866Y-81423538D01*
X138585331Y-81494723D01*
X138585327Y-81494726D01*
X138494726Y-81585327D01*
X138494723Y-81585331D01*
X138423538Y-81691866D01*
X138423533Y-81691875D01*
X138374499Y-81810255D01*
X138374497Y-81810261D01*
X138349500Y-81935928D01*
X138349500Y-81935931D01*
X138349500Y-82064069D01*
X138349500Y-82064071D01*
X138349499Y-82064071D01*
X136360500Y-82064071D01*
X136360500Y-80424000D01*
X136380185Y-80356961D01*
X136432989Y-80311206D01*
X136484500Y-80300000D01*
X144480692Y-80300000D01*
X144547731Y-80319685D01*
G37*
%TD.AperFunction*%
%TD*%
%TA.AperFunction,Conductor*%
%TO.N,+5V*%
G36*
X191782539Y-73420185D02*
G01*
X191828294Y-73472989D01*
X191839500Y-73524500D01*
X191839500Y-103275500D01*
X191819815Y-103342539D01*
X191767011Y-103388294D01*
X191715500Y-103399500D01*
X158824000Y-103399500D01*
X158756961Y-103379815D01*
X158711206Y-103327011D01*
X158700000Y-103275500D01*
X158700000Y-103009562D01*
X158719685Y-102942523D01*
X158772489Y-102896768D01*
X158841647Y-102886824D01*
X158848185Y-102887943D01*
X158866929Y-102891672D01*
X158911307Y-102900500D01*
X158911309Y-102900500D01*
X159088693Y-102900500D01*
X159088694Y-102900499D01*
X159151809Y-102887945D01*
X159262658Y-102865896D01*
X159262661Y-102865894D01*
X159262666Y-102865894D01*
X159426547Y-102798013D01*
X159574035Y-102699464D01*
X159699464Y-102574035D01*
X159798013Y-102426547D01*
X159865894Y-102262666D01*
X159900500Y-102088691D01*
X159900500Y-101911309D01*
X159900500Y-101911306D01*
X159900499Y-101911304D01*
X161099500Y-101911304D01*
X161099500Y-102088695D01*
X161134103Y-102262658D01*
X161134106Y-102262667D01*
X161201983Y-102426540D01*
X161201990Y-102426553D01*
X161300535Y-102574034D01*
X161300538Y-102574038D01*
X161425961Y-102699461D01*
X161425965Y-102699464D01*
X161573446Y-102798009D01*
X161573459Y-102798016D01*
X161696363Y-102848923D01*
X161737334Y-102865894D01*
X161737336Y-102865894D01*
X161737341Y-102865896D01*
X161911304Y-102900499D01*
X161911307Y-102900500D01*
X161911309Y-102900500D01*
X162088693Y-102900500D01*
X162088694Y-102900499D01*
X162151809Y-102887945D01*
X162262658Y-102865896D01*
X162262661Y-102865894D01*
X162262666Y-102865894D01*
X162426547Y-102798013D01*
X162574035Y-102699464D01*
X162699464Y-102574035D01*
X162798013Y-102426547D01*
X162865894Y-102262666D01*
X162900500Y-102088691D01*
X162900500Y-101911309D01*
X162900500Y-101911306D01*
X162900499Y-101911304D01*
X164099500Y-101911304D01*
X164099500Y-102088695D01*
X164134103Y-102262658D01*
X164134106Y-102262667D01*
X164201983Y-102426540D01*
X164201990Y-102426553D01*
X164300535Y-102574034D01*
X164300538Y-102574038D01*
X164425961Y-102699461D01*
X164425965Y-102699464D01*
X164573446Y-102798009D01*
X164573459Y-102798016D01*
X164696363Y-102848923D01*
X164737334Y-102865894D01*
X164737336Y-102865894D01*
X164737341Y-102865896D01*
X164911304Y-102900499D01*
X164911307Y-102900500D01*
X164911309Y-102900500D01*
X165088693Y-102900500D01*
X165088694Y-102900499D01*
X165151809Y-102887945D01*
X165262658Y-102865896D01*
X165262661Y-102865894D01*
X165262666Y-102865894D01*
X165426547Y-102798013D01*
X165574035Y-102699464D01*
X165699464Y-102574035D01*
X165798013Y-102426547D01*
X165865894Y-102262666D01*
X165900500Y-102088691D01*
X165900500Y-101911309D01*
X165900500Y-101911306D01*
X165900499Y-101911304D01*
X167099500Y-101911304D01*
X167099500Y-102088695D01*
X167134103Y-102262658D01*
X167134106Y-102262667D01*
X167201983Y-102426540D01*
X167201990Y-102426553D01*
X167300535Y-102574034D01*
X167300538Y-102574038D01*
X167425961Y-102699461D01*
X167425965Y-102699464D01*
X167573446Y-102798009D01*
X167573459Y-102798016D01*
X167696363Y-102848923D01*
X167737334Y-102865894D01*
X167737336Y-102865894D01*
X167737341Y-102865896D01*
X167911304Y-102900499D01*
X167911307Y-102900500D01*
X167911309Y-102900500D01*
X168088693Y-102900500D01*
X168088694Y-102900499D01*
X168151809Y-102887945D01*
X168262658Y-102865896D01*
X168262661Y-102865894D01*
X168262666Y-102865894D01*
X168426547Y-102798013D01*
X168574035Y-102699464D01*
X168699464Y-102574035D01*
X168798013Y-102426547D01*
X168865894Y-102262666D01*
X168900500Y-102088691D01*
X168900500Y-101911309D01*
X168900500Y-101911306D01*
X168900499Y-101911304D01*
X170099500Y-101911304D01*
X170099500Y-102088695D01*
X170134103Y-102262658D01*
X170134106Y-102262667D01*
X170201983Y-102426540D01*
X170201990Y-102426553D01*
X170300535Y-102574034D01*
X170300538Y-102574038D01*
X170425961Y-102699461D01*
X170425965Y-102699464D01*
X170573446Y-102798009D01*
X170573459Y-102798016D01*
X170696363Y-102848923D01*
X170737334Y-102865894D01*
X170737336Y-102865894D01*
X170737341Y-102865896D01*
X170911304Y-102900499D01*
X170911307Y-102900500D01*
X170911309Y-102900500D01*
X171088693Y-102900500D01*
X171088694Y-102900499D01*
X171151809Y-102887945D01*
X171262658Y-102865896D01*
X171262661Y-102865894D01*
X171262666Y-102865894D01*
X171426547Y-102798013D01*
X171574035Y-102699464D01*
X171699464Y-102574035D01*
X171798013Y-102426547D01*
X171865894Y-102262666D01*
X171900500Y-102088691D01*
X171900500Y-101911309D01*
X171900500Y-101911306D01*
X171900499Y-101911304D01*
X173099500Y-101911304D01*
X173099500Y-102088695D01*
X173134103Y-102262658D01*
X173134106Y-102262667D01*
X173201983Y-102426540D01*
X173201990Y-102426553D01*
X173300535Y-102574034D01*
X173300538Y-102574038D01*
X173425961Y-102699461D01*
X173425965Y-102699464D01*
X173573446Y-102798009D01*
X173573459Y-102798016D01*
X173696363Y-102848923D01*
X173737334Y-102865894D01*
X173737336Y-102865894D01*
X173737341Y-102865896D01*
X173911304Y-102900499D01*
X173911307Y-102900500D01*
X173911309Y-102900500D01*
X174088693Y-102900500D01*
X174088694Y-102900499D01*
X174151809Y-102887945D01*
X174262658Y-102865896D01*
X174262661Y-102865894D01*
X174262666Y-102865894D01*
X174426547Y-102798013D01*
X174574035Y-102699464D01*
X174699464Y-102574035D01*
X174798013Y-102426547D01*
X174865894Y-102262666D01*
X174900500Y-102088691D01*
X174900500Y-101911309D01*
X174900500Y-101911306D01*
X174900499Y-101911304D01*
X176099500Y-101911304D01*
X176099500Y-102088695D01*
X176134103Y-102262658D01*
X176134106Y-102262667D01*
X176201983Y-102426540D01*
X176201990Y-102426553D01*
X176300535Y-102574034D01*
X176300538Y-102574038D01*
X176425961Y-102699461D01*
X176425965Y-102699464D01*
X176573446Y-102798009D01*
X176573459Y-102798016D01*
X176696363Y-102848923D01*
X176737334Y-102865894D01*
X176737336Y-102865894D01*
X176737341Y-102865896D01*
X176911304Y-102900499D01*
X176911307Y-102900500D01*
X176911309Y-102900500D01*
X177088693Y-102900500D01*
X177088694Y-102900499D01*
X177151809Y-102887945D01*
X177262658Y-102865896D01*
X177262661Y-102865894D01*
X177262666Y-102865894D01*
X177426547Y-102798013D01*
X177574035Y-102699464D01*
X177699464Y-102574035D01*
X177798013Y-102426547D01*
X177865894Y-102262666D01*
X177900500Y-102088691D01*
X177900500Y-101911309D01*
X177900500Y-101911306D01*
X177900499Y-101911304D01*
X179099500Y-101911304D01*
X179099500Y-102088695D01*
X179134103Y-102262658D01*
X179134106Y-102262667D01*
X179201983Y-102426540D01*
X179201990Y-102426553D01*
X179300535Y-102574034D01*
X179300538Y-102574038D01*
X179425961Y-102699461D01*
X179425965Y-102699464D01*
X179573446Y-102798009D01*
X179573459Y-102798016D01*
X179696363Y-102848923D01*
X179737334Y-102865894D01*
X179737336Y-102865894D01*
X179737341Y-102865896D01*
X179911304Y-102900499D01*
X179911307Y-102900500D01*
X179911309Y-102900500D01*
X180088693Y-102900500D01*
X180088694Y-102900499D01*
X180151809Y-102887945D01*
X180262658Y-102865896D01*
X180262661Y-102865894D01*
X180262666Y-102865894D01*
X180426547Y-102798013D01*
X180574035Y-102699464D01*
X180699464Y-102574035D01*
X180798013Y-102426547D01*
X180865894Y-102262666D01*
X180900500Y-102088691D01*
X180900500Y-101911309D01*
X180900500Y-101911306D01*
X180900499Y-101911304D01*
X182099500Y-101911304D01*
X182099500Y-102088695D01*
X182134103Y-102262658D01*
X182134106Y-102262667D01*
X182201983Y-102426540D01*
X182201990Y-102426553D01*
X182300535Y-102574034D01*
X182300538Y-102574038D01*
X182425961Y-102699461D01*
X182425965Y-102699464D01*
X182573446Y-102798009D01*
X182573459Y-102798016D01*
X182696363Y-102848923D01*
X182737334Y-102865894D01*
X182737336Y-102865894D01*
X182737341Y-102865896D01*
X182911304Y-102900499D01*
X182911307Y-102900500D01*
X182911309Y-102900500D01*
X183088693Y-102900500D01*
X183088694Y-102900499D01*
X183151809Y-102887945D01*
X183262658Y-102865896D01*
X183262661Y-102865894D01*
X183262666Y-102865894D01*
X183426547Y-102798013D01*
X183574035Y-102699464D01*
X183699464Y-102574035D01*
X183798013Y-102426547D01*
X183865894Y-102262666D01*
X183900500Y-102088691D01*
X183900500Y-101911309D01*
X183900500Y-101911306D01*
X183900499Y-101911304D01*
X183865896Y-101737341D01*
X183865893Y-101737332D01*
X183798016Y-101573459D01*
X183798009Y-101573446D01*
X183699464Y-101425965D01*
X183699461Y-101425961D01*
X183574038Y-101300538D01*
X183574034Y-101300535D01*
X183426553Y-101201990D01*
X183426540Y-101201983D01*
X183262667Y-101134106D01*
X183262658Y-101134103D01*
X183088694Y-101099500D01*
X183088691Y-101099500D01*
X182911309Y-101099500D01*
X182911306Y-101099500D01*
X182737341Y-101134103D01*
X182737332Y-101134106D01*
X182573459Y-101201983D01*
X182573446Y-101201990D01*
X182425965Y-101300535D01*
X182425961Y-101300538D01*
X182300538Y-101425961D01*
X182300535Y-101425965D01*
X182201990Y-101573446D01*
X182201983Y-101573459D01*
X182134106Y-101737332D01*
X182134103Y-101737341D01*
X182099500Y-101911304D01*
X180900499Y-101911304D01*
X180865896Y-101737341D01*
X180865893Y-101737332D01*
X180798016Y-101573459D01*
X180798009Y-101573446D01*
X180699464Y-101425965D01*
X180699461Y-101425961D01*
X180574038Y-101300538D01*
X180574034Y-101300535D01*
X180426553Y-101201990D01*
X180426540Y-101201983D01*
X180262667Y-101134106D01*
X180262658Y-101134103D01*
X180088694Y-101099500D01*
X180088691Y-101099500D01*
X179911309Y-101099500D01*
X179911306Y-101099500D01*
X179737341Y-101134103D01*
X179737332Y-101134106D01*
X179573459Y-101201983D01*
X179573446Y-101201990D01*
X179425965Y-101300535D01*
X179425961Y-101300538D01*
X179300538Y-101425961D01*
X179300535Y-101425965D01*
X179201990Y-101573446D01*
X179201983Y-101573459D01*
X179134106Y-101737332D01*
X179134103Y-101737341D01*
X179099500Y-101911304D01*
X177900499Y-101911304D01*
X177865896Y-101737341D01*
X177865893Y-101737332D01*
X177798016Y-101573459D01*
X177798009Y-101573446D01*
X177699464Y-101425965D01*
X177699461Y-101425961D01*
X177574038Y-101300538D01*
X177574034Y-101300535D01*
X177426553Y-101201990D01*
X177426540Y-101201983D01*
X177262667Y-101134106D01*
X177262658Y-101134103D01*
X177088694Y-101099500D01*
X177088691Y-101099500D01*
X176911309Y-101099500D01*
X176911306Y-101099500D01*
X176737341Y-101134103D01*
X176737332Y-101134106D01*
X176573459Y-101201983D01*
X176573446Y-101201990D01*
X176425965Y-101300535D01*
X176425961Y-101300538D01*
X176300538Y-101425961D01*
X176300535Y-101425965D01*
X176201990Y-101573446D01*
X176201983Y-101573459D01*
X176134106Y-101737332D01*
X176134103Y-101737341D01*
X176099500Y-101911304D01*
X174900499Y-101911304D01*
X174865896Y-101737341D01*
X174865893Y-101737332D01*
X174798016Y-101573459D01*
X174798009Y-101573446D01*
X174699464Y-101425965D01*
X174699461Y-101425961D01*
X174574038Y-101300538D01*
X174574034Y-101300535D01*
X174426553Y-101201990D01*
X174426540Y-101201983D01*
X174262667Y-101134106D01*
X174262658Y-101134103D01*
X174088694Y-101099500D01*
X174088691Y-101099500D01*
X173911309Y-101099500D01*
X173911306Y-101099500D01*
X173737341Y-101134103D01*
X173737332Y-101134106D01*
X173573459Y-101201983D01*
X173573446Y-101201990D01*
X173425965Y-101300535D01*
X173425961Y-101300538D01*
X173300538Y-101425961D01*
X173300535Y-101425965D01*
X173201990Y-101573446D01*
X173201983Y-101573459D01*
X173134106Y-101737332D01*
X173134103Y-101737341D01*
X173099500Y-101911304D01*
X171900499Y-101911304D01*
X171865896Y-101737341D01*
X171865893Y-101737332D01*
X171798016Y-101573459D01*
X171798009Y-101573446D01*
X171699464Y-101425965D01*
X171699461Y-101425961D01*
X171574038Y-101300538D01*
X171574034Y-101300535D01*
X171426553Y-101201990D01*
X171426540Y-101201983D01*
X171262667Y-101134106D01*
X171262658Y-101134103D01*
X171088694Y-101099500D01*
X171088691Y-101099500D01*
X170911309Y-101099500D01*
X170911306Y-101099500D01*
X170737341Y-101134103D01*
X170737332Y-101134106D01*
X170573459Y-101201983D01*
X170573446Y-101201990D01*
X170425965Y-101300535D01*
X170425961Y-101300538D01*
X170300538Y-101425961D01*
X170300535Y-101425965D01*
X170201990Y-101573446D01*
X170201983Y-101573459D01*
X170134106Y-101737332D01*
X170134103Y-101737341D01*
X170099500Y-101911304D01*
X168900499Y-101911304D01*
X168865896Y-101737341D01*
X168865893Y-101737332D01*
X168798016Y-101573459D01*
X168798009Y-101573446D01*
X168699464Y-101425965D01*
X168699461Y-101425961D01*
X168574038Y-101300538D01*
X168574034Y-101300535D01*
X168426553Y-101201990D01*
X168426540Y-101201983D01*
X168262667Y-101134106D01*
X168262658Y-101134103D01*
X168088694Y-101099500D01*
X168088691Y-101099500D01*
X167911309Y-101099500D01*
X167911306Y-101099500D01*
X167737341Y-101134103D01*
X167737332Y-101134106D01*
X167573459Y-101201983D01*
X167573446Y-101201990D01*
X167425965Y-101300535D01*
X167425961Y-101300538D01*
X167300538Y-101425961D01*
X167300535Y-101425965D01*
X167201990Y-101573446D01*
X167201983Y-101573459D01*
X167134106Y-101737332D01*
X167134103Y-101737341D01*
X167099500Y-101911304D01*
X165900499Y-101911304D01*
X165865896Y-101737341D01*
X165865893Y-101737332D01*
X165798016Y-101573459D01*
X165798009Y-101573446D01*
X165699464Y-101425965D01*
X165699461Y-101425961D01*
X165574038Y-101300538D01*
X165574034Y-101300535D01*
X165426553Y-101201990D01*
X165426540Y-101201983D01*
X165262667Y-101134106D01*
X165262658Y-101134103D01*
X165088694Y-101099500D01*
X165088691Y-101099500D01*
X164911309Y-101099500D01*
X164911306Y-101099500D01*
X164737341Y-101134103D01*
X164737332Y-101134106D01*
X164573459Y-101201983D01*
X164573446Y-101201990D01*
X164425965Y-101300535D01*
X164425961Y-101300538D01*
X164300538Y-101425961D01*
X164300535Y-101425965D01*
X164201990Y-101573446D01*
X164201983Y-101573459D01*
X164134106Y-101737332D01*
X164134103Y-101737341D01*
X164099500Y-101911304D01*
X162900499Y-101911304D01*
X162865896Y-101737341D01*
X162865893Y-101737332D01*
X162798016Y-101573459D01*
X162798009Y-101573446D01*
X162699464Y-101425965D01*
X162699461Y-101425961D01*
X162574038Y-101300538D01*
X162574034Y-101300535D01*
X162426553Y-101201990D01*
X162426540Y-101201983D01*
X162262667Y-101134106D01*
X162262658Y-101134103D01*
X162088694Y-101099500D01*
X162088691Y-101099500D01*
X161911309Y-101099500D01*
X161911306Y-101099500D01*
X161737341Y-101134103D01*
X161737332Y-101134106D01*
X161573459Y-101201983D01*
X161573446Y-101201990D01*
X161425965Y-101300535D01*
X161425961Y-101300538D01*
X161300538Y-101425961D01*
X161300535Y-101425965D01*
X161201990Y-101573446D01*
X161201983Y-101573459D01*
X161134106Y-101737332D01*
X161134103Y-101737341D01*
X161099500Y-101911304D01*
X159900499Y-101911304D01*
X159865896Y-101737341D01*
X159865893Y-101737332D01*
X159798016Y-101573459D01*
X159798009Y-101573446D01*
X159699464Y-101425965D01*
X159699461Y-101425961D01*
X159574038Y-101300538D01*
X159574034Y-101300535D01*
X159426553Y-101201990D01*
X159426540Y-101201983D01*
X159262667Y-101134106D01*
X159262658Y-101134103D01*
X159088694Y-101099500D01*
X159088691Y-101099500D01*
X158911309Y-101099500D01*
X158911304Y-101099500D01*
X158848191Y-101112054D01*
X158778599Y-101105827D01*
X158723422Y-101062963D01*
X158700178Y-100997074D01*
X158700000Y-100990437D01*
X158700000Y-98911304D01*
X182099500Y-98911304D01*
X182099500Y-99088695D01*
X182134103Y-99262658D01*
X182134106Y-99262667D01*
X182201983Y-99426540D01*
X182201990Y-99426553D01*
X182300535Y-99574034D01*
X182300538Y-99574038D01*
X182425961Y-99699461D01*
X182425965Y-99699464D01*
X182573446Y-99798009D01*
X182573459Y-99798016D01*
X182696363Y-99848923D01*
X182737334Y-99865894D01*
X182737336Y-99865894D01*
X182737341Y-99865896D01*
X182911304Y-99900499D01*
X182911307Y-99900500D01*
X182911309Y-99900500D01*
X183088693Y-99900500D01*
X183088694Y-99900499D01*
X183146682Y-99888964D01*
X183262658Y-99865896D01*
X183262661Y-99865894D01*
X183262666Y-99865894D01*
X183426547Y-99798013D01*
X183574035Y-99699464D01*
X183699464Y-99574035D01*
X183798013Y-99426547D01*
X183865894Y-99262666D01*
X183900500Y-99088691D01*
X183900500Y-98911309D01*
X183894016Y-98878711D01*
X185149500Y-98878711D01*
X185149500Y-99121288D01*
X185181161Y-99361785D01*
X185243947Y-99596104D01*
X185327579Y-99798009D01*
X185336776Y-99820212D01*
X185458064Y-100030289D01*
X185458066Y-100030292D01*
X185458067Y-100030293D01*
X185605733Y-100222736D01*
X185605739Y-100222743D01*
X185777256Y-100394260D01*
X185777262Y-100394265D01*
X185969711Y-100541936D01*
X186179788Y-100663224D01*
X186403900Y-100756054D01*
X186638211Y-100818838D01*
X186818586Y-100842584D01*
X186878711Y-100850500D01*
X186878712Y-100850500D01*
X187121289Y-100850500D01*
X187169388Y-100844167D01*
X187361789Y-100818838D01*
X187596100Y-100756054D01*
X187820212Y-100663224D01*
X188030289Y-100541936D01*
X188222738Y-100394265D01*
X188394265Y-100222738D01*
X188541936Y-100030289D01*
X188663224Y-99820212D01*
X188756054Y-99596100D01*
X188818838Y-99361789D01*
X188850500Y-99121288D01*
X188850500Y-98878712D01*
X188818838Y-98638211D01*
X188756054Y-98403900D01*
X188663224Y-98179788D01*
X188541936Y-97969711D01*
X188394265Y-97777262D01*
X188394260Y-97777256D01*
X188222743Y-97605739D01*
X188222736Y-97605733D01*
X188030293Y-97458067D01*
X188030292Y-97458066D01*
X188030289Y-97458064D01*
X187820212Y-97336776D01*
X187820205Y-97336773D01*
X187596104Y-97243947D01*
X187361785Y-97181161D01*
X187121289Y-97149500D01*
X187121288Y-97149500D01*
X186878712Y-97149500D01*
X186878711Y-97149500D01*
X186638214Y-97181161D01*
X186403895Y-97243947D01*
X186179794Y-97336773D01*
X186179785Y-97336777D01*
X185969706Y-97458067D01*
X185777263Y-97605733D01*
X185777256Y-97605739D01*
X185605739Y-97777256D01*
X185605733Y-97777263D01*
X185458067Y-97969706D01*
X185336777Y-98179785D01*
X185336773Y-98179794D01*
X185243947Y-98403895D01*
X185181161Y-98638214D01*
X185149500Y-98878711D01*
X183894016Y-98878711D01*
X183865896Y-98737341D01*
X183865893Y-98737332D01*
X183798016Y-98573459D01*
X183798009Y-98573446D01*
X183699464Y-98425965D01*
X183699461Y-98425961D01*
X183574038Y-98300538D01*
X183574034Y-98300535D01*
X183426553Y-98201990D01*
X183426540Y-98201983D01*
X183262667Y-98134106D01*
X183262658Y-98134103D01*
X183088694Y-98099500D01*
X183088691Y-98099500D01*
X182911309Y-98099500D01*
X182911306Y-98099500D01*
X182737341Y-98134103D01*
X182737332Y-98134106D01*
X182573459Y-98201983D01*
X182573446Y-98201990D01*
X182425965Y-98300535D01*
X182425961Y-98300538D01*
X182300538Y-98425961D01*
X182300535Y-98425965D01*
X182201990Y-98573446D01*
X182201983Y-98573459D01*
X182134106Y-98737332D01*
X182134103Y-98737341D01*
X182099500Y-98911304D01*
X158700000Y-98911304D01*
X158700000Y-96411304D01*
X161699500Y-96411304D01*
X161699500Y-96588695D01*
X161734103Y-96762658D01*
X161734106Y-96762667D01*
X161801983Y-96926540D01*
X161801990Y-96926553D01*
X161900535Y-97074034D01*
X161900538Y-97074038D01*
X162025961Y-97199461D01*
X162025965Y-97199464D01*
X162173446Y-97298009D01*
X162173459Y-97298016D01*
X162296363Y-97348923D01*
X162337334Y-97365894D01*
X162337336Y-97365894D01*
X162337341Y-97365896D01*
X162511304Y-97400499D01*
X162511307Y-97400500D01*
X162511309Y-97400500D01*
X162688693Y-97400500D01*
X162688694Y-97400499D01*
X162746682Y-97388964D01*
X162862658Y-97365896D01*
X162862661Y-97365894D01*
X162862666Y-97365894D01*
X163026547Y-97298013D01*
X163174035Y-97199464D01*
X163299464Y-97074035D01*
X163398013Y-96926547D01*
X163465894Y-96762666D01*
X163478467Y-96699461D01*
X163500499Y-96588695D01*
X163500500Y-96588693D01*
X163500500Y-96411306D01*
X163500499Y-96411304D01*
X163465896Y-96237341D01*
X163465893Y-96237332D01*
X163398016Y-96073459D01*
X163398009Y-96073446D01*
X163331633Y-95974108D01*
X163299464Y-95925965D01*
X163299461Y-95925961D01*
X163284804Y-95911304D01*
X182099500Y-95911304D01*
X182099500Y-96088695D01*
X182134103Y-96262658D01*
X182134106Y-96262667D01*
X182201983Y-96426540D01*
X182201990Y-96426553D01*
X182300535Y-96574034D01*
X182300538Y-96574038D01*
X182425961Y-96699461D01*
X182425965Y-96699464D01*
X182573446Y-96798009D01*
X182573459Y-96798016D01*
X182696363Y-96848923D01*
X182737334Y-96865894D01*
X182737336Y-96865894D01*
X182737341Y-96865896D01*
X182911304Y-96900499D01*
X182911307Y-96900500D01*
X182911309Y-96900500D01*
X183088693Y-96900500D01*
X183088694Y-96900499D01*
X183146682Y-96888964D01*
X183262658Y-96865896D01*
X183262661Y-96865894D01*
X183262666Y-96865894D01*
X183426547Y-96798013D01*
X183574035Y-96699464D01*
X183699464Y-96574035D01*
X183798013Y-96426547D01*
X183865894Y-96262666D01*
X183870932Y-96237341D01*
X183900499Y-96088695D01*
X183900500Y-96088693D01*
X183900500Y-95911306D01*
X183900499Y-95911304D01*
X183865896Y-95737341D01*
X183865893Y-95737332D01*
X183798016Y-95573459D01*
X183798009Y-95573446D01*
X183699464Y-95425965D01*
X183699461Y-95425961D01*
X183574038Y-95300538D01*
X183574034Y-95300535D01*
X183426553Y-95201990D01*
X183426540Y-95201983D01*
X183262667Y-95134106D01*
X183262658Y-95134103D01*
X183088694Y-95099500D01*
X183088691Y-95099500D01*
X182911309Y-95099500D01*
X182911306Y-95099500D01*
X182737341Y-95134103D01*
X182737332Y-95134106D01*
X182573459Y-95201983D01*
X182573446Y-95201990D01*
X182425965Y-95300535D01*
X182425961Y-95300538D01*
X182300538Y-95425961D01*
X182300535Y-95425965D01*
X182201990Y-95573446D01*
X182201983Y-95573459D01*
X182134106Y-95737332D01*
X182134103Y-95737341D01*
X182099500Y-95911304D01*
X163284804Y-95911304D01*
X163174038Y-95800538D01*
X163174034Y-95800535D01*
X163026553Y-95701990D01*
X163026540Y-95701983D01*
X162862667Y-95634106D01*
X162862658Y-95634103D01*
X162688694Y-95599500D01*
X162688691Y-95599500D01*
X162511309Y-95599500D01*
X162511306Y-95599500D01*
X162337341Y-95634103D01*
X162337332Y-95634106D01*
X162173459Y-95701983D01*
X162173446Y-95701990D01*
X162025965Y-95800535D01*
X162025961Y-95800538D01*
X161900538Y-95925961D01*
X161900535Y-95925965D01*
X161801990Y-96073446D01*
X161801983Y-96073459D01*
X161734106Y-96237332D01*
X161734103Y-96237341D01*
X161699500Y-96411304D01*
X158700000Y-96411304D01*
X158700000Y-94911304D01*
X185099500Y-94911304D01*
X185099500Y-95088695D01*
X185134103Y-95262658D01*
X185134106Y-95262667D01*
X185201983Y-95426540D01*
X185201990Y-95426553D01*
X185300535Y-95574034D01*
X185300538Y-95574038D01*
X185425961Y-95699461D01*
X185425965Y-95699464D01*
X185573446Y-95798009D01*
X185573459Y-95798016D01*
X185696363Y-95848923D01*
X185737334Y-95865894D01*
X185737336Y-95865894D01*
X185737341Y-95865896D01*
X185911304Y-95900499D01*
X185911307Y-95900500D01*
X185911309Y-95900500D01*
X186088693Y-95900500D01*
X186088694Y-95900499D01*
X186146682Y-95888964D01*
X186262658Y-95865896D01*
X186262661Y-95865894D01*
X186262666Y-95865894D01*
X186426547Y-95798013D01*
X186574035Y-95699464D01*
X186699464Y-95574035D01*
X186798013Y-95426547D01*
X186865894Y-95262666D01*
X186900500Y-95088691D01*
X186900500Y-94911309D01*
X186900500Y-94911306D01*
X186900499Y-94911304D01*
X188099500Y-94911304D01*
X188099500Y-95088695D01*
X188134103Y-95262658D01*
X188134106Y-95262667D01*
X188201983Y-95426540D01*
X188201990Y-95426553D01*
X188300535Y-95574034D01*
X188300538Y-95574038D01*
X188425961Y-95699461D01*
X188425965Y-95699464D01*
X188573446Y-95798009D01*
X188573459Y-95798016D01*
X188696363Y-95848923D01*
X188737334Y-95865894D01*
X188737336Y-95865894D01*
X188737341Y-95865896D01*
X188911304Y-95900499D01*
X188911307Y-95900500D01*
X188911309Y-95900500D01*
X189088693Y-95900500D01*
X189088694Y-95900499D01*
X189146682Y-95888964D01*
X189262658Y-95865896D01*
X189262661Y-95865894D01*
X189262666Y-95865894D01*
X189426547Y-95798013D01*
X189574035Y-95699464D01*
X189699464Y-95574035D01*
X189798013Y-95426547D01*
X189865894Y-95262666D01*
X189900500Y-95088691D01*
X189900500Y-94911309D01*
X189900500Y-94911306D01*
X189900499Y-94911304D01*
X189865896Y-94737341D01*
X189865893Y-94737332D01*
X189798016Y-94573459D01*
X189798009Y-94573446D01*
X189699464Y-94425965D01*
X189699461Y-94425961D01*
X189574038Y-94300538D01*
X189574034Y-94300535D01*
X189426553Y-94201990D01*
X189426540Y-94201983D01*
X189262667Y-94134106D01*
X189262658Y-94134103D01*
X189088694Y-94099500D01*
X189088691Y-94099500D01*
X188911309Y-94099500D01*
X188911306Y-94099500D01*
X188737341Y-94134103D01*
X188737332Y-94134106D01*
X188573459Y-94201983D01*
X188573446Y-94201990D01*
X188425965Y-94300535D01*
X188425961Y-94300538D01*
X188300538Y-94425961D01*
X188300535Y-94425965D01*
X188201990Y-94573446D01*
X188201983Y-94573459D01*
X188134106Y-94737332D01*
X188134103Y-94737341D01*
X188099500Y-94911304D01*
X186900499Y-94911304D01*
X186865896Y-94737341D01*
X186865893Y-94737332D01*
X186798016Y-94573459D01*
X186798009Y-94573446D01*
X186699464Y-94425965D01*
X186699461Y-94425961D01*
X186574038Y-94300538D01*
X186574034Y-94300535D01*
X186426553Y-94201990D01*
X186426540Y-94201983D01*
X186262667Y-94134106D01*
X186262658Y-94134103D01*
X186088694Y-94099500D01*
X186088691Y-94099500D01*
X185911309Y-94099500D01*
X185911306Y-94099500D01*
X185737341Y-94134103D01*
X185737332Y-94134106D01*
X185573459Y-94201983D01*
X185573446Y-94201990D01*
X185425965Y-94300535D01*
X185425961Y-94300538D01*
X185300538Y-94425961D01*
X185300535Y-94425965D01*
X185201990Y-94573446D01*
X185201983Y-94573459D01*
X185134106Y-94737332D01*
X185134103Y-94737341D01*
X185099500Y-94911304D01*
X158700000Y-94911304D01*
X158700000Y-92911304D01*
X189099500Y-92911304D01*
X189099500Y-93088695D01*
X189134103Y-93262658D01*
X189134106Y-93262667D01*
X189201983Y-93426540D01*
X189201990Y-93426553D01*
X189300535Y-93574034D01*
X189300538Y-93574038D01*
X189425961Y-93699461D01*
X189425965Y-93699464D01*
X189573446Y-93798009D01*
X189573459Y-93798016D01*
X189696363Y-93848923D01*
X189737334Y-93865894D01*
X189737336Y-93865894D01*
X189737341Y-93865896D01*
X189911304Y-93900499D01*
X189911307Y-93900500D01*
X189911309Y-93900500D01*
X190088693Y-93900500D01*
X190088694Y-93900499D01*
X190146682Y-93888964D01*
X190262658Y-93865896D01*
X190262661Y-93865894D01*
X190262666Y-93865894D01*
X190426547Y-93798013D01*
X190574035Y-93699464D01*
X190699464Y-93574035D01*
X190798013Y-93426547D01*
X190865894Y-93262666D01*
X190900500Y-93088691D01*
X190900500Y-92911309D01*
X190900500Y-92911306D01*
X190900499Y-92911304D01*
X190865896Y-92737341D01*
X190865893Y-92737332D01*
X190798016Y-92573459D01*
X190798009Y-92573446D01*
X190699464Y-92425965D01*
X190699461Y-92425961D01*
X190574038Y-92300538D01*
X190574034Y-92300535D01*
X190426553Y-92201990D01*
X190426540Y-92201983D01*
X190262667Y-92134106D01*
X190262658Y-92134103D01*
X190088694Y-92099500D01*
X190088691Y-92099500D01*
X189911309Y-92099500D01*
X189911306Y-92099500D01*
X189737341Y-92134103D01*
X189737332Y-92134106D01*
X189573459Y-92201983D01*
X189573446Y-92201990D01*
X189425965Y-92300535D01*
X189425961Y-92300538D01*
X189300538Y-92425961D01*
X189300535Y-92425965D01*
X189201990Y-92573446D01*
X189201983Y-92573459D01*
X189134106Y-92737332D01*
X189134103Y-92737341D01*
X189099500Y-92911304D01*
X158700000Y-92911304D01*
X158700000Y-89851304D01*
X161699500Y-89851304D01*
X161699500Y-90028695D01*
X161734103Y-90202658D01*
X161734106Y-90202667D01*
X161801983Y-90366540D01*
X161801990Y-90366553D01*
X161900535Y-90514034D01*
X161900538Y-90514038D01*
X162025961Y-90639461D01*
X162025965Y-90639464D01*
X162173446Y-90738009D01*
X162173459Y-90738016D01*
X162296363Y-90788923D01*
X162337334Y-90805894D01*
X162337336Y-90805894D01*
X162337341Y-90805896D01*
X162511304Y-90840499D01*
X162511307Y-90840500D01*
X162511309Y-90840500D01*
X162688693Y-90840500D01*
X162688694Y-90840499D01*
X162746682Y-90828964D01*
X162862658Y-90805896D01*
X162862661Y-90805894D01*
X162862666Y-90805894D01*
X163026547Y-90738013D01*
X163174035Y-90639464D01*
X163299464Y-90514035D01*
X163398013Y-90366547D01*
X163465894Y-90202666D01*
X163500500Y-90028691D01*
X163500500Y-89911304D01*
X189099500Y-89911304D01*
X189099500Y-90088695D01*
X189134103Y-90262658D01*
X189134106Y-90262667D01*
X189201983Y-90426540D01*
X189201990Y-90426553D01*
X189300535Y-90574034D01*
X189300538Y-90574038D01*
X189425961Y-90699461D01*
X189425965Y-90699464D01*
X189573446Y-90798009D01*
X189573459Y-90798016D01*
X189676024Y-90840499D01*
X189737334Y-90865894D01*
X189737336Y-90865894D01*
X189737341Y-90865896D01*
X189911304Y-90900499D01*
X189911307Y-90900500D01*
X189911309Y-90900500D01*
X190088693Y-90900500D01*
X190088694Y-90900499D01*
X190146682Y-90888964D01*
X190262658Y-90865896D01*
X190262661Y-90865894D01*
X190262666Y-90865894D01*
X190426547Y-90798013D01*
X190574035Y-90699464D01*
X190699464Y-90574035D01*
X190798013Y-90426547D01*
X190865894Y-90262666D01*
X190877831Y-90202658D01*
X190900499Y-90088695D01*
X190900500Y-90088693D01*
X190900500Y-89911306D01*
X190900499Y-89911304D01*
X190865896Y-89737341D01*
X190865893Y-89737332D01*
X190798016Y-89573459D01*
X190798009Y-89573446D01*
X190699464Y-89425965D01*
X190699461Y-89425961D01*
X190574038Y-89300538D01*
X190574034Y-89300535D01*
X190426553Y-89201990D01*
X190426540Y-89201983D01*
X190262667Y-89134106D01*
X190262658Y-89134103D01*
X190088694Y-89099500D01*
X190088691Y-89099500D01*
X189911309Y-89099500D01*
X189911306Y-89099500D01*
X189737341Y-89134103D01*
X189737332Y-89134106D01*
X189573459Y-89201983D01*
X189573446Y-89201990D01*
X189425965Y-89300535D01*
X189425961Y-89300538D01*
X189300538Y-89425961D01*
X189300535Y-89425965D01*
X189201990Y-89573446D01*
X189201983Y-89573459D01*
X189134106Y-89737332D01*
X189134103Y-89737341D01*
X189099500Y-89911304D01*
X163500500Y-89911304D01*
X163500500Y-89851309D01*
X163500500Y-89851306D01*
X163500499Y-89851304D01*
X163465896Y-89677341D01*
X163465893Y-89677332D01*
X163398016Y-89513459D01*
X163398009Y-89513446D01*
X163299464Y-89365965D01*
X163299461Y-89365961D01*
X163174038Y-89240538D01*
X163174034Y-89240535D01*
X163026553Y-89141990D01*
X163026540Y-89141983D01*
X162862667Y-89074106D01*
X162862658Y-89074103D01*
X162688694Y-89039500D01*
X162688691Y-89039500D01*
X162511309Y-89039500D01*
X162511306Y-89039500D01*
X162337341Y-89074103D01*
X162337332Y-89074106D01*
X162173459Y-89141983D01*
X162173446Y-89141990D01*
X162025965Y-89240535D01*
X162025961Y-89240538D01*
X161900538Y-89365961D01*
X161900535Y-89365965D01*
X161801990Y-89513446D01*
X161801983Y-89513459D01*
X161734106Y-89677332D01*
X161734103Y-89677341D01*
X161699500Y-89851304D01*
X158700000Y-89851304D01*
X158700000Y-88313705D01*
X168699500Y-88313705D01*
X168699500Y-88491096D01*
X168734103Y-88665059D01*
X168734106Y-88665068D01*
X168801983Y-88828941D01*
X168801990Y-88828954D01*
X168900535Y-88976435D01*
X168900538Y-88976439D01*
X169025961Y-89101862D01*
X169025965Y-89101865D01*
X169173446Y-89200410D01*
X169173459Y-89200417D01*
X169270317Y-89240536D01*
X169337334Y-89268295D01*
X169337336Y-89268295D01*
X169337341Y-89268297D01*
X169511304Y-89302900D01*
X169511307Y-89302901D01*
X169511309Y-89302901D01*
X169688693Y-89302901D01*
X169688694Y-89302900D01*
X169746682Y-89291365D01*
X169862658Y-89268297D01*
X169862661Y-89268295D01*
X169862666Y-89268295D01*
X170022742Y-89201990D01*
X170026540Y-89200417D01*
X170026540Y-89200416D01*
X170026547Y-89200414D01*
X170174035Y-89101865D01*
X170299464Y-88976436D01*
X170398013Y-88828948D01*
X170465894Y-88665067D01*
X170500500Y-88491092D01*
X170500500Y-88313710D01*
X170500500Y-88313707D01*
X170500499Y-88313705D01*
X170465896Y-88139742D01*
X170465893Y-88139733D01*
X170398016Y-87975860D01*
X170398009Y-87975847D01*
X170299464Y-87828366D01*
X170299461Y-87828362D01*
X170174038Y-87702939D01*
X170174034Y-87702936D01*
X170026553Y-87604391D01*
X170026540Y-87604384D01*
X169862667Y-87536507D01*
X169862658Y-87536504D01*
X169688694Y-87501901D01*
X169688691Y-87501901D01*
X169511309Y-87501901D01*
X169511306Y-87501901D01*
X169337341Y-87536504D01*
X169337332Y-87536507D01*
X169173459Y-87604384D01*
X169173446Y-87604391D01*
X169025965Y-87702936D01*
X169025961Y-87702939D01*
X168900538Y-87828362D01*
X168900535Y-87828366D01*
X168801990Y-87975847D01*
X168801983Y-87975860D01*
X168734106Y-88139733D01*
X168734103Y-88139742D01*
X168699500Y-88313705D01*
X158700000Y-88313705D01*
X158700000Y-86911304D01*
X189099500Y-86911304D01*
X189099500Y-87088695D01*
X189134103Y-87262658D01*
X189134106Y-87262667D01*
X189201983Y-87426540D01*
X189201990Y-87426553D01*
X189300535Y-87574034D01*
X189300538Y-87574038D01*
X189425961Y-87699461D01*
X189425965Y-87699464D01*
X189573446Y-87798009D01*
X189573459Y-87798016D01*
X189646732Y-87828366D01*
X189737334Y-87865894D01*
X189737336Y-87865894D01*
X189737341Y-87865896D01*
X189911304Y-87900499D01*
X189911307Y-87900500D01*
X189911309Y-87900500D01*
X190088693Y-87900500D01*
X190088694Y-87900499D01*
X190146682Y-87888964D01*
X190262658Y-87865896D01*
X190262661Y-87865894D01*
X190262666Y-87865894D01*
X190426547Y-87798013D01*
X190574035Y-87699464D01*
X190699464Y-87574035D01*
X190798013Y-87426547D01*
X190865894Y-87262666D01*
X190900500Y-87088691D01*
X190900500Y-86911309D01*
X190900500Y-86911306D01*
X190900499Y-86911304D01*
X190865896Y-86737341D01*
X190865893Y-86737332D01*
X190798016Y-86573459D01*
X190798009Y-86573446D01*
X190699464Y-86425965D01*
X190699461Y-86425961D01*
X190574038Y-86300538D01*
X190574034Y-86300535D01*
X190426553Y-86201990D01*
X190426540Y-86201983D01*
X190262667Y-86134106D01*
X190262658Y-86134103D01*
X190088694Y-86099500D01*
X190088691Y-86099500D01*
X189911309Y-86099500D01*
X189911306Y-86099500D01*
X189737341Y-86134103D01*
X189737332Y-86134106D01*
X189573459Y-86201983D01*
X189573446Y-86201990D01*
X189425965Y-86300535D01*
X189425961Y-86300538D01*
X189300538Y-86425961D01*
X189300535Y-86425965D01*
X189201990Y-86573446D01*
X189201983Y-86573459D01*
X189134106Y-86737332D01*
X189134103Y-86737341D01*
X189099500Y-86911304D01*
X158700000Y-86911304D01*
X158700000Y-83911304D01*
X189099500Y-83911304D01*
X189099500Y-84088695D01*
X189134103Y-84262658D01*
X189134106Y-84262667D01*
X189201983Y-84426540D01*
X189201990Y-84426553D01*
X189300535Y-84574034D01*
X189300538Y-84574038D01*
X189425961Y-84699461D01*
X189425965Y-84699464D01*
X189573446Y-84798009D01*
X189573459Y-84798016D01*
X189696363Y-84848923D01*
X189737334Y-84865894D01*
X189737336Y-84865894D01*
X189737341Y-84865896D01*
X189911304Y-84900499D01*
X189911307Y-84900500D01*
X189911309Y-84900500D01*
X190088693Y-84900500D01*
X190088694Y-84900499D01*
X190146682Y-84888964D01*
X190262658Y-84865896D01*
X190262661Y-84865894D01*
X190262666Y-84865894D01*
X190426547Y-84798013D01*
X190574035Y-84699464D01*
X190699464Y-84574035D01*
X190798013Y-84426547D01*
X190865894Y-84262666D01*
X190900500Y-84088691D01*
X190900500Y-83911309D01*
X190900500Y-83911306D01*
X190900499Y-83911304D01*
X190865896Y-83737341D01*
X190865893Y-83737332D01*
X190798016Y-83573459D01*
X190798009Y-83573446D01*
X190699464Y-83425965D01*
X190699461Y-83425961D01*
X190574038Y-83300538D01*
X190574034Y-83300535D01*
X190426553Y-83201990D01*
X190426540Y-83201983D01*
X190262667Y-83134106D01*
X190262658Y-83134103D01*
X190088694Y-83099500D01*
X190088691Y-83099500D01*
X189911309Y-83099500D01*
X189911306Y-83099500D01*
X189737341Y-83134103D01*
X189737332Y-83134106D01*
X189573459Y-83201983D01*
X189573446Y-83201990D01*
X189425965Y-83300535D01*
X189425961Y-83300538D01*
X189300538Y-83425961D01*
X189300535Y-83425965D01*
X189201990Y-83573446D01*
X189201983Y-83573459D01*
X189134106Y-83737332D01*
X189134103Y-83737341D01*
X189099500Y-83911304D01*
X158700000Y-83911304D01*
X158700000Y-81911304D01*
X182099500Y-81911304D01*
X182099500Y-82088695D01*
X182134103Y-82262658D01*
X182134106Y-82262667D01*
X182201983Y-82426540D01*
X182201990Y-82426553D01*
X182300535Y-82574034D01*
X182300538Y-82574038D01*
X182425961Y-82699461D01*
X182425965Y-82699464D01*
X182573446Y-82798009D01*
X182573459Y-82798016D01*
X182696363Y-82848923D01*
X182737334Y-82865894D01*
X182737336Y-82865894D01*
X182737341Y-82865896D01*
X182911304Y-82900499D01*
X182911307Y-82900500D01*
X182911309Y-82900500D01*
X183088693Y-82900500D01*
X183088694Y-82900499D01*
X183146682Y-82888964D01*
X183262658Y-82865896D01*
X183262661Y-82865894D01*
X183262666Y-82865894D01*
X183426547Y-82798013D01*
X183574035Y-82699464D01*
X183699464Y-82574035D01*
X183798013Y-82426547D01*
X183865894Y-82262666D01*
X183900500Y-82088691D01*
X183900500Y-81911309D01*
X183900500Y-81911306D01*
X183900499Y-81911304D01*
X185099500Y-81911304D01*
X185099500Y-82088695D01*
X185134103Y-82262658D01*
X185134106Y-82262667D01*
X185201983Y-82426540D01*
X185201990Y-82426553D01*
X185300535Y-82574034D01*
X185300538Y-82574038D01*
X185425961Y-82699461D01*
X185425965Y-82699464D01*
X185573446Y-82798009D01*
X185573459Y-82798016D01*
X185696363Y-82848923D01*
X185737334Y-82865894D01*
X185737336Y-82865894D01*
X185737341Y-82865896D01*
X185911304Y-82900499D01*
X185911307Y-82900500D01*
X185911309Y-82900500D01*
X186088693Y-82900500D01*
X186088694Y-82900499D01*
X186146682Y-82888964D01*
X186262658Y-82865896D01*
X186262661Y-82865894D01*
X186262666Y-82865894D01*
X186426547Y-82798013D01*
X186574035Y-82699464D01*
X186699464Y-82574035D01*
X186798013Y-82426547D01*
X186865894Y-82262666D01*
X186900500Y-82088691D01*
X186900500Y-81911309D01*
X186900500Y-81911306D01*
X186900499Y-81911304D01*
X188099500Y-81911304D01*
X188099500Y-82088695D01*
X188134103Y-82262658D01*
X188134106Y-82262667D01*
X188201983Y-82426540D01*
X188201990Y-82426553D01*
X188300535Y-82574034D01*
X188300538Y-82574038D01*
X188425961Y-82699461D01*
X188425965Y-82699464D01*
X188573446Y-82798009D01*
X188573459Y-82798016D01*
X188696363Y-82848923D01*
X188737334Y-82865894D01*
X188737336Y-82865894D01*
X188737341Y-82865896D01*
X188911304Y-82900499D01*
X188911307Y-82900500D01*
X188911309Y-82900500D01*
X189088693Y-82900500D01*
X189088694Y-82900499D01*
X189146682Y-82888964D01*
X189262658Y-82865896D01*
X189262661Y-82865894D01*
X189262666Y-82865894D01*
X189426547Y-82798013D01*
X189574035Y-82699464D01*
X189699464Y-82574035D01*
X189798013Y-82426547D01*
X189865894Y-82262666D01*
X189900500Y-82088691D01*
X189900500Y-81911309D01*
X189900500Y-81911306D01*
X189900499Y-81911304D01*
X189865896Y-81737341D01*
X189865893Y-81737332D01*
X189798016Y-81573459D01*
X189798009Y-81573446D01*
X189699464Y-81425965D01*
X189699461Y-81425961D01*
X189574038Y-81300538D01*
X189574034Y-81300535D01*
X189426553Y-81201990D01*
X189426540Y-81201983D01*
X189262667Y-81134106D01*
X189262658Y-81134103D01*
X189088694Y-81099500D01*
X189088691Y-81099500D01*
X188911309Y-81099500D01*
X188911306Y-81099500D01*
X188737341Y-81134103D01*
X188737332Y-81134106D01*
X188573459Y-81201983D01*
X188573446Y-81201990D01*
X188425965Y-81300535D01*
X188425961Y-81300538D01*
X188300538Y-81425961D01*
X188300535Y-81425965D01*
X188201990Y-81573446D01*
X188201983Y-81573459D01*
X188134106Y-81737332D01*
X188134103Y-81737341D01*
X188099500Y-81911304D01*
X186900499Y-81911304D01*
X186865896Y-81737341D01*
X186865893Y-81737332D01*
X186798016Y-81573459D01*
X186798009Y-81573446D01*
X186699464Y-81425965D01*
X186699461Y-81425961D01*
X186574038Y-81300538D01*
X186574034Y-81300535D01*
X186426553Y-81201990D01*
X186426540Y-81201983D01*
X186262667Y-81134106D01*
X186262658Y-81134103D01*
X186088694Y-81099500D01*
X186088691Y-81099500D01*
X185911309Y-81099500D01*
X185911306Y-81099500D01*
X185737341Y-81134103D01*
X185737332Y-81134106D01*
X185573459Y-81201983D01*
X185573446Y-81201990D01*
X185425965Y-81300535D01*
X185425961Y-81300538D01*
X185300538Y-81425961D01*
X185300535Y-81425965D01*
X185201990Y-81573446D01*
X185201983Y-81573459D01*
X185134106Y-81737332D01*
X185134103Y-81737341D01*
X185099500Y-81911304D01*
X183900499Y-81911304D01*
X183865896Y-81737341D01*
X183865893Y-81737332D01*
X183798016Y-81573459D01*
X183798009Y-81573446D01*
X183699464Y-81425965D01*
X183699461Y-81425961D01*
X183574038Y-81300538D01*
X183574034Y-81300535D01*
X183426553Y-81201990D01*
X183426540Y-81201983D01*
X183262667Y-81134106D01*
X183262658Y-81134103D01*
X183088694Y-81099500D01*
X183088691Y-81099500D01*
X182911309Y-81099500D01*
X182911306Y-81099500D01*
X182737341Y-81134103D01*
X182737332Y-81134106D01*
X182573459Y-81201983D01*
X182573446Y-81201990D01*
X182425965Y-81300535D01*
X182425961Y-81300538D01*
X182300538Y-81425961D01*
X182300535Y-81425965D01*
X182201990Y-81573446D01*
X182201983Y-81573459D01*
X182134106Y-81737332D01*
X182134103Y-81737341D01*
X182099500Y-81911304D01*
X158700000Y-81911304D01*
X158700000Y-80611304D01*
X174362000Y-80611304D01*
X174362000Y-80788695D01*
X174396603Y-80962658D01*
X174396606Y-80962667D01*
X174464483Y-81126540D01*
X174464490Y-81126553D01*
X174563035Y-81274034D01*
X174563038Y-81274038D01*
X174688461Y-81399461D01*
X174688465Y-81399464D01*
X174835946Y-81498009D01*
X174835959Y-81498016D01*
X174958863Y-81548923D01*
X174999834Y-81565894D01*
X174999836Y-81565894D01*
X174999841Y-81565896D01*
X175173804Y-81600499D01*
X175173807Y-81600500D01*
X175173809Y-81600500D01*
X175351193Y-81600500D01*
X175351194Y-81600499D01*
X175409182Y-81588964D01*
X175525158Y-81565896D01*
X175525161Y-81565894D01*
X175525166Y-81565894D01*
X175689047Y-81498013D01*
X175836535Y-81399464D01*
X175961964Y-81274035D01*
X176060513Y-81126547D01*
X176128394Y-80962666D01*
X176163000Y-80788691D01*
X176163000Y-80611309D01*
X176163000Y-80611306D01*
X176162999Y-80611304D01*
X176128396Y-80437341D01*
X176128393Y-80437332D01*
X176060516Y-80273459D01*
X176060509Y-80273446D01*
X175961964Y-80125965D01*
X175961961Y-80125961D01*
X175836538Y-80000538D01*
X175836534Y-80000535D01*
X175689053Y-79901990D01*
X175689040Y-79901983D01*
X175525167Y-79834106D01*
X175525158Y-79834103D01*
X175351194Y-79799500D01*
X175351191Y-79799500D01*
X175173809Y-79799500D01*
X175173806Y-79799500D01*
X174999841Y-79834103D01*
X174999832Y-79834106D01*
X174835959Y-79901983D01*
X174835946Y-79901990D01*
X174688465Y-80000535D01*
X174688461Y-80000538D01*
X174563038Y-80125961D01*
X174563035Y-80125965D01*
X174464490Y-80273446D01*
X174464483Y-80273459D01*
X174396606Y-80437332D01*
X174396603Y-80437341D01*
X174362000Y-80611304D01*
X158700000Y-80611304D01*
X158700000Y-79600000D01*
X142316366Y-79600000D01*
X142249327Y-79580315D01*
X142203572Y-79527511D01*
X142193628Y-79458353D01*
X142222653Y-79394797D01*
X142228685Y-79388319D01*
X142394260Y-79222743D01*
X142394265Y-79222738D01*
X142541936Y-79030289D01*
X142610632Y-78911304D01*
X182099500Y-78911304D01*
X182099500Y-79088695D01*
X182134103Y-79262658D01*
X182134106Y-79262667D01*
X182201983Y-79426540D01*
X182201990Y-79426553D01*
X182300535Y-79574034D01*
X182300538Y-79574038D01*
X182425961Y-79699461D01*
X182425965Y-79699464D01*
X182573446Y-79798009D01*
X182573459Y-79798016D01*
X182660583Y-79834103D01*
X182737334Y-79865894D01*
X182737336Y-79865894D01*
X182737341Y-79865896D01*
X182911304Y-79900499D01*
X182911307Y-79900500D01*
X182911309Y-79900500D01*
X183088693Y-79900500D01*
X183088694Y-79900499D01*
X183146682Y-79888964D01*
X183262658Y-79865896D01*
X183262661Y-79865894D01*
X183262666Y-79865894D01*
X183426547Y-79798013D01*
X183574035Y-79699464D01*
X183699464Y-79574035D01*
X183798013Y-79426547D01*
X183865894Y-79262666D01*
X183900500Y-79088691D01*
X183900500Y-78911309D01*
X183900500Y-78911306D01*
X183900499Y-78911304D01*
X183865896Y-78737341D01*
X183865893Y-78737332D01*
X183798016Y-78573459D01*
X183798009Y-78573446D01*
X183699464Y-78425965D01*
X183699461Y-78425961D01*
X183574038Y-78300538D01*
X183574034Y-78300535D01*
X183426553Y-78201990D01*
X183426540Y-78201983D01*
X183262667Y-78134106D01*
X183262658Y-78134103D01*
X183088694Y-78099500D01*
X183088691Y-78099500D01*
X182911309Y-78099500D01*
X182911306Y-78099500D01*
X182737341Y-78134103D01*
X182737332Y-78134106D01*
X182573459Y-78201983D01*
X182573446Y-78201990D01*
X182425965Y-78300535D01*
X182425961Y-78300538D01*
X182300538Y-78425961D01*
X182300535Y-78425965D01*
X182201990Y-78573446D01*
X182201983Y-78573459D01*
X182134106Y-78737332D01*
X182134103Y-78737341D01*
X182099500Y-78911304D01*
X142610632Y-78911304D01*
X142663224Y-78820212D01*
X142756054Y-78596100D01*
X142818838Y-78361789D01*
X142850500Y-78121288D01*
X142850500Y-77890395D01*
X144155307Y-77890395D01*
X144155307Y-78067786D01*
X144189910Y-78241749D01*
X144189913Y-78241758D01*
X144257790Y-78405631D01*
X144257797Y-78405644D01*
X144356342Y-78553125D01*
X144356345Y-78553129D01*
X144481768Y-78678552D01*
X144481772Y-78678555D01*
X144629253Y-78777100D01*
X144629266Y-78777107D01*
X144733316Y-78820205D01*
X144793141Y-78844985D01*
X144793143Y-78844985D01*
X144793148Y-78844987D01*
X144967111Y-78879590D01*
X144967114Y-78879591D01*
X144967116Y-78879591D01*
X145144500Y-78879591D01*
X145144501Y-78879590D01*
X145202489Y-78868055D01*
X145318465Y-78844987D01*
X145318468Y-78844985D01*
X145318473Y-78844985D01*
X145482354Y-78777104D01*
X145629842Y-78678555D01*
X145755271Y-78553126D01*
X145853820Y-78405638D01*
X145921701Y-78241757D01*
X145956307Y-78067782D01*
X145956307Y-77890400D01*
X145953982Y-77878711D01*
X185149500Y-77878711D01*
X185149500Y-78121288D01*
X185181161Y-78361785D01*
X185243947Y-78596104D01*
X185318918Y-78777100D01*
X185336776Y-78820212D01*
X185458064Y-79030289D01*
X185458066Y-79030292D01*
X185458067Y-79030293D01*
X185605733Y-79222736D01*
X185605739Y-79222743D01*
X185777256Y-79394260D01*
X185777263Y-79394266D01*
X185849431Y-79449642D01*
X185969711Y-79541936D01*
X186179788Y-79663224D01*
X186403900Y-79756054D01*
X186638211Y-79818838D01*
X186818586Y-79842584D01*
X186878711Y-79850500D01*
X186878712Y-79850500D01*
X187121289Y-79850500D01*
X187169388Y-79844167D01*
X187361789Y-79818838D01*
X187596100Y-79756054D01*
X187820212Y-79663224D01*
X188030289Y-79541936D01*
X188222738Y-79394265D01*
X188394265Y-79222738D01*
X188541936Y-79030289D01*
X188663224Y-78820212D01*
X188756054Y-78596100D01*
X188818838Y-78361789D01*
X188850500Y-78121288D01*
X188850500Y-77878712D01*
X188818838Y-77638211D01*
X188756054Y-77403900D01*
X188663224Y-77179788D01*
X188541936Y-76969711D01*
X188394265Y-76777262D01*
X188394260Y-76777256D01*
X188222743Y-76605739D01*
X188222736Y-76605733D01*
X188030293Y-76458067D01*
X188030292Y-76458066D01*
X188030289Y-76458064D01*
X187820212Y-76336776D01*
X187820205Y-76336773D01*
X187596104Y-76243947D01*
X187361785Y-76181161D01*
X187121289Y-76149500D01*
X187121288Y-76149500D01*
X186878712Y-76149500D01*
X186878711Y-76149500D01*
X186638214Y-76181161D01*
X186403895Y-76243947D01*
X186179794Y-76336773D01*
X186179785Y-76336777D01*
X185969706Y-76458067D01*
X185777263Y-76605733D01*
X185777256Y-76605739D01*
X185605739Y-76777256D01*
X185605733Y-76777263D01*
X185458067Y-76969706D01*
X185336777Y-77179785D01*
X185336773Y-77179794D01*
X185243947Y-77403895D01*
X185181161Y-77638214D01*
X185149500Y-77878711D01*
X145953982Y-77878711D01*
X145947424Y-77845745D01*
X145921703Y-77716432D01*
X145921700Y-77716423D01*
X145853823Y-77552550D01*
X145853816Y-77552537D01*
X145755271Y-77405056D01*
X145755268Y-77405052D01*
X145629845Y-77279629D01*
X145629841Y-77279626D01*
X145482360Y-77181081D01*
X145482347Y-77181074D01*
X145318474Y-77113197D01*
X145318465Y-77113194D01*
X145144501Y-77078591D01*
X145144498Y-77078591D01*
X144967116Y-77078591D01*
X144967113Y-77078591D01*
X144793148Y-77113194D01*
X144793139Y-77113197D01*
X144629266Y-77181074D01*
X144629253Y-77181081D01*
X144481772Y-77279626D01*
X144481768Y-77279629D01*
X144356345Y-77405052D01*
X144356342Y-77405056D01*
X144257797Y-77552537D01*
X144257790Y-77552550D01*
X144189913Y-77716423D01*
X144189910Y-77716432D01*
X144155307Y-77890395D01*
X142850500Y-77890395D01*
X142850500Y-77878712D01*
X142818838Y-77638211D01*
X142756054Y-77403900D01*
X142663224Y-77179788D01*
X142541936Y-76969711D01*
X142394265Y-76777262D01*
X142394260Y-76777256D01*
X142222743Y-76605739D01*
X142222736Y-76605733D01*
X142030293Y-76458067D01*
X142030292Y-76458066D01*
X142030289Y-76458064D01*
X141820212Y-76336776D01*
X141820205Y-76336773D01*
X141596104Y-76243947D01*
X141361785Y-76181161D01*
X141121289Y-76149500D01*
X141121288Y-76149500D01*
X140878712Y-76149500D01*
X140878711Y-76149500D01*
X140638214Y-76181161D01*
X140403895Y-76243947D01*
X140179794Y-76336773D01*
X140179785Y-76336777D01*
X139969706Y-76458067D01*
X139777263Y-76605733D01*
X139777256Y-76605739D01*
X139605739Y-76777256D01*
X139605733Y-76777263D01*
X139458067Y-76969706D01*
X139336777Y-77179785D01*
X139336773Y-77179794D01*
X139243947Y-77403895D01*
X139181161Y-77638214D01*
X139149500Y-77878711D01*
X139149500Y-78121288D01*
X139181161Y-78361785D01*
X139243947Y-78596104D01*
X139318918Y-78777100D01*
X139336776Y-78820212D01*
X139458064Y-79030289D01*
X139458066Y-79030292D01*
X139458067Y-79030293D01*
X139605733Y-79222736D01*
X139605739Y-79222743D01*
X139771315Y-79388319D01*
X139804800Y-79449642D01*
X139799816Y-79519334D01*
X139757944Y-79575267D01*
X139692480Y-79599684D01*
X139683634Y-79600000D01*
X136484500Y-79600000D01*
X136417461Y-79580315D01*
X136371706Y-79527511D01*
X136360500Y-79476000D01*
X136360500Y-75911304D01*
X182099500Y-75911304D01*
X182099500Y-76088695D01*
X182134103Y-76262658D01*
X182134106Y-76262667D01*
X182201983Y-76426540D01*
X182201990Y-76426553D01*
X182300535Y-76574034D01*
X182300538Y-76574038D01*
X182425961Y-76699461D01*
X182425965Y-76699464D01*
X182573446Y-76798009D01*
X182573459Y-76798016D01*
X182696363Y-76848923D01*
X182737334Y-76865894D01*
X182737336Y-76865894D01*
X182737341Y-76865896D01*
X182911304Y-76900499D01*
X182911307Y-76900500D01*
X182911309Y-76900500D01*
X183088693Y-76900500D01*
X183088694Y-76900499D01*
X183146682Y-76888964D01*
X183262658Y-76865896D01*
X183262661Y-76865894D01*
X183262666Y-76865894D01*
X183426547Y-76798013D01*
X183574035Y-76699464D01*
X183699464Y-76574035D01*
X183798013Y-76426547D01*
X183865894Y-76262666D01*
X183869618Y-76243947D01*
X183900499Y-76088695D01*
X183900500Y-76088693D01*
X183900500Y-75911306D01*
X183900499Y-75911304D01*
X183865896Y-75737341D01*
X183865893Y-75737332D01*
X183798016Y-75573459D01*
X183798009Y-75573446D01*
X183699464Y-75425965D01*
X183699461Y-75425961D01*
X183574038Y-75300538D01*
X183574034Y-75300535D01*
X183426553Y-75201990D01*
X183426540Y-75201983D01*
X183262667Y-75134106D01*
X183262658Y-75134103D01*
X183088694Y-75099500D01*
X183088691Y-75099500D01*
X182911309Y-75099500D01*
X182911306Y-75099500D01*
X182737341Y-75134103D01*
X182737332Y-75134106D01*
X182573459Y-75201983D01*
X182573446Y-75201990D01*
X182425965Y-75300535D01*
X182425961Y-75300538D01*
X182300538Y-75425961D01*
X182300535Y-75425965D01*
X182201990Y-75573446D01*
X182201983Y-75573459D01*
X182134106Y-75737332D01*
X182134103Y-75737341D01*
X182099500Y-75911304D01*
X136360500Y-75911304D01*
X136360500Y-74911303D01*
X144090190Y-74911303D01*
X144090190Y-75088694D01*
X144124793Y-75262657D01*
X144124796Y-75262666D01*
X144192673Y-75426539D01*
X144192680Y-75426552D01*
X144291225Y-75574033D01*
X144291228Y-75574037D01*
X144416651Y-75699460D01*
X144416655Y-75699463D01*
X144564136Y-75798008D01*
X144564149Y-75798015D01*
X144687053Y-75848922D01*
X144728024Y-75865893D01*
X144728026Y-75865893D01*
X144728031Y-75865895D01*
X144901994Y-75900498D01*
X144901997Y-75900499D01*
X144901999Y-75900499D01*
X145079383Y-75900499D01*
X145079384Y-75900498D01*
X145137372Y-75888963D01*
X145253348Y-75865895D01*
X145253351Y-75865893D01*
X145253356Y-75865893D01*
X145393225Y-75807957D01*
X145417230Y-75798015D01*
X145417230Y-75798014D01*
X145417237Y-75798012D01*
X145564725Y-75699463D01*
X145690154Y-75574034D01*
X145788703Y-75426546D01*
X145856584Y-75262665D01*
X145856584Y-75262660D01*
X145856586Y-75262657D01*
X145891189Y-75088694D01*
X145891190Y-75088692D01*
X145891190Y-74911305D01*
X145891189Y-74911304D01*
X147099500Y-74911304D01*
X147099500Y-75088695D01*
X147134103Y-75262658D01*
X147134106Y-75262667D01*
X147201983Y-75426540D01*
X147201990Y-75426553D01*
X147300535Y-75574034D01*
X147300538Y-75574038D01*
X147425961Y-75699461D01*
X147425965Y-75699464D01*
X147573446Y-75798009D01*
X147573459Y-75798016D01*
X147696363Y-75848923D01*
X147737334Y-75865894D01*
X147737336Y-75865894D01*
X147737341Y-75865896D01*
X147911304Y-75900499D01*
X147911307Y-75900500D01*
X147911309Y-75900500D01*
X148088693Y-75900500D01*
X148088694Y-75900499D01*
X148146682Y-75888964D01*
X148262658Y-75865896D01*
X148262661Y-75865894D01*
X148262666Y-75865894D01*
X148426547Y-75798013D01*
X148574035Y-75699464D01*
X148699464Y-75574035D01*
X148798013Y-75426547D01*
X148865894Y-75262666D01*
X148900500Y-75088691D01*
X148900500Y-74911309D01*
X148900500Y-74911308D01*
X148900500Y-74911306D01*
X148900499Y-74911304D01*
X150099500Y-74911304D01*
X150099500Y-75088695D01*
X150134103Y-75262658D01*
X150134106Y-75262667D01*
X150201983Y-75426540D01*
X150201990Y-75426553D01*
X150300535Y-75574034D01*
X150300538Y-75574038D01*
X150425961Y-75699461D01*
X150425965Y-75699464D01*
X150573446Y-75798009D01*
X150573459Y-75798016D01*
X150696363Y-75848923D01*
X150737334Y-75865894D01*
X150737336Y-75865894D01*
X150737341Y-75865896D01*
X150911304Y-75900499D01*
X150911307Y-75900500D01*
X150911309Y-75900500D01*
X151088693Y-75900500D01*
X151088694Y-75900499D01*
X151146682Y-75888964D01*
X151262658Y-75865896D01*
X151262661Y-75865894D01*
X151262666Y-75865894D01*
X151426547Y-75798013D01*
X151574035Y-75699464D01*
X151699464Y-75574035D01*
X151798013Y-75426547D01*
X151865894Y-75262666D01*
X151900500Y-75088691D01*
X151900500Y-74911309D01*
X151900500Y-74911308D01*
X151900500Y-74911306D01*
X151900499Y-74911304D01*
X153099500Y-74911304D01*
X153099500Y-75088695D01*
X153134103Y-75262658D01*
X153134106Y-75262667D01*
X153201983Y-75426540D01*
X153201990Y-75426553D01*
X153300535Y-75574034D01*
X153300538Y-75574038D01*
X153425961Y-75699461D01*
X153425965Y-75699464D01*
X153573446Y-75798009D01*
X153573459Y-75798016D01*
X153696363Y-75848923D01*
X153737334Y-75865894D01*
X153737336Y-75865894D01*
X153737341Y-75865896D01*
X153911304Y-75900499D01*
X153911307Y-75900500D01*
X153911309Y-75900500D01*
X154088693Y-75900500D01*
X154088694Y-75900499D01*
X154146682Y-75888964D01*
X154262658Y-75865896D01*
X154262661Y-75865894D01*
X154262666Y-75865894D01*
X154426547Y-75798013D01*
X154574035Y-75699464D01*
X154699464Y-75574035D01*
X154798013Y-75426547D01*
X154865894Y-75262666D01*
X154900500Y-75088691D01*
X154900500Y-74911309D01*
X154900500Y-74911308D01*
X154900500Y-74911306D01*
X154900499Y-74911304D01*
X156099500Y-74911304D01*
X156099500Y-75088695D01*
X156134103Y-75262658D01*
X156134106Y-75262667D01*
X156201983Y-75426540D01*
X156201990Y-75426553D01*
X156300535Y-75574034D01*
X156300538Y-75574038D01*
X156425961Y-75699461D01*
X156425965Y-75699464D01*
X156573446Y-75798009D01*
X156573459Y-75798016D01*
X156696363Y-75848923D01*
X156737334Y-75865894D01*
X156737336Y-75865894D01*
X156737341Y-75865896D01*
X156911304Y-75900499D01*
X156911307Y-75900500D01*
X156911309Y-75900500D01*
X157088693Y-75900500D01*
X157088694Y-75900499D01*
X157146682Y-75888964D01*
X157262658Y-75865896D01*
X157262661Y-75865894D01*
X157262666Y-75865894D01*
X157426547Y-75798013D01*
X157574035Y-75699464D01*
X157699464Y-75574035D01*
X157798013Y-75426547D01*
X157865894Y-75262666D01*
X157900500Y-75088691D01*
X157900500Y-74911309D01*
X157900500Y-74911308D01*
X157900500Y-74911306D01*
X157900499Y-74911304D01*
X159099500Y-74911304D01*
X159099500Y-75088695D01*
X159134103Y-75262658D01*
X159134106Y-75262667D01*
X159201983Y-75426540D01*
X159201990Y-75426553D01*
X159300535Y-75574034D01*
X159300538Y-75574038D01*
X159425961Y-75699461D01*
X159425965Y-75699464D01*
X159573446Y-75798009D01*
X159573459Y-75798016D01*
X159696363Y-75848923D01*
X159737334Y-75865894D01*
X159737336Y-75865894D01*
X159737341Y-75865896D01*
X159911304Y-75900499D01*
X159911307Y-75900500D01*
X159911309Y-75900500D01*
X160088693Y-75900500D01*
X160088694Y-75900499D01*
X160146682Y-75888964D01*
X160262658Y-75865896D01*
X160262661Y-75865894D01*
X160262666Y-75865894D01*
X160426547Y-75798013D01*
X160574035Y-75699464D01*
X160699464Y-75574035D01*
X160798013Y-75426547D01*
X160865894Y-75262666D01*
X160900500Y-75088691D01*
X160900500Y-74911309D01*
X160900500Y-74911308D01*
X160900500Y-74911306D01*
X160900499Y-74911304D01*
X162099500Y-74911304D01*
X162099500Y-75088695D01*
X162134103Y-75262658D01*
X162134106Y-75262667D01*
X162201983Y-75426540D01*
X162201990Y-75426553D01*
X162300535Y-75574034D01*
X162300538Y-75574038D01*
X162425961Y-75699461D01*
X162425965Y-75699464D01*
X162573446Y-75798009D01*
X162573459Y-75798016D01*
X162696363Y-75848923D01*
X162737334Y-75865894D01*
X162737336Y-75865894D01*
X162737341Y-75865896D01*
X162911304Y-75900499D01*
X162911307Y-75900500D01*
X162911309Y-75900500D01*
X163088693Y-75900500D01*
X163088694Y-75900499D01*
X163146682Y-75888964D01*
X163262658Y-75865896D01*
X163262661Y-75865894D01*
X163262666Y-75865894D01*
X163426547Y-75798013D01*
X163574035Y-75699464D01*
X163699464Y-75574035D01*
X163798013Y-75426547D01*
X163865894Y-75262666D01*
X163900500Y-75088691D01*
X163900500Y-74911309D01*
X163900500Y-74911308D01*
X163900500Y-74911306D01*
X163900499Y-74911304D01*
X165099500Y-74911304D01*
X165099500Y-75088695D01*
X165134103Y-75262658D01*
X165134106Y-75262667D01*
X165201983Y-75426540D01*
X165201990Y-75426553D01*
X165300535Y-75574034D01*
X165300538Y-75574038D01*
X165425961Y-75699461D01*
X165425965Y-75699464D01*
X165573446Y-75798009D01*
X165573459Y-75798016D01*
X165696363Y-75848923D01*
X165737334Y-75865894D01*
X165737336Y-75865894D01*
X165737341Y-75865896D01*
X165911304Y-75900499D01*
X165911307Y-75900500D01*
X165911309Y-75900500D01*
X166088693Y-75900500D01*
X166088694Y-75900499D01*
X166146682Y-75888964D01*
X166262658Y-75865896D01*
X166262661Y-75865894D01*
X166262666Y-75865894D01*
X166426547Y-75798013D01*
X166574035Y-75699464D01*
X166699464Y-75574035D01*
X166798013Y-75426547D01*
X166865894Y-75262666D01*
X166900500Y-75088691D01*
X166900500Y-74911309D01*
X166900500Y-74911308D01*
X166900500Y-74911306D01*
X166900499Y-74911304D01*
X168099500Y-74911304D01*
X168099500Y-75088695D01*
X168134103Y-75262658D01*
X168134106Y-75262667D01*
X168201983Y-75426540D01*
X168201990Y-75426553D01*
X168300535Y-75574034D01*
X168300538Y-75574038D01*
X168425961Y-75699461D01*
X168425965Y-75699464D01*
X168573446Y-75798009D01*
X168573459Y-75798016D01*
X168696363Y-75848923D01*
X168737334Y-75865894D01*
X168737336Y-75865894D01*
X168737341Y-75865896D01*
X168911304Y-75900499D01*
X168911307Y-75900500D01*
X168911309Y-75900500D01*
X169088693Y-75900500D01*
X169088694Y-75900499D01*
X169146682Y-75888964D01*
X169262658Y-75865896D01*
X169262661Y-75865894D01*
X169262666Y-75865894D01*
X169426547Y-75798013D01*
X169574035Y-75699464D01*
X169699464Y-75574035D01*
X169798013Y-75426547D01*
X169865894Y-75262666D01*
X169900500Y-75088691D01*
X169900500Y-74911309D01*
X169900500Y-74911308D01*
X169900500Y-74911306D01*
X169900499Y-74911304D01*
X171099500Y-74911304D01*
X171099500Y-75088695D01*
X171134103Y-75262658D01*
X171134106Y-75262667D01*
X171201983Y-75426540D01*
X171201990Y-75426553D01*
X171300535Y-75574034D01*
X171300538Y-75574038D01*
X171425961Y-75699461D01*
X171425965Y-75699464D01*
X171573446Y-75798009D01*
X171573459Y-75798016D01*
X171696363Y-75848923D01*
X171737334Y-75865894D01*
X171737336Y-75865894D01*
X171737341Y-75865896D01*
X171911304Y-75900499D01*
X171911307Y-75900500D01*
X171911309Y-75900500D01*
X172088693Y-75900500D01*
X172088694Y-75900499D01*
X172146682Y-75888964D01*
X172262658Y-75865896D01*
X172262661Y-75865894D01*
X172262666Y-75865894D01*
X172426547Y-75798013D01*
X172574035Y-75699464D01*
X172699464Y-75574035D01*
X172798013Y-75426547D01*
X172865894Y-75262666D01*
X172900500Y-75088691D01*
X172900500Y-74911309D01*
X172900500Y-74911308D01*
X172900500Y-74911306D01*
X172900499Y-74911304D01*
X174099500Y-74911304D01*
X174099500Y-75088695D01*
X174134103Y-75262658D01*
X174134106Y-75262667D01*
X174201983Y-75426540D01*
X174201990Y-75426553D01*
X174300535Y-75574034D01*
X174300538Y-75574038D01*
X174425961Y-75699461D01*
X174425965Y-75699464D01*
X174573446Y-75798009D01*
X174573459Y-75798016D01*
X174696363Y-75848923D01*
X174737334Y-75865894D01*
X174737336Y-75865894D01*
X174737341Y-75865896D01*
X174911304Y-75900499D01*
X174911307Y-75900500D01*
X174911309Y-75900500D01*
X175088693Y-75900500D01*
X175088694Y-75900499D01*
X175146682Y-75888964D01*
X175262658Y-75865896D01*
X175262661Y-75865894D01*
X175262666Y-75865894D01*
X175426547Y-75798013D01*
X175574035Y-75699464D01*
X175699464Y-75574035D01*
X175798013Y-75426547D01*
X175865894Y-75262666D01*
X175900500Y-75088691D01*
X175900500Y-74911309D01*
X175900500Y-74911308D01*
X175900500Y-74911306D01*
X175900499Y-74911304D01*
X177099500Y-74911304D01*
X177099500Y-75088695D01*
X177134103Y-75262658D01*
X177134106Y-75262667D01*
X177201983Y-75426540D01*
X177201990Y-75426553D01*
X177300535Y-75574034D01*
X177300538Y-75574038D01*
X177425961Y-75699461D01*
X177425965Y-75699464D01*
X177573446Y-75798009D01*
X177573459Y-75798016D01*
X177696363Y-75848923D01*
X177737334Y-75865894D01*
X177737336Y-75865894D01*
X177737341Y-75865896D01*
X177911304Y-75900499D01*
X177911307Y-75900500D01*
X177911309Y-75900500D01*
X178088693Y-75900500D01*
X178088694Y-75900499D01*
X178146682Y-75888964D01*
X178262658Y-75865896D01*
X178262661Y-75865894D01*
X178262666Y-75865894D01*
X178426547Y-75798013D01*
X178574035Y-75699464D01*
X178699464Y-75574035D01*
X178798013Y-75426547D01*
X178865894Y-75262666D01*
X178900500Y-75088691D01*
X178900500Y-74911309D01*
X178900500Y-74911308D01*
X178900500Y-74911306D01*
X178900499Y-74911304D01*
X180099500Y-74911304D01*
X180099500Y-75088695D01*
X180134103Y-75262658D01*
X180134106Y-75262667D01*
X180201983Y-75426540D01*
X180201990Y-75426553D01*
X180300535Y-75574034D01*
X180300538Y-75574038D01*
X180425961Y-75699461D01*
X180425965Y-75699464D01*
X180573446Y-75798009D01*
X180573459Y-75798016D01*
X180696363Y-75848923D01*
X180737334Y-75865894D01*
X180737336Y-75865894D01*
X180737341Y-75865896D01*
X180911304Y-75900499D01*
X180911307Y-75900500D01*
X180911309Y-75900500D01*
X181088693Y-75900500D01*
X181088694Y-75900499D01*
X181146682Y-75888964D01*
X181262658Y-75865896D01*
X181262661Y-75865894D01*
X181262666Y-75865894D01*
X181426547Y-75798013D01*
X181574035Y-75699464D01*
X181699464Y-75574035D01*
X181798013Y-75426547D01*
X181865894Y-75262666D01*
X181900500Y-75088691D01*
X181900500Y-74911309D01*
X181900500Y-74911308D01*
X181900500Y-74911306D01*
X181900499Y-74911304D01*
X181865896Y-74737341D01*
X181865893Y-74737333D01*
X181848923Y-74696363D01*
X181798016Y-74573459D01*
X181798009Y-74573446D01*
X181699464Y-74425965D01*
X181699461Y-74425961D01*
X181574038Y-74300538D01*
X181574034Y-74300535D01*
X181426553Y-74201990D01*
X181426540Y-74201983D01*
X181262667Y-74134106D01*
X181262658Y-74134103D01*
X181088694Y-74099500D01*
X181088691Y-74099500D01*
X180911309Y-74099500D01*
X180911306Y-74099500D01*
X180737341Y-74134103D01*
X180737332Y-74134106D01*
X180573459Y-74201983D01*
X180573446Y-74201990D01*
X180425965Y-74300535D01*
X180425961Y-74300538D01*
X180300538Y-74425961D01*
X180300535Y-74425965D01*
X180201990Y-74573446D01*
X180201983Y-74573459D01*
X180134106Y-74737332D01*
X180134103Y-74737341D01*
X180099500Y-74911304D01*
X178900499Y-74911304D01*
X178865896Y-74737341D01*
X178865893Y-74737333D01*
X178848923Y-74696363D01*
X178798016Y-74573459D01*
X178798009Y-74573446D01*
X178699464Y-74425965D01*
X178699461Y-74425961D01*
X178574038Y-74300538D01*
X178574034Y-74300535D01*
X178426553Y-74201990D01*
X178426540Y-74201983D01*
X178262667Y-74134106D01*
X178262658Y-74134103D01*
X178088694Y-74099500D01*
X178088691Y-74099500D01*
X177911309Y-74099500D01*
X177911306Y-74099500D01*
X177737341Y-74134103D01*
X177737332Y-74134106D01*
X177573459Y-74201983D01*
X177573446Y-74201990D01*
X177425965Y-74300535D01*
X177425961Y-74300538D01*
X177300538Y-74425961D01*
X177300535Y-74425965D01*
X177201990Y-74573446D01*
X177201983Y-74573459D01*
X177134106Y-74737332D01*
X177134103Y-74737341D01*
X177099500Y-74911304D01*
X175900499Y-74911304D01*
X175865896Y-74737341D01*
X175865893Y-74737333D01*
X175848923Y-74696363D01*
X175798016Y-74573459D01*
X175798009Y-74573446D01*
X175699464Y-74425965D01*
X175699461Y-74425961D01*
X175574038Y-74300538D01*
X175574034Y-74300535D01*
X175426553Y-74201990D01*
X175426540Y-74201983D01*
X175262667Y-74134106D01*
X175262658Y-74134103D01*
X175088694Y-74099500D01*
X175088691Y-74099500D01*
X174911309Y-74099500D01*
X174911306Y-74099500D01*
X174737341Y-74134103D01*
X174737332Y-74134106D01*
X174573459Y-74201983D01*
X174573446Y-74201990D01*
X174425965Y-74300535D01*
X174425961Y-74300538D01*
X174300538Y-74425961D01*
X174300535Y-74425965D01*
X174201990Y-74573446D01*
X174201983Y-74573459D01*
X174134106Y-74737332D01*
X174134103Y-74737341D01*
X174099500Y-74911304D01*
X172900499Y-74911304D01*
X172865896Y-74737341D01*
X172865893Y-74737333D01*
X172848923Y-74696363D01*
X172798016Y-74573459D01*
X172798009Y-74573446D01*
X172699464Y-74425965D01*
X172699461Y-74425961D01*
X172574038Y-74300538D01*
X172574034Y-74300535D01*
X172426553Y-74201990D01*
X172426540Y-74201983D01*
X172262667Y-74134106D01*
X172262658Y-74134103D01*
X172088694Y-74099500D01*
X172088691Y-74099500D01*
X171911309Y-74099500D01*
X171911306Y-74099500D01*
X171737341Y-74134103D01*
X171737332Y-74134106D01*
X171573459Y-74201983D01*
X171573446Y-74201990D01*
X171425965Y-74300535D01*
X171425961Y-74300538D01*
X171300538Y-74425961D01*
X171300535Y-74425965D01*
X171201990Y-74573446D01*
X171201983Y-74573459D01*
X171134106Y-74737332D01*
X171134103Y-74737341D01*
X171099500Y-74911304D01*
X169900499Y-74911304D01*
X169865896Y-74737341D01*
X169865893Y-74737333D01*
X169848923Y-74696363D01*
X169798016Y-74573459D01*
X169798009Y-74573446D01*
X169699464Y-74425965D01*
X169699461Y-74425961D01*
X169574038Y-74300538D01*
X169574034Y-74300535D01*
X169426553Y-74201990D01*
X169426540Y-74201983D01*
X169262667Y-74134106D01*
X169262658Y-74134103D01*
X169088694Y-74099500D01*
X169088691Y-74099500D01*
X168911309Y-74099500D01*
X168911306Y-74099500D01*
X168737341Y-74134103D01*
X168737332Y-74134106D01*
X168573459Y-74201983D01*
X168573446Y-74201990D01*
X168425965Y-74300535D01*
X168425961Y-74300538D01*
X168300538Y-74425961D01*
X168300535Y-74425965D01*
X168201990Y-74573446D01*
X168201983Y-74573459D01*
X168134106Y-74737332D01*
X168134103Y-74737341D01*
X168099500Y-74911304D01*
X166900499Y-74911304D01*
X166865896Y-74737341D01*
X166865893Y-74737333D01*
X166848923Y-74696363D01*
X166798016Y-74573459D01*
X166798009Y-74573446D01*
X166699464Y-74425965D01*
X166699461Y-74425961D01*
X166574038Y-74300538D01*
X166574034Y-74300535D01*
X166426553Y-74201990D01*
X166426540Y-74201983D01*
X166262667Y-74134106D01*
X166262658Y-74134103D01*
X166088694Y-74099500D01*
X166088691Y-74099500D01*
X165911309Y-74099500D01*
X165911306Y-74099500D01*
X165737341Y-74134103D01*
X165737332Y-74134106D01*
X165573459Y-74201983D01*
X165573446Y-74201990D01*
X165425965Y-74300535D01*
X165425961Y-74300538D01*
X165300538Y-74425961D01*
X165300535Y-74425965D01*
X165201990Y-74573446D01*
X165201983Y-74573459D01*
X165134106Y-74737332D01*
X165134103Y-74737341D01*
X165099500Y-74911304D01*
X163900499Y-74911304D01*
X163865896Y-74737341D01*
X163865893Y-74737333D01*
X163848923Y-74696363D01*
X163798016Y-74573459D01*
X163798009Y-74573446D01*
X163699464Y-74425965D01*
X163699461Y-74425961D01*
X163574038Y-74300538D01*
X163574034Y-74300535D01*
X163426553Y-74201990D01*
X163426540Y-74201983D01*
X163262667Y-74134106D01*
X163262658Y-74134103D01*
X163088694Y-74099500D01*
X163088691Y-74099500D01*
X162911309Y-74099500D01*
X162911306Y-74099500D01*
X162737341Y-74134103D01*
X162737332Y-74134106D01*
X162573459Y-74201983D01*
X162573446Y-74201990D01*
X162425965Y-74300535D01*
X162425961Y-74300538D01*
X162300538Y-74425961D01*
X162300535Y-74425965D01*
X162201990Y-74573446D01*
X162201983Y-74573459D01*
X162134106Y-74737332D01*
X162134103Y-74737341D01*
X162099500Y-74911304D01*
X160900499Y-74911304D01*
X160865896Y-74737341D01*
X160865893Y-74737333D01*
X160848923Y-74696363D01*
X160798016Y-74573459D01*
X160798009Y-74573446D01*
X160699464Y-74425965D01*
X160699461Y-74425961D01*
X160574038Y-74300538D01*
X160574034Y-74300535D01*
X160426553Y-74201990D01*
X160426540Y-74201983D01*
X160262667Y-74134106D01*
X160262658Y-74134103D01*
X160088694Y-74099500D01*
X160088691Y-74099500D01*
X159911309Y-74099500D01*
X159911306Y-74099500D01*
X159737341Y-74134103D01*
X159737332Y-74134106D01*
X159573459Y-74201983D01*
X159573446Y-74201990D01*
X159425965Y-74300535D01*
X159425961Y-74300538D01*
X159300538Y-74425961D01*
X159300535Y-74425965D01*
X159201990Y-74573446D01*
X159201983Y-74573459D01*
X159134106Y-74737332D01*
X159134103Y-74737341D01*
X159099500Y-74911304D01*
X157900499Y-74911304D01*
X157865896Y-74737341D01*
X157865893Y-74737333D01*
X157848923Y-74696363D01*
X157798016Y-74573459D01*
X157798009Y-74573446D01*
X157699464Y-74425965D01*
X157699461Y-74425961D01*
X157574038Y-74300538D01*
X157574034Y-74300535D01*
X157426553Y-74201990D01*
X157426540Y-74201983D01*
X157262667Y-74134106D01*
X157262658Y-74134103D01*
X157088694Y-74099500D01*
X157088691Y-74099500D01*
X156911309Y-74099500D01*
X156911306Y-74099500D01*
X156737341Y-74134103D01*
X156737332Y-74134106D01*
X156573459Y-74201983D01*
X156573446Y-74201990D01*
X156425965Y-74300535D01*
X156425961Y-74300538D01*
X156300538Y-74425961D01*
X156300535Y-74425965D01*
X156201990Y-74573446D01*
X156201983Y-74573459D01*
X156134106Y-74737332D01*
X156134103Y-74737341D01*
X156099500Y-74911304D01*
X154900499Y-74911304D01*
X154865896Y-74737341D01*
X154865893Y-74737333D01*
X154848923Y-74696363D01*
X154798016Y-74573459D01*
X154798009Y-74573446D01*
X154699464Y-74425965D01*
X154699461Y-74425961D01*
X154574038Y-74300538D01*
X154574034Y-74300535D01*
X154426553Y-74201990D01*
X154426540Y-74201983D01*
X154262667Y-74134106D01*
X154262658Y-74134103D01*
X154088694Y-74099500D01*
X154088691Y-74099500D01*
X153911309Y-74099500D01*
X153911306Y-74099500D01*
X153737341Y-74134103D01*
X153737332Y-74134106D01*
X153573459Y-74201983D01*
X153573446Y-74201990D01*
X153425965Y-74300535D01*
X153425961Y-74300538D01*
X153300538Y-74425961D01*
X153300535Y-74425965D01*
X153201990Y-74573446D01*
X153201983Y-74573459D01*
X153134106Y-74737332D01*
X153134103Y-74737341D01*
X153099500Y-74911304D01*
X151900499Y-74911304D01*
X151865896Y-74737341D01*
X151865893Y-74737333D01*
X151848923Y-74696363D01*
X151798016Y-74573459D01*
X151798009Y-74573446D01*
X151699464Y-74425965D01*
X151699461Y-74425961D01*
X151574038Y-74300538D01*
X151574034Y-74300535D01*
X151426553Y-74201990D01*
X151426540Y-74201983D01*
X151262667Y-74134106D01*
X151262658Y-74134103D01*
X151088694Y-74099500D01*
X151088691Y-74099500D01*
X150911309Y-74099500D01*
X150911306Y-74099500D01*
X150737341Y-74134103D01*
X150737332Y-74134106D01*
X150573459Y-74201983D01*
X150573446Y-74201990D01*
X150425965Y-74300535D01*
X150425961Y-74300538D01*
X150300538Y-74425961D01*
X150300535Y-74425965D01*
X150201990Y-74573446D01*
X150201983Y-74573459D01*
X150134106Y-74737332D01*
X150134103Y-74737341D01*
X150099500Y-74911304D01*
X148900499Y-74911304D01*
X148865896Y-74737341D01*
X148865893Y-74737333D01*
X148848923Y-74696363D01*
X148798016Y-74573459D01*
X148798009Y-74573446D01*
X148699464Y-74425965D01*
X148699461Y-74425961D01*
X148574038Y-74300538D01*
X148574034Y-74300535D01*
X148426553Y-74201990D01*
X148426540Y-74201983D01*
X148262667Y-74134106D01*
X148262658Y-74134103D01*
X148088694Y-74099500D01*
X148088691Y-74099500D01*
X147911309Y-74099500D01*
X147911306Y-74099500D01*
X147737341Y-74134103D01*
X147737332Y-74134106D01*
X147573459Y-74201983D01*
X147573446Y-74201990D01*
X147425965Y-74300535D01*
X147425961Y-74300538D01*
X147300538Y-74425961D01*
X147300535Y-74425965D01*
X147201990Y-74573446D01*
X147201983Y-74573459D01*
X147134106Y-74737332D01*
X147134103Y-74737341D01*
X147099500Y-74911304D01*
X145891189Y-74911304D01*
X145891189Y-74911303D01*
X145856586Y-74737340D01*
X145856583Y-74737332D01*
X145788706Y-74573459D01*
X145788706Y-74573458D01*
X145788699Y-74573445D01*
X145690154Y-74425964D01*
X145690151Y-74425960D01*
X145564728Y-74300537D01*
X145564724Y-74300534D01*
X145417243Y-74201989D01*
X145417230Y-74201982D01*
X145253357Y-74134105D01*
X145253348Y-74134102D01*
X145079384Y-74099499D01*
X145079381Y-74099499D01*
X144901999Y-74099499D01*
X144901996Y-74099499D01*
X144728031Y-74134102D01*
X144728022Y-74134105D01*
X144564149Y-74201982D01*
X144564136Y-74201989D01*
X144416655Y-74300534D01*
X144416651Y-74300537D01*
X144291228Y-74425960D01*
X144291225Y-74425964D01*
X144192680Y-74573445D01*
X144192673Y-74573458D01*
X144124796Y-74737331D01*
X144124793Y-74737340D01*
X144090190Y-74911303D01*
X136360500Y-74911303D01*
X136360500Y-73524500D01*
X136380185Y-73457461D01*
X136432989Y-73411706D01*
X136484500Y-73400500D01*
X191715500Y-73400500D01*
X191782539Y-73420185D01*
G37*
%TD.AperFunction*%
%TD*%
M02*
