%TF.GenerationSoftware,KiCad,Pcbnew,9.0.2*%
%TF.CreationDate,2025-08-29T05:40:04+02:00*%
%TF.ProjectId,Microphone_OCTAV,4d696372-6f70-4686-9f6e-655f4f435441,rev?*%
%TF.SameCoordinates,Original*%
%TF.FileFunction,Legend,Top*%
%TF.FilePolarity,Positive*%
%FSLAX46Y46*%
G04 Gerber Fmt 4.6, Leading zero omitted, Abs format (unit mm)*
G04 Created by KiCad (PCBNEW 9.0.2) date 2025-08-29 05:40:04*
%MOMM*%
%LPD*%
G01*
G04 APERTURE LIST*
%ADD10C,0.100000*%
%ADD11C,0.150000*%
%ADD12C,0.300000*%
%ADD13C,0.400000*%
%ADD14C,0.254000*%
%ADD15C,0.120000*%
%ADD16C,0.200000*%
%ADD17C,0.152400*%
%ADD18C,0.508000*%
%ADD19C,0.127000*%
G04 APERTURE END LIST*
D10*
D11*
X177002200Y-166007200D02*
X285002200Y-166007200D01*
X285002200Y-198007200D01*
X177002200Y-198007200D01*
X177002200Y-166007200D01*
D10*
D11*
X10000000Y-10000000D02*
X287002200Y-10000000D01*
X287002200Y-200007200D01*
X10000000Y-200007200D01*
X10000000Y-10000000D01*
D10*
D11*
X12000000Y-12000000D02*
X285002200Y-12000000D01*
X285002200Y-198007200D01*
X12000000Y-198007200D01*
X12000000Y-12000000D01*
D10*
D11*
X60000000Y-12000000D02*
X60000000Y-10000000D01*
D10*
D11*
X110000000Y-12000000D02*
X110000000Y-10000000D01*
D10*
D11*
X160000000Y-12000000D02*
X160000000Y-10000000D01*
D10*
D11*
X210000000Y-12000000D02*
X210000000Y-10000000D01*
D10*
D11*
X260000000Y-12000000D02*
X260000000Y-10000000D01*
D10*
D11*
X36089160Y-11593604D02*
X35346303Y-11593604D01*
X35717731Y-11593604D02*
X35717731Y-10293604D01*
X35717731Y-10293604D02*
X35593922Y-10479319D01*
X35593922Y-10479319D02*
X35470112Y-10603128D01*
X35470112Y-10603128D02*
X35346303Y-10665033D01*
D10*
D11*
X85346303Y-10417414D02*
X85408207Y-10355509D01*
X85408207Y-10355509D02*
X85532017Y-10293604D01*
X85532017Y-10293604D02*
X85841541Y-10293604D01*
X85841541Y-10293604D02*
X85965350Y-10355509D01*
X85965350Y-10355509D02*
X86027255Y-10417414D01*
X86027255Y-10417414D02*
X86089160Y-10541223D01*
X86089160Y-10541223D02*
X86089160Y-10665033D01*
X86089160Y-10665033D02*
X86027255Y-10850747D01*
X86027255Y-10850747D02*
X85284398Y-11593604D01*
X85284398Y-11593604D02*
X86089160Y-11593604D01*
D10*
D11*
X135284398Y-10293604D02*
X136089160Y-10293604D01*
X136089160Y-10293604D02*
X135655826Y-10788842D01*
X135655826Y-10788842D02*
X135841541Y-10788842D01*
X135841541Y-10788842D02*
X135965350Y-10850747D01*
X135965350Y-10850747D02*
X136027255Y-10912652D01*
X136027255Y-10912652D02*
X136089160Y-11036461D01*
X136089160Y-11036461D02*
X136089160Y-11345985D01*
X136089160Y-11345985D02*
X136027255Y-11469795D01*
X136027255Y-11469795D02*
X135965350Y-11531700D01*
X135965350Y-11531700D02*
X135841541Y-11593604D01*
X135841541Y-11593604D02*
X135470112Y-11593604D01*
X135470112Y-11593604D02*
X135346303Y-11531700D01*
X135346303Y-11531700D02*
X135284398Y-11469795D01*
D10*
D11*
X185965350Y-10726938D02*
X185965350Y-11593604D01*
X185655826Y-10231700D02*
X185346303Y-11160271D01*
X185346303Y-11160271D02*
X186151064Y-11160271D01*
D10*
D11*
X236027255Y-10293604D02*
X235408207Y-10293604D01*
X235408207Y-10293604D02*
X235346303Y-10912652D01*
X235346303Y-10912652D02*
X235408207Y-10850747D01*
X235408207Y-10850747D02*
X235532017Y-10788842D01*
X235532017Y-10788842D02*
X235841541Y-10788842D01*
X235841541Y-10788842D02*
X235965350Y-10850747D01*
X235965350Y-10850747D02*
X236027255Y-10912652D01*
X236027255Y-10912652D02*
X236089160Y-11036461D01*
X236089160Y-11036461D02*
X236089160Y-11345985D01*
X236089160Y-11345985D02*
X236027255Y-11469795D01*
X236027255Y-11469795D02*
X235965350Y-11531700D01*
X235965350Y-11531700D02*
X235841541Y-11593604D01*
X235841541Y-11593604D02*
X235532017Y-11593604D01*
X235532017Y-11593604D02*
X235408207Y-11531700D01*
X235408207Y-11531700D02*
X235346303Y-11469795D01*
D10*
D11*
X285965350Y-10293604D02*
X285717731Y-10293604D01*
X285717731Y-10293604D02*
X285593922Y-10355509D01*
X285593922Y-10355509D02*
X285532017Y-10417414D01*
X285532017Y-10417414D02*
X285408207Y-10603128D01*
X285408207Y-10603128D02*
X285346303Y-10850747D01*
X285346303Y-10850747D02*
X285346303Y-11345985D01*
X285346303Y-11345985D02*
X285408207Y-11469795D01*
X285408207Y-11469795D02*
X285470112Y-11531700D01*
X285470112Y-11531700D02*
X285593922Y-11593604D01*
X285593922Y-11593604D02*
X285841541Y-11593604D01*
X285841541Y-11593604D02*
X285965350Y-11531700D01*
X285965350Y-11531700D02*
X286027255Y-11469795D01*
X286027255Y-11469795D02*
X286089160Y-11345985D01*
X286089160Y-11345985D02*
X286089160Y-11036461D01*
X286089160Y-11036461D02*
X286027255Y-10912652D01*
X286027255Y-10912652D02*
X285965350Y-10850747D01*
X285965350Y-10850747D02*
X285841541Y-10788842D01*
X285841541Y-10788842D02*
X285593922Y-10788842D01*
X285593922Y-10788842D02*
X285470112Y-10850747D01*
X285470112Y-10850747D02*
X285408207Y-10912652D01*
X285408207Y-10912652D02*
X285346303Y-11036461D01*
D10*
D11*
X60000000Y-198007200D02*
X60000000Y-200007200D01*
D10*
D11*
X110000000Y-198007200D02*
X110000000Y-200007200D01*
D10*
D11*
X160000000Y-198007200D02*
X160000000Y-200007200D01*
D10*
D11*
X210000000Y-198007200D02*
X210000000Y-200007200D01*
D10*
D11*
X260000000Y-198007200D02*
X260000000Y-200007200D01*
D10*
D11*
X36089160Y-199600804D02*
X35346303Y-199600804D01*
X35717731Y-199600804D02*
X35717731Y-198300804D01*
X35717731Y-198300804D02*
X35593922Y-198486519D01*
X35593922Y-198486519D02*
X35470112Y-198610328D01*
X35470112Y-198610328D02*
X35346303Y-198672233D01*
D10*
D11*
X85346303Y-198424614D02*
X85408207Y-198362709D01*
X85408207Y-198362709D02*
X85532017Y-198300804D01*
X85532017Y-198300804D02*
X85841541Y-198300804D01*
X85841541Y-198300804D02*
X85965350Y-198362709D01*
X85965350Y-198362709D02*
X86027255Y-198424614D01*
X86027255Y-198424614D02*
X86089160Y-198548423D01*
X86089160Y-198548423D02*
X86089160Y-198672233D01*
X86089160Y-198672233D02*
X86027255Y-198857947D01*
X86027255Y-198857947D02*
X85284398Y-199600804D01*
X85284398Y-199600804D02*
X86089160Y-199600804D01*
D10*
D11*
X135284398Y-198300804D02*
X136089160Y-198300804D01*
X136089160Y-198300804D02*
X135655826Y-198796042D01*
X135655826Y-198796042D02*
X135841541Y-198796042D01*
X135841541Y-198796042D02*
X135965350Y-198857947D01*
X135965350Y-198857947D02*
X136027255Y-198919852D01*
X136027255Y-198919852D02*
X136089160Y-199043661D01*
X136089160Y-199043661D02*
X136089160Y-199353185D01*
X136089160Y-199353185D02*
X136027255Y-199476995D01*
X136027255Y-199476995D02*
X135965350Y-199538900D01*
X135965350Y-199538900D02*
X135841541Y-199600804D01*
X135841541Y-199600804D02*
X135470112Y-199600804D01*
X135470112Y-199600804D02*
X135346303Y-199538900D01*
X135346303Y-199538900D02*
X135284398Y-199476995D01*
D10*
D11*
X185965350Y-198734138D02*
X185965350Y-199600804D01*
X185655826Y-198238900D02*
X185346303Y-199167471D01*
X185346303Y-199167471D02*
X186151064Y-199167471D01*
D10*
D11*
X236027255Y-198300804D02*
X235408207Y-198300804D01*
X235408207Y-198300804D02*
X235346303Y-198919852D01*
X235346303Y-198919852D02*
X235408207Y-198857947D01*
X235408207Y-198857947D02*
X235532017Y-198796042D01*
X235532017Y-198796042D02*
X235841541Y-198796042D01*
X235841541Y-198796042D02*
X235965350Y-198857947D01*
X235965350Y-198857947D02*
X236027255Y-198919852D01*
X236027255Y-198919852D02*
X236089160Y-199043661D01*
X236089160Y-199043661D02*
X236089160Y-199353185D01*
X236089160Y-199353185D02*
X236027255Y-199476995D01*
X236027255Y-199476995D02*
X235965350Y-199538900D01*
X235965350Y-199538900D02*
X235841541Y-199600804D01*
X235841541Y-199600804D02*
X235532017Y-199600804D01*
X235532017Y-199600804D02*
X235408207Y-199538900D01*
X235408207Y-199538900D02*
X235346303Y-199476995D01*
D10*
D11*
X285965350Y-198300804D02*
X285717731Y-198300804D01*
X285717731Y-198300804D02*
X285593922Y-198362709D01*
X285593922Y-198362709D02*
X285532017Y-198424614D01*
X285532017Y-198424614D02*
X285408207Y-198610328D01*
X285408207Y-198610328D02*
X285346303Y-198857947D01*
X285346303Y-198857947D02*
X285346303Y-199353185D01*
X285346303Y-199353185D02*
X285408207Y-199476995D01*
X285408207Y-199476995D02*
X285470112Y-199538900D01*
X285470112Y-199538900D02*
X285593922Y-199600804D01*
X285593922Y-199600804D02*
X285841541Y-199600804D01*
X285841541Y-199600804D02*
X285965350Y-199538900D01*
X285965350Y-199538900D02*
X286027255Y-199476995D01*
X286027255Y-199476995D02*
X286089160Y-199353185D01*
X286089160Y-199353185D02*
X286089160Y-199043661D01*
X286089160Y-199043661D02*
X286027255Y-198919852D01*
X286027255Y-198919852D02*
X285965350Y-198857947D01*
X285965350Y-198857947D02*
X285841541Y-198796042D01*
X285841541Y-198796042D02*
X285593922Y-198796042D01*
X285593922Y-198796042D02*
X285470112Y-198857947D01*
X285470112Y-198857947D02*
X285408207Y-198919852D01*
X285408207Y-198919852D02*
X285346303Y-199043661D01*
D10*
D11*
X10000000Y-60000000D02*
X12000000Y-60000000D01*
D10*
D11*
X10000000Y-110000000D02*
X12000000Y-110000000D01*
D10*
D11*
X10000000Y-160000000D02*
X12000000Y-160000000D01*
D10*
D11*
X10690476Y-35222176D02*
X11309523Y-35222176D01*
X10566666Y-35593604D02*
X10999999Y-34293604D01*
X10999999Y-34293604D02*
X11433333Y-35593604D01*
D10*
D11*
X11092857Y-84912652D02*
X11278571Y-84974557D01*
X11278571Y-84974557D02*
X11340476Y-85036461D01*
X11340476Y-85036461D02*
X11402380Y-85160271D01*
X11402380Y-85160271D02*
X11402380Y-85345985D01*
X11402380Y-85345985D02*
X11340476Y-85469795D01*
X11340476Y-85469795D02*
X11278571Y-85531700D01*
X11278571Y-85531700D02*
X11154761Y-85593604D01*
X11154761Y-85593604D02*
X10659523Y-85593604D01*
X10659523Y-85593604D02*
X10659523Y-84293604D01*
X10659523Y-84293604D02*
X11092857Y-84293604D01*
X11092857Y-84293604D02*
X11216666Y-84355509D01*
X11216666Y-84355509D02*
X11278571Y-84417414D01*
X11278571Y-84417414D02*
X11340476Y-84541223D01*
X11340476Y-84541223D02*
X11340476Y-84665033D01*
X11340476Y-84665033D02*
X11278571Y-84788842D01*
X11278571Y-84788842D02*
X11216666Y-84850747D01*
X11216666Y-84850747D02*
X11092857Y-84912652D01*
X11092857Y-84912652D02*
X10659523Y-84912652D01*
D10*
D11*
X11402380Y-135469795D02*
X11340476Y-135531700D01*
X11340476Y-135531700D02*
X11154761Y-135593604D01*
X11154761Y-135593604D02*
X11030952Y-135593604D01*
X11030952Y-135593604D02*
X10845238Y-135531700D01*
X10845238Y-135531700D02*
X10721428Y-135407890D01*
X10721428Y-135407890D02*
X10659523Y-135284080D01*
X10659523Y-135284080D02*
X10597619Y-135036461D01*
X10597619Y-135036461D02*
X10597619Y-134850747D01*
X10597619Y-134850747D02*
X10659523Y-134603128D01*
X10659523Y-134603128D02*
X10721428Y-134479319D01*
X10721428Y-134479319D02*
X10845238Y-134355509D01*
X10845238Y-134355509D02*
X11030952Y-134293604D01*
X11030952Y-134293604D02*
X11154761Y-134293604D01*
X11154761Y-134293604D02*
X11340476Y-134355509D01*
X11340476Y-134355509D02*
X11402380Y-134417414D01*
D10*
D11*
X10659523Y-185593604D02*
X10659523Y-184293604D01*
X10659523Y-184293604D02*
X10969047Y-184293604D01*
X10969047Y-184293604D02*
X11154761Y-184355509D01*
X11154761Y-184355509D02*
X11278571Y-184479319D01*
X11278571Y-184479319D02*
X11340476Y-184603128D01*
X11340476Y-184603128D02*
X11402380Y-184850747D01*
X11402380Y-184850747D02*
X11402380Y-185036461D01*
X11402380Y-185036461D02*
X11340476Y-185284080D01*
X11340476Y-185284080D02*
X11278571Y-185407890D01*
X11278571Y-185407890D02*
X11154761Y-185531700D01*
X11154761Y-185531700D02*
X10969047Y-185593604D01*
X10969047Y-185593604D02*
X10659523Y-185593604D01*
D10*
D11*
X287002200Y-60000000D02*
X285002200Y-60000000D01*
D10*
D11*
X287002200Y-110000000D02*
X285002200Y-110000000D01*
D10*
D11*
X287002200Y-160000000D02*
X285002200Y-160000000D01*
D10*
D11*
X285692676Y-35222176D02*
X286311723Y-35222176D01*
X285568866Y-35593604D02*
X286002199Y-34293604D01*
X286002199Y-34293604D02*
X286435533Y-35593604D01*
D10*
D11*
X286095057Y-84912652D02*
X286280771Y-84974557D01*
X286280771Y-84974557D02*
X286342676Y-85036461D01*
X286342676Y-85036461D02*
X286404580Y-85160271D01*
X286404580Y-85160271D02*
X286404580Y-85345985D01*
X286404580Y-85345985D02*
X286342676Y-85469795D01*
X286342676Y-85469795D02*
X286280771Y-85531700D01*
X286280771Y-85531700D02*
X286156961Y-85593604D01*
X286156961Y-85593604D02*
X285661723Y-85593604D01*
X285661723Y-85593604D02*
X285661723Y-84293604D01*
X285661723Y-84293604D02*
X286095057Y-84293604D01*
X286095057Y-84293604D02*
X286218866Y-84355509D01*
X286218866Y-84355509D02*
X286280771Y-84417414D01*
X286280771Y-84417414D02*
X286342676Y-84541223D01*
X286342676Y-84541223D02*
X286342676Y-84665033D01*
X286342676Y-84665033D02*
X286280771Y-84788842D01*
X286280771Y-84788842D02*
X286218866Y-84850747D01*
X286218866Y-84850747D02*
X286095057Y-84912652D01*
X286095057Y-84912652D02*
X285661723Y-84912652D01*
D10*
D11*
X286404580Y-135469795D02*
X286342676Y-135531700D01*
X286342676Y-135531700D02*
X286156961Y-135593604D01*
X286156961Y-135593604D02*
X286033152Y-135593604D01*
X286033152Y-135593604D02*
X285847438Y-135531700D01*
X285847438Y-135531700D02*
X285723628Y-135407890D01*
X285723628Y-135407890D02*
X285661723Y-135284080D01*
X285661723Y-135284080D02*
X285599819Y-135036461D01*
X285599819Y-135036461D02*
X285599819Y-134850747D01*
X285599819Y-134850747D02*
X285661723Y-134603128D01*
X285661723Y-134603128D02*
X285723628Y-134479319D01*
X285723628Y-134479319D02*
X285847438Y-134355509D01*
X285847438Y-134355509D02*
X286033152Y-134293604D01*
X286033152Y-134293604D02*
X286156961Y-134293604D01*
X286156961Y-134293604D02*
X286342676Y-134355509D01*
X286342676Y-134355509D02*
X286404580Y-134417414D01*
D10*
D11*
X285661723Y-185593604D02*
X285661723Y-184293604D01*
X285661723Y-184293604D02*
X285971247Y-184293604D01*
X285971247Y-184293604D02*
X286156961Y-184355509D01*
X286156961Y-184355509D02*
X286280771Y-184479319D01*
X286280771Y-184479319D02*
X286342676Y-184603128D01*
X286342676Y-184603128D02*
X286404580Y-184850747D01*
X286404580Y-184850747D02*
X286404580Y-185036461D01*
X286404580Y-185036461D02*
X286342676Y-185284080D01*
X286342676Y-185284080D02*
X286280771Y-185407890D01*
X286280771Y-185407890D02*
X286156961Y-185531700D01*
X286156961Y-185531700D02*
X285971247Y-185593604D01*
X285971247Y-185593604D02*
X285661723Y-185593604D01*
D10*
D11*
X200458026Y-193793328D02*
X200458026Y-192293328D01*
X200458026Y-192293328D02*
X200815169Y-192293328D01*
X200815169Y-192293328D02*
X201029455Y-192364757D01*
X201029455Y-192364757D02*
X201172312Y-192507614D01*
X201172312Y-192507614D02*
X201243741Y-192650471D01*
X201243741Y-192650471D02*
X201315169Y-192936185D01*
X201315169Y-192936185D02*
X201315169Y-193150471D01*
X201315169Y-193150471D02*
X201243741Y-193436185D01*
X201243741Y-193436185D02*
X201172312Y-193579042D01*
X201172312Y-193579042D02*
X201029455Y-193721900D01*
X201029455Y-193721900D02*
X200815169Y-193793328D01*
X200815169Y-193793328D02*
X200458026Y-193793328D01*
X202600884Y-193793328D02*
X202600884Y-193007614D01*
X202600884Y-193007614D02*
X202529455Y-192864757D01*
X202529455Y-192864757D02*
X202386598Y-192793328D01*
X202386598Y-192793328D02*
X202100884Y-192793328D01*
X202100884Y-192793328D02*
X201958026Y-192864757D01*
X202600884Y-193721900D02*
X202458026Y-193793328D01*
X202458026Y-193793328D02*
X202100884Y-193793328D01*
X202100884Y-193793328D02*
X201958026Y-193721900D01*
X201958026Y-193721900D02*
X201886598Y-193579042D01*
X201886598Y-193579042D02*
X201886598Y-193436185D01*
X201886598Y-193436185D02*
X201958026Y-193293328D01*
X201958026Y-193293328D02*
X202100884Y-193221900D01*
X202100884Y-193221900D02*
X202458026Y-193221900D01*
X202458026Y-193221900D02*
X202600884Y-193150471D01*
X203100884Y-192793328D02*
X203672312Y-192793328D01*
X203315169Y-192293328D02*
X203315169Y-193579042D01*
X203315169Y-193579042D02*
X203386598Y-193721900D01*
X203386598Y-193721900D02*
X203529455Y-193793328D01*
X203529455Y-193793328D02*
X203672312Y-193793328D01*
X204743741Y-193721900D02*
X204600884Y-193793328D01*
X204600884Y-193793328D02*
X204315170Y-193793328D01*
X204315170Y-193793328D02*
X204172312Y-193721900D01*
X204172312Y-193721900D02*
X204100884Y-193579042D01*
X204100884Y-193579042D02*
X204100884Y-193007614D01*
X204100884Y-193007614D02*
X204172312Y-192864757D01*
X204172312Y-192864757D02*
X204315170Y-192793328D01*
X204315170Y-192793328D02*
X204600884Y-192793328D01*
X204600884Y-192793328D02*
X204743741Y-192864757D01*
X204743741Y-192864757D02*
X204815170Y-193007614D01*
X204815170Y-193007614D02*
X204815170Y-193150471D01*
X204815170Y-193150471D02*
X204100884Y-193293328D01*
X205458026Y-193650471D02*
X205529455Y-193721900D01*
X205529455Y-193721900D02*
X205458026Y-193793328D01*
X205458026Y-193793328D02*
X205386598Y-193721900D01*
X205386598Y-193721900D02*
X205458026Y-193650471D01*
X205458026Y-193650471D02*
X205458026Y-193793328D01*
X205458026Y-192864757D02*
X205529455Y-192936185D01*
X205529455Y-192936185D02*
X205458026Y-193007614D01*
X205458026Y-193007614D02*
X205386598Y-192936185D01*
X205386598Y-192936185D02*
X205458026Y-192864757D01*
X205458026Y-192864757D02*
X205458026Y-193007614D01*
D10*
D11*
X177002200Y-194507200D02*
X285002200Y-194507200D01*
D10*
D11*
X178458026Y-196593328D02*
X178458026Y-195093328D01*
X179315169Y-196593328D02*
X178672312Y-195736185D01*
X179315169Y-195093328D02*
X178458026Y-195950471D01*
X179958026Y-196593328D02*
X179958026Y-195593328D01*
X179958026Y-195093328D02*
X179886598Y-195164757D01*
X179886598Y-195164757D02*
X179958026Y-195236185D01*
X179958026Y-195236185D02*
X180029455Y-195164757D01*
X180029455Y-195164757D02*
X179958026Y-195093328D01*
X179958026Y-195093328D02*
X179958026Y-195236185D01*
X181529455Y-196450471D02*
X181458027Y-196521900D01*
X181458027Y-196521900D02*
X181243741Y-196593328D01*
X181243741Y-196593328D02*
X181100884Y-196593328D01*
X181100884Y-196593328D02*
X180886598Y-196521900D01*
X180886598Y-196521900D02*
X180743741Y-196379042D01*
X180743741Y-196379042D02*
X180672312Y-196236185D01*
X180672312Y-196236185D02*
X180600884Y-195950471D01*
X180600884Y-195950471D02*
X180600884Y-195736185D01*
X180600884Y-195736185D02*
X180672312Y-195450471D01*
X180672312Y-195450471D02*
X180743741Y-195307614D01*
X180743741Y-195307614D02*
X180886598Y-195164757D01*
X180886598Y-195164757D02*
X181100884Y-195093328D01*
X181100884Y-195093328D02*
X181243741Y-195093328D01*
X181243741Y-195093328D02*
X181458027Y-195164757D01*
X181458027Y-195164757D02*
X181529455Y-195236185D01*
X182815170Y-196593328D02*
X182815170Y-195807614D01*
X182815170Y-195807614D02*
X182743741Y-195664757D01*
X182743741Y-195664757D02*
X182600884Y-195593328D01*
X182600884Y-195593328D02*
X182315170Y-195593328D01*
X182315170Y-195593328D02*
X182172312Y-195664757D01*
X182815170Y-196521900D02*
X182672312Y-196593328D01*
X182672312Y-196593328D02*
X182315170Y-196593328D01*
X182315170Y-196593328D02*
X182172312Y-196521900D01*
X182172312Y-196521900D02*
X182100884Y-196379042D01*
X182100884Y-196379042D02*
X182100884Y-196236185D01*
X182100884Y-196236185D02*
X182172312Y-196093328D01*
X182172312Y-196093328D02*
X182315170Y-196021900D01*
X182315170Y-196021900D02*
X182672312Y-196021900D01*
X182672312Y-196021900D02*
X182815170Y-195950471D01*
X184172313Y-196593328D02*
X184172313Y-195093328D01*
X184172313Y-196521900D02*
X184029455Y-196593328D01*
X184029455Y-196593328D02*
X183743741Y-196593328D01*
X183743741Y-196593328D02*
X183600884Y-196521900D01*
X183600884Y-196521900D02*
X183529455Y-196450471D01*
X183529455Y-196450471D02*
X183458027Y-196307614D01*
X183458027Y-196307614D02*
X183458027Y-195879042D01*
X183458027Y-195879042D02*
X183529455Y-195736185D01*
X183529455Y-195736185D02*
X183600884Y-195664757D01*
X183600884Y-195664757D02*
X183743741Y-195593328D01*
X183743741Y-195593328D02*
X184029455Y-195593328D01*
X184029455Y-195593328D02*
X184172313Y-195664757D01*
X186029455Y-195807614D02*
X186529455Y-195807614D01*
X186743741Y-196593328D02*
X186029455Y-196593328D01*
X186029455Y-196593328D02*
X186029455Y-195093328D01*
X186029455Y-195093328D02*
X186743741Y-195093328D01*
X187386598Y-196450471D02*
X187458027Y-196521900D01*
X187458027Y-196521900D02*
X187386598Y-196593328D01*
X187386598Y-196593328D02*
X187315170Y-196521900D01*
X187315170Y-196521900D02*
X187386598Y-196450471D01*
X187386598Y-196450471D02*
X187386598Y-196593328D01*
X188100884Y-196593328D02*
X188100884Y-195093328D01*
X188100884Y-195093328D02*
X188458027Y-195093328D01*
X188458027Y-195093328D02*
X188672313Y-195164757D01*
X188672313Y-195164757D02*
X188815170Y-195307614D01*
X188815170Y-195307614D02*
X188886599Y-195450471D01*
X188886599Y-195450471D02*
X188958027Y-195736185D01*
X188958027Y-195736185D02*
X188958027Y-195950471D01*
X188958027Y-195950471D02*
X188886599Y-196236185D01*
X188886599Y-196236185D02*
X188815170Y-196379042D01*
X188815170Y-196379042D02*
X188672313Y-196521900D01*
X188672313Y-196521900D02*
X188458027Y-196593328D01*
X188458027Y-196593328D02*
X188100884Y-196593328D01*
X189600884Y-196450471D02*
X189672313Y-196521900D01*
X189672313Y-196521900D02*
X189600884Y-196593328D01*
X189600884Y-196593328D02*
X189529456Y-196521900D01*
X189529456Y-196521900D02*
X189600884Y-196450471D01*
X189600884Y-196450471D02*
X189600884Y-196593328D01*
X190243742Y-196164757D02*
X190958028Y-196164757D01*
X190100885Y-196593328D02*
X190600885Y-195093328D01*
X190600885Y-195093328D02*
X191100885Y-196593328D01*
X191600884Y-196450471D02*
X191672313Y-196521900D01*
X191672313Y-196521900D02*
X191600884Y-196593328D01*
X191600884Y-196593328D02*
X191529456Y-196521900D01*
X191529456Y-196521900D02*
X191600884Y-196450471D01*
X191600884Y-196450471D02*
X191600884Y-196593328D01*
X193529456Y-196593328D02*
X193815170Y-196593328D01*
X193815170Y-196593328D02*
X193958027Y-196521900D01*
X193958027Y-196521900D02*
X194029456Y-196450471D01*
X194029456Y-196450471D02*
X194172313Y-196236185D01*
X194172313Y-196236185D02*
X194243742Y-195950471D01*
X194243742Y-195950471D02*
X194243742Y-195379042D01*
X194243742Y-195379042D02*
X194172313Y-195236185D01*
X194172313Y-195236185D02*
X194100885Y-195164757D01*
X194100885Y-195164757D02*
X193958027Y-195093328D01*
X193958027Y-195093328D02*
X193672313Y-195093328D01*
X193672313Y-195093328D02*
X193529456Y-195164757D01*
X193529456Y-195164757D02*
X193458027Y-195236185D01*
X193458027Y-195236185D02*
X193386599Y-195379042D01*
X193386599Y-195379042D02*
X193386599Y-195736185D01*
X193386599Y-195736185D02*
X193458027Y-195879042D01*
X193458027Y-195879042D02*
X193529456Y-195950471D01*
X193529456Y-195950471D02*
X193672313Y-196021900D01*
X193672313Y-196021900D02*
X193958027Y-196021900D01*
X193958027Y-196021900D02*
X194100885Y-195950471D01*
X194100885Y-195950471D02*
X194172313Y-195879042D01*
X194172313Y-195879042D02*
X194243742Y-195736185D01*
X194886598Y-196450471D02*
X194958027Y-196521900D01*
X194958027Y-196521900D02*
X194886598Y-196593328D01*
X194886598Y-196593328D02*
X194815170Y-196521900D01*
X194815170Y-196521900D02*
X194886598Y-196450471D01*
X194886598Y-196450471D02*
X194886598Y-196593328D01*
X195886599Y-195093328D02*
X196029456Y-195093328D01*
X196029456Y-195093328D02*
X196172313Y-195164757D01*
X196172313Y-195164757D02*
X196243742Y-195236185D01*
X196243742Y-195236185D02*
X196315170Y-195379042D01*
X196315170Y-195379042D02*
X196386599Y-195664757D01*
X196386599Y-195664757D02*
X196386599Y-196021900D01*
X196386599Y-196021900D02*
X196315170Y-196307614D01*
X196315170Y-196307614D02*
X196243742Y-196450471D01*
X196243742Y-196450471D02*
X196172313Y-196521900D01*
X196172313Y-196521900D02*
X196029456Y-196593328D01*
X196029456Y-196593328D02*
X195886599Y-196593328D01*
X195886599Y-196593328D02*
X195743742Y-196521900D01*
X195743742Y-196521900D02*
X195672313Y-196450471D01*
X195672313Y-196450471D02*
X195600884Y-196307614D01*
X195600884Y-196307614D02*
X195529456Y-196021900D01*
X195529456Y-196021900D02*
X195529456Y-195664757D01*
X195529456Y-195664757D02*
X195600884Y-195379042D01*
X195600884Y-195379042D02*
X195672313Y-195236185D01*
X195672313Y-195236185D02*
X195743742Y-195164757D01*
X195743742Y-195164757D02*
X195886599Y-195093328D01*
X197029455Y-196450471D02*
X197100884Y-196521900D01*
X197100884Y-196521900D02*
X197029455Y-196593328D01*
X197029455Y-196593328D02*
X196958027Y-196521900D01*
X196958027Y-196521900D02*
X197029455Y-196450471D01*
X197029455Y-196450471D02*
X197029455Y-196593328D01*
X197672313Y-195236185D02*
X197743741Y-195164757D01*
X197743741Y-195164757D02*
X197886599Y-195093328D01*
X197886599Y-195093328D02*
X198243741Y-195093328D01*
X198243741Y-195093328D02*
X198386599Y-195164757D01*
X198386599Y-195164757D02*
X198458027Y-195236185D01*
X198458027Y-195236185D02*
X198529456Y-195379042D01*
X198529456Y-195379042D02*
X198529456Y-195521900D01*
X198529456Y-195521900D02*
X198458027Y-195736185D01*
X198458027Y-195736185D02*
X197600884Y-196593328D01*
X197600884Y-196593328D02*
X198529456Y-196593328D01*
D10*
D11*
X177002200Y-191507200D02*
X285002200Y-191507200D01*
D10*
D12*
X264413853Y-193785528D02*
X263913853Y-193071242D01*
X263556710Y-193785528D02*
X263556710Y-192285528D01*
X263556710Y-192285528D02*
X264128139Y-192285528D01*
X264128139Y-192285528D02*
X264270996Y-192356957D01*
X264270996Y-192356957D02*
X264342425Y-192428385D01*
X264342425Y-192428385D02*
X264413853Y-192571242D01*
X264413853Y-192571242D02*
X264413853Y-192785528D01*
X264413853Y-192785528D02*
X264342425Y-192928385D01*
X264342425Y-192928385D02*
X264270996Y-192999814D01*
X264270996Y-192999814D02*
X264128139Y-193071242D01*
X264128139Y-193071242D02*
X263556710Y-193071242D01*
X265628139Y-193714100D02*
X265485282Y-193785528D01*
X265485282Y-193785528D02*
X265199568Y-193785528D01*
X265199568Y-193785528D02*
X265056710Y-193714100D01*
X265056710Y-193714100D02*
X264985282Y-193571242D01*
X264985282Y-193571242D02*
X264985282Y-192999814D01*
X264985282Y-192999814D02*
X265056710Y-192856957D01*
X265056710Y-192856957D02*
X265199568Y-192785528D01*
X265199568Y-192785528D02*
X265485282Y-192785528D01*
X265485282Y-192785528D02*
X265628139Y-192856957D01*
X265628139Y-192856957D02*
X265699568Y-192999814D01*
X265699568Y-192999814D02*
X265699568Y-193142671D01*
X265699568Y-193142671D02*
X264985282Y-193285528D01*
X266199567Y-192785528D02*
X266556710Y-193785528D01*
X266556710Y-193785528D02*
X266913853Y-192785528D01*
X267485281Y-193642671D02*
X267556710Y-193714100D01*
X267556710Y-193714100D02*
X267485281Y-193785528D01*
X267485281Y-193785528D02*
X267413853Y-193714100D01*
X267413853Y-193714100D02*
X267485281Y-193642671D01*
X267485281Y-193642671D02*
X267485281Y-193785528D01*
X267485281Y-192856957D02*
X267556710Y-192928385D01*
X267556710Y-192928385D02*
X267485281Y-192999814D01*
X267485281Y-192999814D02*
X267413853Y-192928385D01*
X267413853Y-192928385D02*
X267485281Y-192856957D01*
X267485281Y-192856957D02*
X267485281Y-192999814D01*
D10*
D11*
X178386598Y-193721900D02*
X178600884Y-193793328D01*
X178600884Y-193793328D02*
X178958026Y-193793328D01*
X178958026Y-193793328D02*
X179100884Y-193721900D01*
X179100884Y-193721900D02*
X179172312Y-193650471D01*
X179172312Y-193650471D02*
X179243741Y-193507614D01*
X179243741Y-193507614D02*
X179243741Y-193364757D01*
X179243741Y-193364757D02*
X179172312Y-193221900D01*
X179172312Y-193221900D02*
X179100884Y-193150471D01*
X179100884Y-193150471D02*
X178958026Y-193079042D01*
X178958026Y-193079042D02*
X178672312Y-193007614D01*
X178672312Y-193007614D02*
X178529455Y-192936185D01*
X178529455Y-192936185D02*
X178458026Y-192864757D01*
X178458026Y-192864757D02*
X178386598Y-192721900D01*
X178386598Y-192721900D02*
X178386598Y-192579042D01*
X178386598Y-192579042D02*
X178458026Y-192436185D01*
X178458026Y-192436185D02*
X178529455Y-192364757D01*
X178529455Y-192364757D02*
X178672312Y-192293328D01*
X178672312Y-192293328D02*
X179029455Y-192293328D01*
X179029455Y-192293328D02*
X179243741Y-192364757D01*
X179886597Y-193793328D02*
X179886597Y-192793328D01*
X179886597Y-192293328D02*
X179815169Y-192364757D01*
X179815169Y-192364757D02*
X179886597Y-192436185D01*
X179886597Y-192436185D02*
X179958026Y-192364757D01*
X179958026Y-192364757D02*
X179886597Y-192293328D01*
X179886597Y-192293328D02*
X179886597Y-192436185D01*
X180458026Y-192793328D02*
X181243741Y-192793328D01*
X181243741Y-192793328D02*
X180458026Y-193793328D01*
X180458026Y-193793328D02*
X181243741Y-193793328D01*
X182386598Y-193721900D02*
X182243741Y-193793328D01*
X182243741Y-193793328D02*
X181958027Y-193793328D01*
X181958027Y-193793328D02*
X181815169Y-193721900D01*
X181815169Y-193721900D02*
X181743741Y-193579042D01*
X181743741Y-193579042D02*
X181743741Y-193007614D01*
X181743741Y-193007614D02*
X181815169Y-192864757D01*
X181815169Y-192864757D02*
X181958027Y-192793328D01*
X181958027Y-192793328D02*
X182243741Y-192793328D01*
X182243741Y-192793328D02*
X182386598Y-192864757D01*
X182386598Y-192864757D02*
X182458027Y-193007614D01*
X182458027Y-193007614D02*
X182458027Y-193150471D01*
X182458027Y-193150471D02*
X181743741Y-193293328D01*
X183100883Y-193650471D02*
X183172312Y-193721900D01*
X183172312Y-193721900D02*
X183100883Y-193793328D01*
X183100883Y-193793328D02*
X183029455Y-193721900D01*
X183029455Y-193721900D02*
X183100883Y-193650471D01*
X183100883Y-193650471D02*
X183100883Y-193793328D01*
X183100883Y-192864757D02*
X183172312Y-192936185D01*
X183172312Y-192936185D02*
X183100883Y-193007614D01*
X183100883Y-193007614D02*
X183029455Y-192936185D01*
X183029455Y-192936185D02*
X183100883Y-192864757D01*
X183100883Y-192864757D02*
X183100883Y-193007614D01*
X184886598Y-193364757D02*
X185600884Y-193364757D01*
X184743741Y-193793328D02*
X185243741Y-192293328D01*
X185243741Y-192293328D02*
X185743741Y-193793328D01*
X186886598Y-192793328D02*
X186886598Y-193793328D01*
X186529455Y-192221900D02*
X186172312Y-193293328D01*
X186172312Y-193293328D02*
X187100883Y-193293328D01*
D10*
D11*
X263458026Y-196593328D02*
X263458026Y-195093328D01*
X264815170Y-196593328D02*
X264815170Y-195093328D01*
X264815170Y-196521900D02*
X264672312Y-196593328D01*
X264672312Y-196593328D02*
X264386598Y-196593328D01*
X264386598Y-196593328D02*
X264243741Y-196521900D01*
X264243741Y-196521900D02*
X264172312Y-196450471D01*
X264172312Y-196450471D02*
X264100884Y-196307614D01*
X264100884Y-196307614D02*
X264100884Y-195879042D01*
X264100884Y-195879042D02*
X264172312Y-195736185D01*
X264172312Y-195736185D02*
X264243741Y-195664757D01*
X264243741Y-195664757D02*
X264386598Y-195593328D01*
X264386598Y-195593328D02*
X264672312Y-195593328D01*
X264672312Y-195593328D02*
X264815170Y-195664757D01*
X265529455Y-196450471D02*
X265600884Y-196521900D01*
X265600884Y-196521900D02*
X265529455Y-196593328D01*
X265529455Y-196593328D02*
X265458027Y-196521900D01*
X265458027Y-196521900D02*
X265529455Y-196450471D01*
X265529455Y-196450471D02*
X265529455Y-196593328D01*
X265529455Y-195664757D02*
X265600884Y-195736185D01*
X265600884Y-195736185D02*
X265529455Y-195807614D01*
X265529455Y-195807614D02*
X265458027Y-195736185D01*
X265458027Y-195736185D02*
X265529455Y-195664757D01*
X265529455Y-195664757D02*
X265529455Y-195807614D01*
X267458027Y-196593328D02*
X267743741Y-196593328D01*
X267743741Y-196593328D02*
X267886598Y-196521900D01*
X267886598Y-196521900D02*
X267958027Y-196450471D01*
X267958027Y-196450471D02*
X268100884Y-196236185D01*
X268100884Y-196236185D02*
X268172313Y-195950471D01*
X268172313Y-195950471D02*
X268172313Y-195379042D01*
X268172313Y-195379042D02*
X268100884Y-195236185D01*
X268100884Y-195236185D02*
X268029456Y-195164757D01*
X268029456Y-195164757D02*
X267886598Y-195093328D01*
X267886598Y-195093328D02*
X267600884Y-195093328D01*
X267600884Y-195093328D02*
X267458027Y-195164757D01*
X267458027Y-195164757D02*
X267386598Y-195236185D01*
X267386598Y-195236185D02*
X267315170Y-195379042D01*
X267315170Y-195379042D02*
X267315170Y-195736185D01*
X267315170Y-195736185D02*
X267386598Y-195879042D01*
X267386598Y-195879042D02*
X267458027Y-195950471D01*
X267458027Y-195950471D02*
X267600884Y-196021900D01*
X267600884Y-196021900D02*
X267886598Y-196021900D01*
X267886598Y-196021900D02*
X268029456Y-195950471D01*
X268029456Y-195950471D02*
X268100884Y-195879042D01*
X268100884Y-195879042D02*
X268172313Y-195736185D01*
X269886598Y-195021900D02*
X268600884Y-196950471D01*
X271172313Y-196593328D02*
X270315170Y-196593328D01*
X270743741Y-196593328D02*
X270743741Y-195093328D01*
X270743741Y-195093328D02*
X270600884Y-195307614D01*
X270600884Y-195307614D02*
X270458027Y-195450471D01*
X270458027Y-195450471D02*
X270315170Y-195521900D01*
X271672312Y-195093328D02*
X272672312Y-195093328D01*
X272672312Y-195093328D02*
X272029455Y-196593328D01*
D10*
D11*
X177002200Y-187507200D02*
X285002200Y-187507200D01*
D10*
D13*
X178693928Y-188211638D02*
X179836785Y-188211638D01*
X179015357Y-190211638D02*
X179265357Y-188211638D01*
X180253452Y-190211638D02*
X180420119Y-188878304D01*
X180503452Y-188211638D02*
X180396309Y-188306876D01*
X180396309Y-188306876D02*
X180479643Y-188402114D01*
X180479643Y-188402114D02*
X180586786Y-188306876D01*
X180586786Y-188306876D02*
X180503452Y-188211638D01*
X180503452Y-188211638D02*
X180479643Y-188402114D01*
X181086786Y-188878304D02*
X181848690Y-188878304D01*
X181455833Y-188211638D02*
X181241548Y-189925923D01*
X181241548Y-189925923D02*
X181312976Y-190116400D01*
X181312976Y-190116400D02*
X181491548Y-190211638D01*
X181491548Y-190211638D02*
X181682024Y-190211638D01*
X182634405Y-190211638D02*
X182455833Y-190116400D01*
X182455833Y-190116400D02*
X182384405Y-189925923D01*
X182384405Y-189925923D02*
X182598690Y-188211638D01*
X184170119Y-190116400D02*
X183967738Y-190211638D01*
X183967738Y-190211638D02*
X183586785Y-190211638D01*
X183586785Y-190211638D02*
X183408214Y-190116400D01*
X183408214Y-190116400D02*
X183336785Y-189925923D01*
X183336785Y-189925923D02*
X183432024Y-189164019D01*
X183432024Y-189164019D02*
X183551071Y-188973542D01*
X183551071Y-188973542D02*
X183753452Y-188878304D01*
X183753452Y-188878304D02*
X184134404Y-188878304D01*
X184134404Y-188878304D02*
X184312976Y-188973542D01*
X184312976Y-188973542D02*
X184384404Y-189164019D01*
X184384404Y-189164019D02*
X184360595Y-189354495D01*
X184360595Y-189354495D02*
X183384404Y-189544971D01*
X185134405Y-190021161D02*
X185217738Y-190116400D01*
X185217738Y-190116400D02*
X185110595Y-190211638D01*
X185110595Y-190211638D02*
X185027262Y-190116400D01*
X185027262Y-190116400D02*
X185134405Y-190021161D01*
X185134405Y-190021161D02*
X185110595Y-190211638D01*
X185265357Y-188973542D02*
X185348690Y-189068780D01*
X185348690Y-189068780D02*
X185241548Y-189164019D01*
X185241548Y-189164019D02*
X185158214Y-189068780D01*
X185158214Y-189068780D02*
X185265357Y-188973542D01*
X185265357Y-188973542D02*
X185241548Y-189164019D01*
D10*
D11*
X178958026Y-185607614D02*
X178458026Y-185607614D01*
X178458026Y-186393328D02*
X178458026Y-184893328D01*
X178458026Y-184893328D02*
X179172312Y-184893328D01*
X179743740Y-186393328D02*
X179743740Y-185393328D01*
X179743740Y-184893328D02*
X179672312Y-184964757D01*
X179672312Y-184964757D02*
X179743740Y-185036185D01*
X179743740Y-185036185D02*
X179815169Y-184964757D01*
X179815169Y-184964757D02*
X179743740Y-184893328D01*
X179743740Y-184893328D02*
X179743740Y-185036185D01*
X180672312Y-186393328D02*
X180529455Y-186321900D01*
X180529455Y-186321900D02*
X180458026Y-186179042D01*
X180458026Y-186179042D02*
X180458026Y-184893328D01*
X181815169Y-186321900D02*
X181672312Y-186393328D01*
X181672312Y-186393328D02*
X181386598Y-186393328D01*
X181386598Y-186393328D02*
X181243740Y-186321900D01*
X181243740Y-186321900D02*
X181172312Y-186179042D01*
X181172312Y-186179042D02*
X181172312Y-185607614D01*
X181172312Y-185607614D02*
X181243740Y-185464757D01*
X181243740Y-185464757D02*
X181386598Y-185393328D01*
X181386598Y-185393328D02*
X181672312Y-185393328D01*
X181672312Y-185393328D02*
X181815169Y-185464757D01*
X181815169Y-185464757D02*
X181886598Y-185607614D01*
X181886598Y-185607614D02*
X181886598Y-185750471D01*
X181886598Y-185750471D02*
X181172312Y-185893328D01*
X182529454Y-186250471D02*
X182600883Y-186321900D01*
X182600883Y-186321900D02*
X182529454Y-186393328D01*
X182529454Y-186393328D02*
X182458026Y-186321900D01*
X182458026Y-186321900D02*
X182529454Y-186250471D01*
X182529454Y-186250471D02*
X182529454Y-186393328D01*
X182529454Y-185464757D02*
X182600883Y-185536185D01*
X182600883Y-185536185D02*
X182529454Y-185607614D01*
X182529454Y-185607614D02*
X182458026Y-185536185D01*
X182458026Y-185536185D02*
X182529454Y-185464757D01*
X182529454Y-185464757D02*
X182529454Y-185607614D01*
X184386597Y-186393328D02*
X184386597Y-184893328D01*
X184386597Y-184893328D02*
X184886597Y-185964757D01*
X184886597Y-185964757D02*
X185386597Y-184893328D01*
X185386597Y-184893328D02*
X185386597Y-186393328D01*
X186100883Y-186393328D02*
X186100883Y-185393328D01*
X186100883Y-184893328D02*
X186029455Y-184964757D01*
X186029455Y-184964757D02*
X186100883Y-185036185D01*
X186100883Y-185036185D02*
X186172312Y-184964757D01*
X186172312Y-184964757D02*
X186100883Y-184893328D01*
X186100883Y-184893328D02*
X186100883Y-185036185D01*
X187458027Y-186321900D02*
X187315169Y-186393328D01*
X187315169Y-186393328D02*
X187029455Y-186393328D01*
X187029455Y-186393328D02*
X186886598Y-186321900D01*
X186886598Y-186321900D02*
X186815169Y-186250471D01*
X186815169Y-186250471D02*
X186743741Y-186107614D01*
X186743741Y-186107614D02*
X186743741Y-185679042D01*
X186743741Y-185679042D02*
X186815169Y-185536185D01*
X186815169Y-185536185D02*
X186886598Y-185464757D01*
X186886598Y-185464757D02*
X187029455Y-185393328D01*
X187029455Y-185393328D02*
X187315169Y-185393328D01*
X187315169Y-185393328D02*
X187458027Y-185464757D01*
X188100883Y-186393328D02*
X188100883Y-185393328D01*
X188100883Y-185679042D02*
X188172312Y-185536185D01*
X188172312Y-185536185D02*
X188243741Y-185464757D01*
X188243741Y-185464757D02*
X188386598Y-185393328D01*
X188386598Y-185393328D02*
X188529455Y-185393328D01*
X189243740Y-186393328D02*
X189100883Y-186321900D01*
X189100883Y-186321900D02*
X189029454Y-186250471D01*
X189029454Y-186250471D02*
X188958026Y-186107614D01*
X188958026Y-186107614D02*
X188958026Y-185679042D01*
X188958026Y-185679042D02*
X189029454Y-185536185D01*
X189029454Y-185536185D02*
X189100883Y-185464757D01*
X189100883Y-185464757D02*
X189243740Y-185393328D01*
X189243740Y-185393328D02*
X189458026Y-185393328D01*
X189458026Y-185393328D02*
X189600883Y-185464757D01*
X189600883Y-185464757D02*
X189672312Y-185536185D01*
X189672312Y-185536185D02*
X189743740Y-185679042D01*
X189743740Y-185679042D02*
X189743740Y-186107614D01*
X189743740Y-186107614D02*
X189672312Y-186250471D01*
X189672312Y-186250471D02*
X189600883Y-186321900D01*
X189600883Y-186321900D02*
X189458026Y-186393328D01*
X189458026Y-186393328D02*
X189243740Y-186393328D01*
X190386597Y-185393328D02*
X190386597Y-186893328D01*
X190386597Y-185464757D02*
X190529455Y-185393328D01*
X190529455Y-185393328D02*
X190815169Y-185393328D01*
X190815169Y-185393328D02*
X190958026Y-185464757D01*
X190958026Y-185464757D02*
X191029455Y-185536185D01*
X191029455Y-185536185D02*
X191100883Y-185679042D01*
X191100883Y-185679042D02*
X191100883Y-186107614D01*
X191100883Y-186107614D02*
X191029455Y-186250471D01*
X191029455Y-186250471D02*
X190958026Y-186321900D01*
X190958026Y-186321900D02*
X190815169Y-186393328D01*
X190815169Y-186393328D02*
X190529455Y-186393328D01*
X190529455Y-186393328D02*
X190386597Y-186321900D01*
X191743740Y-186393328D02*
X191743740Y-184893328D01*
X192386598Y-186393328D02*
X192386598Y-185607614D01*
X192386598Y-185607614D02*
X192315169Y-185464757D01*
X192315169Y-185464757D02*
X192172312Y-185393328D01*
X192172312Y-185393328D02*
X191958026Y-185393328D01*
X191958026Y-185393328D02*
X191815169Y-185464757D01*
X191815169Y-185464757D02*
X191743740Y-185536185D01*
X193315169Y-186393328D02*
X193172312Y-186321900D01*
X193172312Y-186321900D02*
X193100883Y-186250471D01*
X193100883Y-186250471D02*
X193029455Y-186107614D01*
X193029455Y-186107614D02*
X193029455Y-185679042D01*
X193029455Y-185679042D02*
X193100883Y-185536185D01*
X193100883Y-185536185D02*
X193172312Y-185464757D01*
X193172312Y-185464757D02*
X193315169Y-185393328D01*
X193315169Y-185393328D02*
X193529455Y-185393328D01*
X193529455Y-185393328D02*
X193672312Y-185464757D01*
X193672312Y-185464757D02*
X193743741Y-185536185D01*
X193743741Y-185536185D02*
X193815169Y-185679042D01*
X193815169Y-185679042D02*
X193815169Y-186107614D01*
X193815169Y-186107614D02*
X193743741Y-186250471D01*
X193743741Y-186250471D02*
X193672312Y-186321900D01*
X193672312Y-186321900D02*
X193529455Y-186393328D01*
X193529455Y-186393328D02*
X193315169Y-186393328D01*
X194458026Y-185393328D02*
X194458026Y-186393328D01*
X194458026Y-185536185D02*
X194529455Y-185464757D01*
X194529455Y-185464757D02*
X194672312Y-185393328D01*
X194672312Y-185393328D02*
X194886598Y-185393328D01*
X194886598Y-185393328D02*
X195029455Y-185464757D01*
X195029455Y-185464757D02*
X195100884Y-185607614D01*
X195100884Y-185607614D02*
X195100884Y-186393328D01*
X196386598Y-186321900D02*
X196243741Y-186393328D01*
X196243741Y-186393328D02*
X195958027Y-186393328D01*
X195958027Y-186393328D02*
X195815169Y-186321900D01*
X195815169Y-186321900D02*
X195743741Y-186179042D01*
X195743741Y-186179042D02*
X195743741Y-185607614D01*
X195743741Y-185607614D02*
X195815169Y-185464757D01*
X195815169Y-185464757D02*
X195958027Y-185393328D01*
X195958027Y-185393328D02*
X196243741Y-185393328D01*
X196243741Y-185393328D02*
X196386598Y-185464757D01*
X196386598Y-185464757D02*
X196458027Y-185607614D01*
X196458027Y-185607614D02*
X196458027Y-185750471D01*
X196458027Y-185750471D02*
X195743741Y-185893328D01*
X196743741Y-186536185D02*
X197886598Y-186536185D01*
X198529455Y-184893328D02*
X198815169Y-184893328D01*
X198815169Y-184893328D02*
X198958026Y-184964757D01*
X198958026Y-184964757D02*
X199100883Y-185107614D01*
X199100883Y-185107614D02*
X199172312Y-185393328D01*
X199172312Y-185393328D02*
X199172312Y-185893328D01*
X199172312Y-185893328D02*
X199100883Y-186179042D01*
X199100883Y-186179042D02*
X198958026Y-186321900D01*
X198958026Y-186321900D02*
X198815169Y-186393328D01*
X198815169Y-186393328D02*
X198529455Y-186393328D01*
X198529455Y-186393328D02*
X198386598Y-186321900D01*
X198386598Y-186321900D02*
X198243740Y-186179042D01*
X198243740Y-186179042D02*
X198172312Y-185893328D01*
X198172312Y-185893328D02*
X198172312Y-185393328D01*
X198172312Y-185393328D02*
X198243740Y-185107614D01*
X198243740Y-185107614D02*
X198386598Y-184964757D01*
X198386598Y-184964757D02*
X198529455Y-184893328D01*
X200672312Y-186250471D02*
X200600884Y-186321900D01*
X200600884Y-186321900D02*
X200386598Y-186393328D01*
X200386598Y-186393328D02*
X200243741Y-186393328D01*
X200243741Y-186393328D02*
X200029455Y-186321900D01*
X200029455Y-186321900D02*
X199886598Y-186179042D01*
X199886598Y-186179042D02*
X199815169Y-186036185D01*
X199815169Y-186036185D02*
X199743741Y-185750471D01*
X199743741Y-185750471D02*
X199743741Y-185536185D01*
X199743741Y-185536185D02*
X199815169Y-185250471D01*
X199815169Y-185250471D02*
X199886598Y-185107614D01*
X199886598Y-185107614D02*
X200029455Y-184964757D01*
X200029455Y-184964757D02*
X200243741Y-184893328D01*
X200243741Y-184893328D02*
X200386598Y-184893328D01*
X200386598Y-184893328D02*
X200600884Y-184964757D01*
X200600884Y-184964757D02*
X200672312Y-185036185D01*
X201100884Y-184893328D02*
X201958027Y-184893328D01*
X201529455Y-186393328D02*
X201529455Y-184893328D01*
X202386598Y-185964757D02*
X203100884Y-185964757D01*
X202243741Y-186393328D02*
X202743741Y-184893328D01*
X202743741Y-184893328D02*
X203243741Y-186393328D01*
X203529455Y-184893328D02*
X204029455Y-186393328D01*
X204029455Y-186393328D02*
X204529455Y-184893328D01*
X205029454Y-186250471D02*
X205100883Y-186321900D01*
X205100883Y-186321900D02*
X205029454Y-186393328D01*
X205029454Y-186393328D02*
X204958026Y-186321900D01*
X204958026Y-186321900D02*
X205029454Y-186250471D01*
X205029454Y-186250471D02*
X205029454Y-186393328D01*
X205743740Y-186393328D02*
X205743740Y-184893328D01*
X205886598Y-185821900D02*
X206315169Y-186393328D01*
X206315169Y-185393328D02*
X205743740Y-185964757D01*
X206958026Y-186393328D02*
X206958026Y-185393328D01*
X206958026Y-184893328D02*
X206886598Y-184964757D01*
X206886598Y-184964757D02*
X206958026Y-185036185D01*
X206958026Y-185036185D02*
X207029455Y-184964757D01*
X207029455Y-184964757D02*
X206958026Y-184893328D01*
X206958026Y-184893328D02*
X206958026Y-185036185D01*
X208315170Y-186321900D02*
X208172312Y-186393328D01*
X208172312Y-186393328D02*
X207886598Y-186393328D01*
X207886598Y-186393328D02*
X207743741Y-186321900D01*
X207743741Y-186321900D02*
X207672312Y-186250471D01*
X207672312Y-186250471D02*
X207600884Y-186107614D01*
X207600884Y-186107614D02*
X207600884Y-185679042D01*
X207600884Y-185679042D02*
X207672312Y-185536185D01*
X207672312Y-185536185D02*
X207743741Y-185464757D01*
X207743741Y-185464757D02*
X207886598Y-185393328D01*
X207886598Y-185393328D02*
X208172312Y-185393328D01*
X208172312Y-185393328D02*
X208315170Y-185464757D01*
X209600884Y-186393328D02*
X209600884Y-185607614D01*
X209600884Y-185607614D02*
X209529455Y-185464757D01*
X209529455Y-185464757D02*
X209386598Y-185393328D01*
X209386598Y-185393328D02*
X209100884Y-185393328D01*
X209100884Y-185393328D02*
X208958026Y-185464757D01*
X209600884Y-186321900D02*
X209458026Y-186393328D01*
X209458026Y-186393328D02*
X209100884Y-186393328D01*
X209100884Y-186393328D02*
X208958026Y-186321900D01*
X208958026Y-186321900D02*
X208886598Y-186179042D01*
X208886598Y-186179042D02*
X208886598Y-186036185D01*
X208886598Y-186036185D02*
X208958026Y-185893328D01*
X208958026Y-185893328D02*
X209100884Y-185821900D01*
X209100884Y-185821900D02*
X209458026Y-185821900D01*
X209458026Y-185821900D02*
X209600884Y-185750471D01*
X210958027Y-186393328D02*
X210958027Y-184893328D01*
X210958027Y-186321900D02*
X210815169Y-186393328D01*
X210815169Y-186393328D02*
X210529455Y-186393328D01*
X210529455Y-186393328D02*
X210386598Y-186321900D01*
X210386598Y-186321900D02*
X210315169Y-186250471D01*
X210315169Y-186250471D02*
X210243741Y-186107614D01*
X210243741Y-186107614D02*
X210243741Y-185679042D01*
X210243741Y-185679042D02*
X210315169Y-185536185D01*
X210315169Y-185536185D02*
X210386598Y-185464757D01*
X210386598Y-185464757D02*
X210529455Y-185393328D01*
X210529455Y-185393328D02*
X210815169Y-185393328D01*
X210815169Y-185393328D02*
X210958027Y-185464757D01*
X211315170Y-186536185D02*
X212458027Y-186536185D01*
X212815169Y-185393328D02*
X212815169Y-186893328D01*
X212815169Y-185464757D02*
X212958027Y-185393328D01*
X212958027Y-185393328D02*
X213243741Y-185393328D01*
X213243741Y-185393328D02*
X213386598Y-185464757D01*
X213386598Y-185464757D02*
X213458027Y-185536185D01*
X213458027Y-185536185D02*
X213529455Y-185679042D01*
X213529455Y-185679042D02*
X213529455Y-186107614D01*
X213529455Y-186107614D02*
X213458027Y-186250471D01*
X213458027Y-186250471D02*
X213386598Y-186321900D01*
X213386598Y-186321900D02*
X213243741Y-186393328D01*
X213243741Y-186393328D02*
X212958027Y-186393328D01*
X212958027Y-186393328D02*
X212815169Y-186321900D01*
X214815170Y-186321900D02*
X214672312Y-186393328D01*
X214672312Y-186393328D02*
X214386598Y-186393328D01*
X214386598Y-186393328D02*
X214243741Y-186321900D01*
X214243741Y-186321900D02*
X214172312Y-186250471D01*
X214172312Y-186250471D02*
X214100884Y-186107614D01*
X214100884Y-186107614D02*
X214100884Y-185679042D01*
X214100884Y-185679042D02*
X214172312Y-185536185D01*
X214172312Y-185536185D02*
X214243741Y-185464757D01*
X214243741Y-185464757D02*
X214386598Y-185393328D01*
X214386598Y-185393328D02*
X214672312Y-185393328D01*
X214672312Y-185393328D02*
X214815170Y-185464757D01*
X215458026Y-186393328D02*
X215458026Y-184893328D01*
X215458026Y-185464757D02*
X215600884Y-185393328D01*
X215600884Y-185393328D02*
X215886598Y-185393328D01*
X215886598Y-185393328D02*
X216029455Y-185464757D01*
X216029455Y-185464757D02*
X216100884Y-185536185D01*
X216100884Y-185536185D02*
X216172312Y-185679042D01*
X216172312Y-185679042D02*
X216172312Y-186107614D01*
X216172312Y-186107614D02*
X216100884Y-186250471D01*
X216100884Y-186250471D02*
X216029455Y-186321900D01*
X216029455Y-186321900D02*
X215886598Y-186393328D01*
X215886598Y-186393328D02*
X215600884Y-186393328D01*
X215600884Y-186393328D02*
X215458026Y-186321900D01*
D10*
D11*
X177002200Y-181507200D02*
X285002200Y-181507200D01*
D10*
D11*
X178386598Y-183621900D02*
X178600884Y-183693328D01*
X178600884Y-183693328D02*
X178958026Y-183693328D01*
X178958026Y-183693328D02*
X179100884Y-183621900D01*
X179100884Y-183621900D02*
X179172312Y-183550471D01*
X179172312Y-183550471D02*
X179243741Y-183407614D01*
X179243741Y-183407614D02*
X179243741Y-183264757D01*
X179243741Y-183264757D02*
X179172312Y-183121900D01*
X179172312Y-183121900D02*
X179100884Y-183050471D01*
X179100884Y-183050471D02*
X178958026Y-182979042D01*
X178958026Y-182979042D02*
X178672312Y-182907614D01*
X178672312Y-182907614D02*
X178529455Y-182836185D01*
X178529455Y-182836185D02*
X178458026Y-182764757D01*
X178458026Y-182764757D02*
X178386598Y-182621900D01*
X178386598Y-182621900D02*
X178386598Y-182479042D01*
X178386598Y-182479042D02*
X178458026Y-182336185D01*
X178458026Y-182336185D02*
X178529455Y-182264757D01*
X178529455Y-182264757D02*
X178672312Y-182193328D01*
X178672312Y-182193328D02*
X179029455Y-182193328D01*
X179029455Y-182193328D02*
X179243741Y-182264757D01*
X179886597Y-183693328D02*
X179886597Y-182193328D01*
X180529455Y-183693328D02*
X180529455Y-182907614D01*
X180529455Y-182907614D02*
X180458026Y-182764757D01*
X180458026Y-182764757D02*
X180315169Y-182693328D01*
X180315169Y-182693328D02*
X180100883Y-182693328D01*
X180100883Y-182693328D02*
X179958026Y-182764757D01*
X179958026Y-182764757D02*
X179886597Y-182836185D01*
X181815169Y-183621900D02*
X181672312Y-183693328D01*
X181672312Y-183693328D02*
X181386598Y-183693328D01*
X181386598Y-183693328D02*
X181243740Y-183621900D01*
X181243740Y-183621900D02*
X181172312Y-183479042D01*
X181172312Y-183479042D02*
X181172312Y-182907614D01*
X181172312Y-182907614D02*
X181243740Y-182764757D01*
X181243740Y-182764757D02*
X181386598Y-182693328D01*
X181386598Y-182693328D02*
X181672312Y-182693328D01*
X181672312Y-182693328D02*
X181815169Y-182764757D01*
X181815169Y-182764757D02*
X181886598Y-182907614D01*
X181886598Y-182907614D02*
X181886598Y-183050471D01*
X181886598Y-183050471D02*
X181172312Y-183193328D01*
X183100883Y-183621900D02*
X182958026Y-183693328D01*
X182958026Y-183693328D02*
X182672312Y-183693328D01*
X182672312Y-183693328D02*
X182529454Y-183621900D01*
X182529454Y-183621900D02*
X182458026Y-183479042D01*
X182458026Y-183479042D02*
X182458026Y-182907614D01*
X182458026Y-182907614D02*
X182529454Y-182764757D01*
X182529454Y-182764757D02*
X182672312Y-182693328D01*
X182672312Y-182693328D02*
X182958026Y-182693328D01*
X182958026Y-182693328D02*
X183100883Y-182764757D01*
X183100883Y-182764757D02*
X183172312Y-182907614D01*
X183172312Y-182907614D02*
X183172312Y-183050471D01*
X183172312Y-183050471D02*
X182458026Y-183193328D01*
X183600883Y-182693328D02*
X184172311Y-182693328D01*
X183815168Y-182193328D02*
X183815168Y-183479042D01*
X183815168Y-183479042D02*
X183886597Y-183621900D01*
X183886597Y-183621900D02*
X184029454Y-183693328D01*
X184029454Y-183693328D02*
X184172311Y-183693328D01*
X184672311Y-183550471D02*
X184743740Y-183621900D01*
X184743740Y-183621900D02*
X184672311Y-183693328D01*
X184672311Y-183693328D02*
X184600883Y-183621900D01*
X184600883Y-183621900D02*
X184672311Y-183550471D01*
X184672311Y-183550471D02*
X184672311Y-183693328D01*
X184672311Y-182764757D02*
X184743740Y-182836185D01*
X184743740Y-182836185D02*
X184672311Y-182907614D01*
X184672311Y-182907614D02*
X184600883Y-182836185D01*
X184600883Y-182836185D02*
X184672311Y-182764757D01*
X184672311Y-182764757D02*
X184672311Y-182907614D01*
D10*
D11*
X197002200Y-191507200D02*
X197002200Y-194507200D01*
D10*
D11*
X261002200Y-191507200D02*
X261002200Y-198007200D01*
X140336779Y-99259875D02*
X140336779Y-98259875D01*
X140336779Y-98259875D02*
X140670112Y-98974160D01*
X140670112Y-98974160D02*
X141003445Y-98259875D01*
X141003445Y-98259875D02*
X141003445Y-99259875D01*
X141479636Y-99259875D02*
X141479636Y-98593208D01*
X141479636Y-98259875D02*
X141432017Y-98307494D01*
X141432017Y-98307494D02*
X141479636Y-98355113D01*
X141479636Y-98355113D02*
X141527255Y-98307494D01*
X141527255Y-98307494D02*
X141479636Y-98259875D01*
X141479636Y-98259875D02*
X141479636Y-98355113D01*
X142384397Y-99212256D02*
X142289159Y-99259875D01*
X142289159Y-99259875D02*
X142098683Y-99259875D01*
X142098683Y-99259875D02*
X142003445Y-99212256D01*
X142003445Y-99212256D02*
X141955826Y-99164636D01*
X141955826Y-99164636D02*
X141908207Y-99069398D01*
X141908207Y-99069398D02*
X141908207Y-98783684D01*
X141908207Y-98783684D02*
X141955826Y-98688446D01*
X141955826Y-98688446D02*
X142003445Y-98640827D01*
X142003445Y-98640827D02*
X142098683Y-98593208D01*
X142098683Y-98593208D02*
X142289159Y-98593208D01*
X142289159Y-98593208D02*
X142384397Y-98640827D01*
X142812969Y-99259875D02*
X142812969Y-98593208D01*
X142812969Y-98783684D02*
X142860588Y-98688446D01*
X142860588Y-98688446D02*
X142908207Y-98640827D01*
X142908207Y-98640827D02*
X143003445Y-98593208D01*
X143003445Y-98593208D02*
X143098683Y-98593208D01*
X143574874Y-99259875D02*
X143479636Y-99212256D01*
X143479636Y-99212256D02*
X143432017Y-99164636D01*
X143432017Y-99164636D02*
X143384398Y-99069398D01*
X143384398Y-99069398D02*
X143384398Y-98783684D01*
X143384398Y-98783684D02*
X143432017Y-98688446D01*
X143432017Y-98688446D02*
X143479636Y-98640827D01*
X143479636Y-98640827D02*
X143574874Y-98593208D01*
X143574874Y-98593208D02*
X143717731Y-98593208D01*
X143717731Y-98593208D02*
X143812969Y-98640827D01*
X143812969Y-98640827D02*
X143860588Y-98688446D01*
X143860588Y-98688446D02*
X143908207Y-98783684D01*
X143908207Y-98783684D02*
X143908207Y-99069398D01*
X143908207Y-99069398D02*
X143860588Y-99164636D01*
X143860588Y-99164636D02*
X143812969Y-99212256D01*
X143812969Y-99212256D02*
X143717731Y-99259875D01*
X143717731Y-99259875D02*
X143574874Y-99259875D01*
X144336779Y-98593208D02*
X144336779Y-99593208D01*
X144336779Y-98640827D02*
X144432017Y-98593208D01*
X144432017Y-98593208D02*
X144622493Y-98593208D01*
X144622493Y-98593208D02*
X144717731Y-98640827D01*
X144717731Y-98640827D02*
X144765350Y-98688446D01*
X144765350Y-98688446D02*
X144812969Y-98783684D01*
X144812969Y-98783684D02*
X144812969Y-99069398D01*
X144812969Y-99069398D02*
X144765350Y-99164636D01*
X144765350Y-99164636D02*
X144717731Y-99212256D01*
X144717731Y-99212256D02*
X144622493Y-99259875D01*
X144622493Y-99259875D02*
X144432017Y-99259875D01*
X144432017Y-99259875D02*
X144336779Y-99212256D01*
X145241541Y-99259875D02*
X145241541Y-98259875D01*
X145670112Y-99259875D02*
X145670112Y-98736065D01*
X145670112Y-98736065D02*
X145622493Y-98640827D01*
X145622493Y-98640827D02*
X145527255Y-98593208D01*
X145527255Y-98593208D02*
X145384398Y-98593208D01*
X145384398Y-98593208D02*
X145289160Y-98640827D01*
X145289160Y-98640827D02*
X145241541Y-98688446D01*
X146289160Y-99259875D02*
X146193922Y-99212256D01*
X146193922Y-99212256D02*
X146146303Y-99164636D01*
X146146303Y-99164636D02*
X146098684Y-99069398D01*
X146098684Y-99069398D02*
X146098684Y-98783684D01*
X146098684Y-98783684D02*
X146146303Y-98688446D01*
X146146303Y-98688446D02*
X146193922Y-98640827D01*
X146193922Y-98640827D02*
X146289160Y-98593208D01*
X146289160Y-98593208D02*
X146432017Y-98593208D01*
X146432017Y-98593208D02*
X146527255Y-98640827D01*
X146527255Y-98640827D02*
X146574874Y-98688446D01*
X146574874Y-98688446D02*
X146622493Y-98783684D01*
X146622493Y-98783684D02*
X146622493Y-99069398D01*
X146622493Y-99069398D02*
X146574874Y-99164636D01*
X146574874Y-99164636D02*
X146527255Y-99212256D01*
X146527255Y-99212256D02*
X146432017Y-99259875D01*
X146432017Y-99259875D02*
X146289160Y-99259875D01*
X147051065Y-98593208D02*
X147051065Y-99259875D01*
X147051065Y-98688446D02*
X147098684Y-98640827D01*
X147098684Y-98640827D02*
X147193922Y-98593208D01*
X147193922Y-98593208D02*
X147336779Y-98593208D01*
X147336779Y-98593208D02*
X147432017Y-98640827D01*
X147432017Y-98640827D02*
X147479636Y-98736065D01*
X147479636Y-98736065D02*
X147479636Y-99259875D01*
X148336779Y-99212256D02*
X148241541Y-99259875D01*
X148241541Y-99259875D02*
X148051065Y-99259875D01*
X148051065Y-99259875D02*
X147955827Y-99212256D01*
X147955827Y-99212256D02*
X147908208Y-99117017D01*
X147908208Y-99117017D02*
X147908208Y-98736065D01*
X147908208Y-98736065D02*
X147955827Y-98640827D01*
X147955827Y-98640827D02*
X148051065Y-98593208D01*
X148051065Y-98593208D02*
X148241541Y-98593208D01*
X148241541Y-98593208D02*
X148336779Y-98640827D01*
X148336779Y-98640827D02*
X148384398Y-98736065D01*
X148384398Y-98736065D02*
X148384398Y-98831303D01*
X148384398Y-98831303D02*
X147908208Y-98926541D01*
X149574875Y-98878922D02*
X150336780Y-98878922D01*
X151574875Y-98259875D02*
X151574875Y-99069398D01*
X151574875Y-99069398D02*
X151622494Y-99164636D01*
X151622494Y-99164636D02*
X151670113Y-99212256D01*
X151670113Y-99212256D02*
X151765351Y-99259875D01*
X151765351Y-99259875D02*
X151955827Y-99259875D01*
X151955827Y-99259875D02*
X152051065Y-99212256D01*
X152051065Y-99212256D02*
X152098684Y-99164636D01*
X152098684Y-99164636D02*
X152146303Y-99069398D01*
X152146303Y-99069398D02*
X152146303Y-98259875D01*
X152765351Y-99259875D02*
X152670113Y-99212256D01*
X152670113Y-99212256D02*
X152622494Y-99117017D01*
X152622494Y-99117017D02*
X152622494Y-98259875D01*
X153003447Y-98593208D02*
X153384399Y-98593208D01*
X153146304Y-98259875D02*
X153146304Y-99117017D01*
X153146304Y-99117017D02*
X153193923Y-99212256D01*
X153193923Y-99212256D02*
X153289161Y-99259875D01*
X153289161Y-99259875D02*
X153384399Y-99259875D01*
X153717733Y-99259875D02*
X153717733Y-98593208D01*
X153717733Y-98783684D02*
X153765352Y-98688446D01*
X153765352Y-98688446D02*
X153812971Y-98640827D01*
X153812971Y-98640827D02*
X153908209Y-98593208D01*
X153908209Y-98593208D02*
X154003447Y-98593208D01*
X154765352Y-99259875D02*
X154765352Y-98736065D01*
X154765352Y-98736065D02*
X154717733Y-98640827D01*
X154717733Y-98640827D02*
X154622495Y-98593208D01*
X154622495Y-98593208D02*
X154432019Y-98593208D01*
X154432019Y-98593208D02*
X154336781Y-98640827D01*
X154765352Y-99212256D02*
X154670114Y-99259875D01*
X154670114Y-99259875D02*
X154432019Y-99259875D01*
X154432019Y-99259875D02*
X154336781Y-99212256D01*
X154336781Y-99212256D02*
X154289162Y-99117017D01*
X154289162Y-99117017D02*
X154289162Y-99021779D01*
X154289162Y-99021779D02*
X154336781Y-98926541D01*
X154336781Y-98926541D02*
X154432019Y-98878922D01*
X154432019Y-98878922D02*
X154670114Y-98878922D01*
X154670114Y-98878922D02*
X154765352Y-98831303D01*
X155193924Y-99212256D02*
X155289162Y-99259875D01*
X155289162Y-99259875D02*
X155479638Y-99259875D01*
X155479638Y-99259875D02*
X155574876Y-99212256D01*
X155574876Y-99212256D02*
X155622495Y-99117017D01*
X155622495Y-99117017D02*
X155622495Y-99069398D01*
X155622495Y-99069398D02*
X155574876Y-98974160D01*
X155574876Y-98974160D02*
X155479638Y-98926541D01*
X155479638Y-98926541D02*
X155336781Y-98926541D01*
X155336781Y-98926541D02*
X155241543Y-98878922D01*
X155241543Y-98878922D02*
X155193924Y-98783684D01*
X155193924Y-98783684D02*
X155193924Y-98736065D01*
X155193924Y-98736065D02*
X155241543Y-98640827D01*
X155241543Y-98640827D02*
X155336781Y-98593208D01*
X155336781Y-98593208D02*
X155479638Y-98593208D01*
X155479638Y-98593208D02*
X155574876Y-98640827D01*
X156193924Y-99259875D02*
X156098686Y-99212256D01*
X156098686Y-99212256D02*
X156051067Y-99164636D01*
X156051067Y-99164636D02*
X156003448Y-99069398D01*
X156003448Y-99069398D02*
X156003448Y-98783684D01*
X156003448Y-98783684D02*
X156051067Y-98688446D01*
X156051067Y-98688446D02*
X156098686Y-98640827D01*
X156098686Y-98640827D02*
X156193924Y-98593208D01*
X156193924Y-98593208D02*
X156336781Y-98593208D01*
X156336781Y-98593208D02*
X156432019Y-98640827D01*
X156432019Y-98640827D02*
X156479638Y-98688446D01*
X156479638Y-98688446D02*
X156527257Y-98783684D01*
X156527257Y-98783684D02*
X156527257Y-99069398D01*
X156527257Y-99069398D02*
X156479638Y-99164636D01*
X156479638Y-99164636D02*
X156432019Y-99212256D01*
X156432019Y-99212256D02*
X156336781Y-99259875D01*
X156336781Y-99259875D02*
X156193924Y-99259875D01*
X157384400Y-98593208D02*
X157384400Y-99259875D01*
X156955829Y-98593208D02*
X156955829Y-99117017D01*
X156955829Y-99117017D02*
X157003448Y-99212256D01*
X157003448Y-99212256D02*
X157098686Y-99259875D01*
X157098686Y-99259875D02*
X157241543Y-99259875D01*
X157241543Y-99259875D02*
X157336781Y-99212256D01*
X157336781Y-99212256D02*
X157384400Y-99164636D01*
X157860591Y-98593208D02*
X157860591Y-99259875D01*
X157860591Y-98688446D02*
X157908210Y-98640827D01*
X157908210Y-98640827D02*
X158003448Y-98593208D01*
X158003448Y-98593208D02*
X158146305Y-98593208D01*
X158146305Y-98593208D02*
X158241543Y-98640827D01*
X158241543Y-98640827D02*
X158289162Y-98736065D01*
X158289162Y-98736065D02*
X158289162Y-99259875D01*
X159193924Y-99259875D02*
X159193924Y-98259875D01*
X159193924Y-99212256D02*
X159098686Y-99259875D01*
X159098686Y-99259875D02*
X158908210Y-99259875D01*
X158908210Y-99259875D02*
X158812972Y-99212256D01*
X158812972Y-99212256D02*
X158765353Y-99164636D01*
X158765353Y-99164636D02*
X158717734Y-99069398D01*
X158717734Y-99069398D02*
X158717734Y-98783684D01*
X158717734Y-98783684D02*
X158765353Y-98688446D01*
X158765353Y-98688446D02*
X158812972Y-98640827D01*
X158812972Y-98640827D02*
X158908210Y-98593208D01*
X158908210Y-98593208D02*
X159098686Y-98593208D01*
X159098686Y-98593208D02*
X159193924Y-98640827D01*
X159622496Y-99212256D02*
X159717734Y-99259875D01*
X159717734Y-99259875D02*
X159908210Y-99259875D01*
X159908210Y-99259875D02*
X160003448Y-99212256D01*
X160003448Y-99212256D02*
X160051067Y-99117017D01*
X160051067Y-99117017D02*
X160051067Y-99069398D01*
X160051067Y-99069398D02*
X160003448Y-98974160D01*
X160003448Y-98974160D02*
X159908210Y-98926541D01*
X159908210Y-98926541D02*
X159765353Y-98926541D01*
X159765353Y-98926541D02*
X159670115Y-98878922D01*
X159670115Y-98878922D02*
X159622496Y-98783684D01*
X159622496Y-98783684D02*
X159622496Y-98736065D01*
X159622496Y-98736065D02*
X159670115Y-98640827D01*
X159670115Y-98640827D02*
X159765353Y-98593208D01*
X159765353Y-98593208D02*
X159908210Y-98593208D01*
X159908210Y-98593208D02*
X160003448Y-98640827D01*
X140527255Y-99869819D02*
X140717731Y-99869819D01*
X140717731Y-99869819D02*
X140812969Y-99917438D01*
X140812969Y-99917438D02*
X140908207Y-100012676D01*
X140908207Y-100012676D02*
X140955826Y-100203152D01*
X140955826Y-100203152D02*
X140955826Y-100536485D01*
X140955826Y-100536485D02*
X140908207Y-100726961D01*
X140908207Y-100726961D02*
X140812969Y-100822200D01*
X140812969Y-100822200D02*
X140717731Y-100869819D01*
X140717731Y-100869819D02*
X140527255Y-100869819D01*
X140527255Y-100869819D02*
X140432017Y-100822200D01*
X140432017Y-100822200D02*
X140336779Y-100726961D01*
X140336779Y-100726961D02*
X140289160Y-100536485D01*
X140289160Y-100536485D02*
X140289160Y-100203152D01*
X140289160Y-100203152D02*
X140336779Y-100012676D01*
X140336779Y-100012676D02*
X140432017Y-99917438D01*
X140432017Y-99917438D02*
X140527255Y-99869819D01*
X141955826Y-100774580D02*
X141908207Y-100822200D01*
X141908207Y-100822200D02*
X141765350Y-100869819D01*
X141765350Y-100869819D02*
X141670112Y-100869819D01*
X141670112Y-100869819D02*
X141527255Y-100822200D01*
X141527255Y-100822200D02*
X141432017Y-100726961D01*
X141432017Y-100726961D02*
X141384398Y-100631723D01*
X141384398Y-100631723D02*
X141336779Y-100441247D01*
X141336779Y-100441247D02*
X141336779Y-100298390D01*
X141336779Y-100298390D02*
X141384398Y-100107914D01*
X141384398Y-100107914D02*
X141432017Y-100012676D01*
X141432017Y-100012676D02*
X141527255Y-99917438D01*
X141527255Y-99917438D02*
X141670112Y-99869819D01*
X141670112Y-99869819D02*
X141765350Y-99869819D01*
X141765350Y-99869819D02*
X141908207Y-99917438D01*
X141908207Y-99917438D02*
X141955826Y-99965057D01*
X142241541Y-99869819D02*
X142812969Y-99869819D01*
X142527255Y-100869819D02*
X142527255Y-99869819D01*
X143098684Y-100584104D02*
X143574874Y-100584104D01*
X143003446Y-100869819D02*
X143336779Y-99869819D01*
X143336779Y-99869819D02*
X143670112Y-100869819D01*
X143860589Y-99869819D02*
X144193922Y-100869819D01*
X144193922Y-100869819D02*
X144527255Y-99869819D01*
X145479637Y-99869819D02*
X145812970Y-100869819D01*
X145812970Y-100869819D02*
X146146303Y-99869819D01*
X146384399Y-99869819D02*
X147003446Y-99869819D01*
X147003446Y-99869819D02*
X146670113Y-100250771D01*
X146670113Y-100250771D02*
X146812970Y-100250771D01*
X146812970Y-100250771D02*
X146908208Y-100298390D01*
X146908208Y-100298390D02*
X146955827Y-100346009D01*
X146955827Y-100346009D02*
X147003446Y-100441247D01*
X147003446Y-100441247D02*
X147003446Y-100679342D01*
X147003446Y-100679342D02*
X146955827Y-100774580D01*
X146955827Y-100774580D02*
X146908208Y-100822200D01*
X146908208Y-100822200D02*
X146812970Y-100869819D01*
X146812970Y-100869819D02*
X146527256Y-100869819D01*
X146527256Y-100869819D02*
X146432018Y-100822200D01*
X146432018Y-100822200D02*
X146384399Y-100774580D01*
X147432018Y-100774580D02*
X147479637Y-100822200D01*
X147479637Y-100822200D02*
X147432018Y-100869819D01*
X147432018Y-100869819D02*
X147384399Y-100822200D01*
X147384399Y-100822200D02*
X147432018Y-100774580D01*
X147432018Y-100774580D02*
X147432018Y-100869819D01*
X148098684Y-99869819D02*
X148193922Y-99869819D01*
X148193922Y-99869819D02*
X148289160Y-99917438D01*
X148289160Y-99917438D02*
X148336779Y-99965057D01*
X148336779Y-99965057D02*
X148384398Y-100060295D01*
X148384398Y-100060295D02*
X148432017Y-100250771D01*
X148432017Y-100250771D02*
X148432017Y-100488866D01*
X148432017Y-100488866D02*
X148384398Y-100679342D01*
X148384398Y-100679342D02*
X148336779Y-100774580D01*
X148336779Y-100774580D02*
X148289160Y-100822200D01*
X148289160Y-100822200D02*
X148193922Y-100869819D01*
X148193922Y-100869819D02*
X148098684Y-100869819D01*
X148098684Y-100869819D02*
X148003446Y-100822200D01*
X148003446Y-100822200D02*
X147955827Y-100774580D01*
X147955827Y-100774580D02*
X147908208Y-100679342D01*
X147908208Y-100679342D02*
X147860589Y-100488866D01*
X147860589Y-100488866D02*
X147860589Y-100250771D01*
X147860589Y-100250771D02*
X147908208Y-100060295D01*
X147908208Y-100060295D02*
X147955827Y-99965057D01*
X147955827Y-99965057D02*
X148003446Y-99917438D01*
X148003446Y-99917438D02*
X148098684Y-99869819D01*
X172336779Y-77869819D02*
X172336779Y-76869819D01*
X172336779Y-76869819D02*
X172717731Y-76869819D01*
X172717731Y-76869819D02*
X172812969Y-76917438D01*
X172812969Y-76917438D02*
X172860588Y-76965057D01*
X172860588Y-76965057D02*
X172908207Y-77060295D01*
X172908207Y-77060295D02*
X172908207Y-77203152D01*
X172908207Y-77203152D02*
X172860588Y-77298390D01*
X172860588Y-77298390D02*
X172812969Y-77346009D01*
X172812969Y-77346009D02*
X172717731Y-77393628D01*
X172717731Y-77393628D02*
X172336779Y-77393628D01*
X174146303Y-77869819D02*
X174098684Y-77869819D01*
X174098684Y-77869819D02*
X174003445Y-77822200D01*
X174003445Y-77822200D02*
X173860588Y-77679342D01*
X173860588Y-77679342D02*
X173622493Y-77393628D01*
X173622493Y-77393628D02*
X173527255Y-77250771D01*
X173527255Y-77250771D02*
X173479636Y-77107914D01*
X173479636Y-77107914D02*
X173479636Y-77012676D01*
X173479636Y-77012676D02*
X173527255Y-76917438D01*
X173527255Y-76917438D02*
X173622493Y-76869819D01*
X173622493Y-76869819D02*
X173670112Y-76869819D01*
X173670112Y-76869819D02*
X173765350Y-76917438D01*
X173765350Y-76917438D02*
X173812969Y-77012676D01*
X173812969Y-77012676D02*
X173812969Y-77060295D01*
X173812969Y-77060295D02*
X173765350Y-77155533D01*
X173765350Y-77155533D02*
X173717731Y-77203152D01*
X173717731Y-77203152D02*
X173432017Y-77393628D01*
X173432017Y-77393628D02*
X173384398Y-77441247D01*
X173384398Y-77441247D02*
X173336779Y-77536485D01*
X173336779Y-77536485D02*
X173336779Y-77679342D01*
X173336779Y-77679342D02*
X173384398Y-77774580D01*
X173384398Y-77774580D02*
X173432017Y-77822200D01*
X173432017Y-77822200D02*
X173527255Y-77869819D01*
X173527255Y-77869819D02*
X173670112Y-77869819D01*
X173670112Y-77869819D02*
X173765350Y-77822200D01*
X173765350Y-77822200D02*
X173812969Y-77774580D01*
X173812969Y-77774580D02*
X173955826Y-77584104D01*
X173955826Y-77584104D02*
X174003445Y-77441247D01*
X174003445Y-77441247D02*
X174003445Y-77346009D01*
X174574874Y-77869819D02*
X174574874Y-76869819D01*
X175812969Y-77488866D02*
X176574874Y-77488866D01*
X177812969Y-77869819D02*
X177812969Y-76869819D01*
X178860587Y-77774580D02*
X178812968Y-77822200D01*
X178812968Y-77822200D02*
X178670111Y-77869819D01*
X178670111Y-77869819D02*
X178574873Y-77869819D01*
X178574873Y-77869819D02*
X178432016Y-77822200D01*
X178432016Y-77822200D02*
X178336778Y-77726961D01*
X178336778Y-77726961D02*
X178289159Y-77631723D01*
X178289159Y-77631723D02*
X178241540Y-77441247D01*
X178241540Y-77441247D02*
X178241540Y-77298390D01*
X178241540Y-77298390D02*
X178289159Y-77107914D01*
X178289159Y-77107914D02*
X178336778Y-77012676D01*
X178336778Y-77012676D02*
X178432016Y-76917438D01*
X178432016Y-76917438D02*
X178574873Y-76869819D01*
X178574873Y-76869819D02*
X178670111Y-76869819D01*
X178670111Y-76869819D02*
X178812968Y-76917438D01*
X178812968Y-76917438D02*
X178860587Y-76965057D01*
X179717730Y-77203152D02*
X179717730Y-77869819D01*
X179289159Y-77203152D02*
X179289159Y-77726961D01*
X179289159Y-77726961D02*
X179336778Y-77822200D01*
X179336778Y-77822200D02*
X179432016Y-77869819D01*
X179432016Y-77869819D02*
X179574873Y-77869819D01*
X179574873Y-77869819D02*
X179670111Y-77822200D01*
X179670111Y-77822200D02*
X179717730Y-77774580D01*
X180193921Y-77869819D02*
X180193921Y-76869819D01*
X180193921Y-77250771D02*
X180289159Y-77203152D01*
X180289159Y-77203152D02*
X180479635Y-77203152D01*
X180479635Y-77203152D02*
X180574873Y-77250771D01*
X180574873Y-77250771D02*
X180622492Y-77298390D01*
X180622492Y-77298390D02*
X180670111Y-77393628D01*
X180670111Y-77393628D02*
X180670111Y-77679342D01*
X180670111Y-77679342D02*
X180622492Y-77774580D01*
X180622492Y-77774580D02*
X180574873Y-77822200D01*
X180574873Y-77822200D02*
X180479635Y-77869819D01*
X180479635Y-77869819D02*
X180289159Y-77869819D01*
X180289159Y-77869819D02*
X180193921Y-77822200D01*
X181479635Y-77822200D02*
X181384397Y-77869819D01*
X181384397Y-77869819D02*
X181193921Y-77869819D01*
X181193921Y-77869819D02*
X181098683Y-77822200D01*
X181098683Y-77822200D02*
X181051064Y-77726961D01*
X181051064Y-77726961D02*
X181051064Y-77346009D01*
X181051064Y-77346009D02*
X181098683Y-77250771D01*
X181098683Y-77250771D02*
X181193921Y-77203152D01*
X181193921Y-77203152D02*
X181384397Y-77203152D01*
X181384397Y-77203152D02*
X181479635Y-77250771D01*
X181479635Y-77250771D02*
X181527254Y-77346009D01*
X181527254Y-77346009D02*
X181527254Y-77441247D01*
X181527254Y-77441247D02*
X181051064Y-77536485D01*
X171924405Y-82804819D02*
X171924405Y-81804819D01*
X171924405Y-81804819D02*
X172162500Y-81804819D01*
X172162500Y-81804819D02*
X172305357Y-81852438D01*
X172305357Y-81852438D02*
X172400595Y-81947676D01*
X172400595Y-81947676D02*
X172448214Y-82042914D01*
X172448214Y-82042914D02*
X172495833Y-82233390D01*
X172495833Y-82233390D02*
X172495833Y-82376247D01*
X172495833Y-82376247D02*
X172448214Y-82566723D01*
X172448214Y-82566723D02*
X172400595Y-82661961D01*
X172400595Y-82661961D02*
X172305357Y-82757200D01*
X172305357Y-82757200D02*
X172162500Y-82804819D01*
X172162500Y-82804819D02*
X171924405Y-82804819D01*
X173448214Y-82804819D02*
X172876786Y-82804819D01*
X173162500Y-82804819D02*
X173162500Y-81804819D01*
X173162500Y-81804819D02*
X173067262Y-81947676D01*
X173067262Y-81947676D02*
X172972024Y-82042914D01*
X172972024Y-82042914D02*
X172876786Y-82090533D01*
X150339580Y-92966666D02*
X150387200Y-93014285D01*
X150387200Y-93014285D02*
X150434819Y-93157142D01*
X150434819Y-93157142D02*
X150434819Y-93252380D01*
X150434819Y-93252380D02*
X150387200Y-93395237D01*
X150387200Y-93395237D02*
X150291961Y-93490475D01*
X150291961Y-93490475D02*
X150196723Y-93538094D01*
X150196723Y-93538094D02*
X150006247Y-93585713D01*
X150006247Y-93585713D02*
X149863390Y-93585713D01*
X149863390Y-93585713D02*
X149672914Y-93538094D01*
X149672914Y-93538094D02*
X149577676Y-93490475D01*
X149577676Y-93490475D02*
X149482438Y-93395237D01*
X149482438Y-93395237D02*
X149434819Y-93252380D01*
X149434819Y-93252380D02*
X149434819Y-93157142D01*
X149434819Y-93157142D02*
X149482438Y-93014285D01*
X149482438Y-93014285D02*
X149530057Y-92966666D01*
X149530057Y-92585713D02*
X149482438Y-92538094D01*
X149482438Y-92538094D02*
X149434819Y-92442856D01*
X149434819Y-92442856D02*
X149434819Y-92204761D01*
X149434819Y-92204761D02*
X149482438Y-92109523D01*
X149482438Y-92109523D02*
X149530057Y-92061904D01*
X149530057Y-92061904D02*
X149625295Y-92014285D01*
X149625295Y-92014285D02*
X149720533Y-92014285D01*
X149720533Y-92014285D02*
X149863390Y-92061904D01*
X149863390Y-92061904D02*
X150434819Y-92633332D01*
X150434819Y-92633332D02*
X150434819Y-92014285D01*
D14*
X166260237Y-91074318D02*
X166260237Y-89804318D01*
X167590714Y-90953365D02*
X167530238Y-91013842D01*
X167530238Y-91013842D02*
X167348809Y-91074318D01*
X167348809Y-91074318D02*
X167227857Y-91074318D01*
X167227857Y-91074318D02*
X167046428Y-91013842D01*
X167046428Y-91013842D02*
X166925476Y-90892889D01*
X166925476Y-90892889D02*
X166864999Y-90771937D01*
X166864999Y-90771937D02*
X166804523Y-90530032D01*
X166804523Y-90530032D02*
X166804523Y-90348603D01*
X166804523Y-90348603D02*
X166864999Y-90106699D01*
X166864999Y-90106699D02*
X166925476Y-89985746D01*
X166925476Y-89985746D02*
X167046428Y-89864794D01*
X167046428Y-89864794D02*
X167227857Y-89804318D01*
X167227857Y-89804318D02*
X167348809Y-89804318D01*
X167348809Y-89804318D02*
X167530238Y-89864794D01*
X167530238Y-89864794D02*
X167590714Y-89925270D01*
X168800238Y-91074318D02*
X168074523Y-91074318D01*
X168437380Y-91074318D02*
X168437380Y-89804318D01*
X168437380Y-89804318D02*
X168316428Y-89985746D01*
X168316428Y-89985746D02*
X168195476Y-90106699D01*
X168195476Y-90106699D02*
X168074523Y-90167175D01*
D11*
X168333333Y-101454819D02*
X168000000Y-100978628D01*
X167761905Y-101454819D02*
X167761905Y-100454819D01*
X167761905Y-100454819D02*
X168142857Y-100454819D01*
X168142857Y-100454819D02*
X168238095Y-100502438D01*
X168238095Y-100502438D02*
X168285714Y-100550057D01*
X168285714Y-100550057D02*
X168333333Y-100645295D01*
X168333333Y-100645295D02*
X168333333Y-100788152D01*
X168333333Y-100788152D02*
X168285714Y-100883390D01*
X168285714Y-100883390D02*
X168238095Y-100931009D01*
X168238095Y-100931009D02*
X168142857Y-100978628D01*
X168142857Y-100978628D02*
X167761905Y-100978628D01*
X169190476Y-100788152D02*
X169190476Y-101454819D01*
X168952381Y-100407200D02*
X168714286Y-101121485D01*
X168714286Y-101121485D02*
X169333333Y-101121485D01*
X173979580Y-87639067D02*
X174027200Y-87686686D01*
X174027200Y-87686686D02*
X174074819Y-87829543D01*
X174074819Y-87829543D02*
X174074819Y-87924781D01*
X174074819Y-87924781D02*
X174027200Y-88067638D01*
X174027200Y-88067638D02*
X173931961Y-88162876D01*
X173931961Y-88162876D02*
X173836723Y-88210495D01*
X173836723Y-88210495D02*
X173646247Y-88258114D01*
X173646247Y-88258114D02*
X173503390Y-88258114D01*
X173503390Y-88258114D02*
X173312914Y-88210495D01*
X173312914Y-88210495D02*
X173217676Y-88162876D01*
X173217676Y-88162876D02*
X173122438Y-88067638D01*
X173122438Y-88067638D02*
X173074819Y-87924781D01*
X173074819Y-87924781D02*
X173074819Y-87829543D01*
X173074819Y-87829543D02*
X173122438Y-87686686D01*
X173122438Y-87686686D02*
X173170057Y-87639067D01*
X173408152Y-86781924D02*
X174074819Y-86781924D01*
X173027200Y-87020019D02*
X173741485Y-87258114D01*
X173741485Y-87258114D02*
X173741485Y-86639067D01*
X186666666Y-87854820D02*
X186666666Y-88569105D01*
X186666666Y-88569105D02*
X186619047Y-88711962D01*
X186619047Y-88711962D02*
X186523809Y-88807201D01*
X186523809Y-88807201D02*
X186380952Y-88854820D01*
X186380952Y-88854820D02*
X186285714Y-88854820D01*
X187666666Y-88854820D02*
X187095238Y-88854820D01*
X187380952Y-88854820D02*
X187380952Y-87854820D01*
X187380952Y-87854820D02*
X187285714Y-87997677D01*
X187285714Y-87997677D02*
X187190476Y-88092915D01*
X187190476Y-88092915D02*
X187095238Y-88140534D01*
X146639580Y-92966666D02*
X146687200Y-93014285D01*
X146687200Y-93014285D02*
X146734819Y-93157142D01*
X146734819Y-93157142D02*
X146734819Y-93252380D01*
X146734819Y-93252380D02*
X146687200Y-93395237D01*
X146687200Y-93395237D02*
X146591961Y-93490475D01*
X146591961Y-93490475D02*
X146496723Y-93538094D01*
X146496723Y-93538094D02*
X146306247Y-93585713D01*
X146306247Y-93585713D02*
X146163390Y-93585713D01*
X146163390Y-93585713D02*
X145972914Y-93538094D01*
X145972914Y-93538094D02*
X145877676Y-93490475D01*
X145877676Y-93490475D02*
X145782438Y-93395237D01*
X145782438Y-93395237D02*
X145734819Y-93252380D01*
X145734819Y-93252380D02*
X145734819Y-93157142D01*
X145734819Y-93157142D02*
X145782438Y-93014285D01*
X145782438Y-93014285D02*
X145830057Y-92966666D01*
X146734819Y-92014285D02*
X146734819Y-92585713D01*
X146734819Y-92299999D02*
X145734819Y-92299999D01*
X145734819Y-92299999D02*
X145877676Y-92395237D01*
X145877676Y-92395237D02*
X145972914Y-92490475D01*
X145972914Y-92490475D02*
X146020533Y-92585713D01*
X157733333Y-91976819D02*
X157400000Y-91500628D01*
X157161905Y-91976819D02*
X157161905Y-90976819D01*
X157161905Y-90976819D02*
X157542857Y-90976819D01*
X157542857Y-90976819D02*
X157638095Y-91024438D01*
X157638095Y-91024438D02*
X157685714Y-91072057D01*
X157685714Y-91072057D02*
X157733333Y-91167295D01*
X157733333Y-91167295D02*
X157733333Y-91310152D01*
X157733333Y-91310152D02*
X157685714Y-91405390D01*
X157685714Y-91405390D02*
X157638095Y-91453009D01*
X157638095Y-91453009D02*
X157542857Y-91500628D01*
X157542857Y-91500628D02*
X157161905Y-91500628D01*
X158638095Y-90976819D02*
X158161905Y-90976819D01*
X158161905Y-90976819D02*
X158114286Y-91453009D01*
X158114286Y-91453009D02*
X158161905Y-91405390D01*
X158161905Y-91405390D02*
X158257143Y-91357771D01*
X158257143Y-91357771D02*
X158495238Y-91357771D01*
X158495238Y-91357771D02*
X158590476Y-91405390D01*
X158590476Y-91405390D02*
X158638095Y-91453009D01*
X158638095Y-91453009D02*
X158685714Y-91548247D01*
X158685714Y-91548247D02*
X158685714Y-91786342D01*
X158685714Y-91786342D02*
X158638095Y-91881580D01*
X158638095Y-91881580D02*
X158590476Y-91929200D01*
X158590476Y-91929200D02*
X158495238Y-91976819D01*
X158495238Y-91976819D02*
X158257143Y-91976819D01*
X158257143Y-91976819D02*
X158161905Y-91929200D01*
X158161905Y-91929200D02*
X158114286Y-91881580D01*
X170359580Y-87469067D02*
X170407200Y-87516686D01*
X170407200Y-87516686D02*
X170454819Y-87659543D01*
X170454819Y-87659543D02*
X170454819Y-87754781D01*
X170454819Y-87754781D02*
X170407200Y-87897638D01*
X170407200Y-87897638D02*
X170311961Y-87992876D01*
X170311961Y-87992876D02*
X170216723Y-88040495D01*
X170216723Y-88040495D02*
X170026247Y-88088114D01*
X170026247Y-88088114D02*
X169883390Y-88088114D01*
X169883390Y-88088114D02*
X169692914Y-88040495D01*
X169692914Y-88040495D02*
X169597676Y-87992876D01*
X169597676Y-87992876D02*
X169502438Y-87897638D01*
X169502438Y-87897638D02*
X169454819Y-87754781D01*
X169454819Y-87754781D02*
X169454819Y-87659543D01*
X169454819Y-87659543D02*
X169502438Y-87516686D01*
X169502438Y-87516686D02*
X169550057Y-87469067D01*
X169454819Y-87135733D02*
X169454819Y-86516686D01*
X169454819Y-86516686D02*
X169835771Y-86850019D01*
X169835771Y-86850019D02*
X169835771Y-86707162D01*
X169835771Y-86707162D02*
X169883390Y-86611924D01*
X169883390Y-86611924D02*
X169931009Y-86564305D01*
X169931009Y-86564305D02*
X170026247Y-86516686D01*
X170026247Y-86516686D02*
X170264342Y-86516686D01*
X170264342Y-86516686D02*
X170359580Y-86564305D01*
X170359580Y-86564305D02*
X170407200Y-86611924D01*
X170407200Y-86611924D02*
X170454819Y-86707162D01*
X170454819Y-86707162D02*
X170454819Y-86992876D01*
X170454819Y-86992876D02*
X170407200Y-87088114D01*
X170407200Y-87088114D02*
X170359580Y-87135733D01*
X176779580Y-93866666D02*
X176827200Y-93914285D01*
X176827200Y-93914285D02*
X176874819Y-94057142D01*
X176874819Y-94057142D02*
X176874819Y-94152380D01*
X176874819Y-94152380D02*
X176827200Y-94295237D01*
X176827200Y-94295237D02*
X176731961Y-94390475D01*
X176731961Y-94390475D02*
X176636723Y-94438094D01*
X176636723Y-94438094D02*
X176446247Y-94485713D01*
X176446247Y-94485713D02*
X176303390Y-94485713D01*
X176303390Y-94485713D02*
X176112914Y-94438094D01*
X176112914Y-94438094D02*
X176017676Y-94390475D01*
X176017676Y-94390475D02*
X175922438Y-94295237D01*
X175922438Y-94295237D02*
X175874819Y-94152380D01*
X175874819Y-94152380D02*
X175874819Y-94057142D01*
X175874819Y-94057142D02*
X175922438Y-93914285D01*
X175922438Y-93914285D02*
X175970057Y-93866666D01*
X175874819Y-93009523D02*
X175874819Y-93199999D01*
X175874819Y-93199999D02*
X175922438Y-93295237D01*
X175922438Y-93295237D02*
X175970057Y-93342856D01*
X175970057Y-93342856D02*
X176112914Y-93438094D01*
X176112914Y-93438094D02*
X176303390Y-93485713D01*
X176303390Y-93485713D02*
X176684342Y-93485713D01*
X176684342Y-93485713D02*
X176779580Y-93438094D01*
X176779580Y-93438094D02*
X176827200Y-93390475D01*
X176827200Y-93390475D02*
X176874819Y-93295237D01*
X176874819Y-93295237D02*
X176874819Y-93104761D01*
X176874819Y-93104761D02*
X176827200Y-93009523D01*
X176827200Y-93009523D02*
X176779580Y-92961904D01*
X176779580Y-92961904D02*
X176684342Y-92914285D01*
X176684342Y-92914285D02*
X176446247Y-92914285D01*
X176446247Y-92914285D02*
X176351009Y-92961904D01*
X176351009Y-92961904D02*
X176303390Y-93009523D01*
X176303390Y-93009523D02*
X176255771Y-93104761D01*
X176255771Y-93104761D02*
X176255771Y-93295237D01*
X176255771Y-93295237D02*
X176303390Y-93390475D01*
X176303390Y-93390475D02*
X176351009Y-93438094D01*
X176351009Y-93438094D02*
X176446247Y-93485713D01*
X168595833Y-79504819D02*
X168262500Y-79028628D01*
X168024405Y-79504819D02*
X168024405Y-78504819D01*
X168024405Y-78504819D02*
X168405357Y-78504819D01*
X168405357Y-78504819D02*
X168500595Y-78552438D01*
X168500595Y-78552438D02*
X168548214Y-78600057D01*
X168548214Y-78600057D02*
X168595833Y-78695295D01*
X168595833Y-78695295D02*
X168595833Y-78838152D01*
X168595833Y-78838152D02*
X168548214Y-78933390D01*
X168548214Y-78933390D02*
X168500595Y-78981009D01*
X168500595Y-78981009D02*
X168405357Y-79028628D01*
X168405357Y-79028628D02*
X168024405Y-79028628D01*
X168976786Y-78600057D02*
X169024405Y-78552438D01*
X169024405Y-78552438D02*
X169119643Y-78504819D01*
X169119643Y-78504819D02*
X169357738Y-78504819D01*
X169357738Y-78504819D02*
X169452976Y-78552438D01*
X169452976Y-78552438D02*
X169500595Y-78600057D01*
X169500595Y-78600057D02*
X169548214Y-78695295D01*
X169548214Y-78695295D02*
X169548214Y-78790533D01*
X169548214Y-78790533D02*
X169500595Y-78933390D01*
X169500595Y-78933390D02*
X168929167Y-79504819D01*
X168929167Y-79504819D02*
X169548214Y-79504819D01*
X161454819Y-81706666D02*
X160978628Y-82039999D01*
X161454819Y-82278094D02*
X160454819Y-82278094D01*
X160454819Y-82278094D02*
X160454819Y-81897142D01*
X160454819Y-81897142D02*
X160502438Y-81801904D01*
X160502438Y-81801904D02*
X160550057Y-81754285D01*
X160550057Y-81754285D02*
X160645295Y-81706666D01*
X160645295Y-81706666D02*
X160788152Y-81706666D01*
X160788152Y-81706666D02*
X160883390Y-81754285D01*
X160883390Y-81754285D02*
X160931009Y-81801904D01*
X160931009Y-81801904D02*
X160978628Y-81897142D01*
X160978628Y-81897142D02*
X160978628Y-82278094D01*
X160454819Y-80849523D02*
X160454819Y-81039999D01*
X160454819Y-81039999D02*
X160502438Y-81135237D01*
X160502438Y-81135237D02*
X160550057Y-81182856D01*
X160550057Y-81182856D02*
X160692914Y-81278094D01*
X160692914Y-81278094D02*
X160883390Y-81325713D01*
X160883390Y-81325713D02*
X161264342Y-81325713D01*
X161264342Y-81325713D02*
X161359580Y-81278094D01*
X161359580Y-81278094D02*
X161407200Y-81230475D01*
X161407200Y-81230475D02*
X161454819Y-81135237D01*
X161454819Y-81135237D02*
X161454819Y-80944761D01*
X161454819Y-80944761D02*
X161407200Y-80849523D01*
X161407200Y-80849523D02*
X161359580Y-80801904D01*
X161359580Y-80801904D02*
X161264342Y-80754285D01*
X161264342Y-80754285D02*
X161026247Y-80754285D01*
X161026247Y-80754285D02*
X160931009Y-80801904D01*
X160931009Y-80801904D02*
X160883390Y-80849523D01*
X160883390Y-80849523D02*
X160835771Y-80944761D01*
X160835771Y-80944761D02*
X160835771Y-81135237D01*
X160835771Y-81135237D02*
X160883390Y-81230475D01*
X160883390Y-81230475D02*
X160931009Y-81278094D01*
X160931009Y-81278094D02*
X161026247Y-81325713D01*
X164954819Y-87666666D02*
X164478628Y-87999999D01*
X164954819Y-88238094D02*
X163954819Y-88238094D01*
X163954819Y-88238094D02*
X163954819Y-87857142D01*
X163954819Y-87857142D02*
X164002438Y-87761904D01*
X164002438Y-87761904D02*
X164050057Y-87714285D01*
X164050057Y-87714285D02*
X164145295Y-87666666D01*
X164145295Y-87666666D02*
X164288152Y-87666666D01*
X164288152Y-87666666D02*
X164383390Y-87714285D01*
X164383390Y-87714285D02*
X164431009Y-87761904D01*
X164431009Y-87761904D02*
X164478628Y-87857142D01*
X164478628Y-87857142D02*
X164478628Y-88238094D01*
X163954819Y-87333332D02*
X163954819Y-86666666D01*
X163954819Y-86666666D02*
X164954819Y-87095237D01*
X149754819Y-84766666D02*
X149278628Y-85099999D01*
X149754819Y-85338094D02*
X148754819Y-85338094D01*
X148754819Y-85338094D02*
X148754819Y-84957142D01*
X148754819Y-84957142D02*
X148802438Y-84861904D01*
X148802438Y-84861904D02*
X148850057Y-84814285D01*
X148850057Y-84814285D02*
X148945295Y-84766666D01*
X148945295Y-84766666D02*
X149088152Y-84766666D01*
X149088152Y-84766666D02*
X149183390Y-84814285D01*
X149183390Y-84814285D02*
X149231009Y-84861904D01*
X149231009Y-84861904D02*
X149278628Y-84957142D01*
X149278628Y-84957142D02*
X149278628Y-85338094D01*
X148754819Y-84433332D02*
X148754819Y-83814285D01*
X148754819Y-83814285D02*
X149135771Y-84147618D01*
X149135771Y-84147618D02*
X149135771Y-84004761D01*
X149135771Y-84004761D02*
X149183390Y-83909523D01*
X149183390Y-83909523D02*
X149231009Y-83861904D01*
X149231009Y-83861904D02*
X149326247Y-83814285D01*
X149326247Y-83814285D02*
X149564342Y-83814285D01*
X149564342Y-83814285D02*
X149659580Y-83861904D01*
X149659580Y-83861904D02*
X149707200Y-83909523D01*
X149707200Y-83909523D02*
X149754819Y-84004761D01*
X149754819Y-84004761D02*
X149754819Y-84290475D01*
X149754819Y-84290475D02*
X149707200Y-84385713D01*
X149707200Y-84385713D02*
X149659580Y-84433332D01*
X149804819Y-80416666D02*
X149328628Y-80749999D01*
X149804819Y-80988094D02*
X148804819Y-80988094D01*
X148804819Y-80988094D02*
X148804819Y-80607142D01*
X148804819Y-80607142D02*
X148852438Y-80511904D01*
X148852438Y-80511904D02*
X148900057Y-80464285D01*
X148900057Y-80464285D02*
X148995295Y-80416666D01*
X148995295Y-80416666D02*
X149138152Y-80416666D01*
X149138152Y-80416666D02*
X149233390Y-80464285D01*
X149233390Y-80464285D02*
X149281009Y-80511904D01*
X149281009Y-80511904D02*
X149328628Y-80607142D01*
X149328628Y-80607142D02*
X149328628Y-80988094D01*
X149804819Y-79464285D02*
X149804819Y-80035713D01*
X149804819Y-79749999D02*
X148804819Y-79749999D01*
X148804819Y-79749999D02*
X148947676Y-79845237D01*
X148947676Y-79845237D02*
X149042914Y-79940475D01*
X149042914Y-79940475D02*
X149090533Y-80035713D01*
X140354819Y-91961904D02*
X141164342Y-91961904D01*
X141164342Y-91961904D02*
X141259580Y-91914285D01*
X141259580Y-91914285D02*
X141307200Y-91866666D01*
X141307200Y-91866666D02*
X141354819Y-91771428D01*
X141354819Y-91771428D02*
X141354819Y-91580952D01*
X141354819Y-91580952D02*
X141307200Y-91485714D01*
X141307200Y-91485714D02*
X141259580Y-91438095D01*
X141259580Y-91438095D02*
X141164342Y-91390476D01*
X141164342Y-91390476D02*
X140354819Y-91390476D01*
X141354819Y-90390476D02*
X141354819Y-90961904D01*
X141354819Y-90676190D02*
X140354819Y-90676190D01*
X140354819Y-90676190D02*
X140497676Y-90771428D01*
X140497676Y-90771428D02*
X140592914Y-90866666D01*
X140592914Y-90866666D02*
X140640533Y-90961904D01*
X155564580Y-90227666D02*
X155612200Y-90275285D01*
X155612200Y-90275285D02*
X155659819Y-90418142D01*
X155659819Y-90418142D02*
X155659819Y-90513380D01*
X155659819Y-90513380D02*
X155612200Y-90656237D01*
X155612200Y-90656237D02*
X155516961Y-90751475D01*
X155516961Y-90751475D02*
X155421723Y-90799094D01*
X155421723Y-90799094D02*
X155231247Y-90846713D01*
X155231247Y-90846713D02*
X155088390Y-90846713D01*
X155088390Y-90846713D02*
X154897914Y-90799094D01*
X154897914Y-90799094D02*
X154802676Y-90751475D01*
X154802676Y-90751475D02*
X154707438Y-90656237D01*
X154707438Y-90656237D02*
X154659819Y-90513380D01*
X154659819Y-90513380D02*
X154659819Y-90418142D01*
X154659819Y-90418142D02*
X154707438Y-90275285D01*
X154707438Y-90275285D02*
X154755057Y-90227666D01*
X154659819Y-89322904D02*
X154659819Y-89799094D01*
X154659819Y-89799094D02*
X155136009Y-89846713D01*
X155136009Y-89846713D02*
X155088390Y-89799094D01*
X155088390Y-89799094D02*
X155040771Y-89703856D01*
X155040771Y-89703856D02*
X155040771Y-89465761D01*
X155040771Y-89465761D02*
X155088390Y-89370523D01*
X155088390Y-89370523D02*
X155136009Y-89322904D01*
X155136009Y-89322904D02*
X155231247Y-89275285D01*
X155231247Y-89275285D02*
X155469342Y-89275285D01*
X155469342Y-89275285D02*
X155564580Y-89322904D01*
X155564580Y-89322904D02*
X155612200Y-89370523D01*
X155612200Y-89370523D02*
X155659819Y-89465761D01*
X155659819Y-89465761D02*
X155659819Y-89703856D01*
X155659819Y-89703856D02*
X155612200Y-89799094D01*
X155612200Y-89799094D02*
X155564580Y-89846713D01*
D15*
%TO.C,D1*%
X171662500Y-81660000D02*
X174347500Y-81660000D01*
X174347500Y-79740000D02*
X171662500Y-79740000D01*
X174347500Y-81660000D02*
X174347500Y-79740000D01*
%TO.C,C2*%
X147565000Y-92538748D02*
X147565000Y-93061252D01*
X149035000Y-92538748D02*
X149035000Y-93061252D01*
D16*
%TO.C,IC1*%
X164030000Y-91400000D02*
X165530000Y-91400000D01*
X165880000Y-91530000D02*
X169080000Y-91530000D01*
X165880000Y-96430000D02*
X165880000Y-91530000D01*
X169080000Y-91530000D02*
X169080000Y-96430000D01*
X169080000Y-96430000D02*
X165880000Y-96430000D01*
D15*
%TO.C,R4*%
X168185436Y-98325000D02*
X168639564Y-98325000D01*
X168185436Y-99795000D02*
X168639564Y-99795000D01*
%TO.C,C4*%
X174565000Y-87041149D02*
X174565000Y-87563653D01*
X176035000Y-87041149D02*
X176035000Y-87563653D01*
D17*
%TO.C,J1*%
X180223064Y-83294601D02*
X180223064Y-85571960D01*
X180223064Y-87228040D02*
X180223064Y-87571961D01*
X180223064Y-89228041D02*
X180223064Y-89571962D01*
X180223064Y-91228042D02*
X180223064Y-93505401D01*
X180223064Y-93505401D02*
X180971856Y-93505401D01*
X180971856Y-83294601D02*
X180223064Y-83294601D01*
X184736136Y-93505401D02*
X185480864Y-93505401D01*
X185480864Y-83294601D02*
X184736136Y-83294601D01*
X185480864Y-93505401D02*
X185480864Y-83294601D01*
D18*
X180600000Y-82278601D02*
G75*
G02*
X180965031Y-82768763I4J-381000D01*
G01*
X180829149Y-82963989D02*
G75*
G02*
X180600000Y-82278603I-229145J304388D01*
G01*
D15*
%TO.C,C1*%
X143865000Y-92538748D02*
X143865000Y-93061252D01*
X145335000Y-92538748D02*
X145335000Y-93061252D01*
%TO.C,R5*%
X157672936Y-92565000D02*
X158127064Y-92565000D01*
X157672936Y-94035000D02*
X158127064Y-94035000D01*
%TO.C,C3*%
X171065000Y-87041149D02*
X171065000Y-87563653D01*
X172535000Y-87041149D02*
X172535000Y-87563653D01*
%TO.C,C6*%
X173665000Y-93961252D02*
X173665000Y-93438748D01*
X175135000Y-93961252D02*
X175135000Y-93438748D01*
%TO.C,R2*%
X168535436Y-79965000D02*
X168989564Y-79965000D01*
X168535436Y-81435000D02*
X168989564Y-81435000D01*
%TO.C,R6*%
X161865000Y-81222936D02*
X161865000Y-81677064D01*
X163335000Y-81222936D02*
X163335000Y-81677064D01*
%TO.C,R7*%
X161865000Y-87727064D02*
X161865000Y-87272936D01*
X163335000Y-87727064D02*
X163335000Y-87272936D01*
%TO.C,R3*%
X150265000Y-84372936D02*
X150265000Y-84827064D01*
X151735000Y-84372936D02*
X151735000Y-84827064D01*
%TO.C,R1*%
X150265000Y-80477064D02*
X150265000Y-80022936D01*
X151735000Y-80477064D02*
X151735000Y-80022936D01*
D19*
%TO.C,U1*%
X139450000Y-86675000D02*
X141161000Y-86675000D01*
X139450000Y-86867000D02*
X139450000Y-86675000D01*
X139450000Y-89325000D02*
X139450000Y-89133000D01*
X139450000Y-89325000D02*
X141161000Y-89325000D01*
D16*
X142782000Y-86019500D02*
G75*
G02*
X142582000Y-86019500I-100000J0D01*
G01*
X142582000Y-86019500D02*
G75*
G02*
X142782000Y-86019500I100000J0D01*
G01*
D15*
%TO.C,C5*%
X152565000Y-89738748D02*
X152565000Y-90261252D01*
X154035000Y-89738748D02*
X154035000Y-90261252D01*
%TD*%
M02*
